<?xml version="1.0" encoding="UTF-8"?>
<svg width="40px" height="40px" viewBox="0 0 40 40" version="1.1" xmlns="http://www.w3.org/2000/svg" xmlns:xlink="http://www.w3.org/1999/xlink">
    <title>Icon/dynamic-renov</title>
    <g id="Icon/dynamic-renov" stroke="none" stroke-width="1" fill="none" fill-rule="evenodd">
        <path d="M17.9656035,10.0400631 C18.3325693,10.1744316 18.3692659,10.1878685 18.568649,10.4379994 L18.6418116,10.5306334 L26.1053725,23.4616889 C26.3271419,23.9070562 26.1922226,24.4434413 25.8017796,24.7360076 L25.6989039,24.8038758 L25.4892799,24.8840515 C25.3510259,24.9332294 25.2701287,24.9476409 25.1507449,24.9355224 L25.0524932,24.9215878 L24.8322636,24.8783526 C22.9370886,24.1819485 21.4281664,23.9447615 20.3245341,24.1355422 C19.4380591,24.2887838 18.568644,24.5521914 17.7149794,24.9268385 L20.1299077,29.1096769 L20.1539667,29.1537826 L20.1799077,29.1962794 L20.1799077,29.1962794 C20.4363256,29.6404083 20.3133406,30.1994725 19.9115153,30.4981678 L19.8138823,30.5623048 L17.2158061,32.0623048 C16.7375134,32.3384472 16.125923,32.174572 15.8497806,31.6962794 L15.8263037,31.6512682 L15.7997806,31.6096769 L13.3497806,27.3661524 C11.9680464,28.163897 10.215492,27.73756 9.34782179,26.4236062 L9.25170444,26.2680762 L7.75170444,23.67 C6.9539598,22.2882657 7.38029685,20.5357113 8.69425062,19.6680411 L8.84978065,19.5719237 L11.4478569,18.0719237 C11.5555804,18.0097295 11.6666848,17.9586955 11.7798313,17.9184631 L12.2670837,17.6009298 C13.2128707,16.98202 14.1188448,16.1060228 14.981838,14.9675731 C15.8058816,13.8805051 16.3976624,12.5051179 16.7459701,10.8566688 C16.851198,10.2864652 17.4051349,9.92175278 17.9656035,10.0400631 Z M15.9478569,25.8661524 L15.0806026,26.3657488 L17.0806751,29.829822 L17.9471592,29.3294948 L15.9478569,25.8661524 Z M12.4478569,19.8039745 L9.84978065,21.3039745 C9.40565178,21.5603925 9.23262778,22.1060487 9.43127107,22.5656392 L9.48375525,22.67 L10.9837552,25.2680762 C11.2401732,25.712205 11.7858294,25.885229 12.2454199,25.6865857 L12.3497806,25.6341016 L14.9478569,24.1341016 L12.4478569,19.8039745 Z M18.0459465,13.5003418 L18.0145811,13.5833172 C17.6332569,14.5480609 17.1540069,15.4128185 16.5756642,16.175761 C15.9425316,17.0109816 15.2789578,17.7337034 14.5841265,18.3425439 L14.2844256,18.5964991 L14.1297941,18.7173669 L14.1799077,18.8039745 L16.656538,23.0932983 L16.7097941,23.186058 L17.1908292,22.9763532 C17.7984037,22.725349 18.4148556,22.5213272 19.0398938,22.3645266 L19.5102778,22.2557839 L19.9838544,22.1647715 C20.7695629,22.028949 21.6474245,22.0432083 22.6201609,22.203082 L22.9893896,22.2698517 L23.1259465,22.2991599 L18.0459465,13.5003418 Z M27.4063471,18.772451 L27.5319514,18.7768008 L31.8130403,19.1918643 C32.3627475,19.2451599 32.7651686,19.7339903 32.7118729,20.2836976 C32.662677,20.7911196 32.2423744,21.1730434 31.745644,21.1868799 L31.6200397,21.1825302 L27.3389508,20.7674667 C26.7892436,20.714171 26.3868225,20.2253406 26.4401181,19.6756334 C26.4893141,19.1682114 26.9096166,18.7862876 27.4063471,18.772451 Z M31.6806416,12.1250194 C31.9370595,12.5691483 31.8140746,13.1282125 31.4122492,13.4269079 L31.3146162,13.4910448 L26.9844892,15.9910448 C26.5061966,16.2671872 25.8946061,16.103312 25.6184638,15.6250194 C25.3620459,15.1808906 25.4850308,14.6218264 25.8868562,14.323131 L25.9844892,14.258994 L30.3146162,11.758994 C30.7929088,11.4828516 31.4044992,11.6467268 31.6806416,12.1250194 Z M25.1306347,7.15260781 C25.5560033,7.34612169 25.7804837,7.80041124 25.7009353,8.24016621 L25.6716249,8.35953218 L25.6267738,8.47693635 L23.8456848,12.3919999 C23.6169866,12.8947081 23.0240645,13.1168371 22.5213563,12.8881389 C22.0573179,12.6770328 21.832353,12.1555822 21.9803661,11.6812145 L22.0252173,11.5638103 L23.8063062,7.64874683 C24.0350044,7.1460386 24.6279265,6.92390959 25.1306347,7.15260781 Z" id="Combined-Shape" fill="#19B9D8"></path>
    </g>
</svg>
