<?xml version="1.0" encoding="UTF-8"?>
<svg width="40px" height="40px" viewBox="0 0 40 40" version="1.1" xmlns="http://www.w3.org/2000/svg" xmlns:xlink="http://www.w3.org/1999/xlink">
    <title>Icon/formation</title>
    <g id="Icon/formation" stroke="none" stroke-width="1" fill="none" fill-rule="evenodd">
        <path d="M18.6583592,10.5527864 C19.5029417,10.1304952 20.4970583,10.1304952 21.3416408,10.5527864 L21.3416408,10.5527864 L31.5527864,15.6583592 C31.8430775,15.8035048 32.0784612,16.0388885 32.2236068,16.3291796 C32.5940907,17.0701474 32.2937542,17.9711569 31.5527864,18.3416408 L31.5527864,18.3416408 L28.9371823,19.650383 C28.9647701,19.7243033 28.9838626,19.8023644 28.9932723,19.8833789 L29,20 L29,24 C29,24.3366863 28.8309117,24.6476865 28.5553977,24.8316104 L28.4472136,24.8944272 L25.9997054,26.118068 L25.9997054,28.764068 L26.8944272,30.5527864 C27.2093803,31.1826927 26.7920161,31.9179766 26.1151353,31.99363 L26,32 L24,32 C23.256618,32 22.7731223,31.2176875 23.1055728,30.5527864 L23.1055728,30.5527864 L23.9997054,28.762068 L24.0008054,26.9527909 C20.903229,27.9548576 17.5190443,27.7630407 14.5311937,26.3773403 L14.1862233,26.2111456 L11.5527864,24.8944272 C11.251645,24.7438565 11.0490966,24.4535358 11.0078036,24.1248553 L11,24 L11,20 C11,19.8766255 11.0223422,19.7584692 11.0632014,19.6493566 L8.4472136,18.3416408 C8.15692249,18.1964952 7.92153875,17.9611115 7.7763932,17.6708204 C7.40590933,16.9298526 7.70624585,16.0288431 8.4472136,15.6583592 L8.4472136,15.6583592 Z M12.9997054,20.618068 L13,23.382 L15.0806504,24.4222912 C17.8759195,25.8199258 21.1179052,25.9560124 24.0001672,24.8305511 L23.9997054,22.118068 L21.3416408,23.4472136 C20.5620262,23.8370209 19.6549979,23.8670061 18.8557812,23.5371691 L18.6583592,23.4472136 L12.9997054,20.618068 Z M26.9997054,20.618068 L25.9997054,21.118068 L25.9997054,23.881068 L27,23.381 L26.9997054,20.618068 Z M20.4472136,12.3416408 C20.1656861,12.200877 19.8343139,12.200877 19.5527864,12.3416408 L19.5527864,12.3416408 L10.236,17 L19.5527864,21.6583592 C19.7940957,21.7790139 20.0720256,21.7962502 20.3237979,21.7100683 L20.3237979,21.7100683 L20.4472136,21.6583592 L22.7707054,20.496068 L19.375305,17.7808688 C18.977217,17.4623985 18.8870169,16.901699 19.1468548,16.4781227 L19.2191312,16.375305 C19.5376015,15.977217 20.098301,15.8870169 20.5218773,16.1468548 L20.624695,16.2191312 L24.7397054,19.511068 L29.763,17 Z" id="Shape" fill="#ADAA3F"></path>
    </g>
</svg>
