<?xml version="1.0" encoding="UTF-8"?>
<svg width="40px" height="40px" viewBox="0 0 40 40" version="1.1" xmlns="http://www.w3.org/2000/svg" xmlns:xlink="http://www.w3.org/1999/xlink">
    <title>Icon/institution</title>
    <g id="Icon/institution" stroke="none" stroke-width="1" fill="none" fill-rule="evenodd">
        <path d="M19.5211479,9.12210443 C19.8196254,8.95929852 20.1803746,8.95929852 20.4788521,9.12210443 L20.4788521,9.12210443 L31.4788521,15.1221044 C32.3883578,15.6181984 32.0360067,17 31,17 L31,17 L28.4993869,17 L28.4993869,23 L29,23 C29.5128358,23 29.9355072,23.3860402 29.9932723,23.8833789 L30,24 L29.9993869,26 L31,26 C31.5128358,26 31.9355072,26.3860402 31.9932723,26.8833789 L32,27 L32,30 C32,30.5522847 31.5522847,31 31,31 L31,31 L9,31 C8.44771525,31 8,30.5522847 8,30 L8,30 L8,27 C8,26.4477153 8.44771525,26 9,26 L9,26 L9.9993869,26 L10,24 C10,23.4871642 10.3860402,23.0644928 10.8833789,23.0067277 L11,23 L11.4993869,23 L11.4993869,17 L9,17 C8.00383975,17 7.63975747,15.7224468 8.42177197,15.1831477 L8.52114787,15.1221044 Z M30,28 L10,28 L10,29 L30,29 L30,28 Z M28,25 L12,25 L12,26 L28,26 L28,25 Z M16.4993869,17 L13.4993869,17 L13.4993869,23 L16.4993869,23 L16.4993869,17 Z M21.4993869,17 L18.4993869,17 L18.4993869,23 L21.4993869,23 L21.4993869,17 Z M26.4993869,17 L23.4993869,17 L23.4993869,23 L26.4993869,23 L26.4993869,17 Z M20,11.138 L12.919,15 L27.08,15 L20,11.138 Z" id="Shape" fill="#DA1B5C"></path>
    </g>
</svg>
