<?xml version="1.0" encoding="UTF-8"?>
<svg width="40px" height="40px" viewBox="0 0 40 40" version="1.1" xmlns="http://www.w3.org/2000/svg" xmlns:xlink="http://www.w3.org/1999/xlink">
    <title>Icon/module-finance</title>
    <g id="Icon/module-finance" stroke="none" stroke-width="1" fill="none" fill-rule="evenodd">
        <path d="M18.8836954,9.60931096 C20.8907923,9.60931096 22.8649901,10.110643 24.6468524,11.06341 L24.6468524,11.06341 L24.7677945,11.1302617 L24.8383061,11.0872067 C25.2866259,10.8229545 25.760349,10.64351 26.2559153,10.5526574 L26.2559153,10.5526574 L26.5055022,10.5146312 C28.1488521,10.3145294 29.7743496,11.3316425 29.7743496,12.7060421 C29.7743496,13.4360884 29.3961023,13.7652747 28.7363919,14.065939 L28.7363919,14.065939 L28.4637945,14.1872617 L28.5365353,14.2713137 C28.8225278,14.619357 29.0923,14.9835546 29.3450384,15.3630735 L29.3450384,15.3630735 L29.5307945,15.6522617 C29.8111595,15.6645939 30.0589395,15.6875844 30.2950157,15.725592 L30.2950157,15.725592 L30.527643,15.768766 C31.3710707,15.9469092 31.9909427,16.3270562 32.1741402,17.1062089 C32.7232955,19.4418077 32.7389059,21.9974029 31.3338489,23.0512637 C29.8330962,24.1769008 28.3307521,25.1646443 26.8633653,25.9645162 L27.2754247,25.733311 L27.2328698,25.9514743 C26.9943554,27.1335899 26.7895634,28.0223901 26.6148263,28.6280833 L26.5679132,28.7862608 L26.5224738,28.930446 C25.9119784,30.8039966 22.5489395,30.7706445 21.7356053,29.4220493 C21.5741462,29.1543328 21.4386768,28.7477849 21.3076828,28.1609268 L21.3076828,28.1609268 L21.2777945,28.0252617 L21.2199367,28.035589 C20.8604199,28.0893997 20.5074829,28.1234653 20.1615111,28.137135 L20.1615111,28.137135 L19.8178754,28.1439819 C19.2664039,28.1439819 18.7137297,28.1014847 18.1651274,28.0179666 L18.1651274,28.0179666 L17.9397945,27.9792617 L17.8645066,28.2642817 L17.750769,28.6572287 L17.6649635,28.930446 C17.0544681,30.8039966 13.6914291,30.7706445 12.878095,29.4220493 C12.6577895,29.0567592 12.2977138,27.8824477 11.7017832,25.6354532 L11.7017832,25.6354532 L11.3557945,24.3172617 L11.2980301,24.2516287 C10.4097498,23.2020669 9.78153721,22.0148421 9.46569227,20.755831 L9.46569227,20.755831 L9.45279453,20.7042617 L9.3416886,20.6971143 C8.26483932,20.5983496 7.55000323,20.0687535 7.48436543,19.0354317 L7.48436543,19.0354317 L7.47942465,18.8766464 C7.47942465,17.7114344 8.23391256,17.0669955 9.42193911,16.9024759 L9.44679453,16.8992617 L9.4915443,16.7077689 C10.4748124,12.6596648 14.141497,9.73085873 18.6037836,9.61300164 L18.6037836,9.61300164 Z M18.8836954,11.609311 C14.9184114,11.609311 11.739369,14.3393287 11.2875646,17.9879173 L11.2875646,17.9879173 L11.1837945,18.8232617 L11.2736745,19.5585804 C11.4191374,20.7591608 11.9494401,21.9167995 12.8036722,22.9346726 L12.8036722,22.9346726 L13.0065252,23.1670413 L13.1725258,23.3499579 L13.6247283,25.0802824 C13.9886054,26.4482727 14.2693791,27.4375888 14.436924,27.9655654 L14.436924,27.9655654 L14.5417945,28.2762617 C14.5517644,28.2764126 14.5575308,28.2778444 14.5644854,28.2799197 L14.5644854,28.2799197 L14.7287637,28.3263112 C14.8768098,28.3606246 15.0462947,28.3814659 15.2117573,28.3832399 C15.4638255,28.3856066 15.6250629,28.3523404 15.7044811,28.3300868 L15.7044811,28.3300868 L15.7633707,28.3108131 C15.9138445,27.8490238 16.0672971,27.2704151 16.2221763,26.5772957 L16.2221763,26.5772957 L16.4494617,25.5601422 L17.4563479,25.8292891 C18.2339241,26.0371401 19.029205,26.1439819 19.8178754,26.1439819 C20.4428921,26.1439819 21.1173582,26.0533268 21.8348449,25.8747705 L21.8348449,25.8747705 L22.8857133,25.6132476 L23.1007363,26.9042314 C23.2137749,27.5522144 23.3207246,28.0184121 23.3929499,28.2476163 L23.3929499,28.2476163 L23.4017945,28.2762617 L23.4017945,28.2762617 L23.4219958,28.2799197 L23.5862741,28.3263112 C23.7343201,28.3606246 23.903805,28.3814659 24.0692676,28.3832399 C24.3213359,28.3856066 24.4825732,28.3523404 24.5619914,28.3300868 L24.5619914,28.3300868 L24.6208811,28.3108131 C24.7758547,27.8352142 24.9794487,26.9874995 25.2258333,25.7846857 L25.2258333,25.7846857 L25.4930531,24.4336374 L25.9061416,24.208463 C27.2821305,23.4584121 28.705528,22.5225735 30.1337994,21.4513008 C30.5504156,21.1388185 30.5761776,19.3983314 30.3108687,17.9639649 L30.3108687,17.9639649 L30.2717945,17.7652617 L30.1143347,17.7255942 C29.8250304,17.6644892 29.4496228,17.6406142 28.9605698,17.6406142 L28.9605698,17.6406142 L28.3819272,17.6406142 L28.0935773,17.1389354 C27.6352662,16.3415536 27.0969896,15.6154567 26.4874508,14.9684712 L26.4874508,14.9684712 L26.1850319,14.6474732 L26.2181273,14.2076987 C26.2770176,13.4251603 26.6565925,12.922786 27.2650028,12.5598786 L27.2650028,12.5598786 L27.3067945,12.5352617 L27.1624304,12.505174 C27.0753842,12.4918201 26.9841329,12.4861328 26.8901307,12.4890414 L26.8901307,12.4890414 L26.7472459,12.4999674 C26.3002976,12.5543899 25.8753757,12.7452608 25.4579635,13.0895685 L25.4579635,13.0895685 L24.9042264,13.5463255 L24.2943258,13.1678113 C22.651083,12.147988 20.7835428,11.609311 18.8836954,11.609311 Z M22.0489989,14.5262646 C22.4975964,14.6356601 22.7725741,15.0880028 22.6631786,15.5366003 C22.5537832,15.9851979 22.1014405,16.2601756 21.6528429,16.1507801 L21.2611092,16.0620265 C19.3807412,15.6705533 18.2872543,15.9717922 17.8059569,17.0461835 L19.7727659,17.0465659 C20.2345095,17.0465659 20.6088267,17.420883 20.6088267,17.8826266 C20.6088267,18.3113885 20.2860736,18.6647674 19.8702683,18.7130626 L19.7727659,18.7186874 L17.5110031,18.7178346 C17.5106967,18.7465793 17.510544,18.7755523 17.510544,18.8047538 L17.5124247,18.979311 L19.316013,18.9800177 C19.7777566,18.9800177 20.1520737,19.3543348 20.1520737,19.8160784 C20.1520737,20.2448403 19.8293207,20.5982192 19.4135153,20.6465143 L19.316013,20.6521391 L17.8392263,20.6522272 C18.3764422,21.7844787 19.5974805,22.0941809 21.6864662,21.6750859 C22.1391889,21.5842601 22.579822,21.8776355 22.6706478,22.3303582 C22.7614736,22.7830809 22.4680982,23.223714 22.0153756,23.3145398 C18.8049373,23.958622 16.7280019,23.0233254 16.066667,20.652287 L15.4081955,20.6521391 C14.9464519,20.6521391 14.5721347,20.277822 14.5721347,19.8160784 C14.5721347,19.3873165 14.8948878,19.0339376 15.3106931,18.9856425 L15.4081955,18.9800177 L15.840118,18.9802588 C15.8389884,18.9222942 15.8384225,18.8637922 15.8384225,18.8047538 L15.8384247,18.718311 L15.3767112,18.7186874 C14.9149677,18.7186874 14.5406505,18.3443702 14.5406505,17.8826266 C14.5406505,17.4538647 14.8634036,17.1004858 15.2792089,17.0521907 L15.3767112,17.0465659 L16.0447277,17.0463578 C16.6851108,14.62163 18.7934561,13.7323648 22.0489989,14.5262646 Z" id="Combined-Shape" fill="#FFAE09"></path>
    </g>
</svg>
