<?xml version="1.0" encoding="UTF-8"?>
<svg width="40px" height="40px" viewBox="0 0 40 40" version="1.1" xmlns="http://www.w3.org/2000/svg" xmlns:xlink="http://www.w3.org/1999/xlink">
    <title>Icon/livre</title>
    <g id="Icon/livre" stroke="none" stroke-width="1" fill="none" fill-rule="evenodd">
        <path d="M28,8 C28.5522847,8 29,8.44771525 29,9 L29,9 L29,27 C29,27.0136031 28.9997284,27.0271427 28.9991903,27.0406138 C28.998506,27.0636407 28.9967981,27.0863542 28.9943252,27.1089074 C28.992591,27.1232186 28.9907104,27.1376474 28.9885257,27.1519762 C28.9849457,27.1759569 28.9804164,27.1995601 28.9750574,27.2229147 C28.9725554,27.2339545 28.9697413,27.2453934 28.9667322,27.2567529 C28.9600506,27.281546 28.9525883,27.3057554 28.9442354,27.3296126 C28.9383708,27.3469134 28.9318048,27.364167 28.9247828,27.3811844 C28.9185623,27.3957284 28.9121336,27.4103008 28.9053658,27.4247059 C28.8975874,27.4417292 28.8893064,27.4581372 28.8805946,27.4742785 C28.8717545,27.4902865 28.8626505,27.5061287 28.8531218,27.5217122 C28.8426038,27.5391547 28.8313436,27.5563233 28.8195806,27.5731138 C28.808877,27.5883072 28.7978646,27.6031763 28.7864422,27.6177391 C28.7769652,27.6297815 28.7672072,27.641619 28.7571869,27.6532236 C28.7450384,27.6674372 28.732293,27.681424 28.7191439,27.6950547 C28.7009939,27.7136018 28.6829567,27.7308881 28.6642936,27.747486 C28.6569335,27.7542969 28.649353,27.7608432 28.6416673,27.7672803 C28.6267731,27.7794991 28.6111494,27.7918257 28.5951593,27.8036865 C28.5809779,27.8144527 28.5660382,27.8249124 28.5507772,27.8349788 C28.527184,27.8503761 28.5030523,27.8649063 28.4782862,27.8784197 C28.4697866,27.8830988 28.4613051,27.8875505 28.4527434,27.8918869 C28.4334896,27.9016827 28.4135485,27.9110199 28.3932621,27.9197056 C28.3767677,27.9266134 28.3602036,27.9331556 28.3433915,27.9392788 C28.3277707,27.9451942 28.3119105,27.9505456 28.2958778,27.9555046 C28.2785165,27.96062 28.260646,27.9656149 28.2425356,27.9701425 C27.3147493,28.2020891 27,28.5168384 27,29 C27,29.4831616 27.3147493,29.7979109 28.2425356,30.0298575 C29.3457249,30.3056548 29.1923431,31.8814883 28.1226126,31.993696 L28,32 L15,32 C12.5129658,32 11,30.9913561 11,29 L11,12 C11,9.44771525 12.4477153,8 15,8 Z M25.1701966,27.9997343 L15,28 L15,28 C13.4870342,28 13,28.3246895 13,29 C13,29.6431529 13.4417544,29.9682821 14.790783,29.9977884 L15,30 L25.171,30 L25.1299309,29.882373 C25.0613537,29.6647869 25.0193442,29.432865 25.0052835,29.1870035 L25,29 C25,28.6377758 25.0580862,28.3039653 25.1701966,27.9997343 Z M13.0029013,11.8236745 L13,12 L12.9996614,26.2847051 C13.3027966,26.1829119 13.6369349,26.1083427 13.9996581,26.0611139 L13.999457,10.1331742 C13.3305309,10.3588863 13.0347232,10.8860088 13.0029013,11.8236745 Z M27,10 L16,10 L16,26 L27,26 L27,10 Z M24,16 C24.5522847,16 25,16.4477153 25,17 C25,17.5128358 24.6139598,17.9355072 24.1166211,17.9932723 L24,18 L19,18 C18.4477153,18 18,17.5522847 18,17 C18,16.4871642 18.3860402,16.0644928 18.8833789,16.0067277 L19,16 L24,16 Z M24,13 C24.5522847,13 25,13.4477153 25,14 C25,14.5128358 24.6139598,14.9355072 24.1166211,14.9932723 L24,15 L19,15 C18.4477153,15 18,14.5522847 18,14 C18,13.4871642 18.3860402,13.0644928 18.8833789,13.0067277 L19,13 L24,13 Z" id="Shape" fill="#C23481"></path>
    </g>
</svg>
