<?xml version="1.0" encoding="UTF-8"?>
<svg width="40px" height="40px" viewBox="0 0 40 40" version="1.1" xmlns="http://www.w3.org/2000/svg" xmlns:xlink="http://www.w3.org/1999/xlink">
    <title>Icon/technique</title>
    <g id="Icon/technique" stroke="none" stroke-width="1" fill="none" fill-rule="evenodd">
        <path d="M24.5,8 C25.2282319,8 25.9432773,8.1041061 26.6284694,8.30658694 L26.9685005,8.41599873 L28.4735377,8.94039958 L24.144,13.27 L24.79,15.209 L26.729,15.855 L31.0598623,11.5268993 L31.5841605,13.0319566 C31.8583552,13.8190634 32,14.6505614 32,15.5 C32,19.6421356 28.6421356,23 24.5,23 C23.8599136,23 23.2385553,22.9198153 22.6454221,22.7689427 L14.7071068,30.7071068 C13.212013,32.2022006 10.787987,32.2022006 9.29289322,30.7071068 C7.84935439,29.2635679 7.79957718,26.9540567 9.14356162,25.4507956 L9.29289322,25.2928932 L17.2310573,17.3545779 C17.0801847,16.7614447 17,16.1400864 17,15.5 C17,11.3578644 20.3578644,8 24.5,8 Z M17.96,19.453 L10.7071068,26.7071068 C9.99306157,27.421152 9.99306157,28.578848 10.7071068,29.2928932 C11.3814828,29.9672692 12.4515844,30.0047346 13.1699299,29.4052892 L13.2928932,29.2928932 L20.409,22.176 L17.96,19.453 Z M24.5,10 C21.4624339,10 19,12.4624339 19,15.5 C19,18.5375661 21.4624339,21 24.5,21 C27.4634791,21 29.8795391,18.65622 29.9956328,15.7212071 L30,15.5 L29.997,15.417 L27.2700237,18.1441005 L23.2094306,16.7905694 L21.8558835,12.7299282 L24.582,10.002 L24.5,10 Z" id="Shape" fill="#246EA3"></path>
    </g>
</svg>
