<svg width="159" height="159" viewBox="0 0 159 159" fill="none" xmlns="http://www.w3.org/2000/svg">
  <path d="M100.883 87.1389C100.904 79.091 98.5158 71.5992 94.3981 65.3461L88.655 71.0626C91.4206 75.7723 93.0002 81.2612 92.9849 87.1183C92.9393 104.566 78.7585 118.673 61.3111 118.627C43.8638 118.581 29.7568 104.401 29.8024 86.9533C29.8479 69.5059 44.0287 55.399 61.4761 55.4445C67.3348 55.4598 72.8169 57.069 77.5128 59.8605L83.2554 54.145C77.0238 49.9947 69.5445 47.5677 61.4967 47.5467C39.6875 47.4898 21.9615 65.1235 21.9046 86.9327C21.8476 108.742 39.4813 126.468 61.2905 126.525C83.0997 126.582 100.826 108.948 100.883 87.1389ZM85.0871 87.0977C85.0966 83.4412 84.2775 79.976 82.8064 76.88L76.6662 82.989C77.0109 84.2933 77.1929 85.6638 77.1893 87.077C77.1665 95.8007 70.0761 102.854 61.3524 102.831C52.6287 102.809 45.5752 95.7182 45.598 86.9946C45.6208 78.2709 52.7112 71.2174 61.4349 71.2402C62.8481 71.2438 64.2174 71.433 65.5201 71.7846L71.6611 65.6763C68.5728 64.1891 65.1119 63.3519 61.4555 63.3423C48.3699 63.3082 37.7343 73.8884 37.7002 86.9739C37.666 100.059 48.2462 110.695 61.3318 110.729C74.4173 110.763 85.0529 100.183 85.0871 87.0977ZM119.577 46.5418C121.488 44.6408 120.975 41.4265 118.567 40.2148L111.858 36.8384L108.513 30.1077C107.388 27.8446 104.495 27.2374 102.564 28.7369L102.191 29.0649L90.3133 40.8807C89.1082 42.0795 88.8055 43.9148 89.5617 45.4371L92.2234 50.798L58.6086 84.2362C57.0625 85.7742 57.056 88.2745 58.594 89.8208C60.0138 91.248 62.2536 91.3634 63.8057 90.163L64.1786 89.8354L97.7966 56.3963L103.139 59.0853C104.505 59.773 106.13 59.6043 107.32 58.6897L107.699 58.3574L119.577 46.5418ZM110.123 44.8067L104.149 50.75L99.9802 48.654L97.9061 44.4746L103.88 38.5313L105.368 41.5293C105.672 42.1414 106.128 42.6615 106.689 43.0417L107.129 43.2998L110.123 44.8065L110.123 44.8067Z" fill="#1D837B"/>
  <g clip-path="url(#clip0_2019_7)">
    <path d="M114.509 106.527C114.509 118.678 104.883 128.527 93.0086 128.527C81.1344 128.527 71.5086 118.678 71.5086 106.527C71.5086 94.3771 81.1344 84.5274 93.0086 84.5274C104.883 84.5274 114.509 94.3771 114.509 106.527Z" fill="white"/>
    <path d="M109.212 88.8148C111.655 91.2682 113.486 94.0374 114.703 97.1225C115.921 100.208 116.527 103.343 116.52 106.529C116.513 109.714 115.895 112.847 114.664 115.927C113.434 119.007 111.592 121.769 109.138 124.212C106.685 126.655 103.916 128.486 100.831 129.703C97.7455 130.921 94.6101 131.527 91.4244 131.52C88.2387 131.513 85.1058 130.895 82.0259 129.664C78.9459 128.434 76.1843 126.592 73.7411 124.138C71.2979 121.685 69.4675 118.916 68.2498 115.831C67.032 112.745 66.4265 109.61 66.4331 106.424C66.4397 103.239 67.0583 100.106 68.2889 97.0258C69.5195 93.9459 71.3615 91.1843 73.8149 88.7411C76.2683 86.2979 79.0375 84.4675 82.1225 83.2497C85.2076 82.032 88.343 81.4264 91.5287 81.4331C94.7144 81.4397 97.8473 82.0583 100.927 83.2889C104.007 84.5194 106.769 86.3614 109.212 88.8148ZM105.665 92.3472C103.781 90.4554 101.616 88.9907 99.1698 87.9532C96.7236 86.9157 94.1732 86.3942 91.5184 86.3887L91.4765 106.477L77.2882 120.606C81.2327 124.567 85.9482 126.553 91.4347 126.564C96.9213 126.576 101.645 124.609 105.606 120.665C109.567 116.72 111.553 112.005 111.564 106.518C111.576 101.032 109.609 96.3081 105.665 92.3472Z" fill="#303030"/>
    <g clip-path="url(#clip1_2019_7)">
      <path d="M109.708 88.2747C112.258 90.7611 114.182 93.5796 115.481 96.7303C116.779 99.8813 117.449 103.103 117.491 106.395C117.531 109.688 116.941 112.926 115.72 116.11C114.498 119.293 112.644 122.159 110.157 124.708C107.671 127.258 104.852 129.182 101.702 130.481C98.5508 131.779 95.3291 132.449 92.0367 132.491C88.7444 132.531 85.5063 131.941 82.3225 130.72C79.139 129.498 76.2727 127.644 73.7236 125.157C71.1746 122.671 69.2505 119.853 67.9515 116.702C66.6528 113.551 65.9829 110.329 65.9416 107.037C65.9009 103.744 66.4913 100.506 67.7126 97.3225C68.9342 94.139 70.7882 91.2727 73.2747 88.7236C75.7611 86.1746 78.5796 84.2505 81.7303 82.9516C84.8813 81.6529 88.103 80.9829 91.3954 80.9416C94.6877 80.9009 97.9258 81.4913 101.11 82.7126C104.293 83.9342 107.159 85.7883 109.708 88.2747ZM105.145 92.924C103.312 91.1356 101.215 89.7608 98.8537 88.7996C96.4934 87.8383 94.0258 87.3737 91.451 87.4057L91.7092 106.723L78.2747 120.496C82.1054 124.233 86.6659 126.068 91.956 126.002C97.2461 125.936 101.76 123.988 105.496 120.157C109.233 116.327 111.068 111.766 111.002 106.476C110.936 101.186 108.984 96.6686 105.145 92.924Z" fill="#121212"/>
    </g>
  </g>
  <defs>
    <clipPath id="clip0_2019_7">
      <rect width="60.071" height="60.071" fill="white" transform="translate(91.3881 148.953) rotate(-134.881)"/>
    </clipPath>
    <clipPath id="clip1_2019_7">
      <rect width="59" height="59" fill="white" transform="translate(92.2351 148.432) rotate(-135.713)"/>
    </clipPath>
  </defs>
</svg>
