<svg width="159" height="159" viewBox="0 0 159 159" fill="none" xmlns="http://www.w3.org/2000/svg">
  <path d="M100.883 87.1389C100.904 79.091 98.5158 71.5992 94.3981 65.3461L88.655 71.0626C91.4206 75.7723 93.0002 81.2612 92.9849 87.1183C92.9393 104.566 78.7585 118.673 61.3111 118.627C43.8638 118.581 29.7568 104.401 29.8024 86.9533C29.8479 69.5059 44.0287 55.399 61.4761 55.4445C67.3348 55.4598 72.8169 57.069 77.5128 59.8605L83.2554 54.145C77.0238 49.9947 69.5445 47.5677 61.4967 47.5467C39.6875 47.4898 21.9615 65.1235 21.9046 86.9327C21.8476 108.742 39.4813 126.468 61.2905 126.525C83.0997 126.582 100.826 108.948 100.883 87.1389ZM85.0871 87.0977C85.0966 83.4412 84.2775 79.976 82.8064 76.88L76.6662 82.989C77.0109 84.2933 77.1929 85.6638 77.1893 87.077C77.1665 95.8007 70.0761 102.854 61.3524 102.831C52.6287 102.809 45.5752 95.7182 45.598 86.9946C45.6208 78.2709 52.7112 71.2174 61.4349 71.2402C62.8481 71.2438 64.2174 71.433 65.5201 71.7846L71.6611 65.6763C68.5728 64.1891 65.1119 63.3519 61.4555 63.3423C48.3699 63.3082 37.7343 73.8884 37.7002 86.9739C37.666 100.059 48.2462 110.695 61.3318 110.729C74.4173 110.763 85.0529 100.183 85.0871 87.0977ZM119.577 46.5418C121.488 44.6408 120.975 41.4265 118.567 40.2148L111.858 36.8384L108.513 30.1077C107.388 27.8446 104.495 27.2374 102.564 28.7369L102.191 29.0649L90.3133 40.8807C89.1082 42.0795 88.8055 43.9148 89.5617 45.4371L92.2234 50.798L58.6086 84.2362C57.0625 85.7742 57.056 88.2745 58.594 89.8208C60.0138 91.248 62.2536 91.3634 63.8057 90.163L64.1786 89.8354L97.7966 56.3963L103.139 59.0853C104.505 59.773 106.13 59.6043 107.32 58.6897L107.699 58.3574L119.577 46.5418ZM110.123 44.8067L104.149 50.75L99.9802 48.654L97.9061 44.4746L103.88 38.5313L105.368 41.5293C105.672 42.1414 106.128 42.6615 106.689 43.0417L107.129 43.2998L110.123 44.8065L110.123 44.8067Z" fill="#1D837B" fill-opacity="0.3"/>
</svg>
