<svg width="159" height="159" viewBox="0 0 159 159" fill="none" xmlns="http://www.w3.org/2000/svg">
  <path d="M100.883 87.1389C100.904 79.091 98.5159 71.5992 94.3982 65.3461L88.6551 71.0626C91.4206 75.7723 93.0002 81.2612 92.9849 87.1183C92.9394 104.566 78.7586 118.673 61.3112 118.627C43.8638 118.581 29.7569 104.401 29.8024 86.9533C29.848 69.5059 44.0288 55.399 61.4762 55.4445C67.3349 55.4598 72.8169 57.069 77.5129 59.8605L83.2555 54.145C77.0239 49.9947 69.5445 47.5677 61.4968 47.5467C39.6876 47.4898 21.9616 65.1235 21.9046 86.9327C21.8477 108.742 39.4814 126.468 61.2906 126.525C83.0998 126.582 100.826 108.948 100.883 87.1389ZM85.0871 87.0977C85.0967 83.4412 84.2775 79.976 82.8065 76.88L76.6663 82.989C77.011 84.2933 77.193 85.6638 77.1893 87.077C77.1665 95.8007 70.0761 102.854 61.3524 102.831C52.6287 102.809 45.5753 95.7182 45.5981 86.9946C45.6208 78.2709 52.7112 71.2174 61.4349 71.2402C62.8482 71.2438 64.2175 71.433 65.5202 71.7846L71.6611 65.6763C68.5728 64.1891 65.112 63.3519 61.4555 63.3423C48.37 63.3082 37.7344 73.8884 37.7002 86.9739C37.6661 100.059 48.2463 110.695 61.3318 110.729C74.4174 110.763 85.053 100.183 85.0871 87.0977ZM119.577 46.5418C121.488 44.6408 120.975 41.4265 118.567 40.2148L111.858 36.8384L108.513 30.1077C107.389 27.8446 104.496 27.2374 102.564 28.7369L102.191 29.0649L90.3133 40.8807C89.1082 42.0795 88.8056 43.9148 89.5618 45.4371L92.2235 50.798L58.6087 84.2362C57.0626 85.7742 57.056 88.2745 58.5941 89.8208C60.0138 91.248 62.2536 91.3634 63.8058 90.163L64.1787 89.8354L97.7966 56.3963L103.139 59.0853C104.505 59.773 106.13 59.6043 107.32 58.6897L107.699 58.3574L119.577 46.5418ZM110.123 44.8067L104.149 50.75L99.9803 48.654L97.9061 44.4746L103.881 38.5313L105.368 41.5293C105.672 42.1414 106.128 42.6615 106.689 43.0417L107.129 43.2998L110.123 44.8065L110.123 44.8067Z" fill="#1D837B"/>
  <path d="M72.5157 108.371C72.5243 95.8634 81.173 85.7162 91.8327 85.7062C102.493 85.6964 111.128 95.8281 111.119 108.336C111.111 120.843 102.462 130.99 91.8024 131C81.1423 131.01 72.5072 120.878 72.5157 108.371Z" fill="white"/>
  <path d="M87.79 120.69L106.472 102.008L102.763 98.2976L87.79 113.27L80.2375 105.718L76.5275 109.428L87.79 120.69ZM91.5 135C87.8342 135 84.3892 134.304 81.165 132.913C77.9408 131.522 75.1363 129.634 72.7513 127.249C70.3663 124.864 68.4781 122.059 67.0869 118.835C65.6956 115.611 65 112.166 65 108.5C65 104.834 65.6956 101.389 67.0869 98.1651C68.4781 94.9409 70.3663 92.1363 72.7513 89.7513C75.1363 87.3663 77.9408 85.4782 81.165 84.0869C84.3892 82.6957 87.8342 82.0001 91.5 82.0001C95.1658 82.0001 98.6108 82.6957 101.835 84.0869C105.059 85.4782 107.864 87.3663 110.249 89.7513C112.634 92.1363 114.522 94.9409 115.913 98.1651C117.304 101.389 118 104.834 118 108.5C118 112.166 117.304 115.611 115.913 118.835C114.522 122.059 112.634 124.864 110.249 127.249C107.864 129.634 105.059 131.522 101.835 132.913C98.6108 134.304 95.1658 135 91.5 135Z" fill="#1D837B"/>
</svg>
