<?xml version="1.0" standalone="no"?>
<!DOCTYPE svg PUBLIC "-//W3C//DTD SVG 1.1//EN" "http://www.w3.org/Graphics/SVG/1.1/DTD/svg11.dtd" >
<svg xmlns="http://www.w3.org/2000/svg">
<metadata>Generated by IcoMoon</metadata>
<defs>
<font id="font-icon" horiz-adv-x="1024">
<font-face units-per-em="1024" ascent="960" descent="-64" />
<missing-glyph horiz-adv-x="1024" />
<glyph unicode="&#x20;" horiz-adv-x="512" d="" />
<glyph unicode="&#xe900;" glyph-name="acidification" d="M768 243.2c14.138 0 25.6-11.462 25.6-25.6s-11.462-25.6-25.6-25.6c-11.828 0-17.387-2.79-29.835-14.882l-3.263-3.22c-23.573-23.573-39.448-33.098-69.302-33.098-27.988 0-43.69 8.372-64.967 28.842l-4.335 4.256c-14.827 14.827-20.285 18.102-33.098 18.102-11.828 0-17.387-2.79-29.835-14.882l-3.263-3.22c-23.573-23.573-39.448-33.098-69.302-33.098-27.988 0-43.69 8.372-64.967 28.842l-4.335 4.256c-14.827 14.827-20.285 18.102-33.098 18.102-11.828 0-17.387-2.79-29.835-14.882l-3.263-3.22c-23.573-23.573-39.448-33.098-69.302-33.098-14.138 0-25.6 11.462-25.6 25.6 0 13.129 9.883 23.949 22.614 25.428l2.986 0.172c11.828 0 17.387 2.79 29.835 14.882l3.263 3.22c23.573 23.573 39.448 33.098 69.302 33.098 27.988 0 43.69-8.372 64.967-28.842l4.335-4.256c14.827-14.827 20.285-18.102 33.098-18.102 11.828 0 17.387 2.79 29.835 14.882l3.263 3.22c23.573 23.573 39.448 33.098 69.302 33.098 27.988 0 43.69-8.372 64.967-28.842l4.335-4.256c14.827-14.827 20.285-18.102 33.098-18.102 11.828 0 17.387 2.79 29.835 14.882l3.263 3.22c23.573 23.573 39.448 33.098 69.302 33.098zM768 345.6c14.138 0 25.6-11.462 25.6-25.6s-11.462-25.6-25.6-25.6c-11.828 0-17.387-2.79-29.835-14.882l-3.263-3.22c-23.573-23.573-39.448-33.098-69.302-33.098-27.988 0-43.69 8.372-64.967 28.842l-4.335 4.256c-14.827 14.827-20.285 18.102-33.098 18.102-11.828 0-17.387-2.79-29.835-14.882l-3.263-3.22c-23.573-23.573-39.448-33.098-69.302-33.098-27.988 0-43.69 8.372-64.967 28.842l-4.335 4.256c-14.827 14.827-20.285 18.102-33.098 18.102-11.828 0-17.387-2.79-29.835-14.882l-3.263-3.22c-23.573-23.573-39.448-33.098-69.302-33.098-14.138 0-25.6 11.462-25.6 25.6 0 13.129 9.883 23.949 22.614 25.428l2.986 0.172c11.828 0 17.387 2.79 29.835 14.882l3.263 3.22c23.573 23.573 39.448 33.098 69.302 33.098 27.988 0 43.69-8.372 64.967-28.842l4.335-4.256c14.827-14.827 20.285-18.102 33.098-18.102 11.828 0 17.387 2.79 29.835 14.882l3.263 3.22c23.573 23.573 39.448 33.098 69.302 33.098 27.988 0 43.69-8.372 64.967-28.842l4.335-4.256c14.827-14.827 20.285-18.102 33.098-18.102 11.828 0 17.387 2.79 29.835 14.882l3.263 3.22c23.573 23.573 39.448 33.098 69.302 33.098zM460.8 704c13.129 0 23.949-9.883 25.428-22.614l0.172-2.986v-204.8c0-14.138-11.462-25.6-25.6-25.6-13.129 0-23.949 9.883-25.428 22.614l-0.172 2.986v76.8h-76.8v-76.8c0-14.138-11.462-25.6-25.6-25.6-13.129 0-23.949 9.883-25.428 22.614l-0.172 2.986v204.8c0 14.138 11.462 25.6 25.6 25.6 13.129 0 23.949-9.883 25.428-22.614l0.172-2.986v-76.8h76.8v76.8c0 14.138 11.462 25.6 25.6 25.6zM640 678.4c13.129 0 23.949-9.883 25.428-22.614l0.172-2.986v-51.2h51.2c14.138 0 25.6-11.462 25.6-25.6 0-13.129-9.883-23.949-22.614-25.428l-2.986-0.172h-51.2v-51.2c0-14.138-11.462-25.6-25.6-25.6-13.129 0-23.949 9.883-25.428 22.614l-0.172 2.986v51.2h-51.2c-14.138 0-25.6 11.462-25.6 25.6 0 13.129 9.883 23.949 22.614 25.428l2.986 0.172h51.2v51.2c0 14.138 11.462 25.6 25.6 25.6z" />
<glyph unicode="&#xe901;" glyph-name="acte" d="M704 704c42.415 0 76.8-34.385 76.8-76.8v0-280.813c0-42.415-34.385-76.8-76.8-76.8v0l-136.55 0.006 0.025-64.794c0-20.266-22.192-32.124-38.854-21.913v0l-2.34 1.61-110.819 85.097-95.462-0.006c-40.901 0-74.334 31.972-76.67 72.287v0l-0.13 4.513v280.813c0 42.415 34.385 76.8 76.8 76.8v0zM704 652.8h-384c-14.138 0-25.6-11.462-25.6-25.6v0-280.813c0-14.138 11.462-25.6 25.6-25.6v0h104.187c5.639 0 11.121-1.862 15.593-5.297v0l76.469-58.722 0.025 38.419c0 13.129 9.883 23.949 22.614 25.428v0l2.986 0.172h162.125c14.138 0 25.6 11.462 25.6 25.6v0 280.813c0 14.138-11.462 25.6-25.6 25.6v0zM640 448c14.138 0 25.6-11.462 25.6-25.6s-11.462-25.6-25.6-25.6h-179.2c-14.138 0-25.6 11.462-25.6 25.6s11.462 25.6 25.6 25.6h179.2zM384 448c14.138 0 25.6-11.462 25.6-25.6s-11.462-25.6-25.6-25.6c-14.138 0-25.6 11.462-25.6 25.6s11.462 25.6 25.6 25.6zM640 576c14.138 0 25.6-11.462 25.6-25.6s-11.462-25.6-25.6-25.6h-179.2c-14.138 0-25.6 11.462-25.6 25.6s11.462 25.6 25.6 25.6h179.2zM384 576c14.138 0 25.6-11.462 25.6-25.6s-11.462-25.6-25.6-25.6c-14.138 0-25.6 11.462-25.6 25.6s11.462 25.6 25.6 25.6z" />
<glyph unicode="&#xe902;" glyph-name="acte_A" d="M704 704c42.415 0 76.8-34.385 76.8-76.8v0-280.813c0-42.415-34.385-76.8-76.8-76.8v0l-136.55 0.006 0.025-64.794c0-20.266-22.192-32.124-38.854-21.913v0l-2.34 1.61-110.819 85.097-95.462-0.006c-40.901 0-74.334 31.972-76.67 72.287v0l-0.13 4.513v280.813c0 42.415 34.385 76.8 76.8 76.8v0zM704 652.8h-384c-14.138 0-25.6-11.462-25.6-25.6v0-280.813c0-14.138 11.462-25.6 25.6-25.6v0h104.187c5.639 0 11.121-1.862 15.593-5.297v0l76.469-58.722 0.025 38.419c0 13.129 9.883 23.949 22.614 25.428v0l2.986 0.172h162.125c14.138 0 25.6 11.462 25.6 25.6v0 280.813c0 14.138-11.462 25.6-25.6 25.6v0zM506.638 623.021c13.31 0 24.975-8.527 29.164-20.908l0.888-3.173 46.251-207.112c4.117-18.436-9.908-35.939-28.799-35.939-13.023 0-24.364 8.509-28.166 20.707l-0.79 3.124-5.529 28.091h-26.061l-5.504-28.091c-2.297-11.714-11.339-20.666-22.613-23.143l-3.127-0.512-3.217-0.174c-17.841 0-31.342 15.613-29.318 32.878l0.52 3.061 46.251 207.112c3.142 14.073 15.631 24.081 30.052 24.081zM506.47 521.765c-2.422-0.001-4.132-1.491-5.128-4.469l-0.512-1.966-5.196-48.154c0-8.658 3.544-12.986 10.631-12.986 6.3 0 9.8 3.42 10.5 10.261l0.131 2.726-4.991 48.158c-0.716 4.288-2.527 6.432-5.433 6.431z" />
<glyph unicode="&#xe903;" glyph-name="acte_B" d="M704 704c42.415 0 76.8-34.385 76.8-76.8v0-280.813c0-42.415-34.385-76.8-76.8-76.8v0l-136.55 0.006 0.025-64.794c0-20.266-22.192-32.124-38.854-21.913v0l-2.34 1.61-110.819 85.097-95.462-0.006c-40.901 0-74.334 31.972-76.67 72.287v0l-0.13 4.513v280.813c0 42.415 34.385 76.8 76.8 76.8v0zM704 652.8h-384c-14.138 0-25.6-11.462-25.6-25.6v0-280.813c0-14.138 11.462-25.6 25.6-25.6v0h104.187c5.639 0 11.121-1.862 15.593-5.297v0l76.469-58.722 0.025 38.419c0 13.129 9.883 23.949 22.614 25.428v0l2.986 0.172h162.125c14.138 0 25.6 11.462 25.6 25.6v0 280.813c0 14.138-11.462 25.6-25.6 25.6v0zM574.659 553.437c0-14.523-3.91-27.562-11.393-38.58l-2.973-4.036-2.058-2.377 2.16-1.586c16.449-12.956 25.979-31.169 28.616-54.698l0.516-5.993 0.229-6.215 0.012-1.855c0-58.786-56.5-91.558-129.388-79.956-6.556 1.044-12.353 4.487-15.092 8.346-5.737 4.082-9.612 10.282-10.728 17.422l-0.307 3.114-0.012 209.953 0.153 2.244 0.432 2.586 0.63 2.374 0.995 2.63 1.228 2.434 2.046 3.061 1.847 2.135 1.742 1.649 1.687 1.336 2.277 1.487 3.995 1.888 0.93 0.322c63.645 21.032 122.457-9.182 122.457-67.688zM487.185 473.447l-0.404-1.77-0.223-2.173 0.018-50.953 0.076-1.588c0.536-4.811 2.319-6.974 5.311-7.995 1.225-0.418 2.565-0.611 3.939-0.634l3.075 0.193c24.603 2.326 38.423 13.62 38.423 29.571 0 21.275-8.193 31.806-30.452 36.925l-4.34 0.898-3.784 0.64-3.863 0.539c-4.512 0.402-6.769-0.497-7.776-3.652zM491.588 575.591c-1.681-0.026-2.414-0.086-3.128-0.281-1.084-0.296-1.593-0.785-1.743-3.172l-0.132-2.536-0.094-31.675 0.285-1.708c0.803-3.449 2.372-4.647 6.338-4.647 16.756 0 27.213 8.010 28.927 18.654l0.251 3.21c0 12.696-10.075 21.25-26.978 22.093l-3.725 0.061z" />
<glyph unicode="&#xe904;" glyph-name="acte_n_sare" d="M704 704c42.415 0 76.8-34.385 76.8-76.8v0-280.813c0-42.415-34.385-76.8-76.8-76.8v0l-136.55 0.006 0.025-64.794c0-20.266-22.192-32.124-38.854-21.913v0l-2.34 1.61-110.819 85.097-95.462-0.006c-40.901 0-74.334 31.972-76.67 72.287v0l-0.13 4.513v280.813c0 42.415 34.385 76.8 76.8 76.8v0zM704 652.8h-384c-14.138 0-25.6-11.462-25.6-25.6v0-280.813c0-14.138 11.462-25.6 25.6-25.6v0h104.187c5.639 0 11.121-1.862 15.593-5.297v0l76.469-58.722 0.025 38.419c0 13.129 9.883 23.949 22.614 25.428v0l2.986 0.172h162.125c14.138 0 25.6 11.462 25.6 25.6v0 280.813c0 14.138-11.462 25.6-25.6 25.6v0zM622.080 467.176c16.259 0 29.44-13.181 29.44-29.44s-13.181-29.44-29.44-29.44c-16.259 0-29.44 13.181-29.44 29.44s13.181 29.44 29.44 29.44zM512 467.176c16.259 0 29.44-13.181 29.44-29.44s-13.181-29.44-29.44-29.44c-16.259 0-29.44 13.181-29.44 29.44s13.181 29.44 29.44 29.44zM401.92 467.176c16.259 0 29.44-13.181 29.44-29.44s-13.181-29.44-29.44-29.44c-16.259 0-29.44 13.181-29.44 29.44s13.181 29.44 29.44 29.44z" />
<glyph unicode="&#xe905;" glyph-name="add" d="M512 716.8c13.129 0 23.949-9.883 25.428-22.614l0.172-2.986v-217.6h217.6c14.138 0 25.6-11.462 25.6-25.6 0-13.129-9.883-23.949-22.614-25.428l-2.986-0.172h-217.6v-217.6c0-14.138-11.462-25.6-25.6-25.6-13.129 0-23.949 9.883-25.428 22.614l-0.172 2.986v217.6h-217.6c-14.138 0-25.6 11.462-25.6 25.6 0 13.129 9.883 23.949 22.614 25.428l2.986 0.172h217.6v217.6c0 14.138 11.462 25.6 25.6 25.6z" />
<glyph unicode="&#xe906;" glyph-name="add-acte" d="M704 692.774c42.415 0 76.8-34.385 76.8-76.8v0-280.813c0-42.415-34.385-76.8-76.8-76.8v0l-136.55 0.006 0.025-64.794c0-20.266-22.192-32.124-38.854-21.913v0l-2.34 1.61-110.819 85.097-95.462-0.006c-40.901 0-74.334 31.972-76.67 72.287v0l-0.13 4.513v280.813c0 42.415 34.385 76.8 76.8 76.8v0zM704 641.574h-384c-14.138 0-25.6-11.462-25.6-25.6v0-280.813c0-14.138 11.462-25.6 25.6-25.6v0h104.187c5.639 0 11.121-1.862 15.593-5.297v0l76.469-58.722 0.025 38.419c0 13.129 9.883 23.949 22.614 25.428v0l2.986 0.172h162.125c14.138 0 25.6 11.462 25.6 25.6v0 280.813c0 14.138-11.462 25.6-25.6 25.6v0zM512 575.175c13.129 0 23.949-9.883 25.428-22.614l0.172-2.986v-51.182l51.2-0.018c14.138 0 25.6-11.462 25.6-25.6 0-13.129-9.883-23.949-22.614-25.428l-2.986-0.172-51.2 0.018v-51.218c0-14.138-11.462-25.6-25.6-25.6-13.129 0-23.949 9.883-25.428 22.614l-0.172 2.986v51.218l-51.2-0.018c-14.138 0-25.6 11.462-25.6 25.6 0 13.129 9.883 23.949 22.614 25.428l2.986 0.172 51.2 0.018v51.182c0 14.138 11.462 25.6 25.6 25.6z" />
<glyph unicode="&#xe907;" glyph-name="add-doc" d="M638.256 757.941l104.144-99.729v-463.471c0-28.277-22.923-51.2-51.2-51.2v0h-358.4c-28.277 0-51.2 22.923-51.2 51.2v0 512c0 28.277 22.923 51.2 51.2 51.2v0h305.456zM587.034 706.765l-254.234-0.023v-512h358.4v412.286l-52.944-0.015c-26.992 0-49.105 20.886-51.060 47.379v0l-0.14 3.821-0.023 48.552zM512 563.2c13.129 0 23.949-9.883 25.428-22.614l0.172-2.986v-63.998l64-0.002c14.138 0 25.6-11.462 25.6-25.6 0-13.129-9.883-23.949-22.614-25.428l-2.986-0.172-64 0.002v-64.002c0-14.138-11.462-25.6-25.6-25.6-13.129 0-23.949 9.883-25.428 22.614l-0.172 2.986v64.002l-64-0.002c-14.138 0-25.6 11.462-25.6 25.6 0 13.129 9.883 23.949 22.614 25.428l2.986 0.172 64 0.002v63.998c0 14.138 11.462 25.6 25.6 25.6zM638.234 687.081l0.023-28.868 30.109 0.017-30.131 28.851z" />
<glyph unicode="&#xe908;" glyph-name="add-folder" d="M445.105 691.2c25.862 0 49.986-13.016 64.187-34.63v0l18.273-27.834 176.435-0.003c40.901 0 74.334-31.972 76.67-72.287v0l0.13-4.513v-270.333c0-42.415-34.385-76.8-76.8-76.8v0h-384c-42.415 0-76.8 34.385-76.8 76.8v0 332.8c0 42.415 34.385 76.8 76.8 76.8v0zM445.105 640h-125.105c-14.138 0-25.6-11.462-25.6-25.6v0-332.8c0-14.138 11.462-25.6 25.6-25.6v0h384c14.138 0 25.6 11.462 25.6 25.6v0 270.333c0 14.138-11.462 25.6-25.6 25.6v0h-204.043l-33.456 50.923c-4.733 7.205-12.775 11.543-21.396 11.543v0zM512 524.8c13.129 0 23.949-9.883 25.428-22.614l0.172-2.986v-51.2h51.2c14.138 0 25.6-11.462 25.6-25.6 0-13.129-9.883-23.949-22.614-25.428l-2.986-0.172h-51.2v-51.2c0-14.138-11.462-25.6-25.6-25.6-13.129 0-23.949 9.883-25.428 22.614l-0.172 2.986v51.2h-51.2c-14.138 0-25.6 11.462-25.6 25.6 0 13.129 9.883 23.949 22.614 25.428l2.986 0.172h51.2v51.2c0 14.138 11.462 25.6 25.6 25.6z" />
<glyph unicode="&#xe909;" glyph-name="add-people" d="M461.77 718.712c-74.445 0-134.794-60.349-134.794-134.794s60.349-134.794 134.794-134.794c74.445 0 134.794 60.349 134.794 134.794s-60.349 134.794-134.794 134.794zM461.77 667.512c46.168 0 83.594-37.426 83.594-83.594s-37.426-83.594-83.594-83.594c-46.168 0-83.594 37.426-83.594 83.594s37.426 83.594 83.594 83.594zM533.010 421.704c76.541 0 139.609-57.043 142.64-129.344l0.114-5.45v-54.597c0-14.138-11.462-25.6-25.6-25.6-13.129 0-23.949 9.883-25.428 22.614l-0.172 2.986v54.597c0 44.225-37.942 81.062-86.495 83.469l-5.059 0.125h-142.481c-49.252 0-88.836-35.364-91.42-79.047l-0.134-4.548v-54.597c0-14.138-11.462-25.6-25.6-25.6-13.129 0-23.949 9.883-25.428 22.614l-0.172 2.986v54.597c0 73.037 61.202 131.862 137.039 134.688l5.715 0.106h142.481zM734.886 580.133c13.129 0 23.949-9.883 25.428-22.614l0.172-2.986-0.019-46.304 46.341-0.018c14.138 0 25.6-11.462 25.6-25.6 0-13.129-9.883-23.949-22.614-25.428l-2.986-0.172-46.341 0.018 0.019-46.34c0-14.138-11.462-25.6-25.6-25.6-13.129 0-23.949 9.883-25.428 22.614l-0.172 2.986-0.019 46.34-46.302-0.018c-14.138 0-25.6 11.462-25.6 25.6 0 13.129 9.883 23.949 22.614 25.428l2.986 0.172 46.302 0.018 0.019 46.304c0 14.138 11.462 25.6 25.6 25.6z" />
<glyph unicode="&#xe90a;" glyph-name="add-project" d="M508.7 735.606c21.092 0 41.145-8.52 59.984-24.495v0l1.262-1.105h12.253c23.849 0 43.889-16.306 49.581-38.377l46.619-0.023c26.992 0 49.105-20.886 51.060-47.379l0.14-3.821v-408.812c0-26.992-20.886-49.105-47.379-51.060l-3.821-0.14h-332.8c-26.992 0-49.105 20.886-51.060 47.379l-0.14 3.821v408.812c0 26.992 20.886 49.105 47.379 51.060l3.821 0.14 40.020 0.026c5.693 22.070 25.733 38.374 49.58 38.374v0h12.225l1.291 1.105c17.269 14.643 35.559 23.023 54.733 24.318v0zM633.261 620.416c-1.942-26.504-24.061-47.404-51.061-47.404v0h-147c-28.277 0-51.2 22.923-51.2 51.2l0.128-3.78-38.528-0.026v-408.812h332.8v408.812zM512 518.4c13.129 0 23.949-9.883 25.428-22.614l0.172-2.986v-51.184l51.2-0.016c14.138 0 25.6-11.462 25.6-25.6 0-13.129-9.883-23.949-22.614-25.428l-2.986-0.172-51.2 0.016v-51.216c0-14.138-11.462-25.6-25.6-25.6-13.129 0-23.949 9.883-25.428 22.614l-0.172 2.986v51.216l-51.2-0.016c-14.138 0-25.6 11.462-25.6 25.6 0 13.129 9.883 23.949 22.614 25.428l2.986 0.172 51.2 0.016v51.184c0 14.138 11.462 25.6 25.6 25.6zM508.7 684.406c-9.527 0-20.466-5.47-33.098-18.102-4.801-4.801-11.312-7.498-18.102-7.498v0h-22.3v-34.594h147v34.594h-22.3c-6.79 0-13.301 2.697-18.102 7.498-12.632 12.632-23.572 18.102-33.098 18.102z" />
<glyph unicode="&#xe90b;" glyph-name="add-small" d="M512 601.6c13.129 0 23.949-9.883 25.428-22.614l0.172-2.986v-102.4h102.4c14.138 0 25.6-11.462 25.6-25.6 0-13.129-9.883-23.949-22.614-25.428l-2.986-0.172h-102.4v-102.4c0-14.138-11.462-25.6-25.6-25.6-13.129 0-23.949 9.883-25.428 22.614l-0.172 2.986v102.4h-102.4c-14.138 0-25.6 11.462-25.6 25.6 0 13.129 9.883 23.949 22.614 25.428l2.986 0.172h102.4v102.4c0 14.138 11.462 25.6 25.6 25.6z" />
<glyph unicode="&#xe90c;" glyph-name="agriculture" d="M358.4 448c70.692 0 128-57.308 128-128s-57.308-128-128-128c-70.692 0-128 57.308-128 128s57.308 128 128 128zM563.2 729.6l2.872-0.16c12.264-1.372 21.988-11.423 22.688-24.020v0l11.603-209.215 39.629-5.274 0.007 110.669c0 13.129 9.883 23.949 22.614 25.428l2.986 0.172h51.2c32.956 0 34.093-47.73 3.409-51.022l-3.409-0.178h-25.6l-0.007-91.904 80.191-10.721c11.74-1.565 20.736-10.93 22.051-22.453l0.166-2.923 0.001-85.869c15.932-18.051 25.599-41.762 25.599-67.731 0-56.554-45.846-102.4-102.4-102.4s-102.4 45.846-102.4 102.4h-76.8c-14.138 0-25.6 11.462-25.6 25.6 0 84.831-68.769 153.6-153.6 153.6-41.625 0-80.552-16.6-109.239-45.619-9.94-10.055-26.149-10.148-36.203-0.208s-10.148 26.149-0.208 36.203c32.261 32.634 74.349 53.521 120.045 59.233l0.004 180.79 0.172 2.986c1.479 12.732 12.299 22.614 25.428 22.614v0h204.8zM358.4 396.8c-42.415 0-76.8-34.385-76.8-76.8s34.385-76.8 76.8-76.8c42.415 0 76.8 34.385 76.8 76.8s-34.385 76.8-76.8 76.8zM716.8 345.6c-28.277 0-51.2-22.923-51.2-51.2s22.923-51.2 51.2-51.2c28.277 0 51.2 22.923 51.2 51.2s-22.923 51.2-51.2 51.2zM574.31 448l-56.021-0.010c23.071-28.784 38.531-63.932 43.326-102.391l66.485 0.004c17.706 30.606 50.798 51.197 88.699 51.197 8.847 0 17.431-1.122 25.619-3.231l-0.019 32.031-168.090 22.4zM538.957 678.4h-154.957l-0.001-155.184c27.705-3.455 53.691-12.443 76.818-25.824l-0.016 1.808h88.115l-9.958 179.2z" />
<glyph unicode="&#xe90d;" glyph-name="alea" d="M310.361 412.154l-1.235-2.584c-6.816-16.503 5.25-35.273 23.71-35.273l126.101 0.011 0.019-220.749c0-26.94 36.26-35.602 48.436-11.57l181.164 332.631 1.19 2.711c6.117 16.382-5.941 34.459-24.026 34.459l-129.829 0.015 0.012 217.754c0 26.523-35.376 35.542-48.075 12.257l-177.467-329.662zM484.691 629.156l0.012-142.965 0.172-2.986c1.479-12.732 12.299-22.614 25.428-22.614l113.728 0.015-113.894-199.885 0.019 139.177-0.172 2.986c-1.479 12.732-12.299 22.614-25.428 22.614l-108.588 0.011 108.723 203.648z" />
<glyph unicode="&#xe90e;" glyph-name="apart" d="M522.614 691.2l-0.016-120.371 241.164-0.009v-312.055c0-14.138-11.462-25.6-25.6-25.6-13.129 0-23.949 9.883-25.428 22.614l-0.172 2.986-0.012 260.864-241.136-0.009-0.016 120.38h-165.376l0.015-385.518c0-13.129-9.883-23.949-22.614-25.428l-2.986-0.172c-13.129 0-23.949 9.883-25.428 22.614l-0.172 2.986v436.718h267.777zM512 344.137c13.129 0 23.949-9.883 25.428-22.614l0.172-2.986v-25.6c0-14.138-11.462-25.6-25.6-25.6-13.129 0-23.949 9.883-25.428 22.614l-0.172 2.986v25.6c0 14.138 11.462 25.6 25.6 25.6zM622.682 344.137c13.129 0 23.949-9.883 25.428-22.614l0.172-2.986v-25.6c0-14.138-11.462-25.6-25.6-25.6-13.129 0-23.949 9.883-25.428 22.614l-0.172 2.986v25.6c0 14.138 11.462 25.6 25.6 25.6zM387.17 345.375c13.129 0 23.949-9.883 25.428-22.614l0.172-2.986v-25.6c0-14.138-11.462-25.6-25.6-25.6-13.129 0-23.949 9.883-25.428 22.614l-0.172 2.986v25.6c0 14.138 11.462 25.6 25.6 25.6zM387.17 469.354c13.129 0 23.949-9.883 25.428-22.614l0.172-2.986v-25.6c0-14.138-11.462-25.6-25.6-25.6-13.129 0-23.949 9.883-25.428 22.614l-0.172 2.986v25.6c0 14.138 11.462 25.6 25.6 25.6zM512 469.354c13.129 0 23.949-9.883 25.428-22.614l0.172-2.986v-25.6c0-14.138-11.462-25.6-25.6-25.6-13.129 0-23.949 9.883-25.428 22.614l-0.172 2.986v25.6c0 14.138 11.462 25.6 25.6 25.6zM622.682 469.354c13.129 0 23.949-9.883 25.428-22.614l0.172-2.986v-25.6c0-14.138-11.462-25.6-25.6-25.6-13.129 0-23.949 9.883-25.428 22.614l-0.172 2.986v25.6c0 14.138 11.462 25.6 25.6 25.6zM387.17 594.57c13.129 0 23.949-9.883 25.428-22.614l0.172-2.986v-25.6c0-14.138-11.462-25.6-25.6-25.6-13.129 0-23.949 9.883-25.428 22.614l-0.172 2.986v25.6c0 14.138 11.462 25.6 25.6 25.6z" />
<glyph unicode="&#xe90f;" glyph-name="apps" d="M473.6 409.6v-230.4h-179.2c-28.277 0-51.2 22.923-51.2 51.2v179.2h230.4zM780.8 409.6v-179.2c0-28.277-22.923-51.2-51.2-51.2h-179.2v230.4h230.4zM422.4 358.4h-128v-128h128v128zM729.6 358.4h-128v-128h128v128zM473.6 716.8v-230.4h-230.4v179.2c0 28.277 22.923 51.2 51.2 51.2h179.2zM729.6 716.8c28.277 0 51.2-22.923 51.2-51.2v-179.2h-230.4v230.4h179.2zM422.4 665.6h-128v-128h128v128zM729.6 665.6h-128v-128h128v128z" />
<glyph unicode="&#xe910;" glyph-name="arrow-decreases" d="M640 294.4c13.129 0 23.949 9.883 25.428 22.614l0.172 2.986v153.6c0 14.138-11.462 25.6-25.6 25.6-13.129 0-23.949-9.883-25.428-22.614l-0.172-2.986v-91.802l-212.298 212.304c-9.997 9.997-26.206 9.997-36.204 0-9.228-9.228-9.938-23.75-2.13-33.792l2.13-2.412 212.252-212.298h-91.75c-13.129 0-23.949-9.883-25.428-22.614l-0.172-2.986c0-13.129 9.883-23.949 22.614-25.428l2.986-0.172h153.6z" />
<glyph unicode="&#xe911;" glyph-name="arrow-holding" d="M710.775 426.426c9.444 9.12 10.362 23.745 2.582 33.931l-1.95 2.267-106.7 110.491c-9.821 10.17-26.028 10.453-36.198 0.632-9.444-9.12-10.362-23.745-2.582-33.931l1.95-2.267 63.771-66.037-300.193 5.244c-14.136 0.247-25.796-11.013-26.043-25.149-0.228-13.049 9.349-23.988 21.942-25.787l3.207-0.255 300.156-5.272-66-63.735c-9.444-9.12-10.362-23.745-2.582-33.931l1.95-2.267c9.12-9.444 23.745-10.362 33.931-2.582l2.267 1.95 110.491 106.7z" />
<glyph unicode="&#xe912;" glyph-name="arrow-increases" d="M640 601.6c13.129 0 23.949-9.883 25.428-22.614l0.172-2.986v-153.6c0-14.138-11.462-25.6-25.6-25.6-13.129 0-23.949 9.883-25.428 22.614l-0.172 2.986v91.802l-212.298-212.304c-9.997-9.997-26.206-9.997-36.204 0-9.228 9.228-9.938 23.75-2.13 33.792l2.13 2.412 212.252 212.298h-91.75c-13.129 0-23.949 9.883-25.428 22.614l-0.172 2.986c0 13.129 9.883 23.949 22.614 25.428l2.986 0.172h153.6z" />
<glyph unicode="&#xe913;" glyph-name="associated" d="M538.325 529.727l4.166-4.071 13.46-13.84c9.857-10.135 9.632-26.343-0.503-36.2-9.356-9.099-23.885-9.607-33.819-1.66l-2.382 2.163-13.46 13.84c-22.428 23.061-57.883 24.109-81.495 3.145l-3.29-3.145-121.489-124.915c-22.798-23.441-23.835-61.047-3.109-85.776l3.109-3.442 30.372-31.229c23.496-24.159 61.289-24.159 84.785 0l54.916 54.509c9.857 10.135 26.065 10.361 36.2 0.503s10.361-26.065 0.503-36.2l-54.916-54.509c-42.238-43.429-110.182-44.786-154.027-4.071l-4.166 4.071-30.372 31.229c-41.819 42.998-43.168 111.58-4.047 156.229l4.047 4.383 121.489 124.915c42.238 43.429 110.182 44.786 154.027 4.071zM726.661 708.926l4.166-4.072 30.368-31.229c41.813-42.997 43.162-111.578 4.046-156.226l-4.046-4.383-121.474-124.915c-42.234-43.43-110.174-44.787-154.242-3.834l-4.188 4.095-13.494 14.275c-9.713 10.274-9.257 26.477 1.017 36.19 9.484 8.965 24.019 9.267 33.839 1.179l2.351-2.197 13.244-14.014c22.424-23.059 57.871-24.108 81.479-3.144l3.289 3.144 121.474 124.915c22.796 23.442 23.832 61.049 3.109 85.778l-3.109 3.442-30.368 31.229c-23.492 24.157-61.276 24.157-84.768 0l-61.152-56.883c-9.857-10.136-26.064-10.362-36.2-0.506s-10.362 26.064-0.506 36.2l61.152 56.883c42.234 43.43 110.174 44.787 154.014 4.072z" />
<glyph unicode="&#xe914;" glyph-name="attachment" d="M669.169 621.898c-31.626 32.417-82.903 32.417-114.532 0l-224.781-230.4c-9.754-9.997-25.567-9.997-35.32 0-9.754 9.999-9.754 26.207 0 36.204l224.781 230.4c51.136 52.413 134.039 52.412 185.172 0 51.136-52.413 51.133-137.39 0-189.804l-262.244-268.8c-37.343-38.275-97.884-38.275-135.224 0s-37.34 100.329 0 138.604l262.246 268.8c23.547 24.136 61.724 24.136 85.271 0s23.547-63.268 0-87.404l-262.244-268.8c-9.754-9.997-25.569-9.997-35.323 0-9.754 9.999-9.754 26.207 0 36.204l262.246 268.8c4.040 4.142 4.040 10.854 0 14.996s-10.591 4.142-14.63 0l-262.244-268.8c-17.836-18.278-17.836-47.916-0.003-66.196 17.836-18.278 46.748-18.278 64.581 0l262.246 268.803c31.626 32.417 31.626 84.977 0 117.394z" />
<glyph unicode="&#xe915;" glyph-name="boat" d="M530.102 818.102l-18.102-18.102c18.102 18.102 18.097 18.106 18.102 18.102l0.251-0.251 0.668-0.673c0.584-0.587 1.434-1.448 2.537-2.57 2.204-2.243 5.412-5.528 9.475-9.742 8.12-8.426 19.661-20.575 33.418-35.544 27.479-29.905 63.944-71.225 99.679-116.706 35.622-45.335 71.086-95.524 96.125-143.094 24.248-46.072 41.933-95.521 33.649-136.942-2.394-11.968-12.9-20.58-25.103-20.58h-256c-8.73 0-16.86 4.449-21.565 11.802-4.703 7.355-5.338 16.599-1.679 24.525 35.156 76.17 32.94 175.524 20.332 259.052-6.221 41.208-14.787 77.426-21.798 103.333-3.502 12.937-6.605 23.258-8.814 30.295-1.103 3.517-1.984 6.21-2.578 7.995-0.297 0.892-0.522 1.557-0.668 1.985l-0.159 0.461-0.031 0.094c-0.003 0.003 0-0.003 0 0zM487.839 791.54c-3.942 11.271 0.43 23.781 10.54 30.135 10.115 6.355 23.278 4.872 31.724-3.574zM562.977 707.871c3.415-16.323 6.702-34.084 9.536-52.851 11.297-74.839 15.933-169.162-10.424-251.82h194.237c-2.156 21.417-11.922 49.306-29.381 82.476-22.963 43.63-56.297 91.044-91.075 135.309-25.037 31.862-50.524 61.722-72.893 86.887zM155.549 304.197c3.962 9.567 13.297 15.803 23.651 15.803h665.599c10.355 0 19.689-6.236 23.652-15.803s1.772-20.577-5.55-27.899l-109.898-109.898 33.098-33.098c9.999-9.997 9.999-26.207 0-36.204-9.997-9.999-26.207-9.999-36.204 0l-47.214 47.214c-37.921 12.424-61.955-41.912-101.084-41.912-39.724 0-64 51.2-89.6 51.2-32.783 0-59.604-51.2-102.4-51.2-25.6 0-30.743 7.060-40.998 13.898-9.203 6.134-34.583 35.382-45.46 29.839l-49.039-49.039c-9.997-9.999-26.205-9.999-36.203 0-9.997 9.997-9.997 26.207 0 36.204l33.098 33.098-109.898 109.898c-7.322 7.322-9.512 18.332-5.549 27.899zM241.005 268.8l72.17-72.172c9.375 2.184 18.767 1.784 27.858-0.814 23.834-6.81 44.424-42.214 68.567-42.214s59.579 51.2 102.4 51.2c40.381 0 64-51.2 89.6-51.2 22.039 0 45.284 37.087 70.047 42.591 11.917 2.647 24.545 2.501 38.042-0.699l73.308 73.308h-541.992zM396.211 404.385h-64c64 89.6 89.6 217.6 89.6 217.6s30.856-115.197-25.6-217.6zM447.409 737.188c-5.43 5.431-20.339 37.083-38.4 12.799-18.058-24.284-64.246-281.601-140.797-345.601-25.601-21.402-5.775-51.2 12.38-51.2h129.61c13.665 0 24.41 0.003 37.21 25.603 89.597 153.597 5.43 352.968-0.003 358.4z" />
<glyph unicode="&#xe916;" glyph-name="book" d="M716.8 755.2c14.139 0 25.6-11.462 25.6-25.6v-460.8c0-0.348-0.008-0.694-0.020-1.039-0.018-0.589-0.061-1.172-0.125-1.748-0.044-0.366-0.092-0.735-0.148-1.103-0.092-0.614-0.207-1.219-0.343-1.815-0.064-0.284-0.138-0.576-0.215-0.868-0.169-0.632-0.361-1.254-0.576-1.864-0.148-0.443-0.317-0.886-0.497-1.321-0.159-0.371-0.325-0.745-0.497-1.114-0.2-0.435-0.412-0.855-0.635-1.27-0.225-0.41-0.458-0.814-0.704-1.213-0.269-0.448-0.558-0.886-0.858-1.316-0.274-0.389-0.556-0.771-0.85-1.142-0.241-0.31-0.492-0.612-0.748-0.909-0.312-0.364-0.637-0.722-0.975-1.073-0.463-0.474-0.924-0.916-1.403-1.341-0.189-0.174-0.381-0.34-0.579-0.507-0.381-0.312-0.783-0.627-1.19-0.932-0.364-0.276-0.748-0.543-1.137-0.801-0.604-0.394-1.221-0.765-1.856-1.111-0.218-0.12-0.435-0.236-0.655-0.346-0.492-0.251-1.004-0.489-1.521-0.712-0.422-0.177-0.847-0.346-1.277-0.502-0.399-0.151-0.806-0.287-1.216-0.415-0.445-0.131-0.904-0.259-1.367-0.374-23.749-5.939-31.808-13.996-31.808-26.365s8.059-20.426 31.808-26.365c28.242-7.060 24.315-47.401-3.069-50.273l-3.139-0.161h-332.8c-63.667 0-102.4 25.82-102.4 76.8v435.2c0 65.338 37.061 102.4 102.4 102.4h332.8zM644.357 243.208l-260.357-0.008c-38.733 0-51.2-8.312-51.2-25.6 0-16.466 11.31-24.788 45.844-25.544l5.356-0.056h260.378l-1.052 3.011c-1.754 5.571-2.831 11.507-3.19 17.802l-0.136 4.787c0 9.272 1.487 17.818 4.357 25.608zM332.874 657.313l-0.074-4.513-0.008-365.688c7.759 2.606 16.312 4.516 25.6 5.724l-0.005 407.754c-17.126-5.778-24.699-19.272-25.513-43.277zM691.2 704h-281.6v-409.6h281.6v409.6zM614.4 550.4c14.139 0 25.6-11.461 25.6-25.6 0-13.128-9.882-23.949-22.615-25.428l-2.985-0.172h-128c-14.139 0-25.6 11.461-25.6 25.6 0 13.128 9.882 23.949 22.615 25.428l2.985 0.172h128zM614.4 627.2c14.139 0 25.6-11.461 25.6-25.6 0-13.128-9.882-23.949-22.615-25.428l-2.985-0.172h-128c-14.139 0-25.6 11.461-25.6 25.6 0 13.128 9.882 23.949 22.615 25.428l2.985 0.172h128z" />
<glyph unicode="&#xe917;" glyph-name="burger" d="M729.6 294.4c14.138 0 25.6-11.462 25.6-25.6 0-13.129-9.883-23.949-22.614-25.428l-2.986-0.172h-435.2c-14.138 0-25.6 11.462-25.6 25.6 0 13.129 9.883 23.949 22.614 25.428l2.986 0.172h435.2zM729.6 473.6c14.138 0 25.6-11.462 25.6-25.6 0-13.129-9.883-23.949-22.614-25.428l-2.986-0.172h-435.2c-14.138 0-25.6 11.462-25.6 25.6 0 13.129 9.883 23.949 22.614 25.428l2.986 0.172h435.2zM729.6 652.8c14.138 0 25.6-11.462 25.6-25.6 0-13.129-9.883-23.949-22.614-25.428l-2.986-0.172h-435.2c-14.138 0-25.6 11.462-25.6 25.6 0 13.129 9.883 23.949 22.614 25.428l2.986 0.172h435.2z" />
<glyph unicode="&#xe918;" glyph-name="calendar" d="M614.4 657.156c13.129 0 23.949-9.883 25.428-22.614l0.172-2.986v-29.952l25.6-0.004c28.277 0 51.2-22.923 51.2-51.2v-257.675l-0.077 0.015-0.064-2.161c-1.955-26.492-24.068-47.379-51.060-47.379h-307.2c-26.992 0-49.105 20.886-51.060 47.379l-0.089 2.161-0.051-0.015v257.675c0 28.277 22.923 51.2 51.2 51.2l25.6 0.004v29.952c0 14.138 11.462 25.6 25.6 25.6 13.129 0 23.949-9.883 25.428-22.614l0.172-2.986v-29.952h153.6v29.952c0 14.138 11.462 25.6 25.6 25.6zM665.6 448.004h-307.2v-153.6h307.2v153.6z" />
<glyph unicode="&#xe919;" glyph-name="cancel" d="M512 729.6c155.558 0 281.6-126.042 281.6-281.6s-126.042-281.6-281.6-281.6c-155.558 0-281.6 126.042-281.6 281.6s126.042 281.6 281.6 281.6zM512 678.4c-127.281 0-230.4-103.119-230.4-230.4s103.119-230.4 230.4-230.4c127.281 0 230.4 103.119 230.4 230.4s-103.119 230.4-230.4 230.4zM434.785 561.137l2.412-2.13 74.8-74.78 74.806 74.78c9.997 9.997 26.206 9.997 36.204 0 9.228-9.228 9.938-23.75 2.13-33.792l-2.13-2.412-74.812-74.8 74.812-74.806c9.997-9.997 9.997-26.206 0-36.204-9.228-9.228-23.75-9.938-33.792-2.13l-2.412 2.13-74.806 74.812-74.8-74.812c-9.997-9.997-26.206-9.997-36.204 0-9.228 9.228-9.938 23.75-2.13 33.792l2.13 2.412 74.78 74.806-74.78 74.8c-9.997 9.997-9.997 26.206 0 36.204 9.228 9.228 23.75 9.938 33.792 2.13z" />
<glyph unicode="&#xe91a;" glyph-name="card-game" d="M887.593 620.524l-113.37-385.454c-8.010-27.231-36.644-42.749-63.831-34.593l-103.347 31.004c-13.542 4.063-21.228 18.335-17.165 31.877s18.335 21.225 31.877 17.162l103.347-31.004 113.37 385.454-231.181 63.050-32.056-128.228c-3.43-13.716-17.329-22.057-31.045-18.627-13.716 3.428-22.057 17.326-18.627 31.043l32.056 128.23c6.961 27.846 35.451 44.53 63.142 36.978l231.181-63.052c27.663-7.544 43.738-36.334 35.648-63.841zM190.563 625.485l99.69-386.509 226.857 54.676-99.692 386.509-226.855-54.676zM140.788 613.489c-7.062 27.382 9.498 54.948 36.988 61.573l226.855 54.677c27.492 6.626 55.501-10.2 62.564-37.581l99.689-386.509c7.063-27.379-9.498-54.948-36.987-61.573l-226.857-54.676c-27.489-6.625-55.499 10.199-62.562 37.581l-99.69 386.509zM736.1 455.496l-90.665-69.824-17.764 49.72 36.163 12.918c-36.16-12.92-36.16-12.918-36.163-12.918l-21.604 60.472c-7.135 19.971 3.272 41.946 23.242 49.080s41.946-3.272 49.080-23.242l3.843-10.757 7.007 5.396c16.804 12.941 40.914 9.81 53.855-6.994 12.941-16.801 9.807-40.914-6.994-53.852zM334.113 539.648l-44.938-104.008 89.874-64.502 42.447 95.26-87.383 73.249z" />
<glyph unicode="&#xe91b;" glyph-name="certificat" d="M448 192c0-14.139-11.461-25.6-25.6-25.6h-115.2c-28.278 0-51.2 22.922-51.2 51.2v512c0 28.277 22.922 51.2 51.2 51.2h358.4c28.278 0 51.2-22.923 51.2-51.2v-166.4c0-14.139-11.461-25.6-25.6-25.6s-25.6 11.461-25.6 25.6v166.4h-358.4v-512h115.2c14.139 0 25.6-11.461 25.6-25.6zM624.215 641.485c0 14.139-11.461 25.6-25.6 25.6h-230.638c-12.733-1.48-22.615-12.301-22.615-25.428 0-14.139 11.461-25.6 25.6-25.6h230.638c12.731 1.48 22.615 12.298 22.615 25.428zM464.082 577.656c14.139 0 25.6-11.461 25.6-25.6 0-13.128-9.882-23.949-22.615-25.428l-2.985-0.172h-93.12c-14.139 0-25.6 11.461-25.6 25.6 0 13.128 9.882 23.949 22.615 25.428l2.985 0.172h93.12zM768 358.4c0-47.191-19.643-89.792-51.2-120.074v-124.808c0-10.225-11.395-16.323-19.901-10.652l-81.098 54.067c-8.599 5.732-19.802 5.732-28.401 0l-81.098-54.067c-8.507-5.67-19.901 0.428-19.901 10.652v124.808c-31.557 30.282-51.2 72.883-51.2 120.074 0 91.901 74.499 166.4 166.4 166.4s166.4-74.499 166.4-166.4zM601.6 247.468c61.266 0 110.932 49.667 110.932 110.932s-49.667 110.932-110.932 110.932c-61.266 0-110.932-49.667-110.932-110.932s49.667-110.932 110.932-110.932z" />
<glyph unicode="&#xe91c;" glyph-name="check" d="M738.583 615.323c9.997 9.997 26.206 9.997 36.204 0 9.228-9.228 9.938-23.75 2.13-33.792l-2.13-2.412-316.545-316.545-209.030 209.030c-9.997 9.997-9.997 26.206 0 36.204 9.228 9.228 23.75 9.938 33.792 2.13l2.412-2.13 172.823-172.807 280.343 280.322z" />
<glyph unicode="&#xe91d;" glyph-name="check-small" d="M652.751 533.281c-9.638 10.345-25.836 10.918-36.18 1.28l-137.521-128.128-78.341 75.185-2.455 2.079c-10.202 7.601-24.704 6.592-33.741-2.824-9.789-10.202-9.457-26.406 0.745-36.196l95.685-91.83c4.892-4.767 11.264-7.199 17.664-7.245 3.779-0.028 7.567 0.776 11.069 2.419 2.404 1.129 4.667 2.652 6.689 4.564l155.105 144.515 2.214 2.335c8.159 9.761 7.962 24.297-0.934 33.846z" />
<glyph unicode="&#xe91e;" glyph-name="chevron-down" d="M355.567 519.558c9.283 9.283 23.923 9.946 33.971 1.989l2.233-1.989 120.214-120.217 120.245 120.217c9.283 9.283 23.923 9.946 33.971 1.989l2.233-1.989c9.283-9.283 9.946-23.923 1.989-33.971l-1.989-2.233-156.433-156.433-156.433 156.433c-9.997 9.997-9.997 26.206 0 36.204z" />
<glyph unicode="&#xe91f;" glyph-name="chevron-down-small" d="M393.527 515.337c11.614 11.76 29.771 12.544 42.257 2.437l2.996-2.754 73.507-76.5 73.242 74.113c11.615 11.759 29.772 12.541 42.258 2.433l2.996-2.754c11.455-11.923 12.217-30.562 2.37-43.378l-2.683-3.076-118.781-120.258-118.471 123.283c-12.411 12.915-12.273 33.714 0.309 46.454z" />
<glyph unicode="&#xe920;" glyph-name="chevron-left" d="M574.818 604.433c9.283-9.283 9.946-23.923 1.989-33.971l-1.989-2.233-120.228-120.198 120.228-120.26c9.283-9.283 9.946-23.923 1.989-33.971l-1.989-2.233c-9.283-9.283-23.923-9.946-33.971-1.989l-2.233 1.989-156.433 156.433 156.433 156.433c9.997 9.997 26.206 9.997 36.204 0z" />
<glyph unicode="&#xe921;" glyph-name="chevron-left-small" d="M592.137 579.273c11.76-11.614 12.544-29.771 2.437-42.257l-2.754-2.996-76.5-73.507 74.113-73.242c11.759-11.615 12.541-29.772 2.433-42.258l-2.754-2.996c-11.923-11.455-30.562-12.217-43.378-2.37l-3.076 2.683-120.258 118.781 123.283 118.471c12.915 12.411 33.714 12.273 46.454-0.309z" />
<glyph unicode="&#xe922;" glyph-name="chevron-right" d="M423.582 291.567c-9.283 9.283-9.946 23.923-1.989 33.971l1.989 2.233 120.22 120.206-120.22 120.253c-9.283 9.283-9.946 23.923-1.989 33.971l1.989 2.233c9.283 9.283 23.923 9.946 33.971 1.989l2.233-1.989 156.433-156.433-156.433-156.433c-9.997-9.997-26.206-9.997-36.204 0z" />
<glyph unicode="&#xe923;" glyph-name="chevron-right-small" d="M431.863 316.727c-11.76 11.614-12.544 29.771-2.437 42.257l2.754 2.996 76.5 73.507-74.113 73.242c-11.759 11.615-12.541 29.772-2.433 42.258l2.754 2.996c11.923 11.455 30.562 12.217 43.378 2.37l3.076-2.683 120.258-118.781-123.283-118.471c-12.915-12.411-33.714-12.273-46.454 0.309z" />
<glyph unicode="&#xe924;" glyph-name="chevron-up" d="M668.433 376.131c-9.283-9.283-23.923-9.946-33.971-1.989l-2.233 1.989-120.225 120.228-120.234-120.228c-9.283-9.283-23.923-9.946-33.971-1.989l-2.233 1.989c-9.283 9.283-9.946 23.923-1.989 33.971l1.989 2.233 156.433 156.433 156.433-156.433c9.997-9.997 9.997-26.206 0-36.204z" />
<glyph unicode="&#xe925;" glyph-name="chevron-up-small" d="M630.473 380.663c-11.614-11.76-29.771-12.544-42.257-2.437l-2.996 2.754-73.507 76.5-73.242-74.113c-11.615-11.759-29.772-12.541-42.258-2.433l-2.996 2.754c-11.455 11.923-12.217 30.562-2.37 43.378l2.683 3.076 118.781 120.258 118.471-123.283c12.411-12.915 12.273-33.714-0.309-46.454z" />
<glyph unicode="&#xe926;" glyph-name="cible" d="M460.8 652.8c52.173 0 100.7-15.607 141.168-42.407l-37.156-37.134c-30.485 18.008-66.042 28.341-104.012 28.341-113.108 0-204.8-91.692-204.8-204.8s91.692-204.8 204.8-204.8c113.108 0 204.8 91.692 204.8 204.8 0 37.981-10.339 73.547-28.356 104.037l37.149 37.131c26.8-40.468 42.407-88.996 42.407-141.168 0-141.385-114.615-256-256-256s-256 114.615-256 256c0 141.385 114.615 256 256 256zM460.8 550.4c23.704 0 46.154-5.369 66.2-14.958l-39.707-39.702c-8.45 2.257-17.331 3.46-26.493 3.46-56.554 0-102.4-45.846-102.4-102.4s45.846-102.4 102.4-102.4c56.554 0 102.4 45.846 102.4 102.4 0 9.162-1.203 18.042-3.46 26.493l39.702 39.707c9.589-20.046 14.958-42.496 14.958-66.2 0-84.831-68.769-153.6-153.6-153.6s-153.6 68.769-153.6 153.6c0 84.831 68.769 153.6 153.6 153.6zM724.298 773.302c12.356 12.356 33.185 8.975 40.999-6.653v0l21.775-43.551 43.577-21.8c14.652-7.326 18.539-26.091 8.786-38.589v0l-2.133-2.411-76.8-76.8c-7.792-7.792-19.695-9.723-29.551-4.795v0l-34.708 17.346-217.341-217.351c-9.997-9.997-26.206-9.997-36.204 0-9.228 9.228-9.938 23.75-2.13 33.792l2.13 2.412 217.347 217.371-17.342 34.678c-4.435 8.87-3.314 19.399 2.635 27.096l2.161 2.455zM735.386 711.987l-38.63-38.63 13.517-27.059 27.059-13.517 38.63 38.63-19.41 9.691c-3.963 1.982-7.327 4.949-9.782 8.593v0l-1.666 2.855-9.717 19.436z" />
<glyph unicode="&#xe927;" glyph-name="city" d="M544.939 704.759l-0.005-256.742 124.637-0.017v-200.706c0-14.138-11.462-25.6-25.6-25.6-13.129 0-23.949 9.883-25.428 22.614l-0.172 2.986-0.003 149.506h-99.029c-13.129 0-23.949 9.883-25.428 22.614l-0.172 2.986-0.018 231.168h-213.786l0.012-411.127c0-13.129-9.883-23.949-22.614-25.428l-2.986-0.172c-13.129 0-23.949 9.883-25.428 22.614l-0.172 2.986v462.318h316.191zM728.358 602.188c38.542-4.48 64.886-36.612 66.784-86.247l0.11-5.804v-267.696c0-14.138-11.462-25.6-25.6-25.6-13.129 0-23.949 9.883-25.428 22.614l-0.172 2.986v267.696c0 28.256-8.936 39.72-21.606 41.193-8.976 1.043-15.694-3.262-15.694-3.715 0-2.787-0.445-5.469-1.268-7.98 10.451-9.74 16.585-23.8 15.962-38.805l-0.584-5.848-99.384 15.741c3.062 19.336 16.76 34.343 34.185 40.003l-0.111-3.111c0 35.411 36.49 58.794 72.806 54.572zM437.906 348.384c13.129 0 23.949-9.883 25.428-22.614l0.172-2.986v-25.6c0-14.138-11.462-25.6-25.6-25.6-13.129 0-23.949 9.883-25.428 22.614l-0.172 2.986v25.6c0 14.138 11.462 25.6 25.6 25.6zM540.799 348.384c13.129 0 23.949-9.883 25.428-22.614l0.172-2.986v-25.6c0-14.138-11.462-25.6-25.6-25.6-13.129 0-23.949 9.883-25.428 22.614l-0.172 2.986v25.6c0 14.138 11.462 25.6 25.6 25.6zM335.012 349.622c13.129 0 23.949-9.883 25.428-22.614l0.172-2.986v-25.6c0-14.138-11.462-25.6-25.6-25.6-13.129 0-23.949 9.883-25.428 22.614l-0.172 2.986v25.6c0 14.138 11.462 25.6 25.6 25.6zM335.012 473.6c13.129 0 23.949-9.883 25.428-22.614l0.172-2.986v-25.6c0-14.138-11.462-25.6-25.6-25.6-13.129 0-23.949 9.883-25.428 22.614l-0.172 2.986v25.6c0 14.138 11.462 25.6 25.6 25.6zM437.906 473.6c13.129 0 23.949-9.883 25.428-22.614l0.172-2.986v-25.6c0-14.138-11.462-25.6-25.6-25.6-13.129 0-23.949 9.883-25.428 22.614l-0.172 2.986v25.6c0 14.138 11.462 25.6 25.6 25.6zM335.012 598.816c13.129 0 23.949-9.883 25.428-22.614l0.172-2.986v-25.6c0-14.138-11.462-25.6-25.6-25.6-13.129 0-23.949 9.883-25.428 22.614l-0.172 2.986v25.6c0 14.138 11.462 25.6 25.6 25.6zM437.906 598.816c13.129 0 23.949-9.883 25.428-22.614l0.172-2.986v-25.6c0-14.138-11.462-25.6-25.6-25.6-13.129 0-23.949 9.883-25.428 22.614l-0.172 2.986v25.6c0 14.138 11.462 25.6 25.6 25.6z" />
<glyph unicode="&#xe928;" glyph-name="clock" d="M512 729.6c155.523 0 281.6-126.077 281.6-281.6s-126.077-281.6-281.6-281.6c-155.523 0-281.6 126.077-281.6 281.6s126.077 281.6 281.6 281.6zM512 678.4c-127.246 0-230.4-103.154-230.4-230.4s103.154-230.4 230.4-230.4c127.246 0 230.4 103.154 230.4 230.4s-103.154 230.4-230.4 230.4zM511.198 621.927l3.218-0.173c23.207-2.168 21.803-18.606 22.241-32.738v0l-0.643-109.908-0.001-13.828 120.61-114.552 2.162-2.383c7.944-9.936 7.431-24.465-1.672-33.818-9.861-10.132-26.069-10.352-36.201-0.491v0l-101.693 93.962-24.902 26.607c-0.302 0.377-0.591 0.761-0.868 1.151-3.794 3.433-6.142 8.293-6.338 14.598v0 148.988c2.731 16.387 11.832 23.858 27.303 22.412z" />
<glyph unicode="&#xe929;" glyph-name="close" d="M686.045 619.702c9.283-9.283 9.946-23.923 1.989-33.971l-1.989-2.233-136.669-136.65 136.669-136.689c9.997-9.997 9.997-26.206 0-36.204-9.283-9.283-23.923-9.946-33.971-1.989l-2.233 1.989-136.689 136.669-136.65-136.669c-9.997-9.997-26.206-9.997-36.204 0-9.283 9.283-9.946 23.923-1.989 33.971l1.989 2.233 136.656 136.689-136.656 136.65c-9.997 9.997-9.997 26.206 0 36.204 9.283 9.283 23.923 9.946 33.971 1.989l2.233-1.989 136.65-136.656 136.689 136.656c9.997 9.997 26.206 9.997 36.204 0z" />
<glyph unicode="&#xe92a;" glyph-name="close-small" d="M414.517 583.168l2.53-2.234 94.953-94.969 94.953 94.969c10.488 10.488 27.493 10.488 37.981 0 9.681-9.681 10.426-24.915 2.234-35.451l-2.234-2.53-94.969-94.953 94.969-94.953c10.488-10.488 10.488-27.493 0-37.981-9.681-9.681-24.915-10.426-35.451-2.234l-2.53 2.234-94.953 94.969-94.953-94.969c-10.488-10.488-27.493-10.488-37.981 0-9.681 9.681-10.426 24.915-2.234 35.451l2.234 2.53 94.969 94.953-94.969 94.953c-10.488 10.488-10.488 27.493 0 37.981 9.681 9.681 24.915 10.426 35.451 2.234z" />
<glyph unicode="&#xe92b;" glyph-name="control-attachment" d="M265.879 548.923c4.506-40.059 23.944-100.682 54.159-165.763 29.896-64.389 68.137-128.402 106.87-175.396 19.405-23.542 37.729-41.336 53.906-52.851 16.73-11.907 26.929-14.113 31.186-14.113 4.152 0 14.070 2.125 30.305 13.875 15.741 11.395 33.539 29.061 52.329 52.529 37.514 46.845 74.181 110.725 102.51 175.035 28.628 64.998 46.556 125.486 50.051 165.425 0.497 5.678 0.64 10.322 0.596 14.062-61.829-5.939-115.223 18.547-155.648 48.22-33.958 24.924-61.701 55.526-82.084 81.746-21.978-26.158-51.732-56.863-87.421-81.851-41.608-29.133-96.023-53.67-157.683-48.253 0.092-3.474 0.361-7.667 0.924-12.664zM256 614.4c100.818-18.33 188.511 74.906 230.185 129.333 12.096 15.8 38.472 15.183 49.894-1.109 38.269-54.576 118.984-146.431 219.121-128.224 140.797 25.6-89.6-524.8-243.2-524.8s-396.8 550.4-256 524.8zM617.587 517.929c10.345 9.638 26.545 9.068 36.183-1.277 8.896-9.549 9.091-24.087 0.934-33.846l-2.214-2.335-155.105-144.515c-2.025-1.915-4.285-3.436-6.692-4.564-3.502-1.646-7.291-2.45-11.069-2.422-6.4 0.046-12.769 2.481-17.664 7.247l-95.685 91.827c-10.202 9.789-10.534 25.997-0.745 36.196 9.037 9.418 23.542 10.424 33.741 2.826l2.455-2.081 78.344-75.185 137.518 128.128z" />
<glyph unicode="&#xe92c;" glyph-name="convert-acte" d="M326.65 596.925c14.138 0 25.6-11.462 25.6-25.6 0-13.129-9.883-23.949-22.614-25.428l-2.986-0.172h-52.646c-7.413 0-13.563-5.409-14.719-12.495l-0.195-2.419v-222.301c0-7.413 5.409-13.563 12.495-14.719l2.419-0.195h78.512c4.341 0 8.592-1.103 12.363-3.183l2.732-1.741 56.047-40.912 0.008 20.236c0 13.129 9.883 23.949 22.614 25.428l2.986 0.172h103.547c14.138 0 25.6-11.462 25.6-25.6 0-13.129-9.883-23.949-22.614-25.428l-2.986-0.172-77.955 0.014 0.008-45.046c0-19.992-21.666-31.909-38.348-22.21l-2.346 1.534-90.027 65.722-70.14-0.014c-35.11 0-63.827 27.367-65.984 61.933l-0.13 4.181v222.301c0 35.11 27.367 63.827 61.933 65.984l4.181 0.13h52.646zM739.31 724.282c42.415 0 76.8-34.385 76.8-76.8v0-211.615c0-36.514-29.6-66.114-66.114-66.114v0l-102.978 0.017 0.017-45.048c0-19.992-21.666-31.909-38.348-22.21v0l-2.346 1.534-90.036 65.725-70.131-0.017c-35.11 0-63.827 27.367-65.984 61.933v0l-0.13 4.181v222.301c0 36.514 29.6 66.114 66.114 66.114v0zM739.31 673.082h-293.138c-8.237 0-14.914-6.677-14.914-14.914v0-222.301c0-8.237 6.677-14.914 14.914-14.914v0h78.512c5.426 0 10.712-1.724 15.095-4.924v0l56.038-40.909 0.017 20.233c0 13.129 9.883 23.949 22.614 25.428v0l2.986 0.172h128.561c8.237 0 14.914 6.677 14.914 14.914v0 211.615c0 14.138-11.462 25.6-25.6 25.6v0zM668.956 609.725v-102.4c0-14.138-11.462-25.6-25.6-25.6-13.129 0-23.949 9.883-25.428 22.614l-0.172 2.986-0.010 15.972-46.831-46.873c-9.997-9.997-26.206-9.997-36.204 0-9.228 9.228-9.938 23.75-2.13 33.792l2.13 2.412 45.889 45.921-14.044-0.023c-13.129 0-23.949 9.883-25.428 22.614l-0.172 2.986c0 13.129 9.883 23.949 22.614 25.428l2.986 0.172h102.4z" />
<glyph unicode="&#xe92d;" glyph-name="dashboard" d="M768 704c28.277 0 51.2-22.923 51.2-51.2v0-409.6c0-28.277-22.923-51.2-51.2-51.2v0h-512c-28.277 0-51.2 22.923-51.2 51.2v0 409.6c0 28.277 22.923 51.2 51.2 51.2v0zM768 576h-512v-332.8h512v332.8zM396.8 550.4c70.692 0 128-57.308 128-128s-57.308-128-128-128c-70.692 0-128 57.308-128 128s57.308 128 128 128zM704.213 378.606c14.138 0 25.6-11.462 25.6-25.6 0-13.129-9.883-23.949-22.614-25.428l-2.986-0.172h-128.213c-14.138 0-25.6 11.462-25.6 25.6 0 13.129 9.883 23.949 22.614 25.428l2.986 0.172h128.213zM371.202 494.831c-29.83-10.542-51.202-38.991-51.202-72.431 0-42.415 34.385-76.8 76.8-76.8s76.8 34.385 76.8 76.8c0 0.668-0.009 1.333-0.025 1.997l-67.621-25.904c-15.831-6.061-32.758 4.641-34.59 20.97l-0.163 2.938zM704.213 455.406c14.138 0 25.6-11.462 25.6-25.6 0-13.129-9.883-23.949-22.614-25.428l-2.986-0.172h-128.213c-14.138 0-25.6 11.462-25.6 25.6 0 13.129 9.883 23.949 22.614 25.428l2.986 0.172h128.213zM422.423 494.822l-0.023-35.199 32.866 12.579c-8.681 10.181-19.974 18.067-32.843 22.621zM704.213 532.206c14.138 0 25.6-11.462 25.6-25.6 0-13.129-9.883-23.949-22.614-25.428l-2.986-0.172h-128.213c-14.138 0-25.6 11.462-25.6 25.6 0 13.129 9.883 23.949 22.614 25.428l2.986 0.172h128.213zM768 652.8h-512v-25.6h512v25.6z" />
<glyph unicode="&#xe92e;" glyph-name="default-smile" d="M512 832c212.078 0 384-171.922 384-384s-171.922-384-384-384c-212.078 0-384 171.922-384 384s171.922 384 384 384zM512 768c-176.732 0-320-143.268-320-320s143.268-320 320-320c176.732 0 320 143.268 320 320s-143.268 320-320 320zM400 576c26.509 0 48-21.491 48-48s-21.491-48-48-48c-26.509 0-48 21.491-48 48s21.491 48 48 48zM613.332 576c26.511 0 48-21.491 48-48s-21.489-48-48-48c-26.509 0-48 21.491-48 48s21.491 48 48 48z" />
<glyph unicode="&#xe92f;" glyph-name="delete" d="M691.2 588.8v-358.4c0-28.277-22.923-51.2-51.2-51.2h-256c-26.992 0-49.105 20.886-51.060 47.379l-0.14 3.821v358.4h358.4zM435.2 537.6h-51.226l0.026-307.2h51.2v307.2zM537.574 537.6h-51.174v-307.2h51.2l-0.026 307.2zM640 537.6h-51.226l0.026-307.2h51.2v307.2zM563.2 691.2c14.138 0 25.6-11.462 25.6-25.6h102.4c14.138 0 25.6-11.462 25.6-25.6s-11.462-25.6-25.6-25.6h-358.4c-14.138 0-25.6 11.462-25.6 25.6s11.462 25.6 25.6 25.6h102.4c0 13.129 9.883 23.949 22.614 25.428l2.986 0.172h102.4z" />
<glyph unicode="&#xe930;" glyph-name="delete-notification" d="M773.302 709.302c9.228-9.228 9.938-23.75 2.13-33.792l-2.13-2.412-97.447-97.466c6.339-29.746 9.453-63.368 9.453-100.481 0-33.34 8.774-60.743 24.942-87.896 1.932-3.245 3.936-6.438 6.161-9.837l3.522-5.283 12.117-17.845c7.294-11.292 10.351-18.469 10.351-28.514 0-22.902-9.966-32.277-36.086-35.907l-4.504-0.553-8.931-0.756-2.393-0.144-2.459-0.128-10.502-0.362-11.597-0.159-277.96 0.001-88.266-88.272c-9.997-9.997-26.206-9.997-36.204 0-9.228 9.228-9.938 23.75-2.13 33.792l2.13 2.412 473.6 473.6c9.997 9.997 26.206 9.997 36.204 0zM588.8 259.2c-7.272-32.811-38.942-57.6-76.8-57.6-36.209 0-66.758 22.68-75.714 53.367l-1.086 4.233h153.6zM504.066 729.6c42.37 0 76.97-11.133 104.153-32.172 16.684-12.913 30.575-29.557 41.755-49.648l-38.151-38.158c-20.757 45.718-56.292 68.778-107.757 68.778-72.952 0-105.575-43.303-113.301-147.316l-0.51-7.533-0.756-15.325-0.262-7.964-0.185-8.166-0.147-16.945c0-43.96-11.372-80.446-31.558-114.942-2.284-3.903-4.62-7.686-7.154-11.612l-1.189-1.768-51.801-51.816c-11.139 5.387-15.603 14.615-15.603 30.254 0 9.943 2.951 16.886 10.182 28.123l2.915 4.429 7.997 11.767 4.417 6.676c2.176 3.37 4.147 6.561 6.046 9.806 15.876 27.131 24.548 54.955 24.548 89.084 0 169.213 44.044 254.449 166.361 254.449zM631.32 531.093l-192.1-192.072 231.679 0.021 9.438 0.267-6.837 10.177c-2.572 3.931-4.931 7.692-7.242 11.573-20.578 34.558-32.151 70.702-32.151 114.091 0 20.129-0.923 38.779-2.787 55.942z" />
<glyph unicode="&#xe931;" glyph-name="doc" d="M638.256 757.941l104.144-99.729v-463.471c0-28.277-22.923-51.2-51.2-51.2v0h-358.4c-28.277 0-51.2 22.923-51.2 51.2v0 512c0 28.277 22.923 51.2 51.2 51.2v0h305.456zM587.034 706.765l-254.234-0.023v-512h358.4v412.286l-52.944-0.015c-26.992 0-49.105 20.886-51.060 47.379v0l-0.14 3.821-0.023 48.552zM515.283 321.656c14.138 0 25.6-11.462 25.6-25.6 0-13.129-9.883-23.949-22.614-25.428l-2.986-0.172h-93.12c-14.138 0-25.6 11.462-25.6 25.6 0 13.129 9.883 23.949 22.614 25.428l2.986 0.172h93.12zM608.403 411.256c14.138 0 25.6-11.462 25.6-25.6 0-13.129-9.883-23.949-22.614-25.428l-2.986-0.172h-186.241c-14.138 0-25.6 11.462-25.6 25.6 0 13.129 9.883 23.949 22.614 25.428l2.986 0.172h186.241zM608.403 500.856c14.138 0 25.6-11.462 25.6-25.6 0-13.129-9.883-23.949-22.614-25.428l-2.986-0.172h-186.241c-14.138 0-25.6 11.462-25.6 25.6 0 13.129 9.883 23.949 22.614 25.428l2.986 0.172h186.241zM608.403 590.456c14.138 0 25.6-11.462 25.6-25.6 0-13.129-9.883-23.949-22.614-25.428l-2.986-0.172h-186.241c-14.138 0-25.6 11.462-25.6 25.6 0 13.129 9.883 23.949 22.614 25.428l2.986 0.172h186.241zM668.365 658.229l-30.131 28.851 0.023-28.868 30.109 0.017z" />
<glyph unicode="&#xe932;" glyph-name="doc-small" d="M612.656 716.8l104.144-99.729v-386.671c0-28.277-22.923-51.2-51.2-51.2v0h-307.2c-28.277 0-51.2 22.923-51.2 51.2v0 435.2c0 28.277 22.923 51.2 51.2 51.2v0h254.256zM561.434 665.623l-203.034-0.023v-435.2h307.2v335.486l-52.944-0.015c-26.992 0-49.105 20.886-51.060 47.379v0l-0.14 3.821-0.023 48.552zM499.2 370.115c14.138 0 25.6-11.462 25.6-25.6 0-13.129-9.883-23.949-22.614-25.428l-2.986-0.172h-67.52c-14.138 0-25.6 11.462-25.6 25.6 0 13.129 9.883 23.949 22.614 25.428l2.986 0.172h67.52zM592.32 459.715c14.138 0 25.6-11.462 25.6-25.6 0-13.129-9.883-23.949-22.614-25.428l-2.986-0.172h-160.641c-14.138 0-25.6 11.462-25.6 25.6 0 13.129 9.883 23.949 22.614 25.428l2.986 0.172h160.641zM592.32 549.315c14.138 0 25.6-11.462 25.6-25.6 0-13.129-9.883-23.949-22.614-25.428l-2.986-0.172h-160.641c-14.138 0-25.6 11.462-25.6 25.6 0 13.129 9.883 23.949 22.614 25.428l2.986 0.172h160.641zM642.765 617.088l-30.131 28.851 0.023-28.868 30.109 0.017z" />
<glyph unicode="&#xe933;" glyph-name="download" d="M243.2 361.6c13.129 0 23.949-9.883 25.428-22.614l0.172-2.986v-105.6h486.4v105.472c0 14.138 11.462 25.6 25.6 25.6 13.129 0 23.949-9.883 25.428-22.614l0.172-2.986v-127.744c0-5.515-1.744-10.622-4.71-14.801-3.799-7.53-11.192-12.94-19.926-13.955l-2.986-0.172h-533.558c-9.787 0-18.291 5.492-22.598 13.561-2.596 3.506-4.321 7.697-4.85 12.253l-0.172 2.986v128c0 14.138 11.462 25.6 25.6 25.6zM512 742.4c13.129 0 23.949-9.883 25.428-22.614l0.172-2.986v-296.55l58.698 58.652c9.997 9.997 26.206 9.997 36.204 0 9.228-9.228 9.938-23.75 2.13-33.792l-2.13-2.412-102.4-102.4c-0.906-0.906-1.863-1.73-2.862-2.472l-2.848-1.835-2.886-1.368-3.636-1.147-2.927-0.509-2.942-0.167-2.986 0.172-2.884 0.504-2.876 0.857-2.089 0.865-2.496 1.339-2.36 1.631c-0.942 0.744-1.698 1.416-2.412 2.13l-102.4 102.4c-9.997 9.997-9.997 26.206 0 36.204 9.228 9.228 23.75 9.938 33.792 2.13l2.412-2.13 58.698-58.678v296.576c0 14.138 11.462 25.6 25.6 25.6z" />
<glyph unicode="&#xe934;" glyph-name="download-cloud" d="M512 729.6c124.575 0 226.49-99.022 230.3-223.63v0l0.075-11.608 5.364-1.475c62.048-18.373 107.22-74.718 109.75-141.378v0l0.112-5.908c0-94.34-51.254-154.005-153.6-154.005-1.269 0-2.531 0.009-3.761 0.027v0l-6.812 0.199-2.764 0.164-346.936 0.017c-98.189 1.023-177.327 80.932-177.327 179.199 0 76.012 47.712 142.458 116.885 168.068v0l1.924 0.713 0.518 2.81c20.046 104.895 110.843 183.543 219.461 186.71v0zM512 678.4c-92.117 0-168.995-69.847-178.253-160.759v0l-1.822-17.89-17.447-4.355c-56.505-14.104-96.879-65.116-96.879-124.197 0-70.19 56.53-127.271 126.395-128v0l348.204-0.061c3.804-0.229 7.738-0.344 11.801-0.344 72.195 0 102.4 35.161 102.4 102.805 0 52.732-40.057 96.716-92.115 101.892v0l-23.051 2.292-0.031 49.025-0.088 5.987c-2.955 96.582-82.227 173.604-179.115 173.604zM512 537.6c13.129 0 23.949-9.883 25.428-22.614l0.172-2.986v-117.376l33.098 33.078c9.997 9.997 26.206 9.997 36.204 0 9.228-9.228 9.938-23.75 2.13-33.792l-2.13-2.412-76.8-76.8c-3.845-3.845-8.609-6.211-13.585-7.099l-3.005-0.355h-3.022c-5.033 0.296-9.995 2.070-14.179 5.324l-2.412 2.13-76.8 76.8c-9.997 9.997-9.997 26.206 0 36.204 9.228 9.228 23.75 9.938 33.792 2.13l2.412-2.13 33.098-33.078v117.376c0 14.138 11.462 25.6 25.6 25.6z" />
<glyph unicode="&#xe935;" glyph-name="download-doc" d="M638.256 757.941l104.144-99.729v-463.471c0-26.992-20.886-49.105-47.379-51.060l-3.821-0.14h-358.4c-26.992 0-49.105 20.886-51.060 47.379l-0.14 3.821v512c0 26.992 20.886 49.105 47.379 51.060l3.821 0.14h305.456zM587.034 706.765l-254.234-0.023v-512h358.4v412.286l-52.944-0.015c-25.642 0-46.881 18.85-50.617 43.449l-0.442 3.93-0.14 3.821-0.023 48.552zM601.6 320c14.138 0 25.6-11.462 25.6-25.6 0-13.129-9.883-23.949-22.614-25.428l-2.986-0.172h-179.2c-14.138 0-25.6 11.462-25.6 25.6 0 13.129 9.883 23.949 22.614 25.428l2.986 0.172h179.2zM512 640c13.129 0 23.949-9.883 25.428-22.614l0.172-2.986v-165.297l54.725 54.717c10.906 10.906 28.589 10.906 39.495 0 10.067-10.067 10.842-25.909 2.323-36.864l-2.323-2.631-97.745-97.745c-5.729-5.729-13.327-8.448-20.831-8.159l-1.244-0.021-0.845 0.053-3.131-0.005c-5.49 0.323-10.903 2.259-15.468 5.808l-2.631 2.323-97.745 97.745c-10.906 10.906-10.906 28.589 0 39.495 10.067 10.067 25.909 10.842 36.864 2.323l2.631-2.323 54.725-54.717v165.297c0 14.138 11.462 25.6 25.6 25.6zM638.234 687.081l0.023-28.868 30.109 0.017-30.131 28.851z" />
<glyph unicode="&#xe936;" glyph-name="dpe" d="M431.514 744.659l76.8-128.001c10.237-17.062-2.053-38.771-21.952-38.771h-230.401c-14.138 0-25.6 11.461-25.6 25.6v128.001c0 14.139 11.462 25.6 25.6 25.6h153.601c8.991 0 17.324-4.718 21.952-12.429zM281.562 629.087h159.616l-46.080 76.801h-113.536v-76.801zM559.511 526.139l76.8-128c10.237-17.062-2.053-38.771-21.952-38.771h-358.4c-14.138 0-25.6 11.464-25.6 25.6v128c0 14.139 11.462 25.6 25.6 25.6h281.6c8.993 0 17.326-4.718 21.952-12.429zM281.559 410.568h287.616l-46.080 76.8h-241.536v-76.8zM789.092 179.615l-93.865 128c-5.655 7.711-15.839 12.429-26.829 12.429h-406.748c-17.281 0-31.29-11.461-31.29-25.6v-128c0-14.139 14.008-25.6 31.29-25.6h500.613c24.32 0 39.342 21.709 26.829 38.771zM716.8 192h-435.2v76.8h376.010l59.19-76.8z" />
<glyph unicode="&#xe937;" glyph-name="drag-drop" d="M409.6 345.6c28.277 0 51.2-22.923 51.2-51.2s-22.923-51.2-51.2-51.2c-28.277 0-51.2 22.923-51.2 51.2s22.923 51.2 51.2 51.2zM614.4 345.6c28.277 0 51.2-22.923 51.2-51.2s-22.923-51.2-51.2-51.2c-28.277 0-51.2 22.923-51.2 51.2s22.923 51.2 51.2 51.2zM614.4 499.2c28.277 0 51.2-22.923 51.2-51.2s-22.923-51.2-51.2-51.2c-28.277 0-51.2 22.923-51.2 51.2s22.923 51.2 51.2 51.2zM409.6 499.2c28.277 0 51.2-22.923 51.2-51.2s-22.923-51.2-51.2-51.2c-28.277 0-51.2 22.923-51.2 51.2s22.923 51.2 51.2 51.2zM409.6 652.8c28.277 0 51.2-22.923 51.2-51.2s-22.923-51.2-51.2-51.2c-28.277 0-51.2 22.923-51.2 51.2s22.923 51.2 51.2 51.2zM614.4 652.8c28.277 0 51.2-22.923 51.2-51.2s-22.923-51.2-51.2-51.2c-28.277 0-51.2 22.923-51.2 51.2s22.923 51.2 51.2 51.2z" />
<glyph unicode="&#xe938;" glyph-name="duplicate" d="M306.25 583.235c14.138 0 25.6-11.462 25.6-25.6 0-13.129-9.883-23.949-22.614-25.428l-2.986-0.172-24.676 0.010v-327.245h327.245l0.016 31.075c0 13.129 9.883 23.949 22.614 25.428l2.986 0.172c13.129 0 23.949-9.883 25.428-22.614l0.172-2.986v-34.414c0-25.174-19.436-45.809-44.121-47.717l-3.74-0.144h-333.913c-25.174 0-45.809 19.436-47.717 44.121l-0.144 3.74v333.913c0 25.174 19.436 45.809 44.121 47.717l3.74 0.144h27.989zM742.4 716.8c28.277 0 51.2-22.923 51.2-51.2v0-327.235c0-28.277-22.923-51.2-51.2-51.2v0h-327.235c-28.277 0-51.2 22.923-51.2 51.2v0 327.235c0 28.277 22.923 51.2 51.2 51.2v0zM742.4 665.6h-327.235v-327.235h327.235v327.235z" />
<glyph unicode="&#xe939;" glyph-name="dynamic-renov" d="M459.919 702.974c9.394-3.44 10.334-3.784 15.438-10.187l1.873-2.371 191.067-331.035c5.677-11.401 2.223-25.133-7.772-32.623l-2.634-1.737-5.366-2.052c-3.539-1.259-5.61-1.628-8.666-1.318l-2.515 0.357-5.638 1.107c-48.516 17.828-87.145 23.9-115.398 19.016-22.694-3.923-44.951-10.666-66.805-20.257l63.102-109.298c6.564-11.37 3.416-25.682-6.871-33.328l-2.499-1.642-66.511-38.4c-12.244-7.069-27.901-2.874-34.97 9.37l-0.601 1.152-0.679 1.065-62.72 108.634c-35.372-20.422-80.238-9.508-102.45 24.129l-2.461 3.982-38.4 66.511c-20.422 35.372-9.508 80.238 24.129 102.45l3.982 2.461 66.511 38.4c2.758 1.592 5.602 2.899 8.499 3.929l12.474 8.129c24.212 15.844 47.405 38.27 69.498 67.414 21.096 27.829 36.245 63.039 45.162 105.239 2.694 14.597 16.875 23.934 31.223 20.905zM408.265 297.826l-22.202-12.79 51.202-88.68 22.182 12.808-51.182 88.662zM318.665 453.018l-66.511-38.4c-11.37-6.564-15.799-20.533-10.714-32.299l1.344-2.672 38.4-66.511c6.564-11.37 20.533-15.799 32.299-10.714l2.672 1.344 66.511 38.4-64 110.851zM461.976 614.391l-0.803-2.124c-9.762-24.697-22.031-46.835-36.836-66.367-16.208-21.382-33.196-39.883-50.983-55.47l-7.672-6.501-3.959-3.094 1.283-2.217 64.765-112.181 12.314 5.368c15.554 6.426 31.335 11.649 47.336 15.663l12.042 2.784 12.124 2.33c20.114 3.477 42.587 3.112 67.489-0.981l9.452-1.709 3.496-0.75-130.048 225.25zM701.602 479.425l3.215-0.111 109.596-10.626c14.073-1.364 24.374-13.878 23.010-27.951-1.259-12.99-12.019-22.767-24.735-23.121l-3.215 0.111-109.596 10.626c-14.073 1.364-24.374 13.878-23.010 27.951 1.259 12.99 12.019 22.767 24.735 23.121zM811.024 649.6c6.564-11.37 3.416-25.682-6.871-33.328l-2.499-1.642-110.851-64c-12.244-7.069-27.901-2.874-34.97 9.37-6.564 11.37-3.416 25.682 6.871 33.328l2.499 1.642 110.851 64c12.244 7.069 27.901 2.874 34.97-9.37zM643.344 776.893c10.889-4.954 16.636-16.584 14.6-27.841l-0.75-3.056-1.148-3.006-45.596-100.226c-5.855-12.869-21.033-18.556-33.903-12.701-11.879 5.404-17.638 18.753-13.849 30.897l1.148 3.006 45.596 100.226c5.855 12.869 21.033 18.556 33.903 12.701z" />
<glyph unicode="&#xe93a;" glyph-name="eau" d="M691.2 337.067l20.48-27.307 10.807-14.591c1.713-2.345 3.382-4.646 5.006-6.904v0l9.222-13.034 8.172-12.011c8.924-13.422 15.715-24.782 20.409-34.17 10.188-20.375 12.639-49.793 4.589-73.944-10.831-32.492-38.623-52.705-78.686-52.705-76.177 0-100.675 73.493-74.097 126.649 4.694 9.389 11.485 20.748 20.409 34.17v0l8.172 12.011c1.449 2.087 2.943 4.216 4.48 6.388v0l9.749 13.55c3.426 4.69 7.028 9.553 10.807 14.591v0l20.48 27.307zM691.174 250.982l-9.373-13.639-6.816-10.388-5.687-9.214-4.552-8.026-1.849-3.563c-11.822-23.645-2.187-52.551 28.303-52.551 17.937 0 26.224 6.027 30.114 17.695 3.683 11.049 2.401 26.431-1.811 34.856-0.569 1.137-1.185 2.325-1.849 3.563v0l-4.552 8.026-5.687 9.214-6.816 10.388c-2.459 3.657-5.106 7.507-7.939 11.548v0l-1.485 2.091zM563.2 755.2c14.138 0 25.6-11.462 25.6-25.6s-11.462-25.6-25.6-25.6h-51.2l0.021-28.832c26.891-6.927 49.505-24.504 63.078-47.965l13.701-0.003c96.908 0 175.849-76.922 179.096-173.039l0.104-6.161v-51.2c14.138 0 25.6-11.462 25.6-25.6 0-13.129-9.883-23.949-22.614-25.428l-2.986-0.172h-179.2c-14.138 0-25.6 11.462-25.6 25.6s11.462 25.6 25.6 25.6v25.6c0 14.138-11.462 25.6-25.6 25.6h-256v-25.6h-51.2v230.4h51.2v-25.6l90.501 0.003c13.577 23.469 36.201 41.049 63.103 47.972l-0.004 28.825h-51.2c-14.138 0-25.6 11.462-25.6 25.6s11.462 25.6 25.6 25.6h153.6zM486.4 627.2c-17.092 0-32.673-8.409-42.143-22.104l-2.238-3.532-14.787-25.561-120.032 0.022v-76.826h256c40.901 0 74.334-31.972 76.67-72.287l0.13-4.513v-25.6h76.8l0.007 50.337-0.082 5.295c-2.261 66.925-55.86 120.597-122.366 123.449l-5.571 0.119-43.224 0.010-14.784 25.555c-9.121 15.767-25.864 25.636-44.381 25.636z" />
<glyph unicode="&#xe93b;" glyph-name="ecosysteme" d="M257.76 473.554l0.816-0.083c0.363-0.036 0.724-0.080 1.082-0.132 0.625-0.072 1.256-0.185 1.883-0.323 0.234-0.071 0.448-0.122 0.661-0.175 0.773-0.17 1.559-0.405 2.337-0.679 0.108-0.062 0.202-0.096 0.297-0.131 0.712-0.237 1.43-0.538 2.136-0.873 0.329-0.182 0.648-0.342 0.963-0.509 0.534-0.257 1.071-0.566 1.6-0.897 0.429-0.291 0.842-0.567 1.247-0.854 0.341-0.222 0.68-0.476 1.015-0.74 0.471-0.387 0.94-0.783 1.395-1.196 0.314-0.272 0.614-0.559 0.91-0.854l64-64c15.063-15.063 6.212-40.862-14.927-43.504l-22.392-2.806c35.563-81.35 116.748-138.198 211.21-138.198 92.254 0 174.483 54.712 211.001 137.705 5.694 12.941 20.801 18.816 33.742 13.121s18.816-20.801 13.121-33.742c-44.624-101.413-145.126-168.284-257.865-168.284-120.768 0-223.78 76.024-263.79 182.825l-27.429-3.421c-20.289-2.536-35.217 18.563-26.073 36.851l38.679 77.358c0.361 0.678 0.751 1.337 1.17 1.977l-1.448-2.535c0.65 1.299 1.389 2.513 2.206 3.641 0.316 0.422 0.647 0.847 0.991 1.26 0.294 0.376 0.604 0.73 0.921 1.074 0.34 0.341 0.684 0.691 1.038 1.031 0.448 0.46 0.929 0.889 1.424 1.298 0.218 0.152 0.431 0.323 0.647 0.49 0.501 0.414 1.016 0.781 1.543 1.128 0.278 0.163 0.561 0.342 0.847 0.516 0.505 0.323 1.018 0.609 1.539 0.876 0.379 0.184 0.762 0.37 1.15 0.546 0.489 0.229 0.993 0.437 1.503 0.63 0.375 0.139 0.749 0.271 1.127 0.394 0.532 0.174 1.066 0.329 1.603 0.466 0.41 0.105 0.838 0.203 1.27 0.29 0.528 0.107 1.050 0.196 1.574 0.269 1.147 0.155 2.318 0.236 3.508 0.236l-2.306-0.097c1.351 0.124 2.713 0.142 4.072 0.051zM378.934 590.001c79.14 10.111 134.222 9.612 167.595-2.809 93.96-34.969 139.599-121.329 100.346-191.99 14.43-19.154 24.505-37.188 30.211-54.307 4.471-13.413-2.778-27.911-16.191-32.382s-27.911 2.778-32.382 16.191c-3.41 10.23-9.66 21.798-18.777 34.588-119.676-52.467-206.448 19.424-252.36 198.973-3.812 14.908 6.295 29.786 21.558 31.736zM528.671 539.208c-19.279 7.175-55.752 8.723-108.093 3.903v0l-5.755-0.545 3.517-11.423c36.104-113.072 86.499-153.253 156-130.594-1.142 1.238-2.382 2.49-3.641 3.749-31.574 31.574-58.441 50.765-79.593 57.816-13.413 4.471-20.662 18.969-16.191 32.382s18.969 20.662 32.382 16.191c30.048-10.016 62.914-33.492 99.607-70.184l1.462-1.487c6.187 36.373-20.984 76.27-74.029 97.982v0zM512.007 755.2c120.768 0 223.78-76.024 263.79-182.825l27.412 3.427c20.289 2.536 35.217-18.563 26.073-36.851l-38.119-76.284c-0.861-1.821-1.931-3.525-3.179-5.079l-0.6-0.717c-0.094-0.109-0.188-0.217-0.283-0.324-0.49-0.549-1-1.073-1.531-1.574-0.284-0.275-0.57-0.533-0.861-0.784-0.396-0.333-0.799-0.66-1.212-0.974-0.384-0.299-0.779-0.582-1.181-0.852-0.394-0.261-0.795-0.516-1.203-0.76-0.435-0.259-0.873-0.502-1.317-0.732-0.459-0.242-0.945-0.476-1.439-0.694-0.346-0.145-0.672-0.28-1-0.408-0.535-0.219-1.1-0.419-1.673-0.599-0.416-0.119-0.826-0.237-1.239-0.344-0.474-0.134-0.959-0.245-1.449-0.341-0.493-0.089-0.981-0.171-1.471-0.24-1.141-0.164-2.32-0.246-3.517-0.246l2.135 0.090c-0.512-0.044-1.025-0.072-1.539-0.086l-0.596-0.004c-0.363 0-0.723 0.008-1.082 0.022-0.386 0.008-0.787 0.033-1.187 0.067-0.517 0.055-1.020 0.115-1.518 0.189-0.545 0.066-1.101 0.166-1.655 0.285-0.38 0.099-0.757 0.19-1.13 0.288-0.567 0.13-1.123 0.297-1.675 0.483-0.315 0.13-0.642 0.248-0.965 0.373-0.409 0.133-0.811 0.299-1.211 0.477l-0.835 0.417c-0.124 0.061-0.247 0.122-0.37 0.185-1.495 0.734-2.949 1.666-4.325 2.766-0.743 0.615-1.465 1.261-2.149 1.945l-64.023 64c-15.063 15.063-6.212 40.862 14.927 43.504l22.409 2.8c-35.563 81.35-116.748 138.198-211.21 138.198-92.798 0-175.422-55.362-211.605-139.091-5.609-12.978-20.677-18.953-33.655-13.344s-18.953 20.677-13.344 33.655c44.216 102.316 145.199 169.98 258.605 169.98z" />
<glyph unicode="&#xe93c;" glyph-name="edit-acte" d="M704 690.599c42.415 0 76.8-34.385 76.8-76.8v0-280.812c0-42.415-34.385-76.8-76.8-76.8v0l-136.55 0.006 0.025-64.794c0-20.266-22.192-32.124-38.854-21.913v0l-2.34 1.61-110.819 85.097-95.462-0.006c-40.901 0-74.334 31.972-76.67 72.287v0l-0.13 4.513v280.812c0 42.415 34.385 76.8 76.8 76.8v0zM704 639.399h-384c-14.138 0-25.6-11.462-25.6-25.6v0-280.812c0-14.138 11.462-25.6 25.6-25.6v0h104.187c5.639 0 11.121-1.862 15.593-5.297v0l76.469-58.722 0.025 38.42c0 13.129 9.883 23.949 22.614 25.428v0l2.986 0.172h162.125c14.138 0 25.6 11.462 25.6 25.6v0 280.812c0 14.138-11.462 25.6-25.6 25.6v0zM605.416 606.192l3.257-2.991 36.204-36.204c18.942-18.942 19.939-49.035 2.991-69.151l-2.991-3.257-126.451-133.062c-5.392-5.392-11.906-9.498-19.055-12.039l-4.362-1.335-48.786-12.582c-27.381-7.062-55.302 9.41-62.364 36.791-1.73 6.71-2.077 13.683-1.038 20.498l1.038 5.075 12.582 48.786c1.904 7.384 5.429 14.23 10.295 20.051l3.079 3.366 126.451 133.062c18.942 18.942 49.035 19.939 69.151 2.991zM511.541 502.895l-65.523-68.96-12.582-48.786 48.786 12.582 65.518 68.965-36.198 36.198zM572.469 566.997l-25.651-26.982 36.198-36.198 25.657 26.977-36.204 36.204z" />
<glyph unicode="&#xe93d;" glyph-name="edit-folder" d="M445.105 691.2c25.862 0 49.986-13.016 64.187-34.63v0l18.273-27.834 176.435-0.003c40.901 0 74.334-31.972 76.67-72.287v0l0.13-4.513v-270.333c0-42.415-34.385-76.8-76.8-76.8v0h-384c-42.415 0-76.8 34.385-76.8 76.8v0 332.8c0 42.415 34.385 76.8 76.8 76.8v0zM445.105 640h-125.105c-14.138 0-25.6-11.462-25.6-25.6v0-332.8c0-14.138 11.462-25.6 25.6-25.6v0h384c14.138 0 25.6 11.462 25.6 25.6v0 270.333c0 14.138-11.462 25.6-25.6 25.6v0h-204.043l-33.456 50.923c-4.733 7.205-12.775 11.543-21.396 11.543v0zM605.416 552.525l3.257-2.991 36.204-36.204c18.942-18.942 19.939-49.035 2.991-69.151l-2.991-3.257-126.451-133.062c-5.392-5.392-11.906-9.498-19.055-12.039l-4.362-1.335-48.786-12.582c-27.381-7.062-55.302 9.41-62.364 36.791-1.73 6.71-2.077 13.683-1.038 20.498l1.038 5.075 12.582 48.786c1.904 7.384 5.429 14.23 10.295 20.051l3.079 3.366 126.451 133.062c18.942 18.942 49.035 19.939 69.151 2.991zM511.541 449.228l-65.523-68.96-12.582-48.786 48.786 12.582 65.518 68.965-36.198 36.198zM572.469 513.33l-25.651-26.982 36.198-36.198 25.657 26.977-36.204 36.204z" />
<glyph unicode="&#xe93e;" glyph-name="edit-project" d="M512 735.606c21.092 0 41.145-8.52 59.984-24.495v0l1.262-1.105h12.253c23.849 0 43.889-16.306 49.581-38.377l43.319-0.023c26.992 0 49.105-20.886 51.060-47.379l0.14-3.821v-408.812c0-26.992-20.886-49.105-47.379-51.060l-3.821-0.14h-332.8c-26.992 0-49.105 20.886-51.060 47.379l-0.14 3.821v408.812c0 26.992 20.886 49.105 47.379 51.060l3.821 0.14 43.32 0.026c5.693 22.070 25.733 38.374 49.58 38.374v0h12.225l1.291 1.105c17.269 14.643 35.559 23.023 54.733 24.318v0zM387.43 620.432l-41.83-0.026v-408.812h332.8v408.812l-41.839 0.010c-1.942-26.504-24.061-47.404-51.061-47.404v0h-147c-28.277 0-51.2 22.923-51.2 51.2l0.13-3.78zM596.362 535.042l3.257-2.991 36.204-36.204c18.942-18.942 19.939-49.035 2.991-69.151l-2.991-3.257-126.451-133.062c-5.392-5.392-11.906-9.498-19.055-12.039l-4.362-1.335-48.786-12.582c-27.381-7.062-55.302 9.41-62.364 36.791-1.73 6.71-2.077 13.683-1.038 20.498l1.038 5.075 12.582 48.786c1.904 7.384 5.429 14.23 10.295 20.051l3.079 3.366 126.451 133.062c18.942 18.942 49.035 19.939 69.151 2.991zM502.487 431.745l-65.523-68.96-12.582-48.786 48.786 12.582 65.518 68.965-36.198 36.198zM563.415 495.847l-25.651-26.982 36.198-36.198 25.657 26.977-36.204 36.204zM512 684.406c-9.527 0-20.466-5.47-33.098-18.102-4.801-4.801-11.312-7.498-18.102-7.498v0h-22.3v-34.594h147v34.594h-22.3c-6.79 0-13.301 2.697-18.102 7.498-12.632 12.632-23.572 18.102-33.098 18.102z" />
<glyph unicode="&#xe93f;" glyph-name="elevation" d="M793.6 652.8c14.138 0 25.6-11.462 25.6-25.6 0-13.129-9.883-23.949-22.614-25.428l-2.986-0.172h-56.806l-20.758-83.009-1.067-3.299-51.2-128c-0.556-1.391-1.233-2.729-2.022-4l-1.267-1.853-76.8-102.4-2.098-2.457-2.39-2.173-128-102.4c-2.768-2.214-5.955-3.822-9.355-4.734l-3.462-0.678-204.8-25.6c-14.029-1.754-26.824 8.198-28.578 22.227-1.628 13.027 6.836 24.99 19.286 28.036l2.941 0.541 197.633 24.722 119.834 95.846 72.755 97.024 49.306 123.264 25.212 100.75c2.612 10.447 11.433 18.035 21.934 19.227l2.902 0.164h76.8zM358.4 320c27.988 0 43.69-8.372 64.967-28.842l4.46-4.381c9.998-9.997 9.998-26.206 0-36.204-9.228-9.228-23.749-9.939-33.792-2.13l-2.537 2.255c-14.827 14.827-20.285 18.102-33.098 18.102-11.828 0-17.387-2.79-29.835-14.882l-3.263-3.22c-23.573-23.573-39.448-33.098-69.302-33.098-14.138 0-25.6 11.462-25.6 25.6 0 13.129 9.883 23.949 22.614 25.428l2.986 0.172c11.828 0 17.387 2.79 29.835 14.882l3.263 3.22c23.573 23.573 39.448 33.098 69.302 33.098zM358.4 422.4c27.988 0 43.69-8.372 64.967-28.842l4.335-4.256c14.827-14.827 20.285-18.102 33.098-18.102 11.828 0 17.387 2.79 29.835 14.882l3.263 3.22c13.159 13.159 20.092 19.003 31.783 24.748 12.689 6.236 28.031 1.005 34.267-11.684s1.005-28.031-11.684-34.267c-3.343-1.643-6.183-3.645-10.449-7.542l-4.814-4.586-2.898-2.873c-23.573-23.573-39.448-33.098-69.302-33.098-27.988 0-43.69 8.372-64.967 28.842l-4.335 4.256c-14.827 14.827-20.285 18.102-33.098 18.102-11.828 0-17.387-2.79-29.835-14.882l-3.263-3.22c-23.573-23.573-39.448-33.098-69.302-33.098-14.138 0-25.6 11.462-25.6 25.6 0 13.129 9.883 23.949 22.614 25.428l2.986 0.172c11.828 0 17.387 2.79 29.835 14.882l3.263 3.22c23.573 23.573 39.448 33.098 69.302 33.098zM563.2 524.8c13.892 0 26.248-2.824 37.451-8.317 12.695-6.224 17.941-21.561 11.717-34.255-5.779-11.788-19.416-17.153-31.499-12.876l-2.756 1.16c-4.136 2.028-8.778 3.089-14.912 3.089-11.828 0-17.387-2.79-29.835-14.882l-3.263-3.22c-23.573-23.573-39.448-33.098-69.302-33.098-27.988 0-43.69 8.372-64.967 28.842l-4.335 4.256c-14.827 14.827-20.285 18.102-33.098 18.102-11.828 0-17.387-2.79-29.835-14.882l-3.263-3.22c-23.573-23.573-39.448-33.098-69.302-33.098-14.138 0-25.6 11.462-25.6 25.6 0 13.129 9.883 23.949 22.614 25.428l2.986 0.172c11.828 0 17.387 2.79 29.835 14.882l3.263 3.22c23.573 23.573 39.448 33.098 69.302 33.098 27.988 0 43.69-8.372 64.967-28.842l4.335-4.256c14.827-14.827 20.285-18.102 33.098-18.102 11.828 0 17.387 2.79 29.835 14.882l3.263 3.22c23.573 23.573 39.448 33.098 69.302 33.098zM460.8 765.804l82.102-82.102c9.997-9.997 9.997-26.206 0-36.204-9.228-9.228-23.75-9.938-33.792-2.13l-2.412 2.13-20.301 20.283 0.003-117.381c0-14.138-11.462-25.6-25.6-25.6-13.129 0-23.949 9.883-25.428 22.614l-0.172 2.986-0.003 117.407-20.295-20.309c-9.228-9.228-23.75-9.938-33.792-2.13l-2.412 2.13c-9.228 9.228-9.938 23.75-2.13 33.792l2.13 2.412 63.805 63.803c0.129 0.131 0.258 0.261 0.39 0.39l17.907 17.909z" />
<glyph unicode="&#xe940;" glyph-name="eligibility" d="M512 779.565c137.313 0 248.627-111.314 248.627-248.627 0-64.072-24.236-122.483-64.041-166.566l-0.007-224.807c0-18.085-18.077-30.143-34.459-24.026l-2.711 1.19-147.41 74.708-147.409-74.708c-16.133-8.174-35.059 2.502-37.006 19.88l-0.164 2.956-0.007 224.807c-39.805 44.083-64.041 102.494-64.041 166.566 0 137.313 111.314 248.627 248.627 248.627zM645.402 321.094c-38.546-24.555-84.313-38.782-133.402-38.782s-94.856 14.227-133.402 38.782v-139.846l121.832 61.701c6.234 3.159 13.439 3.61 19.95 1.354l3.19-1.354 121.805-61.701zM512 728.365c-109.036 0-197.427-88.391-197.427-197.427s88.391-197.427 197.427-197.427c109.036 0 197.427 88.391 197.427 197.427s-88.391 197.427-197.427 197.427zM649.654 625.202c9.228-9.228 9.938-23.75 2.13-33.792l-2.13-2.412-159.822-159.822-116.36 128.51c-9.49 10.481-8.686 26.67 1.794 36.159 9.674 8.76 24.213 8.749 33.856 0.452l2.303-2.247 80.223-88.605 121.803 121.756c9.997 9.997 26.206 9.997 36.204 0z" />
<glyph unicode="&#xe941;" glyph-name="eligibility-no" d="M512 779.565c137.313 0 248.627-111.314 248.627-248.627 0-64.072-24.236-122.483-64.041-166.566l-0.007-224.807c0-18.085-18.077-30.143-34.459-24.026l-2.711 1.19-147.41 74.708-147.409-74.708c-16.133-8.174-35.059 2.502-37.006 19.88l-0.164 2.956-0.007 224.807c-39.805 44.083-64.041 102.494-64.041 166.566 0 137.313 111.314 248.627 248.627 248.627zM645.402 321.094c-38.546-24.555-84.313-38.782-133.402-38.782s-94.856 14.227-133.402 38.782v-139.846l121.832 61.701c6.234 3.159 13.439 3.61 19.95 1.354l3.19-1.354 121.805-61.701zM512 728.365c-109.036 0-197.427-88.391-197.427-197.427s88.391-197.427 197.427-197.427c109.036 0 197.427 88.391 197.427 197.427s-88.391 197.427-197.427 197.427zM437.181 647.999l2.412-2.13 75.557-75.559 69.258 69.239c9.997 9.997 26.206 9.997 36.204 0 9.228-9.228 9.938-23.75 2.13-33.792l-2.13-2.412-69.264-69.234 69.264-69.262c9.997-9.997 9.997-26.206 0-36.204-9.228-9.228-23.75-9.938-33.792-2.13l-2.412 2.13-69.258 69.267-75.557-75.587c-9.997-9.997-26.206-9.997-36.204 0-9.228 9.228-9.938 23.75-2.13 33.792l2.13 2.412 75.563 75.582-75.563 75.553c-9.997 9.997-9.997 26.206 0 36.204 9.228 9.228 23.75 9.938 33.792 2.13z" />
<glyph unicode="&#xe942;" glyph-name="enterprise" d="M702.587 704l-0.016-58.148c0.41 0.068 0.823 0.126 1.239 0.175l2.986 0.172h104.892v-377.399c0-14.138-11.462-25.6-25.6-25.6-13.129 0-23.949 9.883-25.428 22.614l-0.172 2.986-0.008 326.199h-53.683c-1.439 0-2.85 0.119-4.224 0.347l0.016-51.678h-390.769l-0.023 51.354-48.265-0.022-0.016-326.199-0.172-2.986c-1.479-12.732-12.299-22.614-25.428-22.614-14.138 0-25.6 11.462-25.6 25.6v0 377.399l99.482 0.022 0.023 57.779h390.769zM701.35 486.435v-195.521c0-14.138-11.462-25.6-25.6-25.6-13.129 0-23.949 9.883-25.428 22.614l-0.172 2.986-0.001 144.341h-50.055l0.019-144.341c0-13.129-9.883-23.949-22.614-25.428l-2.986-0.172c-13.129 0-23.949 9.883-25.428 22.614l-0.172 2.986v195.521h152.437zM514.737 486.435v-153.6h-204.8v153.6h204.8zM463.527 435.236h-102.4v-51.2h102.4v51.2zM651.371 652.804h-288.358v-57.933h288.358v57.933z" />
<glyph unicode="&#xe943;" glyph-name="erlenmeyer" d="M553.198 723.816l2.232-1.989 25.6-25.601c7.613-7.613 9.582-19.082 5.202-28.7l-1.352-2.573-76.8-128c-1.664-2.77-3.83-5.192-6.38-7.148l-2.673-1.792-133.007-77.553c2.004-1.784 4.047-3.684 6.144-5.701l4.337-4.257c14.828-14.828 20.283-18.102 33.096-18.102 10.844 0 16.417 2.345 26.86 12.050l6.239 6.052c23.572 23.572 39.45 33.098 69.302 33.098 27.988 0 43.692-8.371 64.968-28.841l4.337-4.257c2.696-2.696 5.082-5.012 7.26-6.994l-0.033 39.816c0 3.482 0.709 6.912 2.071 10.089l1.577 3.082 76.8 128c4.047 6.748 10.934 11.203 18.616 12.211l3.336 0.218h25.6c14.139 0 25.6-11.461 25.6-25.6 0-13.128-9.882-23.949-22.615-25.426l-2.985-0.174-11.131 0.026-65.674-109.501 0.026-65.866c0.164-1.17 0.248-2.365 0.248-3.581s-0.084-2.412-0.248-3.581l-0.020-188.774c0-11.738-2.691-23.291-7.831-33.784l-2.772-5.156c-20.739-35.254-65.247-47.859-101.179-29.432l-3.958 2.176-282.703 166.295c-11.337 6.669-20.772 16.138-27.399 27.5-20.58 35.282-9.867 80.195 23.671 102.556l3.971 2.481 45.343 26.486c4.004 5.22 9.971 8.852 16.799 9.795l163.848 95.565 63.158 105.247-11.448 11.451c-9.283 9.285-9.946 23.923-1.989 33.972l1.989 2.233c9.283 9.283 23.923 9.946 33.971 1.989zM511.997 422.4c-11.827 0-17.388-2.79-29.834-14.881l-3.261-3.22c-23.572-23.572-39.45-33.098-69.304-33.098-27.986 0-43.689 8.371-64.965 28.841l-4.337 4.257c-10.765 10.767-16.591 15.442-23.88 17.196l-49.091-28.641c-12.212-7.124-16.337-22.799-9.213-35.013 1.656-2.839 3.84-5.325 6.423-7.327l2.711-1.838 282.703-166.298c12.186-7.168 27.876-3.1 35.044 9.088 1.736 2.949 2.857 6.208 3.308 9.577l0.228 3.402-0.026 170.068c-13.906 4.129-25.326 12.306-39.071 25.528l-4.337 4.257c-14.828 14.828-20.283 18.102-33.098 18.102zM639.997 678.4c14.139 0 25.6-11.461 25.6-25.6s-11.461-25.6-25.6-25.6c-14.136 0-25.6 11.461-25.6 25.6s11.464 25.6 25.6 25.6zM716.797 704c14.139 0 25.6-11.461 25.6-25.6s-11.461-25.6-25.6-25.6c-14.136 0-25.6 11.461-25.6 25.6s11.464 25.6 25.6 25.6zM639.997 755.2c14.139 0 25.6-11.462 25.6-25.6s-11.461-25.6-25.6-25.6c-14.136 0-25.6 11.462-25.6 25.6s11.464 25.6 25.6 25.6z" />
<glyph unicode="&#xe944;" glyph-name="euro" d="M569.257 628.953c28.059 0 55.262-6.375 79.949-18.468 12.697-6.22 17.948-21.555 11.728-34.252s-21.555-17.948-34.252-11.728c-17.713 8.677-37.217 13.248-57.425 13.248-48.545 0-90.91-26.458-113.463-65.741l82.77-0.013c14.138 0 25.6-11.462 25.6-25.6 0-13.129-9.883-23.949-22.614-25.428l-2.986-0.172-99.328 0.008c-0.475-4.533-0.719-9.136-0.719-13.795 0-3.984 0.178-7.926 0.527-11.819l99.52 0.005c14.138 0 25.6-11.462 25.6-25.6 0-13.129-9.883-23.949-22.614-25.428l-2.986-0.172-83.876-0.020c22.254-40.363 65.218-67.706 114.569-67.706 20.225 0 39.745 4.578 57.47 13.269 12.695 6.225 28.032 0.98 34.256-11.715s0.98-28.032-11.715-34.256c-24.703-12.113-51.928-18.498-80.011-18.498-78.328 0-145.095 49.497-170.729 118.919l-11.329 0.007c-14.138 0-25.6 11.462-25.6 25.6 0 13.129 9.883 23.949 22.614 25.428l2.986 0.172 0.496-0.008c-0.251 3.908-0.378 7.85-0.378 11.822 0 4.642 0.174 9.244 0.515 13.799l-0.633-0.012c-14.138 0-25.6 11.462-25.6 25.6 0 13.129 9.883 23.949 22.614 25.428l2.986 0.172 12.069 0.003c26.161 68.387 92.404 116.95 169.989 116.95z" />
<glyph unicode="&#xe945;" glyph-name="export-bdd" d="M665.562 460.707l0.717 0.045c6.588 0.387 13.287-1.549 18.765-5.808l2.631-2.323 97.745-97.745c10.906-10.906 10.906-28.589 0-39.495-10.067-10.067-25.909-10.842-36.864-2.323l-2.631 2.323-54.725 54.719v-165.299c0-14.138-11.462-25.6-25.6-25.6-13.129 0-23.949 9.883-25.428 22.614l-0.172 2.986v165.325l-54.725-54.745c-10.906-10.906-28.589-10.906-39.495 0-10.067 10.067-10.842 25.909-2.323 36.864l2.323 2.631 97.745 97.745c6.036 6.036 14.147 8.731 22.036 8.086zM460.8 704l6.391-0.026c7.076-0.059 14.068-0.215 20.962-0.469l10.266-0.453 12.113-0.734 8.927-0.686 8.784-0.802 11.477-1.248 2.825-0.344 2.807-0.357 11.044-1.553 10.735-1.755c74.023-12.987 124.069-40.703 124.069-81.174 0-2.549-0.199-5.048-0.589-7.496 0.198-0.752 0.325-1.53 0.417-2.319l0.172-2.986v-76.8c0-14.138-11.462-25.6-25.6-25.6-13.129 0-23.949 9.883-25.428 22.614l-0.172 2.986 0.023 29.652c-17.349-8.008-38.492-14.454-62.453-19.265l-10.439-1.961-10.735-1.755-11.044-1.553-2.807-0.357-2.825-0.344-11.477-1.248-8.784-0.802-8.927-0.686-12.113-0.734-12.337-0.526-12.545-0.316-12.736-0.106-12.736 0.106-12.545 0.316-12.337 0.526-12.113 0.734-8.927 0.686-8.784 0.802-11.477 1.248-2.825 0.344-2.807 0.357-11.044 1.553-10.735 1.755c-28.27 4.96-53.043 12.068-72.867 21.214l-0.004-42.441c0-22.965 34.185-40.78 107.758-47.745l14.258-1.177c2.454-0.175 4.946-0.338 7.477-0.491l15.657-0.78 16.599-0.505c2.845-0.061 5.73-0.11 8.655-0.147l8.894-0.075 20.002 0.078 7.583 0.21 6.409 0.344 28.655 2.683c14.082 1.266 26.524-9.123 27.79-23.204s-9.123-26.524-23.204-27.79l-26.051-2.491-7.239-0.497-7.936-0.328-14.928-0.213-11.3 0.010c-12.234 0.052-24.006 0.301-35.309 0.751l-16.602 0.829c-2.708 0.164-5.387 0.34-8.036 0.53l-15.538 1.293c-43.481 4.155-78.171 12.196-103.599 24.642l0.003-45.119 0.207-2.028c2.514-15.888 22.645-28.779 62.903-36.507l11.061-1.913 12-1.666 12.95-1.41 13.909-1.146c4.797-0.337 9.757-0.628 14.879-0.872l15.859-0.59c2.725-0.074 5.492-0.137 8.3-0.187l17.348-0.151c14.138 0 25.6-11.462 25.6-25.6s-11.462-25.6-25.6-25.6l-17.577 0.153-16.889 0.462c-2.757 0.103-5.485 0.219-8.185 0.348l-15.846 0.934c-46.82 3.306-84.026 11.007-110.933 23.695l-0.001-44.977c2.015-17.967 28.677-32.419 83.78-39.774l12.234-1.465 13.111-1.24 13.997-1.008 14.891-0.768 15.793-0.519 16.703-0.263 12.762-0.011 13.909 0.306 20.951 0.861 16.034 0.883 15.037 1 16.519 1.378 5.983 0.656 4.013 0.603 1.162 0.274c13.516 4.148 27.836-3.446 31.985-16.962s-3.446-27.836-16.962-31.985c-1.052-0.323-2.418-0.646-4.059-0.967l-5.712-0.956-7.133-0.933-8.321-0.898-14.201-1.254-20.923-1.435-12.448-0.669-17.065-0.699-15.755-0.374c-2.462-0.032-4.829-0.049-7.080-0.049l-17.865 0.141c-2.921 0.047-5.813 0.106-8.677 0.177l-16.84 0.57-16.15 0.863c-100.775 6.442-159.181 30.988-169.433 79.101-0.602 1.754-1.029 3.586-1.249 5.482l-0.172 2.986v1.667c-0.273 3.805-0.279 7.741-0.017 11.811l0.028 106.428c-0.139 2.767-0.146 5.602-0.021 8.505l0.009 204.39c0 1.85 0.196 3.654 0.569 5.393-0.375 2.411-0.569 4.884-0.569 7.407 0 39.166 46.87 66.385 116.982 79.871l7.088 1.303 10.735 1.755 11.044 1.553 2.807 0.357 2.825 0.344 11.477 1.248 8.784 0.802 8.927 0.686 12.113 0.734c12.228 0.63 24.793 0.948 37.619 0.948zM460.8 653.456c-53.455 0-103.339-6.566-139.537-17.83-6.22-1.936-11.771-3.945-16.655-5.923l-4.661-1.964-5.523-2.545-4.732-2.411-1.060-0.575-1.010-0.563-3.547-2.106-0.764-0.486-0.714-0.468-2.364-1.676-0.468-0.365-0.418-0.342-1.181-1.121c-0.105-0.121-0.189-0.231-0.252-0.328 0.378-0.539 0.697-1.118 0.993-1.711l0.44-0.443 0.886-0.708 1.083-0.797 2.758-1.833 3.547-2.106 1.010-0.563 1.060-0.575 4.732-2.411 5.523-2.545c5.918-2.594 13.023-5.306 21.316-7.887 36.198-11.264 86.082-17.83 139.537-17.83s103.339 6.566 139.537 17.83c6.22 1.936 11.771 3.945 16.655 5.923l4.661 1.964 5.523 2.545 4.732 2.411 1.060 0.575 1.010 0.563 3.547 2.106 0.764 0.486 0.714 0.468 2.364 1.676 0.468 0.365 0.418 0.342 0.414 0.391c0.304 0.611 0.632 1.208 0.982 1.79l-0.214 0.302-1.181 1.121-0.886 0.708-1.083 0.797-2.758 1.833-3.547 2.106-1.010 0.563-1.060 0.575-4.732 2.411-5.523 2.545c-5.918 2.594-13.023 5.306-21.316 7.887-36.198 11.264-86.082 17.83-139.537 17.83z" />
<glyph unicode="&#xe946;" glyph-name="exposition-future" d="M653.664 678.4l5.423-0.125c59.308-2.748 106.903-50.343 109.652-109.652v0l0.049-1.711 50.412-189.116-1.281-0.32c0.845-6.238 1.281-12.606 1.281-19.076 0-77.762-63.038-140.8-140.8-140.8-64.448 0-118.782 43.3-135.499 102.395h-61.803c-16.716-59.095-71.051-102.395-135.499-102.395-77.762 0-140.8 63.038-140.8 140.8 0 6.541 0.446 12.977 1.309 19.281l-0.445 0.115 1.144 4.437c1.477 8.662 3.745 17.054 6.727 25.099l42.542 159.58 0.049 1.711c2.748 59.308 50.343 106.903 109.652 109.652l5.423 0.125c59.299 0 108.134-44.805 114.498-102.408h53.469c6.364 57.603 55.198 102.408 114.498 102.408v0zM678.4 448c-49.485 0-89.6-40.115-89.6-89.6s40.115-89.6 89.6-89.6c49.485 0 89.6 40.115 89.6 89.6s-40.115 89.6-89.6 89.6zM345.6 448c-37.8 0-70.133-23.407-83.295-56.518l-5.361-20.028c-0.622-4.262-0.944-8.62-0.944-13.055 0-49.485 40.115-89.6 89.6-89.6s89.6 40.115 89.6 89.6c0 49.485-40.115 89.6-89.6 89.6zM537.6 396.8h-51.226l0.026-25.6-0.575 0.016c0.001-0.009 0.002-0.017 0.002-0.026l51.773 0.010v25.6zM537.6 524.8h-51.226v-76.8h51.226v76.8zM371.2 627.2c-33.932 0-61.697-26.407-63.864-59.792l-0.136-4.208v-3.355l-19.494-73.060c17.659 7.976 37.258 12.415 57.894 12.415 34.033 0 65.246-12.075 89.589-32.174l0.011 96.174c0 35.346-28.654 64-64 64zM653.664 627.2c-35.346 0-64-28.654-64-64v0l-0.016-95.488c24.219 19.688 55.107 31.488 88.752 31.488 21.014 0 40.953-4.604 58.863-12.857l-19.599 73.503v3.355l-0.136 4.208c-2.167 33.385-29.931 59.792-63.864 59.792z" />
<glyph unicode="&#xe947;" glyph-name="eye" d="M498.168 647.591c114.128 0 222.118-60.626 323.491-179.669v0l14.134-16.597-14.134-16.597c-101.373-119.043-209.363-179.669-323.491-179.669-114.869 0-215.141 61.41-299.608 181.542v0l-10.353 14.725 10.353 14.725c84.468 120.132 184.739 181.542 299.608 181.542zM498.168 596.391c-91.162 0-172.384-46.554-244.679-141.915v0l-2.358-3.152 2.358-3.152c72.295-95.361 153.517-141.915 244.679-141.915 91.86 0 181.275 47.251 268.646 143.604v0l1.284 1.463-9.232 10.087c-82.192 87.719-166.199 132.158-252.354 134.85v0zM512 566.756c63.108 0 114.267-51.159 114.267-114.267s-51.159-114.267-114.267-114.267c-63.108 0-114.267 51.159-114.267 114.267s51.159 114.267 114.267 114.267zM512 515.556c-34.831 0-63.067-28.236-63.067-63.067s28.236-63.067 63.067-63.067c34.831 0 63.067 28.236 63.067 63.067s-28.236 63.067-63.067 63.067z" />
<glyph unicode="&#xe948;" glyph-name="eye-hide" d="M337.62 658.302l2.412-2.13 34.594-34.584c39.066 17.287 80.269 26.003 123.543 26.003 114.128 0 222.118-60.626 323.491-179.669v0l14.134-16.597-14.134-16.597c-44.526-52.288-90.33-93.306-137.369-122.866l35.882-35.829c9.997-9.997 9.997-26.206 0-36.204-9.228-9.228-23.75-9.938-33.792-2.13l-2.412 2.13-46.571 46.554c-45.324-20.83-91.745-31.324-139.228-31.324-114.869 0-215.141 61.41-299.608 181.542v0l-10.353 14.725 10.353 14.725c39.625 56.355 82.727 99.788 129.183 130.020l-23.916 23.9c-9.997 9.997-9.997 26.206 0 36.204 9.228 9.228 23.75 9.938 33.792 2.13zM364.878 558.912c-39.298-23.544-76.389-58.27-111.388-104.436v0l-2.335-3.152 2.335-3.152c72.295-95.361 153.517-141.915 244.679-141.915 33.708 0 67.087 6.362 100.157 19.179l-28.474 28.491c-16.968-9.981-36.741-15.705-57.851-15.705-63.108 0-114.267 51.159-114.267 114.267 0 21.117 5.728 40.897 15.716 57.869zM498.168 596.391c-29.024 0-57.041-4.719-84.083-14.23l34.549-34.57c18.134 12.106 39.925 19.164 63.366 19.164 63.108 0 114.267-51.159 114.267-114.267 0-23.451-7.065-45.252-19.182-63.391l39.974-39.961c40.361 23.659 80.267 57.177 119.755 100.725v0l1.281 1.463-9.229 10.087c-82.192 87.719-166.199 132.158-252.354 134.85v0zM451.95 471.816c-1.959-6.091-3.017-12.585-3.017-19.327 0-34.831 28.236-63.067 63.067-63.067 6.751 0 13.254 1.061 19.352 3.025zM512 515.556c-9.205 0-17.95-1.972-25.834-5.517l83.391-83.369c3.541 7.881 5.51 16.62 5.51 25.819 0 34.831-28.236 63.067-63.067 63.067z" />
<glyph unicode="&#xe949;" glyph-name="favorite" d="M597.325 565.478l-85.325 205.183-85.35-205.183-221.519-17.771 168.757-144.585-51.544-216.162 189.656 115.835 189.656-115.835-51.569 216.162 168.783 144.585-221.544 17.771zM461.919 516.93l50.081 120.407 50.081-120.407 129.99-10.409-99.038-84.851 30.251-126.836-111.283 67.962-111.309-67.962 30.277 126.836-99.064 84.851 130.015 10.409z" />
<glyph unicode="&#xe94a;" glyph-name="favorite-full" d="M597.325 565.478l-85.325 205.183-85.35-205.183-221.519-17.771 168.757-144.585-51.544-216.162 189.656 115.835 189.656-115.835-51.569 216.162 168.783 144.585z" />
<glyph unicode="&#xe94b;" glyph-name="financial-aid" d="M510.904 787.863c-4.764 9.527 3.515 20.365 13.96 18.276l38.336-7.667 38.336 7.667c10.445 2.089 18.724-8.749 13.96-18.276l-13.896-40.591h-76.8l-13.896 40.591zM256 516.872c28.278 0 51.2-22.922 51.2-51.2v0-29.117c48.005-2.552 119.258-4.342 166.4 3.517 58.749 9.795 154.954-2.885 168.276-38.039 4.093-10.798 0.366-23.718-14.676-38.761-9.091-9.091-3.702-11.236 9.956-9.953 38.333 0 182.044 45.212 182.044-2.847 0-102.397-153.6-128-255.997-153.597-67.154-16.788-183.347 38.2-256.33 58.181-2.888-25.539-24.563-45.384-50.872-45.384v0h-76.8c-14.138 0-25.6 11.461-25.6 25.6v0 256c0 14.139 11.462 25.6 25.6 25.6v0zM577.313 384.167c7.301 21.908-66.222-9.418-270.113 1.119v0-77.486c64.256-15.022 124.175-44.746 188.915-58.158 66.327-13.74 153.114 15.954 212.964 42.14 23.36 10.22 38.072 20.15 46.953 29.875-16.863-1.851-37.778-5.678-61.655-10.371v0c-21.197-4.165-43.036-9.802-64.763-9.498v0c-17.185 0.238-33.976 6.536-45.279 19.715-25.393-14.333-56.079-22.231-85.135-22.231-14.139 0-25.6 11.461-25.6 25.6s11.461 25.6 25.6 25.6c22.758 0 69.596 8.141 78.113 33.695zM256 465.672h-51.2v-204.8h51.2v204.8zM600.525 721.672l1.165-1.183c16.121-16.514 191.233-200.786 2.933-225.646-34.918-4.611-55.493-4.91-90.36 0-178.372 25.122-0.958 213.032 11.636 226.112l0.695 0.717h73.93zM534.075 663.283c-23.864-24.899-94.034-106.596-0.238-118.828 20.923-2.729 33.265-2.56 54.218 0 100.311 12.262 28.731 94.341 4.649 119.014-12.111 12.408-47.388 11.54-58.629-0.187z" />
<glyph unicode="&#xe94c;" glyph-name="flag" d="M275.753 652.247l-13.381 44.513c-4.070 13.539-18.345 21.215-31.885 17.145s-21.217-18.346-17.146-31.886l158.991-528.888c4.070-13.54 18.345-21.217 31.885-17.147s21.217 18.348 17.147 31.887l-47.521 158.080c0.292 0.343 0.579 0.696 0.855 1.060l-17.423 55.828c0.010 0.008 0.018 0.015 0.028 0.026l17.434-55.805 0.020 0.026 0.468 0.589c0.466 0.576 1.234 1.505 2.294 2.729 2.127 2.45 5.409 6.057 9.784 10.348 8.788 8.617 21.757 19.773 38.359 29.852 32.97 20.014 79.57 35.505 137.411 19.356 73.546-20.534 134.024-5.64 175.869 14.52 20.8 10.020 37.005 21.327 48.092 30.208 5.558 4.449 9.871 8.323 12.877 11.169 1.503 1.426 2.683 2.596 3.53 3.461 0.425 0.43 0.765 0.786 1.024 1.057l0.325 0.343 0.113 0.125 0.046 0.049 0.020 0.020c0.010 0.010 0.018 0.020-18.824 17.352l18.842-17.331c6.188 6.725 8.32 16.238 5.596 24.96l-83.446 267.242c-2.88 9.224-10.708 16.040-20.239 17.624-9.398 1.561-18.872-2.225-24.609-9.802-0.102-0.126-0.399-0.483-0.878-1.006-0.96-1.048-2.691-2.813-5.274-5.003-5.153-4.367-13.763-10.473-26.563-15.966-25.311-10.862-68.9-20.121-137.628-6.119-81.39 16.581-147.067-8.056-191.657-36.25-18.376-11.62-33.308-23.916-44.536-34.365zM292.664 595.999c0.468 0.563 1.052 1.257 1.751 2.066 2.348 2.716 5.967 6.712 10.788 11.489 9.674 9.582 24.005 22.121 42.45 33.784 36.769 23.25 89.052 42.601 154.071 29.356 77.678-15.826 132.022-6.221 168.044 9.239 7.409 3.18 13.967 6.574 19.725 9.984l67.374-215.775c-0.586-0.484-1.198-0.98-1.833-1.487-8.707-6.971-21.66-16.026-38.316-24.049-33.062-15.931-80.681-27.86-139.878-11.333-74.908 20.915-136.105 0.376-177.746-24.904-17.27-10.483-31.293-21.829-41.792-31.503l-15.027 48.097-49.61 165.036zM342.769 429.325l14.505-46.484c-0.138-0.128-0.279-0.259-0.417-0.387l-14.088 46.871z" />
<glyph unicode="&#xe94d;" glyph-name="folder" d="M445.105 716.8c25.862 0 49.986-13.016 64.187-34.63v0l18.273-27.834 176.435-0.003c40.901 0 74.334-31.972 76.67-72.287v0l0.13-4.513v-270.333c0-42.415-34.385-76.8-76.8-76.8v0h-384c-42.415 0-76.8 34.385-76.8 76.8v0 332.8c0 42.415 34.385 76.8 76.8 76.8v0zM729.6 517.273l-435.2 0.001v-210.074c0-13.129 9.883-23.949 22.614-25.428l2.986-0.172h384c14.138 0 25.6 11.462 25.6 25.6v0 210.073zM445.105 665.6h-125.105c-14.138 0-25.6-11.462-25.6-25.6v0-71.526l435.2-0.001v9.061c0 14.138-11.462 25.6-25.6 25.6v0h-204.043l-33.456 50.923c-4.733 7.205-12.775 11.543-21.396 11.543v0z" />
<glyph unicode="&#xe94e;" glyph-name="folder-details" d="M716.8 326.988c40.901 0 74.334-31.972 76.67-72.287l0.13-4.513v-65.265c0-14.138-11.462-25.6-25.6-25.6-13.129 0-23.949 9.883-25.428 22.614l-0.172 2.986v65.265c0 13.129-9.883 23.949-22.614 25.428l-2.986 0.172h-155.13c-13.129 0-23.949-9.883-25.428-22.614l-0.172-2.986v-65.265c0-14.138-11.462-25.6-25.6-25.6-13.129 0-23.949 9.883-25.428 22.614l-0.172 2.986v65.265c0 40.901 31.972 74.334 72.287 76.67l4.513 0.13h155.13zM453.98 734.977l155.772-95.338c12.062-7.376 15.861-23.133 8.485-35.195-6.849-11.201-20.925-15.276-32.559-9.896l-2.637 1.411-129.256 79.14-176.051-106.010 0.013-229.118c0-13.129-9.883-23.949-22.614-25.428l-2.986-0.172c-13.129 0-23.949 9.883-25.428 22.614l-0.172 2.986v258.018l227.433 136.988zM640 550.4c56.554 0 102.4-45.846 102.4-102.4s-45.846-102.4-102.4-102.4c-56.554 0-102.4 45.846-102.4 102.4s45.846 102.4 102.4 102.4zM640 499.2c-28.277 0-51.2-22.923-51.2-51.2s22.923-51.2 51.2-51.2c28.277 0 51.2 22.923 51.2 51.2s-22.923 51.2-51.2 51.2zM460.8 550.4v-128h-128v128h128zM409.6 499.2h-25.6v-25.6h25.6v25.6z" />
<glyph unicode="&#xe94f;" glyph-name="folder-fusion" d="M423.517 708.112l30.832-47.581 129.242-0.022c33.932 0 61.697-26.407 63.864-59.792l0.136-4.208-0.001-115.034 89.601-0.017c33.932 0 61.697-26.407 63.864-59.792l0.136-4.208v-175.543c0-33.932-26.407-61.697-59.792-63.864l-4.208-0.136h-295.271c-33.932 0-61.697 26.407-63.864 59.792l-0.136 4.208v103.624l-89.42-0.263c-33.932-0.095-61.771 26.234-64.032 59.612l-0.148 4.208v235.016c0 33.932 26.407 61.697 59.792 63.864l4.208 0.136h135.198zM395.674 656.922l-107.354-0.009c-6.284 0-11.51-4.528-12.594-10.499l-0.206-2.301v-68.096l236.481-0.016c14.138 0 25.6-11.462 25.6-25.6 0-13.129-9.883-23.949-22.614-25.428l-2.986-0.172-236.481 0.016v-115.576c0.018-6.284 4.56-11.497 10.535-12.564l2.301-0.2 115.092 0.324c14.138 0.040 25.632-11.389 25.672-25.528l-0.026-0.235 0.026-0.269v-128.852c0-6.284 4.528-11.51 10.499-12.594l2.301-0.206h295.271c6.284 0 11.51 4.528 12.594 10.499l0.206 2.301-0.001 90.44-0.714-0.062-237.264-0.108c-14.138-0.006-25.605 11.45-25.612 25.588-0.006 13.129 9.872 23.953 22.603 25.438l2.985 0.174 238.001 0.068 0.001 34.006c0 6.284-4.528 11.51-10.499 12.594l-2.301 0.206h-115.2c-14.138 0-25.6 11.462-25.6 25.6v140.651c0 6.284-4.528 11.51-10.499 12.594l-2.301 0.206h-157.066l-30.851 47.612z" />
<glyph unicode="&#xe950;" glyph-name="folder-linked" d="M653.273 398.396l3.283-3.099 8.022-8.022c9.997-9.997 9.997-26.206 0-36.204-9.283-9.283-23.923-9.946-33.971-1.989l-2.233 1.989-8.022 8.022c-9.283 9.283-23.923 9.946-33.971 1.989l-2.233-1.989-72.408-72.408c-9.283-9.283-9.946-23.923-1.989-33.971l1.989-2.233 18.102-18.102c9.283-9.283 23.923-9.946 33.971-1.989l2.233 1.989 10.476 10.476c9.997 9.997 26.206 9.997 36.204 0 9.283-9.283 9.946-23.923 1.989-33.971l-1.989-2.233-10.476-10.476c-28.921-28.921-75.17-29.954-105.329-3.099l-3.283 3.099-18.102 18.102c-28.921 28.921-29.954 75.17-3.099 105.329l3.099 3.283 72.408 72.408c28.921 28.921 75.17 29.954 105.329 3.099zM438.302 729.6l2.366-0.11 2.199-0.307c0.357-0.073 0.71-0.157 1.062-0.255l2.095-0.771c1.747-0.806 3.522-2.053 5.527-3.975l2.53-2.646c0.444-0.5 0.901-1.031 1.372-1.594l3.006-3.788 3.421-4.662 6.078-8.83 16.524-25.39 6.733-10.505 167.527-0.087c20.552 1.563 39.225-3.907 54.725-16.159l4.148-3.509c15.051-13.608 23.444-31.21 24.739-51.436l0.177-5.58v-39.606c0-13.129-9.883-23.949-22.614-25.428l-2.986-0.172-460.929 0.011v-204.753c0-13.129 9.883-23.949 22.614-25.428l2.986-0.172h115.329c14.138 0 25.6-11.462 25.6-25.6 0-13.129-9.883-23.949-22.614-25.428l-2.986-0.172h-115.329c-40.901 0-74.334 31.972-76.67 72.287l-0.13 4.513v332.742c0 40.901 31.972 74.334 72.287 76.67l4.513 0.13 156.702 0.011zM758.134 487.26l3.283-3.099 18.102-18.102c28.921-28.921 29.954-75.17 3.099-105.329l-3.099-3.283-72.408-72.408c-28.921-28.921-75.17-29.954-105.556-2.868l-3.309 3.125-8.044 8.274c-9.855 10.138-9.626 26.345 0.512 36.2 9.414 9.151 24.061 9.607 33.996 1.509l2.204-2.021 7.789-8.017c9.283-9.283 23.923-9.946 33.971-1.989l2.233 1.989 72.408 72.408c9.283 9.283 9.946 23.923 1.989 33.971l-1.989 2.233-18.102 18.102c-9.283 9.283-23.923 9.946-33.971 1.989l-2.233-1.989-9.477-9.477c-9.997-9.997-26.206-9.997-36.204 0-9.283 9.283-9.946 23.923-1.989 33.971l1.989 2.233 9.477 9.477c28.921 28.921 75.17 29.954 105.329 3.099zM421.735 678.389h-140.135c-13.129 0-23.949-9.883-25.428-22.614l-0.172-2.986v-76.789h435.328l0.001 13.996c0 8.259-2.493 14.011-8.052 19.037-4.996 4.517-10.463 6.681-18.826 6.662l-3.769-0.141h-197.546l-15.887 24.831-10.825 16.581-6.087 9.1-8.602 12.324z" />
<glyph unicode="&#xe951;" glyph-name="folder-selected" d="M779.888 397.863c9.481-10.202 10.090-26.127 1.913-37.065l-2.227-2.624-150.623-156.724-89.729 95.427c-10.332 10.988-10.289 28.758 0.095 39.69 9.586 10.091 24.633 10.829 35.018 2.241l2.493-2.341 52.515-55.853 113.036 117.583c10.445 10.868 27.238 10.719 37.51-0.333zM438.302 729.6l2.366-0.11 2.199-0.307c0.357-0.073 0.71-0.157 1.062-0.255l2.095-0.771c1.747-0.806 3.522-2.053 5.527-3.975l2.53-2.646c0.444-0.5 0.901-1.031 1.372-1.594l3.006-3.788 3.421-4.662 6.078-8.83 16.524-25.39 6.733-10.505 167.527-0.087c20.552 1.563 39.225-3.907 54.725-16.159l4.148-3.509c15.051-13.608 23.444-31.21 24.739-51.436l0.177-5.58v-116.406c0-14.138-11.462-25.6-25.6-25.6-13.129 0-23.949 9.883-25.428 22.614l-0.172 2.986-0.001 51.211h-435.328v-204.753c0-13.129 9.883-23.949 22.614-25.428l2.986-0.172h192.129c14.138 0 25.6-11.462 25.6-25.6 0-13.129-9.883-23.949-22.614-25.428l-2.986-0.172h-192.129c-40.901 0-74.334 31.972-76.67 72.287l-0.13 4.513v332.742c0 40.901 31.972 74.334 72.287 76.67l4.513 0.13 156.702 0.011zM421.735 678.389h-140.135c-13.129 0-23.949-9.883-25.428-22.614l-0.172-2.986v-76.789h435.328l0.001 13.996c0 8.259-2.493 14.011-8.052 19.037-4.996 4.517-10.463 6.681-18.826 6.662l-3.769-0.141h-197.546l-15.887 24.831-10.825 16.581-6.087 9.1-8.602 12.324z" />
<glyph unicode="&#xe952;" glyph-name="foret" d="M409.6 832c45.152 0 85.754-77.502 113.857-162.795l4.97-15.578c1.61-5.211 3.172-10.435 4.684-15.657l4.388-15.642 4.080-15.535 3.762-15.334c0.6-2.534 1.186-5.055 1.759-7.563l3.266-14.858 0.692-3.341c11.93 6.555 24.605 10.302 37.742 10.302 70.692 0 128-108.508 128-179.2 0-61.915-43.959-113.562-102.37-125.433l-0.030-79.367h179.2c14.138 0 25.6-11.462 25.6-25.6 0-13.129-9.883-23.949-22.614-25.428l-2.986-0.172h-563.2c-14.138 0-25.6 11.462-25.6 25.6 0 13.129 9.883 23.949 22.614 25.428l2.986 0.172h153.6l0.005 130.123c-72.648 12.186-128.005 75.367-128.005 151.477 0 5.473 0.286 11.732 0.845 18.652l1.040 10.861c0.413 3.775 0.893 7.7 1.437 11.76l1.824 12.566 2.2 13.278 2.566 13.898 2.921 14.425 3.266 14.858 3.599 15.199 3.923 15.446c0.68 2.59 1.373 5.186 2.079 7.787l4.388 15.642c1.513 5.222 3.075 10.446 4.684 15.657l4.97 15.578c28.104 85.293 68.705 162.795 113.857 162.795zM476.506 335.317l-2.152-1.041c-12.253-5.704-25.383-9.84-39.133-12.149l-0.021-130.127h128l-0.005 79.361c-37.4 7.593-68.878 31.493-86.69 63.956zM588.8 524.8c-8.561 0-18.438-5.81-28.198-15.405l-0.724 5.476c0.544-4.059 1.024-7.984 1.437-11.76l1.040-10.861c0.279-3.46 0.49-6.755 0.632-9.868l0.213-8.783c0-42.171-16.995-80.373-44.509-108.13 11.963-26.801 38.856-45.47 70.109-45.47 42.415 0 76.8 34.385 76.8 76.8 0 55.661-46.592 128-76.8 128zM409.6 780.8c-6.562 0-15.596-11.354-25.6-29.997l-4.681-9.108c-0.79-1.599-1.584-3.238-2.382-4.914l-4.826-10.494-4.882-11.307-4.905-12.032c-0.818-2.061-1.635-4.148-2.451-6.26l-4.878-12.952-4.819-13.454c-0.796-2.279-1.589-4.576-2.377-6.888l-4.669-14.042-4.528-14.322-4.354-14.514-4.148-14.617c-0.672-2.44-1.335-4.88-1.986-7.319l-3.776-14.605-1.782-7.263-3.331-14.393-2.993-14.141c-0.469-2.331-0.922-4.648-1.36-6.948l-2.425-13.596c-3.331-20.061-5.246-38.521-5.246-54.033 0-56.554 45.846-102.4 102.4-102.4s102.4 45.846 102.4 102.4c0 15.512-1.915 33.972-5.246 54.033l-2.425 13.596c-0.437 2.301-0.891 4.617-1.36 6.948l-2.993 14.141-3.331 14.393-3.636 14.557c-0.63 2.435-1.271 4.873-1.922 7.312l-4.032 14.635-4.255 14.577-4.445 14.429-4.603 14.193c-0.778 2.341-1.562 4.668-2.35 6.98l-4.777 13.672-4.853 13.214c-0.813 2.159-1.628 4.296-2.444 6.408l-4.904 12.361c-0.818 2.006-1.635 3.983-2.452 5.931l-4.882 11.307-4.826 10.494c-0.798 1.676-1.592 3.315-2.382 4.914l-4.681 9.108c-10.004 18.644-19.038 29.997-25.6 29.997z" />
<glyph unicode="&#xe953;" glyph-name="formation" d="M477.652 689.848c21.622 10.811 47.071 10.811 68.692 0l261.407-130.703c7.429-3.715 13.455-9.741 17.172-17.172 9.485-18.97 1.795-42.035-17.172-51.52l-66.959-33.503c0.704-1.892 1.193-3.891 1.434-5.965l0.174-2.985v-102.4c0-8.62-4.329-16.581-11.382-21.289l-2.77-1.608-62.656-31.327v-67.738l22.904-45.791c8.061-16.125-2.621-34.949-19.95-36.884l-2.947-0.164h-51.2c-19.031 0-31.409 20.027-22.899 37.048l22.892 45.842 0.028 46.318c-79.299-25.654-165.934-20.744-242.422 14.73l-8.832 4.255-67.415 33.71c-7.711 3.853-12.895 11.284-13.952 19.699l-0.2 3.197v102.4c0 3.159 0.571 6.182 1.618 8.975l-66.97 33.477c-7.431 3.717-13.457 9.743-17.173 17.175-9.484 18.967-1.796 42.033 17.173 51.517l261.405 130.703zM332.792 432.177l0.008-70.756 53.263-26.632c71.56-35.779 154.555-39.263 228.339-10.452l-0.010 69.44-68.047-34.025c-19.958-9.979-43.177-10.747-63.636-2.304l-5.056 2.304-144.86 72.425zM691.192 432.177l-25.6-12.8v-70.733l25.608 12.803-0.008 70.73zM523.448 644.052c-7.206 3.604-15.69 3.604-22.897 0l-238.51-119.252 238.51-119.255c6.177-3.087 13.292-3.53 19.738-1.324l3.159 1.324 59.482 29.755-86.922 69.509c-10.191 8.154-12.5 22.508-5.85 33.352l1.851 2.632c8.154 10.191 22.508 12.5 33.349 5.847l2.634-1.848 105.344-84.275 128.596 64.284-238.484 119.252z" />
<glyph unicode="&#xe954;" glyph-name="france" d="M520.45 748.606c-12.161-10.973-21.474-20.286-28.076-28.169-6.798-8.117-10.703-16.853-13.22-27.229l-1.447-6.818-1.52-8.121-0.383-1.62c-0.056-0.173-0.111-0.305-0.168-0.41l-0.404-0.401-10.346-5.039-6.777-3.032-4.181-1.585-1.686-0.459-1.043-0.125c-1.109 0.030-2.524-0.009-4.134-0.197l-7.974-1.461c-2.138-0.526-3.754-1.304-6.366-3.481l-3.001-2.686-20.124-19.875-7.498 7.401c-27.064 27.064-60.34 27.064-87.404 0-6.857-6.857-9.251-16.998-6.184-26.197l1.306-4.028c1.644-5.217 2.904-9.812 3.857-13.784l4.972-2.395c-32.916 16.458-57.299 17.487-88.352 9.111l-15.685-4.555-3.95-1.046-2.755-0.567-2.115-0.22-0.992-0.021c-22.672 0-38.4-15.728-38.4-38.4 0-13.516 5.328-29.499 15.503-49.849 3.036-6.073 8.361-10.691 14.802-12.838 45.595-15.198 83.715-45.694 114.795-92.314 28.812-43.218 28.812-102.891-2.469-181.092-5.332-13.329 1.338-28.437 14.78-33.478l28.743-10.624 26.881-9.599 25.063-8.564 15.72-5.129 14.944-4.661 14.181-4.191 13.431-3.717 12.695-3.241c2.055-0.5 4.080-0.981 6.075-1.441l11.614-2.52 10.91-2.036c38.726-6.576 63.51-3.332 77.234 10.391l4.455 4.633c14.341 15.53 23.567 31.913 27.062 49.047l0.454 2.693 3.294 2.498c10.076 7.364 17.811 10.588 22.656 10.442 6.295-0.191 14.672-2.032 25.975-5.652l10.44-3.541 22.899-8.213 8.888-3.045c1.36-0.451 2.664-0.875 3.916-1.272l6.933-2.068c8.529-2.348 14.422-3.093 20.374-2.67l4.516 0.53c1.537 0.245 3.12 0.557 4.79 0.928 40.458 8.991 71.857 29.924 92.757 62.31 8.266 12.81 3.574 29.96-10.061 36.778-21.061 10.531-26.201 31.091-12.762 71.407 5.528 16.583-1.149 30.544-13.577 41.427-4.573 4.005-9.201 7.186-16.153 11.272l-15.164 8.568 2.275 3.41 4.377 6.249 8.289 11.204 6.192 8.207c35.524 47.365 50.681 84.4 50.681 148.159 0 14.138-11.468 25.6-25.606 25.6-61.605 0-151.231 40.739-266.72 123.231-9.781 6.986-23.105 6.227-32.030-1.825zM539.981 696.627l4.905-3.41c98.494-67.818 180.113-106.42 246.042-115.253l1.674-0.197-0.535-5.66c-3.919-33.673-15.669-56.969-38.858-87.888l-6.145-8.146c-13.642-18.076-20.741-28.586-27.561-42.225-9.213-18.427-1.685-32.626 12.777-43.978l4.447-3.27 4.216-2.784 3.422-2.049 18.199-10.324 3.644-2.241-0.597-2.13c-11.433-42.086-6.795-76.81 14.825-100.835l1.644-1.764-2.765-2.408c-11.405-9.239-25.45-15.693-42.469-19.475-0.242-0.054-0.603-0.059-1.098-0.009l-1.909 0.326-2.823 0.702-8.805 2.7-13.707 4.709-21.805 7.757c-18.338 6.232-32.419 9.603-45.924 10.013-22.114 0.671-44.65-10.597-68.908-31.987-4.724-4.166-7.718-9.899-8.478-16.079l-0.191-3.122c0-9.527-5.47-20.466-18.102-33.098 0.69 0.69 0.732 0.99 0.115 1.108l-2.117 0.054-3.896-0.064c-9.579 0-23.316 1.895-40.847 5.79l-6.691 1.54c-4.566 1.086-9.344 2.289-14.333 3.61l-15.597 4.316c-2.705 0.778-5.462 1.586-8.272 2.423l-17.487 5.375c-3.019 0.955-6.091 1.939-9.215 2.952l-19.37 6.433-20.621 7.139c-3.541 1.248-7.134 2.526-10.778 3.834l-10.346 3.743 0.908 2.607c26.608 80.391 23.057 147.975-12.452 201.239l-5.653 8.232c-32.46 45.881-72.149 78.72-118.799 98.009l-6.212 2.464-1.642 3.803-1.174 3.007 3.106 0.738 10.479 2.972 4.499 1.343c20.995 6.298 33.281 6.783 52.177-1.744l9.034-4.317c50.587-23.19 73.007 6.181 64.030 57.578l-0.553 2.823 1.491-1.402 8.46-8.392 6.187-5.913c12.256-11.33 17.745-13.401 30.071-13.401 11.378 0 16.93 1.765 27.356 10.947l5.669 5.236 16.664 16.483 2.684 0.503c6.788 1.44 14.786 4.345 25.731 9.428l10.144 4.907c17.943 8.972 24.589 20.404 28.784 39.907l2.279 11.331c0.806 3.325 1.591 5.081 2.714 6.421l2.248 2.592 6.107 6.473z" />
</font>
</defs>
</svg>
