<?xml version="1.0" encoding="UTF-8"?>
<svg width="30px" height="31px" viewBox="0 0 30 31" version="1.1" xmlns="http://www.w3.org/2000/svg" xmlns:xlink="http://www.w3.org/1999/xlink">
    <title>D69AEFBD-D63E-4180-9AC4-1B8B4F1911F3</title>
    <g id="TACCT-Page-publique" stroke="none" stroke-width="1" fill="none" fill-rule="evenodd">
        <g id="TACCT-Homepage" transform="translate(-212.000000, -589.000000)">
            <g id="Group-10" transform="translate(226.500000, 604.500000) scale(-1, 1) rotate(90.000000) translate(-226.500000, -604.500000) translate(212.000000, 590.000000)">
                <path d="M12.4088751,0.5 C11.6375091,0.5 10.8155588,0.662898417 9.90029218,1.00330947 C5.66070124,2.57918093 3,6.47733299 3,10.6494179 C3,11.8023599 3.20325055,12.9761542 3.63203068,14.1262445 C5.28487947,18.5515881 8.59404675,22.4896627 12.9161797,22.5 C13.7273557,22.5 14.5708546,22.3592015 15.4386413,22.0565743 C19.6957633,20.5525278 25.9603725,16.0400318 26,12.0249637 L26,12.0103492 C25.9979912,10.940104 25.5211833,9.91138539 24.4505113,9.04039649 C18.3878744,4.10621855 16.0922206,0.526199321 12.4088751,0.5 Z" id="Fill-1" fill="#27B1A6" transform="translate(14.500000, 11.500000) scale(-1, 1) translate(-14.500000, -11.500000) "></path>
                <path d="M13.8674954,28.5041303 C8.00441545,30.6277405 3.31837636,25.5966609 1.18446578,19.7623698 C-0.949623224,13.9279012 2.07317887,7.47682042 7.93661562,5.35338774 C13.7996955,3.22977752 26.0868073,11.1297547 28.2210747,16.9640458 C30.3549853,22.7983369 19.7303968,26.3806976 13.8674954,28.5041303 Z" id="Stroke-1" stroke="#1D1D1B" stroke-width="1.08" stroke-linecap="round" stroke-linejoin="round" stroke-dasharray="1.16,3.32" transform="translate(14.500000, 17.000000) scale(-1, 1) translate(-14.500000, -17.000000) "></path>
            </g>
        </g>
    </g>
</svg>