<?xml version="1.0" encoding="UTF-8"?>
<svg width="157px" height="159px" viewBox="0 0 157 159" version="1.1" xmlns="http://www.w3.org/2000/svg" xmlns:xlink="http://www.w3.org/1999/xlink">
    <title>929CEB67-5B28-435E-B678-8EA24312B00E</title>
    <g id="TACCT-Page-publique" stroke="none" stroke-width="1" fill="none" fill-rule="evenodd">
        <g id="TACCT-Homepage" transform="translate(-1125.000000, -482.000000)">
            <g id="Group-4" transform="translate(1126.000000, 482.000000)">
                <path d="M77.5442722,0 C73.3185283,0 68.81567,0.910750242 63.8016007,2.81395747 C40.5760155,11.6245115 26,33.4187254 26,56.744473 C26,63.1904665 27.1134595,69.7530438 29.4624289,76.1830942 C38.5171658,100.924788 56.6456474,122.942205 80.3234192,123 C84.7672532,123 89.3881602,122.212809 94.1421221,120.520847 L93.8059834,119.583194 L93.4688443,118.644544 C88.9149649,120.263765 84.5291549,121.006115 80.3234192,121.007112 C58.0492267,121.064906 40.2468797,99.8954619 31.3442055,75.5015268 C29.0752692,69.290694 28.0008257,62.9622809 28.0008257,56.744473 C28.0008257,34.2487629 42.0646298,13.1909208 64.5128942,4.67531406 C69.3578937,2.83886856 73.608648,1.99189152 77.5442722,1.99189152 C96.0769206,1.84441787 108.883206,21.3926479 142.226967,49.2771248 C147.745244,53.8946444 149.986169,58.9974319 149.999174,64.4350245 C150.216264,84.9348581 116.318274,110.637124 93.4698447,118.644544 L93.8059834,119.583194 L94.1421221,120.520847 C117.463747,112.11186 151.78291,86.8829053 152,64.4350245 L152,64.3533161 C151.988995,58.3696725 149.376917,52.6182001 143.511497,47.7485804 C110.29879,20.1620401 97.7225998,0.146478021 77.5442722,0 Z" id="Fill-1" fill="#27B1A6" transform="translate(89.000000, 61.500000) scale(-1, 1) translate(-89.000000, -61.500000) "></path>
                <path d="M75.1450433,155.198466 C42.1858852,167.196309 15.8434328,138.772022 3.84770739,105.809801 C-8.14902097,72.8465755 8.84358599,36.3996525 41.8047501,24.4028121 C74.7639082,12.4049685 141.377295,47.5629333 153.375026,80.5251552 C165.370751,113.487377 108.103198,143.201625 75.1450433,155.198466 Z" id="Stroke-1" stroke="#1D1D1B" stroke-width="1.08" stroke-linecap="round" stroke-linejoin="round" stroke-dasharray="2.161,4.321" transform="translate(77.500000, 90.000000) scale(-1, 1) translate(-77.500000, -90.000000) "></path>
            </g>
        </g>
    </g>
</svg>