<?xml version="1.0" encoding="utf-8"?>
<!DOCTYPE svg PUBLIC "-//W3C//DTD SVG 1.1//EN" "http://www.w3.org/Graphics/SVG/1.1/DTD/svg11.dtd">
<svg version="1.1" id="Calque_1" xmlns="http://www.w3.org/2000/svg" xmlns:xlink="http://www.w3.org/1999/xlink" x="0px"
     y="0px"
     width="212px" height="53px" viewBox="0 0 212 53" enable-background="new 0 0 212 53" xml:space="preserve">
<title>logo tacct stratégies linéaire</title>
  <g id="logo_TACCT">
	<g id="Group-60" transform="translate(0.539062, 0.681000)">
		<path id="Fill-13" fill="#2AACA3" d="M27.701,18.436c-0.124-0.048-0.244-0.106-0.372-0.146L0.457,38.413
			c0.028,0.117,0.066,0.231,0.096,0.352L27.701,18.436z"/>
    <path id="Fill-15" fill="#2AACA3" d="M25.714,18.021c-0.008,0-0.014-0.002-0.022-0.002c-0.198,0-0.412,0.038-0.618,0.058
			L0.148,36.741c0.018,0.129,0.046,0.25,0.066,0.377L25.714,18.021z"/>
    <path id="Fill-17" fill="#2AACA3" d="M29.148,19.253c-0.094-0.074-0.194-0.138-0.292-0.204L0.906,39.977
			c0.038,0.109,0.086,0.217,0.126,0.328L29.148,19.253z"/>
    <path id="Fill-19" fill="#2AACA3" d="M30.274,20.311c-0.076-0.088-0.158-0.164-0.236-0.246L1.484,41.446
			c0.046,0.105,0.104,0.205,0.152,0.309L30.274,20.311z"/>
    <path id="Fill-21" fill="#2AACA3" d="M31.182,21.533c-0.062-0.098-0.13-0.184-0.194-0.278L2.18,42.825
			c0.056,0.1,0.122,0.194,0.178,0.292L31.182,21.533z"/>
    <path id="Fill-23" fill="#2AACA3" d="M13.296,21.617c-0.316,0.092-0.626,0.184-0.93,0.274L0.428,30.827
			c-0.038,0.17-0.08,0.334-0.114,0.51L13.296,21.617z"/>
    <path id="Fill-25" fill="#2AACA3" d="M32.971,25.471L4.945,46.46c0.08,0.082,0.172,0.154,0.256,0.232l27.876-20.876
			C33.043,25.701,33.009,25.586,32.971,25.471"/>
    <path id="Fill-27" fill="#2AACA3" d="M20.939,19.271L0.007,34.946c0.004,0.135,0.018,0.27,0.026,0.405l21.95-16.438
			C21.635,19.033,21.279,19.157,20.939,19.271"/>
    <path id="Fill-29" fill="#2AACA3" d="M1.364,28.226c-0.118,0.22-0.238,0.438-0.34,0.679l7.954-5.957
			C8.61,23.072,8.25,23.2,7.906,23.328L1.364,28.226z"/>
    <path id="Fill-31" fill="#2AACA3" d="M17.505,20.365c-0.322,0.098-0.638,0.194-0.95,0.288L0.083,32.989
			c-0.014,0.152-0.036,0.305-0.044,0.456L17.505,20.365z"/>
    <path id="Fill-33" fill="#2AACA3" d="M31.931,22.873c-0.05-0.104-0.106-0.202-0.16-0.304L2.989,44.121
			c0.064,0.093,0.138,0.179,0.204,0.271L31.931,22.873z"/>
    <path id="Fill-35" fill="#2AACA3" d="M34.474,36.182c0-0.138-0.006-0.281-0.006-0.42L14.096,51.016
			c0.156,0.026,0.31,0.051,0.466,0.074L34.474,36.182z"/>
    <path id="Fill-37" fill="#2AACA3" d="M34.191,40.194c0.022-0.158,0.046-0.311,0.066-0.473L18.615,51.434
			c0.194,0.002,0.386-0.008,0.578-0.01L34.191,40.194z"/>
    <path id="Fill-39" fill="#2AACA3" d="M34.403,38.134c0.01-0.142,0.01-0.292,0.018-0.438L16.259,51.298
			c0.166,0.015,0.332,0.036,0.498,0.048L34.403,38.134z"/>
    <path id="Fill-41" fill="#2AACA3" d="M32.582,45.203c0.144-0.246,0.296-0.481,0.424-0.741l-8.404,6.291
			c0.314-0.08,0.62-0.172,0.924-0.266L32.582,45.203z"/>
    <path id="Fill-43" fill="#2AACA3" d="M32.555,24.305c-0.042-0.11-0.086-0.218-0.13-0.326L3.909,45.333
			c0.072,0.087,0.156,0.164,0.23,0.25L32.555,24.305z"/>
    <path id="Fill-45" fill="#2AACA3" d="M33.742,42.434c0.046-0.172,0.094-0.346,0.136-0.525l-12.564,9.408
			c0.216-0.021,0.432-0.035,0.644-0.061L33.742,42.434z"/>
    <path id="Fill-47" fill="#2AACA3" d="M33.861,29.035c-0.022-0.124-0.04-0.252-0.064-0.376L7.375,48.443
			c0.102,0.067,0.208,0.126,0.312,0.192L33.861,29.035z"/>
    <path id="Fill-49" fill="#2AACA3" d="M33.51,27.395c-0.028-0.12-0.054-0.242-0.084-0.359L6.096,47.497
			c0.092,0.074,0.19,0.143,0.282,0.215L33.51,27.395z"/>
    <path id="Fill-51" fill="#2AACA3" d="M34.134,30.73c-0.016-0.128-0.032-0.256-0.05-0.386L8.788,49.288
			c0.112,0.061,0.232,0.106,0.346,0.164L34.134,30.73z"/>
    <path id="Fill-53" fill="#2AACA3" d="M34.446,34.298c-0.004-0.134-0.018-0.271-0.026-0.403L12.118,50.594
			c0.14,0.038,0.286,0.068,0.428,0.102L34.446,34.298z"/>
    <path id="Fill-55" fill="#2AACA3" d="M34.332,32.484c-0.012-0.13-0.028-0.262-0.042-0.392l-23.932,17.92
			c0.126,0.05,0.26,0.088,0.386,0.134L34.332,32.484z"/>
    <g id="Fill-57-Clipped" transform="translate(12.000000, 0.000000)">
			<g id="path-5">
			</g>
      <defs>
				<filter id="Adobe_OpacityMaskFilter" filterUnits="userSpaceOnUse" x="0.138" y="1.319" width="43.218"
                height="47.946">
					<feColorMatrix type="matrix" values="1 0 0 0 0  0 1 0 0 0  0 0 1 0 0  0 0 0 1 0"/>
				</filter>
			</defs>
      <mask maskUnits="userSpaceOnUse" x="0.138" y="1.319" width="43.218" height="47.946" id="mask-2">
				<g filter="url(#Adobe_OpacityMaskFilter)">
					<polygon id="path-1" fill="#FFFFFF" points="0.138,1.32 43.356,1.32 43.356,49.265 0.138,49.265 					"/>
				</g>
			</mask>
      <path id="Fill-57" mask="url(#mask-2)" fill="#1D1D1B" d="M30.541,1.733c-0.008,0-0.016,0-0.024-0.002
				c-0.22-0.032-0.444-0.052-0.672-0.066c-0.096-0.006-0.168-0.088-0.162-0.182c0.006-0.096,0.082-0.164,0.182-0.164
				c0.24,0.014,0.476,0.038,0.7,0.07c0.096,0.014,0.16,0.1,0.146,0.196C30.7,1.671,30.625,1.733,30.541,1.733L30.541,1.733z
				 M27.787,1.745c-0.088,0-0.162-0.064-0.172-0.152c-0.012-0.096,0.056-0.182,0.15-0.194c0.234-0.026,0.466-0.048,0.696-0.066
				h0.014c0.09,0,0.166,0.07,0.172,0.16c0.008,0.096-0.064,0.18-0.16,0.186c-0.226,0.016-0.452,0.038-0.68,0.064
				C27.798,1.745,27.792,1.745,27.787,1.745L27.787,1.745z M25.749,2.125c-0.08,0-0.15-0.054-0.168-0.132
				c-0.024-0.092,0.032-0.186,0.126-0.21c0.228-0.056,0.456-0.108,0.68-0.156c0.09-0.014,0.186,0.042,0.206,0.136
				c0.018,0.094-0.042,0.184-0.136,0.204c-0.22,0.046-0.442,0.096-0.666,0.152C25.776,2.123,25.76,2.125,25.749,2.125L25.749,2.125z
				 M32.532,2.273c-0.022,0-0.044-0.004-0.066-0.014c-0.212-0.088-0.426-0.166-0.634-0.232c-0.092-0.028-0.142-0.126-0.114-0.216
				c0.03-0.092,0.126-0.144,0.216-0.114c0.22,0.07,0.442,0.15,0.664,0.242c0.088,0.038,0.13,0.138,0.094,0.226
				C32.665,2.233,32.601,2.273,32.532,2.273L32.532,2.273z M23.76,2.725c-0.072,0-0.138-0.044-0.164-0.116
				c-0.032-0.088,0.016-0.188,0.106-0.22c0.22-0.078,0.442-0.154,0.66-0.224c0.09-0.024,0.19,0.022,0.218,0.112
				c0.03,0.092-0.022,0.19-0.112,0.218c-0.216,0.07-0.432,0.144-0.65,0.22C23.798,2.723,23.78,2.725,23.76,2.725L23.76,2.725z
				 M34.333,3.279c-0.034,0-0.07-0.01-0.1-0.032c-0.184-0.134-0.372-0.258-0.564-0.376c-0.082-0.05-0.106-0.156-0.056-0.238
				c0.05-0.082,0.156-0.108,0.238-0.058c0.198,0.122,0.394,0.254,0.584,0.39c0.078,0.056,0.096,0.164,0.04,0.242
				C34.44,3.255,34.386,3.279,34.333,3.279L34.333,3.279z M21.833,3.495c-0.068,0-0.13-0.038-0.16-0.102
				c-0.038-0.086,0.002-0.19,0.088-0.228c0.214-0.096,0.428-0.186,0.642-0.276c0.086-0.034,0.188,0.006,0.226,0.094
				c0.036,0.088-0.006,0.19-0.094,0.226c-0.21,0.088-0.42,0.178-0.632,0.272C21.878,3.491,21.854,3.495,21.833,3.495L21.833,3.495z
				 M19.962,4.403c-0.062,0-0.122-0.034-0.152-0.092c-0.044-0.086-0.012-0.19,0.072-0.234c0.208-0.108,0.414-0.214,0.62-0.318
				c0.082-0.04,0.19-0.006,0.234,0.078c0.042,0.086,0.008,0.19-0.078,0.232c-0.206,0.102-0.41,0.208-0.616,0.313
				C20.019,4.397,19.99,4.403,19.962,4.403L19.962,4.403z M35.882,4.649c-0.046,0-0.092-0.018-0.126-0.054
				c-0.156-0.166-0.316-0.328-0.48-0.482c-0.07-0.066-0.072-0.176-0.008-0.246c0.066-0.07,0.176-0.072,0.246-0.006
				c0.168,0.16,0.334,0.326,0.494,0.498c0.066,0.07,0.064,0.178-0.008,0.244C35.968,4.635,35.924,4.649,35.882,4.649L35.882,4.649z
				 M18.152,5.419c-0.06,0-0.116-0.03-0.15-0.084c-0.048-0.082-0.022-0.188,0.06-0.236c0.2-0.12,0.4-0.238,0.6-0.352
				c0.08-0.052,0.188-0.02,0.236,0.064c0.048,0.082,0.018,0.188-0.064,0.234c-0.198,0.114-0.396,0.232-0.594,0.35
				C18.212,5.411,18.183,5.419,18.152,5.419L18.152,5.419z M37.187,6.261c-0.056,0-0.108-0.026-0.142-0.074
				c-0.132-0.188-0.266-0.372-0.404-0.552c-0.058-0.076-0.044-0.184,0.032-0.242c0.074-0.058,0.184-0.044,0.244,0.032
				c0.138,0.184,0.278,0.372,0.412,0.564c0.054,0.078,0.036,0.186-0.044,0.242C37.254,6.251,37.22,6.261,37.187,6.261L37.187,6.261z
				 M16.398,6.533c-0.056,0-0.11-0.026-0.144-0.076c-0.054-0.08-0.032-0.188,0.046-0.24c0.194-0.13,0.388-0.258,0.582-0.384
				c0.078-0.054,0.186-0.03,0.24,0.052c0.05,0.08,0.028,0.188-0.052,0.24c-0.194,0.124-0.384,0.25-0.576,0.378
				C16.464,6.523,16.43,6.533,16.398,6.533L16.398,6.533z M14.7,7.731c-0.052,0-0.104-0.024-0.138-0.07
				c-0.058-0.076-0.042-0.184,0.034-0.242c0.188-0.138,0.374-0.274,0.564-0.41c0.078-0.052,0.186-0.038,0.24,0.04
				c0.056,0.078,0.038,0.187-0.04,0.242c-0.186,0.134-0.372,0.27-0.556,0.406C14.772,7.721,14.736,7.731,14.7,7.731L14.7,7.731z
				 M38.278,8.027c-0.062,0-0.12-0.032-0.152-0.088c-0.112-0.204-0.226-0.404-0.34-0.598c-0.048-0.082-0.022-0.19,0.06-0.238
				c0.08-0.046,0.19-0.022,0.238,0.062c0.118,0.198,0.232,0.4,0.344,0.608c0.046,0.084,0.016,0.188-0.068,0.234
				C38.334,8.021,38.307,8.027,38.278,8.027L38.278,8.027z M13.059,9.003c-0.052,0-0.102-0.02-0.136-0.064
				c-0.058-0.074-0.048-0.182,0.028-0.244c0.178-0.144,0.36-0.29,0.542-0.432c0.072-0.06,0.182-0.046,0.242,0.03
				c0.06,0.074,0.046,0.184-0.028,0.242c-0.18,0.142-0.36,0.284-0.54,0.43C13.134,8.991,13.096,9.003,13.059,9.003L13.059,9.003z
				 M39.192,9.891c-0.066,0-0.128-0.038-0.158-0.102c-0.094-0.212-0.19-0.422-0.286-0.626c-0.042-0.088-0.004-0.19,0.082-0.23
				c0.086-0.044,0.188-0.004,0.23,0.082c0.1,0.208,0.194,0.42,0.29,0.634c0.04,0.086,0,0.188-0.088,0.228
				C39.24,9.887,39.216,9.891,39.192,9.891L39.192,9.891z M11.472,10.349c-0.048,0-0.096-0.02-0.13-0.06
				c-0.064-0.07-0.056-0.18,0.016-0.244c0.174-0.152,0.348-0.306,0.524-0.458c0.074-0.064,0.18-0.054,0.244,0.018
				c0.062,0.072,0.054,0.182-0.018,0.244c-0.174,0.152-0.348,0.302-0.522,0.456C11.554,10.335,11.512,10.349,11.472,10.349
				L11.472,10.349z M9.946,11.759c-0.046,0-0.092-0.018-0.124-0.052c-0.068-0.068-0.066-0.18,0.004-0.244
				c0.166-0.162,0.334-0.322,0.504-0.48c0.068-0.066,0.178-0.062,0.244,0.008c0.064,0.07,0.06,0.178-0.008,0.244
				c-0.168,0.158-0.336,0.316-0.5,0.476C10.032,11.743,9.988,11.759,9.946,11.759L9.946,11.759z M39.964,11.819
				c-0.07,0-0.138-0.044-0.164-0.114c-0.078-0.216-0.158-0.43-0.24-0.644c-0.036-0.088,0.01-0.19,0.098-0.224
				c0.09-0.032,0.188,0.01,0.224,0.1c0.084,0.214,0.164,0.43,0.244,0.652c0.034,0.09-0.014,0.188-0.104,0.222
				C40.002,11.817,39.984,11.819,39.964,11.819L39.964,11.819z M8.486,13.231c-0.044,0-0.086-0.016-0.12-0.046
				c-0.07-0.068-0.072-0.176-0.006-0.246c0.158-0.168,0.318-0.334,0.482-0.5c0.068-0.07,0.176-0.07,0.244,0
				c0.068,0.066,0.07,0.176,0.002,0.244c-0.162,0.164-0.32,0.328-0.476,0.494C8.579,13.213,8.532,13.231,8.486,13.231L8.486,13.231z
				 M40.618,13.791c-0.076,0-0.144-0.048-0.166-0.122c-0.068-0.222-0.136-0.442-0.206-0.66c-0.03-0.09,0.022-0.188,0.112-0.218
				c0.088-0.024,0.186,0.022,0.218,0.112c0.07,0.22,0.138,0.442,0.206,0.664c0.028,0.092-0.024,0.188-0.114,0.216
				C40.65,13.789,40.634,13.791,40.618,13.791L40.618,13.791z M7.09,14.771c-0.04,0-0.08-0.014-0.114-0.042
				c-0.072-0.064-0.08-0.172-0.018-0.246c0.152-0.174,0.304-0.348,0.46-0.522c0.064-0.072,0.17-0.078,0.244-0.014
				c0.072,0.064,0.078,0.174,0.014,0.244c-0.154,0.172-0.306,0.346-0.456,0.52C7.187,14.749,7.138,14.771,7.09,14.771L7.09,14.771z
				 M41.172,15.795c-0.076,0-0.148-0.052-0.168-0.132c-0.056-0.222-0.114-0.446-0.172-0.668c-0.026-0.092,0.03-0.186,0.122-0.212
				c0.1-0.018,0.188,0.032,0.21,0.122c0.06,0.224,0.12,0.45,0.176,0.674c0.024,0.094-0.032,0.188-0.126,0.21
				C41.203,15.793,41.187,15.795,41.172,15.795L41.172,15.795z M5.771,16.373c-0.038,0-0.076-0.012-0.106-0.036
				c-0.076-0.06-0.09-0.168-0.03-0.242c0.142-0.182,0.286-0.364,0.432-0.544c0.058-0.074,0.172-0.084,0.242-0.026
				c0.076,0.06,0.086,0.168,0.026,0.244c-0.144,0.178-0.288,0.358-0.428,0.538C5.873,16.351,5.82,16.373,5.771,16.373L5.771,16.373z
				 M41.641,17.817c-0.08,0-0.152-0.056-0.168-0.138c-0.048-0.224-0.098-0.448-0.148-0.672c-0.02-0.094,0.038-0.186,0.132-0.208
				c0.086-0.024,0.184,0.038,0.206,0.132c0.05,0.224,0.1,0.45,0.148,0.676c0.02,0.094-0.04,0.186-0.134,0.206
				C41.665,17.815,41.652,17.817,41.641,17.817L41.641,17.817z M4.534,18.045c-0.036,0-0.07-0.01-0.1-0.032
				c-0.078-0.054-0.098-0.162-0.042-0.24c0.132-0.19,0.266-0.378,0.404-0.568c0.056-0.078,0.162-0.096,0.242-0.038
				c0.076,0.058,0.094,0.164,0.038,0.242c-0.136,0.186-0.27,0.374-0.402,0.562C4.643,18.019,4.588,18.045,4.534,18.045L4.534,18.045
				z M3.398,19.783c-0.03,0-0.062-0.008-0.09-0.024c-0.082-0.05-0.108-0.156-0.058-0.238c0.12-0.198,0.242-0.394,0.368-0.592
				c0.052-0.08,0.158-0.104,0.238-0.052c0.082,0.052,0.104,0.158,0.054,0.238c-0.124,0.196-0.246,0.39-0.366,0.586
				C3.512,19.755,3.457,19.783,3.398,19.783L3.398,19.783z M42.039,19.857c-0.084,0-0.156-0.06-0.17-0.144
				c-0.04-0.228-0.082-0.454-0.124-0.68c-0.018-0.094,0.044-0.184,0.136-0.202c0.094-0.018,0.186,0.044,0.202,0.138
				c0.044,0.228,0.084,0.456,0.124,0.684c0.018,0.094-0.044,0.184-0.138,0.2C42.057,19.855,42.046,19.857,42.039,19.857
				L42.039,19.857z M2.382,21.595c-0.026,0-0.054-0.006-0.08-0.018c-0.084-0.044-0.118-0.148-0.074-0.234
				c0.104-0.204,0.214-0.41,0.326-0.614c0.046-0.086,0.152-0.118,0.236-0.07c0.084,0.046,0.114,0.152,0.068,0.236
				c-0.11,0.202-0.218,0.404-0.322,0.606C2.504,21.561,2.444,21.595,2.382,21.595L2.382,21.595z M42.366,21.911
				c-0.084,0-0.158-0.062-0.17-0.148c-0.034-0.228-0.068-0.456-0.104-0.684c-0.014-0.096,0.05-0.182,0.146-0.198
				c0.09-0.012,0.182,0.05,0.196,0.144c0.036,0.23,0.07,0.458,0.104,0.688c0.012,0.094-0.052,0.182-0.148,0.196
				C42.382,21.911,42.375,21.911,42.366,21.911L42.366,21.911z M1.514,23.481c-0.02,0-0.044-0.004-0.064-0.012
				c-0.088-0.036-0.132-0.138-0.096-0.226c0.088-0.214,0.178-0.428,0.272-0.642c0.04-0.088,0.144-0.124,0.23-0.088
				c0.086,0.038,0.126,0.14,0.088,0.228c-0.094,0.21-0.184,0.422-0.27,0.632C1.648,23.441,1.583,23.481,1.514,23.481L1.514,23.481z
				 M42.628,23.951c-0.084,0-0.152-0.048-0.164-0.134c-0.03-0.252-0.054-0.468-0.084-0.686c-0.01-0.094,0.056-0.18,0.152-0.192
				c0.09-0.018,0.18,0.054,0.192,0.15c0.028,0.216,0.054,0.434,0.08,0.648c0.012,0.096-0.054,0.202-0.148,0.212
				C42.646,23.951,42.636,23.951,42.628,23.951L42.628,23.951z M0.838,25.443c-0.016,0-0.032-0.002-0.048-0.004
				c-0.09-0.028-0.144-0.122-0.12-0.214c0.064-0.222,0.132-0.446,0.204-0.67c0.03-0.09,0.126-0.142,0.218-0.11
				c0.092,0.03,0.142,0.126,0.112,0.218c-0.072,0.22-0.138,0.438-0.2,0.654C0.984,25.395,0.915,25.443,0.838,25.443L0.838,25.443z
				 M42.851,26.037c-0.09,0-0.164-0.066-0.172-0.156l-0.066-0.69c-0.01-0.094,0.06-0.178,0.156-0.188
				c0.09-0.012,0.18,0.06,0.188,0.156l0.066,0.69c0.01,0.094-0.062,0.178-0.156,0.188C42.86,26.037,42.854,26.037,42.851,26.037
				L42.851,26.037z M0.415,27.473c-0.008,0-0.014,0-0.022-0.002c-0.096-0.012-0.162-0.1-0.15-0.193
				c0.032-0.23,0.068-0.461,0.112-0.695c0.018-0.094,0.11-0.151,0.202-0.137c0.094,0.018,0.154,0.107,0.138,0.203
				c-0.042,0.227-0.078,0.45-0.108,0.672C0.574,27.409,0.5,27.473,0.415,27.473L0.415,27.473z M43.01,28.109
				c-0.09,0-0.166-0.067-0.172-0.159l-0.048-0.69c-0.006-0.097,0.066-0.181,0.16-0.187h0.012c0.09,0,0.166,0.07,0.174,0.16
				l0.048,0.691c0.006,0.097-0.066,0.179-0.162,0.185H43.01z M0.318,29.542c-0.094,0-0.17-0.074-0.172-0.168
				c-0.006-0.185-0.008-0.369-0.008-0.557v-0.145c0.002-0.094,0.08-0.168,0.174-0.168h0.004c0.096,0.002,0.17,0.08,0.168,0.177
				v0.136c0,0.184,0.002,0.366,0.008,0.547c0.002,0.096-0.074,0.176-0.168,0.178H0.318z M43.121,30.179
				c-0.092,0-0.168-0.065-0.172-0.158c-0.01-0.239-0.02-0.464-0.032-0.692c-0.004-0.096,0.068-0.176,0.164-0.18
				c0.104,0.01,0.176,0.068,0.182,0.164c0.012,0.227,0.022,0.454,0.03,0.678c0.004,0.096-0.07,0.184-0.166,0.188
				C43.125,30.179,43.123,30.179,43.121,30.179L43.121,30.179z M0.479,31.609c-0.086,0-0.16-0.062-0.172-0.149
				c-0.03-0.229-0.056-0.461-0.076-0.694c-0.01-0.095,0.06-0.179,0.156-0.188c0.078-0.018,0.178,0.063,0.188,0.156
				c0.02,0.229,0.046,0.456,0.076,0.682c0.012,0.095-0.056,0.183-0.15,0.194C0.492,31.609,0.484,31.609,0.479,31.609L0.479,31.609z
				 M43.174,32.251c-0.092,0-0.17-0.062-0.172-0.157l-0.012-0.692c-0.002-0.094,0.074-0.174,0.17-0.176h0.004
				c0.092,0,0.17,0.076,0.172,0.17l0.012,0.67c0.002,0.094-0.074,0.184-0.17,0.186H43.174z M0.849,33.651
				c-0.078,0-0.148-0.054-0.168-0.132c-0.054-0.226-0.102-0.454-0.148-0.683c-0.02-0.094,0.042-0.186,0.134-0.203
				c0.098-0.018,0.186,0.041,0.206,0.136c0.044,0.224,0.092,0.448,0.144,0.67c0.024,0.093-0.034,0.187-0.128,0.208
				C0.875,33.649,0.862,33.651,0.849,33.651L0.849,33.651z M43.168,33.96H43.16c-0.094-0.004-0.168-0.084-0.164-0.18
				c0.008-0.225,0.014-0.453,0.014-0.683c0-0.097,0.076-0.175,0.172-0.175c0.096,0,0.174,0.078,0.174,0.175
				c0,0.235-0.006,0.468-0.016,0.698C43.336,33.887,43.26,33.96,43.168,33.96L43.168,33.96z M1.426,35.643
				c-0.07,0-0.138-0.044-0.162-0.115c-0.076-0.221-0.15-0.441-0.218-0.664c-0.028-0.091,0.022-0.187,0.114-0.215
				c0.092-0.033,0.188,0.023,0.216,0.114c0.068,0.218,0.14,0.435,0.214,0.649c0.032,0.092-0.016,0.19-0.106,0.221
				C1.464,35.641,1.446,35.643,1.426,35.643L1.426,35.643z M42.937,36.017c-0.01,0-0.022,0-0.032-0.002
				c-0.094-0.019-0.156-0.11-0.138-0.202c0.042-0.223,0.078-0.445,0.108-0.674c0.014-0.096,0.1-0.156,0.196-0.148
				c0.094,0.014,0.16,0.1,0.148,0.196c-0.032,0.231-0.068,0.462-0.112,0.69C43.09,35.96,43.019,36.017,42.937,36.017L42.937,36.017z
				 M2.207,37.561c-0.064,0-0.126-0.036-0.156-0.1c-0.098-0.211-0.194-0.422-0.284-0.637c-0.038-0.088,0.004-0.188,0.092-0.226
				c0.086-0.036,0.188,0.004,0.226,0.092c0.088,0.21,0.182,0.418,0.278,0.624c0.042,0.086,0.004,0.189-0.082,0.23
				C2.256,37.557,2.23,37.561,2.207,37.561L2.207,37.561z M42.404,38.021c-0.02,0-0.04-0.004-0.058-0.01
				c-0.092-0.032-0.138-0.132-0.106-0.222c0.076-0.215,0.146-0.431,0.21-0.648c0.028-0.092,0.12-0.146,0.214-0.118
				c0.092,0.028,0.146,0.124,0.118,0.214c-0.066,0.227-0.138,0.448-0.216,0.668C42.541,37.977,42.475,38.021,42.404,38.021
				L42.404,38.021z M3.178,39.391c-0.058,0-0.116-0.029-0.148-0.084c-0.12-0.2-0.236-0.4-0.348-0.604
				c-0.046-0.084-0.016-0.188,0.068-0.234c0.08-0.047,0.186-0.018,0.234,0.068c0.11,0.199,0.224,0.397,0.342,0.592
				c0.048,0.082,0.022,0.188-0.06,0.238C3.24,39.383,3.208,39.391,3.178,39.391L3.178,39.391z M41.564,39.911
				c-0.028,0-0.058-0.006-0.084-0.02c-0.084-0.046-0.114-0.152-0.068-0.236c0.108-0.197,0.212-0.4,0.31-0.605
				c0.04-0.086,0.146-0.125,0.23-0.082c0.088,0.042,0.124,0.145,0.082,0.23c-0.102,0.211-0.206,0.42-0.32,0.623
				C41.685,39.88,41.625,39.911,41.564,39.911L41.564,39.911z M4.333,41.114c-0.052,0-0.104-0.025-0.138-0.07
				c-0.14-0.187-0.276-0.375-0.408-0.564c-0.054-0.08-0.036-0.188,0.044-0.242c0.078-0.054,0.184-0.035,0.24,0.045
				c0.13,0.188,0.264,0.371,0.4,0.555c0.058,0.076,0.042,0.185-0.034,0.242C4.404,41.103,4.368,41.114,4.333,41.114L4.333,41.114z
				 M40.43,41.647c-0.038,0-0.074-0.012-0.106-0.038c-0.076-0.056-0.09-0.166-0.032-0.241c0.14-0.181,0.274-0.363,0.402-0.551
				c0.054-0.078,0.162-0.1,0.242-0.044c0.078,0.054,0.098,0.162,0.044,0.242c-0.134,0.19-0.272,0.38-0.414,0.563
				C40.532,41.624,40.482,41.647,40.43,41.647L40.43,41.647z M5.658,42.71c-0.048,0-0.094-0.019-0.128-0.057
				c-0.158-0.17-0.312-0.344-0.464-0.52c-0.062-0.072-0.052-0.182,0.02-0.244c0.072-0.063,0.182-0.055,0.244,0.018
				c0.148,0.174,0.3,0.344,0.454,0.512c0.066,0.07,0.06,0.181-0.01,0.244C5.742,42.696,5.7,42.71,5.658,42.71L5.658,42.71z
				 M39.048,43.191c-0.044,0-0.09-0.019-0.124-0.054c-0.066-0.068-0.064-0.178,0.004-0.244c0.164-0.16,0.324-0.322,0.48-0.488
				c0.066-0.07,0.174-0.072,0.244-0.006c0.07,0.064,0.074,0.174,0.008,0.244c-0.16,0.17-0.324,0.336-0.492,0.498
				C39.136,43.174,39.092,43.191,39.048,43.191L39.048,43.191z M7.136,44.163c-0.04,0-0.082-0.014-0.114-0.043
				c-0.174-0.154-0.346-0.313-0.514-0.471c-0.07-0.068-0.072-0.176-0.008-0.246c0.066-0.072,0.176-0.072,0.246-0.006
				c0.166,0.156,0.334,0.313,0.506,0.462c0.072,0.063,0.078,0.175,0.014,0.246C7.232,44.143,7.185,44.163,7.136,44.163L7.136,44.163
				z M37.466,44.532c-0.052,0-0.104-0.025-0.138-0.07c-0.056-0.076-0.04-0.184,0.036-0.242c0.182-0.139,0.362-0.278,0.54-0.42
				c0.072-0.063,0.182-0.051,0.244,0.025c0.058,0.074,0.048,0.182-0.026,0.242c-0.18,0.146-0.364,0.29-0.552,0.43
				C37.541,44.521,37.502,44.532,37.466,44.532L37.466,44.532z M8.758,45.46c-0.034,0-0.07-0.01-0.1-0.032
				c-0.19-0.136-0.376-0.274-0.56-0.418c-0.076-0.058-0.09-0.166-0.032-0.242s0.168-0.09,0.242-0.032
				c0.184,0.143,0.366,0.278,0.552,0.412c0.078,0.055,0.096,0.164,0.04,0.24C8.866,45.435,8.813,45.46,8.758,45.46L8.758,45.46z
				 M35.736,45.673c-0.06,0-0.116-0.029-0.15-0.086c-0.046-0.082-0.02-0.188,0.064-0.235c0.196-0.116,0.392-0.235,0.584-0.358
				c0.08-0.05,0.188-0.025,0.24,0.055c0.05,0.082,0.026,0.188-0.054,0.24c-0.196,0.123-0.396,0.244-0.596,0.361
				C35.796,45.665,35.767,45.673,35.736,45.673L35.736,45.673z M10.502,46.585c-0.028,0-0.058-0.008-0.086-0.021
				c-0.202-0.117-0.402-0.238-0.6-0.359c-0.08-0.051-0.106-0.156-0.054-0.238c0.05-0.084,0.152-0.11,0.238-0.057
				c0.194,0.123,0.39,0.238,0.588,0.353c0.084,0.048,0.112,0.153,0.066,0.235C10.623,46.553,10.563,46.585,10.502,46.585
				L10.502,46.585z M33.895,46.63c-0.066,0-0.128-0.036-0.158-0.1c-0.04-0.089-0.002-0.191,0.086-0.23
				c0.208-0.096,0.416-0.194,0.62-0.297c0.082-0.041,0.188-0.008,0.232,0.078c0.042,0.086,0.008,0.19-0.078,0.232
				c-0.208,0.102-0.418,0.204-0.63,0.301C33.942,46.626,33.918,46.63,33.895,46.63L33.895,46.63z M31.972,47.413
				c-0.07,0-0.136-0.043-0.162-0.113c-0.032-0.088,0.014-0.188,0.104-0.223c0.216-0.078,0.43-0.158,0.642-0.242
				c0.094-0.029,0.19,0.011,0.226,0.099c0.034,0.09-0.01,0.19-0.098,0.224c-0.216,0.084-0.434,0.166-0.652,0.246
				C32.012,47.411,31.992,47.413,31.972,47.413L31.972,47.413z M12.356,47.525c-0.024,0-0.046-0.004-0.07-0.014
				c-0.214-0.097-0.426-0.194-0.634-0.296c-0.086-0.043-0.122-0.146-0.08-0.232s0.144-0.124,0.232-0.08
				c0.204,0.102,0.412,0.198,0.622,0.29c0.088,0.04,0.128,0.142,0.088,0.229C12.486,47.487,12.422,47.525,12.356,47.525
				L12.356,47.525z M29.995,48.044c-0.078,0-0.146-0.051-0.168-0.129c-0.026-0.092,0.03-0.186,0.122-0.211
				c0.22-0.061,0.442-0.127,0.66-0.192c0.092-0.03,0.188,0.024,0.216,0.114c0.028,0.092-0.024,0.189-0.116,0.215
				c-0.22,0.068-0.444,0.135-0.668,0.197C30.024,48.042,30.008,48.044,29.995,48.044L29.995,48.044z M14.296,48.271
				c-0.018,0-0.036-0.002-0.054-0.008c-0.222-0.072-0.444-0.149-0.662-0.229c-0.09-0.033-0.136-0.133-0.102-0.221
				c0.032-0.09,0.13-0.141,0.222-0.104c0.214,0.078,0.43,0.152,0.65,0.226c0.09,0.028,0.14,0.126,0.11,0.216
				C14.437,48.225,14.371,48.271,14.296,48.271L14.296,48.271z M27.977,48.532c-0.08,0-0.152-0.055-0.17-0.137
				c-0.018-0.094,0.04-0.186,0.134-0.204c0.226-0.048,0.45-0.096,0.674-0.147c0.096-0.022,0.186,0.035,0.208,0.129
				c0.02,0.095-0.038,0.187-0.13,0.209c-0.228,0.052-0.454,0.1-0.682,0.146C27.999,48.532,27.988,48.532,27.977,48.532
				L27.977,48.532z M16.298,48.811c-0.012,0-0.024,0-0.036-0.004c-0.228-0.048-0.454-0.102-0.68-0.158
				c-0.092-0.023-0.15-0.117-0.126-0.21c0.022-0.092,0.106-0.147,0.21-0.126c0.222,0.057,0.444,0.107,0.668,0.156
				c0.094,0.02,0.154,0.111,0.132,0.205C16.45,48.755,16.378,48.811,16.298,48.811L16.298,48.811z M25.933,48.889
				c-0.084,0-0.158-0.064-0.17-0.15c-0.014-0.094,0.052-0.182,0.146-0.193c0.228-0.032,0.454-0.068,0.678-0.104
				c0.1-0.01,0.184,0.048,0.2,0.142c0.016,0.095-0.048,0.185-0.142,0.199c-0.23,0.037-0.458,0.073-0.688,0.105
				C25.948,48.889,25.94,48.889,25.933,48.889L25.933,48.889z M23.873,49.126c-0.088,0-0.166-0.068-0.172-0.158
				c-0.008-0.096,0.062-0.178,0.158-0.188c0.228-0.019,0.456-0.041,0.684-0.064c0.114-0.02,0.18,0.06,0.19,0.154
				c0.012,0.094-0.058,0.18-0.152,0.189c-0.23,0.023-0.462,0.046-0.694,0.066H23.873z M18.346,49.143c-0.006,0-0.014,0-0.018,0
				c-0.234-0.025-0.464-0.057-0.694-0.09c-0.094-0.014-0.158-0.102-0.144-0.196c0.014-0.094,0.088-0.168,0.196-0.146
				c0.226,0.031,0.452,0.062,0.678,0.088c0.096,0.01,0.164,0.096,0.154,0.189C18.508,49.077,18.433,49.143,18.346,49.143
				L18.346,49.143z M21.8,49.247c-0.094,0-0.17-0.074-0.174-0.168c-0.002-0.096,0.072-0.176,0.168-0.178
				c0.23-0.008,0.46-0.016,0.69-0.027c0.08-0.01,0.176,0.067,0.18,0.164c0.006,0.096-0.068,0.176-0.164,0.182
				c-0.23,0.012-0.462,0.02-0.694,0.027H21.8z M20.417,49.265L20.417,49.265c-0.234-0.002-0.466-0.009-0.698-0.019
				c-0.094-0.004-0.17-0.086-0.166-0.18c0.004-0.094,0.082-0.166,0.174-0.166h0.008c0.226,0.01,0.456,0.016,0.684,0.018
				c0.096,0,0.172,0.078,0.172,0.175C20.588,49.189,20.512,49.265,20.417,49.265L20.417,49.265z"/>
		</g>
	</g>
    <g id="Fill-61-Clipped" transform="translate(6.539062, 4.681000)">
		<g id="path-7">
		</g>
      <defs>
			<filter id="Adobe_OpacityMaskFilter_1_" filterUnits="userSpaceOnUse" x="0.292" y="1.552" width="38.726"
              height="38.396">
				<feColorMatrix type="matrix" values="1 0 0 0 0  0 1 0 0 0  0 0 1 0 0  0 0 0 1 0"/>
			</filter>
		</defs>
      <mask maskUnits="userSpaceOnUse" x="0.292" y="1.552" width="38.726" height="38.396" id="mask-4">
			<g filter="url(#Adobe_OpacityMaskFilter_1_)">
				<path id="path-3" fill="#FFFFFF" d="M22.554,2.652c-3.642,2.112-6.822,3.714-9.626,5.13l0,0
					C4.78,11.888,0.292,14.152,0.292,21.36l0,0l0.002,0.268C0.448,31.9,8.498,39.948,18.62,39.948l0,0
					c10.108,0,20.334-4.488,20.398-14.508l0,0l-0.25-0.002h0.25v-0.146c0-4.614-1.326-10.542-3.382-15.098l0,0
					c-2.512-5.572-5.826-8.642-9.334-8.642l0,0C25.076,1.552,23.814,1.922,22.554,2.652 M0.796,21.62l-0.002-0.26
					c0-6.9,4.13-8.982,12.358-13.134l0,0c2.812-1.416,5.998-3.024,9.652-5.14l0,0c1.182-0.686,2.36-1.034,3.498-1.034l0,0
					c7.578,0,12.216,15.046,12.216,23.24l0,0v0.145c-0.04,6.464-5.276,14.012-19.898,14.012l0,0
					C8.772,39.448,0.944,31.616,0.796,21.62"/>
			</g>
		</mask>

      <linearGradient id="Fill-61_2_" gradientUnits="userSpaceOnUse" x1="-193.0947" y1="431.5358" x2="-192.0947"
                      y2="431.5358" gradientTransform="matrix(38.726 0 0 -38.396 7478.0923 16589.998)">
			<stop offset="0" style="stop-color:#BE1622"/>
        <stop offset="1" style="stop-color:#EA5F0B"/>
		</linearGradient>
      <path id="Fill-61" mask="url(#mask-4)" fill="url(#Fill-61_2_)" d="M22.554,2.652c-3.642,2.112-6.822,3.714-9.626,5.13l0,0
			C4.78,11.888,0.292,14.152,0.292,21.36l0,0l0.002,0.268C0.448,31.9,8.498,39.948,18.62,39.948l0,0
			c10.108,0,20.334-4.488,20.398-14.508l0,0l-0.25-0.002h0.25v-0.146c0-4.614-1.326-10.542-3.382-15.098l0,0
			c-2.512-5.572-5.826-8.642-9.334-8.642l0,0C25.076,1.552,23.814,1.922,22.554,2.652 M0.796,21.62l-0.002-0.26
			c0-6.9,4.13-8.982,12.358-13.134l0,0c2.812-1.416,5.998-3.024,9.652-5.14l0,0c1.182-0.686,2.36-1.034,3.498-1.034l0,0
			c7.578,0,12.216,15.046,12.216,23.24l0,0v0.145c-0.04,6.464-5.276,14.012-19.898,14.012l0,0
			C8.772,39.448,0.944,31.616,0.796,21.62"/>
	</g>
    <g id="Group-70" transform="translate(44.539062, 32.681000)">
		<path id="Fill-64" fill="#BD1622" d="M14.711,7.541c0,3.788-3.072,6.86-6.86,6.86c-3.79,0-6.86-3.072-6.86-6.86
			c0-3.79,3.07-6.86,6.86-6.86C11.639,0.68,14.711,3.751,14.711,7.541"/>
      <path id="Fill-66" fill="#FEFEFE" d="M7.851,8.934c-0.77,0-1.394-0.623-1.394-1.395c0-0.77,0.624-1.393,1.394-1.393
			S9.245,6.77,9.245,7.54C9.245,8.311,8.621,8.934,7.851,8.934 M7.851,5.532c-1.108,0-2.008,0.9-2.008,2.008
			c0,1.109,0.9,2.009,2.008,2.009S9.859,8.649,9.859,7.54C9.859,6.432,8.959,5.532,7.851,5.532"/>
      <path id="Fill-68" fill="#FEFEFE" d="M7.851,10.173c-2.2,0-4.098-2.004-4.642-2.632c0.542-0.63,2.438-2.634,4.642-2.634
			c2.2,0,4.098,2.004,4.642,2.634C11.951,8.171,10.055,10.173,7.851,10.173 M13.133,7.354c-0.096-0.125-2.38-3.06-5.282-3.06
			c-2.9,0-5.186,2.935-5.282,3.06c-0.084,0.11-0.084,0.262,0,0.373c0.096,0.123,2.382,3.06,5.282,3.06
			c2.902,0,5.186-2.937,5.282-3.06C13.217,7.616,13.217,7.465,13.133,7.354"/>
	</g>
</g>
  <g enable-background="new    ">
	<path fill="#DD7C00" d="M73.172,45.493l1.343,1.031c-0.768,1.044-2.015,1.716-3.538,1.716c-2.65,0-4.461-2.039-4.461-4.438
		c0-2.399,1.811-4.438,4.461-4.438c1.523,0,2.771,0.684,3.538,1.702l-1.343,1.044c-0.479-0.684-1.235-1.151-2.195-1.151
		c-1.583,0-2.71,1.235-2.71,2.843c0,1.606,1.127,2.842,2.71,2.842C71.937,46.645,72.692,46.177,73.172,45.493z"/>
    <path fill="#DD7C00" d="M81.86,44.978c0,1.812-1.343,3.263-3.31,3.263s-3.311-1.451-3.311-3.263c0-1.811,1.344-3.262,3.311-3.262
		S81.86,43.167,81.86,44.978z M80.277,44.978c0-1.056-0.732-1.823-1.703-1.823c-1.007,0-1.751,0.768-1.751,1.823
		s0.744,1.823,1.751,1.823C79.545,46.801,80.277,46.021,80.277,44.978z"/>
    <path fill="#DD7C00" d="M83.255,41.955h1.523v0.48c0.42-0.408,0.983-0.72,1.787-0.72c1.307,0,2.351,0.899,2.351,2.687V48h-1.535
		v-3.538c0-0.804-0.456-1.308-1.199-1.308c-0.768,0-1.175,0.516-1.403,0.899V48h-1.523V41.955z"/>
    <path fill="#DD7C00" d="M91.127,46.213c0.372,0.468,0.815,0.804,1.392,0.804c0.492,0,0.743-0.288,0.743-0.647
		c0-1.056-2.89-0.66-2.89-2.783c0-1.067,0.899-1.87,2.159-1.87c0.923,0,1.763,0.443,2.195,1.031l-1.007,0.888
		c-0.312-0.384-0.708-0.696-1.175-0.696c-0.48,0-0.708,0.265-0.708,0.576c0,1.031,2.891,0.672,2.891,2.759
		c-0.024,1.271-1.043,1.967-2.183,1.967c-1.08,0-1.847-0.432-2.423-1.116L91.127,46.213z"/>
    <path fill="#DD7C00" d="M96.611,43.322h-1.127v-1.367h1.127v-1.511h1.535v1.511h1.847v1.367h-1.847v2.471
		c0,0.672,0.36,0.936,0.959,0.936c0.419,0,0.695-0.048,0.899-0.132v1.331c-0.3,0.132-0.66,0.192-1.164,0.192
		c-1.511,0-2.23-0.852-2.23-2.327V43.322z"/>
    <path fill="#DD7C00" d="M101.363,41.955h1.523v0.6c0.396-0.407,0.912-0.72,1.595-0.72c0.204,0,0.384,0.036,0.528,0.084v1.5
		c-0.192-0.049-0.396-0.084-0.672-0.084c-0.744,0-1.223,0.407-1.451,0.791V48h-1.523V41.955z"/>
    <path fill="#DD7C00" d="M110.396,41.955h1.535v3.358c0,1.811-1.055,2.927-2.83,2.927s-2.818-1.116-2.818-2.927v-3.358h1.535v3.431
		c0,0.875,0.455,1.415,1.295,1.415c0.828,0,1.283-0.54,1.283-1.415V41.955z"/>
    <path fill="#DD7C00" d="M113.398,39.904c0-0.539,0.456-0.995,0.996-0.995c0.539,0,0.983,0.456,0.983,0.995
		c0,0.54-0.444,0.996-0.983,0.996C113.854,40.9,113.398,40.444,113.398,39.904z M113.627,41.955h1.523V48h-1.523V41.955z"/>
    <path fill="#DD7C00" d="M116.975,41.955h1.523v0.6c0.396-0.407,0.912-0.72,1.596-0.72c0.203,0,0.383,0.036,0.527,0.084v1.5
		c-0.191-0.049-0.396-0.084-0.672-0.084c-0.744,0-1.223,0.407-1.451,0.791V48h-1.523V41.955z"/>
    <path fill="#DD7C00" d="M124.521,48.24c-2.147,0-3.358-1.5-3.358-3.263c0-1.787,1.127-3.262,3.106-3.262
		c1.679,0,2.782,1.139,2.782,2.722c0,0.336-0.048,0.648-0.097,0.852h-4.232c0.143,1.128,0.839,1.584,1.786,1.584
		c0.659,0,1.235-0.288,1.56-0.72l1.092,0.863C126.596,47.772,125.66,48.24,124.521,48.24z M122.77,44.187h2.783
		c-0.024-0.612-0.469-1.224-1.319-1.224C123.453,42.963,122.938,43.395,122.77,44.187z"/>
    <path fill="#DD7C00" d="M134.421,41.716c0.815,0,1.403,0.252,1.871,0.72v-3.431h1.535V48h-1.535v-0.479
		c-0.468,0.468-1.056,0.72-1.871,0.72c-1.907,0-3.07-1.5-3.07-3.263S132.514,41.716,134.421,41.716z M134.637,46.801
		c0.684,0,1.248-0.288,1.655-0.84v-1.967c-0.407-0.552-0.972-0.84-1.655-0.84c-1.031,0-1.691,0.768-1.691,1.823
		S133.605,46.801,134.637,46.801z"/>
    <path fill="#DD7C00" d="M142.58,48.24c-2.146,0-3.357-1.5-3.357-3.263c0-1.787,1.127-3.262,3.105-3.262
		c1.68,0,2.783,1.139,2.783,2.722c0,0.336-0.049,0.648-0.096,0.852h-4.234c0.145,1.128,0.84,1.584,1.787,1.584
		c0.66,0,1.235-0.288,1.56-0.72l1.091,0.863C144.655,47.772,143.72,48.24,142.58,48.24z M140.83,44.187h2.781
		c-0.023-0.612-0.467-1.224-1.318-1.224C141.514,42.963,140.998,43.395,140.83,44.187z"/>
    <path fill="#DD7C00" d="M146.998,46.213c0.372,0.468,0.815,0.804,1.392,0.804c0.491,0,0.743-0.288,0.743-0.647
		c0-1.056-2.891-0.66-2.891-2.783c0-1.067,0.9-1.87,2.159-1.87c0.923,0,1.763,0.443,2.194,1.031l-1.007,0.888
		c-0.312-0.384-0.708-0.696-1.175-0.696c-0.48,0-0.709,0.265-0.709,0.576c0,1.031,2.891,0.672,2.891,2.759
		c-0.023,1.271-1.043,1.967-2.182,1.967c-1.08,0-1.848-0.432-2.424-1.116L146.998,46.213z"/>
    <path fill="#DD7C00" d="M155.722,46.213c0.372,0.468,0.815,0.804,1.392,0.804c0.492,0,0.743-0.288,0.743-0.647
		c0-1.056-2.89-0.66-2.89-2.783c0-1.067,0.898-1.87,2.158-1.87c0.924,0,1.764,0.443,2.195,1.031l-1.008,0.888
		c-0.313-0.384-0.707-0.696-1.176-0.696c-0.479,0-0.707,0.265-0.707,0.576c0,1.031,2.891,0.672,2.891,2.759
		c-0.024,1.271-1.044,1.967-2.184,1.967c-1.079,0-1.847-0.432-2.422-1.116L155.722,46.213z"/>
    <path fill="#DD7C00" d="M161.205,43.322h-1.127v-1.367h1.127v-1.511h1.535v1.511h1.848v1.367h-1.848v2.471
		c0,0.672,0.36,0.936,0.96,0.936c0.419,0,0.695-0.048,0.899-0.132v1.331c-0.3,0.132-0.66,0.192-1.164,0.192
		c-1.511,0-2.23-0.852-2.23-2.327V43.322z"/>
    <path fill="#DD7C00" d="M165.958,41.955h1.522v0.6c0.396-0.407,0.912-0.72,1.596-0.72c0.204,0,0.384,0.036,0.527,0.084v1.5
		c-0.191-0.049-0.396-0.084-0.672-0.084c-0.743,0-1.223,0.407-1.451,0.791V48h-1.522V41.955z"/>
    <path fill="#DD7C00" d="M170.206,46.369c0-0.912,0.708-1.596,2.003-1.812l1.848-0.312V44.09c0-0.636-0.48-1.043-1.176-1.043
		c-0.588,0-1.044,0.275-1.367,0.72l-1.115-0.852c0.539-0.744,1.427-1.199,2.53-1.199c1.751,0,2.65,1.043,2.65,2.374V48h-1.522
		v-0.588c-0.385,0.468-1.104,0.768-1.812,0.768C171.033,48.18,170.206,47.484,170.206,46.369z M172.557,46.969
		c0.695,0,1.199-0.324,1.5-0.804v-0.852l-1.439,0.24c-0.637,0.107-0.9,0.371-0.9,0.743
		C171.717,46.705,172.041,46.969,172.557,46.969z"/>
    <path fill="#DD7C00" d="M177.705,43.322h-1.127v-1.367h1.127v-1.511h1.535v1.511h1.848v1.367h-1.848v2.471
		c0,0.672,0.36,0.936,0.96,0.936c0.419,0,0.695-0.048,0.899-0.132v1.331c-0.3,0.132-0.66,0.192-1.164,0.192
		c-1.511,0-2.23-0.852-2.23-2.327V43.322z"/>
    <path fill="#DD7C00" d="M185.264,48.24c-2.146,0-3.357-1.5-3.357-3.263c0-1.787,1.127-3.262,3.105-3.262
		c1.68,0,2.783,1.139,2.783,2.722c0,0.336-0.049,0.648-0.096,0.852h-4.234c0.145,1.128,0.84,1.584,1.787,1.584
		c0.66,0,1.235-0.288,1.56-0.72l1.091,0.863C187.339,47.772,186.403,48.24,185.264,48.24z M183.514,44.187h2.781
		c-0.023-0.612-0.467-1.224-1.318-1.224C184.197,42.963,183.682,43.395,183.514,44.187z M184.389,40.996l1.247-1.991h1.655
		l-1.439,1.991H184.389z"/>
    <path fill="#DD7C00" d="M189.478,47.58c-0.239-0.239-0.372-0.563-0.372-0.875c0-0.48,0.204-0.864,0.66-1.199
		c-0.527-0.396-0.816-0.996-0.816-1.668c0-1.175,0.912-2.122,2.424-2.122c0.467,0,0.875,0.084,1.223,0.239h2.207v1.296h-1.067
		c0.06,0.191,0.084,0.384,0.084,0.587c0,1.188-0.888,2.147-2.446,2.147c-0.205,0-0.396-0.013-0.576-0.048
		c-0.132,0.119-0.204,0.252-0.204,0.384c0,0.239,0.132,0.359,0.407,0.359h1.523c1.523,0,2.352,0.815,2.352,1.943
		c0,1.343-1.283,2.374-3.166,2.374c-1.932,0-3.07-0.671-3.07-1.942C188.639,48.456,188.938,47.976,189.478,47.58z M191.696,49.775
		c1.104,0,1.667-0.408,1.667-1.008c0-0.456-0.275-0.779-1.008-0.779h-1.871c-0.227,0.216-0.407,0.479-0.407,0.852
		C190.077,49.415,190.629,49.775,191.696,49.775z M192.439,43.838c0-0.6-0.407-0.983-1.043-0.983c-0.66,0-1.056,0.396-1.056,0.983
		c0,0.6,0.396,0.996,1.056,0.996C192.032,44.834,192.439,44.438,192.439,43.838z"/>
    <path fill="#DD7C00" d="M195.682,39.904c0-0.539,0.455-0.995,0.996-0.995c0.539,0,0.982,0.456,0.982,0.995
		c0,0.54-0.443,0.996-0.982,0.996C196.137,40.9,195.682,40.444,195.682,39.904z M195.91,41.955h1.522V48h-1.522V41.955z"/>
    <path fill="#DD7C00" d="M202.184,48.24c-2.146,0-3.357-1.5-3.357-3.263c0-1.787,1.127-3.262,3.105-3.262
		c1.68,0,2.783,1.139,2.783,2.722c0,0.336-0.049,0.648-0.096,0.852h-4.234c0.145,1.128,0.84,1.584,1.787,1.584
		c0.66,0,1.235-0.288,1.56-0.72l1.091,0.863C204.259,47.772,203.323,48.24,202.184,48.24z M200.434,44.187h2.781
		c-0.023-0.612-0.467-1.224-1.318-1.224C201.117,42.963,200.602,43.395,200.434,44.187z"/>
    <path fill="#DD7C00" d="M206.602,46.213c0.371,0.468,0.815,0.804,1.391,0.804c0.492,0,0.744-0.288,0.744-0.647
		c0-1.056-2.891-0.66-2.891-2.783c0-1.067,0.899-1.87,2.158-1.87c0.924,0,1.764,0.443,2.195,1.031l-1.008,0.888
		c-0.312-0.384-0.707-0.696-1.175-0.696c-0.479,0-0.708,0.265-0.708,0.576c0,1.031,2.891,0.672,2.891,2.759
		c-0.023,1.271-1.043,1.967-2.183,1.967c-1.079,0-1.847-0.432-2.423-1.116L206.602,46.213z"/>
</g>
  <g id="logo_TACCT-Copy">
	<g id="Group-71" transform="translate(0.539062, 0.000000)">
		<g id="Group-60_1_" transform="translate(0.000000, 0.681000)">
			<path id="Fill-13_1_" fill="#2AACA3" d="M27.701,18.436c-0.124-0.048-0.244-0.106-0.372-0.146L0.457,38.413
				c0.028,0.117,0.066,0.231,0.096,0.352L27.701,18.436z"/>
      <path id="Fill-15_1_" fill="#2AACA3" d="M25.714,18.021c-0.008,0-0.014-0.002-0.022-0.002c-0.198,0-0.412,0.038-0.618,0.058
				L0.148,36.741c0.018,0.129,0.046,0.25,0.066,0.377L25.714,18.021z"/>
      <path id="Fill-17_1_" fill="#2AACA3" d="M29.148,19.253c-0.094-0.074-0.194-0.138-0.292-0.204L0.906,39.977
				c0.038,0.109,0.086,0.217,0.126,0.328L29.148,19.253z"/>
      <path id="Fill-19_1_" fill="#2AACA3" d="M30.274,20.311c-0.076-0.088-0.158-0.164-0.236-0.246L1.484,41.446
				c0.046,0.105,0.104,0.205,0.152,0.309L30.274,20.311z"/>
      <path id="Fill-21_1_" fill="#2AACA3" d="M31.182,21.533c-0.062-0.098-0.13-0.184-0.194-0.278L2.18,42.825
				c0.056,0.1,0.122,0.194,0.178,0.292L31.182,21.533z"/>
      <path id="Fill-23_1_" fill="#2AACA3" d="M13.296,21.617c-0.316,0.092-0.626,0.184-0.93,0.274L0.428,30.827
				c-0.038,0.17-0.08,0.334-0.114,0.51L13.296,21.617z"/>
      <path id="Fill-25_1_" fill="#2AACA3" d="M32.971,25.471L4.945,46.46c0.08,0.082,0.172,0.154,0.256,0.232l27.876-20.876
				C33.043,25.701,33.009,25.586,32.971,25.471"/>
      <path id="Fill-27_1_" fill="#2AACA3" d="M20.939,19.271L0.007,34.946c0.004,0.135,0.018,0.27,0.026,0.405l21.95-16.438
				C21.635,19.033,21.279,19.157,20.939,19.271"/>
      <path id="Fill-29_1_" fill="#2AACA3" d="M1.364,28.226c-0.118,0.22-0.238,0.438-0.34,0.679l7.954-5.957
				C8.61,23.072,8.25,23.2,7.906,23.328L1.364,28.226z"/>
      <path id="Fill-31_1_" fill="#2AACA3" d="M17.505,20.365c-0.322,0.098-0.638,0.194-0.95,0.288L0.083,32.989
				c-0.014,0.152-0.036,0.305-0.044,0.456L17.505,20.365z"/>
      <path id="Fill-33_1_" fill="#2AACA3" d="M31.931,22.873c-0.05-0.104-0.106-0.202-0.16-0.304L2.989,44.121
				c0.064,0.093,0.138,0.179,0.204,0.271L31.931,22.873z"/>
      <path id="Fill-35_1_" fill="#2AACA3" d="M34.474,36.182c0-0.138-0.006-0.281-0.006-0.42L14.096,51.016
				c0.156,0.026,0.31,0.051,0.466,0.074L34.474,36.182z"/>
      <path id="Fill-37_1_" fill="#2AACA3" d="M34.191,40.194c0.022-0.158,0.046-0.311,0.066-0.473L18.615,51.434
				c0.194,0.002,0.386-0.008,0.578-0.01L34.191,40.194z"/>
      <path id="Fill-39_1_" fill="#2AACA3" d="M34.403,38.134c0.01-0.142,0.01-0.292,0.018-0.438L16.259,51.298
				c0.166,0.015,0.332,0.036,0.498,0.048L34.403,38.134z"/>
      <path id="Fill-41_1_" fill="#2AACA3" d="M32.582,45.203c0.144-0.246,0.296-0.481,0.424-0.741l-8.404,6.291
				c0.314-0.08,0.62-0.172,0.924-0.266L32.582,45.203z"/>
      <path id="Fill-43_1_" fill="#2AACA3" d="M32.555,24.305c-0.042-0.11-0.086-0.218-0.13-0.326L3.909,45.333
				c0.072,0.087,0.156,0.164,0.23,0.25L32.555,24.305z"/>
      <path id="Fill-45_1_" fill="#2AACA3" d="M33.742,42.434c0.046-0.172,0.094-0.346,0.136-0.525l-12.564,9.408
				c0.216-0.021,0.432-0.035,0.644-0.061L33.742,42.434z"/>
      <path id="Fill-47_1_" fill="#2AACA3" d="M33.861,29.035c-0.022-0.124-0.04-0.252-0.064-0.376L7.375,48.443
				c0.102,0.067,0.208,0.126,0.312,0.192L33.861,29.035z"/>
      <path id="Fill-49_1_" fill="#2AACA3" d="M33.51,27.395c-0.028-0.12-0.054-0.242-0.084-0.359L6.096,47.497
				c0.092,0.074,0.19,0.143,0.282,0.215L33.51,27.395z"/>
      <path id="Fill-51_1_" fill="#2AACA3" d="M34.134,30.73c-0.016-0.128-0.032-0.256-0.05-0.386L8.788,49.288
				c0.112,0.061,0.232,0.106,0.346,0.164L34.134,30.73z"/>
      <path id="Fill-53_1_" fill="#2AACA3" d="M34.446,34.298c-0.004-0.134-0.018-0.271-0.026-0.403L12.118,50.594
				c0.14,0.038,0.286,0.068,0.428,0.102L34.446,34.298z"/>
      <path id="Fill-55_1_" fill="#2AACA3" d="M34.332,32.484c-0.012-0.13-0.028-0.262-0.042-0.392l-23.932,17.92
				c0.126,0.05,0.26,0.088,0.386,0.134L34.332,32.484z"/>
      <g id="Fill-57-Clipped_1_" transform="translate(12.000000, 0.000000)">
				<g id="path-5_1_">
				</g>
        <defs>
					<filter id="Adobe_OpacityMaskFilter_2_" filterUnits="userSpaceOnUse" x="0.138" y="1.319" width="43.218"
                  height="47.946">
						<feColorMatrix type="matrix" values="1 0 0 0 0  0 1 0 0 0  0 0 1 0 0  0 0 0 1 0"/>
					</filter>
				</defs>
        <mask maskUnits="userSpaceOnUse" x="0.138" y="1.319" width="43.218" height="47.946" id="mask-7">
					<g filter="url(#Adobe_OpacityMaskFilter_2_)">
						<polygon id="path-6" fill="#FFFFFF"
                     points="0.138,1.32 43.356,1.32 43.356,49.265 0.138,49.265 						"/>
					</g>
				</mask>
        <path id="Fill-57_1_" mask="url(#mask-7)" fill="#1D1D1B" d="M30.541,1.733c-0.008,0-0.016,0-0.024-0.002
					c-0.22-0.032-0.444-0.052-0.672-0.066c-0.096-0.006-0.168-0.088-0.162-0.182c0.006-0.096,0.082-0.164,0.182-0.164
					c0.24,0.014,0.476,0.038,0.7,0.07c0.096,0.014,0.16,0.1,0.146,0.196C30.7,1.671,30.625,1.733,30.541,1.733L30.541,1.733z
					 M27.787,1.745c-0.088,0-0.162-0.064-0.172-0.152c-0.012-0.096,0.056-0.182,0.15-0.194c0.234-0.026,0.466-0.048,0.696-0.066
					h0.014c0.09,0,0.166,0.07,0.172,0.16c0.008,0.096-0.064,0.18-0.16,0.186c-0.226,0.016-0.452,0.038-0.68,0.064
					C27.798,1.745,27.792,1.745,27.787,1.745L27.787,1.745z M25.749,2.125c-0.08,0-0.15-0.054-0.168-0.132
					c-0.024-0.092,0.032-0.186,0.126-0.21c0.228-0.056,0.456-0.108,0.68-0.156c0.09-0.014,0.186,0.042,0.206,0.136
					c0.018,0.094-0.042,0.184-0.136,0.204c-0.22,0.046-0.442,0.096-0.666,0.152C25.776,2.123,25.76,2.125,25.749,2.125L25.749,2.125
					z M32.532,2.273c-0.022,0-0.044-0.004-0.066-0.014c-0.212-0.088-0.426-0.166-0.634-0.232c-0.092-0.028-0.142-0.126-0.114-0.216
					c0.03-0.092,0.126-0.144,0.216-0.114c0.22,0.07,0.442,0.15,0.664,0.242c0.088,0.038,0.13,0.138,0.094,0.226
					C32.665,2.233,32.601,2.273,32.532,2.273L32.532,2.273z M23.76,2.725c-0.072,0-0.138-0.044-0.164-0.116
					c-0.032-0.088,0.016-0.188,0.106-0.22c0.22-0.078,0.442-0.154,0.66-0.224c0.09-0.024,0.19,0.022,0.218,0.112
					c0.03,0.092-0.022,0.19-0.112,0.218c-0.216,0.07-0.432,0.144-0.65,0.22C23.798,2.723,23.78,2.725,23.76,2.725L23.76,2.725z
					 M34.333,3.279c-0.034,0-0.07-0.01-0.1-0.032c-0.184-0.134-0.372-0.258-0.564-0.376c-0.082-0.05-0.106-0.156-0.056-0.238
					c0.05-0.082,0.156-0.108,0.238-0.058c0.198,0.122,0.394,0.254,0.584,0.39c0.078,0.056,0.096,0.164,0.04,0.242
					C34.44,3.255,34.386,3.279,34.333,3.279L34.333,3.279z M21.833,3.495c-0.068,0-0.13-0.038-0.16-0.102
					c-0.038-0.086,0.002-0.19,0.088-0.228c0.214-0.096,0.428-0.186,0.642-0.276c0.086-0.034,0.188,0.006,0.226,0.094
					c0.036,0.088-0.006,0.19-0.094,0.226c-0.21,0.088-0.42,0.178-0.632,0.272C21.878,3.491,21.854,3.495,21.833,3.495L21.833,3.495z
					 M19.962,4.403c-0.062,0-0.122-0.034-0.152-0.092c-0.044-0.086-0.012-0.19,0.072-0.234c0.208-0.108,0.414-0.214,0.62-0.318
					c0.082-0.04,0.19-0.006,0.234,0.078c0.042,0.086,0.008,0.19-0.078,0.232c-0.206,0.102-0.41,0.208-0.616,0.313
					C20.019,4.397,19.99,4.403,19.962,4.403L19.962,4.403z M35.882,4.649c-0.046,0-0.092-0.018-0.126-0.054
					c-0.156-0.166-0.316-0.328-0.48-0.482c-0.07-0.066-0.072-0.176-0.008-0.246c0.066-0.07,0.176-0.072,0.246-0.006
					c0.168,0.16,0.334,0.326,0.494,0.498c0.066,0.07,0.064,0.178-0.008,0.244C35.968,4.635,35.924,4.649,35.882,4.649L35.882,4.649z
					 M18.152,5.419c-0.06,0-0.116-0.03-0.15-0.084c-0.048-0.082-0.022-0.188,0.06-0.236c0.2-0.12,0.4-0.238,0.6-0.352
					c0.08-0.052,0.188-0.02,0.236,0.064c0.048,0.082,0.018,0.188-0.064,0.234c-0.198,0.114-0.396,0.232-0.594,0.35
					C18.212,5.411,18.183,5.419,18.152,5.419L18.152,5.419z M37.187,6.261c-0.056,0-0.108-0.026-0.142-0.074
					c-0.132-0.188-0.266-0.372-0.404-0.552c-0.058-0.076-0.044-0.184,0.032-0.242c0.074-0.058,0.184-0.044,0.244,0.032
					c0.138,0.184,0.278,0.372,0.412,0.564c0.054,0.078,0.036,0.186-0.044,0.242C37.254,6.251,37.22,6.261,37.187,6.261L37.187,6.261
					z M16.398,6.533c-0.056,0-0.11-0.026-0.144-0.076c-0.054-0.08-0.032-0.188,0.046-0.24c0.194-0.13,0.388-0.258,0.582-0.384
					c0.078-0.054,0.186-0.03,0.24,0.052c0.05,0.08,0.028,0.188-0.052,0.24c-0.194,0.124-0.384,0.25-0.576,0.378
					C16.464,6.523,16.43,6.533,16.398,6.533L16.398,6.533z M14.7,7.731c-0.052,0-0.104-0.024-0.138-0.07
					c-0.058-0.076-0.042-0.184,0.034-0.242c0.188-0.138,0.374-0.274,0.564-0.41c0.078-0.052,0.186-0.038,0.24,0.04
					c0.056,0.078,0.038,0.187-0.04,0.242c-0.186,0.134-0.372,0.27-0.556,0.406C14.772,7.721,14.736,7.731,14.7,7.731L14.7,7.731z
					 M38.278,8.027c-0.062,0-0.12-0.032-0.152-0.088c-0.112-0.204-0.226-0.404-0.34-0.598c-0.048-0.082-0.022-0.19,0.06-0.238
					c0.08-0.046,0.19-0.022,0.238,0.062c0.118,0.198,0.232,0.4,0.344,0.608c0.046,0.084,0.016,0.188-0.068,0.234
					C38.334,8.021,38.307,8.027,38.278,8.027L38.278,8.027z M13.059,9.003c-0.052,0-0.102-0.02-0.136-0.064
					c-0.058-0.074-0.048-0.182,0.028-0.244c0.178-0.144,0.36-0.29,0.542-0.432c0.072-0.06,0.182-0.046,0.242,0.03
					c0.06,0.074,0.046,0.184-0.028,0.242c-0.18,0.142-0.36,0.284-0.54,0.43C13.134,8.991,13.096,9.003,13.059,9.003L13.059,9.003z
					 M39.192,9.891c-0.066,0-0.128-0.038-0.158-0.102c-0.094-0.212-0.19-0.422-0.286-0.626c-0.042-0.088-0.004-0.19,0.082-0.23
					c0.086-0.044,0.188-0.004,0.23,0.082c0.1,0.208,0.194,0.42,0.29,0.634c0.04,0.086,0,0.188-0.088,0.228
					C39.24,9.887,39.216,9.891,39.192,9.891L39.192,9.891z M11.472,10.349c-0.048,0-0.096-0.02-0.13-0.06
					c-0.064-0.07-0.056-0.18,0.016-0.244c0.174-0.152,0.348-0.306,0.524-0.458c0.074-0.064,0.18-0.054,0.244,0.018
					c0.062,0.072,0.054,0.182-0.018,0.244c-0.174,0.152-0.348,0.302-0.522,0.456C11.554,10.335,11.512,10.349,11.472,10.349
					L11.472,10.349z M9.946,11.759c-0.046,0-0.092-0.018-0.124-0.052c-0.068-0.068-0.066-0.18,0.004-0.244
					c0.166-0.162,0.334-0.322,0.504-0.48c0.068-0.066,0.178-0.062,0.244,0.008c0.064,0.07,0.06,0.178-0.008,0.244
					c-0.168,0.158-0.336,0.316-0.5,0.476C10.032,11.743,9.988,11.759,9.946,11.759L9.946,11.759z M39.964,11.819
					c-0.07,0-0.138-0.044-0.164-0.114c-0.078-0.216-0.158-0.43-0.24-0.644c-0.036-0.088,0.01-0.19,0.098-0.224
					c0.09-0.032,0.188,0.01,0.224,0.1c0.084,0.214,0.164,0.43,0.244,0.652c0.034,0.09-0.014,0.188-0.104,0.222
					C40.002,11.817,39.984,11.819,39.964,11.819L39.964,11.819z M8.486,13.231c-0.044,0-0.086-0.016-0.12-0.046
					c-0.07-0.068-0.072-0.176-0.006-0.246c0.158-0.168,0.318-0.334,0.482-0.5c0.068-0.07,0.176-0.07,0.244,0
					c0.068,0.066,0.07,0.176,0.002,0.244c-0.162,0.164-0.32,0.328-0.476,0.494C8.579,13.213,8.532,13.231,8.486,13.231L8.486,13.231
					z M40.618,13.791c-0.076,0-0.144-0.048-0.166-0.122c-0.068-0.222-0.136-0.442-0.206-0.66c-0.03-0.09,0.022-0.188,0.112-0.218
					c0.088-0.024,0.186,0.022,0.218,0.112c0.07,0.22,0.138,0.442,0.206,0.664c0.028,0.092-0.024,0.188-0.114,0.216
					C40.65,13.789,40.634,13.791,40.618,13.791L40.618,13.791z M7.09,14.771c-0.04,0-0.08-0.014-0.114-0.042
					c-0.072-0.064-0.08-0.172-0.018-0.246c0.152-0.174,0.304-0.348,0.46-0.522c0.064-0.072,0.17-0.078,0.244-0.014
					c0.072,0.064,0.078,0.174,0.014,0.244c-0.154,0.172-0.306,0.346-0.456,0.52C7.187,14.749,7.138,14.771,7.09,14.771L7.09,14.771z
					 M41.172,15.795c-0.076,0-0.148-0.052-0.168-0.132c-0.056-0.222-0.114-0.446-0.172-0.668c-0.026-0.092,0.03-0.186,0.122-0.212
					c0.1-0.018,0.188,0.032,0.21,0.122c0.06,0.224,0.12,0.45,0.176,0.674c0.024,0.094-0.032,0.188-0.126,0.21
					C41.203,15.793,41.187,15.795,41.172,15.795L41.172,15.795z M5.771,16.373c-0.038,0-0.076-0.012-0.106-0.036
					c-0.076-0.06-0.09-0.168-0.03-0.242c0.142-0.182,0.286-0.364,0.432-0.544c0.058-0.074,0.172-0.084,0.242-0.026
					c0.076,0.06,0.086,0.168,0.026,0.244c-0.144,0.178-0.288,0.358-0.428,0.538C5.873,16.351,5.82,16.373,5.771,16.373L5.771,16.373
					z M41.641,17.817c-0.08,0-0.152-0.056-0.168-0.138c-0.048-0.224-0.098-0.448-0.148-0.672c-0.02-0.094,0.038-0.186,0.132-0.208
					c0.086-0.024,0.184,0.038,0.206,0.132c0.05,0.224,0.1,0.45,0.148,0.676c0.02,0.094-0.04,0.186-0.134,0.206
					C41.665,17.815,41.652,17.817,41.641,17.817L41.641,17.817z M4.534,18.045c-0.036,0-0.07-0.01-0.1-0.032
					c-0.078-0.054-0.098-0.162-0.042-0.24c0.132-0.19,0.266-0.378,0.404-0.568c0.056-0.078,0.162-0.096,0.242-0.038
					c0.076,0.058,0.094,0.164,0.038,0.242c-0.136,0.186-0.27,0.374-0.402,0.562C4.643,18.019,4.588,18.045,4.534,18.045
					L4.534,18.045z M3.398,19.783c-0.03,0-0.062-0.008-0.09-0.024c-0.082-0.05-0.108-0.156-0.058-0.238
					c0.12-0.198,0.242-0.394,0.368-0.592c0.052-0.08,0.158-0.104,0.238-0.052c0.082,0.052,0.104,0.158,0.054,0.238
					c-0.124,0.196-0.246,0.39-0.366,0.586C3.512,19.755,3.457,19.783,3.398,19.783L3.398,19.783z M42.039,19.857
					c-0.084,0-0.156-0.06-0.17-0.144c-0.04-0.228-0.082-0.454-0.124-0.68c-0.018-0.094,0.044-0.184,0.136-0.202
					c0.094-0.018,0.186,0.044,0.202,0.138c0.044,0.228,0.084,0.456,0.124,0.684c0.018,0.094-0.044,0.184-0.138,0.2
					C42.057,19.855,42.046,19.857,42.039,19.857L42.039,19.857z M2.382,21.595c-0.026,0-0.054-0.006-0.08-0.018
					c-0.084-0.044-0.118-0.148-0.074-0.234c0.104-0.204,0.214-0.41,0.326-0.614c0.046-0.086,0.152-0.118,0.236-0.07
					c0.084,0.046,0.114,0.152,0.068,0.236c-0.11,0.202-0.218,0.404-0.322,0.606C2.504,21.561,2.444,21.595,2.382,21.595
					L2.382,21.595z M42.366,21.911c-0.084,0-0.158-0.062-0.17-0.148c-0.034-0.228-0.068-0.456-0.104-0.684
					c-0.014-0.096,0.05-0.182,0.146-0.198c0.09-0.012,0.182,0.05,0.196,0.144c0.036,0.23,0.07,0.458,0.104,0.688
					c0.012,0.094-0.052,0.182-0.148,0.196C42.382,21.911,42.375,21.911,42.366,21.911L42.366,21.911z M1.514,23.481
					c-0.02,0-0.044-0.004-0.064-0.012c-0.088-0.036-0.132-0.138-0.096-0.226c0.088-0.214,0.178-0.428,0.272-0.642
					c0.04-0.088,0.144-0.124,0.23-0.088c0.086,0.038,0.126,0.14,0.088,0.228c-0.094,0.21-0.184,0.422-0.27,0.632
					C1.648,23.441,1.583,23.481,1.514,23.481L1.514,23.481z M42.628,23.951c-0.084,0-0.152-0.048-0.164-0.134
					c-0.03-0.252-0.054-0.468-0.084-0.686c-0.01-0.094,0.056-0.18,0.152-0.192c0.09-0.018,0.18,0.054,0.192,0.15
					c0.028,0.216,0.054,0.434,0.08,0.648c0.012,0.096-0.054,0.202-0.148,0.212C42.646,23.951,42.636,23.951,42.628,23.951
					L42.628,23.951z M0.838,25.443c-0.016,0-0.032-0.002-0.048-0.004c-0.09-0.028-0.144-0.122-0.12-0.214
					c0.064-0.222,0.132-0.446,0.204-0.67c0.03-0.09,0.126-0.142,0.218-0.11c0.092,0.03,0.142,0.126,0.112,0.218
					c-0.072,0.22-0.138,0.438-0.2,0.654C0.984,25.395,0.915,25.443,0.838,25.443L0.838,25.443z M42.851,26.037
					c-0.09,0-0.164-0.066-0.172-0.156l-0.066-0.69c-0.01-0.094,0.06-0.178,0.156-0.188c0.09-0.012,0.18,0.06,0.188,0.156l0.066,0.69
					c0.01,0.094-0.062,0.178-0.156,0.188C42.86,26.037,42.854,26.037,42.851,26.037L42.851,26.037z M0.415,27.473
					c-0.008,0-0.014,0-0.022-0.002c-0.096-0.012-0.162-0.1-0.15-0.193c0.032-0.23,0.068-0.461,0.112-0.695
					c0.018-0.094,0.11-0.151,0.202-0.137c0.094,0.018,0.154,0.107,0.138,0.203c-0.042,0.227-0.078,0.45-0.108,0.672
					C0.574,27.409,0.5,27.473,0.415,27.473L0.415,27.473z M43.01,28.109c-0.09,0-0.166-0.067-0.172-0.159l-0.048-0.69
					c-0.006-0.097,0.066-0.181,0.16-0.187h0.012c0.09,0,0.166,0.07,0.174,0.16l0.048,0.691c0.006,0.097-0.066,0.179-0.162,0.185
					H43.01z M0.318,29.542c-0.094,0-0.17-0.074-0.172-0.168c-0.006-0.185-0.008-0.369-0.008-0.557v-0.145
					c0.002-0.094,0.08-0.168,0.174-0.168h0.004c0.096,0.002,0.17,0.08,0.168,0.177v0.136c0,0.184,0.002,0.366,0.008,0.547
					c0.002,0.096-0.074,0.176-0.168,0.178H0.318z M43.121,30.179c-0.092,0-0.168-0.065-0.172-0.158
					c-0.01-0.239-0.02-0.464-0.032-0.692c-0.004-0.096,0.068-0.176,0.164-0.18c0.104,0.01,0.176,0.068,0.182,0.164
					c0.012,0.227,0.022,0.454,0.03,0.678c0.004,0.096-0.07,0.184-0.166,0.188C43.125,30.179,43.123,30.179,43.121,30.179
					L43.121,30.179z M0.479,31.609c-0.086,0-0.16-0.062-0.172-0.149c-0.03-0.229-0.056-0.461-0.076-0.694
					c-0.01-0.095,0.06-0.179,0.156-0.188c0.078-0.018,0.178,0.063,0.188,0.156c0.02,0.229,0.046,0.456,0.076,0.682
					c0.012,0.095-0.056,0.183-0.15,0.194C0.492,31.609,0.484,31.609,0.479,31.609L0.479,31.609z M43.174,32.251
					c-0.092,0-0.17-0.062-0.172-0.157l-0.012-0.692c-0.002-0.094,0.074-0.174,0.17-0.176h0.004c0.092,0,0.17,0.076,0.172,0.17
					l0.012,0.67c0.002,0.094-0.074,0.184-0.17,0.186H43.174z M0.849,33.651c-0.078,0-0.148-0.054-0.168-0.132
					c-0.054-0.226-0.102-0.454-0.148-0.683c-0.02-0.094,0.042-0.186,0.134-0.203c0.098-0.018,0.186,0.041,0.206,0.136
					c0.044,0.224,0.092,0.448,0.144,0.67c0.024,0.093-0.034,0.187-0.128,0.208C0.875,33.649,0.862,33.651,0.849,33.651L0.849,33.651
					z M43.168,33.96H43.16c-0.094-0.004-0.168-0.084-0.164-0.18c0.008-0.225,0.014-0.453,0.014-0.683
					c0-0.097,0.076-0.175,0.172-0.175c0.096,0,0.174,0.078,0.174,0.175c0,0.235-0.006,0.468-0.016,0.698
					C43.336,33.887,43.26,33.96,43.168,33.96L43.168,33.96z M1.426,35.643c-0.07,0-0.138-0.044-0.162-0.115
					c-0.076-0.221-0.15-0.441-0.218-0.664c-0.028-0.091,0.022-0.187,0.114-0.215c0.092-0.033,0.188,0.023,0.216,0.114
					c0.068,0.218,0.14,0.435,0.214,0.649c0.032,0.092-0.016,0.19-0.106,0.221C1.464,35.641,1.446,35.643,1.426,35.643L1.426,35.643z
					 M42.937,36.017c-0.01,0-0.022,0-0.032-0.002c-0.094-0.019-0.156-0.11-0.138-0.202c0.042-0.223,0.078-0.445,0.108-0.674
					c0.014-0.096,0.1-0.156,0.196-0.148c0.094,0.014,0.16,0.1,0.148,0.196c-0.032,0.231-0.068,0.462-0.112,0.69
					C43.09,35.96,43.019,36.017,42.937,36.017L42.937,36.017z M2.207,37.561c-0.064,0-0.126-0.036-0.156-0.1
					c-0.098-0.211-0.194-0.422-0.284-0.637c-0.038-0.088,0.004-0.188,0.092-0.226c0.086-0.036,0.188,0.004,0.226,0.092
					c0.088,0.21,0.182,0.418,0.278,0.624c0.042,0.086,0.004,0.189-0.082,0.23C2.256,37.557,2.23,37.561,2.207,37.561L2.207,37.561z
					 M42.404,38.021c-0.02,0-0.04-0.004-0.058-0.01c-0.092-0.032-0.138-0.132-0.106-0.222c0.076-0.215,0.146-0.431,0.21-0.648
					c0.028-0.092,0.12-0.146,0.214-0.118c0.092,0.028,0.146,0.124,0.118,0.214c-0.066,0.227-0.138,0.448-0.216,0.668
					C42.541,37.977,42.475,38.021,42.404,38.021L42.404,38.021z M3.178,39.391c-0.058,0-0.116-0.029-0.148-0.084
					c-0.12-0.2-0.236-0.4-0.348-0.604c-0.046-0.084-0.016-0.188,0.068-0.234c0.08-0.047,0.186-0.018,0.234,0.068
					c0.11,0.199,0.224,0.397,0.342,0.592c0.048,0.082,0.022,0.188-0.06,0.238C3.24,39.383,3.208,39.391,3.178,39.391L3.178,39.391z
					 M41.564,39.911c-0.028,0-0.058-0.006-0.084-0.02c-0.084-0.046-0.114-0.152-0.068-0.236c0.108-0.197,0.212-0.4,0.31-0.605
					c0.04-0.086,0.146-0.125,0.23-0.082c0.088,0.042,0.124,0.145,0.082,0.23c-0.102,0.211-0.206,0.42-0.32,0.623
					C41.685,39.88,41.625,39.911,41.564,39.911L41.564,39.911z M4.333,41.114c-0.052,0-0.104-0.025-0.138-0.07
					c-0.14-0.187-0.276-0.375-0.408-0.564c-0.054-0.08-0.036-0.188,0.044-0.242c0.078-0.054,0.184-0.035,0.24,0.045
					c0.13,0.188,0.264,0.371,0.4,0.555c0.058,0.076,0.042,0.185-0.034,0.242C4.404,41.103,4.368,41.114,4.333,41.114L4.333,41.114z
					 M40.43,41.647c-0.038,0-0.074-0.012-0.106-0.038c-0.076-0.056-0.09-0.166-0.032-0.241c0.14-0.181,0.274-0.363,0.402-0.551
					c0.054-0.078,0.162-0.1,0.242-0.044c0.078,0.054,0.098,0.162,0.044,0.242c-0.134,0.19-0.272,0.38-0.414,0.563
					C40.532,41.624,40.482,41.647,40.43,41.647L40.43,41.647z M5.658,42.71c-0.048,0-0.094-0.019-0.128-0.057
					c-0.158-0.17-0.312-0.344-0.464-0.52c-0.062-0.072-0.052-0.182,0.02-0.244c0.072-0.063,0.182-0.055,0.244,0.018
					c0.148,0.174,0.3,0.344,0.454,0.512c0.066,0.07,0.06,0.181-0.01,0.244C5.742,42.696,5.7,42.71,5.658,42.71L5.658,42.71z
					 M39.048,43.191c-0.044,0-0.09-0.019-0.124-0.054c-0.066-0.068-0.064-0.178,0.004-0.244c0.164-0.16,0.324-0.322,0.48-0.488
					c0.066-0.07,0.174-0.072,0.244-0.006c0.07,0.064,0.074,0.174,0.008,0.244c-0.16,0.17-0.324,0.336-0.492,0.498
					C39.136,43.174,39.092,43.191,39.048,43.191L39.048,43.191z M7.136,44.163c-0.04,0-0.082-0.014-0.114-0.043
					c-0.174-0.154-0.346-0.313-0.514-0.471c-0.07-0.068-0.072-0.176-0.008-0.246c0.066-0.072,0.176-0.072,0.246-0.006
					c0.166,0.156,0.334,0.313,0.506,0.462c0.072,0.063,0.078,0.175,0.014,0.246C7.232,44.143,7.185,44.163,7.136,44.163
					L7.136,44.163z M37.466,44.532c-0.052,0-0.104-0.025-0.138-0.07c-0.056-0.076-0.04-0.184,0.036-0.242
					c0.182-0.139,0.362-0.278,0.54-0.42c0.072-0.063,0.182-0.051,0.244,0.025c0.058,0.074,0.048,0.182-0.026,0.242
					c-0.18,0.146-0.364,0.29-0.552,0.43C37.541,44.521,37.502,44.532,37.466,44.532L37.466,44.532z M8.758,45.46
					c-0.034,0-0.07-0.01-0.1-0.032c-0.19-0.136-0.376-0.274-0.56-0.418c-0.076-0.058-0.09-0.166-0.032-0.242s0.168-0.09,0.242-0.032
					c0.184,0.143,0.366,0.278,0.552,0.412c0.078,0.055,0.096,0.164,0.04,0.24C8.866,45.435,8.813,45.46,8.758,45.46L8.758,45.46z
					 M35.736,45.673c-0.06,0-0.116-0.029-0.15-0.086c-0.046-0.082-0.02-0.188,0.064-0.235c0.196-0.116,0.392-0.235,0.584-0.358
					c0.08-0.05,0.188-0.025,0.24,0.055c0.05,0.082,0.026,0.188-0.054,0.24c-0.196,0.123-0.396,0.244-0.596,0.361
					C35.796,45.665,35.767,45.673,35.736,45.673L35.736,45.673z M10.502,46.585c-0.028,0-0.058-0.008-0.086-0.021
					c-0.202-0.117-0.402-0.238-0.6-0.359c-0.08-0.051-0.106-0.156-0.054-0.238c0.05-0.084,0.152-0.11,0.238-0.057
					c0.194,0.123,0.39,0.238,0.588,0.353c0.084,0.048,0.112,0.153,0.066,0.235C10.623,46.553,10.563,46.585,10.502,46.585
					L10.502,46.585z M33.895,46.63c-0.066,0-0.128-0.036-0.158-0.1c-0.04-0.089-0.002-0.191,0.086-0.23
					c0.208-0.096,0.416-0.194,0.62-0.297c0.082-0.041,0.188-0.008,0.232,0.078c0.042,0.086,0.008,0.19-0.078,0.232
					c-0.208,0.102-0.418,0.204-0.63,0.301C33.942,46.626,33.918,46.63,33.895,46.63L33.895,46.63z M31.972,47.413
					c-0.07,0-0.136-0.043-0.162-0.113c-0.032-0.088,0.014-0.188,0.104-0.223c0.216-0.078,0.43-0.158,0.642-0.242
					c0.094-0.029,0.19,0.011,0.226,0.099c0.034,0.09-0.01,0.19-0.098,0.224c-0.216,0.084-0.434,0.166-0.652,0.246
					C32.012,47.411,31.992,47.413,31.972,47.413L31.972,47.413z M12.356,47.525c-0.024,0-0.046-0.004-0.07-0.014
					c-0.214-0.097-0.426-0.194-0.634-0.296c-0.086-0.043-0.122-0.146-0.08-0.232s0.144-0.124,0.232-0.08
					c0.204,0.102,0.412,0.198,0.622,0.29c0.088,0.04,0.128,0.142,0.088,0.229C12.486,47.487,12.422,47.525,12.356,47.525
					L12.356,47.525z M29.995,48.044c-0.078,0-0.146-0.051-0.168-0.129c-0.026-0.092,0.03-0.186,0.122-0.211
					c0.22-0.061,0.442-0.127,0.66-0.192c0.092-0.03,0.188,0.024,0.216,0.114c0.028,0.092-0.024,0.189-0.116,0.215
					c-0.22,0.068-0.444,0.135-0.668,0.197C30.024,48.042,30.008,48.044,29.995,48.044L29.995,48.044z M14.296,48.271
					c-0.018,0-0.036-0.002-0.054-0.008c-0.222-0.072-0.444-0.149-0.662-0.229c-0.09-0.033-0.136-0.133-0.102-0.221
					c0.032-0.09,0.13-0.141,0.222-0.104c0.214,0.078,0.43,0.152,0.65,0.226c0.09,0.028,0.14,0.126,0.11,0.216
					C14.437,48.225,14.371,48.271,14.296,48.271L14.296,48.271z M27.977,48.532c-0.08,0-0.152-0.055-0.17-0.137
					c-0.018-0.094,0.04-0.186,0.134-0.204c0.226-0.048,0.45-0.096,0.674-0.147c0.096-0.022,0.186,0.035,0.208,0.129
					c0.02,0.095-0.038,0.187-0.13,0.209c-0.228,0.052-0.454,0.1-0.682,0.146C27.999,48.532,27.988,48.532,27.977,48.532
					L27.977,48.532z M16.298,48.811c-0.012,0-0.024,0-0.036-0.004c-0.228-0.048-0.454-0.102-0.68-0.158
					c-0.092-0.023-0.15-0.117-0.126-0.21c0.022-0.092,0.106-0.147,0.21-0.126c0.222,0.057,0.444,0.107,0.668,0.156
					c0.094,0.02,0.154,0.111,0.132,0.205C16.45,48.755,16.378,48.811,16.298,48.811L16.298,48.811z M25.933,48.889
					c-0.084,0-0.158-0.064-0.17-0.15c-0.014-0.094,0.052-0.182,0.146-0.193c0.228-0.032,0.454-0.068,0.678-0.104
					c0.1-0.01,0.184,0.048,0.2,0.142c0.016,0.095-0.048,0.185-0.142,0.199c-0.23,0.037-0.458,0.073-0.688,0.105
					C25.948,48.889,25.94,48.889,25.933,48.889L25.933,48.889z M23.873,49.126c-0.088,0-0.166-0.068-0.172-0.158
					c-0.008-0.096,0.062-0.178,0.158-0.188c0.228-0.019,0.456-0.041,0.684-0.064c0.114-0.02,0.18,0.06,0.19,0.154
					c0.012,0.094-0.058,0.18-0.152,0.189c-0.23,0.023-0.462,0.046-0.694,0.066H23.873z M18.346,49.143c-0.006,0-0.014,0-0.018,0
					c-0.234-0.025-0.464-0.057-0.694-0.09c-0.094-0.014-0.158-0.102-0.144-0.196c0.014-0.094,0.088-0.168,0.196-0.146
					c0.226,0.031,0.452,0.062,0.678,0.088c0.096,0.01,0.164,0.096,0.154,0.189C18.508,49.077,18.433,49.143,18.346,49.143
					L18.346,49.143z M21.8,49.247c-0.094,0-0.17-0.074-0.174-0.168c-0.002-0.096,0.072-0.176,0.168-0.178
					c0.23-0.008,0.46-0.016,0.69-0.027c0.08-0.01,0.176,0.067,0.18,0.164c0.006,0.096-0.068,0.176-0.164,0.182
					c-0.23,0.012-0.462,0.02-0.694,0.027H21.8z M20.417,49.265L20.417,49.265c-0.234-0.002-0.466-0.009-0.698-0.019
					c-0.094-0.004-0.17-0.086-0.166-0.18c0.004-0.094,0.082-0.166,0.174-0.166h0.008c0.226,0.01,0.456,0.016,0.684,0.018
					c0.096,0,0.172,0.078,0.172,0.175C20.588,49.189,20.512,49.265,20.417,49.265L20.417,49.265z"/>
			</g>
		</g>
    <g id="Fill-61-Clipped_1_" transform="translate(6.000000, 4.681000)">
			<g id="path-7_1_">
			</g>
      <defs>
				<filter id="Adobe_OpacityMaskFilter_3_" filterUnits="userSpaceOnUse" x="0.292" y="1.552" width="38.726"
                height="38.396">
					<feColorMatrix type="matrix" values="1 0 0 0 0  0 1 0 0 0  0 0 1 0 0  0 0 0 1 0"/>
				</filter>
			</defs>
      <mask maskUnits="userSpaceOnUse" x="0.292" y="1.552" width="38.726" height="38.396" id="mask-9">
				<g filter="url(#Adobe_OpacityMaskFilter_3_)">
					<path id="path-8" fill="#FFFFFF" d="M22.554,2.652c-3.642,2.112-6.822,3.714-9.626,5.13l0,0
						C4.78,11.888,0.292,14.152,0.292,21.36l0,0l0.002,0.268C0.448,31.9,8.498,39.948,18.62,39.948l0,0
						c10.108,0,20.334-4.488,20.398-14.508l0,0l-0.25-0.002h0.25v-0.146c0-4.614-1.326-10.542-3.382-15.098l0,0
						c-2.512-5.572-5.826-8.642-9.334-8.642l0,0C25.076,1.552,23.814,1.922,22.554,2.652 M0.796,21.62l-0.002-0.26
						c0-6.9,4.13-8.982,12.358-13.134l0,0c2.812-1.416,5.998-3.024,9.652-5.14l0,0c1.182-0.686,2.36-1.034,3.498-1.034l0,0
						c7.578,0,12.216,15.046,12.216,23.24l0,0v0.145c-0.04,6.464-5.276,14.012-19.898,14.012l0,0
						C8.772,39.448,0.944,31.616,0.796,21.62"/>
				</g>
			</mask>

      <linearGradient id="Fill-61_3_" gradientUnits="userSpaceOnUse" x1="-193.0947" y1="431.5358" x2="-192.0947"
                      y2="431.5358" gradientTransform="matrix(38.726 0 0 -38.396 7478.0923 16589.998)">
				<stop offset="0" style="stop-color:#F8B133"/>
        <stop offset="1" style="stop-color:#F08700"/>
			</linearGradient>
      <path id="Fill-61_1_" mask="url(#mask-9)" fill="url(#Fill-61_3_)" d="M22.554,2.652c-3.642,2.112-6.822,3.714-9.626,5.13l0,0
				C4.78,11.888,0.292,14.152,0.292,21.36l0,0l0.002,0.268C0.448,31.9,8.498,39.948,18.62,39.948l0,0
				c10.108,0,20.334-4.488,20.398-14.508l0,0l-0.25-0.002h0.25v-0.146c0-4.614-1.326-10.542-3.382-15.098l0,0
				c-2.512-5.572-5.826-8.642-9.334-8.642l0,0C25.076,1.552,23.814,1.922,22.554,2.652 M0.796,21.62l-0.002-0.26
				c0-6.9,4.13-8.982,12.358-13.134l0,0c2.812-1.416,5.998-3.024,9.652-5.14l0,0c1.182-0.686,2.36-1.034,3.498-1.034l0,0
				c7.578,0,12.216,15.046,12.216,23.24l0,0v0.145c-0.04,6.464-5.276,14.012-19.898,14.012l0,0
				C8.772,39.448,0.944,31.616,0.796,21.62"/>
		</g>
    <g id="Group-70_1_" transform="translate(44.000000, 32.681000)">
			<path id="Fill-64_1_" fill="#F8B133" d="M14.711,7.541c0,3.788-3.072,6.86-6.86,6.86c-3.79,0-6.86-3.072-6.86-6.86
				c0-3.79,3.07-6.86,6.86-6.86C11.639,0.68,14.711,3.751,14.711,7.541"/>
		</g>
	</g>
    <g id="Fill-1-Clipped" transform="translate(48.514160, 36.313964)">
		<g id="path-10">
		</g>
      <defs>
			<filter id="Adobe_OpacityMaskFilter_4_" filterUnits="userSpaceOnUse" x="0" y="0" width="7.776" height="7.775">
				<feColorMatrix type="matrix" values="1 0 0 0 0  0 1 0 0 0  0 0 1 0 0  0 0 0 1 0"/>
			</filter>
		</defs>
      <mask maskUnits="userSpaceOnUse" x="0" y="0" width="7.776" height="7.775" id="mask-12">
			<g filter="url(#Adobe_OpacityMaskFilter_4_)">
				<polygon id="path-11" fill="#FFFFFF" points="0,0 7.775,0 7.775,7.776 0,7.776 				"/>
			</g>
		</mask>
      <path id="Fill-1" mask="url(#mask-12)" fill="#FEFEFE" d="M2.978,3.887c0,0.252,0.086,0.463,0.268,0.643
			c0.358,0.361,0.926,0.361,1.284,0c0.182-0.18,0.268-0.391,0.268-0.643S4.711,3.426,4.53,3.246c-0.358-0.362-0.926-0.362-1.284,0
			C3.063,3.426,2.978,3.635,2.978,3.887L2.978,3.887z M3.888,5.377c-0.41,0-0.764-0.147-1.052-0.438
			c-0.29-0.288-0.438-0.643-0.438-1.053s0.148-0.764,0.438-1.051c0.578-0.58,1.526-0.58,2.104,0c0.29,0.287,0.438,0.641,0.438,1.051
			S5.229,4.652,4.939,4.94C4.651,5.23,4.297,5.377,3.888,5.377L3.888,5.377z M3.472,7.196h0.846c0.03-0.152,0.066-0.398,0.108-0.748
			c0.014-0.111,0.094-0.206,0.202-0.24c0.128-0.041,0.256-0.094,0.378-0.158c0.098-0.054,0.224-0.041,0.312,0.028l0.584,0.456
			C5.95,6.499,6.025,6.432,6.144,6.316c0.22-0.216,0.338-0.351,0.4-0.429C6.342,5.68,6.18,5.465,6.067,5.309
			C6.034,5.262,6.016,5.202,6.016,5.143c0-0.047,0.012-0.094,0.034-0.137c0.056-0.104,0.11-0.234,0.164-0.385
			C6.25,4.52,6.337,4.448,6.443,4.43l0.752-0.112V3.477L6.45,3.366C6.342,3.348,6.251,3.272,6.22,3.168
			C6.174,3.032,6.116,2.891,6.043,2.752C6.021,2.709,6.012,2.665,6.012,2.618c0-0.061,0.018-0.117,0.054-0.168
			c0.058-0.08,0.144-0.193,0.26-0.342C6.404,2.01,6.466,1.93,6.512,1.87C6.419,1.758,6.244,1.568,5.896,1.246l-0.592,0.45
			C5.216,1.764,5.1,1.77,5,1.721C4.884,1.665,4.755,1.612,4.618,1.568c-0.104-0.034-0.18-0.124-0.196-0.231L4.306,0.58H3.461
			c-0.034,0.162-0.07,0.41-0.11,0.746C3.337,1.44,3.26,1.536,3.149,1.57C3.02,1.61,2.894,1.662,2.77,1.725
			C2.669,1.78,2.547,1.77,2.458,1.698L1.872,1.244C1.826,1.28,1.748,1.346,1.627,1.465c-0.198,0.196-0.314,0.32-0.378,0.4
			C1.441,2.1,1.594,2.297,1.708,2.461C1.742,2.512,1.76,2.57,1.76,2.627c0,0.049-0.012,0.096-0.036,0.141
			C1.66,2.883,1.605,3.01,1.565,3.143C1.532,3.25,1.441,3.328,1.332,3.346L0.56,3.461l0.018,0.836l0.746,0.108
			C1.436,4.424,1.528,4.504,1.56,4.612C1.602,4.75,1.658,4.887,1.729,5.02c0.022,0.044,0.034,0.092,0.034,0.138
			c0,0.06-0.018,0.12-0.054,0.17c-0.058,0.08-0.146,0.194-0.26,0.341c-0.082,0.1-0.144,0.18-0.188,0.239
			c0.116,0.142,0.324,0.351,0.62,0.62L2.47,6.08c0.09-0.067,0.212-0.077,0.31-0.028c0.114,0.061,0.242,0.113,0.378,0.156
			c0.104,0.034,0.18,0.125,0.196,0.232L3.472,7.196z M4.408,7.776h-1.04c-0.116,0-0.222-0.04-0.306-0.111
			C2.978,7.602,2.917,7.488,2.91,7.36L2.808,6.698c-0.042-0.016-0.086-0.031-0.126-0.05l-0.52,0.394
			C2.052,7.143,1.83,7.28,1.552,7.012C1.144,6.641,0.877,6.37,0.744,6.186c-0.06-0.09-0.088-0.18-0.088-0.278
			c0-0.096,0.03-0.188,0.086-0.272c0.05-0.069,0.134-0.18,0.254-0.33c0.052-0.065,0.1-0.125,0.14-0.178
			C1.107,5.07,1.085,5.012,1.063,4.954l-0.68-0.1c-0.156-0.028-0.242-0.11-0.29-0.174C0.034,4.6,0,4.502,0,4.398v-1.04
			c0-0.1,0.03-0.191,0.09-0.275c0.074-0.101,0.17-0.16,0.278-0.179l0.704-0.106c0.02-0.047,0.038-0.096,0.06-0.142
			C1.025,2.512,0.896,2.348,0.744,2.165C0.674,2.086,0.632,1.98,0.632,1.868c0-0.09,0.032-0.18,0.092-0.27
			C0.82,1.463,0.981,1.288,1.22,1.051c0.526-0.52,0.73-0.489,0.952-0.31l0.5,0.388c0.042-0.018,0.084-0.033,0.126-0.052
			c0.044-0.353,0.084-0.586,0.122-0.731C2.966,0.137,3.14,0,3.368,0h1.04C4.525,0,4.634,0.04,4.716,0.116
			C4.8,0.176,4.859,0.288,4.866,0.417l0.102,0.661c0.044,0.017,0.086,0.032,0.128,0.05l0.526-0.396
			C5.693,0.637,6.03,0.584,6.218,0.752c0.412,0.379,0.684,0.662,0.816,0.842C7.087,1.66,7.12,1.758,7.12,1.868
			c0,0.096-0.03,0.188-0.086,0.271C6.979,2.213,6.897,2.32,6.782,2.467C6.728,2.536,6.68,2.596,6.64,2.65
			c0.024,0.056,0.048,0.112,0.07,0.168l0.684,0.104c0.114,0.016,0.212,0.073,0.286,0.17c0.002,0.002,0.004,0.004,0.006,0.004
			c0.058,0.084,0.09,0.18,0.09,0.279v1.043c0,0.092-0.028,0.182-0.082,0.266c-0.086,0.111-0.182,0.17-0.292,0.188L6.7,4.977
			C6.682,5.026,6.662,5.072,6.644,5.114c0.098,0.135,0.228,0.298,0.388,0.492C7.105,5.7,7.144,5.801,7.144,5.908
			c0,0.11-0.04,0.214-0.114,0.3c-0.084,0.116-0.25,0.299-0.478,0.52C6.204,7.074,6.047,7.143,5.908,7.143
			c-0.094,0-0.188-0.029-0.278-0.088L5.104,6.646C5.062,6.665,5.021,6.68,4.979,6.698c-0.046,0.355-0.084,0.586-0.12,0.73
			C4.804,7.641,4.629,7.776,4.408,7.776L4.408,7.776z"/>
	</g>
</g>
  <g id="Group-2" transform="translate(66.000000, 6.000000)">
	<g id="Fill-1-Clipped_1_" transform="translate(14.000000, 0.000000)">
		<g id="path-1_1_">
		</g>
    <defs>
			<filter id="Adobe_OpacityMaskFilter_5_" filterUnits="userSpaceOnUse" x="0.59" y="0.838" width="19.836"
              height="25.162">
				<feColorMatrix type="matrix" values="1 0 0 0 0  0 1 0 0 0  0 0 1 0 0  0 0 0 1 0"/>
			</filter>
		</defs>
    <mask maskUnits="userSpaceOnUse" x="0.59" y="0.838" width="19.836" height="25.162" id="mask-14">
			<g filter="url(#Adobe_OpacityMaskFilter_5_)">
				<polygon id="path-13" fill="#FFFFFF" points="0.59,0.838 20.426,0.838 20.426,26 0.59,26 				"/>
			</g>
		</mask>
    <path id="Fill-1_1_" mask="url(#mask-14)" fill="#2AACA3" d="M7.998,16.646h4.984l-2.492-9.15L7.998,16.646z M0.59,23.814
			c0-0.066,0.022-0.192,0.068-0.375l6.35-20.825C7.189,2.046,7.605,1.606,8.253,1.3c0.65-0.308,1.394-0.462,2.236-0.462
			c0.842,0,1.588,0.154,2.236,0.462c0.65,0.306,1.064,0.746,1.248,1.314l6.384,20.825c0.044,0.183,0.068,0.309,0.068,0.375
			c0,0.594-0.37,1.104-1.11,1.537C18.576,25.784,17.808,26,17.012,26c-0.98,0-1.56-0.33-1.742-0.99l-1.16-4.268H6.906l-1.16,4.268
			C5.562,25.67,4.981,26,4.003,26c-0.796,0-1.564-0.216-2.304-0.648C0.959,24.918,0.59,24.408,0.59,23.814L0.59,23.814z"/>
	</g>
    <path id="Fill-4" fill="#2AACA3" d="M36.132,17.943V8.897c0-2.778,0.756-4.814,2.27-6.112c1.512-1.298,3.488-1.946,5.922-1.946
		c2.504,0,4.561,0.604,6.164,1.81c1.604,1.206,2.406,2.866,2.406,4.984c0,0.978-0.204,1.644-0.614,1.996
		c-0.41,0.354-1.093,0.53-2.05,0.53c-1.706,0-2.594-0.534-2.662-1.604c-0.068-2.05-1.08-3.074-3.038-3.074
		c-2.048,0-3.072,1.138-3.072,3.416v9.046c0,2.276,1.034,3.414,3.106,3.414c0.638,0,1.166-0.102,1.588-0.309
		c0.42-0.204,0.722-0.516,0.904-0.938c0.182-0.422,0.302-0.768,0.357-1.042c0.059-0.272,0.107-0.648,0.154-1.126
		c0.09-1.07,0.968-1.604,2.63-1.604c0.978,0,1.672,0.176,2.082,0.528c0.41,0.354,0.614,1.02,0.614,1.998
		c0,2.208-0.803,3.947-2.406,5.225c-1.604,1.273-3.66,1.909-6.164,1.909c-2.434,0-4.41-0.647-5.922-1.946
		C36.888,22.758,36.132,20.719,36.132,17.943"/>
    <path id="Fill-6" fill="#2AACA3" d="M55.318,17.943V8.897c0-2.778,0.756-4.814,2.271-6.112s3.487-1.946,5.924-1.946
		c2.504,0,4.558,0.604,6.162,1.81c1.604,1.206,2.408,2.866,2.408,4.984c0,0.978-0.206,1.644-0.616,1.996
		c-0.41,0.354-1.092,0.53-2.048,0.53c-1.708,0-2.595-0.534-2.662-1.604c-0.069-2.05-1.082-3.074-3.04-3.074
		c-2.048,0-3.072,1.138-3.072,3.416v9.046c0,2.276,1.036,3.414,3.106,3.414c0.638,0,1.168-0.102,1.588-0.309
		c0.42-0.204,0.722-0.516,0.903-0.938c0.183-0.422,0.303-0.768,0.361-1.042c0.055-0.272,0.105-0.648,0.153-1.126
		c0.09-1.07,0.966-1.604,2.628-1.604c0.979,0,1.672,0.176,2.082,0.528c0.41,0.354,0.616,1.02,0.616,1.998
		c0,2.208-0.804,3.947-2.408,5.225c-1.604,1.273-3.658,1.909-6.162,1.909c-2.437,0-4.409-0.647-5.924-1.946
		C56.074,22.758,55.318,20.719,55.318,17.943"/>
    <path id="Fill-8" fill="#F08700" d="M79.582,23.207L79.582,23.207c0.17,0.322,4.483,0.296,4.791-4.936V6.417h4.238
		c0.452,0,0.805-0.204,1.061-0.612c0.256-0.408,0.384-0.91,0.384-1.508c0-0.556-0.122-1.038-0.368-1.446
		c-0.246-0.41-0.604-0.612-1.076-0.612H75.344c-0.473,0-0.83,0.202-1.076,0.612c-0.246,0.408-0.368,0.89-0.368,1.446
		c0,0.598,0.128,1.1,0.384,1.508c0.256,0.408,0.61,0.612,1.061,0.612h4.238V23.207z"/>
    <g id="Fill-10-Clipped" transform="translate(0.000000, 2.238400)">
		<g id="path-3_1_">
		</g>
      <defs>
			<filter id="Adobe_OpacityMaskFilter_6_" filterUnits="userSpaceOnUse" x="0" y="0" width="16.156" height="21.082">
				<feColorMatrix type="matrix" values="1 0 0 0 0  0 1 0 0 0  0 0 1 0 0  0 0 0 1 0"/>
			</filter>
		</defs>
      <mask maskUnits="userSpaceOnUse" x="0" y="0" width="16.156" height="21.082" id="mask-16">
			<g filter="url(#Adobe_OpacityMaskFilter_6_)">
				<polygon id="path-15" fill="#FFFFFF" points="0,0 16.156,0 16.156,21.082 0,21.082 				"/>
			</g>
		</mask>
      <path id="Fill-10" mask="url(#mask-16)" fill="#FFAE09" d="M15.788,0.612C15.542,0.204,15.184,0,14.711,0H1.443
			c-0.472,0-0.83,0.204-1.076,0.612C0.124,1.02,0,1.502,0,2.058c0,0.598,0.128,1.1,0.384,1.508c0.256,0.408,0.61,0.612,1.06,0.612
			h4.238v11.45c0.094,5.522,4.43,5.666,4.79,5.362c0-0.008,0.002-0.014,0.002-0.021V4.178h4.238c0.452,0,0.804-0.204,1.06-0.612
			c0.256-0.408,0.384-0.91,0.384-1.508C16.156,1.502,16.034,1.02,15.788,0.612"/>
	</g>
</g>
</svg>
