<?xml version="1.0" encoding="UTF-8"?>
<svg width="93px" height="83px" viewBox="0 0 93 83" version="1.1" xmlns="http://www.w3.org/2000/svg" xmlns:xlink="http://www.w3.org/1999/xlink">
    <title>logo_TACCT_2strat</title>
    <defs>
        <polygon id="path-1" points="0.596879012 0.848548148 20.6777679 0.848548148 20.6777679 26.3209877 0.596879012 26.3209877"></polygon>
        <polygon id="path-3" points="0 0.24134321 16.3550519 0.24134321 16.3550519 21.5836415 0 21.5836415"></polygon>
        <polygon id="path-5" points="0.140108642 1.3362963 43.8916642 1.3362963 43.8916642 49.8734123 0.140108642 49.8734123"></polygon>
        <path d="M22.8324444,2.68474074 C19.1454815,4.82281481 15.9262222,6.44459259 13.0876049,7.87807407 L13.0876049,7.87807407 C4.83901235,12.0347654 0.295604938,14.326716 0.295604938,21.6237037 L0.295604938,21.6237037 L0.29762963,21.8950123 C0.453530864,32.2938272 8.60291358,40.4411852 18.8498765,40.4411852 L18.8498765,40.4411852 C29.0826667,40.4411852 39.4349136,35.8977778 39.4997037,25.7540741 L39.4997037,25.7540741 L39.2466173,25.7520494 L39.4997037,25.7520494 L39.4997037,25.6042469 C39.4997037,20.933284 38.1573333,14.9320988 36.0759506,10.3198519 L36.0759506,10.3198519 C33.5329383,4.67906173 30.1780247,1.57116049 26.626716,1.57116049 L26.626716,1.57116049 C25.3855802,1.57116049 24.108,1.9457284 22.8324444,2.68474074 M0.80582716,21.8869136 L0.803802469,21.6237037 C0.803802469,14.6385185 4.98479012,12.5308148 13.3143704,8.32755556 L13.3143704,8.32755556 C16.1610864,6.89407407 19.3864198,5.26622222 23.0855309,3.12409877 L23.0855309,3.12409877 C24.2821235,2.42962963 25.4746667,2.07733333 26.626716,2.07733333 L26.626716,2.07733333 C34.2982716,2.07733333 38.9935309,17.3090864 38.9935309,25.6042469 L38.9935309,25.6042469 L38.9935309,25.7500247 C38.953037,32.2938272 33.6523951,39.9350123 18.8498765,39.9350123 L18.8498765,39.9350123 C8.8802963,39.9350123 0.955654321,32.006321 0.80582716,21.8869136" id="path-7"></path>
        <linearGradient x1="0.00368382999%" y1="49.999364%" x2="100.000093%" y2="49.999364%" id="linearGradient-9">
            <stop stop-color="#F8B133" offset="0%"></stop>
            <stop stop-color="#F08700" offset="100%"></stop>
        </linearGradient>
        <polygon id="path-10" points="0 -0.000202469136 7.87159506 -0.000202469136 7.87159506 7.87139259 0 7.87139259"></polygon>
    </defs>
    <g id="TACCT-Diagnostic" stroke="none" stroke-width="1" fill="none" fill-rule="evenodd">
        <g id="Accueil-général" transform="translate(-288.000000, -654.000000)">
            <g id="logo_TACCT_2strat" transform="translate(288.000000, 654.000000)">
                <g id="Group-71" transform="translate(0.545717, 0.000000)">
                    <g id="Group-60" transform="translate(0.000000, 0.689407)">
                        <g id="Fill-1-Clipped" transform="translate(14.172840, 54.666667)">
                            <mask id="mask-2" fill="white">
                                <use xlink:href="#path-1"></use>
                            </mask>
                            <g id="path-1"></g>
                            <path d="M8.0963358,16.8517086 L13.1418667,16.8517086 L10.6191012,7.58874568 L8.0963358,16.8517086 Z M0.596879012,24.1082025 C0.596879012,24.0413877 0.619150617,23.9138321 0.665718519,23.7295852 L7.09411358,2.64647407 C7.27836049,2.07146173 7.6994963,1.62602963 8.3554963,1.31625185 C9.01352099,1.00444938 9.76670617,0.848548148 10.6191012,0.848548148 C11.4714963,0.848548148 12.2267062,1.00444938 12.8827062,1.31625185 C13.5407309,1.62602963 13.959842,2.07146173 14.1461136,2.64647407 L20.6089284,23.7295852 C20.6534716,23.9138321 20.6777679,24.0413877 20.6777679,24.1082025 C20.6777679,24.7095358 20.3032,25.2258321 19.5540642,25.6651901 C18.8049284,26.1025235 18.0274469,26.3211901 17.2216198,26.3211901 C16.229521,26.3211901 15.6423605,25.987116 15.4581136,25.3189679 L14.2837926,20.9982765 L6.99085432,20.9982765 L5.81653333,25.3189679 C5.63026173,25.987116 5.04310123,26.3211901 4.05302716,26.3211901 C3.2472,26.3211901 2.46971852,26.1025235 1.72058272,25.6651901 C0.971446914,25.2258321 0.596879012,24.7095358 0.596879012,24.1082025 L0.596879012,24.1082025 Z" id="Fill-1" fill="#2AACA3" fill-rule="nonzero" mask="url(#mask-2)"></path>
                        </g>
                        <path d="M36.5782765,72.8313877 L36.5782765,63.6737086 C36.5782765,60.8614123 37.3436099,58.8002765 38.8763012,57.4862519 C40.4069679,56.1722272 42.407363,55.5162272 44.8714123,55.5162272 C47.4063259,55.5162272 49.4877086,56.127684 51.1115111,57.3485728 C52.7353136,58.5694617 53.5472148,60.2499556 53.5472148,62.3941037 C53.5472148,63.3841778 53.3406963,64.0584 52.9256346,64.4147457 C52.5105728,64.773116 51.8201531,64.9512889 50.8503259,64.9512889 C49.1232642,64.9512889 48.2243012,64.4106963 48.1554617,63.3274864 C48.0866222,61.2521778 47.0621284,60.2155358 45.0799556,60.2155358 C43.0066716,60.2155358 41.9700296,61.3675852 41.9700296,63.6737086 L41.9700296,72.8313877 C41.9700296,75.1354864 43.0167951,76.2875358 45.1143753,76.2875358 C45.7602519,76.2875358 46.2947704,76.1842765 46.7219802,75.9757333 C47.1471654,75.7692148 47.4528938,75.453363 47.6371407,75.0261531 C47.8213877,74.5989432 47.9428691,74.2486716 47.9995605,73.9712889 C48.0582765,73.6959309 48.1088938,73.3152889 48.1554617,72.8313877 C48.2465728,71.7481778 49.1354123,71.2075852 50.8179309,71.2075852 C51.8080049,71.2075852 52.5105728,71.385758 52.9256346,71.7421037 C53.3406963,72.1004741 53.5472148,72.7746963 53.5472148,73.7647704 C53.5472148,76.0000296 52.7353136,77.7615111 51.1115111,79.0532642 C49.4877086,80.3429926 47.4063259,80.9868444 44.8714123,80.9868444 C42.407363,80.9868444 40.4069679,80.3308444 38.8763012,79.0168198 C37.3436099,77.7048198 36.5782765,75.6416593 36.5782765,72.8313877" id="Fill-4" fill="#2AACA3" fill-rule="nonzero"></path>
                        <path d="M56.0017481,72.8313877 L56.0017481,63.6737086 C56.0017481,60.8614123 56.7670815,58.8002765 58.2997728,57.4862519 C59.8324642,56.1722272 61.8308346,55.5162272 64.2969086,55.5162272 C66.8318222,55.5162272 68.9111802,56.127684 70.5349827,57.3485728 C72.1587852,58.5694617 72.9727111,60.2499556 72.9727111,62.3941037 C72.9727111,63.3841778 72.7641679,64.0584 72.3491062,64.4147457 C71.9340444,64.773116 71.2436247,64.9512889 70.2758222,64.9512889 C68.5467358,64.9512889 67.6497975,64.4106963 67.580958,63.3274864 C67.5100938,61.2521778 66.4856,60.2155358 64.5034272,60.2155358 C62.4301432,60.2155358 61.3935012,61.3675852 61.3935012,63.6737086 L61.3935012,72.8313877 C61.3935012,75.1354864 62.4422914,76.2875358 64.5378469,76.2875358 C65.1837235,76.2875358 65.7202667,76.1842765 66.1454519,75.9757333 C66.570637,75.7692148 66.8763654,75.453363 67.0606123,75.0261531 C67.2448593,74.5989432 67.3663407,74.2486716 67.4250568,73.9712889 C67.4817481,73.6959309 67.5323654,73.3152889 67.580958,72.8313877 C67.6720691,71.7481778 68.558884,71.2075852 70.2414025,71.2075852 C71.2314765,71.2075852 71.9340444,71.385758 72.3491062,71.7421037 C72.7641679,72.1004741 72.9727111,72.7746963 72.9727111,73.7647704 C72.9727111,76.0000296 72.1587852,77.7615111 70.5349827,79.0532642 C68.9111802,80.3429926 66.8318222,80.9868444 64.2969086,80.9868444 C61.8308346,80.9868444 59.8324642,80.3308444 58.2997728,79.0168198 C56.7670815,77.7048198 56.0017481,75.6416593 56.0017481,72.8313877" id="Fill-6" fill="#2AACA3" fill-rule="nonzero"></path>
                        <path d="M80.5640889,78.1599704 L80.5640889,78.1599704 C80.7361877,78.4859457 85.1034469,78.4596247 85.4152494,73.1630321 L85.4152494,61.1626864 L89.7055704,61.1626864 C90.1631506,61.1626864 90.5194963,60.9561679 90.7786568,60.5431309 C91.0378173,60.1300938 91.1673975,59.6218963 91.1673975,59.0165136 C91.1673975,58.4536494 91.0438914,57.9656988 90.7948543,57.5526617 C90.5458173,57.1376 90.1833975,56.9331062 89.7055704,56.9331062 L76.2737679,56.9331062 C75.7959407,56.9331062 75.433521,57.1376 75.184484,57.5526617 C74.9354469,57.9656988 74.8119407,58.4536494 74.8119407,59.0165136 C74.8119407,59.6218963 74.941521,60.1300938 75.2006815,60.5431309 C75.459842,60.9561679 75.8182123,61.1626864 76.2737679,61.1626864 L80.5640889,61.1626864 L80.5640889,78.1599704 Z" id="Fill-8" fill="#F08700" fill-rule="nonzero"></path>
                        <g id="Fill-10-Clipped" transform="translate(0.000000, 56.691358)">
                            <mask id="mask-4" fill="white">
                                <use xlink:href="#path-3"></use>
                            </mask>
                            <g id="path-3"></g>
                            <path d="M15.9825086,0.860898765 C15.7334716,0.447861728 15.3710519,0.24134321 14.8932247,0.24134321 L1.46142222,0.24134321 C0.983595062,0.24134321 0.621175309,0.447861728 0.372138272,0.860898765 C0.125125926,1.2739358 -0.000404938272,1.76188642 -0.000404938272,2.32475062 C-0.000404938272,2.93013333 0.129175309,3.43833086 0.388335802,3.8513679 C0.647496296,4.26440494 1.00586667,4.47092346 1.46142222,4.47092346 L5.75174321,4.47092346 L5.75174321,16.0622815 C5.8469037,21.6524543 10.2364346,21.7982321 10.600879,21.490479 C10.600879,21.4823802 10.6029037,21.4763062 10.6029037,21.4682074 L10.6029037,4.47092346 L14.8932247,4.47092346 C15.3508049,4.47092346 15.7071506,4.26440494 15.9663111,3.8513679 C16.2254716,3.43833086 16.3550519,2.93013333 16.3550519,2.32475062 C16.3550519,1.76188642 16.2315457,1.2739358 15.9825086,0.860898765" id="Fill-10" fill="#F8B133" fill-rule="nonzero" mask="url(#mask-4)"></path>
                        </g>
                        <path d="M28.0425827,18.6638074 C27.9170519,18.6152148 27.7955704,18.5564988 27.6659901,18.5160049 L0.462237037,38.8864247 C0.490582716,39.0058815 0.529051852,39.1212889 0.559422222,39.2427704 L28.0425827,18.6638074 Z" id="Fill-13" fill="#2AACA3" fill-rule="nonzero"></path>
                        <path d="M26.0318617,18.243684 C26.023763,18.243684 26.0176889,18.2416593 26.0095901,18.2416593 C25.8091457,18.2416593 25.5925037,18.2801284 25.3839605,18.3003753 L0.150232099,37.1947951 C0.168454321,37.3243753 0.1968,37.4478815 0.217046914,37.575437 L26.0318617,18.243684 Z" id="Fill-15" fill="#2AACA3" fill-rule="nonzero"></path>
                        <path d="M29.5078519,19.4902864 C29.4126914,19.4153728 29.3114568,19.3505827 29.2122469,19.2837679 L0.917185185,40.4701383 C0.955654321,40.5814963 1.00424691,40.6908296 1.04474074,40.8021877 L29.5078519,19.4902864 Z" id="Fill-17" fill="#2AACA3" fill-rule="nonzero"></path>
                        <path d="M30.6475506,20.5619556 C30.5706123,20.4728691 30.4876,20.3959309 30.408637,20.3129185 L1.50211852,41.9568691 C1.54868642,42.0641778 1.60740247,42.1654123 1.65599506,42.2706963 L30.6475506,20.5619556 Z" id="Fill-19" fill="#2AACA3" fill-rule="nonzero"></path>
                        <path d="M31.566963,21.7988395 C31.5041975,21.6996296 31.435358,21.6125679 31.3705679,21.5174074 L2.20691358,43.3537037 C2.26360494,43.4549383 2.33041975,43.5500988 2.38711111,43.6493086 L31.566963,21.7988395 Z" id="Fill-21" fill="#2AACA3" fill-rule="nonzero"></path>
                        <path d="M13.4605531,21.8838765 C13.1406519,21.9770123 12.8268247,22.0701481 12.5190716,22.1612593 L0.433688889,31.2075802 C0.395219753,31.379679 0.352701235,31.5457037 0.318281481,31.7238765 L13.4605531,21.8838765 Z" id="Fill-23" fill="#2AACA3" fill-rule="nonzero"></path>
                        <path d="M33.3782519,25.7858617 L5.00625185,47.0329728 C5.08723951,47.1159852 5.18037531,47.1888741 5.26541235,47.267837 L33.4855605,26.1341086 C33.4511407,26.0187012 33.416721,25.9012691 33.3782519,25.7858617" id="Fill-25" fill="#2AACA3" fill-rule="nonzero"></path>
                        <path d="M21.1975062,19.509116 L0.00708641975,35.3766222 C0.0111358025,35.5143012 0.025308642,35.6499556 0.0334074074,35.7876346 L22.2543951,19.1466963 C21.9020988,19.2681778 21.5417037,19.3937086 21.1975062,19.509116" id="Fill-27" fill="#2AACA3" fill-rule="nonzero"></path>
                        <path d="M1.38063704,28.5748741 C1.26118025,28.7975901 1.13969877,29.0182815 1.03643951,29.2612444 L9.08863704,23.2317136 C8.71609383,23.3572444 8.35164938,23.4868247 8.00340247,23.6164049 L1.38063704,28.5748741 Z" id="Fill-29" fill="#2AACA3" fill-rule="nonzero"></path>
                        <path d="M17.721516,20.6164198 C17.3955407,20.7156296 17.0756395,20.8128148 16.7597877,20.9079753 L0.0844296296,33.3962716 C0.0702567901,33.5501481 0.0479851852,33.7040247 0.0398864198,33.8579012 L17.721516,20.6164198 Z" id="Fill-31" fill="#2AACA3" fill-rule="nonzero"></path>
                        <path d="M32.3254123,23.1551802 C32.2747951,23.0498963 32.2181037,22.9506864 32.163437,22.8474272 L3.0261037,44.6655012 C3.09089383,44.758637 3.16580741,44.8456988 3.23262222,44.9388346 L32.3254123,23.1551802 Z" id="Fill-33" fill="#2AACA3" fill-rule="nonzero"></path>
                        <path d="M34.8996049,36.6290963 C34.8996049,36.4893926 34.8935309,36.3436148 34.8935309,36.2039111 L14.2700247,51.6462321 C14.4279506,51.6725531 14.5838519,51.6968494 14.7417778,51.7211457 L34.8996049,36.6290963 Z" id="Fill-35" fill="#2AACA3" fill-rule="nonzero"></path>
                        <path d="M34.6129086,40.6902222 C34.6351802,40.5302716 34.6594765,40.3763951 34.6797235,40.2123951 L18.8446123,52.0689877 C19.0410074,52.0710123 19.2353778,52.0608889 19.4297481,52.0588642 L34.6129086,40.6902222 Z" id="Fill-37" fill="#2AACA3" fill-rule="nonzero"></path>
                        <path d="M34.8275259,38.6053975 C34.8376494,38.4616444 34.8376494,38.3097926 34.8457481,38.1619901 L16.4595259,51.931916 C16.6275753,51.9460889 16.7956247,51.9683605 16.9636741,51.9805086 L34.8275259,38.6053975 Z" id="Fill-39" fill="#2AACA3" fill-rule="nonzero"></path>
                        <path d="M32.983842,45.7608593 C33.1296198,45.5118222 33.2834963,45.2729086 33.4130765,45.0096988 L24.9053235,51.3793778 C25.2232,51.2983901 25.5329778,51.2052543 25.8407309,51.1100938 L32.983842,45.7608593 Z" id="Fill-41" fill="#2AACA3" fill-rule="nonzero"></path>
                        <path d="M32.957116,24.6054667 C32.9145975,24.4941086 32.8700543,24.3847753 32.8255111,24.275442 L3.95746173,45.8930716 C4.03035062,45.9801333 4.11538765,46.0590963 4.19030123,46.146158 L32.957116,24.6054667 Z" id="Fill-43" fill="#2AACA3" fill-rule="nonzero"></path>
                        <path d="M34.158163,42.9582815 C34.2047309,42.784158 34.2533235,42.6080099 34.295842,42.4257877 L21.5767309,51.9499358 C21.7953975,51.9296889 22.0140642,51.915516 22.2286815,51.8891951 L34.158163,42.9582815 Z" id="Fill-45" fill="#2AACA3" fill-rule="nonzero"></path>
                        <path d="M34.2788346,29.3934568 C34.256563,29.2679259 34.2383407,29.1383457 34.2140444,29.0128148 L7.46584691,49.0410617 C7.56910617,49.1099012 7.67641481,49.1686173 7.78169877,49.2354321 L34.2788346,29.3934568 Z" id="Fill-47" fill="#2AACA3" fill-rule="nonzero"></path>
                        <path d="M33.9239062,27.7334123 C33.8955605,27.6119309 33.8692395,27.4884247 33.8388691,27.3689679 L6.17146173,48.0835852 C6.26459753,48.1584988 6.36380741,48.2273383 6.45694321,48.3002272 L33.9239062,27.7334123 Z" id="Fill-49" fill="#2AACA3" fill-rule="nonzero"></path>
                        <path d="M34.5556099,31.1095852 C34.5394123,30.9800049 34.5232148,30.8504247 34.5049926,30.7188198 L8.8966963,49.8966963 C9.01007901,49.957437 9.13156049,50.0040049 9.2469679,50.062721 L34.5556099,31.1095852 Z" id="Fill-51" fill="#2AACA3" fill-rule="nonzero"></path>
                        <path d="M34.8710568,34.7220395 C34.8670074,34.5863852 34.8528346,34.4487062 34.8447358,34.3130519 L12.2674025,51.2192247 C12.4091309,51.2576938 12.5569333,51.2880642 12.7006864,51.322484 L34.8710568,34.7220395 Z" id="Fill-53" fill="#2AACA3" fill-rule="nonzero"></path>
                        <path d="M34.7554469,32.8852395 C34.7432988,32.7536346 34.7271012,32.6200049 34.7129284,32.4884 L10.4854716,50.6296346 C10.6130272,50.6802519 10.7486815,50.718721 10.876237,50.7652889 L34.7554469,32.8852395 Z" id="Fill-55" fill="#2AACA3" fill-rule="nonzero"></path>
                        <g id="Fill-57-Clipped" transform="translate(12.148148, 0.000000)">
                            <mask id="mask-6" fill="white">
                                <use xlink:href="#path-5"></use>
                            </mask>
                            <g id="path-5"></g>
                            <path d="M30.917442,1.75459753 C30.9093432,1.75459753 30.9012444,1.75459753 30.8931457,1.75257284 C30.6704296,1.72017778 30.4436642,1.69993086 30.2128494,1.68575802 C30.1156642,1.67968395 30.0427753,1.5966716 30.0488494,1.50151111 C30.0549235,1.40432593 30.1318617,1.33548642 30.2330963,1.33548642 C30.4760593,1.34965926 30.7149728,1.37395556 30.9417383,1.40635062 C31.0389235,1.42052346 31.1037136,1.50758519 31.0895407,1.60477037 C31.0794173,1.6918321 31.002479,1.75459753 30.917442,1.75459753 L30.917442,1.75459753 Z M28.129442,1.76674568 C28.0403556,1.76674568 27.965442,1.70195556 27.9553185,1.61286914 C27.9431704,1.51568395 28.0120099,1.42862222 28.1071704,1.41647407 C28.3440593,1.39015309 28.5789235,1.36788148 28.811763,1.34965926 L28.8259358,1.34965926 C28.9170469,1.34965926 28.9939852,1.42052346 29.0000593,1.51163457 C29.008158,1.60881975 28.9352691,1.69385679 28.838084,1.69993086 C28.6092938,1.7161284 28.3805037,1.7384 28.1496889,1.76472099 C28.1415901,1.76674568 28.135516,1.76674568 28.129442,1.76674568 L28.129442,1.76674568 Z M26.0662815,2.15143704 C25.9852938,2.15143704 25.9144296,2.09677037 25.8962074,2.01780741 C25.8719111,1.9246716 25.9286025,1.82951111 26.023763,1.80521481 C26.2545778,1.74852346 26.4853926,1.69588148 26.712158,1.64728889 C26.8032691,1.63311605 26.9004543,1.68980741 26.9207012,1.7849679 C26.9389235,1.8801284 26.8781827,1.97123951 26.7830222,1.99148642 C26.5603062,2.03805432 26.3355654,2.0886716 26.1088,2.14536296 C26.0946272,2.14941235 26.0784296,2.15143704 26.0662815,2.15143704 L26.0662815,2.15143704 Z M32.9340346,2.3012642 C32.911763,2.3012642 32.8894914,2.29721481 32.8672198,2.28709136 C32.6526025,2.19800494 32.4359605,2.11904198 32.2253926,2.05222716 C32.1322568,2.02388148 32.0816395,1.9246716 32.1099852,1.83356049 C32.1403556,1.74042469 32.2375407,1.68778272 32.3286519,1.71815309 C32.5513679,1.78901728 32.7761086,1.87000494 33.0008494,1.96314074 C33.0899358,2.00160988 33.1324543,2.10284444 33.0960099,2.19193086 C33.0676642,2.26077037 33.0028741,2.3012642 32.9340346,2.3012642 L32.9340346,2.3012642 Z M24.0537383,2.75884444 C23.9808494,2.75884444 23.9140346,2.71430123 23.8877136,2.64141235 C23.8553185,2.55232593 23.9039111,2.45109136 23.9950222,2.4186963 C24.2177383,2.33973333 24.442479,2.26279506 24.6631704,2.19193086 C24.7542815,2.16763457 24.855516,2.21420247 24.8838617,2.30531358 C24.9142321,2.39844938 24.8615901,2.49765926 24.770479,2.52600494 C24.5518123,2.59686914 24.3331457,2.67178272 24.1124543,2.74872099 C24.0922074,2.75681975 24.0739852,2.75884444 24.0537383,2.75884444 L24.0537383,2.75884444 Z M34.7562568,3.31968395 C34.721837,3.31968395 34.6853926,3.30956049 34.6550222,3.28728889 C34.4687506,3.15163457 34.2784296,3.0261037 34.0840593,2.90664691 C34.0010469,2.85602963 33.9767506,2.74872099 34.0273679,2.66570864 C34.0779852,2.5826963 34.1852938,2.55637531 34.2683062,2.60699259 C34.4687506,2.73049877 34.6671704,2.8641284 34.859516,3.00180741 C34.938479,3.05849877 34.9567012,3.1678321 34.9000099,3.24679506 C34.8655901,3.29538765 34.8109235,3.31968395 34.7562568,3.31968395 L34.7562568,3.31968395 Z M22.1019358,3.53835062 C22.0330963,3.53835062 21.9703309,3.49988148 21.9399605,3.43509136 C21.9014914,3.34802963 21.9419852,3.24274568 22.0290469,3.20427654 C22.2456889,3.10709136 22.4623309,3.01598025 22.6789728,2.92486914 C22.7660346,2.89044938 22.8692938,2.93094321 22.907763,3.02002963 C22.9442074,3.10911605 22.9016889,3.21237531 22.8126025,3.24881975 C22.6000099,3.33790617 22.3874173,3.42901728 22.1728,3.52417778 C22.1485037,3.53430123 22.1242074,3.53835062 22.1019358,3.53835062 L22.1019358,3.53835062 Z M20.2088494,4.45756049 C20.146084,4.45756049 20.0853432,4.42314074 20.0549728,4.36442469 C20.0104296,4.27736296 20.0428247,4.17207901 20.1278617,4.1275358 C20.3384296,4.01820247 20.5469728,3.91089383 20.755516,3.80560988 C20.8385284,3.76511605 20.9478617,3.7995358 20.9924049,3.88457284 C21.0349235,3.97163457 21.0005037,4.07691852 20.913442,4.11943704 C20.7048988,4.2226963 20.4983802,4.33000494 20.289837,4.43731358 C20.2655407,4.45148642 20.2371951,4.45756049 20.2088494,4.45756049 L20.2088494,4.45756049 Z M36.3253926,4.70659753 C36.2788247,4.70659753 36.2322568,4.68837531 36.197837,4.65193086 C36.0399111,4.48388148 35.8779358,4.31988148 35.7119111,4.16398025 C35.6410469,4.09716543 35.6390222,3.98580741 35.7038123,3.91494321 C35.7706272,3.84407901 35.8819852,3.84205432 35.9528494,3.90886914 C36.1229235,4.07084444 36.2909728,4.23889383 36.4529481,4.41301728 C36.519763,4.48388148 36.5177383,4.59321481 36.4448494,4.66002963 C36.4124543,4.69242469 36.3679111,4.70659753 36.3253926,4.70659753 L36.3253926,4.70659753 Z M18.3765037,5.4861037 C18.315763,5.4861037 18.2590716,5.45573333 18.2246519,5.40106667 C18.1760593,5.31805432 18.2023802,5.21074568 18.2853926,5.16215309 C18.4878617,5.0406716 18.6903309,4.92121481 18.8928,4.80580741 C18.9737877,4.75316543 19.083121,4.78556049 19.1317136,4.87059753 C19.1803062,4.95360988 19.1499358,5.06091852 19.0669235,5.10748642 C18.866479,5.22289383 18.6660346,5.34235062 18.4655901,5.46180741 C18.4372444,5.47800494 18.4068741,5.4861037 18.3765037,5.4861037 L18.3765037,5.4861037 Z M37.6454914,6.33849877 C37.5888,6.33849877 37.536158,6.31217778 37.5017383,6.26358519 C37.3681086,6.0732642 37.2324543,5.88699259 37.0927506,5.70477037 C37.0340346,5.6278321 37.0482074,5.51849877 37.1251457,5.45978272 C37.2000593,5.40106667 37.3114173,5.41523951 37.372158,5.49217778 C37.5118617,5.67844938 37.6535901,5.86877037 37.7892444,6.06314074 C37.8439111,6.1421037 37.8256889,6.25143704 37.7447012,6.3081284 C37.7143309,6.32837531 37.6799111,6.33849877 37.6454914,6.33849877 L37.6454914,6.33849877 Z M16.6008494,6.61385679 C16.544158,6.61385679 16.4894914,6.5875358 16.4550716,6.53691852 C16.4004049,6.45593086 16.4226765,6.34659753 16.5016395,6.29395556 C16.6980346,6.16235062 16.8944296,6.03277037 17.0908247,5.90521481 C17.1697877,5.85054815 17.279121,5.87484444 17.3337877,5.95785679 C17.3844049,6.03884444 17.3621333,6.14817778 17.2811457,6.20081975 C17.0847506,6.32635062 16.8924049,6.45390617 16.6980346,6.58348642 C16.6676642,6.60373333 16.6332444,6.61385679 16.6008494,6.61385679 L16.6008494,6.61385679 Z M14.8818864,7.82664691 C14.8292444,7.82664691 14.7766025,7.80235062 14.7421827,7.75578272 C14.6834667,7.67884444 14.6996642,7.56951111 14.7766025,7.51079506 C14.9669235,7.37109136 15.1552198,7.23341235 15.3475654,7.09573333 C15.4265284,7.04309136 15.5358617,7.0572642 15.5905284,7.13622716 C15.6472198,7.21519012 15.6289975,7.32452346 15.5500346,7.38121481 C15.3617383,7.51686914 15.173442,7.65454815 14.9871704,7.79222716 C14.9547753,7.81652346 14.9183309,7.82664691 14.8818864,7.82664691 L14.8818864,7.82664691 Z M38.7509728,8.12630123 C38.6882074,8.12630123 38.6294914,8.09390617 38.5970963,8.03721481 C38.4837136,7.8306963 38.3683062,7.62822716 38.2528988,7.4318321 C38.2043062,7.34881975 38.2306272,7.23948642 38.3136395,7.19089383 C38.3946272,7.14432593 38.5059852,7.16862222 38.5545778,7.25365926 C38.6740346,7.4541037 38.789442,7.65859753 38.9028247,7.86916543 C38.9493926,7.95420247 38.9190222,8.05948642 38.8339852,8.10605432 C38.8076642,8.12022716 38.7793185,8.12630123 38.7509728,8.12630123 L38.7509728,8.12630123 Z M13.2196148,9.11435062 C13.1669728,9.11435062 13.1163556,9.0941037 13.0819358,9.04956049 C13.0232198,8.97464691 13.0333432,8.86531358 13.1102815,8.80254815 C13.290479,8.65677037 13.4747259,8.5089679 13.6589728,8.36521481 C13.7318617,8.30447407 13.8432198,8.31864691 13.9039605,8.39558519 C13.9647012,8.47049877 13.9505284,8.58185679 13.8756148,8.64057284 C13.6933926,8.78432593 13.5111704,8.92807901 13.3289481,9.07588148 C13.2965531,9.10220247 13.258084,9.11435062 13.2196148,9.11435062 L13.2196148,9.11435062 Z M39.6762568,10.0133136 C39.609442,10.0133136 39.5466765,9.97484444 39.5163062,9.91005432 C39.4211457,9.69543704 39.3239605,9.48284444 39.2267753,9.27632593 C39.1842568,9.18723951 39.2227259,9.08398025 39.3097877,9.04348642 C39.3968494,8.99894321 39.5001086,9.03943704 39.5426272,9.12649877 C39.6438617,9.33706667 39.7390222,9.55168395 39.8362074,9.76832593 C39.8767012,9.85538765 39.8362074,9.95864691 39.747121,9.99914074 C39.7248494,10.0092642 39.7005531,10.0133136 39.6762568,10.0133136 L39.6762568,10.0133136 Z M11.6140346,10.4769679 C11.565442,10.4769679 11.5168494,10.456721 11.4824296,10.4162272 C11.4176395,10.345363 11.4257383,10.2340049 11.4986272,10.1692148 C11.6747753,10.0153383 11.8509235,9.85943704 12.0290963,9.70556049 C12.1040099,9.64077037 12.2113185,9.65089383 12.2761086,9.72378272 C12.3388741,9.7966716 12.3307753,9.90802963 12.2578864,9.97079506 C12.0817383,10.1246716 11.9055901,10.2765235 11.729442,10.4324247 C11.6970469,10.4627951 11.6545284,10.4769679 11.6140346,10.4769679 L11.6140346,10.4769679 Z M10.0691951,11.9043753 C10.0226272,11.9043753 9.97605926,11.8861531 9.9436642,11.8517333 C9.87482469,11.7828938 9.87684938,11.6695111 9.94771358,11.604721 C10.115763,11.440721 10.285837,11.2787457 10.4579358,11.1187951 C10.5267753,11.0519802 10.6381333,11.0560296 10.7049481,11.1268938 C10.7697383,11.197758 10.7656889,11.3070914 10.6968494,11.3739062 C10.5267753,11.5338568 10.3567012,11.6938074 10.1906765,11.8557827 C10.1562568,11.8881778 10.1117136,11.9043753 10.0691951,11.9043753 L10.0691951,11.9043753 Z M40.4577877,11.965116 C40.3869235,11.965116 40.318084,11.9205728 40.291763,11.8497086 C40.2128,11.631042 40.1318123,11.4144 40.0488,11.197758 C40.0123556,11.1086716 40.0589235,11.0054123 40.1480099,10.9709926 C40.239121,10.9385975 40.3383309,10.981116 40.3747753,11.0722272 C40.4598123,11.2888691 40.5408,11.5075358 40.6217877,11.7322765 C40.6562074,11.8233877 40.6076148,11.9225975 40.5165037,11.9570173 C40.4962568,11.9630914 40.4780346,11.965116 40.4577877,11.965116 L40.4577877,11.965116 Z M8.59117037,13.3945481 C8.54662716,13.3945481 8.50410864,13.3783506 8.46968889,13.3479802 C8.39882469,13.2791407 8.3968,13.1698074 8.46361481,13.0989432 C8.62356543,12.9288691 8.78554074,12.7608198 8.95156543,12.5927704 C9.02040494,12.5219062 9.12973827,12.5219062 9.19857778,12.5927704 C9.26741728,12.6595852 9.26944198,12.7709432 9.20060247,12.8397827 C9.03660247,13.0058074 8.87665185,13.1718321 8.71872593,13.3398815 C8.68430617,13.3763259 8.63773827,13.3945481 8.59117037,13.3945481 L8.59117037,13.3945481 Z M41.1198617,13.9614617 C41.0429235,13.9614617 40.974084,13.9128691 40.9518123,13.8379556 C40.8829728,13.6132148 40.8141333,13.3904988 40.7432691,13.1698074 C40.7128988,13.0786963 40.7655407,12.9794864 40.8566519,12.949116 C40.9457383,12.9248198 41.0449481,12.9713877 41.0773432,13.0624988 C41.1482074,13.2852148 41.2170469,13.5099556 41.2858864,13.7346963 C41.3142321,13.8278321 41.2615901,13.9250173 41.170479,13.953363 C41.1522568,13.959437 41.1360593,13.9614617 41.1198617,13.9614617 L41.1198617,13.9614617 Z M7.1779358,14.9535605 C7.13744198,14.9535605 7.09694815,14.9393877 7.0625284,14.911042 C6.98963951,14.8462519 6.98154074,14.7369185 7.04430617,14.6620049 C7.19818272,14.4858568 7.35205926,14.3097086 7.50998519,14.1335605 C7.57477531,14.0606716 7.68208395,14.0545975 7.75699753,14.1193877 C7.82988642,14.1841778 7.83596049,14.2955358 7.77117037,14.3664 C7.61526914,14.5405235 7.46139259,14.7166716 7.30954074,14.8928198 C7.27512099,14.9312889 7.2265284,14.9535605 7.1779358,14.9535605 L7.1779358,14.9535605 Z M41.6807012,15.9902025 C41.603763,15.9902025 41.5308741,15.9375605 41.5106272,15.8565728 C41.4539358,15.6318321 41.3952198,15.4050667 41.3365037,15.1803259 C41.3101827,15.0871901 41.3668741,14.9920296 41.4600099,14.9657086 C41.5612444,14.9474864 41.6503309,14.9981037 41.6726025,15.0892148 C41.7333432,15.3159802 41.794084,15.5447704 41.8507753,15.7715358 C41.8750716,15.8666963 41.8183802,15.9618568 41.7232198,15.9841284 C41.7110716,15.9881778 41.6948741,15.9902025 41.6807012,15.9902025 L41.6807012,15.9902025 Z M5.84163951,16.5753383 C5.80317037,16.5753383 5.76470123,16.5631901 5.73433086,16.5388938 C5.65739259,16.4781531 5.64321975,16.3688198 5.70396049,16.2939062 C5.84771358,16.1096593 5.99349136,15.9254123 6.14129383,15.7431901 C6.20000988,15.6682765 6.31541728,15.6581531 6.38628148,15.7168691 C6.46321975,15.7776099 6.47334321,15.8869432 6.41260247,15.9638815 C6.26682469,16.144079 6.12104691,16.3263012 5.97931852,16.5085235 C5.94489877,16.5530667 5.89225679,16.5753383 5.84163951,16.5753383 L5.84163951,16.5753383 Z M42.154479,18.0371654 C42.0734914,18.0371654 42.0006025,17.9804741 41.9844049,17.8974617 C41.9358123,17.6706963 41.8851951,17.4439309 41.8345778,17.2171654 C41.8143309,17.1220049 41.8730469,17.0288691 41.9682074,17.0065975 C42.0552691,16.9823012 42.154479,17.0450667 42.1767506,17.1402272 C42.2273679,17.3669926 42.2779852,17.5957827 42.3265778,17.8245728 C42.3468247,17.9197333 42.286084,18.0128691 42.1909235,18.033116 C42.1787753,18.0351407 42.1666272,18.0371654 42.154479,18.0371654 L42.154479,18.0371654 Z M4.59038025,18.2679802 C4.5539358,18.2679802 4.51951605,18.2578568 4.48914568,18.2355852 C4.41018272,18.1809185 4.3899358,18.0715852 4.44662716,17.9926222 C4.58025679,17.8002765 4.71591111,17.6099556 4.85561481,17.4176099 C4.91230617,17.3386469 5.01961481,17.3204247 5.10060247,17.3791407 C5.17754074,17.4378568 5.19576296,17.5451654 5.1390716,17.6241284 C5.00139259,17.8124247 4.86573827,18.0027457 4.73210864,18.1930667 C4.69971358,18.2416593 4.64504691,18.2679802 4.59038025,18.2679802 L4.59038025,18.2679802 Z M3.44035556,20.027437 C3.40998519,20.027437 3.37759012,20.0193383 3.34924444,20.0031407 C3.2662321,19.9525235 3.23991111,19.8452148 3.2905284,19.7622025 C3.41200988,19.561758 3.53551605,19.3633383 3.6630716,19.1628938 C3.71571358,19.0819062 3.82302222,19.0576099 3.90400988,19.1102519 C3.98702222,19.1628938 4.00929383,19.2702025 3.95867654,19.3511901 C3.83314568,19.5496099 3.70963951,19.7460049 3.58815802,19.9444247 C3.55576296,19.9990914 3.4990716,20.027437 3.44035556,20.027437 L3.44035556,20.027437 Z M42.5573926,20.1023506 C42.4723556,20.1023506 42.3994667,20.0416099 42.3852938,19.9565728 C42.3448,19.725758 42.3022815,19.4969679 42.259763,19.2681778 C42.2415407,19.1730173 42.3043062,19.0819062 42.397442,19.063684 C42.4926025,19.0454617 42.5857383,19.1082272 42.6019358,19.2033877 C42.646479,19.4342025 42.6869728,19.6650173 42.7274667,19.8958321 C42.7456889,19.9909926 42.6829235,20.0821037 42.587763,20.0983012 C42.5756148,20.1003259 42.5654914,20.1023506 42.5573926,20.1023506 L42.5573926,20.1023506 Z M2.41181235,21.8618074 C2.38549136,21.8618074 2.35714568,21.8557333 2.33082469,21.8435852 C2.24578765,21.799042 2.2113679,21.693758 2.25591111,21.6066963 C2.36119506,21.4001778 2.47255309,21.1916346 2.5859358,20.985116 C2.6325037,20.8980543 2.73981235,20.8656593 2.82484938,20.9142519 C2.90988642,20.9608198 2.94025679,21.0681284 2.89368889,21.1531654 C2.78233086,21.3576593 2.67299753,21.5621531 2.56771358,21.7666469 C2.53531852,21.8273877 2.47457778,21.8618074 2.41181235,21.8618074 L2.41181235,21.8618074 Z M42.889442,22.1817086 C42.8044049,22.1817086 42.7294914,22.1189432 42.7173432,22.0318815 C42.6829235,21.8010667 42.6485037,21.5702519 42.6120593,21.339437 C42.5978864,21.2422519 42.6626765,21.1551901 42.7598617,21.1389926 C42.8509728,21.1268444 42.9441086,21.1896099 42.9582815,21.2847704 C42.9947259,21.5176099 43.0291457,21.7484247 43.0635654,21.9812642 C43.0757136,22.0764247 43.0109235,22.1655111 42.9137383,22.179684 C42.9056395,22.1817086 42.8975407,22.1817086 42.889442,22.1817086 L42.889442,22.1817086 Z M1.5330963,23.7710914 C1.51284938,23.7710914 1.48855309,23.767042 1.46830617,23.7589432 C1.37921975,23.7224988 1.33467654,23.6192395 1.37112099,23.5301531 C1.46020741,23.3135111 1.55131852,23.0968691 1.64647901,22.8802272 C1.68697284,22.7911407 1.79225679,22.7546963 1.87931852,22.7911407 C1.96638025,22.8296099 2.00687407,22.9328691 1.96840494,23.0219556 C1.87324444,23.2345481 1.78213333,23.4491654 1.6950716,23.661758 C1.66875062,23.7305975 1.6019358,23.7710914 1.5330963,23.7710914 L1.5330963,23.7710914 Z M43.1546765,24.2468938 C43.0696395,24.2468938 43.0008,24.1983012 42.9886519,24.1112395 C42.9582815,23.8561284 42.9339852,23.6374617 42.9036148,23.4167704 C42.8934914,23.3216099 42.9603062,23.2345481 43.0574914,23.2224 C43.1486025,23.2041778 43.2397136,23.2770667 43.2518617,23.3742519 C43.2802074,23.5929185 43.3065284,23.8136099 43.3328494,24.0302519 C43.3449975,24.127437 43.2781827,24.2347457 43.1830222,24.2448691 C43.1728988,24.2468938 43.1627753,24.2468938 43.1546765,24.2468938 L43.1546765,24.2468938 Z M0.848750617,25.7573136 C0.832553086,25.7573136 0.816355556,25.7552889 0.800158025,25.7532642 C0.709046914,25.7249185 0.654380247,25.629758 0.678676543,25.5366222 C0.743466667,25.3118815 0.812306173,25.085116 0.885195062,24.8583506 C0.915565432,24.7672395 1.01275062,24.7145975 1.10588642,24.7469926 C1.19902222,24.777363 1.24963951,24.8745481 1.21926914,24.967684 C1.14638025,25.1904 1.07956543,25.4110914 1.0168,25.629758 C0.996553086,25.708721 0.925688889,25.7573136 0.848750617,25.7573136 L0.848750617,25.7573136 Z M43.3794173,26.3586469 C43.2883062,26.3586469 43.2133926,26.2918321 43.2052938,26.200721 L43.138479,25.5022025 C43.1283556,25.407042 43.1992198,25.3220049 43.2964049,25.3118815 C43.387516,25.2997333 43.4786272,25.3726222 43.4867259,25.4698074 L43.5535407,26.1683259 C43.5636642,26.2634864 43.4907753,26.3485235 43.3956148,26.3586469 C43.3895407,26.3586469 43.3834667,26.3586469 43.3794173,26.3586469 L43.3794173,26.3586469 Z M0.419516049,27.8123753 C0.411417284,27.8123753 0.40534321,27.8123753 0.397244444,27.8103506 C0.300059259,27.7982025 0.233244444,27.709116 0.245392593,27.6139556 C0.277787654,27.381116 0.314232099,27.1482765 0.358775309,26.9113877 C0.376997531,26.8162272 0.470133333,26.7575111 0.563269136,26.771684 C0.65842963,26.7899062 0.71917037,26.8810173 0.70297284,26.9782025 C0.660454321,27.2069926 0.624009877,27.433758 0.593639506,27.6584988 C0.581491358,27.7475852 0.506577778,27.8123753 0.419516049,27.8123753 L0.419516049,27.8123753 Z M43.5413926,28.4562272 C43.4502815,28.4562272 43.3733432,28.3873877 43.3672691,28.2942519 L43.3186765,27.5957333 C43.3126025,27.4985481 43.3854914,27.4135111 43.4806519,27.407437 L43.4928,27.407437 C43.5839111,27.407437 43.6608494,27.4783012 43.6689481,27.5694123 L43.7175407,28.2699556 C43.7236148,28.3671407 43.6507259,28.4501531 43.5535407,28.4562272 L43.5413926,28.4562272 Z M0.322330864,29.9059062 C0.22717037,29.9059062 0.150232099,29.8309926 0.148207407,29.7358321 C0.142133333,29.5495605 0.140108642,29.3632889 0.140108642,29.1729679 L0.140108642,29.0271901 C0.142133333,28.9320296 0.221096296,28.857116 0.31625679,28.857116 L0.320306173,28.857116 C0.417491358,28.8591407 0.492404938,28.9381037 0.490380247,29.0352889 L0.490380247,29.1729679 C0.490380247,29.3592395 0.492404938,29.5434864 0.498479012,29.7257086 C0.500503704,29.8228938 0.423565432,29.9038815 0.328404938,29.9059062 L0.322330864,29.9059062 Z M43.6527506,30.5517827 C43.5596148,30.5517827 43.4826765,30.4849679 43.4786272,30.3918321 C43.4685037,30.1488691 43.4583802,29.9221037 43.4462321,29.6912889 C43.4421827,29.5941037 43.5150716,29.513116 43.6122568,29.5090667 C43.7175407,29.5191901 43.7904296,29.5779062 43.7965037,29.6750914 C43.8086519,29.9038815 43.8187753,30.1346963 43.8268741,30.3614617 C43.8309235,30.4586469 43.7560099,30.5477333 43.6588247,30.5517827 C43.6568,30.5517827 43.6547753,30.5517827 43.6527506,30.5517827 L43.6527506,30.5517827 Z M0.484306173,31.999437 C0.397244444,31.999437 0.322330864,31.9366716 0.310182716,31.8475852 C0.279812346,31.6167704 0.253491358,31.3819062 0.233244444,31.1450173 C0.223120988,31.0498568 0.293985185,30.9648198 0.39117037,30.9546963 C0.470133333,30.9364741 0.571367901,31.0174617 0.581491358,31.1126222 C0.601738272,31.343437 0.628059259,31.5742519 0.65842963,31.803042 C0.670577778,31.8982025 0.601738272,31.9872889 0.506577778,31.999437 C0.498479012,31.999437 0.490380247,31.999437 0.484306173,31.999437 L0.484306173,31.999437 Z M43.7074173,32.649363 C43.6142815,32.649363 43.5353185,32.5865975 43.5332938,32.4894123 L43.5211457,31.7888691 C43.519121,31.6937086 43.5960593,31.612721 43.6932444,31.6106963 L43.6972938,31.6106963 C43.7904296,31.6106963 43.8693926,31.6876346 43.8714173,31.7827951 L43.8835654,32.4610667 C43.8855901,32.5562272 43.8086519,32.6473383 43.7114667,32.649363 L43.7074173,32.649363 Z M0.858874074,34.0666469 C0.779911111,34.0666469 0.709046914,34.0119802 0.6888,33.9330173 C0.634133333,33.7042272 0.585540741,33.4734123 0.53897284,33.2425975 C0.518725926,33.147437 0.581491358,33.0543012 0.67462716,33.036079 C0.773837037,33.0178568 0.862923457,33.0785975 0.88317037,33.173758 C0.92771358,33.4005235 0.976306173,33.6272889 1.02894815,33.8520296 C1.05324444,33.9451654 0.994528395,34.0403259 0.899367901,34.0625975 C0.885195062,34.0646222 0.873046914,34.0666469 0.858874074,34.0666469 L0.858874074,34.0666469 Z M43.7013432,34.3784494 L43.6932444,34.3784494 C43.598084,34.3744 43.5231704,34.2934123 43.5272198,34.1962272 C43.5353185,33.9694617 43.5413926,33.7386469 43.5413926,33.5058074 C43.5413926,33.4086222 43.6183309,33.3296593 43.715516,33.3296593 C43.8127012,33.3296593 43.8916642,33.4086222 43.8916642,33.5058074 C43.8916642,33.744721 43.8855901,33.9795852 43.8754667,34.2124247 C43.8714173,34.3055605 43.794479,34.3784494 43.7013432,34.3784494 L43.7013432,34.3784494 Z M1.44400988,36.0832395 C1.37314568,36.0832395 1.30430617,36.0386963 1.28000988,35.9658074 C1.2030716,35.7430914 1.12815802,35.5203753 1.05931852,35.2936099 C1.03097284,35.2024988 1.08159012,35.1053136 1.17472593,35.0769679 C1.26786173,35.0425481 1.36504691,35.1012642 1.39339259,35.1923753 C1.4622321,35.4130667 1.53512099,35.6317333 1.61003457,35.8504 C1.64242963,35.9435358 1.59383704,36.0427457 1.50272593,36.073116 C1.48247901,36.0812148 1.46425679,36.0832395 1.44400988,36.0832395 L1.44400988,36.0832395 Z M43.466479,36.4618568 C43.4563556,36.4618568 43.4442074,36.4618568 43.434084,36.4598321 C43.3389235,36.4416099 43.276158,36.3484741 43.2943802,36.2553383 C43.3368988,36.0305975 43.3733432,35.8038321 43.4037136,35.5730173 C43.4178864,35.4758321 43.5049481,35.4150914 43.6021333,35.4231901 C43.6972938,35.437363 43.7641086,35.5244247 43.7519605,35.6216099 C43.7195654,35.8564741 43.683121,36.0893136 43.6385778,36.3201284 C43.6223802,36.4031407 43.5494914,36.4618568 43.466479,36.4618568 L43.466479,36.4618568 Z M2.23363951,38.0249185 C2.16884938,38.0249185 2.10608395,37.9884741 2.07571358,37.923684 C1.9765037,37.7110914 1.87931852,37.4964741 1.78820741,37.2798321 C1.74973827,37.1907457 1.79225679,37.0895111 1.88134321,37.051042 C1.96840494,37.0145975 2.0716642,37.0550914 2.11013333,37.1441778 C2.19921975,37.3567704 2.29438025,37.5673383 2.39156543,37.7758815 C2.43408395,37.8629432 2.39561481,37.9682272 2.30855309,38.008721 C2.28425679,38.0208691 2.2579358,38.0249185 2.23363951,38.0249185 L2.23363951,38.0249185 Z M42.9279111,38.4905975 C42.9076642,38.4905975 42.8874173,38.4865481 42.8691951,38.4804741 C42.7760593,38.448079 42.7294914,38.3468444 42.7618864,38.2557333 C42.8388247,38.0390914 42.9096889,37.8204247 42.974479,37.5997333 C43.0028247,37.5065975 43.0959605,37.4519309 43.191121,37.4802765 C43.2842568,37.5086222 43.3389235,37.6058074 43.3105778,37.6969185 C43.243763,37.9257086 43.1708741,38.1504494 43.0919111,38.3731654 C43.0655901,38.4460543 42.9987753,38.4905975 42.9279111,38.4905975 L42.9279111,38.4905975 Z M3.21763951,39.8775111 C3.15892346,39.8775111 3.10020741,39.8471407 3.06781235,39.7924741 C2.94633086,39.5900049 2.82889877,39.3875358 2.71551605,39.1810173 C2.66894815,39.0959802 2.69931852,38.9906963 2.78435556,38.9441284 C2.86534321,38.8975605 2.97265185,38.9259062 3.02124444,39.0129679 C3.13260247,39.215437 3.24800988,39.4158815 3.36746667,39.6122765 C3.41605926,39.6952889 3.38973827,39.8025975 3.30672593,39.8532148 C3.28040494,39.8694123 3.24800988,39.8775111 3.21763951,39.8775111 L3.21763951,39.8775111 Z M42.0775407,40.4039309 C42.0491951,40.4039309 42.0188247,40.3978568 41.9925037,40.383684 C41.9074667,40.337116 41.8770963,40.2298074 41.9236642,40.1447704 C42.0329975,39.9443259 42.1382815,39.7398321 42.2374914,39.5312889 C42.2779852,39.4442272 42.3852938,39.405758 42.4703309,39.4482765 C42.5594173,39.4907951 42.5958617,39.5940543 42.5533432,39.681116 C42.450084,39.8957333 42.3448,40.1063012 42.2293926,40.3128198 C42.1990222,40.3715358 42.1382815,40.4039309 42.0775407,40.4039309 L42.0775407,40.4039309 Z M4.38588642,41.6207704 C4.33324444,41.6207704 4.28060247,41.5964741 4.24618272,41.5499062 C4.10445432,41.3616099 3.96677531,41.1712889 3.83314568,40.9789432 C3.77847901,40.8979556 3.79670123,40.7886222 3.87768889,40.7339556 C3.95665185,40.6792889 4.06396049,40.6975111 4.12065185,40.7784988 C4.25225679,40.9688198 4.38791111,41.1550914 4.52559012,41.341363 C4.58430617,41.4183012 4.56810864,41.5276346 4.49117037,41.5863506 C4.45877531,41.6106469 4.42233086,41.6207704 4.38588642,41.6207704 L4.38588642,41.6207704 Z M40.9295407,42.161363 C40.8910716,42.161363 40.8546272,42.1492148 40.8222321,42.1228938 C40.7452938,42.0662025 40.731121,41.9548444 40.789837,41.8779062 C40.9315654,41.695684 41.0672198,41.511437 41.1968,41.321116 C41.2514667,41.2421531 41.3608,41.2198815 41.4417877,41.2765728 C41.5207506,41.3312395 41.5409975,41.4405728 41.4863309,41.5215605 C41.3506765,41.7139062 41.2109728,41.9062519 41.0672198,42.0925235 C41.0328,42.1370667 40.9821827,42.161363 40.9295407,42.161363 L40.9295407,42.161363 Z M5.72825679,43.2364741 C5.6796642,43.2364741 5.6330963,43.2182519 5.59867654,43.1797827 C5.43872593,43.007684 5.28282469,42.8315358 5.12894815,42.653363 C5.06618272,42.5804741 5.07630617,42.469116 5.14919506,42.4063506 C5.22208395,42.3435852 5.33344198,42.351684 5.39620741,42.4245728 C5.54603457,42.600721 5.69991111,42.7728198 5.85581235,42.9428938 C5.92262716,43.013758 5.91655309,43.125116 5.84568889,43.1899062 C5.81329383,43.2223012 5.77077531,43.2364741 5.72825679,43.2364741 L5.72825679,43.2364741 Z M39.530479,43.7244247 C39.4859358,43.7244247 39.4393679,43.7062025 39.4049481,43.669758 C39.3381333,43.6009185 39.340158,43.4895605 39.4089975,43.4227457 C39.5750222,43.2607704 39.7369975,43.0967704 39.8949235,42.928721 C39.9617383,42.8578568 40.0710716,42.8558321 40.1419358,42.9226469 C40.2128,42.987437 40.2168494,43.0987951 40.1500346,43.1696593 C39.9880593,43.341758 39.8220346,43.5098074 39.6519605,43.6738074 C39.6195654,43.7082272 39.5750222,43.7244247 39.530479,43.7244247 L39.530479,43.7244247 Z M7.2245037,44.7084247 C7.18400988,44.7084247 7.14149136,44.6942519 7.1090963,44.6638815 C6.93294815,44.5079802 6.75882469,44.3480296 6.58875062,44.188079 C6.51788642,44.1192395 6.51586173,44.0099062 6.58065185,43.939042 C6.64746667,43.8661531 6.75882469,43.8661531 6.82968889,43.9329679 C6.99773827,44.0908938 7.16781235,44.2488198 7.3419358,44.4006716 C7.41482469,44.4654617 7.42089877,44.5768198 7.35610864,44.6497086 C7.32168889,44.6881778 7.2730963,44.7084247 7.2245037,44.7084247 L7.2245037,44.7084247 Z M37.9289481,45.0809679 C37.8763062,45.0809679 37.8236642,45.0566716 37.7892444,45.0101037 C37.7325531,44.9331654 37.7487506,44.8238321 37.8256889,44.765116 C38.0099358,44.6254123 38.192158,44.483684 38.3723556,44.3399309 C38.4452444,44.2771654 38.5566025,44.2893136 38.6193679,44.3662519 C38.678084,44.4411654 38.6679605,44.5504988 38.5930469,44.6112395 C38.4108247,44.759042 38.2245531,44.9048198 38.0342321,45.0465481 C38.0038617,45.0708444 37.9653926,45.0809679 37.9289481,45.0809679 L37.9289481,45.0809679 Z M8.8665284,46.0204247 C8.83210864,46.0204247 8.7956642,46.0103012 8.76529383,45.9880296 C8.57294815,45.8503506 8.38465185,45.7106469 8.19838025,45.5648691 C8.12144198,45.5061531 8.10726914,45.3968198 8.16598519,45.3198815 C8.22470123,45.2429432 8.33605926,45.2287704 8.41097284,45.2874864 C8.59724444,45.4312395 8.78149136,45.5689185 8.96978765,45.7045728 C9.04875062,45.7592395 9.06697284,45.8705975 9.01028148,45.9475358 C8.97586173,45.9961284 8.92119506,46.0204247 8.8665284,46.0204247 L8.8665284,46.0204247 Z M36.1775901,46.2370667 C36.1168494,46.2370667 36.060158,46.2066963 36.0257383,46.1500049 C35.9791704,46.0669926 36.0054914,45.959684 36.0905284,45.9110914 C36.2889481,45.7936593 36.4873679,45.6721778 36.6817383,45.5486716 C36.7627259,45.4980543 36.8720593,45.5223506 36.9247012,45.6033383 C36.9753185,45.6863506 36.9510222,45.7936593 36.8700346,45.8463012 C36.6716148,45.9718321 36.4691457,46.0933136 36.2666765,46.2127704 C36.2383309,46.2289679 36.2079605,46.2370667 36.1775901,46.2370667 L36.1775901,46.2370667 Z M10.6320593,47.1603259 C10.6037136,47.1603259 10.5733432,47.1522272 10.5449975,47.1380543 C10.3405037,47.0185975 10.1380346,46.897116 9.93759012,46.7736099 C9.85660247,46.7229926 9.83028148,46.615684 9.88292346,46.5326716 C9.93354074,46.4476346 10.0368,46.4213136 10.1238617,46.4759802 C10.3202568,46.5994864 10.5186765,46.7169185 10.719121,46.8323259 C10.804158,46.8809185 10.8325037,46.9882272 10.7859358,47.0712395 C10.7535407,47.1279309 10.6928,47.1603259 10.6320593,47.1603259 L10.6320593,47.1603259 Z M34.3128494,47.2048691 C34.2460346,47.2048691 34.1832691,47.1684247 34.1528988,47.1036346 C34.1124049,47.0145481 34.1508741,46.9112889 34.2399605,46.8707951 C34.4505284,46.7736099 34.6610963,46.6744 34.8676148,46.5711407 C34.9506272,46.5286222 35.0579358,46.563042 35.102479,46.6501037 C35.1449975,46.7371654 35.1105778,46.8424494 35.023516,46.8849679 C34.8129481,46.9882272 34.6003556,47.0914864 34.3857383,47.1886716 C34.361442,47.2008198 34.3371457,47.2048691 34.3128494,47.2048691 L34.3128494,47.2048691 Z M32.367121,47.9985481 C32.2962568,47.9985481 32.229442,47.9540049 32.203121,47.8831407 C32.1707259,47.7940543 32.2172938,47.6928198 32.3084049,47.6584 C32.5270716,47.579437 32.7437136,47.4984494 32.9583309,47.4134123 C33.0534914,47.383042 33.1506765,47.4235358 33.187121,47.5126222 C33.2215407,47.6037333 33.1769975,47.7049679 33.0879111,47.7393877 C32.8692444,47.8244247 32.6485531,47.907437 32.4278617,47.9884247 C32.4076148,47.9965235 32.3873679,47.9985481 32.367121,47.9985481 L32.367121,47.9985481 Z M12.5089481,48.1119309 C12.4846519,48.1119309 12.4623802,48.1078815 12.438084,48.097758 C12.221442,48.0005728 12.0068247,47.901363 11.7962568,47.7981037 C11.7091951,47.7555852 11.6727506,47.6503012 11.7152691,47.5632395 C11.7577877,47.4761778 11.8610469,47.4377086 11.9501333,47.4822519 C12.1566519,47.5855111 12.3672198,47.6826963 12.5798123,47.7758321 C12.6688988,47.8163259 12.7093926,47.9195852 12.6688988,48.0086716 C12.6405531,48.0734617 12.575763,48.1119309 12.5089481,48.1119309 L12.5089481,48.1119309 Z M30.3647012,48.6363259 C30.2857383,48.6363259 30.2168988,48.5857086 30.1946272,48.5067457 C30.1683062,48.4136099 30.2249975,48.3184494 30.3181333,48.2921284 C30.5408494,48.2313877 30.7655901,48.1645728 30.9862815,48.097758 C31.0794173,48.0673877 31.1766025,48.1220543 31.2049481,48.2131654 C31.2332938,48.3063012 31.1806519,48.4055111 31.087516,48.4318321 C30.8648,48.5006716 30.6380346,48.5674864 30.4112691,48.6302519 C30.3950716,48.6343012 30.3788741,48.6363259 30.3647012,48.6363259 L30.3647012,48.6363259 Z M14.4728988,48.8671407 C14.4546765,48.8671407 14.4364543,48.865116 14.4182321,48.859042 C14.1934914,48.7861531 13.9687506,48.7071901 13.7480593,48.6262025 C13.6569481,48.5938074 13.6103802,48.4925728 13.6448,48.4034864 C13.6771951,48.3123753 13.7764049,48.261758 13.8695407,48.2982025 C14.0861827,48.3771654 14.3048494,48.452079 14.5275654,48.5269926 C14.6186765,48.5553383 14.6692938,48.6545481 14.6389235,48.7456593 C14.6146272,48.8205728 14.5478123,48.8671407 14.4728988,48.8671407 L14.4728988,48.8671407 Z M28.3217877,49.1303506 C28.2408,49.1303506 28.1679111,49.075684 28.1496889,48.9926716 C28.1314667,48.8975111 28.1901827,48.8043753 28.2853432,48.7861531 C28.5141333,48.7375605 28.7408988,48.6889679 28.9676642,48.6363259 C29.0648494,48.6140543 29.1559605,48.6727704 29.1782321,48.7679309 C29.198479,48.8630914 29.139763,48.9562272 29.0466272,48.9784988 C28.8158123,49.0311407 28.5870222,49.0797333 28.3562074,49.1263012 C28.3440593,49.1303506 28.3339358,49.1303506 28.3217877,49.1303506 L28.3217877,49.1303506 Z M16.4996148,49.4138074 C16.4874667,49.4138074 16.4753185,49.4138074 16.4631704,49.409758 C16.2323556,49.3611654 16.0035654,49.3064988 15.7747753,49.2498074 C15.6816395,49.2255111 15.6229235,49.1303506 15.6472198,49.0372148 C15.6694914,48.944079 15.7545284,48.8873877 15.8598123,48.9096593 C16.0845531,48.9663506 16.3092938,49.0189926 16.5360593,49.0675852 C16.6312198,49.0878321 16.6919605,49.1809679 16.6696889,49.2761284 C16.6534914,49.357116 16.5806025,49.4138074 16.4996148,49.4138074 L16.4996148,49.4138074 Z M26.2525531,49.4927704 C26.167516,49.4927704 26.0926025,49.4279802 26.0804543,49.3409185 C26.0662815,49.245758 26.1330963,49.1566716 26.2282568,49.1445235 C26.4590716,49.1121284 26.6878617,49.075684 26.9146272,49.0392395 C27.0158617,49.029116 27.1008988,49.0878321 27.1170963,49.1829926 C27.1332938,49.2781531 27.0685037,49.3692642 26.9733432,49.383437 C26.7405037,49.4219062 26.5096889,49.4583506 26.2768494,49.4907457 C26.2687506,49.4927704 26.2606519,49.4927704 26.2525531,49.4927704 L26.2525531,49.4927704 Z M24.167121,49.731684 C24.0780346,49.731684 23.9990716,49.6628444 23.9929975,49.5717333 C23.9848988,49.4745481 24.055763,49.3915358 24.1529481,49.3814123 C24.383763,49.3631901 24.6145778,49.3409185 24.8453926,49.3166222 C24.9608,49.2963753 25.0276148,49.377363 25.0377383,49.4725235 C25.0498864,49.567684 24.9790222,49.6547457 24.8838617,49.6648691 C24.6510222,49.6891654 24.416158,49.711437 24.1812938,49.731684 L24.167121,49.731684 Z M18.5728988,49.7499062 C18.5668247,49.7499062 18.5587259,49.7499062 18.5546765,49.7499062 C18.3177877,49.7235852 18.0849481,49.6932148 17.8521086,49.6587951 C17.7569481,49.6446222 17.692158,49.5555358 17.7063309,49.4603753 C17.7205037,49.3652148 17.7954173,49.2903012 17.9047506,49.3125728 C18.1335407,49.3449679 18.3623309,49.3753383 18.591121,49.4016593 C18.6883062,49.4117827 18.7571457,49.4988444 18.7470222,49.5940049 C18.7368988,49.6830914 18.6599605,49.7499062 18.5728988,49.7499062 L18.5728988,49.7499062 Z M22.0695407,49.8551901 C21.9743802,49.8551901 21.897442,49.7802765 21.8933926,49.685116 C21.8913679,49.5879309 21.9662815,49.5069432 22.0634667,49.5049185 C22.2963062,49.4968198 22.5291457,49.488721 22.7619852,49.4765728 C22.8429728,49.4664494 22.940158,49.5454123 22.9442074,49.6425975 C22.9502815,49.7397827 22.8753679,49.8207704 22.7781827,49.8268444 C22.5453432,49.8389926 22.310479,49.8470914 22.0756148,49.8551901 L22.0695407,49.8551901 Z M20.6684543,49.8734123 L20.6684543,49.8734123 C20.4315654,49.8713877 20.1967012,49.8653136 19.961837,49.8551901 C19.8666765,49.8511407 19.7897383,49.7681284 19.7937877,49.6729679 C19.797837,49.5778074 19.8768,49.5049185 19.9699358,49.5049185 L19.9780346,49.5049185 C20.2068247,49.515042 20.4396642,49.521116 20.670479,49.5231407 C20.7676642,49.5231407 20.8446025,49.6021037 20.8446025,49.6992889 C20.8425778,49.7964741 20.7656395,49.8734123 20.6684543,49.8734123 L20.6684543,49.8734123 Z" id="Fill-57" fill="#1D1D1B" fill-rule="nonzero" mask="url(#mask-6)"></path>
                        </g>
                    </g>
                    <g id="Fill-61-Clipped" transform="translate(6.074074, 4.738790)">
                        <mask id="mask-8" fill="white">
                            <use xlink:href="#path-7"></use>
                        </mask>
                        <g id="path-7"></g>
                        <path d="M22.8324444,2.68474074 C19.1454815,4.82281481 15.9262222,6.44459259 13.0876049,7.87807407 L13.0876049,7.87807407 C4.83901235,12.0347654 0.295604938,14.326716 0.295604938,21.6237037 L0.295604938,21.6237037 L0.29762963,21.8950123 C0.453530864,32.2938272 8.60291358,40.4411852 18.8498765,40.4411852 L18.8498765,40.4411852 C29.0826667,40.4411852 39.4349136,35.8977778 39.4997037,25.7540741 L39.4997037,25.7540741 L39.2466173,25.7520494 L39.4997037,25.7520494 L39.4997037,25.6042469 C39.4997037,20.933284 38.1573333,14.9320988 36.0759506,10.3198519 L36.0759506,10.3198519 C33.5329383,4.67906173 30.1780247,1.57116049 26.626716,1.57116049 L26.626716,1.57116049 C25.3855802,1.57116049 24.108,1.9457284 22.8324444,2.68474074 M0.80582716,21.8869136 L0.803802469,21.6237037 C0.803802469,14.6385185 4.98479012,12.5308148 13.3143704,8.32755556 L13.3143704,8.32755556 C16.1610864,6.89407407 19.3864198,5.26622222 23.0855309,3.12409877 L23.0855309,3.12409877 C24.2821235,2.42962963 25.4746667,2.07733333 26.626716,2.07733333 L26.626716,2.07733333 C34.2982716,2.07733333 38.9935309,17.3090864 38.9935309,25.6042469 L38.9935309,25.6042469 L38.9935309,25.7500247 C38.953037,32.2938272 33.6523951,39.9350123 18.8498765,39.9350123 L18.8498765,39.9350123 C8.8802963,39.9350123 0.955654321,32.006321 0.80582716,21.8869136" id="Fill-61" fill="url(#linearGradient-9)" fill-rule="nonzero" mask="url(#mask-8)"></path>
                    </g>
                    <g id="Group-70" transform="translate(45.543210, 33.084469)" fill="#F8B133" fill-rule="nonzero">
                        <path d="M13.8930222,7.6338963 C13.8930222,11.4686617 10.7830963,14.5785877 6.94833086,14.5785877 C3.11154074,14.5785877 0.00363950617,11.4686617 0.00363950617,7.6338963 C0.00363950617,3.79710617 3.11154074,0.689204938 6.94833086,0.689204938 C10.7830963,0.689204938 13.8930222,3.79710617 13.8930222,7.6338963" id="Fill-64"></path>
                    </g>
                </g>
                <g id="Fill-1-Clipped" transform="translate(49.113100, 36.762285)">
                    <mask id="mask-11" fill="white">
                        <use xlink:href="#path-10"></use>
                    </mask>
                    <g id="path-10"></g>
                    <path d="M3.01436049,3.93579753 C3.01436049,4.19090864 3.10142222,4.40350123 3.28566914,4.58572346 C3.64808889,4.95219259 4.22310123,4.95219259 4.58552099,4.58572346 C4.7697679,4.40350123 4.85682963,4.19090864 4.85682963,3.93579753 C4.85682963,3.68068642 4.7697679,3.46809383 4.58552099,3.2858716 C4.22310123,2.91940247 3.64808889,2.91940247 3.28566914,3.2858716 C3.10142222,3.46809383 3.01436049,3.68068642 3.01436049,3.93579753 L3.01436049,3.93579753 Z M3.93559506,5.44419259 C3.52053333,5.44419259 3.16216296,5.29436543 2.87060741,5.00078519 C2.57702716,4.70922963 2.4272,4.35085926 2.4272,3.93579753 C2.4272,3.5207358 2.57702716,3.16236543 2.87060741,2.87080988 C3.45574321,2.28364938 4.41544691,2.28364938 5.00058272,2.87080988 C5.29416296,3.16236543 5.44399012,3.5207358 5.44399012,3.93579753 C5.44399012,4.35085926 5.29416296,4.70922963 5.00058272,5.00078519 C4.70902716,5.29436543 4.35065679,5.44419259 3.93559506,5.44419259 L3.93559506,5.44419259 Z M3.51445926,7.28463704 L4.3709037,7.28463704 C4.40127407,7.13076049 4.43771852,6.88172346 4.48023704,6.52740247 C4.49440988,6.41401975 4.57539753,6.31885926 4.68473086,6.28443951 C4.81431111,6.24192099 4.94389136,6.18927901 5.06739753,6.12448889 C5.16660741,6.06982222 5.29416296,6.08197037 5.38324938,6.15283457 L5.97445926,6.6144642 C6.02305185,6.57801975 6.09999012,6.51120494 6.21944691,6.39377284 C6.44216296,6.17510617 6.56161975,6.03945185 6.62438519,5.96048889 C6.41989136,5.74992099 6.25589136,5.53327901 6.14250864,5.37535309 C6.10808889,5.32676049 6.08986667,5.26601975 6.08986667,5.2073037 C6.08986667,5.15871111 6.10201481,5.11214321 6.12428642,5.0676 C6.18097778,4.96231605 6.23564444,4.83071111 6.29031111,4.67885926 C6.32675556,4.5756 6.41584198,4.50271111 6.52315062,4.48448889 L7.28443457,4.37110617 L7.28443457,3.5207358 L6.52922469,3.40735309 C6.41989136,3.38913086 6.32878025,3.31219259 6.29638519,3.20690864 C6.24981728,3.06922963 6.19110123,2.92750123 6.11821235,2.78577284 C6.09594074,2.74325432 6.08581728,2.69668642 6.08581728,2.65011852 C6.08581728,2.58937778 6.10403951,2.53066173 6.14048395,2.48004444 C6.1992,2.39905679 6.28626173,2.28364938 6.40369383,2.13382222 C6.48265679,2.03461235 6.54542222,1.95362469 6.59199012,1.89288395 C6.49885432,1.77950123 6.32068148,1.58715556 5.96838519,1.26118025 L5.36907654,1.7167358 C5.27999012,1.78557531 5.16255802,1.79164938 5.06132346,1.74305679 C4.94389136,1.68434074 4.81431111,1.63169877 4.67460741,1.58715556 C4.56932346,1.5527358 4.49238519,1.46162469 4.47618765,1.35229136 L4.35875556,0.586958025 L3.5043358,0.586958025 C3.46991605,0.750958025 3.4334716,1.00201975 3.39297778,1.3421679 C3.37880494,1.45757531 3.29984198,1.55476049 3.18848395,1.58918025 C3.05687901,1.62967407 2.92932346,1.68231605 2.80379259,1.74710617 C2.70255802,1.80177284 2.57905185,1.79164938 2.48794074,1.71876049 L1.89470617,1.25915556 C1.84813827,1.2956 1.76917531,1.36241481 1.64769383,1.4838963 C1.44724938,1.68231605 1.32981728,1.80784691 1.26502716,1.88883457 C1.45939753,2.12572346 1.61327407,2.3261679 1.72868148,2.49219259 C1.76310123,2.54280988 1.78132346,2.60152593 1.78132346,2.66024198 C1.78132346,2.70883457 1.76917531,2.75742716 1.74487901,2.80197037 C1.68008889,2.91940247 1.62542222,3.04695802 1.5849284,3.18261235 C1.55050864,3.28992099 1.45939753,3.36888395 1.34803951,3.38710617 L0.566508642,3.50453827 L0.584730864,4.35085926 L1.33994074,4.46019259 C1.45332346,4.47841481 1.54645926,4.55940247 1.57885432,4.6687358 C1.62137284,4.80843951 1.6780642,4.94814321 1.75095309,5.08177284 C1.77322469,5.12631605 1.78537284,5.17490864 1.78537284,5.22147654 C1.78537284,5.28221728 1.76715062,5.34295802 1.73070617,5.39357531 C1.67199012,5.47456296 1.5829037,5.58997037 1.4674963,5.73777284 C1.38448395,5.83900741 1.32171852,5.91999506 1.27717531,5.9807358 C1.39460741,6.12448889 1.60517531,6.33505679 1.90482963,6.60839012 L2.50008889,6.15485926 C2.5912,6.08601975 2.71470617,6.0758963 2.81391605,6.12651358 C2.92932346,6.18725432 3.0589037,6.2398963 3.19658272,6.28443951 C3.30186667,6.31885926 3.37880494,6.40997037 3.39500247,6.5193037 L3.51445926,7.28463704 Z M4.46201481,7.87179753 L3.40917531,7.87179753 C3.29174321,7.87179753 3.18443457,7.8313037 3.09939753,7.75841481 C3.01436049,7.69564938 2.95361975,7.58024198 2.94552099,7.45066173 L2.84226173,6.78048889 C2.79974321,6.76429136 2.7552,6.74809383 2.71470617,6.7298716 L2.18828642,7.1287358 C2.0769284,7.23199506 1.85218765,7.36967407 1.57075556,7.09836543 C1.15771852,6.72379753 0.888434568,6.44843951 0.752780247,6.2621679 C0.692039506,6.17105679 0.663693827,6.07994568 0.663693827,5.9807358 C0.663693827,5.88355062 0.694064198,5.79041481 0.750755556,5.70537778 C0.80137284,5.63451358 0.886409877,5.52315556 1.00789136,5.3713037 C1.06053333,5.30448889 1.10912593,5.24374815 1.14961975,5.19110617 C1.12127407,5.13239012 1.09900247,5.07367407 1.07673086,5.01495802 L0.388335802,4.91372346 C0.230409877,4.88537778 0.143348148,4.80236543 0.0947555556,4.73757531 C0.0340148148,4.65658765 -0.000404938272,4.55737778 -0.000404938272,4.45209383 L-0.000404938272,3.39925432 C-0.000404938272,3.29801975 0.0299654321,3.20488395 0.0907061728,3.11984691 C0.165619753,3.01861235 0.262804938,2.9578716 0.372138272,2.93964938 L1.08482963,2.83234074 C1.10507654,2.78374815 1.12329877,2.73515556 1.14557037,2.68858765 C1.03826173,2.54280988 0.90665679,2.37678519 0.752780247,2.19051358 C0.681916049,2.11155062 0.639397531,2.00424198 0.639397531,1.89085926 C0.639397531,1.79974815 0.671792593,1.70863704 0.732533333,1.61752593 C0.829718519,1.4818716 0.993718519,1.30369877 1.23465679,1.06478519 C1.76715062,0.538365432 1.97366914,0.568735802 2.19840988,0.750958025 L2.70458272,1.14374815 C2.74710123,1.12552593 2.78961975,1.1093284 2.83213827,1.09110617 C2.87668148,0.734760494 2.91717531,0.497871605 2.95564444,0.350069136 C3.00221235,0.139501235 3.17836049,-0.000202469136 3.40917531,-0.000202469136 L4.46201481,-0.000202469136 C4.5814716,-0.000202469136 4.69080494,0.040291358 4.77381728,0.11722963 C4.85885432,0.17797037 4.91959506,0.291353086 4.92566914,0.420933333 L5.0289284,1.09110617 C5.0734716,1.1073037 5.11599012,1.12350123 5.15850864,1.14172346 L5.69100247,0.740834568 C5.76389136,0.645674074 6.10403951,0.591007407 6.29436049,0.761081481 C6.71144691,1.14577284 6.98680494,1.43125432 7.12043457,1.61347654 C7.17510123,1.68029136 7.2074963,1.77950123 7.2074963,1.89085926 C7.2074963,1.98804444 7.17712593,2.08118025 7.12043457,2.16621728 C7.0657679,2.24113086 6.98275556,2.34843951 6.86532346,2.49826667 C6.81065679,2.56710617 6.7620642,2.62784691 6.72157037,2.68251358 C6.74586667,2.73920494 6.77016296,2.7958963 6.79243457,2.85258765 L7.48487901,2.9578716 C7.60028642,2.97406914 7.6994963,3.03278519 7.77440988,3.12997037 C7.77643457,3.13199506 7.77845926,3.13401975 7.78048395,3.13401975 C7.8392,3.21905679 7.87159506,3.31624198 7.87159506,3.41747654 L7.87159506,4.47234074 C7.87159506,4.56547654 7.84324938,4.65658765 7.78858272,4.74162469 C7.70152099,4.85500741 7.6043358,4.91372346 7.49297778,4.93194568 L6.78231111,5.03925432 C6.76408889,5.08784691 6.74384198,5.13441481 6.72561975,5.17693333 C6.82482963,5.31258765 6.95643457,5.47861235 7.11840988,5.67500741 C7.19332346,5.7701679 7.23179259,5.87342716 7.23179259,5.9807358 C7.23179259,6.09209383 7.19129877,6.19737778 7.11638519,6.28443951 C7.03134815,6.4018716 6.86329877,6.58611852 6.63248395,6.81085926 C6.28018765,7.16113086 6.12226173,7.23199506 5.98053333,7.23199506 C5.88537284,7.23199506 5.79021235,7.20162469 5.69910123,7.14290864 L5.16660741,6.72784691 C5.12408889,6.74606914 5.08359506,6.76226667 5.04107654,6.78048889 C4.99450864,7.14088395 4.95603951,7.37372346 4.91959506,7.51950123 C4.8629037,7.73614321 4.68675556,7.87179753 4.46201481,7.87179753 L4.46201481,7.87179753 Z" id="Fill-1" fill="#FEFEFE" fill-rule="nonzero" mask="url(#mask-11)"></path>
                </g>
            </g>
        </g>
    </g>
</svg>