<?xml version="1.0" encoding="UTF-8"?>
<svg width="92px" height="81px" viewBox="0 0 92 81" version="1.1" xmlns="http://www.w3.org/2000/svg" xmlns:xlink="http://www.w3.org/1999/xlink">
    <title>logo_TACCT_1diag</title>
    <defs>
        <polygon id="path-1" points="0.5896 0.8382 20.4256 0.8382 20.4256 26 0.5896 26"></polygon>
        <polygon id="path-3" points="0 0.2384 16.1556 0.2384 16.1556 21.3204264 0 21.3204264"></polygon>
        <polygon id="path-5" points="0.1384 1.32 43.3564 1.32 43.3564 49.2652 0.1384 49.2652"></polygon>
        <path d="M22.554,2.652 C18.912,4.764 15.732,6.366 12.928,7.782 L12.928,7.782 C4.78,11.888 0.292,14.152 0.292,21.36 L0.292,21.36 L0.294,21.628 C0.448,31.9 8.498,39.948 18.62,39.948 L18.62,39.948 C28.728,39.948 38.954,35.46 39.018,25.44 L39.018,25.44 L38.768,25.438 L39.018,25.438 L39.018,25.292 C39.018,20.678 37.692,14.75 35.636,10.194 L35.636,10.194 C33.124,4.622 29.81,1.552 26.302,1.552 L26.302,1.552 C25.076,1.552 23.814,1.922 22.554,2.652 M0.796,21.62 L0.794,21.36 C0.794,14.46 4.924,12.378 13.152,8.226 L13.152,8.226 C15.964,6.81 19.15,5.202 22.804,3.086 L22.804,3.086 C23.986,2.4 25.164,2.052 26.302,2.052 L26.302,2.052 C33.88,2.052 38.518,17.098 38.518,25.292 L38.518,25.292 L38.518,25.436 C38.478,31.9 33.242,39.448 18.62,39.448 L18.62,39.448 C8.772,39.448 0.944,31.616 0.796,21.62" id="path-7"></path>
        <linearGradient x1="0.00368382999%" y1="49.999364%" x2="100.000093%" y2="49.999364%" id="linearGradient-9">
            <stop stop-color="#BE1622" offset="0%"></stop>
            <stop stop-color="#EA5F0B" offset="100%"></stop>
        </linearGradient>
    </defs>
    <g id="TACCT-Diagnostic" stroke="none" stroke-width="1" fill="none" fill-rule="evenodd">
        <g id="Accueil-général" transform="translate(-289.000000, -304.000000)">
            <g id="logo_TACCT_1diag" transform="translate(289.000000, 304.000000)">
                <g id="Group-60" transform="translate(0.539062, 0.681000)">
                    <g id="Fill-1-Clipped" transform="translate(14.000000, 54.000000)">
                        <mask id="mask-2" fill="white">
                            <use xlink:href="#path-1"></use>
                        </mask>
                        <g id="path-1"></g>
                        <path d="M7.9976,16.6462 L12.9816,16.6462 L10.4896,7.4962 L7.9976,16.6462 Z M0.5896,23.8142 C0.5896,23.7482 0.6116,23.6222 0.6576,23.4402 L7.0076,2.6142 C7.1896,2.0462 7.6056,1.6062 8.2536,1.3002 C8.9036,0.9922 9.6476,0.8382 10.4896,0.8382 C11.3316,0.8382 12.0776,0.9922 12.7256,1.3002 C13.3756,1.6062 13.7896,2.0462 13.9736,2.6142 L20.3576,23.4402 C20.4016,23.6222 20.4256,23.7482 20.4256,23.8142 C20.4256,24.4082 20.0556,24.9182 19.3156,25.3522 C18.5756,25.7842 17.8076,26.0002 17.0116,26.0002 C16.0316,26.0002 15.4516,25.6702 15.2696,25.0102 L14.1096,20.7422 L6.9056,20.7422 L5.7456,25.0102 C5.5616,25.6702 4.9816,26.0002 4.0036,26.0002 C3.2076,26.0002 2.4396,25.7842 1.6996,25.3522 C0.9596,24.9182 0.5896,24.4082 0.5896,23.8142 L0.5896,23.8142 Z" id="Fill-1" fill="#2AACA3" fill-rule="nonzero" mask="url(#mask-2)"></path>
                    </g>
                    <path d="M36.1322,71.9432 L36.1322,62.8972 C36.1322,60.1192 36.8882,58.0832 38.4022,56.7852 C39.9142,55.4872 41.8902,54.8392 44.3242,54.8392 C46.8282,54.8392 48.8842,55.4432 50.4882,56.6492 C52.0922,57.8552 52.8942,59.5152 52.8942,61.6332 C52.8942,62.6112 52.6902,63.2772 52.2802,63.6292 C51.8702,63.9832 51.1882,64.1592 50.2302,64.1592 C48.5242,64.1592 47.6362,63.6252 47.5682,62.5552 C47.5002,60.5052 46.4882,59.4812 44.5302,59.4812 C42.4822,59.4812 41.4582,60.6192 41.4582,62.8972 L41.4582,71.9432 C41.4582,74.2192 42.4922,75.3572 44.5642,75.3572 C45.2022,75.3572 45.7302,75.2552 46.1522,75.0492 C46.5722,74.8452 46.8742,74.5332 47.0562,74.1112 C47.2382,73.6892 47.3582,73.3432 47.4142,73.0692 C47.4722,72.7972 47.5222,72.4212 47.5682,71.9432 C47.6582,70.8732 48.5362,70.3392 50.1982,70.3392 C51.1762,70.3392 51.8702,70.5152 52.2802,70.8672 C52.6902,71.2212 52.8942,71.8872 52.8942,72.8652 C52.8942,75.0732 52.0922,76.8132 50.4882,78.0892 C48.8842,79.3632 46.8282,79.9992 44.3242,79.9992 C41.8902,79.9992 39.9142,79.3512 38.4022,78.0532 C36.8882,76.7572 36.1322,74.7192 36.1322,71.9432" id="Fill-4" fill="#2AACA3" fill-rule="nonzero"></path>
                    <path d="M55.3188,71.9432 L55.3188,62.8972 C55.3188,60.1192 56.0748,58.0832 57.5888,56.7852 C59.1028,55.4872 61.0768,54.8392 63.5128,54.8392 C66.0168,54.8392 68.0708,55.4432 69.6748,56.6492 C71.2788,57.8552 72.0828,59.5152 72.0828,61.6332 C72.0828,62.6112 71.8768,63.2772 71.4668,63.6292 C71.0568,63.9832 70.3748,64.1592 69.4188,64.1592 C67.7108,64.1592 66.8248,63.6252 66.7568,62.5552 C66.6868,60.5052 65.6748,59.4812 63.7168,59.4812 C61.6688,59.4812 60.6448,60.6192 60.6448,62.8972 L60.6448,71.9432 C60.6448,74.2192 61.6808,75.3572 63.7508,75.3572 C64.3888,75.3572 64.9188,75.2552 65.3388,75.0492 C65.7588,74.8452 66.0608,74.5332 66.2428,74.1112 C66.4248,73.6892 66.5448,73.3432 66.6028,73.0692 C66.6588,72.7972 66.7088,72.4212 66.7568,71.9432 C66.8468,70.8732 67.7228,70.3392 69.3848,70.3392 C70.3628,70.3392 71.0568,70.5152 71.4668,70.8672 C71.8768,71.2212 72.0828,71.8872 72.0828,72.8652 C72.0828,75.0732 71.2788,76.8132 69.6748,78.0892 C68.0708,79.3632 66.0168,79.9992 63.5128,79.9992 C61.0768,79.9992 59.1028,79.3512 57.5888,78.0532 C56.0748,76.7572 55.3188,74.7192 55.3188,71.9432" id="Fill-6" fill="#2AACA3" fill-rule="nonzero"></path>
                    <path d="M79.5816,77.2068 L79.5816,77.2068 C79.7516,77.5288 84.0656,77.5028 84.3736,72.2708 L84.3736,60.4168 L88.6116,60.4168 C89.0636,60.4168 89.4156,60.2128 89.6716,59.8048 C89.9276,59.3968 90.0556,58.8948 90.0556,58.2968 C90.0556,57.7408 89.9336,57.2588 89.6876,56.8508 C89.4416,56.4408 89.0836,56.2388 88.6116,56.2388 L75.3436,56.2388 C74.8716,56.2388 74.5136,56.4408 74.2676,56.8508 C74.0216,57.2588 73.8996,57.7408 73.8996,58.2968 C73.8996,58.8948 74.0276,59.3968 74.2836,59.8048 C74.5396,60.2128 74.8936,60.4168 75.3436,60.4168 L79.5816,60.4168 L79.5816,77.2068 Z" id="Fill-8" fill="#BD1622" fill-rule="nonzero"></path>
                    <g id="Fill-10-Clipped" transform="translate(0.000000, 56.000000)">
                        <mask id="mask-4" fill="white">
                            <use xlink:href="#path-3"></use>
                        </mask>
                        <g id="path-3"></g>
                        <path d="M15.7876,0.8504 C15.5416,0.4424 15.1836,0.2384 14.7116,0.2384 L1.4436,0.2384 C0.9716,0.2384 0.6136,0.4424 0.3676,0.8504 C0.1236,1.2584 -0.0004,1.7404 -0.0004,2.2964 C-0.0004,2.8944 0.1276,3.3964 0.3836,3.8044 C0.6396,4.2124 0.9936,4.4164 1.4436,4.4164 L5.6816,4.4164 L5.6816,15.8664 C5.7756,21.3884 10.1116,21.5324 10.4716,21.2284 C10.4716,21.2204 10.4736,21.2144 10.4736,21.2064 L10.4736,4.4164 L14.7116,4.4164 C15.1636,4.4164 15.5156,4.2124 15.7716,3.8044 C16.0276,3.3964 16.1556,2.8944 16.1556,2.2964 C16.1556,1.7404 16.0336,1.2584 15.7876,0.8504" id="Fill-10" fill="#EA5F0B" fill-rule="nonzero" mask="url(#mask-4)"></path>
                    </g>
                    <path d="M27.7006,18.4362 C27.5766,18.3882 27.4566,18.3302 27.3286,18.2902 L0.4566,38.4122 C0.4846,38.5302 0.5226,38.6442 0.5526,38.7642 L27.7006,18.4362 Z" id="Fill-13" fill="#2AACA3" fill-rule="nonzero"></path>
                    <path d="M25.7144,18.0212 C25.7064,18.0212 25.7004,18.0192 25.6924,18.0192 C25.4944,18.0192 25.2804,18.0572 25.0744,18.0772 L0.1484,36.7412 C0.1664,36.8692 0.1944,36.9912 0.2144,37.1172 L25.7144,18.0212 Z" id="Fill-15" fill="#2AACA3" fill-rule="nonzero"></path>
                    <path d="M29.148,19.2526 C29.054,19.1786 28.954,19.1146 28.856,19.0486 L0.906,39.9766 C0.944,40.0866 0.992,40.1946 1.032,40.3046 L29.148,19.2526 Z" id="Fill-17" fill="#2AACA3" fill-rule="nonzero"></path>
                    <path d="M30.2738,20.3112 C30.1978,20.2232 30.1158,20.1472 30.0378,20.0652 L1.4838,41.4452 C1.5298,41.5512 1.5878,41.6512 1.6358,41.7552 L30.2738,20.3112 Z" id="Fill-19" fill="#2AACA3" fill-rule="nonzero"></path>
                    <path d="M31.182,21.533 C31.12,21.435 31.052,21.349 30.988,21.255 L2.18,42.825 C2.236,42.925 2.302,43.019 2.358,43.117 L31.182,21.533 Z" id="Fill-21" fill="#2AACA3" fill-rule="nonzero"></path>
                    <path d="M13.2964,21.617 C12.9804,21.709 12.6704,21.801 12.3664,21.891 L0.4284,30.827 C0.3904,30.997 0.3484,31.161 0.3144,31.337 L13.2964,21.617 Z" id="Fill-23" fill="#2AACA3" fill-rule="nonzero"></path>
                    <path d="M32.9712,25.4714 L4.9452,46.4594 C5.0252,46.5414 5.1172,46.6134 5.2012,46.6914 L33.0772,25.8154 C33.0432,25.7014 33.0092,25.5854 32.9712,25.4714" id="Fill-25" fill="#2AACA3" fill-rule="nonzero"></path>
                    <path d="M20.939,19.2712 L0.007,34.9452 C0.011,35.0812 0.025,35.2152 0.033,35.3512 L21.983,18.9132 C21.635,19.0332 21.279,19.1572 20.939,19.2712" id="Fill-27" fill="#2AACA3" fill-rule="nonzero"></path>
                    <path d="M1.3638,28.2264 C1.2458,28.4464 1.1258,28.6644 1.0238,28.9044 L8.9778,22.9484 C8.6098,23.0724 8.2498,23.2004 7.9058,23.3284 L1.3638,28.2264 Z" id="Fill-29" fill="#2AACA3" fill-rule="nonzero"></path>
                    <path d="M17.5054,20.365 C17.1834,20.463 16.8674,20.559 16.5554,20.653 L0.0834,32.989 C0.0694,33.141 0.0474,33.293 0.0394,33.445 L17.5054,20.365 Z" id="Fill-31" fill="#2AACA3" fill-rule="nonzero"></path>
                    <path d="M31.9312,22.8728 C31.8812,22.7688 31.8252,22.6708 31.7712,22.5688 L2.9892,44.1208 C3.0532,44.2128 3.1272,44.2988 3.1932,44.3908 L31.9312,22.8728 Z" id="Fill-33" fill="#2AACA3" fill-rule="nonzero"></path>
                    <path d="M34.474,36.1824 C34.474,36.0444 34.468,35.9004 34.468,35.7624 L14.096,51.0164 C14.252,51.0424 14.406,51.0664 14.562,51.0904 L34.474,36.1824 Z" id="Fill-35" fill="#2AACA3" fill-rule="nonzero"></path>
                    <path d="M34.1908,40.194 C34.2128,40.036 34.2368,39.884 34.2568,39.722 L18.6148,51.434 C18.8088,51.436 19.0008,51.426 19.1928,51.424 L34.1908,40.194 Z" id="Fill-37" fill="#2AACA3" fill-rule="nonzero"></path>
                    <path d="M34.4028,38.1346 C34.4128,37.9926 34.4128,37.8426 34.4208,37.6966 L16.2588,51.2986 C16.4248,51.3126 16.5908,51.3346 16.7568,51.3466 L34.4028,38.1346 Z" id="Fill-39" fill="#2AACA3" fill-rule="nonzero"></path>
                    <path d="M32.5816,45.2028 C32.7256,44.9568 32.8776,44.7208 33.0056,44.4608 L24.6016,50.7528 C24.9156,50.6728 25.2216,50.5808 25.5256,50.4868 L32.5816,45.2028 Z" id="Fill-41" fill="#2AACA3" fill-rule="nonzero"></path>
                    <path d="M32.5552,24.3054 C32.5132,24.1954 32.4692,24.0874 32.4252,23.9794 L3.9092,45.3334 C3.9812,45.4194 4.0652,45.4974 4.1392,45.5834 L32.5552,24.3054 Z" id="Fill-43" fill="#2AACA3" fill-rule="nonzero"></path>
                    <path d="M33.7416,42.4344 C33.7876,42.2624 33.8356,42.0884 33.8776,41.9084 L21.3136,51.3164 C21.5296,51.2964 21.7456,51.2824 21.9576,51.2564 L33.7416,42.4344 Z" id="Fill-45" fill="#2AACA3" fill-rule="nonzero"></path>
                    <path d="M33.8608,29.035 C33.8388,28.911 33.8208,28.783 33.7968,28.659 L7.3748,48.443 C7.4768,48.511 7.5828,48.569 7.6868,48.635 L33.8608,29.035 Z" id="Fill-47" fill="#2AACA3" fill-rule="nonzero"></path>
                    <path d="M33.5102,27.3952 C33.4822,27.2752 33.4562,27.1532 33.4262,27.0352 L6.0962,47.4972 C6.1882,47.5712 6.2862,47.6392 6.3782,47.7112 L33.5102,27.3952 Z" id="Fill-49" fill="#2AACA3" fill-rule="nonzero"></path>
                    <path d="M34.1342,30.7302 C34.1182,30.6022 34.1022,30.4742 34.0842,30.3442 L8.7882,49.2882 C8.9002,49.3482 9.0202,49.3942 9.1342,49.4522 L34.1342,30.7302 Z" id="Fill-51" fill="#2AACA3" fill-rule="nonzero"></path>
                    <path d="M34.4458,34.2986 C34.4418,34.1646 34.4278,34.0286 34.4198,33.8946 L12.1178,50.5946 C12.2578,50.6326 12.4038,50.6626 12.5458,50.6966 L34.4458,34.2986 Z" id="Fill-53" fill="#2AACA3" fill-rule="nonzero"></path>
                    <path d="M34.3316,32.4842 C34.3196,32.3542 34.3036,32.2222 34.2896,32.0922 L10.3576,50.0122 C10.4836,50.0622 10.6176,50.1002 10.7436,50.1462 L34.3316,32.4842 Z" id="Fill-55" fill="#2AACA3" fill-rule="nonzero"></path>
                    <g id="Fill-57-Clipped" transform="translate(12.000000, 0.000000)">
                        <mask id="mask-6" fill="white">
                            <use xlink:href="#path-5"></use>
                        </mask>
                        <g id="path-5"></g>
                        <path d="M30.5404,1.7332 C30.5324,1.7332 30.5244,1.7332 30.5164,1.7312 C30.2964,1.6992 30.0724,1.6792 29.8444,1.6652 C29.7484,1.6592 29.6764,1.5772 29.6824,1.4832 C29.6884,1.3872 29.7644,1.3192 29.8644,1.3192 C30.1044,1.3332 30.3404,1.3572 30.5644,1.3892 C30.6604,1.4032 30.7244,1.4892 30.7104,1.5852 C30.7004,1.6712 30.6244,1.7332 30.5404,1.7332 L30.5404,1.7332 Z M27.7864,1.7452 C27.6984,1.7452 27.6244,1.6812 27.6144,1.5932 C27.6024,1.4972 27.6704,1.4112 27.7644,1.3992 C27.9984,1.3732 28.2304,1.3512 28.4604,1.3332 L28.4744,1.3332 C28.5644,1.3332 28.6404,1.4032 28.6464,1.4932 C28.6544,1.5892 28.5824,1.6732 28.4864,1.6792 C28.2604,1.6952 28.0344,1.7172 27.8064,1.7432 C27.7984,1.7452 27.7924,1.7452 27.7864,1.7452 L27.7864,1.7452 Z M25.7484,2.1252 C25.6684,2.1252 25.5984,2.0712 25.5804,1.9932 C25.5564,1.9012 25.6124,1.8072 25.7064,1.7832 C25.9344,1.7272 26.1624,1.6752 26.3864,1.6272 C26.4764,1.6132 26.5724,1.6692 26.5924,1.7632 C26.6104,1.8572 26.5504,1.9472 26.4564,1.9672 C26.2364,2.0132 26.0144,2.0632 25.7904,2.1192 C25.7764,2.1232 25.7604,2.1252 25.7484,2.1252 L25.7484,2.1252 Z M32.5324,2.2732 C32.5104,2.2732 32.4884,2.2692 32.4664,2.2592 C32.2544,2.1712 32.0404,2.0932 31.8324,2.0272 C31.7404,1.9992 31.6904,1.9012 31.7184,1.8112 C31.7484,1.7192 31.8444,1.6672 31.9344,1.6972 C32.1544,1.7672 32.3764,1.8472 32.5984,1.9392 C32.6864,1.9772 32.7284,2.0772 32.6924,2.1652 C32.6644,2.2332 32.6004,2.2732 32.5324,2.2732 L32.5324,2.2732 Z M23.7604,2.7252 C23.6884,2.7252 23.6224,2.6812 23.5964,2.6092 C23.5644,2.5212 23.6124,2.4212 23.7024,2.3892 C23.9224,2.3112 24.1444,2.2352 24.3624,2.1652 C24.4524,2.1412 24.5524,2.1872 24.5804,2.2772 C24.6104,2.3692 24.5584,2.4672 24.4684,2.4952 C24.2524,2.5652 24.0364,2.6392 23.8184,2.7152 C23.7984,2.7232 23.7804,2.7252 23.7604,2.7252 L23.7604,2.7252 Z M34.3324,3.2792 C34.2984,3.2792 34.2624,3.2692 34.2324,3.2472 C34.0484,3.1132 33.8604,2.9892 33.6684,2.8712 C33.5864,2.8212 33.5624,2.7152 33.6124,2.6332 C33.6624,2.5512 33.7684,2.5252 33.8504,2.5752 C34.0484,2.6972 34.2444,2.8292 34.4344,2.9652 C34.5124,3.0212 34.5304,3.1292 34.4744,3.2072 C34.4404,3.2552 34.3864,3.2792 34.3324,3.2792 L34.3324,3.2792 Z M21.8324,3.4952 C21.7644,3.4952 21.7024,3.4572 21.6724,3.3932 C21.6344,3.3072 21.6744,3.2032 21.7604,3.1652 C21.9744,3.0692 22.1884,2.9792 22.4024,2.8892 C22.4884,2.8552 22.5904,2.8952 22.6284,2.9832 C22.6644,3.0712 22.6224,3.1732 22.5344,3.2092 C22.3244,3.2972 22.1144,3.3872 21.9024,3.4812 C21.8784,3.4912 21.8544,3.4952 21.8324,3.4952 L21.8324,3.4952 Z M19.9624,4.4032 C19.9004,4.4032 19.8404,4.3692 19.8104,4.3112 C19.7664,4.2252 19.7984,4.1212 19.8824,4.0772 C20.0904,3.9692 20.2964,3.8632 20.5024,3.7592 C20.5844,3.7192 20.6924,3.7532 20.7364,3.8372 C20.7784,3.9232 20.7444,4.0272 20.6584,4.0692 C20.4524,4.1712 20.2484,4.2772 20.0424,4.3832 C20.0184,4.3972 19.9904,4.4032 19.9624,4.4032 L19.9624,4.4032 Z M35.8824,4.6492 C35.8364,4.6492 35.7904,4.6312 35.7564,4.5952 C35.6004,4.4292 35.4404,4.2672 35.2764,4.1132 C35.2064,4.0472 35.2044,3.9372 35.2684,3.8672 C35.3344,3.7972 35.4444,3.7952 35.5144,3.8612 C35.6824,4.0212 35.8484,4.1872 36.0084,4.3592 C36.0744,4.4292 36.0724,4.5372 36.0004,4.6032 C35.9684,4.6352 35.9244,4.6492 35.8824,4.6492 L35.8824,4.6492 Z M18.1524,5.4192 C18.0924,5.4192 18.0364,5.3892 18.0024,5.3352 C17.9544,5.2532 17.9804,5.1472 18.0624,5.0992 C18.2624,4.9792 18.4624,4.8612 18.6624,4.7472 C18.7424,4.6952 18.8504,4.7272 18.8984,4.8112 C18.9464,4.8932 18.9164,4.9992 18.8344,5.0452 C18.6364,5.1592 18.4384,5.2772 18.2404,5.3952 C18.2124,5.4112 18.1824,5.4192 18.1524,5.4192 L18.1524,5.4192 Z M37.1864,6.2612 C37.1304,6.2612 37.0784,6.2352 37.0444,6.1872 C36.9124,5.9992 36.7784,5.8152 36.6404,5.6352 C36.5824,5.5592 36.5964,5.4512 36.6724,5.3932 C36.7464,5.3352 36.8564,5.3492 36.9164,5.4252 C37.0544,5.6092 37.1944,5.7972 37.3284,5.9892 C37.3824,6.0672 37.3644,6.1752 37.2844,6.2312 C37.2544,6.2512 37.2204,6.2612 37.1864,6.2612 L37.1864,6.2612 Z M16.3984,6.5332 C16.3424,6.5332 16.2884,6.5072 16.2544,6.4572 C16.2004,6.3772 16.2224,6.2692 16.3004,6.2172 C16.4944,6.0872 16.6884,5.9592 16.8824,5.8332 C16.9604,5.7792 17.0684,5.8032 17.1224,5.8852 C17.1724,5.9652 17.1504,6.0732 17.0704,6.1252 C16.8764,6.2492 16.6864,6.3752 16.4944,6.5032 C16.4644,6.5232 16.4304,6.5332 16.3984,6.5332 L16.3984,6.5332 Z M14.7004,7.7312 C14.6484,7.7312 14.5964,7.7072 14.5624,7.6612 C14.5044,7.5852 14.5204,7.4772 14.5964,7.4192 C14.7844,7.2812 14.9704,7.1452 15.1604,7.0092 C15.2384,6.9572 15.3464,6.9712 15.4004,7.0492 C15.4564,7.1272 15.4384,7.2352 15.3604,7.2912 C15.1744,7.4252 14.9884,7.5612 14.8044,7.6972 C14.7724,7.7212 14.7364,7.7312 14.7004,7.7312 L14.7004,7.7312 Z M38.2784,8.0272 C38.2164,8.0272 38.1584,7.9952 38.1264,7.9392 C38.0144,7.7352 37.9004,7.5352 37.7864,7.3412 C37.7384,7.2592 37.7644,7.1512 37.8464,7.1032 C37.9264,7.0572 38.0364,7.0812 38.0844,7.1652 C38.2024,7.3632 38.3164,7.5652 38.4284,7.7732 C38.4744,7.8572 38.4444,7.9612 38.3604,8.0072 C38.3344,8.0212 38.3064,8.0272 38.2784,8.0272 L38.2784,8.0272 Z M13.0584,9.0032 C13.0064,9.0032 12.9564,8.9832 12.9224,8.9392 C12.8644,8.8652 12.8744,8.7572 12.9504,8.6952 C13.1284,8.5512 13.3104,8.4052 13.4924,8.2632 C13.5644,8.2032 13.6744,8.2172 13.7344,8.2932 C13.7944,8.3672 13.7804,8.4772 13.7064,8.5352 C13.5264,8.6772 13.3464,8.8192 13.1664,8.9652 C13.1344,8.9912 13.0964,9.0032 13.0584,9.0032 L13.0584,9.0032 Z M39.1924,9.8912 C39.1264,9.8912 39.0644,9.8532 39.0344,9.7892 C38.9404,9.5772 38.8444,9.3672 38.7484,9.1632 C38.7064,9.0752 38.7444,8.9732 38.8304,8.9332 C38.9164,8.8892 39.0184,8.9292 39.0604,9.0152 C39.1604,9.2232 39.2544,9.4352 39.3504,9.6492 C39.3904,9.7352 39.3504,9.8372 39.2624,9.8772 C39.2404,9.8872 39.2164,9.8912 39.1924,9.8912 L39.1924,9.8912 Z M11.4724,10.3492 C11.4244,10.3492 11.3764,10.3292 11.3424,10.2892 C11.2784,10.2192 11.2864,10.1092 11.3584,10.0452 C11.5324,9.8932 11.7064,9.7392 11.8824,9.5872 C11.9564,9.5232 12.0624,9.5332 12.1264,9.6052 C12.1884,9.6772 12.1804,9.7872 12.1084,9.8492 C11.9344,10.0012 11.7604,10.1512 11.5864,10.3052 C11.5544,10.3352 11.5124,10.3492 11.4724,10.3492 L11.4724,10.3492 Z M9.9464,11.7592 C9.9004,11.7592 9.8544,11.7412 9.8224,11.7072 C9.7544,11.6392 9.7564,11.5272 9.8264,11.4632 C9.9924,11.3012 10.1604,11.1412 10.3304,10.9832 C10.3984,10.9172 10.5084,10.9212 10.5744,10.9912 C10.6384,11.0612 10.6344,11.1692 10.5664,11.2352 C10.3984,11.3932 10.2304,11.5512 10.0664,11.7112 C10.0324,11.7432 9.9884,11.7592 9.9464,11.7592 L9.9464,11.7592 Z M39.9644,11.8192 C39.8944,11.8192 39.8264,11.7752 39.8004,11.7052 C39.7224,11.4892 39.6424,11.2752 39.5604,11.0612 C39.5244,10.9732 39.5704,10.8712 39.6584,10.8372 C39.7484,10.8052 39.8464,10.8472 39.8824,10.9372 C39.9664,11.1512 40.0464,11.3672 40.1264,11.5892 C40.1604,11.6792 40.1124,11.7772 40.0224,11.8112 C40.0024,11.8172 39.9844,11.8192 39.9644,11.8192 L39.9644,11.8192 Z M8.4864,13.2312 C8.4424,13.2312 8.4004,13.2152 8.3664,13.1852 C8.2964,13.1172 8.2944,13.0092 8.3604,12.9392 C8.5184,12.7712 8.6784,12.6052 8.8424,12.4392 C8.9104,12.3692 9.0184,12.3692 9.0864,12.4392 C9.1544,12.5052 9.1564,12.6152 9.0884,12.6832 C8.9264,12.8472 8.7684,13.0112 8.6124,13.1772 C8.5784,13.2132 8.5324,13.2312 8.4864,13.2312 L8.4864,13.2312 Z M40.6184,13.7912 C40.5424,13.7912 40.4744,13.7432 40.4524,13.6692 C40.3844,13.4472 40.3164,13.2272 40.2464,13.0092 C40.2164,12.9192 40.2684,12.8212 40.3584,12.7912 C40.4464,12.7672 40.5444,12.8132 40.5764,12.9032 C40.6464,13.1232 40.7144,13.3452 40.7824,13.5672 C40.8104,13.6592 40.7584,13.7552 40.6684,13.7832 C40.6504,13.7892 40.6344,13.7912 40.6184,13.7912 L40.6184,13.7912 Z M7.0904,14.7712 C7.0504,14.7712 7.0104,14.7572 6.9764,14.7292 C6.9044,14.6652 6.8964,14.5572 6.9584,14.4832 C7.1104,14.3092 7.2624,14.1352 7.4184,13.9612 C7.4824,13.8892 7.5884,13.8832 7.6624,13.9472 C7.7344,14.0112 7.7404,14.1212 7.6764,14.1912 C7.5224,14.3632 7.3704,14.5372 7.2204,14.7112 C7.1864,14.7492 7.1384,14.7712 7.0904,14.7712 L7.0904,14.7712 Z M41.1724,15.7952 C41.0964,15.7952 41.0244,15.7432 41.0044,15.6632 C40.9484,15.4412 40.8904,15.2172 40.8324,14.9952 C40.8064,14.9032 40.8624,14.8092 40.9544,14.7832 C41.0544,14.7652 41.1424,14.8152 41.1644,14.9052 C41.2244,15.1292 41.2844,15.3552 41.3404,15.5792 C41.3644,15.6732 41.3084,15.7672 41.2144,15.7892 C41.2024,15.7932 41.1864,15.7952 41.1724,15.7952 L41.1724,15.7952 Z M5.7704,16.3732 C5.7324,16.3732 5.6944,16.3612 5.6644,16.3372 C5.5884,16.2772 5.5744,16.1692 5.6344,16.0952 C5.7764,15.9132 5.9204,15.7312 6.0664,15.5512 C6.1244,15.4772 6.2384,15.4672 6.3084,15.5252 C6.3844,15.5852 6.3944,15.6932 6.3344,15.7692 C6.1904,15.9472 6.0464,16.1272 5.9064,16.3072 C5.8724,16.3512 5.8204,16.3732 5.7704,16.3732 L5.7704,16.3732 Z M41.6404,17.8172 C41.5604,17.8172 41.4884,17.7612 41.4724,17.6792 C41.4244,17.4552 41.3744,17.2312 41.3244,17.0072 C41.3044,16.9132 41.3624,16.8212 41.4564,16.7992 C41.5424,16.7752 41.6404,16.8372 41.6624,16.9312 C41.7124,17.1552 41.7624,17.3812 41.8104,17.6072 C41.8304,17.7012 41.7704,17.7932 41.6764,17.8132 C41.6644,17.8152 41.6524,17.8172 41.6404,17.8172 L41.6404,17.8172 Z M4.5344,18.0452 C4.4984,18.0452 4.4644,18.0352 4.4344,18.0132 C4.3564,17.9592 4.3364,17.8512 4.3924,17.7732 C4.5244,17.5832 4.6584,17.3952 4.7964,17.2052 C4.8524,17.1272 4.9584,17.1092 5.0384,17.1672 C5.1144,17.2252 5.1324,17.3312 5.0764,17.4092 C4.9404,17.5952 4.8064,17.7832 4.6744,17.9712 C4.6424,18.0192 4.5884,18.0452 4.5344,18.0452 L4.5344,18.0452 Z M3.3984,19.7832 C3.3684,19.7832 3.3364,19.7752 3.3084,19.7592 C3.2264,19.7092 3.2004,19.6032 3.2504,19.5212 C3.3704,19.3232 3.4924,19.1272 3.6184,18.9292 C3.6704,18.8492 3.7764,18.8252 3.8564,18.8772 C3.9384,18.9292 3.9604,19.0352 3.9104,19.1152 C3.7864,19.3112 3.6644,19.5052 3.5444,19.7012 C3.5124,19.7552 3.4564,19.7832 3.3984,19.7832 L3.3984,19.7832 Z M42.0384,19.8572 C41.9544,19.8572 41.8824,19.7972 41.8684,19.7132 C41.8284,19.4852 41.7864,19.2592 41.7444,19.0332 C41.7264,18.9392 41.7884,18.8492 41.8804,18.8312 C41.9744,18.8132 42.0664,18.8752 42.0824,18.9692 C42.1264,19.1972 42.1664,19.4252 42.2064,19.6532 C42.2244,19.7472 42.1624,19.8372 42.0684,19.8532 C42.0564,19.8552 42.0464,19.8572 42.0384,19.8572 L42.0384,19.8572 Z M2.3824,21.5952 C2.3564,21.5952 2.3284,21.5892 2.3024,21.5772 C2.2184,21.5332 2.1844,21.4292 2.2284,21.3432 C2.3324,21.1392 2.4424,20.9332 2.5544,20.7292 C2.6004,20.6432 2.7064,20.6112 2.7904,20.6592 C2.8744,20.7052 2.9044,20.8112 2.8584,20.8952 C2.7484,21.0972 2.6404,21.2992 2.5364,21.5012 C2.5044,21.5612 2.4444,21.5952 2.3824,21.5952 L2.3824,21.5952 Z M42.3664,21.9112 C42.2824,21.9112 42.2084,21.8492 42.1964,21.7632 C42.1624,21.5352 42.1284,21.3072 42.0924,21.0792 C42.0784,20.9832 42.1424,20.8972 42.2384,20.8812 C42.3284,20.8692 42.4204,20.9312 42.4344,21.0252 C42.4704,21.2552 42.5044,21.4832 42.5384,21.7132 C42.5504,21.8072 42.4864,21.8952 42.3904,21.9092 C42.3824,21.9112 42.3744,21.9112 42.3664,21.9112 L42.3664,21.9112 Z M1.5144,23.4812 C1.4944,23.4812 1.4704,23.4772 1.4504,23.4692 C1.3624,23.4332 1.3184,23.3312 1.3544,23.2432 C1.4424,23.0292 1.5324,22.8152 1.6264,22.6012 C1.6664,22.5132 1.7704,22.4772 1.8564,22.5132 C1.9424,22.5512 1.9824,22.6532 1.9444,22.7412 C1.8504,22.9512 1.7604,23.1632 1.6744,23.3732 C1.6484,23.4412 1.5824,23.4812 1.5144,23.4812 L1.5144,23.4812 Z M42.6284,23.9512 C42.5444,23.9512 42.4764,23.9032 42.4644,23.8172 C42.4344,23.5652 42.4104,23.3492 42.3804,23.1312 C42.3704,23.0372 42.4364,22.9512 42.5324,22.9392 C42.6224,22.9212 42.7124,22.9932 42.7244,23.0892 C42.7524,23.3052 42.7784,23.5232 42.8044,23.7372 C42.8164,23.8332 42.7504,23.9392 42.6564,23.9492 C42.6464,23.9512 42.6364,23.9512 42.6284,23.9512 L42.6284,23.9512 Z M0.8384,25.4432 C0.8224,25.4432 0.8064,25.4412 0.7904,25.4392 C0.7004,25.4112 0.6464,25.3172 0.6704,25.2252 C0.7344,25.0032 0.8024,24.7792 0.8744,24.5552 C0.9044,24.4652 1.0004,24.4132 1.0924,24.4452 C1.1844,24.4752 1.2344,24.5712 1.2044,24.6632 C1.1324,24.8832 1.0664,25.1012 1.0044,25.3172 C0.9844,25.3952 0.9144,25.4432 0.8384,25.4432 L0.8384,25.4432 Z M42.8504,26.0372 C42.7604,26.0372 42.6864,25.9712 42.6784,25.8812 L42.6124,25.1912 C42.6024,25.0972 42.6724,25.0132 42.7684,25.0032 C42.8584,24.9912 42.9484,25.0632 42.9564,25.1592 L43.0224,25.8492 C43.0324,25.9432 42.9604,26.0272 42.8664,26.0372 C42.8604,26.0372 42.8544,26.0372 42.8504,26.0372 L42.8504,26.0372 Z M0.4144,27.4732 C0.4064,27.4732 0.4004,27.4732 0.3924,27.4712 C0.2964,27.4592 0.2304,27.3712 0.2424,27.2772 C0.2744,27.0472 0.3104,26.8172 0.3544,26.5832 C0.3724,26.4892 0.4644,26.4312 0.5564,26.4452 C0.6504,26.4632 0.7104,26.5532 0.6944,26.6492 C0.6524,26.8752 0.6164,27.0992 0.5864,27.3212 C0.5744,27.4092 0.5004,27.4732 0.4144,27.4732 L0.4144,27.4732 Z M43.0104,28.1092 C42.9204,28.1092 42.8444,28.0412 42.8384,27.9492 L42.7904,27.2592 C42.7844,27.1632 42.8564,27.0792 42.9504,27.0732 L42.9624,27.0732 C43.0524,27.0732 43.1284,27.1432 43.1364,27.2332 L43.1844,27.9252 C43.1904,28.0212 43.1184,28.1032 43.0224,28.1092 L43.0104,28.1092 Z M0.3184,29.5412 C0.2244,29.5412 0.1484,29.4672 0.1464,29.3732 C0.1404,29.1892 0.1384,29.0052 0.1384,28.8172 L0.1384,28.6732 C0.1404,28.5792 0.2184,28.5052 0.3124,28.5052 L0.3164,28.5052 C0.4124,28.5072 0.4864,28.5852 0.4844,28.6812 L0.4844,28.8172 C0.4844,29.0012 0.4864,29.1832 0.4924,29.3632 C0.4944,29.4592 0.4184,29.5392 0.3244,29.5412 L0.3184,29.5412 Z M43.1204,30.1792 C43.0284,30.1792 42.9524,30.1132 42.9484,30.0212 C42.9384,29.7812 42.9284,29.5572 42.9164,29.3292 C42.9124,29.2332 42.9844,29.1532 43.0804,29.1492 C43.1844,29.1592 43.2564,29.2172 43.2624,29.3132 C43.2744,29.5392 43.2844,29.7672 43.2924,29.9912 C43.2964,30.0872 43.2224,30.1752 43.1264,30.1792 C43.1244,30.1792 43.1224,30.1792 43.1204,30.1792 L43.1204,30.1792 Z M0.4784,31.6092 C0.3924,31.6092 0.3184,31.5472 0.3064,31.4592 C0.2764,31.2312 0.2504,30.9992 0.2304,30.7652 C0.2204,30.6712 0.2904,30.5872 0.3864,30.5772 C0.4644,30.5592 0.5644,30.6392 0.5744,30.7332 C0.5944,30.9612 0.6204,31.1892 0.6504,31.4152 C0.6624,31.5092 0.5944,31.5972 0.5004,31.6092 C0.4924,31.6092 0.4844,31.6092 0.4784,31.6092 L0.4784,31.6092 Z M43.1744,32.2512 C43.0824,32.2512 43.0044,32.1892 43.0024,32.0932 L42.9904,31.4012 C42.9884,31.3072 43.0644,31.2272 43.1604,31.2252 L43.1644,31.2252 C43.2564,31.2252 43.3344,31.3012 43.3364,31.3952 L43.3484,32.0652 C43.3504,32.1592 43.2744,32.2492 43.1784,32.2512 L43.1744,32.2512 Z M0.8484,33.6512 C0.7704,33.6512 0.7004,33.5972 0.6804,33.5192 C0.6264,33.2932 0.5784,33.0652 0.5324,32.8372 C0.5124,32.7432 0.5744,32.6512 0.6664,32.6332 C0.7644,32.6152 0.8524,32.6752 0.8724,32.7692 C0.9164,32.9932 0.9644,33.2172 1.0164,33.4392 C1.0404,33.5312 0.9824,33.6252 0.8884,33.6472 C0.8744,33.6492 0.8624,33.6512 0.8484,33.6512 L0.8484,33.6512 Z M43.1684,33.9592 L43.1604,33.9592 C43.0664,33.9552 42.9924,33.8752 42.9964,33.7792 C43.0044,33.5552 43.0104,33.3272 43.0104,33.0972 C43.0104,33.0012 43.0864,32.9232 43.1824,32.9232 C43.2784,32.9232 43.3564,33.0012 43.3564,33.0972 C43.3564,33.3332 43.3504,33.5652 43.3404,33.7952 C43.3364,33.8872 43.2604,33.9592 43.1684,33.9592 L43.1684,33.9592 Z M1.4264,35.6432 C1.3564,35.6432 1.2884,35.5992 1.2644,35.5272 C1.1884,35.3072 1.1144,35.0872 1.0464,34.8632 C1.0184,34.7732 1.0684,34.6772 1.1604,34.6492 C1.2524,34.6152 1.3484,34.6732 1.3764,34.7632 C1.4444,34.9812 1.5164,35.1972 1.5904,35.4132 C1.6224,35.5052 1.5744,35.6032 1.4844,35.6332 C1.4644,35.6412 1.4464,35.6432 1.4264,35.6432 L1.4264,35.6432 Z M42.9364,36.0172 C42.9264,36.0172 42.9144,36.0172 42.9044,36.0152 C42.8104,35.9972 42.7484,35.9052 42.7664,35.8132 C42.8084,35.5912 42.8444,35.3672 42.8744,35.1392 C42.8884,35.0432 42.9744,34.9832 43.0704,34.9912 C43.1644,35.0052 43.2304,35.0912 43.2184,35.1872 C43.1864,35.4192 43.1504,35.6492 43.1064,35.8772 C43.0904,35.9592 43.0184,36.0172 42.9364,36.0172 L42.9364,36.0172 Z M2.2064,37.5612 C2.1424,37.5612 2.0804,37.5252 2.0504,37.4612 C1.9524,37.2512 1.8564,37.0392 1.7664,36.8252 C1.7284,36.7372 1.7704,36.6372 1.8584,36.5992 C1.9444,36.5632 2.0464,36.6032 2.0844,36.6912 C2.1724,36.9012 2.2664,37.1092 2.3624,37.3152 C2.4044,37.4012 2.3664,37.5052 2.2804,37.5452 C2.2564,37.5572 2.2304,37.5612 2.2064,37.5612 L2.2064,37.5612 Z M42.4044,38.0212 C42.3844,38.0212 42.3644,38.0172 42.3464,38.0112 C42.2544,37.9792 42.2084,37.8792 42.2404,37.7892 C42.3164,37.5752 42.3864,37.3592 42.4504,37.1412 C42.4784,37.0492 42.5704,36.9952 42.6644,37.0232 C42.7564,37.0512 42.8104,37.1472 42.7824,37.2372 C42.7164,37.4632 42.6444,37.6852 42.5664,37.9052 C42.5404,37.9772 42.4744,38.0212 42.4044,38.0212 L42.4044,38.0212 Z M3.1784,39.3912 C3.1204,39.3912 3.0624,39.3612 3.0304,39.3072 C2.9104,39.1072 2.7944,38.9072 2.6824,38.7032 C2.6364,38.6192 2.6664,38.5152 2.7504,38.4692 C2.8304,38.4232 2.9364,38.4512 2.9844,38.5372 C3.0944,38.7372 3.2084,38.9352 3.3264,39.1292 C3.3744,39.2112 3.3484,39.3172 3.2664,39.3672 C3.2404,39.3832 3.2084,39.3912 3.1784,39.3912 L3.1784,39.3912 Z M41.5644,39.9112 C41.5364,39.9112 41.5064,39.9052 41.4804,39.8912 C41.3964,39.8452 41.3664,39.7392 41.4124,39.6552 C41.5204,39.4572 41.6244,39.2552 41.7224,39.0492 C41.7624,38.9632 41.8684,38.9252 41.9524,38.9672 C42.0404,39.0092 42.0764,39.1112 42.0344,39.1972 C41.9324,39.4092 41.8284,39.6172 41.7144,39.8212 C41.6844,39.8792 41.6244,39.9112 41.5644,39.9112 L41.5644,39.9112 Z M4.3324,41.1132 C4.2804,41.1132 4.2284,41.0892 4.1944,41.0432 C4.0544,40.8572 3.9184,40.6692 3.7864,40.4792 C3.7324,40.3992 3.7504,40.2912 3.8304,40.2372 C3.9084,40.1832 4.0144,40.2012 4.0704,40.2812 C4.2004,40.4692 4.3344,40.6532 4.4704,40.8372 C4.5284,40.9132 4.5124,41.0212 4.4364,41.0792 C4.4044,41.1032 4.3684,41.1132 4.3324,41.1132 L4.3324,41.1132 Z M40.4304,41.6472 C40.3924,41.6472 40.3564,41.6352 40.3244,41.6092 C40.2484,41.5532 40.2344,41.4432 40.2924,41.3672 C40.4324,41.1872 40.5664,41.0052 40.6944,40.8172 C40.7484,40.7392 40.8564,40.7172 40.9364,40.7732 C41.0144,40.8272 41.0344,40.9352 40.9804,41.0152 C40.8464,41.2052 40.7084,41.3952 40.5664,41.5792 C40.5324,41.6232 40.4824,41.6472 40.4304,41.6472 L40.4304,41.6472 Z M5.6584,42.7092 C5.6104,42.7092 5.5644,42.6912 5.5304,42.6532 C5.3724,42.4832 5.2184,42.3092 5.0664,42.1332 C5.0044,42.0612 5.0144,41.9512 5.0864,41.8892 C5.1584,41.8272 5.2684,41.8352 5.3304,41.9072 C5.4784,42.0812 5.6304,42.2512 5.7844,42.4192 C5.8504,42.4892 5.8444,42.5992 5.7744,42.6632 C5.7424,42.6952 5.7004,42.7092 5.6584,42.7092 L5.6584,42.7092 Z M39.0484,43.1912 C39.0044,43.1912 38.9584,43.1732 38.9244,43.1372 C38.8584,43.0692 38.8604,42.9592 38.9284,42.8932 C39.0924,42.7332 39.2524,42.5712 39.4084,42.4052 C39.4744,42.3352 39.5824,42.3332 39.6524,42.3992 C39.7224,42.4632 39.7264,42.5732 39.6604,42.6432 C39.5004,42.8132 39.3364,42.9792 39.1684,43.1412 C39.1364,43.1752 39.0924,43.1912 39.0484,43.1912 L39.0484,43.1912 Z M7.1364,44.1632 C7.0964,44.1632 7.0544,44.1492 7.0224,44.1192 C6.8484,43.9652 6.6764,43.8072 6.5084,43.6492 C6.4384,43.5812 6.4364,43.4732 6.5004,43.4032 C6.5664,43.3312 6.6764,43.3312 6.7464,43.3972 C6.9124,43.5532 7.0804,43.7092 7.2524,43.8592 C7.3244,43.9232 7.3304,44.0332 7.2664,44.1052 C7.2324,44.1432 7.1844,44.1632 7.1364,44.1632 L7.1364,44.1632 Z M37.4664,44.5312 C37.4144,44.5312 37.3624,44.5072 37.3284,44.4612 C37.2724,44.3852 37.2884,44.2772 37.3644,44.2192 C37.5464,44.0812 37.7264,43.9412 37.9044,43.7992 C37.9764,43.7372 38.0864,43.7492 38.1484,43.8252 C38.2064,43.8992 38.1964,44.0072 38.1224,44.0672 C37.9424,44.2132 37.7584,44.3572 37.5704,44.4972 C37.5404,44.5212 37.5024,44.5312 37.4664,44.5312 L37.4664,44.5312 Z M8.7584,45.4592 C8.7244,45.4592 8.6884,45.4492 8.6584,45.4272 C8.4684,45.2912 8.2824,45.1532 8.0984,45.0092 C8.0224,44.9512 8.0084,44.8432 8.0664,44.7672 C8.1244,44.6912 8.2344,44.6772 8.3084,44.7352 C8.4924,44.8772 8.6744,45.0132 8.8604,45.1472 C8.9384,45.2012 8.9564,45.3112 8.9004,45.3872 C8.8664,45.4352 8.8124,45.4592 8.7584,45.4592 L8.7584,45.4592 Z M35.7364,45.6732 C35.6764,45.6732 35.6204,45.6432 35.5864,45.5872 C35.5404,45.5052 35.5664,45.3992 35.6504,45.3512 C35.8464,45.2352 36.0424,45.1152 36.2344,44.9932 C36.3144,44.9432 36.4224,44.9672 36.4744,45.0472 C36.5244,45.1292 36.5004,45.2352 36.4204,45.2872 C36.2244,45.4112 36.0244,45.5312 35.8244,45.6492 C35.7964,45.6652 35.7664,45.6732 35.7364,45.6732 L35.7364,45.6732 Z M10.5024,46.5852 C10.4744,46.5852 10.4444,46.5772 10.4164,46.5632 C10.2144,46.4452 10.0144,46.3252 9.8164,46.2032 C9.7364,46.1532 9.7104,46.0472 9.7624,45.9652 C9.8124,45.8812 9.9144,45.8552 10.0004,45.9092 C10.1944,46.0312 10.3904,46.1472 10.5884,46.2612 C10.6724,46.3092 10.7004,46.4152 10.6544,46.4972 C10.6224,46.5532 10.5624,46.5852 10.5024,46.5852 L10.5024,46.5852 Z M33.8944,46.6292 C33.8284,46.6292 33.7664,46.5932 33.7364,46.5292 C33.6964,46.4412 33.7344,46.3392 33.8224,46.2992 C34.0304,46.2032 34.2384,46.1052 34.4424,46.0032 C34.5244,45.9612 34.6304,45.9952 34.6744,46.0812 C34.7164,46.1672 34.6824,46.2712 34.5964,46.3132 C34.3884,46.4152 34.1784,46.5172 33.9664,46.6132 C33.9424,46.6252 33.9184,46.6292 33.8944,46.6292 L33.8944,46.6292 Z M31.9724,47.4132 C31.9024,47.4132 31.8364,47.3692 31.8104,47.2992 C31.7784,47.2112 31.8244,47.1112 31.9144,47.0772 C32.1304,46.9992 32.3444,46.9192 32.5564,46.8352 C32.6504,46.8052 32.7464,46.8452 32.7824,46.9332 C32.8164,47.0232 32.7724,47.1232 32.6844,47.1572 C32.4684,47.2412 32.2504,47.3232 32.0324,47.4032 C32.0124,47.4112 31.9924,47.4132 31.9724,47.4132 L31.9724,47.4132 Z M12.3564,47.5252 C12.3324,47.5252 12.3104,47.5212 12.2864,47.5112 C12.0724,47.4152 11.8604,47.3172 11.6524,47.2152 C11.5664,47.1732 11.5304,47.0692 11.5724,46.9832 C11.6144,46.8972 11.7164,46.8592 11.8044,46.9032 C12.0084,47.0052 12.2164,47.1012 12.4264,47.1932 C12.5144,47.2332 12.5544,47.3352 12.5144,47.4232 C12.4864,47.4872 12.4224,47.5252 12.3564,47.5252 L12.3564,47.5252 Z M29.9944,48.0432 C29.9164,48.0432 29.8484,47.9932 29.8264,47.9152 C29.8004,47.8232 29.8564,47.7292 29.9484,47.7032 C30.1684,47.6432 30.3904,47.5772 30.6084,47.5112 C30.7004,47.4812 30.7964,47.5352 30.8244,47.6252 C30.8524,47.7172 30.8004,47.8152 30.7084,47.8412 C30.4884,47.9092 30.2644,47.9752 30.0404,48.0372 C30.0244,48.0412 30.0084,48.0432 29.9944,48.0432 L29.9944,48.0432 Z M14.2964,48.2712 C14.2784,48.2712 14.2604,48.2692 14.2424,48.2632 C14.0204,48.1912 13.7984,48.1132 13.5804,48.0332 C13.4904,48.0012 13.4444,47.9012 13.4784,47.8132 C13.5104,47.7232 13.6084,47.6732 13.7004,47.7092 C13.9144,47.7872 14.1304,47.8612 14.3504,47.9352 C14.4404,47.9632 14.4904,48.0612 14.4604,48.1512 C14.4364,48.2252 14.3704,48.2712 14.2964,48.2712 L14.2964,48.2712 Z M27.9764,48.5312 C27.8964,48.5312 27.8244,48.4772 27.8064,48.3952 C27.7884,48.3012 27.8464,48.2092 27.9404,48.1912 C28.1664,48.1432 28.3904,48.0952 28.6144,48.0432 C28.7104,48.0212 28.8004,48.0792 28.8224,48.1732 C28.8424,48.2672 28.7844,48.3592 28.6924,48.3812 C28.4644,48.4332 28.2384,48.4812 28.0104,48.5272 C27.9984,48.5312 27.9884,48.5312 27.9764,48.5312 L27.9764,48.5312 Z M16.2984,48.8112 C16.2864,48.8112 16.2744,48.8112 16.2624,48.8072 C16.0344,48.7592 15.8084,48.7052 15.5824,48.6492 C15.4904,48.6252 15.4324,48.5312 15.4564,48.4392 C15.4784,48.3472 15.5624,48.2912 15.6664,48.3132 C15.8884,48.3692 16.1104,48.4212 16.3344,48.4692 C16.4284,48.4892 16.4884,48.5812 16.4664,48.6752 C16.4504,48.7552 16.3784,48.8112 16.2984,48.8112 L16.2984,48.8112 Z M25.9324,48.8892 C25.8484,48.8892 25.7744,48.8252 25.7624,48.7392 C25.7484,48.6452 25.8144,48.5572 25.9084,48.5452 C26.1364,48.5132 26.3624,48.4772 26.5864,48.4412 C26.6864,48.4312 26.7704,48.4892 26.7864,48.5832 C26.8024,48.6772 26.7384,48.7672 26.6444,48.7812 C26.4144,48.8192 26.1864,48.8552 25.9564,48.8872 C25.9484,48.8892 25.9404,48.8892 25.9324,48.8892 L25.9324,48.8892 Z M23.8724,49.1252 C23.7844,49.1252 23.7064,49.0572 23.7004,48.9672 C23.6924,48.8712 23.7624,48.7892 23.8584,48.7792 C24.0864,48.7612 24.3144,48.7392 24.5424,48.7152 C24.6564,48.6952 24.7224,48.7752 24.7324,48.8692 C24.7444,48.9632 24.6744,49.0492 24.5804,49.0592 C24.3504,49.0832 24.1184,49.1052 23.8864,49.1252 L23.8724,49.1252 Z M18.3464,49.1432 C18.3404,49.1432 18.3324,49.1432 18.3284,49.1432 C18.0944,49.1172 17.8644,49.0872 17.6344,49.0532 C17.5404,49.0392 17.4764,48.9512 17.4904,48.8572 C17.5044,48.7632 17.5784,48.6892 17.6864,48.7112 C17.9124,48.7432 18.1384,48.7732 18.3644,48.7992 C18.4604,48.8092 18.5284,48.8952 18.5184,48.9892 C18.5084,49.0772 18.4324,49.1432 18.3464,49.1432 L18.3464,49.1432 Z M21.8004,49.2472 C21.7064,49.2472 21.6304,49.1732 21.6264,49.0792 C21.6244,48.9832 21.6984,48.9032 21.7944,48.9012 C22.0244,48.8932 22.2544,48.8852 22.4844,48.8732 C22.5644,48.8632 22.6604,48.9412 22.6644,49.0372 C22.6704,49.1332 22.5964,49.2132 22.5004,49.2192 C22.2704,49.2312 22.0384,49.2392 21.8064,49.2472 L21.8004,49.2472 Z M20.4164,49.2652 L20.4164,49.2652 C20.1824,49.2632 19.9504,49.2572 19.7184,49.2472 C19.6244,49.2432 19.5484,49.1612 19.5524,49.0672 C19.5564,48.9732 19.6344,48.9012 19.7264,48.9012 L19.7344,48.9012 C19.9604,48.9112 20.1904,48.9172 20.4184,48.9192 C20.5144,48.9192 20.5904,48.9972 20.5904,49.0932 C20.5884,49.1892 20.5124,49.2652 20.4164,49.2652 L20.4164,49.2652 Z" id="Fill-57" fill="#1D1D1B" fill-rule="nonzero" mask="url(#mask-6)"></path>
                    </g>
                </g>
                <g id="Fill-61-Clipped" transform="translate(6.539062, 4.681000)">
                    <mask id="mask-8" fill="white">
                        <use xlink:href="#path-7"></use>
                    </mask>
                    <g id="path-7"></g>
                    <path d="M22.554,2.652 C18.912,4.764 15.732,6.366 12.928,7.782 L12.928,7.782 C4.78,11.888 0.292,14.152 0.292,21.36 L0.292,21.36 L0.294,21.628 C0.448,31.9 8.498,39.948 18.62,39.948 L18.62,39.948 C28.728,39.948 38.954,35.46 39.018,25.44 L39.018,25.44 L38.768,25.438 L39.018,25.438 L39.018,25.292 C39.018,20.678 37.692,14.75 35.636,10.194 L35.636,10.194 C33.124,4.622 29.81,1.552 26.302,1.552 L26.302,1.552 C25.076,1.552 23.814,1.922 22.554,2.652 M0.796,21.62 L0.794,21.36 C0.794,14.46 4.924,12.378 13.152,8.226 L13.152,8.226 C15.964,6.81 19.15,5.202 22.804,3.086 L22.804,3.086 C23.986,2.4 25.164,2.052 26.302,2.052 L26.302,2.052 C33.88,2.052 38.518,17.098 38.518,25.292 L38.518,25.292 L38.518,25.436 C38.478,31.9 33.242,39.448 18.62,39.448 L18.62,39.448 C8.772,39.448 0.944,31.616 0.796,21.62" id="Fill-61" fill="url(#linearGradient-9)" fill-rule="nonzero" mask="url(#mask-8)"></path>
                </g>
                <g id="Group-70" transform="translate(44.539062, 32.681000)" fill-rule="nonzero">
                    <path d="M14.7114,7.5408 C14.7114,11.3288 11.6394,14.4008 7.8514,14.4008 C4.0614,14.4008 0.9914,11.3288 0.9914,7.5408 C0.9914,3.7508 4.0614,0.6808 7.8514,0.6808 C11.6394,0.6808 14.7114,3.7508 14.7114,7.5408" id="Fill-64" fill="#BD1622"></path>
                    <path d="M7.851,8.9344 C7.081,8.9344 6.457,8.3104 6.457,7.5404 C6.457,6.7704 7.081,6.1464 7.851,6.1464 C8.621,6.1464 9.245,6.7704 9.245,7.5404 C9.245,8.3104 8.621,8.9344 7.851,8.9344 M7.851,5.5324 C6.743,5.5324 5.843,6.4324 5.843,7.5404 C5.843,8.6484 6.743,9.5484 7.851,9.5484 C8.959,9.5484 9.859,8.6484 9.859,7.5404 C9.859,6.4324 8.959,5.5324 7.851,5.5324" id="Fill-66" fill="#FEFEFE"></path>
                    <path d="M7.851,10.1726 C5.651,10.1726 3.753,8.1686 3.209,7.5406 C3.751,6.9106 5.647,4.9066 7.851,4.9066 C10.051,4.9066 11.949,6.9106 12.493,7.5406 C11.951,8.1706 10.055,10.1726 7.851,10.1726 M13.133,7.3546 C13.037,7.2286 10.753,4.2946 7.851,4.2946 C4.951,4.2946 2.665,7.2286 2.569,7.3546 C2.485,7.4646 2.485,7.6166 2.569,7.7266 C2.665,7.8506 4.951,10.7866 7.851,10.7866 C10.753,10.7866 13.037,7.8506 13.133,7.7266 C13.217,7.6166 13.217,7.4646 13.133,7.3546" id="Fill-68" fill="#FEFEFE"></path>
                </g>
            </g>
        </g>
    </g>
</svg>