<?xml version="1.0" encoding="UTF-8"?>
<svg width="121px" height="106px" viewBox="0 0 121 106" version="1.1" xmlns="http://www.w3.org/2000/svg" xmlns:xlink="http://www.w3.org/1999/xlink">
    <title>FEC8958C-0693-422F-B3CC-DD1D03759C71</title>
    <defs>
        <path d="M34.6877341,0.538295623 C33.6850297,0.538295623 32.6104402,0.727460671 31.4621225,1.13517563 L31.4621225,1.13517563 C12.1010799,8.00205053 2.67492106,7.04704252 0.693473919,18.6852844 L0.693473919,18.6852844 C-1.34695584,30.6687983 6.4000417,42.1197117 18.3956306,44.3309225 L18.3956306,44.3309225 C30.3930626,46.5439699 43.4853594,43.6569073 45.7783085,31.7193071 L45.7783085,31.7193071 C47.8592888,20.8818028 45.0668307,0.538295623 34.6877341,0.538295623 L34.6877341,0.538295623 C34.6877341,0.538295623 34.6877341,0.538295623 34.6877341,0.538295623" id="path-1"></path>
        <linearGradient x1="101.304485%" y1="50.0001566%" x2="-1.30165162%" y2="50.0001566%" id="linearGradient-3">
            <stop stop-color="#991D58" offset="0%"></stop>
            <stop stop-color="#E61E72" offset="100%"></stop>
        </linearGradient>
    </defs>
    <g id="TACCT-Page-publique" stroke="none" stroke-width="1" fill="none" fill-rule="evenodd">
        <g id="TACCT-Homepage" transform="translate(-493.000000, -19.000000)">
            <g id="Group-8" transform="translate(208.000000, 15.000000)">
                <g id="Group-260" transform="translate(285.000000, 4.000000)">
                    <g id="Group-75" transform="translate(0.000000, 22.249850)">
                        <mask id="mask-2" fill="white">
                            <use xlink:href="#path-1"></use>
                        </mask>
                        <g id="Clip-74"></g>
                        <path d="M32.2344261,-8.01288283 L-14.6346326,26.9569393 M33.8711936,-6.70158337 L-12.9997083,28.2664022 M35.5061179,-5.39212046 L-11.364784,29.5777017 M37.1410422,-4.080821 L-9.72801646,30.8871646 M38.7759665,-2.7713581 L-8.09309217,32.198464 M40.4108908,-1.46005864 L-6.45816787,33.5097635 M42.0476583,-0.150595732 L-4.82324358,34.8192264 M43.6825826,1.16070373 L-3.18647607,36.1305259 M45.3175068,2.47200319 L-1.55155178,37.4399888 M46.9524311,3.78146609 L0.0833725188,38.7512882 M48.5891986,5.09276555 L1.71829681,40.0607511 M50.2241229,6.40222846 L3.35506432,41.3720506 M51.8590472,7.71352792 L4.98998861,42.6833501 M53.4939715,9.02299082 L6.62491291,43.992813 M55.1288958,10.3342903 L8.25983721,45.3041124 M56.7656633,11.6455897 L9.8947615,46.6135753 M58.4005876,12.9550526 L11.531529,47.9248748 M60.0355119,14.2663521 L13.1664533,49.2343377 M61.6704362,15.575815 L14.8013776,50.5456372 M63.3072037,16.8871145 L16.4363019,51.8569366 M64.942128,18.1965774 L18.0712262,53.1663995 M66.5770523,19.5078768 L19.7079937,54.477699" id="Stroke-73" stroke="#2AACA3" stroke-width="0.247" stroke-linecap="round" stroke-linejoin="round" mask="url(#mask-2)"></path>
                    </g>
                    <path d="M57.4440386,0.686124364 C57.5701936,0.706213213 57.6561181,0.824398098 57.6359565,0.950097693 C57.6157949,1.07579729 57.4971819,1.16141171 57.371027,1.14132286 C56.7856271,1.04810408 56.184979,1.0011072 55.5688693,1.0011072 C55.4411134,1.0011072 55.3375468,0.897914423 55.3375468,0.770619687 C55.3375468,0.64332495 55.4411134,0.540132177 55.5688693,0.540132177 C56.2092979,0.540132177 56.8343584,0.589039181 57.4440386,0.686124364 Z M61.0111908,1.89106611 C61.123728,1.95132038 61.1659348,2.0910663 61.1054623,2.20319735 C61.0449897,2.3153284 60.9047376,2.35738284 60.7922004,2.29712856 C60.256366,2.01023411 59.7048648,1.77013827 59.1374945,1.57766518 C59.016556,1.53663832 58.9518952,1.40569326 58.9930707,1.2851912 C59.0342461,1.16468913 59.1656656,1.10026175 59.2866041,1.14128861 C59.8782599,1.34200024 60.4531148,1.59226312 61.0111908,1.89106611 Z M64.1044484,4.20518081 C64.1952232,4.29475348 64.1959347,4.44068838 64.1060376,4.53113553 C64.0161404,4.62158268 63.8696769,4.62229159 63.7789021,4.53271893 C63.3372591,4.09692453 62.8819581,3.70004967 62.4129296,3.34288575 C62.3114237,3.26558927 62.2920251,3.12093831 62.3696015,3.01979877 C62.447178,2.91865924 62.592353,2.89933063 62.6938589,2.9766271 C63.1788506,3.34594703 63.6490088,3.75577252 64.1044484,4.20518081 Z M66.4426238,7.04283327 C66.5143772,7.14815424 66.4868559,7.29149138 66.3811534,7.36298574 C66.275451,7.4344801 66.1315946,7.40705821 66.0598412,7.30173724 C65.7084148,6.7859065 65.3457547,6.29984311 64.9718264,5.84425442 C64.8909494,5.74571511 64.9055569,5.6005061 65.0044532,5.51992103 C65.1033494,5.43933596 65.2490844,5.45389074 65.3299614,5.55243006 C65.71276,6.01882614 66.0836145,6.51587227 66.4426238,7.04283327 Z M68.3426964,10.3280853 C68.3991244,10.4422903 68.3519516,10.5804505 68.237333,10.6366749 C68.1227143,10.6928992 67.9840536,10.6458967 67.9276256,10.5316917 C67.6513007,9.97243644 67.3657802,9.43547749 67.0710349,8.92142956 C67.0076601,8.8109012 67.0462101,8.67011022 67.1571389,8.60696411 C67.2680676,8.54381799 67.4093686,8.58222889 67.4727434,8.69275725 C67.7722832,9.21516691 68.0622459,9.76048003 68.3426964,10.3280853 Z M69.8476834,13.8250247 C69.8924349,13.9442542 69.8317083,14.0770562 69.7120469,14.1216461 C69.5923854,14.1662361 69.4591024,14.1057287 69.4143509,13.9864991 C69.1957118,13.4039877 68.9693418,12.8383753 68.7352157,12.2902183 C68.6851881,12.1730892 68.7399286,12.0377283 68.857482,11.9878813 C68.9750354,11.9380342 69.1108866,11.9925772 69.1609142,12.1097063 C69.3977677,12.664249 69.6266765,13.2362047 69.8476834,13.8250247 Z M70.9785636,17.2128453 C71.0147542,17.3349257 70.9447682,17.4631238 70.8222455,17.4991838 C70.6997229,17.5352437 70.5710604,17.4655103 70.5348698,17.3434299 C70.3584996,16.748486 70.1753632,16.1666866 69.9854403,15.5985678 C69.9450664,15.4777967 70.0105957,15.3472811 70.1318043,15.3070529 C70.2530128,15.2668247 70.3840012,15.3321175 70.4243752,15.4528885 C70.6159935,16.0260788 70.800713,16.6129077 70.9785636,17.2128453 Z M71.9289393,20.8174178 C71.957902,20.9413983 71.8805108,21.0652984 71.7560812,21.0941566 C71.6316516,21.1230147 71.5073026,21.0459028 71.4783399,20.9219224 C71.3376301,20.3195861 71.1908652,19.7272918 71.0380288,19.1455879 C71.0056739,19.022443 71.0796352,18.8964802 71.2032262,18.864242 C71.3268171,18.8320039 71.4532362,18.9056983 71.4855911,19.0288431 C71.6395083,19.6146607 71.7872839,20.2110336 71.9289393,20.8174178 Z M72.6739035,24.3988009 C72.6969516,24.524007 72.6137686,24.6441233 72.4881089,24.6670882 C72.3624493,24.6900532 72.2418979,24.6071704 72.2188497,24.4819643 C72.1071637,23.8752438 71.9898937,23.2759843 71.8670269,22.6847839 C71.8411213,22.5601336 71.9215358,22.4381598 72.0466376,22.4123477 C72.1717394,22.3865357 72.294155,22.4666599 72.3200606,22.5913101 C72.4436473,23.1859743 72.5615896,23.7886696 72.6739035,24.3988009 Z M73.2712464,28.0800564 C73.2890905,28.2061033 73.2010047,28.3226978 73.0745011,28.3404776 C72.9479976,28.3582573 72.8309807,28.2704894 72.8131365,28.1444424 C72.726906,27.5353291 72.6353954,26.931206 72.5385939,26.3327704 C72.5182654,26.2070975 72.6040329,26.0887994 72.7301611,26.0685442 C72.8562892,26.0482891 72.9750158,26.1337471 72.9953443,26.25942 C73.0926326,26.8608648 73.1845957,27.4679754 73.2712464,28.0800564 Z M73.7247282,31.7808442 C73.7379198,31.9074586 73.6456007,32.0207551 73.5185277,32.033899 C73.3914548,32.047043 73.2777479,31.9550572 73.2645563,31.8284428 C73.2010293,31.2187047 73.1323736,30.6113421 73.0585783,30.0072254 C73.0431426,29.8808632 73.1334374,29.7659585 73.2602573,29.7505786 C73.3870773,29.7351986 73.5023982,29.8251675 73.5178339,29.9515297 C73.5919609,30.5583613 73.6609216,31.1684227 73.7247282,31.7808442 Z M74.0474552,35.5017207 C74.056293,35.6287105 73.960139,35.7387947 73.8326892,35.7476006 C73.7052394,35.7564065 73.5947565,35.6605996 73.5859187,35.5336098 C73.5435535,34.9248695 73.4960565,34.3153227 73.4434106,33.706143 C73.4324502,33.5793176 73.5267498,33.4676522 73.6540347,33.4567314 C73.7813195,33.4458106 73.8933894,33.5397698 73.9043498,33.6665953 C73.9572172,34.2783384 74.0049132,34.890438 74.0474552,35.5017207 Z M74.2371949,39.0501416 C74.2419342,39.1773487 74.1422809,39.2842985 74.014613,39.2890208 C73.8869451,39.293743 73.7796078,39.1944494 73.7748685,39.0672423 C73.7523006,38.4615064 73.7244296,37.8507208 73.6912188,37.2365757 C73.6843451,37.1094653 73.7821895,37.0008699 73.9097603,36.9940211 C74.0373311,36.9871722 74.1463199,37.0846634 74.1531936,37.2117738 C74.1865433,37.8284898 74.2145315,38.4418426 74.2371949,39.0501416 Z M74.309621,42.7546153 C74.3097544,42.8819099 74.206296,42.9852104 74.0785402,42.9853434 C73.9507844,42.9854762 73.8471098,42.8823912 73.8469764,42.7550966 C73.8463485,42.1558757 73.8399857,41.5442504 73.8277869,40.9229674 C73.8252879,40.795697 73.9268089,40.6905055 74.0545403,40.6880156 C74.1822717,40.6855256 74.2878443,40.7866802 74.2903432,40.9139506 C74.3025977,41.5380689 74.3089902,42.1525394 74.309621,42.7546153 Z M73.9929043,46.4699924 C73.9701605,46.5952537 73.8498108,46.678427 73.7240957,46.6557653 C73.5983806,46.6331035 73.514906,46.5131882 73.5376498,46.3879269 C73.64418,45.8012136 73.7234281,45.2017938 73.7750387,44.589777 C73.7857356,44.4629293 73.8976101,44.3687391 74.0249173,44.3793974 C74.1522246,44.3900557 74.2467559,44.5015264 74.236059,44.6283741 C74.183225,45.2548984 74.1020592,45.8688237 73.9929043,46.4699924 Z M72.9494127,50.059143 C72.9011034,50.176986 72.7660643,50.2334956 72.6477944,50.1853606 C72.5295245,50.1372257 72.4728102,50.002674 72.5211195,49.8848309 C72.7491451,49.3285981 72.9483684,48.7579522 73.1183193,48.1730407 C73.1538469,48.050767 73.2821291,47.9803416 73.4048457,48.0157409 C73.5275622,48.0511403 73.5982428,48.1789595 73.5627152,48.3012331 C73.3882195,48.9017864 73.1836215,49.4878272 72.9494127,50.059143 Z M71.1293605,53.4001307 C71.0566297,53.5047839 70.9125242,53.5308748 70.8074919,53.4584065 C70.7024596,53.3859382 70.6762741,53.2423528 70.749005,53.1376996 C71.0955113,52.6391081 71.4140916,52.1252425 71.7041626,51.5962977 C71.7654218,51.4845914 71.9059661,51.4435168 72.0180771,51.5045549 C72.130188,51.565593 72.1714115,51.70563 72.1101522,51.8173363 C71.8122372,52.3605847 71.4850943,52.8882617 71.1293605,53.4001307 Z M68.7321444,56.2071391 C68.6404665,56.2957939 68.4940177,56.2936114 68.4050417,56.2022644 C68.3160658,56.1109174 68.3182561,55.9649971 68.409934,55.8763423 C68.8503614,55.4504382 69.265807,55.0093249 69.6555899,54.5532274 C69.7384165,54.4563093 69.8844131,54.4446435 69.9816823,54.5271713 C70.0789516,54.609699 70.0906596,54.7551686 70.0078329,54.8520867 C69.6084738,55.3193897 69.1830004,55.7711502 68.7321444,56.2071391 Z M65.7825677,58.5948891 C65.6770768,58.6666931 65.5331401,58.6396931 65.461076,58.534583 C65.3890119,58.4294729 65.4161097,58.2860556 65.5216006,58.2142517 C66.0309917,57.8675269 66.5195152,57.5062748 66.9864146,57.1307178 C67.0858213,57.0507587 67.2314608,57.0662332 67.3117096,57.1652811 C67.3919584,57.264329 67.3764278,57.4094429 67.2770211,57.489402 C66.8004441,57.8727433 66.3020309,58.2413086 65.7825677,58.5948891 Z M62.4768988,60.5066349 C62.3622587,60.5628158 62.2236159,60.5157608 62.1672314,60.4015345 C62.110847,60.2873082 62.1580724,60.1491658 62.2727125,60.0929848 C62.8275274,59.8210901 63.3656913,59.5355652 63.8863937,59.2366076 C63.9970876,59.1730535 64.13853,59.210944 64.2023143,59.3212383 C64.2660986,59.4315326 64.2280709,59.5724645 64.1173771,59.6360186 C63.5878145,59.9400632 63.0407137,60.2303295 62.4768988,60.5066349 Z M59.1030779,61.9235603 C58.9828057,61.966488 58.85038,61.9041398 58.8072968,61.7843018 C58.7642136,61.6644637 58.8267876,61.532516 58.9470598,61.4895883 C59.5289668,61.2818933 60.0979247,61.0614069 60.6530811,60.8282928 C60.7708096,60.7788577 60.9064676,60.8338761 60.9560817,60.9511796 C61.0056958,61.0684832 60.9504782,61.2036515 60.8327497,61.2530866 C60.2697261,61.4895042 59.6928827,61.7130464 59.1030779,61.9235603 Z M55.6105734,62.980287 C55.4867269,63.0115363 55.3609051,62.9368338 55.3295426,62.8134343 C55.2981801,62.6900349 55.3731532,62.5646672 55.4969997,62.5334179 C56.095385,62.3824316 56.6840984,62.2193615 57.2622467,62.0443333 C57.3844848,62.007327 57.5136866,62.0760634 57.5508269,62.1978603 C57.5879672,62.3196572 57.5189818,62.4483926 57.3967437,62.4853989 C56.8116156,62.6625402 56.2159267,62.8275424 55.6105734,62.980287 Z M51.9385527,63.737483 C51.8124663,63.7579946 51.6935649,63.6727782 51.6729791,63.5471468 C51.6523932,63.4215155 51.7379183,63.3030433 51.8640047,63.2825318 C52.4720274,63.1836196 53.0733984,63.0731936 53.6671797,62.9513372 C53.7923091,62.925658 53.9146389,63.0059122 53.9404111,63.1305899 C53.9661833,63.2552676 53.8856384,63.377156 53.760509,63.4028351 C53.1604554,63.5259787 52.5528232,63.6375544 51.9385527,63.737483 Z M48.2137023,64.1938543 C48.0863963,64.2045274 47.9745107,64.1103503 47.9637989,63.9835038 C47.9530871,63.8566573 48.0476054,63.7451756 48.1749114,63.7345025 C48.7873638,63.6831554 49.3959645,63.6207169 49.9997271,63.547224 C50.1265401,63.5317877 50.2419013,63.6217054 50.2573935,63.7480607 C50.2728857,63.8744161 50.1826423,63.9893609 50.0558293,64.0047972 C49.4462848,64.0789938 48.8319129,64.1420244 48.2137023,64.1938543 Z M44.4606487,64.3701688 C44.3329004,64.3715476 44.2282181,64.2694785 44.2268205,64.1421913 C44.2254506,64.014904 44.3278893,63.9105996 44.4556377,63.9092208 C45.0685419,63.9026058 45.6803046,63.8851906 46.2898886,63.8569607 C46.4175067,63.8510507 46.52577,63.9493412 46.5317014,64.0764987 C46.5376328,64.2036561 46.4389862,64.3115286 46.3113681,64.3174386 C45.6962862,64.3459231 45.0790332,64.3634947 44.4606487,64.3701688 Z M40.7130162,64.1908113 C40.5861105,64.1761506 40.495161,64.0617597 40.5098748,63.935312 C40.5245886,63.8088643 40.6393939,63.718243 40.7662996,63.7329037 C41.369556,63.8025944 41.9766193,63.8520966 42.5867935,63.8811989 C42.7144032,63.8872852 42.8128995,63.9952939 42.8067911,64.1224431 C42.8006828,64.2495922 42.6922828,64.347733 42.5646731,64.3416467 C41.9440812,64.3120476 41.3266243,64.2616978 40.7130162,64.1908113 Z M37.0467872,63.5113203 C36.9230854,63.4795069 36.8486886,63.3537989 36.8806172,63.2305437 C36.9125458,63.1072884 37.0387092,63.0331601 37.1624109,63.0649735 C37.7516931,63.2165239 38.3468476,63.3481309 38.9470843,63.4594795 C39.0726819,63.4827789 39.1555426,63.6031162 39.1321589,63.7282605 C39.1087751,63.8534048 38.9880019,63.9359664 38.8624043,63.9126671 C38.2517689,63.7993894 37.6462939,63.6655002 37.0467872,63.5113203 Z M33.4889972,62.3293179 C33.3708862,62.2807972 33.3146146,62.1460611 33.3633111,62.0283764 C33.4120076,61.9106917 33.5472318,61.8546232 33.6653428,61.9031439 C34.2281826,62.134362 34.7991131,62.3464409 35.3772789,62.5389446 C35.4984486,62.5792887 35.5638522,62.709867 35.5233619,62.8305994 C35.4828716,62.9513317 35.3518203,63.0164992 35.2306506,62.9761551 C34.6424452,62.7803086 34.0616035,62.5645481 33.4889972,62.3293179 Z M30.0904026,60.6477174 C29.9802146,60.5832964 29.9433023,60.4420704 30.0079566,60.3322802 C30.0726109,60.2224899 30.2143485,60.1857109 30.3245364,60.2501318 C30.8500274,60.557358 31.3859248,60.8466917 31.9313431,61.1175658 C32.0456829,61.174351 32.0921734,61.3127407 32.0351825,61.4266678 C31.9781916,61.5405949 31.8393006,61.5869176 31.7249608,61.5301324 C31.1701153,61.2545764 30.6249623,60.9602456 30.0904026,60.6477174 Z M27.0585599,58.5909734 C26.9580071,58.5124499 26.9403794,58.3675741 27.0191874,58.2673842 C27.0979953,58.1671944 27.2433959,58.1496303 27.3439487,58.2281539 C27.8234032,58.6025687 28.3154499,58.9606906 28.8192183,59.3018329 C28.924881,59.3733857 28.9523224,59.516738 28.8805105,59.6220193 C28.8086986,59.7273006 28.664827,59.754643 28.5591643,59.6830903 C28.0467394,59.336086 27.5462432,58.9718143 27.0585599,58.5909734 Z M24.2559009,56.0741975 C24.1670959,55.9826855 24.1695591,55.8367695 24.2614026,55.748285 C24.3532462,55.6598006 24.4996907,55.6622549 24.5884957,55.7537669 C25.0119221,56.1901005 25.4500632,56.6120694 25.9021066,57.0188844 C25.9969154,57.1042073 26.0043547,57.2499556 25.9187227,57.3444222 C25.8330907,57.4388889 25.6868145,57.4463013 25.5920057,57.3609784 C25.1322209,56.9471966 24.6865775,56.5180024 24.2559009,56.0741975 Z M21.8116269,53.179228 C21.7363435,53.0763825 21.758989,52.9322008 21.862207,52.8571891 C21.9654251,52.7821774 22.1101291,52.8047412 22.1854125,52.9075867 C22.5444872,53.3981226 22.9202015,53.8764336 23.3118378,54.3416614 C23.3939392,54.4391903 23.3811464,54.5845691 23.2832642,54.6663742 C23.1853821,54.7481793 23.0394766,54.7354326 22.9573752,54.6379038 C22.5590237,54.164699 22.1768645,53.6781831 21.8116269,53.179228 Z M19.8348123,50.0538078 C19.7741934,49.9417553 19.8162176,49.8019547 19.928676,49.7415546 C20.0411345,49.6811544 20.1814414,49.723027 20.2420604,49.8350795 C20.5312496,50.3696383 20.8386531,50.894182 21.1636716,51.4078273 C21.2318078,51.5155068 21.1994354,51.6578341 21.0913658,51.7257244 C20.9832963,51.7936146 20.8404534,51.7613591 20.7723172,51.6536796 C20.4416978,51.1311828 20.1289928,50.5975928 19.8348123,50.0538078 Z M18.3215687,46.7415924 C18.2765786,46.622452 18.3370392,46.4895296 18.4566112,46.444702 C18.5761832,46.3998743 18.709587,46.4601167 18.754577,46.5792571 C18.9692858,47.1478384 19.2033965,47.708604 19.4564362,48.260689 C19.5095075,48.3764805 19.4583227,48.5132156 19.3421117,48.5660954 C19.2259007,48.6189751 19.0886703,48.567975 19.035599,48.4521834 C18.7781736,47.8905297 18.5400028,47.3200389 18.3215687,46.7415924 Z M17.2438918,43.1482705 C17.2158984,43.0240692 17.2942552,42.9007729 17.4189064,42.8728806 C17.5435576,42.8449883 17.6673005,42.9230622 17.6952938,43.0472636 C17.8289815,43.6404114 17.9828552,44.2279403 18.156568,44.8090431 C18.1930376,44.9310411 18.123345,45.0593977 18.0009051,45.0957357 C17.8784652,45.1320737 17.7496436,45.0626326 17.713174,44.9406347 C17.5364445,44.3494404 17.3798992,43.7517108 17.2438918,43.1482705 Z M16.6742408,39.4314635 C16.6637182,39.3046013 16.7584026,39.1932597 16.8857244,39.1827751 C17.0130461,39.1722905 17.1247911,39.2666332 17.1353137,39.3934954 C17.1856319,40.0001406 17.2564436,40.6032042 17.3475118,41.2019663 C17.3666541,41.327824 17.2797745,41.4453137 17.1534608,41.4643868 C17.0271472,41.48346 16.9092319,41.396894 16.8900897,41.2710362 C16.7974522,40.6619567 16.7254225,40.0485199 16.6742408,39.4314635 Z M16.6578394,35.6447216 C16.670519,35.5180554 16.7838531,35.4256139 16.9109782,35.4382478 C17.0381033,35.4508817 17.1308796,35.5638068 17.1182,35.690473 C17.0848277,36.0238528 17.0625676,36.3527804 17.0514357,36.678817 L17.0439905,37.3792475 C17.0442703,37.4105873 17.0446684,37.4481803 17.0452655,37.5045697 C17.0468774,37.6318543 16.9446257,37.7363408 16.81688,37.7379469 C16.6891343,37.7395529 16.5842693,37.6376703 16.5826575,37.5103857 L16.5804413,37.1659481 C16.5804406,36.6651284 16.6062768,36.1598164 16.6578394,35.6447216 Z M17.4046327,31.9947765 C17.4413739,31.8728594 17.5703497,31.8037032 17.6927084,31.8403117 C17.8150671,31.8769202 17.8844739,32.0054305 17.8477328,32.1273476 C17.6680977,32.723426 17.5179829,33.3106224 17.397952,33.8879196 C17.3720354,34.0125675 17.2496126,34.0926809 17.1245131,34.0668578 C16.9994136,34.0410347 16.91901,33.9190538 16.9449267,33.7944058 C17.0677392,33.2037301 17.2211807,32.6035207 17.4046327,31.9947765 Z M18.7423534,28.5019933 C18.7956467,28.386303 18.9329747,28.3355644 19.0490841,28.3886653 C19.1651934,28.4417662 19.2161159,28.5785986 19.1628226,28.6942888 C18.9028268,29.2586935 18.6657084,29.8181824 18.4520583,30.3718344 C18.4062086,30.490649 18.272373,30.549933 18.153128,30.5042488 C18.033883,30.4585646 17.9743843,30.3252121 18.020234,30.2063975 C18.237434,29.6435463 18.4783442,29.0751103 18.7423534,28.5019933 Z M20.5043207,25.1722225 C20.5695328,25.0627602 20.7114557,25.0266976 20.8213145,25.0916743 C20.9311732,25.1566509 20.9673665,25.2980616 20.9021545,25.4075239 C20.5849259,25.9400105 20.2856859,26.47051 20.0050491,26.9981748 C19.9452282,27.1106524 19.8052225,27.1535141 19.6923375,27.0939092 C19.5794525,27.0343043 19.5364355,26.8948039 19.5962563,26.7823263 C19.8804277,26.2480157 20.1833235,25.7110351 20.5043207,25.1722225 Z M22.5036699,22.1179834 C22.5776558,22.0142073 22.7220651,21.9898411 22.8262171,22.06356 C22.9303691,22.1372788 22.9548236,22.2811669 22.8808377,22.384943 C22.5217452,22.888623 22.1770834,23.3925367 21.8474948,23.8958851 C21.7776868,24.0024961 21.6343578,24.032535 21.5273606,23.9629789 C21.4203635,23.8934228 21.3902157,23.7506112 21.4600237,23.6440002 C21.7929756,23.1355154 22.1410732,22.6265785 22.5036699,22.1179834 Z M24.7763051,19.1636454 C24.8574904,19.0653581 25.0032703,19.0512567 25.1019136,19.132149 C25.2005569,19.2130413 25.2147094,19.358295 25.1335241,19.4565823 C24.7410467,19.9317363 24.3600748,20.4090339 23.9912801,20.8877161 C23.9134862,20.9886897 23.76827,21.0077083 23.6669306,20.9301952 C23.5655912,20.8526821 23.5465038,20.7079901 23.6242976,20.6070164 C23.9962969,20.1241747 24.3805242,19.6427988 24.7763051,19.1636454 Z M27.2493691,16.3586087 C27.3366381,16.2656413 27.4830217,16.2607665 27.5763258,16.3477206 C27.66963,16.4346746 27.6745225,16.5805298 27.5872534,16.6734972 C27.1666388,17.1215766 26.7551022,17.5735291 26.3533496,18.0286266 C26.2689723,18.1242075 26.1228066,18.1335368 26.0268794,18.049464 C25.9309522,17.9653913 25.9215892,17.8197532 26.0059665,17.7241722 C26.410844,17.2655348 26.8255475,16.8101045 27.2493691,16.3586087 Z M29.8899114,13.7085076 C29.9825421,13.6208416 30.128959,13.6245953 30.2169425,13.7168917 C30.3049261,13.809188 30.3011589,13.9550764 30.2085281,14.0427424 C29.7637934,14.4636408 29.3259857,14.8900687 28.8958453,15.3213268 C28.8057893,15.4116169 28.6593247,15.4120701 28.5687076,15.3223391 C28.4780904,15.2326081 28.4776356,15.0866722 28.5676916,14.9963821 C29.0009715,14.5619763 29.4419587,14.1324516 29.8899114,13.7085076 Z M32.5949047,11.2884066 C32.6923147,11.2060439 32.8382912,11.2179572 32.9209522,11.3150157 C33.0036132,11.4120741 32.9916567,11.5575237 32.8942467,11.6398863 C32.4280127,12.034099 31.9667765,12.4354844 31.5113142,12.8433693 C31.4162966,12.9284614 31.270039,12.9206932 31.1846386,12.8260186 C31.0992383,12.7313439 31.1070347,12.5856142 31.2020522,12.5005221 C31.6607789,12.0897139 32.1253221,11.6854506 32.5949047,11.2884066 Z M35.5109041,8.96496918 C35.6129939,8.88844005 35.758018,8.90886242 35.8348243,9.01058381 C35.9116307,9.11230521 35.8911343,9.25680581 35.7890445,9.33333494 C35.3022239,9.69826787 34.8184528,10.0721814 34.3385451,10.45443 C34.2387548,10.5339134 34.0931914,10.5177434 34.0134201,10.4183133 C33.9336488,10.3188832 33.9498774,10.1738452 34.0496677,10.0943618 C34.5331047,9.70930214 35.0204548,9.33262223 35.5109041,8.96496918 Z M38.5132378,6.85348637 C38.6198654,6.78336903 38.7633513,6.81265441 38.8337226,6.91889709 C38.904094,7.02513978 38.8747025,7.16810783 38.768075,7.23822517 C38.2613583,7.57143762 37.7557028,7.91565563 37.2519637,8.27026033 C37.1476214,8.34371158 37.0032756,8.31897474 36.9295583,8.21500905 C36.855841,8.11104336 36.8806674,7.96721852 36.9850097,7.89376727 C37.4927251,7.53636351 38.0024193,7.18939622 38.5132378,6.85348637 Z M41.6926286,4.91493105 C41.8039194,4.85242063 41.9449967,4.89163932 42.0077336,5.00252845 C42.0704704,5.11341757 42.0311097,5.25398567 41.9198189,5.31649609 C41.393409,5.61217277 40.8658295,5.92129009 40.3379831,6.24325778 C40.2290229,6.30971964 40.0866201,6.27558677 40.0199175,6.16701987 C39.9532149,6.05845298 39.9874714,5.91656413 40.0964316,5.85010227 C40.6289805,5.52526618 41.1613462,5.21334458 41.6926286,4.91493105 Z M45.0206273,3.21746939 C45.1367417,3.16437934 45.2740649,3.2151309 45.3273472,3.33082617 C45.3806296,3.44652144 45.3296942,3.58334899 45.2135798,3.63643904 C44.6674129,3.88615863 44.1174262,4.15239811 43.5645836,4.43459558 C43.4508801,4.49263534 43.3114842,4.44784362 43.2532342,4.33455048 C43.1949842,4.22125733 43.2399381,4.08236457 43.3536417,4.02432482 C43.9123595,3.73912834 44.4683404,3.46998714 45.0206273,3.21746939 Z M48.5055518,1.83043277 C48.6266082,1.78975229 48.7578413,1.85455562 48.7986691,1.97517506 C48.839497,2.0957945 48.7744589,2.22655391 48.6534025,2.26723439 C48.0878881,2.45727312 47.5151534,2.66795012 46.9362466,2.89873215 C46.8176321,2.94601796 46.6830046,2.88854175 46.6355475,2.77035545 C46.5880904,2.65216914 46.6457748,2.51802749 46.7643892,2.47074169 C47.3511149,2.23684265 47.9318474,2.02322373 48.5055518,1.83043277 Z M52.1562088,0.870389403 C52.2818338,0.847236964 52.4025097,0.929939788 52.425746,1.05511133 C52.4489823,1.18028287 52.3659799,1.30052321 52.2403549,1.32367565 C51.6583139,1.43094468 51.0643384,1.56463955 50.4595961,1.72426165 C50.3361,1.75685852 50.2094659,1.68353148 50.1767509,1.56048111 C50.144036,1.43743074 50.2176286,1.31125371 50.3411248,1.27865684 C50.9570278,1.11608885 51.562438,0.979820223 52.1562088,0.870389403 Z M55.5688693,0.540132177 C55.6966251,0.540132177 55.8001917,0.64332495 55.8001917,0.770619687 C55.8001917,0.897914423 55.6966251,1.0011072 55.5688693,1.0011072 C55.0681673,1.0011072 54.5544164,1.02555437 54.02841,1.07417824 C53.9012005,1.08593746 53.7885095,0.992718658 53.7767077,0.865968231 C53.7649058,0.739217803 53.8584623,0.626933553 53.9856719,0.615174339 C54.5256681,0.565257256 55.0536649,0.540132177 55.5688693,0.540132177 Z" id="Stroke-76" fill="#1D1D1B" fill-rule="nonzero"></path>
                    <g id="Group-80" transform="translate(7.968611, 5.063750)" fill="url(#linearGradient-3)" fill-rule="nonzero">
                        <path d="M25.2850133,52.5876993 C23.6652039,52.5876993 22.0725557,52.4329176 20.5238069,52.1318764 L19.8619719,51.9930016 C19.4231218,51.8950973 18.988053,51.7854093 18.5571492,51.6641648 L17.9148847,51.4747587 L17.2773165,51.2659896 L16.6474911,51.0413261 L16.025724,50.800981 C14.9939493,50.3845756 13.9929728,49.8987413 13.0287952,49.3470366 L12.4539426,49.0071703 L11.8890654,48.6526914 L11.3246616,48.2754695 L10.7878405,47.8975236 C10.4272973,47.6356458 10.0734137,47.3636885 9.72657365,47.0818789 L9.21209118,46.6523233 C8.53258708,46.0689896 7.88201062,45.4466873 7.26343406,44.7872384 L6.80554962,44.2857152 L7.8405704,43.3726301 L8.2875984,43.8618345 C9.49587352,45.1476958 10.8326939,46.28346 12.2726547,47.2540501 L12.8166967,47.6093531 C15.1977148,49.1188271 17.8429055,50.187378 20.6433294,50.750453 L21.2927794,50.872167 L21.9464586,50.974207 C22.7673075,51.091327 23.5996788,51.16556 24.4409576,51.1953565 L25.2852043,51.2102831 C26.8853314,51.2105034 28.4402055,51.1347083 29.9415102,50.9852507 L30.5819988,50.916087 C31.4311019,50.8186057 32.2623153,50.6971921 33.0740882,50.5522844 L33.7804482,50.4187279 L34.2769735,50.3173568 C34.6729459,50.2332106 35.0638644,50.1432456 35.4495351,50.0475166 L36.0234507,49.900583 C36.4038155,49.7991202 36.7788375,49.6919185 37.1483226,49.5790327 L37.6990354,49.4044119 C40.6102695,48.4558825 43.1608349,47.1454638 45.251488,45.5011915 L45.6375683,45.1899157 C45.7646236,45.0845395 45.8898584,44.9778658 46.0132482,44.8699015 L46.3783198,44.541262 L46.7316936,44.2058278 L47.0732903,43.8635598 C47.970109,42.9383873 48.7441998,41.9319297 49.3831489,40.8476992 L49.6166058,40.4369385 C50.7508149,38.367828 51.4044814,36.0268522 51.4958312,33.4371119 L51.5065793,32.9158538 L51.5065665,32.7308776 C51.5065665,18.9539575 44.20751,2.62126236 35.9062885,2.16391942 L35.5499266,2.15409234 L35.0663216,2.17014617 C33.7712365,2.25587684 32.4324596,2.68585324 31.0519894,3.48124392 L29.5235237,4.3414863 L27.6815857,5.3443211 L23.9482924,7.32624468 L12.0765075,13.5128914 L10.6125903,14.2990349 L10.0831357,14.6001112 C4.27888413,18.0800392 1.97112463,21.3085002 1.83659031,26.9563687 L1.83392577,27.8343743 C1.83984999,28.2652816 1.85756118,28.6961129 1.88691022,29.126397 L1.93970148,29.7719647 C2.39664666,34.6117769 4.29277993,39.1276456 7.3345155,42.7842094 L7.79933115,43.3261823 L6.76200136,44.2366622 C3.41596604,40.4519204 1.2720995,35.7260722 0.642918432,30.6312524 L0.56337315,29.9009728 C0.520138876,29.4473873 0.489067033,28.9922827 0.470377588,28.5367652 L0.447899215,27.493026 C0.447899215,21.1639951 2.85624736,17.4551451 8.833684,13.7471264 L9.5015829,13.3427382 L10.2781775,12.9113987 L11.413771,12.3045383 L21.5761563,7.01203237 L25.8262899,4.77363335 L28.8424897,3.14271818 L30.0143639,2.48687045 L30.3595266,2.28909315 L30.8861622,2.0006402 C32.4628651,1.18200396 34.0221732,0.776676945 35.5499266,0.776676945 L35.9346128,0.786108637 C45.1405956,1.23747083 52.6740707,17.8039188 52.8844551,32.1188142 L52.8889715,32.9200427 L52.0595285,32.9182061 L52.8889715,32.9242316 C52.8591615,37.8054951 51.0376369,41.8778237 47.8874821,45.0267522 L47.5325228,45.3719292 L47.1662911,45.7103435 L46.7888572,46.042038 C45.7696901,46.9138352 44.638398,47.7034491 43.407027,48.4079023 L42.9413149,48.6669757 L42.4649221,48.920228 L41.9808936,49.1632171 L41.486417,49.4003393 C40.656143,49.7869319 39.7891285,50.139677 38.8883144,50.4578477 L38.3036773,50.6556434 L37.791302,50.8230103 L37.2317478,50.9920165 L36.5249829,51.1900805 L36.0874145,51.3079098 C33.3840922,52.0031358 30.4388385,52.4215997 27.3162135,52.5473437 L26.6446137,52.5696233 L25.967437,52.5831739 L25.2850133,52.5876993 Z" id="Clip-79"></path>
                    </g>
                    <g id="Group-87" transform="translate(19.027850, 71.618911)" fill="#2AACA3">
                        <path d="M10.723592,21.2106241 L17.3812544,21.2106241 L14.0524232,9.03243541 L10.723592,21.2106241 Z M0.829258671,30.753358 C0.829258671,30.6615303 0.858749977,30.4962404 0.919575796,30.2519788 L9.40201279,2.53654439 C9.64531606,1.77804764 10.2001213,1.19586007 11.0664284,0.786308555 C11.9327355,0.376757043 12.9280671,0.172899564 14.0524232,0.172899564 C15.1767792,0.172899564 16.173954,0.376757043 17.0402611,0.786308555 C17.9065683,1.19586007 18.4613735,1.77804764 18.7046767,2.53654439 L27.2331939,30.2519788 C27.2921765,30.4962404 27.323511,30.6615303 27.323511,30.753358 C27.323511,31.5412396 26.8295316,32.2226011 25.8415729,32.7974424 C24.8536141,33.3722838 23.826948,33.6606227 22.7634178,33.6606227 C21.4565843,33.6606227 20.6805943,33.2216864 20.437291,32.3438136 L18.8871542,26.6633525 L9.26561549,26.6633525 L7.7154787,32.3438136 C7.47033222,33.2216864 6.69618543,33.6606227 5.38935192,33.6606227 C4.32397847,33.6606227 3.29731237,33.3722838 2.31119681,32.7974424 C1.32323805,32.2226011 0.829258671,31.5412396 0.829258671,30.753358 L0.829258671,30.753358 Z" id="Fill-81"></path>
                        <path d="M29.603742,22.9377193 L29.603742,10.8972722 C29.603742,7.20212583 30.6138192,4.48953577 32.6358169,2.76317513 C34.6578146,1.0368145 37.2954433,0.173634185 40.548703,0.173634185 C43.8922799,0.173634185 46.6368146,0.976208224 48.7786207,2.5813563 C50.92227,4.18834093 51.9950163,6.39771523 51.9950163,9.21498886 C51.9950163,10.5189421 51.7203785,11.4041611 51.1747894,11.8743189 C50.627357,12.3444766 49.7149697,12.577719 48.4376275,12.577719 C46.1575809,12.577719 44.972399,11.8669726 44.8802387,10.4418068 C44.7899215,7.71636091 43.4370078,6.35363794 40.8214976,6.35363794 C38.086179,6.35363794 36.7185196,7.86879488 36.7185196,10.8972722 L36.7185196,22.9377193 C36.7185196,25.9680332 38.1009246,27.4813536 40.8675778,27.4813536 C41.7191393,27.4813536 42.4250874,27.3454486 42.9872654,27.0718021 C43.5494435,26.7999921 43.9531057,26.3830944 44.196409,25.8229455 C44.4397123,25.2627965 44.6000712,24.799985 44.6756427,24.4363473 C44.7512142,24.0745462 44.8194128,23.573167 44.8802387,22.9377193 C45.0018903,21.5143901 46.1723265,20.8018072 48.3915473,20.8018072 C49.6983808,20.8018072 50.627357,21.0368861 51.1747894,21.5070439 C51.7203785,21.9772017 51.9950163,22.8624206 51.9950163,24.1645373 C51.9950163,27.1030235 50.92227,29.4207545 48.7786207,31.1158937 C46.6368146,32.8128695 43.8922799,33.6613574 40.548703,33.6613574 C37.2954433,33.6613574 34.6578146,32.798177 32.6358169,31.0699799 C30.6138192,29.3454558 29.603742,26.6328657 29.603742,22.9377193" id="Fill-83"></path>
                        <path d="M55.2313185,22.9377193 L55.2313185,10.8972722 C55.2313185,7.20212583 56.243239,4.48953577 58.2652367,2.76317513 C60.2853912,1.0368145 62.9230199,0.173634185 66.1762796,0.173634185 C69.5198565,0.173634185 72.2643912,0.976208224 74.4080405,2.5813563 C76.5516898,4.18834093 77.6225929,6.39771523 77.6225929,9.21498886 C77.6225929,10.5189421 77.3497983,11.4041611 76.8023659,11.8743189 C76.2549336,12.3444766 75.3425463,12.577719 74.0652041,12.577719 C71.7851574,12.577719 70.5999756,11.8669726 70.5096584,10.4418068 C70.4174981,7.71636091 69.0645844,6.35363794 66.4490742,6.35363794 C63.7137555,6.35363794 62.3460962,7.86879488 62.3460962,10.8972722 L62.3460962,22.9377193 C62.3460962,25.9680332 63.7285012,27.4813536 66.4951544,27.4813536 C67.3467158,27.4813536 68.052664,27.3454486 68.6166852,27.0718021 C69.1788632,26.7999921 69.5806823,26.3830944 69.8239856,25.8229455 C70.0672888,25.2627965 70.2276478,24.799985 70.3032193,24.4363473 C70.3787908,24.0745462 70.4469894,23.573167 70.5096584,22.9377193 C70.6294669,21.5143901 71.7999031,20.8018072 74.0209671,20.8018072 C75.3278006,20.8018072 76.2549336,21.0368861 76.8023659,21.5070439 C77.3497983,21.9772017 77.6225929,22.8624206 77.6225929,24.1645373 C77.6225929,27.1030235 76.5516898,29.4207545 74.4080405,31.1158937 C72.2643912,32.8128695 69.5198565,33.6613574 66.1762796,33.6613574 C62.9230199,33.6613574 60.2853912,32.798177 58.2652367,31.0699799 C56.243239,29.3454558 55.2313185,26.6328657 55.2313185,22.9377193" id="Fill-85"></path>
                    </g>
                    <g id="Group-94" transform="translate(0.000000, 73.455465)">
                        <path d="M106.670115,28.1067002 L106.670115,28.1067002 C106.896829,28.5364538 112.658693,28.5015593 113.069728,21.5355105 L113.069728,5.75951277 L118.732059,5.75951277 C119.332944,5.75951277 119.804805,5.48770279 120.147642,4.94408285 C120.488635,4.40229946 120.660053,3.73379385 120.660053,2.93856603 C120.660053,2.19843482 120.496008,1.55747752 120.167917,1.01385758 C119.839826,0.470237635 119.360592,0.200264216 118.732059,0.200264216 L101.007784,0.200264216 C100.37925,0.200264216 99.9000166,0.470237635 99.5719259,1.01385758 C99.2438351,1.55747752 99.0797897,2.19843482 99.0797897,2.93856603 C99.0797897,3.73379385 99.2493647,4.40229946 99.5922011,4.94408285 C99.9350376,5.48770279 100.406898,5.75951277 101.007784,5.75951277 L106.670115,5.75951277 L106.670115,28.1067002 Z" id="Fill-88" fill="#981D58"></path>
                        <path d="M21.4560909,1.0129393 C21.1280001,0.471155912 20.6487664,0.19934594 20.0202329,0.19934594 L2.29595778,0.19934594 C1.66742431,0.19934594 1.18819058,0.471155912 0.8600998,1.0129393 C0.532009017,1.55655925 0.367963625,2.19751654 0.367963625,2.93948431 C0.367963625,3.73287558 0.537538637,4.40138118 0.880375073,4.94500113 C1.22321151,5.48862107 1.69507241,5.75859449 2.29595778,5.75859449 L7.9582886,5.75859449 L7.9582886,20.9983185 C8.08362665,28.348207 13.8749819,28.5410452 14.3542157,28.1333302 C14.3542157,28.1241475 14.3579021,28.1168012 14.3579021,28.1057819 L14.3579021,5.75859449 L20.0202329,5.75859449 C20.6211183,5.75859449 21.0929792,5.48862107 21.4358156,4.94500113 C21.7768088,4.40138118 21.9482271,3.73287558 21.9482271,2.93948431 C21.9482271,2.19751654 21.7841817,1.55655925 21.4560909,1.0129393" id="Fill-90" fill="#D50C51"></path>
                    </g>
                </g>
            </g>
        </g>
    </g>
</svg>