<?xml version="1.0" encoding="UTF-8"?>
<svg width="92px" height="111px" viewBox="0 0 92 111" version="1.1" xmlns="http://www.w3.org/2000/svg" xmlns:xlink="http://www.w3.org/1999/xlink">
    <title>3854194E-5B9A-49CE-9CBC-CDEB726272FF</title>
    <defs>
        <polygon id="path-1" points="0 107.53125 90.3898894 107.53125 90.3898894 1.4149747 0 1.4149747"></polygon>
        <polygon id="path-3" points="0 107.53125 90.3898894 107.53125 90.3898894 1.4149747 0 1.4149747"></polygon>
        <polygon id="path-5" points="0 107.53125 90.3898894 107.53125 90.3898894 1.4149747 0 1.4149747"></polygon>
        <polygon id="path-7" points="0 107.53125 90.3898894 107.53125 90.3898894 1.4149747 0 1.4149747"></polygon>
        <polygon id="path-9" points="0 107.53125 90.3898894 107.53125 90.3898894 1.4149747 0 1.4149747"></polygon>
        <polygon id="path-11" points="0 107.53125 90.3898894 107.53125 90.3898894 1.4149747 0 1.4149747"></polygon>
        <polygon id="path-13" points="0 107.53125 90.3898894 107.53125 90.3898894 1.4149747 0 1.4149747"></polygon>
        <polygon id="path-15" points="0 107.53125 90.3898894 107.53125 90.3898894 1.4149747 0 1.4149747"></polygon>
        <polygon id="path-17" points="0 107.53125 90.3898894 107.53125 90.3898894 1.4149747 0 1.4149747"></polygon>
        <polygon id="path-19" points="0 107.53125 90.3898894 107.53125 90.3898894 1.4149747 0 1.4149747"></polygon>
        <polygon id="path-21" points="0 107.53125 90.3898894 107.53125 90.3898894 1.4149747 0 1.4149747"></polygon>
        <polygon id="path-23" points="0 107.53125 90.3898894 107.53125 90.3898894 1.4149747 0 1.4149747"></polygon>
        <polygon id="path-25" points="0 107.53125 90.3898894 107.53125 90.3898894 1.4149747 0 1.4149747"></polygon>
        <polygon id="path-27" points="0 107.53125 90.3898894 107.53125 90.3898894 1.4149747 0 1.4149747"></polygon>
        <polygon id="path-29" points="0 107.53125 90.3898894 107.53125 90.3898894 1.4149747 0 1.4149747"></polygon>
        <polygon id="path-31" points="0 107.53125 90.3898894 107.53125 90.3898894 1.4149747 0 1.4149747"></polygon>
    </defs>
    <g id="TACCT-Page-publique" stroke="none" stroke-width="1" fill="none" fill-rule="evenodd">
        <g id="TACCT-Homepage" transform="translate(-371.000000, -17.000000)">
            <g id="Group-8" transform="translate(208.000000, 15.000000)">
                <g id="Group-65" transform="translate(163.000000, 2.000000)">
                    <polygon id="Fill-1" fill="#004899" fill-rule="nonzero" points="0 107.82312 90.3898894 107.82312 90.3898894 1.70684524 0 1.70684524"></polygon>
                    <polygon id="Fill-2" fill="#FFFFFF" fill-rule="nonzero" points="2.00874038 105.822698 88.381149 105.822698 88.381149 3.7089747 2.00874038 3.7089747"></polygon>
                    <g id="Group-64" transform="translate(0.000000, 0.291870)">
                        <path d="M27.4434728,61.0437838 C31.2758478,66.809507 37.8505305,70.614065 45.3164632,70.614065 C57.147807,70.614065 66.740742,61.0608523 66.740742,49.2802064 C66.740742,48.1314995 66.6481891,47.0032749 66.4716532,45.9057733 C65.4758526,39.6604267 61.7565978,34.3162942 56.5616387,31.1193731 C53.2931507,29.1070025 49.4419224,27.9463477 45.3164632,27.9463477 C41.6777637,27.9463477 38.2464512,28.8509757 35.2453382,30.4451692 C32.7189872,31.7884564 30.4942901,33.6216082 28.6997926,35.8166112 C26.1940089,38.8786916 24.526343,42.6456989 24.0412974,46.7728507 C23.9436026,47.5955501 23.8938984,48.4301975 23.8938984,49.2802064 C23.8938984,53.6275412 25.1982084,57.6710576 27.4434728,61.0437838" id="Fill-3" fill="#80A4CC" fill-rule="nonzero"></path>
                        <path d="M56.5153622,31.758928 L53.1594632,32.4689756 L55.4749993,33.7969012 L56.254843,32.8905663 L57.2026532,32.28805 L56.5153622,31.758928 Z M56.5633526,31.1239815 C61.7565978,34.3209026 65.4775666,39.6633284 66.473367,45.9103819 L66.473367,45.9069682 L64.7988455,47.3338907 L63.7276314,47.0829845 L63.2288743,47.5199369 L63.264867,47.8152212 C63.2802926,47.9517688 63.3419945,48.2265708 63.4448311,48.6430411 C63.6590738,49.4913432 63.7670522,50.3396452 63.7670522,51.1640516 C63.7670522,51.9338387 63.7362012,52.1864518 63.564807,52.9289294 L62.6529897,52.9323432 L60.088932,50.8636466 L58.1333238,51.300599 L56.8718622,51.0872435 L55.2727541,51.5754012 L55.9960378,52.1983998 L57.2506436,51.8450827 L58.3355689,52.7070397 L58.1658887,53.0859591 L57.7185497,53.806248 L56.7553141,55.1785514 L55.2693262,56.3716363 L52.5253045,53.5348595 L51.8174464,53.6099607 L54.7448599,56.9519637 L55.9291939,56.7130054 L56.2274199,57.3189355 L55.0310882,59.2647391 L52.7052686,61.4751036 L51.6614776,64.1138863 C51.6357686,64.1821601 51.5277901,64.2657956 51.3581099,64.3460173 C51.0238911,64.5081675 50.6279705,64.7932107 50.1926291,65.2028536 C49.6304561,65.7251482 49.3168045,66.0153119 49.2499609,66.0733446 C48.7871964,66.4778671 48.2318791,66.8994577 47.5857228,67.3329964 C46.9447084,67.7648282 46.3019801,68.1420411 45.6661074,68.4680484 C44.5417613,69.036428 43.275158,69.3539012 42.1319584,69.3539012 C41.3829657,69.3539012 40.6219753,69.2258877 39.8798382,68.9766885 C39.7787157,68.9425514 39.7118718,68.891346 39.7118718,68.8469681 L40.2191988,67.4200454 C40.2431939,67.3517716 40.6733936,66.8670276 41.4823743,65.9880024 C41.8474439,65.5886006 42.1456699,65.0492375 42.3547709,64.40405 C42.6615666,63.455044 42.8792372,62.8730097 43.0060689,62.6664815 C43.4722613,61.9205903 43.6933599,61.2822301 43.5373911,61.1269071 L40.4985714,58.0853089 L39.2233984,55.7264488 L39.3605137,55.1683103 C39.4547805,54.7791498 39.7650041,54.0964115 40.3546003,52.9716006 C40.6751074,52.36055 40.9390545,52.0396631 41.2321387,51.8962881 L43.2631603,50.8977837 L47.2069416,51.4917659 L48.4101291,52.2888625 L48.9740161,52.2205887 L51.3838189,52.845294 L51.9854128,51.2818238 L48.9243118,50.4249875 L47.8393863,49.3513819 L47.6919872,49.3906393 L48.1976003,50.6656526 L47.5857228,50.7868387 L47.520593,50.6383432 L47.7331218,50.597379 C47.7434055,50.6110337 47.5514439,49.8139369 47.074968,49.5903403 C46.9035738,49.5118254 46.7904536,49.438431 46.6190593,49.438431 C46.3859632,49.438431 46.0020401,49.5783923 45.8032228,49.7644383 C45.1330714,50.3789026 44.612033,50.7970798 44.5606147,50.7612361 L43.3060089,49.8139369 L43.7687734,48.6481617 L43.9641628,48.6942464 C44.077283,48.721556 44.1989728,48.733504 44.3206628,48.733504 C44.7148695,48.733504 44.9599632,48.5064935 45.0079536,48.2811899 C45.0679416,47.9995605 44.8742661,47.8630129 44.8742661,47.8630129 C44.8811218,47.8544786 44.7542901,47.7264651 44.7542901,47.728172 C44.7542901,47.7435337 44.935968,47.5250575 44.9256843,47.5250575 C44.9205426,47.5250575 45.4055882,47.6479504 45.681533,47.6633119 C46.0020401,47.6820873 46.3156916,47.6086929 46.4442372,47.4670246 L46.7493189,46.9891081 L47.2617878,46.8457329 L47.3491988,46.1698222 L47.6662782,46.1920113 C47.6662782,46.1920113 47.8411003,46.4360901 47.9130859,46.7603909 L48.7991939,46.5316736 L49.0631411,45.6270454 L48.9191699,45.4683089 L49.3082349,44.6012315 L48.9723022,44.36398 L48.4049872,45.963294 L48.0896218,46.0042583 L47.9525064,45.6475278 L47.1520955,45.7089742 L46.7047564,44.9920992 L47.6765618,43.9970083 L48.622658,42.7356496 L49.9578189,43.1521199 L50.283468,43.8092554 L50.6913863,43.7990143 L50.5422734,42.8397673 L51.6340545,41.8190738 L50.907343,38.5385173 L51.3735353,37.5075827 L51.9031436,37.538306 L51.9734151,36.7292613 L48.4889705,32.9315306 L48.6020907,31.902303 L51.4832276,31.2485813 L51.8980016,31.3714742 L53.5399584,31.2144443 L53.9187397,31.383422 L56.5633526,31.1205679 L56.5633526,31.1239815 Z M27.4417589,61.0432718 L28.9208911,59.8194637 L30.1377901,60.1249891 L33.3908526,57.6876141 L33.5485353,56.3887048 L31.4095353,53.2839534 C31.3752564,53.2378685 31.2364272,51.2971855 30.823367,49.8463671 C30.6056964,49.0868208 30.1069391,46.8781631 30.0863718,46.8337851 L29.8035714,46.2722331 L27.7708359,43.2323417 L29.0905714,39.9466647 L30.142932,39.9005798 L30.2046339,39.4175426 L29.4265041,38.7689415 L29.4042228,38.6289801 L29.3785137,38.0145159 C29.3785137,37.5946319 30.0915137,37.1730411 30.5662757,37.1730411 C30.6931074,37.1730411 30.8267949,37.1935232 30.9656243,37.2310738 C31.2964151,37.3215367 31.6117805,37.5946319 31.8945811,37.7994534 C31.9459993,37.837004 32.8321074,39.8954593 32.8321074,39.8954593 L32.0796868,40.4945619 L31.7111891,41.3957762 L32.223658,41.7968849 L32.9400859,40.5662494 L35.903492,41.5579266 L37.7219849,42.5888611 L38.2704464,41.9880516 L39.7975689,42.1143581 L40.9133455,40.6020932 L39.9055474,40.2197599 L40.9630497,38.9515738 L40.837932,38.5265694 L39.2233984,38.2159236 L40.4591507,36.9238417 L41.6332012,37.6868016 L41.6092061,38.0298774 L42.3667686,38.123754 L43.007783,36.9118938 L42.5604439,36.5193194 L44.4492084,34.7100635 L46.1562949,33.9163804 L47.4846003,33.049303 L47.7434055,32.8461885 L47.7965378,31.9159577 L47.5702974,31.2554085 L46.9824151,31.0301051 L47.7348359,30.4412435 L47.5291628,30.3302984 C47.0252637,30.6631333 45.8306459,31.4807123 43.746492,31.6292077 C42.263932,31.7333254 39.2628189,31.0761899 39.2628189,31.0761899 L36.2857012,30.6324101 L35.2470522,30.4480708 C32.7189872,31.7913581 30.497718,33.6193893 28.6997926,35.8143923 L28.6106676,38.6136185 L28.1633286,39.8920456 L27.0972564,43.5976065 L27.4400449,44.6404891 L25.7500978,44.8794474 L24.0447253,46.7723387 C23.9487445,47.5933313 23.8990401,48.4313923 23.8990401,49.2814012 C23.8990401,53.6287361 25.2033503,57.6722524 27.4451868,61.0432718 L27.4417589,61.0432718 Z M30.7805186,47.309995 L30.8747853,47.7162242 L31.2621363,47.586504 L31.1318766,47.1802748 L30.7805186,47.309995 Z M46.7784561,50.1041006 L46.509367,50.0699637 L46.4905137,50.5751899 L46.7613166,50.6246885 L46.9207132,49.9760873 L46.8384439,49.9419502 L46.7784561,50.1041006 Z M53.9581603,66.1723417 C53.9581603,66.1774623 53.7267782,65.9163149 53.7267782,65.9163149 C53.728492,65.926556 53.3685641,66.1347911 53.3685641,66.1347911 C53.3685641,66.1347911 53.639367,66.4044726 53.6307974,66.4044726 L53.9581603,66.1723417 L53.9581603,66.1723417 Z M54.4569176,63.5813506 L53.7799103,63.9705113 L52.9177974,64.1531438 L51.0221772,66.0050708 L51.1387253,66.4198343 L51.4129561,66.3822837 L52.4961676,65.9197286 C52.7755401,65.7985426 53.6633622,65.3035575 54.1244128,64.8085724 C54.5580401,64.3408968 54.6917276,64.1582643 54.9436772,63.6803476 L54.4569176,63.5813506 Z M44.3995041,46.7962345 L44.8674103,46.9276617 L45.0062397,46.494123 L44.6754488,46.4139012 L44.3995041,46.7962345 Z M45.6575378,45.876245 C45.6575378,45.876245 45.114218,47.2007569 45.114218,47.2092911 C45.114218,47.2092911 45.9729032,47.2912196 45.9729032,47.298047 L46.1751484,46.2056661 L46.0277493,46.0947212 L46.127158,45.722629 L45.6969584,45.4870843 L45.5564151,45.7687137 L45.6575378,45.876245 Z M31.4266747,47.1171214 C31.4335305,47.1171214 31.7266147,47.0027629 31.7266147,47.0027629 L31.6117805,46.7518565 C31.6117805,46.7518565 31.4421003,46.8969385 31.4455282,46.9140068 L31.4266747,47.1171214 L31.4266747,47.1171214 Z M31.2141459,46.3131974 L31.332408,46.5948268 L31.6820522,46.4412107 C31.6820522,46.4412107 31.5860714,46.1834772 31.5740738,46.1834772 L31.2141459,46.3131974 Z M30.9793359,45.3812599 L31.0478936,45.8165054 L31.4609536,45.8147986 L31.4061074,45.347123 L30.9793359,45.3812599 Z M30.5902709,44.575629 L30.8027997,44.9067569 L31.2090041,44.9682032 L31.3941099,44.1489176 L30.7256724,43.9884742 L30.5902709,44.575629 Z M30.2337709,43.5327464 L30.9073503,43.6129682 L31.1164512,42.0324296 L31.1198791,41.5562196 L31.001617,41.0748893 L30.6554007,41.0475798 L30.2337709,43.5327464 Z M45.1433551,34.957556 L43.2048863,36.4937167 L43.8938911,36.9887018 L45.4432949,35.4201111 L45.1433551,34.957556 Z M43.4362686,37.6048728 L43.1620378,37.592925 L42.6341436,38.5504653 L41.8114512,38.6136185 L40.8722109,39.9620262 L41.3846795,40.2829131 L42.6478551,39.4806958 L43.6179464,38.453175 L43.4362686,37.6048728 Z M42.9666484,39.8510813 L42.0102686,40.6891423 L42.0102686,41.2592286 L43.5305353,41.6330278 L46.5607853,39.5848135 L46.4819439,38.7501661 L45.2787564,38.3354028 L42.9666484,39.8510813 Z M38.3749968,42.3413685 L39.5147686,42.524001 L39.1222757,43.271599 L38.1419007,42.7322361 L38.3749968,42.3413685 Z" id="Fill-5" fill="#004899" fill-rule="nonzero"></path>
                        <path d="M18.8722188,13.9087405 L17.7958629,17.0920068 L19.8817308,17.0920068 L18.8722188,13.9087405 Z M21.2083221,21.3130351 L20.6547188,19.5379161 L16.9731707,19.5379161 L16.3852885,21.3130351 L13.308762,21.3130351 L17.6621755,9.38901429 L19.9314352,9.38901429 L24.2848485,21.3130351 L21.2083221,21.3130351 Z" id="Fill-7" fill="#E3211B" fill-rule="nonzero"></path>
                        <path d="M33.2833885,12.6702536 C33.0142994,12.2691449 32.6115231,11.9994634 31.8711,11.9994634 L30.5770735,11.9994634 L30.5770735,18.698831 L31.8711,18.698831 C32.6115231,18.698831 33.0142994,18.4325631 33.2833885,18.0314544 C33.5199125,17.693499 33.6038956,17.3777327 33.6038956,15.3500006 C33.6038956,13.3410437 33.5199125,13.0047952 33.2833885,12.6702536 M35.3006985,20.1411151 C34.4762923,20.9604008 33.3176673,21.3120109 32.0733452,21.3120109 L27.6359485,21.3120109 L27.6359485,9.38799018 L32.0733452,9.38799018 C33.3176673,9.38799018 34.4762923,9.73789345 35.3006985,10.5605929 C36.6958475,11.9499649 36.5433067,13.4741777 36.5433067,15.3500006 C36.5433067,17.2258235 36.6958475,18.7517431 35.3006985,20.1411151" id="Fill-9" fill="#E3211B" fill-rule="nonzero"></path>
                        <polygon id="Fill-11" fill="#E3211B" fill-rule="nonzero" points="40.5407343 21.3128644 40.5407343 9.38884361 48.6768186 9.38884361 48.6768186 12.0003168 43.4818593 12.0003168 43.4818593 13.9939121 47.9209699 13.9939121 47.9209699 16.6053853 43.4818593 16.6053853 43.4818593 18.6996844 48.6768186 18.6996844 48.6768186 21.3128644"></polygon>
                        <polygon id="Fill-13" fill="#E3211B" fill-rule="nonzero" points="60.9741831 21.3128644 60.9741831 15.6000534 59.2773802 18.549482 57.3937577 18.549482 55.6969548 15.6000534 55.6969548 21.3128644 52.7541158 21.3128644 52.7541158 9.38884361 55.6472506 9.38884361 58.336426 14.6476338 61.0256014 9.38884361 63.9170221 9.38884361 63.9170221 21.3128644"></polygon>
                        <polygon id="Fill-15" fill="#E3211B" fill-rule="nonzero" points="68.2802051 21.3128644 68.2802051 9.38884361 76.4162891 9.38884361 76.4162891 12.0003168 71.2213301 12.0003168 71.2213301 13.9939121 75.6604407 13.9939121 75.6604407 16.6053853 71.2213301 16.6053853 71.2213301 18.6996844 76.4162891 18.6996844 76.4162891 21.3128644"></polygon>
                        <path d="M15.6200132,80.7757681 L16.19247,79.0859913 L16.72722,80.7757681 L15.6200132,80.7757681 Z M15.6919988,77.324527 L13.7860949,82.542353 L15.0287031,82.542353 L15.2943642,81.7469631 L17.0357296,81.7469631 L17.2842512,82.542353 L18.5268593,82.542353 L16.6209555,77.324527 L15.6919988,77.324527 Z" id="Fill-17" fill="#E3211B" fill-rule="nonzero"></path>
                        <path d="M21.9250927,82.5875844 C22.5918163,82.5875844 23.0442971,82.4134862 23.4402177,82.0055501 L23.4419317,82.0055501 C23.8224269,81.6180963 23.964684,81.147007 23.964684,80.2713953 L23.964684,79.5903642 L21.9885087,79.5903642 L21.9885087,80.561559 L22.778636,80.561559 L22.778636,80.6998136 C22.778636,80.9524267 22.6997946,81.1726096 22.5575375,81.3142779 C22.4152802,81.4644803 22.2010375,81.5429951 21.9250927,81.5429951 C21.6834269,81.5429951 21.4760398,81.4508255 21.3560639,81.2920888 C21.2292321,81.1282317 21.1469629,80.9438924 21.1469629,79.93344 C21.1469629,78.929815 21.2292321,78.7471826 21.3560639,78.5816186 C21.4794677,78.422882 21.6919967,78.3255918 21.9250927,78.3255918 C22.3724317,78.3255918 22.6192394,78.5048106 22.7426433,78.9246945 L23.9475446,78.9246945 C23.84985,78.3767971 23.462499,77.2810025 21.9250927,77.2810025 C21.3286408,77.2810025 20.8830158,77.4585144 20.4768115,77.8613299 C19.9523452,78.3853314 19.9523452,79.0936721 19.954059,79.844684 L19.954059,80.0221959 C19.9523452,80.7732078 19.9523452,81.4832555 20.4768115,82.0055501 C20.87616,82.4032451 21.3354967,82.5875844 21.9250927,82.5875844" id="Fill-19" fill="#E3211B" fill-rule="nonzero"></path>
                        <polygon id="Fill-21" fill="#E3211B" fill-rule="nonzero" points="27.1757551 80.4340577 29.1639282 80.4340577 29.1639282 79.3894685 27.1757551 79.3894685 27.1757551 78.3704818 29.5032887 78.3704818 29.5032887 77.3241857 25.9828512 77.3241857 25.9828512 82.5420115 29.5032887 82.5420115 29.5032887 81.4974222 27.1757551 81.4974222"></polygon>
                        <polygon id="Fill-23" fill="#E3211B" fill-rule="nonzero" points="35.6081798 82.5426943 35.6081798 77.3231615 34.415276 77.3231615 34.415276 80.163352 32.5984971 77.3231615 31.5427087 77.3231615 31.5427087 82.5426943 32.7356125 82.5426943 32.7356125 79.7042107 34.5523913 82.5426943"></polygon>
                        <path d="M40.3366038,80.9723968 C40.2577625,81.2284234 40.0897962,81.5424829 39.6030365,81.5424829 C39.3647986,81.5424829 39.1574115,81.4503133 39.0340077,81.2915768 C38.907176,81.1277196 38.818051,80.9331393 38.818051,79.9346347 C38.818051,78.9344234 38.907176,78.7398431 39.0340077,78.5759859 C39.1574115,78.4155425 39.3647986,78.3250798 39.6030365,78.3250798 C40.0897962,78.3250798 40.2577625,78.6374324 40.3366038,78.8951661 L41.5569308,78.8951661 C41.3581135,77.8676452 40.6485413,77.2804905 39.5961808,77.2804905 C39.0082986,77.2804905 38.5472481,77.4648298 38.1496135,77.8625246 C37.6234333,78.3848193 37.6234333,79.0931601 37.6251471,79.844172 L37.6251471,80.0216839 C37.6234333,80.7726958 37.6234333,81.4827435 38.1496135,82.0050381 C38.5472481,82.4027331 39.0082986,82.5870724 39.5961808,82.5870724 C40.6485413,82.5870724 41.3581135,81.9999176 41.5569308,80.9723968 L40.3366038,80.9723968 Z" id="Fill-25" fill="#E3211B" fill-rule="nonzero"></path>
                        <polygon id="Fill-27" fill="#E3211B" fill-rule="nonzero" points="44.5613003 80.4340577 46.5494734 80.4340577 46.5494734 79.3894685 44.5613003 79.3894685 44.5613003 78.3704818 46.8888339 78.3704818 46.8888339 77.3241857 43.3683964 77.3241857 43.3683964 82.5420115 46.8888339 82.5420115 46.8888339 81.4974222 44.5613003 81.4974222"></polygon>
                        <path d="M54.8800898,81.1724389 C54.7309769,81.394329 54.5133062,81.4984464 54.1962269,81.4984464 L53.5534985,81.4984464 L53.5534985,78.371506 L54.1962269,78.371506 C54.5133062,78.371506 54.7309769,78.4756234 54.8800898,78.6992202 C55.0000658,78.8681978 55.0343448,79.0525371 55.0343448,79.9349762 C55.0343448,80.8686204 54.994924,81.0085818 54.8800898,81.1724389 M56.2289625,80.1619865 C56.2289625,80.0868853 56.2272485,80.0117841 56.2272485,79.9349762 C56.2272485,79.8581681 56.2289625,79.7847738 56.2289625,79.7096726 C56.2341042,78.9671949 56.2392462,78.3800401 55.6890708,77.8338496 C55.3548519,77.5027216 54.8698062,77.3269167 54.2853519,77.3269167 L52.3588808,77.3269167 L52.3588808,82.5447426 L54.2853519,82.5447426 C54.8698062,82.5447426 55.3548519,82.3689375 55.6890708,82.0378095 C56.2392462,81.4899121 56.2341042,80.9044643 56.2289625,80.1619865" id="Fill-29" fill="#E3211B" fill-rule="nonzero"></path>
                        <polygon id="Fill-31" fill="#E3211B" fill-rule="nonzero" points="59.4393478 80.4357647 61.4275209 80.4357647 61.4275209 79.3911754 59.4393478 79.3911754 59.4393478 78.3721887 61.7668814 78.3721887 61.7668814 77.3275994 58.2464439 77.3275994 58.2464439 82.5437185 61.7668814 82.5437185 61.7668814 81.4991292 59.4393478 81.4991292"></polygon>
                        <polygon id="Fill-33" fill="#E3211B" fill-rule="nonzero" points="68.4325746 77.3238443 67.2413846 77.3238443 67.2413846 82.543377 70.6846948 82.543377 70.6846948 81.497081 68.4325746 81.497081"></polygon>
                        <path d="M73.6765525,80.7757681 L74.2490092,79.0859913 L74.783759,80.7757681 L73.6765525,80.7757681 Z M75.3407904,82.542353 L76.5833985,82.542353 L74.6774948,77.324527 L73.7485381,77.324527 L71.8426342,82.542353 L73.0852423,82.542353 L73.3509035,81.7469631 L75.0905548,81.7469631 L75.3407904,82.542353 Z" id="Fill-35" fill="#E3211B" fill-rule="nonzero"></path>
                        <polygon id="Fill-37" fill="#E3211B" fill-rule="nonzero" points="15.3053334 91.0485869 16.4999512 91.0485869 16.4999512 86.8753504 17.8214007 86.8753504 17.8214007 85.8290542 13.9838839 85.8290542 13.9838839 86.8753504 15.3053334 86.8753504"></polygon>
                        <path d="M22.9394038,88.0882345 L22.1304231,88.0882345 L22.1304231,86.8832018 L22.9394038,86.8832018 C23.352464,86.8832018 23.5752765,87.1938476 23.5752765,87.4857181 C23.5752765,87.7775887 23.352464,88.0882345 22.9394038,88.0882345 L22.9394038,88.0882345 Z M23.9300625,88.8272984 C24.127166,88.7283014 24.7698942,88.3408476 24.7698942,87.4857181 C24.7698942,86.6630187 24.1631587,85.8300782 22.9993919,85.8300782 L20.9358054,85.8300782 L20.9358054,91.0479042 L22.1304231,91.0479042 L22.1304231,89.0594294 L22.6788846,89.0594294 L23.6284087,91.0479042 L25.0167019,91.0479042 L23.8735025,88.8546079 L23.9300625,88.8272984 Z" id="Fill-39" fill="#E3211B" fill-rule="nonzero"></path>
                        <path d="M29.3951389,89.2816607 L29.9675958,87.5918839 L30.5040596,89.2816607 L29.3951389,89.2816607 Z M29.4671244,85.8304196 L27.5577927,91.0482456 L28.8021148,91.0482456 L29.067776,90.2511488 L30.8108552,90.2511488 L31.061091,91.0482456 L32.3054131,91.0482456 L30.3977952,85.8304196 L29.4671244,85.8304196 Z" id="Fill-41" fill="#E3211B" fill-rule="nonzero"></path>
                        <polygon id="Fill-43" fill="#E3211B" fill-rule="nonzero" points="35.2199718 85.8297369 35.2199718 91.0492696 36.4145897 91.0492696 36.4145897 88.2107859 38.2330824 91.0492696 39.2905849 91.0492696 39.2905849 85.8297369 38.095967 85.8297369 38.095967 88.6682204 36.2774743 85.8297369"></polygon>
                        <path d="M44.8005666,87.9231826 L44.1509824,87.8327197 C43.9795882,87.8139445 43.8407589,87.7524981 43.746492,87.6586215 C43.6333718,87.5459697 43.6230882,87.4162495 43.6230882,87.3667511 C43.6230882,87.0970695 43.8441868,86.8086126 44.3343743,86.8086126 L44.3737949,86.8086126 C44.6103189,86.8069058 45.0199512,86.8051989 45.350742,87.0987763 L46.094593,86.3614192 C45.6695353,85.9637243 45.1347853,85.7845055 44.370367,85.7845055 C43.2357372,85.7845055 42.473033,86.4382273 42.473033,87.4111291 C42.473033,87.8549088 42.5912949,88.2013983 42.8243911,88.4403567 C43.0540593,88.6759013 43.4054176,88.8295174 43.866468,88.8943775 L44.5160522,88.9848404 C44.6908743,89.0087362 44.8228478,89.0616483 44.9068311,89.1452838 C44.9908141,89.2391602 45.0302349,89.3552257 45.0302349,89.5054281 C45.0302349,89.7512138 44.8862637,90.0464981 44.1972589,90.0464981 C43.9538791,90.0464981 43.3625689,90.0123612 42.9992132,89.6965947 L42.2416507,90.4493136 C42.7044151,90.8999207 43.2922974,91.0927942 44.1904032,91.0927942 C45.1930593,91.0927942 46.2025714,90.5909817 46.2025714,89.4747049 C46.2025714,88.9643582 46.0774536,88.5973864 45.8220762,88.348187 C45.6026916,88.1297108 45.2599032,87.9880428 44.8005666,87.9231826" id="Fill-45" fill="#E3211B" fill-rule="nonzero"></path>
                        <g id="Fill-47-Clipped">
                            <mask id="mask-2" fill="white">
                                <use xlink:href="#path-1"></use>
                            </mask>
                            <g id="path-1"></g>
                            <polygon id="Fill-47" fill="#E3211B" fill-rule="nonzero" mask="url(#mask-2)" points="49.4163846 91.0499524 50.6110025 91.0499524 50.6110025 85.8304196 49.4163846 85.8304196"></polygon>
                        </g>
                        <g id="Fill-49-Clipped">
                            <mask id="mask-4" fill="white">
                                <use xlink:href="#path-3"></use>
                            </mask>
                            <g id="path-1"></g>
                            <polygon id="Fill-49" fill="#E3211B" fill-rule="nonzero" mask="url(#mask-4)" points="55.0456567 91.0485869 56.2402746 91.0485869 56.2402746 86.8753504 57.56001 86.8753504 57.56001 85.8290542 53.7242073 85.8290542 53.7242073 86.8753504 55.0456567 86.8753504"></polygon>
                        </g>
                        <g id="Fill-50-Clipped">
                            <mask id="mask-6" fill="white">
                                <use xlink:href="#path-5"></use>
                            </mask>
                            <g id="path-1"></g>
                            <polygon id="Fill-50" fill="#E3211B" fill-rule="nonzero" mask="url(#mask-6)" points="60.6752717 91.0482454 61.8698894 91.0482454 61.8698894 85.8287127 60.6752717 85.8287127"></polygon>
                        </g>
                        <g id="Fill-51-Clipped">
                            <mask id="mask-8" fill="white">
                                <use xlink:href="#path-7"></use>
                            </mask>
                            <g id="path-1"></g>
                            <path d="M67.6876952,89.7834732 C67.5882865,89.9097798 67.3843273,90.0463274 67.1083827,90.0463274 C66.8324379,90.0463274 66.6301929,89.9097798 66.5307842,89.7834732 C66.4005246,89.6110818 66.3216833,89.4386905 66.3216833,88.4384792 C66.3216833,87.4365611 66.4039523,87.2539286 66.5307842,87.0883645 C66.6541881,86.9262143 66.8701448,86.830631 67.1083827,86.830631 C67.3466208,86.830631 67.5625775,86.9262143 67.6876952,87.0883645 C67.8128129,87.2539286 67.8967962,87.4365611 67.8967962,88.4384792 C67.8967962,89.4386905 67.8179548,89.6110818 67.6876952,89.7834732 L67.6876952,89.7834732 Z M69.0897,88.3497232 C69.091414,87.6004181 69.091414,86.8903704 68.5669477,86.366369 C68.1607433,85.9652605 67.7134042,85.7843347 67.1083827,85.7843347 C66.506789,85.7843347 66.0577361,85.9652605 65.6532458,86.368076 C65.1253515,86.8903704 65.1270653,87.6004181 65.1270653,88.3497232 L65.1270653,88.5289419 C65.1270653,89.278247 65.1253515,89.9865879 65.6532458,90.512296 C66.0577361,90.9134048 66.506789,91.0943304 67.1083827,91.0943304 C67.7134042,91.0943304 68.1607433,90.9134048 68.5669477,90.5105893 C69.091414,89.9865879 69.091414,89.278247 69.0897,88.5289419 L69.0897,88.3497232 Z" id="Fill-51" fill="#E3211B" fill-rule="nonzero" mask="url(#mask-8)"></path>
                        </g>
                        <g id="Fill-52-Clipped">
                            <mask id="mask-10" fill="white">
                                <use xlink:href="#path-9"></use>
                            </mask>
                            <g id="path-1"></g>
                            <polygon id="Fill-52" fill="#E3211B" fill-rule="nonzero" mask="url(#mask-10)" points="76.4181744 91.0485869 76.4181744 85.8290542 75.2235567 85.8290542 75.2235567 88.6675379 73.4050639 85.8290542 72.3492754 85.8290542 72.3492754 91.0485869 73.5438933 91.0485869 73.5438933 88.2101032 75.362386 91.0485869"></polygon>
                        </g>
                        <g id="Fill-53-Clipped">
                            <mask id="mask-12" fill="white">
                                <use xlink:href="#path-11"></use>
                            </mask>
                            <g id="path-1"></g>
                            <polygon id="Fill-53" fill="#E3211B" fill-rule="nonzero" mask="url(#mask-12)" points="15.1882712 97.4492565 17.1833 97.4492565 17.1833 96.4012536 15.1882712 96.4012536 15.1882712 95.3788534 17.5243745 95.3788534 17.5243745 94.3291435 13.9902255 94.3291435 13.9902255 99.5657446 17.5243745 99.5657446 17.5243745 98.5160347 15.1882712 98.5160347"></polygon>
                        </g>
                        <g id="Fill-54-Clipped">
                            <mask id="mask-14" fill="white">
                                <use xlink:href="#path-13"></use>
                            </mask>
                            <g id="path-1"></g>
                            <polygon id="Fill-54" fill="#E3211B" fill-rule="nonzero" mask="url(#mask-14)" points="15.6919988 92.4470053 15.3560661 93.6776406 15.9885108 93.6776406 16.7992055 92.4470053"></polygon>
                        </g>
                        <g id="Fill-55-Clipped">
                            <mask id="mask-16" fill="white">
                                <use xlink:href="#path-15"></use>
                            </mask>
                            <g id="path-1"></g>
                            <path d="M23.2139775,95.9057564 L24.4394462,95.9057564 C24.2406288,94.8748219 23.5276288,94.2842535 22.4718404,94.2842535 C21.8805304,94.2842535 21.4194798,94.4685928 21.0201313,94.8679945 C20.4922371,95.3937029 20.4922371,96.1037505 20.4922371,96.8581761 L20.4922371,97.035688 C20.4922371,97.7901136 20.4922371,98.501868 21.0201313,99.0258695 C21.4194798,99.4269781 21.8822442,99.6113174 22.4718404,99.6113174 C23.5276288,99.6113174 24.2406288,99.0207489 24.4394462,97.9898144 L23.2139775,97.9898144 C23.13685,98.2475481 22.9671698,98.5616076 22.4786962,98.5616076 C22.2387442,98.5616076 22.0313573,98.469438 21.9079533,98.3107013 C21.7811217,98.1451374 21.6902827,97.9488501 21.6902827,96.946932 C21.6902827,95.9450138 21.7811217,95.7504334 21.9079533,95.5848695 C22.0313573,95.4244261 22.2387442,95.3339632 22.4786962,95.3339632 C22.9671698,95.3339632 23.13685,95.6480227 23.2139775,95.9057564" id="Fill-55" fill="#E3211B" fill-rule="nonzero" mask="url(#mask-16)"></path>
                        </g>
                        <g id="Fill-56-Clipped">
                            <mask id="mask-18" fill="white">
                                <use xlink:href="#path-17"></use>
                            </mask>
                            <g id="path-1"></g>
                            <path d="M29.7449545,98.2960225 C29.6164089,98.4615864 29.4004522,98.5605834 29.1639282,98.5605834 C28.929118,98.5605834 28.7131613,98.4615864 28.5846157,98.2960225 C28.4560699,98.125338 28.3755147,97.9512398 28.3755147,96.9476148 C28.3755147,95.9371624 28.4560699,95.7613572 28.5846157,95.5906727 C28.7097334,95.4285225 28.9256901,95.3346459 29.1639282,95.3346459 C29.4038801,95.3346459 29.6198368,95.4285225 29.7449545,95.5906727 C29.8735003,95.7613572 29.9523416,95.9371624 29.9523416,96.9476148 C29.9523416,97.9512398 29.8735003,98.125338 29.7449545,98.2960225 M29.1639282,94.2832293 C28.5606205,94.2832293 28.1098536,94.4641549 27.7053632,94.8686773 C27.1774689,95.3943856 27.1774689,96.1044332 27.179183,96.8571519 L27.179183,97.0363707 C27.1774689,97.7890894 27.1774689,98.5008439 27.7053632,99.0265523 C28.1098536,99.4310745 28.5606205,99.6120001 29.1639282,99.6120001 C29.7706637,99.6120001 30.2197166,99.4310745 30.6259209,99.0265523 C31.1521012,98.5008439 31.1521012,97.7907963 31.1503872,97.0380775 L31.1503872,96.8554451 C31.1521012,96.1044332 31.1521012,95.3926787 30.6259209,94.8669703 C30.2197166,94.4641549 29.7706637,94.2832293 29.1639282,94.2832293" id="Fill-56" fill="#E3211B" fill-rule="nonzero" mask="url(#mask-18)"></path>
                        </g>
                        <g id="Fill-57-Clipped">
                            <mask id="mask-20" fill="white">
                                <use xlink:href="#path-19"></use>
                            </mask>
                            <g id="path-1"></g>
                            <polygon id="Fill-57" fill="#E3211B" fill-rule="nonzero" mask="url(#mask-20)" points="35.4693506 94.328802 34.2713048 94.328802 34.2713048 99.5654032 37.7300404 99.5654032 37.7300404 98.5156935 35.4693506 98.5156935"></polygon>
                        </g>
                        <g id="Fill-58-Clipped">
                            <mask id="mask-22" fill="white">
                                <use xlink:href="#path-21"></use>
                            </mask>
                            <g id="path-1"></g>
                            <path d="M42.9025468,98.2960225 C42.7740012,98.4615864 42.5580445,98.5605834 42.3232343,98.5605834 C42.0455757,98.5605834 41.8416166,98.4240358 41.7439218,98.2960225 C41.6136622,98.125338 41.5348209,97.9495328 41.5348209,96.9476148 C41.5348209,95.9405761 41.6170901,95.7579436 41.7439218,95.5906727 C41.8673257,95.4302293 42.0832824,95.3346459 42.3232343,95.3346459 C42.5614724,95.3346459 42.7774291,95.4285225 42.9025468,95.5906727 C43.0310926,95.7613572 43.1116478,95.9371624 43.1116478,96.9476148 C43.1116478,97.9512398 43.0310926,98.125338 42.9025468,98.2960225 M42.3232343,94.2832293 C41.7182128,94.2832293 41.2674459,94.4641549 40.8629555,94.8669703 C40.3350613,95.3943856 40.3350613,96.1044332 40.3367753,96.8571519 L40.3367753,97.0363707 C40.3350613,97.7890894 40.3350613,98.5008439 40.8629555,99.0265523 C41.2674459,99.4310745 41.7182128,99.6120001 42.3232343,99.6120001 C42.9282561,99.6120001 43.3773089,99.4310745 43.7835132,99.0265523 C44.3096936,98.5008439 44.3096936,97.7890894 44.3079795,97.0363707 L44.3079795,96.8571519 C44.3096936,96.1044332 44.3096936,95.3943856 43.7835132,94.8669703 C43.3773089,94.4641549 42.9282561,94.2832293 42.3232343,94.2832293" id="Fill-58" fill="#E3211B" fill-rule="nonzero" mask="url(#mask-22)"></path>
                        </g>
                        <g id="Fill-59-Clipped">
                            <mask id="mask-24" fill="white">
                                <use xlink:href="#path-23"></use>
                            </mask>
                            <g id="path-1"></g>
                            <path d="M50.0544853,95.9357969 L51.2645286,95.9357969 C51.1651199,95.3878995 50.779483,94.2835707 49.2352209,94.2835707 C48.6353411,94.2835707 48.1880022,94.4644963 47.7817978,94.8690186 C47.2539036,95.3947269 47.2556173,96.1047745 47.2556173,96.8574933 L47.2556173,97.036712 C47.2556173,97.7894308 47.2539036,98.5011852 47.7817978,99.0268936 C48.1828603,99.4262953 48.6439109,99.6106346 49.2352209,99.6106346 C49.9036584,99.6106346 50.3578532,99.4365364 50.7554878,99.0286005 L50.7554878,99.0268936 C51.1394109,98.6377328 51.283382,98.1666436 51.283382,97.2859114 L51.283382,96.6031733 L49.2986368,96.6031733 L49.2986368,97.577782 L50.0904782,97.577782 L50.0904782,97.7160364 C50.0904782,97.9703564 50.0133507,98.1888326 49.8710936,98.3322076 C49.7271224,98.48241 49.5128795,98.5609249 49.2352209,98.5609249 C48.9952689,98.5609249 48.786168,98.4687553 48.6627641,98.3117255 C48.5359324,98.1461614 48.4536632,97.9618221 48.4536632,96.9479561 C48.4536632,95.9409174 48.5359324,95.758285 48.6627641,95.5910142 C48.7913099,95.427157 48.9986968,95.3332805 49.2352209,95.3332805 C49.6842738,95.3332805 49.9310814,95.5142061 50.0544853,95.9357969" id="Fill-59" fill="#E3211B" fill-rule="nonzero" mask="url(#mask-24)"></path>
                        </g>
                        <g id="Fill-60-Clipped">
                            <mask id="mask-26" fill="white">
                                <use xlink:href="#path-25"></use>
                            </mask>
                            <g id="path-1"></g>
                            <polygon id="Fill-60" fill="#E3211B" fill-rule="nonzero" mask="url(#mask-26)" points="54.4022429 99.5654032 55.5985744 99.5654032 55.5985744 94.328802 54.4022429 94.328802"></polygon>
                        </g>
                        <g id="Fill-61-Clipped">
                            <mask id="mask-28" fill="white">
                                <use xlink:href="#path-27"></use>
                            </mask>
                            <g id="path-1"></g>
                            <path d="M61.4647135,97.7441994 L61.4544298,97.8773333 L61.1442063,97.5701012 L60.5614658,98.1521353 L60.9402471,98.5310551 L60.823699,98.553244 C60.7808504,98.5617784 60.7465717,98.5617784 60.707151,98.5617784 C60.4294923,98.5617784 60.2255331,98.4235238 60.1278385,98.2955105 C59.9975788,98.1265327 59.9187375,97.9490208 59.9187375,96.9471026 C59.9187375,95.9400639 60.0010067,95.7574315 60.1278385,95.5901607 C60.2512423,95.431424 60.4689129,95.3341339 60.707151,95.3341339 C60.945389,95.3341339 61.1613458,95.4297173 61.2864635,95.5901607 C61.4132952,95.7574315 61.4955644,95.9400639 61.4955644,96.9471026 C61.4955644,97.3345565 61.478425,97.5871696 61.4647135,97.7441994 L61.4647135,97.7441994 Z M62.3936702,98.7444107 C62.695324,98.2630804 62.69361,97.6656845 62.69361,97.0324449 L62.69361,96.8566399 C62.695324,96.103921 62.695324,95.3938734 62.1674298,94.8664583 C61.7629394,94.4636429 61.3104587,94.284424 60.707151,94.284424 C60.1021292,94.284424 59.6513625,94.4636429 59.2468721,94.8681651 C58.7189779,95.3938734 58.7189779,96.103921 58.7206919,96.8566399 L58.7206919,97.0358585 C58.7189779,97.7885774 58.7189779,98.5003318 59.2468721,99.0260403 C59.6513625,99.4305625 60.1021292,99.6114881 60.707151,99.6114881 C61.1082135,99.6114881 61.4372904,99.5329732 61.7183769,99.3708228 L61.7612254,99.3452202 L62.1657158,99.7514494 L62.7501702,99.1694151 L62.3662471,98.785375 L62.3936702,98.7444107 Z" id="Fill-61" fill="#E3211B" fill-rule="nonzero" mask="url(#mask-28)"></path>
                        </g>
                        <g id="Fill-62-Clipped">
                            <mask id="mask-30" fill="white">
                                <use xlink:href="#path-29"></use>
                            </mask>
                            <g id="path-1"></g>
                            <path d="M66.9212202,97.7158657 L66.9212202,94.3294847 L65.7231744,94.3294847 L65.7231744,97.7465889 C65.7231744,98.8253151 66.5510087,99.6104639 67.6942081,99.6104639 C68.8459773,99.6104639 69.6806673,98.8253151 69.6806673,97.7465889 L69.6806673,94.3294847 L68.4826215,94.3294847 L68.4826215,97.7158657 C68.4826215,98.2381603 68.1809677,98.5607542 67.6942081,98.5607542 C67.2177321,98.5607542 66.9212202,98.2381603 66.9212202,97.7158657" id="Fill-62" fill="#E3211B" fill-rule="nonzero" mask="url(#mask-30)"></path>
                        </g>
                        <g id="Fill-63-Clipped">
                            <mask id="mask-32" fill="white">
                                <use xlink:href="#path-31"></use>
                            </mask>
                            <g id="path-1"></g>
                            <polygon id="Fill-63" fill="#E3211B" fill-rule="nonzero" mask="url(#mask-32)" points="74.0832709 97.4492565 76.0782997 97.4492565 76.0782997 96.4012536 74.0832709 96.4012536 74.0832709 95.3788534 76.4176603 95.3788534 76.4176603 94.3291435 72.8852253 94.3291435 72.8852253 99.5657446 76.4176603 99.5657446 76.4176603 98.5160347 74.0832709 98.5160347"></polygon>
                        </g>
                    </g>
                </g>
            </g>
        </g>
    </g>
</svg>