<?xml version="1.0" encoding="utf-8"?>
<!DOCTYPE svg PUBLIC "-//W3C//DTD SVG 1.1//EN" "http://www.w3.org/Graphics/SVG/1.1/DTD/svg11.dtd">
<svg version="1.1" id="Calque_1" xmlns="http://www.w3.org/2000/svg" xmlns:xlink="http://www.w3.org/1999/xlink" x="0px" y="0px"
	 width="467px" height="53px" viewBox="0 0 467 53" enable-background="new 0 0 467 53" xml:space="preserve">
<title>logo_TACCT_0_linear</title>
<g id="Group-2" transform="translate(66.000000, 6.000000)">
	<g id="Fill-1-Clipped" transform="translate(14.000000, 0.000000)">
		<g id="path-1_1_">
		</g>
		<defs>
			<filter id="Adobe_OpacityMaskFilter" filterUnits="userSpaceOnUse" x="0.59" y="0.838" width="19.836" height="25.162">
				<feColorMatrix  type="matrix" values="1 0 0 0 0  0 1 0 0 0  0 0 1 0 0  0 0 0 1 0"/>
			</filter>
		</defs>
		<mask maskUnits="userSpaceOnUse" x="0.59" y="0.838" width="19.836" height="25.162" id="mask-2">
			<g filter="url(#Adobe_OpacityMaskFilter)">
				<polygon id="path-1" fill="#FFFFFF" points="0.59,0.838 20.426,0.838 20.426,26 0.59,26 				"/>
			</g>
		</mask>
		<path id="Fill-1" mask="url(#mask-2)" fill="#2AACA3" d="M7.998,16.646h4.984l-2.492-9.15L7.998,16.646z M0.59,23.814
			c0-0.066,0.022-0.192,0.068-0.375l6.35-20.825C7.189,2.046,7.605,1.606,8.253,1.3c0.65-0.308,1.394-0.462,2.236-0.462
			c0.842,0,1.588,0.154,2.236,0.462c0.65,0.306,1.064,0.746,1.248,1.314l6.384,20.825c0.044,0.183,0.068,0.309,0.068,0.375
			c0,0.594-0.37,1.104-1.11,1.537C18.576,25.784,17.808,26,17.012,26c-0.98,0-1.56-0.33-1.742-0.99l-1.16-4.268H6.906l-1.16,4.268
			C5.562,25.67,4.981,26,4.003,26c-0.796,0-1.564-0.216-2.304-0.648C0.959,24.918,0.59,24.408,0.59,23.814L0.59,23.814z"/>
	</g>
	<path id="Fill-4" fill="#2AACA3" d="M36.132,17.943V8.897c0-2.778,0.756-4.814,2.27-6.112c1.512-1.298,3.488-1.946,5.922-1.946
		c2.504,0,4.56,0.604,6.164,1.81c1.604,1.206,2.406,2.866,2.406,4.984c0,0.978-0.204,1.644-0.614,1.996
		c-0.41,0.354-1.092,0.53-2.05,0.53c-1.706,0-2.594-0.534-2.662-1.604c-0.068-2.05-1.08-3.074-3.038-3.074
		c-2.048,0-3.072,1.138-3.072,3.416v9.046c0,2.276,1.034,3.414,3.106,3.414c0.638,0,1.166-0.102,1.588-0.309
		c0.42-0.204,0.722-0.516,0.904-0.938c0.182-0.422,0.302-0.768,0.358-1.042c0.058-0.272,0.108-0.648,0.154-1.126
		c0.09-1.07,0.968-1.604,2.63-1.604c0.978,0,1.672,0.176,2.082,0.528c0.41,0.354,0.614,1.02,0.614,1.998
		c0,2.208-0.802,3.947-2.406,5.225c-1.604,1.273-3.66,1.909-6.164,1.909c-2.434,0-4.41-0.647-5.922-1.946
		C36.888,22.758,36.132,20.719,36.132,17.943"/>
	<path id="Fill-6" fill="#2AACA3" d="M55.319,17.943V8.897c0-2.778,0.756-4.814,2.27-6.112s3.488-1.946,5.924-1.946
		c2.504,0,4.558,0.604,6.162,1.81c1.604,1.206,2.408,2.866,2.408,4.984c0,0.978-0.206,1.644-0.616,1.996
		c-0.41,0.354-1.092,0.53-2.048,0.53c-1.708,0-2.594-0.534-2.662-1.604c-0.07-2.05-1.082-3.074-3.04-3.074
		c-2.048,0-3.072,1.138-3.072,3.416v9.046c0,2.276,1.036,3.414,3.106,3.414c0.638,0,1.168-0.102,1.588-0.309
		c0.42-0.204,0.722-0.516,0.904-0.938c0.182-0.422,0.302-0.768,0.36-1.042c0.056-0.272,0.106-0.648,0.154-1.126
		c0.09-1.07,0.966-1.604,2.628-1.604c0.978,0,1.672,0.176,2.082,0.528c0.41,0.354,0.616,1.02,0.616,1.998
		c0,2.208-0.804,3.947-2.408,5.225c-1.604,1.273-3.658,1.909-6.162,1.909c-2.436,0-4.41-0.647-5.924-1.946
		C56.075,22.758,55.319,20.719,55.319,17.943"/>
	<path id="Fill-8" fill="#952260" d="M79.582,23.207L79.582,23.207c0.17,0.322,4.484,0.296,4.792-4.936V6.417h4.238
		c0.452,0,0.804-0.204,1.06-0.612c0.256-0.408,0.384-0.91,0.384-1.508c0-0.556-0.122-1.038-0.368-1.446
		c-0.246-0.41-0.604-0.612-1.076-0.612H75.344c-0.472,0-0.83,0.202-1.076,0.612c-0.246,0.408-0.368,0.89-0.368,1.446
		c0,0.598,0.128,1.1,0.384,1.508c0.256,0.408,0.61,0.612,1.06,0.612h4.238V23.207z"/>
	<g id="Fill-10-Clipped" transform="translate(0.000000, 2.000000)">
		<g id="path-3_1_">
		</g>
		<defs>
			<filter id="Adobe_OpacityMaskFilter_1_" filterUnits="userSpaceOnUse" x="0" y="0.238" width="16.156" height="21.082">
				<feColorMatrix  type="matrix" values="1 0 0 0 0  0 1 0 0 0  0 0 1 0 0  0 0 0 1 0"/>
			</filter>
		</defs>
		<mask maskUnits="userSpaceOnUse" x="0" y="0.238" width="16.156" height="21.082" id="mask-4">
			<g filter="url(#Adobe_OpacityMaskFilter_1_)">
				<polygon id="path-3" fill="#FFFFFF" points="0,0.238 16.156,0.238 16.156,21.32 0,21.32 				"/>
			</g>
		</mask>
		<path id="Fill-10" mask="url(#mask-4)" fill="#DA1B5C" d="M15.788,0.851c-0.246-0.408-0.604-0.612-1.076-0.612H1.443
			c-0.472,0-0.83,0.204-1.076,0.612C0.124,1.258,0,1.74,0,2.296c0,0.598,0.128,1.1,0.384,1.508c0.256,0.408,0.61,0.612,1.06,0.612
			h4.238v11.45c0.094,5.522,4.43,5.666,4.79,5.362c0-0.008,0.002-0.014,0.002-0.021V4.417h4.238c0.452,0,0.804-0.204,1.06-0.612
			c0.256-0.408,0.384-0.91,0.384-1.508C16.156,1.74,16.034,1.258,15.788,0.851"/>
	</g>
</g>
<g id="logo_TACCT">
	<g id="Group-60" transform="translate(0.539062, 0.681000)">
		<path id="Fill-13" fill="#2AACA3" d="M27.701,18.436c-0.124-0.048-0.244-0.106-0.372-0.146L0.457,38.413
			c0.028,0.117,0.066,0.231,0.096,0.352L27.701,18.436z"/>
		<path id="Fill-15" fill="#2AACA3" d="M25.714,18.021c-0.008,0-0.014-0.002-0.022-0.002c-0.198,0-0.412,0.038-0.618,0.058
			L0.148,36.741c0.018,0.129,0.046,0.25,0.066,0.377L25.714,18.021z"/>
		<path id="Fill-17" fill="#2AACA3" d="M29.148,19.253c-0.094-0.074-0.194-0.138-0.292-0.204L0.906,39.977
			c0.038,0.109,0.086,0.217,0.126,0.328L29.148,19.253z"/>
		<path id="Fill-19" fill="#2AACA3" d="M30.274,20.311c-0.076-0.088-0.158-0.164-0.236-0.246L1.484,41.446
			c0.046,0.105,0.104,0.205,0.152,0.309L30.274,20.311z"/>
		<path id="Fill-21" fill="#2AACA3" d="M31.182,21.533c-0.062-0.098-0.13-0.184-0.194-0.278L2.18,42.825
			c0.056,0.1,0.122,0.194,0.178,0.292L31.182,21.533z"/>
		<path id="Fill-23" fill="#2AACA3" d="M13.296,21.617c-0.316,0.092-0.626,0.184-0.93,0.274L0.428,30.827
			c-0.038,0.17-0.08,0.334-0.114,0.51L13.296,21.617z"/>
		<path id="Fill-25" fill="#2AACA3" d="M32.971,25.471L4.945,46.46c0.08,0.082,0.172,0.154,0.256,0.232l27.876-20.876
			C33.043,25.701,33.009,25.586,32.971,25.471"/>
		<path id="Fill-27" fill="#2AACA3" d="M20.939,19.271L0.007,34.946c0.004,0.135,0.018,0.27,0.026,0.405l21.95-16.438
			C21.635,19.033,21.279,19.157,20.939,19.271"/>
		<path id="Fill-29" fill="#2AACA3" d="M1.364,28.226c-0.118,0.22-0.238,0.438-0.34,0.679l7.954-5.957
			C8.61,23.072,8.25,23.2,7.906,23.328L1.364,28.226z"/>
		<path id="Fill-31" fill="#2AACA3" d="M17.505,20.365c-0.322,0.098-0.638,0.194-0.95,0.288L0.083,32.989
			c-0.014,0.152-0.036,0.305-0.044,0.456L17.505,20.365z"/>
		<path id="Fill-33" fill="#2AACA3" d="M31.931,22.873c-0.05-0.104-0.106-0.202-0.16-0.304L2.989,44.121
			c0.064,0.093,0.138,0.179,0.204,0.271L31.931,22.873z"/>
		<path id="Fill-35" fill="#2AACA3" d="M34.474,36.182c0-0.138-0.006-0.281-0.006-0.42L14.096,51.016
			c0.156,0.026,0.31,0.051,0.466,0.074L34.474,36.182z"/>
		<path id="Fill-37" fill="#2AACA3" d="M34.191,40.194c0.022-0.158,0.046-0.311,0.066-0.473L18.615,51.434
			c0.194,0.002,0.386-0.008,0.578-0.01L34.191,40.194z"/>
		<path id="Fill-39" fill="#2AACA3" d="M34.403,38.134c0.01-0.142,0.01-0.292,0.018-0.438L16.259,51.298
			c0.166,0.015,0.332,0.036,0.498,0.048L34.403,38.134z"/>
		<path id="Fill-41" fill="#2AACA3" d="M32.582,45.203c0.144-0.246,0.296-0.481,0.424-0.741l-8.404,6.291
			c0.314-0.08,0.62-0.172,0.924-0.266L32.582,45.203z"/>
		<path id="Fill-43" fill="#2AACA3" d="M32.555,24.305c-0.042-0.11-0.086-0.218-0.13-0.326L3.909,45.333
			c0.072,0.087,0.156,0.164,0.23,0.25L32.555,24.305z"/>
		<path id="Fill-45" fill="#2AACA3" d="M33.742,42.434c0.046-0.172,0.094-0.346,0.136-0.525l-12.564,9.408
			c0.216-0.021,0.432-0.035,0.644-0.061L33.742,42.434z"/>
		<path id="Fill-47" fill="#2AACA3" d="M33.861,29.035c-0.022-0.124-0.04-0.252-0.064-0.376L7.375,48.443
			c0.102,0.067,0.208,0.126,0.312,0.192L33.861,29.035z"/>
		<path id="Fill-49" fill="#2AACA3" d="M33.51,27.395c-0.028-0.12-0.054-0.242-0.084-0.359L6.096,47.497
			c0.092,0.074,0.19,0.143,0.282,0.215L33.51,27.395z"/>
		<path id="Fill-51" fill="#2AACA3" d="M34.134,30.73c-0.016-0.128-0.032-0.256-0.05-0.386L8.788,49.288
			c0.112,0.061,0.232,0.106,0.346,0.164L34.134,30.73z"/>
		<path id="Fill-53" fill="#2AACA3" d="M34.446,34.298c-0.004-0.134-0.018-0.271-0.026-0.403L12.118,50.594
			c0.14,0.038,0.286,0.068,0.428,0.102L34.446,34.298z"/>
		<path id="Fill-55" fill="#2AACA3" d="M34.332,32.484c-0.012-0.13-0.028-0.262-0.042-0.392l-23.932,17.92
			c0.126,0.05,0.26,0.088,0.386,0.134L34.332,32.484z"/>
		<g id="Fill-57-Clipped" transform="translate(12.000000, 0.000000)">
			<g id="path-5_1_">
			</g>
			<defs>
				<filter id="Adobe_OpacityMaskFilter_2_" filterUnits="userSpaceOnUse" x="0.138" y="1.319" width="43.218" height="47.946">
					<feColorMatrix  type="matrix" values="1 0 0 0 0  0 1 0 0 0  0 0 1 0 0  0 0 0 1 0"/>
				</filter>
			</defs>
			<mask maskUnits="userSpaceOnUse" x="0.138" y="1.319" width="43.218" height="47.946" id="mask-6">
				<g filter="url(#Adobe_OpacityMaskFilter_2_)">
					<polygon id="path-5" fill="#FFFFFF" points="0.138,1.32 43.356,1.32 43.356,49.265 0.138,49.265 					"/>
				</g>
			</mask>
			<path id="Fill-57" mask="url(#mask-6)" fill="#1D1D1B" d="M30.541,1.733c-0.008,0-0.016,0-0.024-0.002
				c-0.22-0.032-0.444-0.052-0.672-0.066c-0.096-0.006-0.168-0.088-0.162-0.182c0.006-0.096,0.082-0.164,0.182-0.164
				c0.24,0.014,0.476,0.038,0.7,0.07c0.096,0.014,0.16,0.1,0.146,0.196C30.7,1.671,30.625,1.733,30.541,1.733L30.541,1.733z
				 M27.787,1.745c-0.088,0-0.162-0.064-0.172-0.152c-0.012-0.096,0.056-0.182,0.15-0.194c0.234-0.026,0.466-0.048,0.696-0.066
				h0.014c0.09,0,0.166,0.07,0.172,0.16c0.008,0.096-0.064,0.18-0.16,0.186c-0.226,0.016-0.452,0.038-0.68,0.064
				C27.798,1.745,27.792,1.745,27.787,1.745L27.787,1.745z M25.749,2.125c-0.08,0-0.15-0.054-0.168-0.132
				c-0.024-0.092,0.032-0.186,0.126-0.21c0.228-0.056,0.456-0.108,0.68-0.156c0.09-0.014,0.186,0.042,0.206,0.136
				c0.018,0.094-0.042,0.184-0.136,0.204c-0.22,0.046-0.442,0.096-0.666,0.152C25.776,2.123,25.76,2.125,25.749,2.125L25.749,2.125z
				 M32.532,2.273c-0.022,0-0.044-0.004-0.066-0.014c-0.212-0.088-0.426-0.166-0.634-0.232c-0.092-0.028-0.142-0.126-0.114-0.216
				c0.03-0.092,0.126-0.144,0.216-0.114c0.22,0.07,0.442,0.15,0.664,0.242c0.088,0.038,0.13,0.138,0.094,0.226
				C32.665,2.233,32.601,2.273,32.532,2.273L32.532,2.273z M23.76,2.725c-0.072,0-0.138-0.044-0.164-0.116
				c-0.032-0.088,0.016-0.188,0.106-0.22c0.22-0.078,0.442-0.154,0.66-0.224c0.09-0.024,0.19,0.022,0.218,0.112
				c0.03,0.092-0.022,0.19-0.112,0.218c-0.216,0.07-0.432,0.144-0.65,0.22C23.798,2.723,23.78,2.725,23.76,2.725L23.76,2.725z
				 M34.333,3.279c-0.034,0-0.07-0.01-0.1-0.032c-0.184-0.134-0.372-0.258-0.564-0.376c-0.082-0.05-0.106-0.156-0.056-0.238
				c0.05-0.082,0.156-0.108,0.238-0.058c0.198,0.122,0.394,0.254,0.584,0.39c0.078,0.056,0.096,0.164,0.04,0.242
				C34.44,3.255,34.386,3.279,34.333,3.279L34.333,3.279z M21.833,3.495c-0.068,0-0.13-0.038-0.16-0.102
				c-0.038-0.086,0.002-0.19,0.088-0.228c0.214-0.096,0.428-0.186,0.642-0.276c0.086-0.034,0.188,0.006,0.226,0.094
				c0.036,0.088-0.006,0.19-0.094,0.226c-0.21,0.088-0.42,0.178-0.632,0.272C21.878,3.491,21.854,3.495,21.833,3.495L21.833,3.495z
				 M19.962,4.403c-0.062,0-0.122-0.034-0.152-0.092c-0.044-0.086-0.012-0.19,0.072-0.234c0.208-0.108,0.414-0.214,0.62-0.318
				c0.082-0.04,0.19-0.006,0.234,0.078c0.042,0.086,0.008,0.19-0.078,0.232c-0.206,0.102-0.41,0.208-0.616,0.313
				C20.019,4.397,19.99,4.403,19.962,4.403L19.962,4.403z M35.882,4.649c-0.046,0-0.092-0.018-0.126-0.054
				c-0.156-0.166-0.316-0.328-0.48-0.482c-0.07-0.066-0.072-0.176-0.008-0.246c0.066-0.07,0.176-0.072,0.246-0.006
				c0.168,0.16,0.334,0.326,0.494,0.498c0.066,0.07,0.064,0.178-0.008,0.244C35.968,4.635,35.924,4.649,35.882,4.649L35.882,4.649z
				 M18.152,5.419c-0.06,0-0.116-0.03-0.15-0.084c-0.048-0.082-0.022-0.188,0.06-0.236c0.2-0.12,0.4-0.238,0.6-0.352
				c0.08-0.052,0.188-0.02,0.236,0.064c0.048,0.082,0.018,0.188-0.064,0.234c-0.198,0.114-0.396,0.232-0.594,0.35
				C18.212,5.411,18.183,5.419,18.152,5.419L18.152,5.419z M37.187,6.261c-0.056,0-0.108-0.026-0.142-0.074
				c-0.132-0.188-0.266-0.372-0.404-0.552c-0.058-0.076-0.044-0.184,0.032-0.242c0.074-0.058,0.184-0.044,0.244,0.032
				c0.138,0.184,0.278,0.372,0.412,0.564c0.054,0.078,0.036,0.186-0.044,0.242C37.254,6.251,37.22,6.261,37.187,6.261L37.187,6.261z
				 M16.398,6.533c-0.056,0-0.11-0.026-0.144-0.076c-0.054-0.08-0.032-0.188,0.046-0.24c0.194-0.13,0.388-0.258,0.582-0.384
				c0.078-0.054,0.186-0.03,0.24,0.052c0.05,0.08,0.028,0.188-0.052,0.24c-0.194,0.124-0.384,0.25-0.576,0.378
				C16.464,6.523,16.43,6.533,16.398,6.533L16.398,6.533z M14.7,7.731c-0.052,0-0.104-0.024-0.138-0.07
				c-0.058-0.076-0.042-0.184,0.034-0.242c0.188-0.138,0.374-0.274,0.564-0.41c0.078-0.052,0.186-0.038,0.24,0.04
				c0.056,0.078,0.038,0.187-0.04,0.242c-0.186,0.134-0.372,0.27-0.556,0.406C14.772,7.721,14.736,7.731,14.7,7.731L14.7,7.731z
				 M38.278,8.027c-0.062,0-0.12-0.032-0.152-0.088c-0.112-0.204-0.226-0.404-0.34-0.598c-0.048-0.082-0.022-0.19,0.06-0.238
				c0.08-0.046,0.19-0.022,0.238,0.062c0.118,0.198,0.232,0.4,0.344,0.608c0.046,0.084,0.016,0.188-0.068,0.234
				C38.334,8.021,38.307,8.027,38.278,8.027L38.278,8.027z M13.059,9.003c-0.052,0-0.102-0.02-0.136-0.064
				c-0.058-0.074-0.048-0.182,0.028-0.244c0.178-0.144,0.36-0.29,0.542-0.432c0.072-0.06,0.182-0.046,0.242,0.03
				c0.06,0.074,0.046,0.184-0.028,0.242c-0.18,0.142-0.36,0.284-0.54,0.43C13.134,8.991,13.096,9.003,13.059,9.003L13.059,9.003z
				 M39.192,9.891c-0.066,0-0.128-0.038-0.158-0.102c-0.094-0.212-0.19-0.422-0.286-0.626c-0.042-0.088-0.004-0.19,0.082-0.23
				c0.086-0.044,0.188-0.004,0.23,0.082c0.1,0.208,0.194,0.42,0.29,0.634c0.04,0.086,0,0.188-0.088,0.228
				C39.24,9.887,39.216,9.891,39.192,9.891L39.192,9.891z M11.472,10.349c-0.048,0-0.096-0.02-0.13-0.06
				c-0.064-0.07-0.056-0.18,0.016-0.244c0.174-0.152,0.348-0.306,0.524-0.458c0.074-0.064,0.18-0.054,0.244,0.018
				c0.062,0.072,0.054,0.182-0.018,0.244c-0.174,0.152-0.348,0.302-0.522,0.456C11.554,10.335,11.512,10.349,11.472,10.349
				L11.472,10.349z M9.946,11.759c-0.046,0-0.092-0.018-0.124-0.052c-0.068-0.068-0.066-0.18,0.004-0.244
				c0.166-0.162,0.334-0.322,0.504-0.48c0.068-0.066,0.178-0.062,0.244,0.008c0.064,0.07,0.06,0.178-0.008,0.244
				c-0.168,0.158-0.336,0.316-0.5,0.476C10.032,11.743,9.988,11.759,9.946,11.759L9.946,11.759z M39.964,11.819
				c-0.07,0-0.138-0.044-0.164-0.114c-0.078-0.216-0.158-0.43-0.24-0.644c-0.036-0.088,0.01-0.19,0.098-0.224
				c0.09-0.032,0.188,0.01,0.224,0.1c0.084,0.214,0.164,0.43,0.244,0.652c0.034,0.09-0.014,0.188-0.104,0.222
				C40.002,11.817,39.984,11.819,39.964,11.819L39.964,11.819z M8.486,13.231c-0.044,0-0.086-0.016-0.12-0.046
				c-0.07-0.068-0.072-0.176-0.006-0.246c0.158-0.168,0.318-0.334,0.482-0.5c0.068-0.07,0.176-0.07,0.244,0
				c0.068,0.066,0.07,0.176,0.002,0.244c-0.162,0.164-0.32,0.328-0.476,0.494C8.579,13.213,8.532,13.231,8.486,13.231L8.486,13.231z
				 M40.618,13.791c-0.076,0-0.144-0.048-0.166-0.122c-0.068-0.222-0.136-0.442-0.206-0.66c-0.03-0.09,0.022-0.188,0.112-0.218
				c0.088-0.024,0.186,0.022,0.218,0.112c0.07,0.22,0.138,0.442,0.206,0.664c0.028,0.092-0.024,0.188-0.114,0.216
				C40.65,13.789,40.634,13.791,40.618,13.791L40.618,13.791z M7.09,14.771c-0.04,0-0.08-0.014-0.114-0.042
				c-0.072-0.064-0.08-0.172-0.018-0.246c0.152-0.174,0.304-0.348,0.46-0.522c0.064-0.072,0.17-0.078,0.244-0.014
				c0.072,0.064,0.078,0.174,0.014,0.244c-0.154,0.172-0.306,0.346-0.456,0.52C7.187,14.749,7.138,14.771,7.09,14.771L7.09,14.771z
				 M41.172,15.795c-0.076,0-0.148-0.052-0.168-0.132c-0.056-0.222-0.114-0.446-0.172-0.668c-0.026-0.092,0.03-0.186,0.122-0.212
				c0.1-0.018,0.188,0.032,0.21,0.122c0.06,0.224,0.12,0.45,0.176,0.674c0.024,0.094-0.032,0.188-0.126,0.21
				C41.203,15.793,41.187,15.795,41.172,15.795L41.172,15.795z M5.771,16.373c-0.038,0-0.076-0.012-0.106-0.036
				c-0.076-0.06-0.09-0.168-0.03-0.242c0.142-0.182,0.286-0.364,0.432-0.544c0.058-0.074,0.172-0.084,0.242-0.026
				c0.076,0.06,0.086,0.168,0.026,0.244c-0.144,0.178-0.288,0.358-0.428,0.538C5.873,16.351,5.82,16.373,5.771,16.373L5.771,16.373z
				 M41.641,17.817c-0.08,0-0.152-0.056-0.168-0.138c-0.048-0.224-0.098-0.448-0.148-0.672c-0.02-0.094,0.038-0.186,0.132-0.208
				c0.086-0.024,0.184,0.038,0.206,0.132c0.05,0.224,0.1,0.45,0.148,0.676c0.02,0.094-0.04,0.186-0.134,0.206
				C41.665,17.815,41.652,17.817,41.641,17.817L41.641,17.817z M4.534,18.045c-0.036,0-0.07-0.01-0.1-0.032
				c-0.078-0.054-0.098-0.162-0.042-0.24c0.132-0.19,0.266-0.378,0.404-0.568c0.056-0.078,0.162-0.096,0.242-0.038
				c0.076,0.058,0.094,0.164,0.038,0.242c-0.136,0.186-0.27,0.374-0.402,0.562C4.643,18.019,4.588,18.045,4.534,18.045L4.534,18.045
				z M3.398,19.783c-0.03,0-0.062-0.008-0.09-0.024c-0.082-0.05-0.108-0.156-0.058-0.238c0.12-0.198,0.242-0.394,0.368-0.592
				c0.052-0.08,0.158-0.104,0.238-0.052c0.082,0.052,0.104,0.158,0.054,0.238c-0.124,0.196-0.246,0.39-0.366,0.586
				C3.512,19.755,3.457,19.783,3.398,19.783L3.398,19.783z M42.039,19.857c-0.084,0-0.156-0.06-0.17-0.144
				c-0.04-0.228-0.082-0.454-0.124-0.68c-0.018-0.094,0.044-0.184,0.136-0.202c0.094-0.018,0.186,0.044,0.202,0.138
				c0.044,0.228,0.084,0.456,0.124,0.684c0.018,0.094-0.044,0.184-0.138,0.2C42.057,19.855,42.046,19.857,42.039,19.857
				L42.039,19.857z M2.382,21.595c-0.026,0-0.054-0.006-0.08-0.018c-0.084-0.044-0.118-0.148-0.074-0.234
				c0.104-0.204,0.214-0.41,0.326-0.614c0.046-0.086,0.152-0.118,0.236-0.07c0.084,0.046,0.114,0.152,0.068,0.236
				c-0.11,0.202-0.218,0.404-0.322,0.606C2.504,21.561,2.444,21.595,2.382,21.595L2.382,21.595z M42.366,21.911
				c-0.084,0-0.158-0.062-0.17-0.148c-0.034-0.228-0.068-0.456-0.104-0.684c-0.014-0.096,0.05-0.182,0.146-0.198
				c0.09-0.012,0.182,0.05,0.196,0.144c0.036,0.23,0.07,0.458,0.104,0.688c0.012,0.094-0.052,0.182-0.148,0.196
				C42.382,21.911,42.375,21.911,42.366,21.911L42.366,21.911z M1.514,23.481c-0.02,0-0.044-0.004-0.064-0.012
				c-0.088-0.036-0.132-0.138-0.096-0.226c0.088-0.214,0.178-0.428,0.272-0.642c0.04-0.088,0.144-0.124,0.23-0.088
				c0.086,0.038,0.126,0.14,0.088,0.228c-0.094,0.21-0.184,0.422-0.27,0.632C1.648,23.441,1.583,23.481,1.514,23.481L1.514,23.481z
				 M42.628,23.951c-0.084,0-0.152-0.048-0.164-0.134c-0.03-0.252-0.054-0.468-0.084-0.686c-0.01-0.094,0.056-0.18,0.152-0.192
				c0.09-0.018,0.18,0.054,0.192,0.15c0.028,0.216,0.054,0.434,0.08,0.648c0.012,0.096-0.054,0.202-0.148,0.212
				C42.646,23.951,42.636,23.951,42.628,23.951L42.628,23.951z M0.838,25.443c-0.016,0-0.032-0.002-0.048-0.004
				c-0.09-0.028-0.144-0.122-0.12-0.214c0.064-0.222,0.132-0.446,0.204-0.67c0.03-0.09,0.126-0.142,0.218-0.11
				c0.092,0.03,0.142,0.126,0.112,0.218c-0.072,0.22-0.138,0.438-0.2,0.654C0.984,25.395,0.915,25.443,0.838,25.443L0.838,25.443z
				 M42.851,26.037c-0.09,0-0.164-0.066-0.172-0.156l-0.066-0.69c-0.01-0.094,0.06-0.178,0.156-0.188
				c0.09-0.012,0.18,0.06,0.188,0.156l0.066,0.69c0.01,0.094-0.062,0.178-0.156,0.188C42.86,26.037,42.854,26.037,42.851,26.037
				L42.851,26.037z M0.415,27.473c-0.008,0-0.014,0-0.022-0.002c-0.096-0.012-0.162-0.1-0.15-0.193
				c0.032-0.23,0.068-0.461,0.112-0.695c0.018-0.094,0.11-0.151,0.202-0.137c0.094,0.018,0.154,0.107,0.138,0.203
				c-0.042,0.227-0.078,0.45-0.108,0.672C0.574,27.409,0.5,27.473,0.415,27.473L0.415,27.473z M43.01,28.109
				c-0.09,0-0.166-0.067-0.172-0.159l-0.048-0.69c-0.006-0.097,0.066-0.181,0.16-0.187h0.012c0.09,0,0.166,0.07,0.174,0.16
				l0.048,0.691c0.006,0.097-0.066,0.179-0.162,0.185H43.01z M0.318,29.542c-0.094,0-0.17-0.074-0.172-0.168
				c-0.006-0.185-0.008-0.369-0.008-0.557v-0.145c0.002-0.094,0.08-0.168,0.174-0.168h0.004c0.096,0.002,0.17,0.08,0.168,0.177
				v0.136c0,0.184,0.002,0.366,0.008,0.547c0.002,0.096-0.074,0.176-0.168,0.178H0.318z M43.121,30.179
				c-0.092,0-0.168-0.065-0.172-0.158c-0.01-0.239-0.02-0.464-0.032-0.692c-0.004-0.096,0.068-0.176,0.164-0.18
				c0.104,0.01,0.176,0.068,0.182,0.164c0.012,0.227,0.022,0.454,0.03,0.678c0.004,0.096-0.07,0.184-0.166,0.188
				C43.125,30.179,43.123,30.179,43.121,30.179L43.121,30.179z M0.479,31.609c-0.086,0-0.16-0.062-0.172-0.149
				c-0.03-0.229-0.056-0.461-0.076-0.694c-0.01-0.095,0.06-0.179,0.156-0.188c0.078-0.018,0.178,0.063,0.188,0.156
				c0.02,0.229,0.046,0.456,0.076,0.682c0.012,0.095-0.056,0.183-0.15,0.194C0.492,31.609,0.484,31.609,0.479,31.609L0.479,31.609z
				 M43.174,32.251c-0.092,0-0.17-0.062-0.172-0.157l-0.012-0.692c-0.002-0.094,0.074-0.174,0.17-0.176h0.004
				c0.092,0,0.17,0.076,0.172,0.17l0.012,0.67c0.002,0.094-0.074,0.184-0.17,0.186H43.174z M0.849,33.651
				c-0.078,0-0.148-0.054-0.168-0.132c-0.054-0.226-0.102-0.454-0.148-0.683c-0.02-0.094,0.042-0.186,0.134-0.203
				c0.098-0.018,0.186,0.041,0.206,0.136c0.044,0.224,0.092,0.448,0.144,0.67c0.024,0.093-0.034,0.187-0.128,0.208
				C0.875,33.649,0.862,33.651,0.849,33.651L0.849,33.651z M43.168,33.96H43.16c-0.094-0.004-0.168-0.084-0.164-0.18
				c0.008-0.225,0.014-0.453,0.014-0.683c0-0.097,0.076-0.175,0.172-0.175c0.096,0,0.174,0.078,0.174,0.175
				c0,0.235-0.006,0.468-0.016,0.698C43.336,33.887,43.26,33.96,43.168,33.96L43.168,33.96z M1.426,35.643
				c-0.07,0-0.138-0.044-0.162-0.115c-0.076-0.221-0.15-0.441-0.218-0.664c-0.028-0.091,0.022-0.187,0.114-0.215
				c0.092-0.033,0.188,0.023,0.216,0.114c0.068,0.218,0.14,0.435,0.214,0.649c0.032,0.092-0.016,0.19-0.106,0.221
				C1.464,35.641,1.446,35.643,1.426,35.643L1.426,35.643z M42.937,36.017c-0.01,0-0.022,0-0.032-0.002
				c-0.094-0.019-0.156-0.11-0.138-0.202c0.042-0.223,0.078-0.445,0.108-0.674c0.014-0.096,0.1-0.156,0.196-0.148
				c0.094,0.014,0.16,0.1,0.148,0.196c-0.032,0.231-0.068,0.462-0.112,0.69C43.09,35.96,43.019,36.017,42.937,36.017L42.937,36.017z
				 M2.207,37.561c-0.064,0-0.126-0.036-0.156-0.1c-0.098-0.211-0.194-0.422-0.284-0.637c-0.038-0.088,0.004-0.188,0.092-0.226
				c0.086-0.036,0.188,0.004,0.226,0.092c0.088,0.21,0.182,0.418,0.278,0.624c0.042,0.086,0.004,0.189-0.082,0.23
				C2.256,37.557,2.23,37.561,2.207,37.561L2.207,37.561z M42.404,38.021c-0.02,0-0.04-0.004-0.058-0.01
				c-0.092-0.032-0.138-0.132-0.106-0.222c0.076-0.215,0.146-0.431,0.21-0.648c0.028-0.092,0.12-0.146,0.214-0.118
				c0.092,0.028,0.146,0.124,0.118,0.214c-0.066,0.227-0.138,0.448-0.216,0.668C42.541,37.977,42.475,38.021,42.404,38.021
				L42.404,38.021z M3.178,39.391c-0.058,0-0.116-0.029-0.148-0.084c-0.12-0.2-0.236-0.4-0.348-0.604
				c-0.046-0.084-0.016-0.188,0.068-0.234c0.08-0.047,0.186-0.018,0.234,0.068c0.11,0.199,0.224,0.397,0.342,0.592
				c0.048,0.082,0.022,0.188-0.06,0.238C3.24,39.383,3.208,39.391,3.178,39.391L3.178,39.391z M41.564,39.911
				c-0.028,0-0.058-0.006-0.084-0.02c-0.084-0.046-0.114-0.152-0.068-0.236c0.108-0.197,0.212-0.4,0.31-0.605
				c0.04-0.086,0.146-0.125,0.23-0.082c0.088,0.042,0.124,0.145,0.082,0.23c-0.102,0.211-0.206,0.42-0.32,0.623
				C41.685,39.88,41.625,39.911,41.564,39.911L41.564,39.911z M4.333,41.114c-0.052,0-0.104-0.025-0.138-0.07
				c-0.14-0.187-0.276-0.375-0.408-0.564c-0.054-0.08-0.036-0.188,0.044-0.242c0.078-0.054,0.184-0.035,0.24,0.045
				c0.13,0.188,0.264,0.371,0.4,0.555c0.058,0.076,0.042,0.185-0.034,0.242C4.404,41.103,4.368,41.114,4.333,41.114L4.333,41.114z
				 M40.43,41.647c-0.038,0-0.074-0.012-0.106-0.038c-0.076-0.056-0.09-0.166-0.032-0.241c0.14-0.181,0.274-0.363,0.402-0.551
				c0.054-0.078,0.162-0.1,0.242-0.044c0.078,0.054,0.098,0.162,0.044,0.242c-0.134,0.19-0.272,0.38-0.414,0.563
				C40.532,41.624,40.482,41.647,40.43,41.647L40.43,41.647z M5.658,42.71c-0.048,0-0.094-0.019-0.128-0.057
				c-0.158-0.17-0.312-0.344-0.464-0.52c-0.062-0.072-0.052-0.182,0.02-0.244c0.072-0.063,0.182-0.055,0.244,0.018
				c0.148,0.174,0.3,0.344,0.454,0.512c0.066,0.07,0.06,0.181-0.01,0.244C5.742,42.696,5.7,42.71,5.658,42.71L5.658,42.71z
				 M39.048,43.191c-0.044,0-0.09-0.019-0.124-0.054c-0.066-0.068-0.064-0.178,0.004-0.244c0.164-0.16,0.324-0.322,0.48-0.488
				c0.066-0.07,0.174-0.072,0.244-0.006c0.07,0.064,0.074,0.174,0.008,0.244c-0.16,0.17-0.324,0.336-0.492,0.498
				C39.136,43.174,39.092,43.191,39.048,43.191L39.048,43.191z M7.136,44.163c-0.04,0-0.082-0.014-0.114-0.043
				c-0.174-0.154-0.346-0.313-0.514-0.471c-0.07-0.068-0.072-0.176-0.008-0.246c0.066-0.072,0.176-0.072,0.246-0.006
				c0.166,0.156,0.334,0.313,0.506,0.462c0.072,0.063,0.078,0.175,0.014,0.246C7.232,44.143,7.185,44.163,7.136,44.163L7.136,44.163
				z M37.466,44.532c-0.052,0-0.104-0.025-0.138-0.07c-0.056-0.076-0.04-0.184,0.036-0.242c0.182-0.139,0.362-0.278,0.54-0.42
				c0.072-0.063,0.182-0.051,0.244,0.025c0.058,0.074,0.048,0.182-0.026,0.242c-0.18,0.146-0.364,0.29-0.552,0.43
				C37.541,44.521,37.502,44.532,37.466,44.532L37.466,44.532z M8.758,45.46c-0.034,0-0.07-0.01-0.1-0.032
				c-0.19-0.136-0.376-0.274-0.56-0.418c-0.076-0.058-0.09-0.166-0.032-0.242s0.168-0.09,0.242-0.032
				c0.184,0.143,0.366,0.278,0.552,0.412c0.078,0.055,0.096,0.164,0.04,0.24C8.866,45.435,8.813,45.46,8.758,45.46L8.758,45.46z
				 M35.736,45.673c-0.06,0-0.116-0.029-0.15-0.086c-0.046-0.082-0.02-0.188,0.064-0.235c0.196-0.116,0.392-0.235,0.584-0.358
				c0.08-0.05,0.188-0.025,0.24,0.055c0.05,0.082,0.026,0.188-0.054,0.24c-0.196,0.123-0.396,0.244-0.596,0.361
				C35.796,45.665,35.767,45.673,35.736,45.673L35.736,45.673z M10.502,46.585c-0.028,0-0.058-0.008-0.086-0.021
				c-0.202-0.117-0.402-0.238-0.6-0.359c-0.08-0.051-0.106-0.156-0.054-0.238c0.05-0.084,0.152-0.11,0.238-0.057
				c0.194,0.123,0.39,0.238,0.588,0.353c0.084,0.048,0.112,0.153,0.066,0.235C10.623,46.553,10.563,46.585,10.502,46.585
				L10.502,46.585z M33.895,46.63c-0.066,0-0.128-0.036-0.158-0.1c-0.04-0.089-0.002-0.191,0.086-0.23
				c0.208-0.096,0.416-0.194,0.62-0.297c0.082-0.041,0.188-0.008,0.232,0.078c0.042,0.086,0.008,0.19-0.078,0.232
				c-0.208,0.102-0.418,0.204-0.63,0.301C33.942,46.626,33.918,46.63,33.895,46.63L33.895,46.63z M31.972,47.413
				c-0.07,0-0.136-0.043-0.162-0.113c-0.032-0.088,0.014-0.188,0.104-0.223c0.216-0.078,0.43-0.158,0.642-0.242
				c0.094-0.029,0.19,0.011,0.226,0.099c0.034,0.09-0.01,0.19-0.098,0.224c-0.216,0.084-0.434,0.166-0.652,0.246
				C32.012,47.411,31.992,47.413,31.972,47.413L31.972,47.413z M12.356,47.525c-0.024,0-0.046-0.004-0.07-0.014
				c-0.214-0.097-0.426-0.194-0.634-0.296c-0.086-0.043-0.122-0.146-0.08-0.232s0.144-0.124,0.232-0.08
				c0.204,0.102,0.412,0.198,0.622,0.29c0.088,0.04,0.128,0.142,0.088,0.229C12.486,47.487,12.422,47.525,12.356,47.525
				L12.356,47.525z M29.995,48.044c-0.078,0-0.146-0.051-0.168-0.129c-0.026-0.092,0.03-0.186,0.122-0.211
				c0.22-0.061,0.442-0.127,0.66-0.192c0.092-0.03,0.188,0.024,0.216,0.114c0.028,0.092-0.024,0.189-0.116,0.215
				c-0.22,0.068-0.444,0.135-0.668,0.197C30.024,48.042,30.008,48.044,29.995,48.044L29.995,48.044z M14.296,48.271
				c-0.018,0-0.036-0.002-0.054-0.008c-0.222-0.072-0.444-0.149-0.662-0.229c-0.09-0.033-0.136-0.133-0.102-0.221
				c0.032-0.09,0.13-0.141,0.222-0.104c0.214,0.078,0.43,0.152,0.65,0.226c0.09,0.028,0.14,0.126,0.11,0.216
				C14.437,48.225,14.371,48.271,14.296,48.271L14.296,48.271z M27.977,48.532c-0.08,0-0.152-0.055-0.17-0.137
				c-0.018-0.094,0.04-0.186,0.134-0.204c0.226-0.048,0.45-0.096,0.674-0.147c0.096-0.022,0.186,0.035,0.208,0.129
				c0.02,0.095-0.038,0.187-0.13,0.209c-0.228,0.052-0.454,0.1-0.682,0.146C27.999,48.532,27.988,48.532,27.977,48.532
				L27.977,48.532z M16.298,48.811c-0.012,0-0.024,0-0.036-0.004c-0.228-0.048-0.454-0.102-0.68-0.158
				c-0.092-0.023-0.15-0.117-0.126-0.21c0.022-0.092,0.106-0.147,0.21-0.126c0.222,0.057,0.444,0.107,0.668,0.156
				c0.094,0.02,0.154,0.111,0.132,0.205C16.45,48.755,16.378,48.811,16.298,48.811L16.298,48.811z M25.933,48.889
				c-0.084,0-0.158-0.064-0.17-0.15c-0.014-0.094,0.052-0.182,0.146-0.193c0.228-0.032,0.454-0.068,0.678-0.104
				c0.1-0.01,0.184,0.048,0.2,0.142c0.016,0.095-0.048,0.185-0.142,0.199c-0.23,0.037-0.458,0.073-0.688,0.105
				C25.948,48.889,25.94,48.889,25.933,48.889L25.933,48.889z M23.873,49.126c-0.088,0-0.166-0.068-0.172-0.158
				c-0.008-0.096,0.062-0.178,0.158-0.188c0.228-0.019,0.456-0.041,0.684-0.064c0.114-0.02,0.18,0.06,0.19,0.154
				c0.012,0.094-0.058,0.18-0.152,0.189c-0.23,0.023-0.462,0.046-0.694,0.066H23.873z M18.346,49.143c-0.006,0-0.014,0-0.018,0
				c-0.234-0.025-0.464-0.057-0.694-0.09c-0.094-0.014-0.158-0.102-0.144-0.196c0.014-0.094,0.088-0.168,0.196-0.146
				c0.226,0.031,0.452,0.062,0.678,0.088c0.096,0.01,0.164,0.096,0.154,0.189C18.508,49.077,18.433,49.143,18.346,49.143
				L18.346,49.143z M21.8,49.247c-0.094,0-0.17-0.074-0.174-0.168c-0.002-0.096,0.072-0.176,0.168-0.178
				c0.23-0.008,0.46-0.016,0.69-0.027c0.08-0.01,0.176,0.067,0.18,0.164c0.006,0.096-0.068,0.176-0.164,0.182
				c-0.23,0.012-0.462,0.02-0.694,0.027H21.8z M20.417,49.265L20.417,49.265c-0.234-0.002-0.466-0.009-0.698-0.019
				c-0.094-0.004-0.17-0.086-0.166-0.18c0.004-0.094,0.082-0.166,0.174-0.166h0.008c0.226,0.01,0.456,0.016,0.684,0.018
				c0.096,0,0.172,0.078,0.172,0.175C20.588,49.189,20.512,49.265,20.417,49.265L20.417,49.265z"/>
		</g>
	</g>
	<g id="Fill-61-Clipped" transform="translate(6.539062, 5.681000)">
		<g id="path-7_1_">
		</g>
		<defs>
			<filter id="Adobe_OpacityMaskFilter_3_" filterUnits="userSpaceOnUse" x="0.292" y="0.552" width="38.726" height="38.396">
				<feColorMatrix  type="matrix" values="1 0 0 0 0  0 1 0 0 0  0 0 1 0 0  0 0 0 1 0"/>
			</filter>
		</defs>
		<mask maskUnits="userSpaceOnUse" x="0.292" y="0.552" width="38.726" height="38.396" id="mask-8">
			<g filter="url(#Adobe_OpacityMaskFilter_3_)">
				<path id="path-7" fill="#FFFFFF" d="M22.554,1.652c-3.642,2.112-6.822,3.714-9.626,5.13l0,0
					C4.78,10.888,0.292,13.152,0.292,20.36l0,0l0.002,0.268C0.448,30.9,8.498,38.948,18.62,38.948l0,0
					c10.108,0,20.334-4.488,20.398-14.508l0,0l-0.25-0.002h0.25v-0.146c0-4.614-1.326-10.542-3.382-15.098l0,0
					c-2.512-5.572-5.826-8.642-9.334-8.642l0,0C25.076,0.552,23.814,0.922,22.554,1.652 M0.796,20.62l-0.002-0.26
					c0-6.9,4.13-8.982,12.358-13.134l0,0c2.812-1.416,5.998-3.024,9.652-5.14l0,0c1.182-0.686,2.36-1.034,3.498-1.034l0,0
					c7.578,0,12.216,15.046,12.216,23.24l0,0v0.145c-0.04,6.464-5.276,14.012-19.898,14.012l0,0
					C8.772,38.448,0.944,30.616,0.796,20.62"/>
			</g>
		</mask>

			<linearGradient id="Fill-61_1_" gradientUnits="userSpaceOnUse" x1="-68.8872" y1="430.5358" x2="-67.8872" y2="430.5358" gradientTransform="matrix(38.726 0 0 -38.396 2668.0271 16550.6016)">
			<stop  offset="0" style="stop-color:#DA1B5C"/>
			<stop  offset="1" style="stop-color:#952260"/>
		</linearGradient>
		<path id="Fill-61" mask="url(#mask-8)" fill="url(#Fill-61_1_)" d="M22.554,1.652c-3.642,2.112-6.822,3.714-9.626,5.13l0,0
			C4.78,10.888,0.292,13.152,0.292,20.36l0,0l0.002,0.268C0.448,30.9,8.498,38.948,18.62,38.948l0,0
			c10.108,0,20.334-4.488,20.398-14.508l0,0l-0.25-0.002h0.25v-0.146c0-4.614-1.326-10.542-3.382-15.098l0,0
			c-2.512-5.572-5.826-8.642-9.334-8.642l0,0C25.076,0.552,23.814,0.922,22.554,1.652 M0.796,20.62l-0.002-0.26
			c0-6.9,4.13-8.982,12.358-13.134l0,0c2.812-1.416,5.998-3.024,9.652-5.14l0,0c1.182-0.686,2.36-1.034,3.498-1.034l0,0
			c7.578,0,12.216,15.046,12.216,23.24l0,0v0.145c-0.04,6.464-5.276,14.012-19.898,14.012l0,0
			C8.772,38.448,0.944,30.616,0.796,20.62"/>
	</g>
</g>
<g enable-background="new    ">
	<path fill="#221E1F" d="M66.372,39.604h6.884v1.547h-2.59V48h-1.703v-6.849h-2.591V39.604z"/>
	<path fill="#221E1F" d="M73.776,41.955h1.523v0.6c0.396-0.407,0.912-0.72,1.595-0.72c0.204,0,0.384,0.036,0.528,0.084v1.5
		c-0.192-0.049-0.396-0.084-0.672-0.084c-0.744,0-1.223,0.407-1.451,0.791V48h-1.523V41.955z"/>
	<path fill="#221E1F" d="M78.024,46.369c0-0.912,0.708-1.596,2.003-1.812l1.847-0.312V44.09c0-0.636-0.48-1.043-1.176-1.043
		c-0.587,0-1.043,0.275-1.367,0.72l-1.115-0.852c0.54-0.744,1.427-1.199,2.531-1.199c1.751,0,2.65,1.043,2.65,2.374V48h-1.523
		v-0.588c-0.384,0.468-1.104,0.768-1.811,0.768C78.852,48.18,78.024,47.484,78.024,46.369z M80.375,46.969
		c0.696,0,1.2-0.324,1.5-0.804v-0.852l-1.439,0.24c-0.636,0.107-0.899,0.371-0.899,0.743C79.535,46.705,79.859,46.969,80.375,46.969
		z"/>
	<path fill="#221E1F" d="M84.432,50.998c-0.504,0-0.852-0.06-1.151-0.191v-1.331c0.192,0.084,0.479,0.132,0.899,0.132
		c0.6,0,0.959-0.264,0.959-0.96v-6.692h1.523v6.692C86.663,50.159,85.955,50.998,84.432,50.998z M84.888,39.904
		c0-0.539,0.456-0.995,0.996-0.995c0.527,0,0.983,0.456,0.983,0.995c0,0.54-0.456,0.996-0.983,0.996
		C85.343,40.9,84.888,40.444,84.888,39.904z"/>
	<path fill="#221E1F" d="M91.414,48.24c-2.147,0-3.358-1.5-3.358-3.263c0-1.787,1.127-3.262,3.106-3.262
		c1.679,0,2.783,1.139,2.783,2.722c0,0.336-0.048,0.648-0.096,0.852h-4.233c0.144,1.128,0.839,1.584,1.787,1.584
		c0.66,0,1.235-0.288,1.56-0.72l1.091,0.863C93.488,47.772,92.553,48.24,91.414,48.24z M89.663,44.187h2.782
		c-0.024-0.612-0.468-1.224-1.319-1.224C90.346,42.963,89.831,43.395,89.663,44.187z"/>
	<path fill="#221E1F" d="M99.657,46.105l1.188,0.911c-0.564,0.743-1.451,1.224-2.555,1.224c-2.087,0-3.334-1.5-3.334-3.263
		s1.248-3.262,3.334-3.262c1.104,0,1.991,0.479,2.555,1.223l-1.188,0.912c-0.288-0.42-0.768-0.696-1.391-0.696
		c-0.996,0-1.727,0.768-1.727,1.823c0,1.067,0.731,1.823,1.751,1.823C98.889,46.801,99.369,46.524,99.657,46.105z"/>
	<path fill="#221E1F" d="M102.431,43.322h-1.127v-1.367h1.127v-1.511h1.535v1.511h1.847v1.367h-1.847v2.471
		c0,0.672,0.36,0.936,0.959,0.936c0.419,0,0.695-0.048,0.899-0.132v1.331c-0.3,0.132-0.66,0.192-1.164,0.192
		c-1.511,0-2.23-0.852-2.23-2.327V43.322z"/>
	<path fill="#221E1F" d="M113.251,44.978c0,1.812-1.343,3.263-3.31,3.263s-3.311-1.451-3.311-3.263c0-1.811,1.344-3.262,3.311-3.262
		S113.251,43.167,113.251,44.978z M111.668,44.978c0-1.056-0.732-1.823-1.703-1.823c-1.007,0-1.751,0.768-1.751,1.823
		s0.744,1.823,1.751,1.823C110.937,46.801,111.668,46.021,111.668,44.978z"/>
	<path fill="#221E1F" d="M114.419,39.904c0-0.539,0.456-0.995,0.996-0.995c0.54,0,0.983,0.456,0.983,0.995
		c0,0.54-0.444,0.996-0.983,0.996C114.875,40.9,114.419,40.444,114.419,39.904z M114.647,41.955h1.523V48h-1.523V41.955z"/>
	<path fill="#221E1F" d="M117.995,41.955h1.523v0.6c0.396-0.407,0.912-0.72,1.595-0.72c0.204,0,0.384,0.036,0.528,0.084v1.5
		c-0.192-0.049-0.396-0.084-0.672-0.084c-0.744,0-1.223,0.407-1.451,0.791V48h-1.523V41.955z"/>
	<path fill="#221E1F" d="M125.541,48.24c-2.147,0-3.358-1.5-3.358-3.263c0-1.787,1.127-3.262,3.106-3.262
		c1.679,0,2.783,1.139,2.783,2.722c0,0.336-0.048,0.648-0.096,0.852h-4.233c0.144,1.128,0.839,1.584,1.787,1.584
		c0.66,0,1.235-0.288,1.56-0.72l1.091,0.863C127.616,47.772,126.68,48.24,125.541,48.24z M123.79,44.187h2.782
		c-0.024-0.612-0.468-1.224-1.319-1.224C124.474,42.963,123.958,43.395,123.79,44.187z"/>
	<path fill="#221E1F" d="M129.958,46.213c0.372,0.468,0.816,0.804,1.391,0.804c0.492,0,0.744-0.288,0.744-0.647
		c0-1.056-2.89-0.66-2.89-2.783c0-1.067,0.899-1.87,2.159-1.87c0.923,0,1.763,0.443,2.195,1.031l-1.007,0.888
		c-0.312-0.384-0.708-0.696-1.175-0.696c-0.48,0-0.708,0.265-0.708,0.576c0,1.031,2.891,0.672,2.891,2.759
		c-0.024,1.271-1.043,1.967-2.183,1.967c-1.08,0-1.847-0.432-2.423-1.116L129.958,46.213z"/>
	<path fill="#221E1F" d="M140.841,41.716c0.816,0,1.403,0.252,1.871,0.72v-3.431h1.535V48h-1.535v-0.479
		c-0.468,0.468-1.055,0.72-1.871,0.72c-1.907,0-3.07-1.5-3.07-3.263S138.934,41.716,140.841,41.716z M141.057,46.801
		c0.684,0,1.247-0.288,1.655-0.84v-1.967c-0.408-0.552-0.971-0.84-1.655-0.84c-1.032,0-1.691,0.768-1.691,1.823
		S140.025,46.801,141.057,46.801z"/>
	<path fill="#221E1F" d="M145.475,43.059l1.08-3.454h1.727l-1.392,3.454H145.475z"/>
	<path fill="#221E1F" d="M150.897,39.604h2.23L156.306,48h-1.811l-0.803-2.183h-3.358L149.53,48h-1.811L150.897,39.604z
		 M153.164,44.366l-1.151-3.154l-1.151,3.154H153.164z"/>
	<path fill="#221E1F" d="M160.161,41.716c0.815,0,1.403,0.252,1.871,0.72v-3.431h1.535V48h-1.535v-0.479
		c-0.468,0.468-1.055,0.72-1.871,0.72c-1.907,0-3.07-1.5-3.07-3.263S158.254,41.716,160.161,41.716z M160.377,46.801
		c0.684,0,1.247-0.288,1.655-0.84v-1.967c-0.408-0.552-0.971-0.84-1.655-0.84c-1.032,0-1.691,0.768-1.691,1.823
		S159.345,46.801,160.377,46.801z"/>
	<path fill="#221E1F" d="M165.058,46.369c0-0.912,0.708-1.596,2.003-1.812l1.847-0.312V44.09c0-0.636-0.48-1.043-1.176-1.043
		c-0.587,0-1.043,0.275-1.367,0.72l-1.115-0.852c0.54-0.744,1.427-1.199,2.531-1.199c1.751,0,2.65,1.043,2.65,2.374V48h-1.523
		v-0.588c-0.384,0.468-1.104,0.768-1.811,0.768C165.886,48.18,165.058,47.484,165.058,46.369z M167.409,46.969
		c0.696,0,1.2-0.324,1.5-0.804v-0.852l-1.439,0.24c-0.636,0.107-0.899,0.371-0.899,0.743
		C166.569,46.705,166.893,46.969,167.409,46.969z"/>
	<path fill="#221E1F" d="M172.174,41.955h1.523v0.492c0.468-0.468,1.056-0.731,1.883-0.731c1.919,0,3.07,1.499,3.07,3.262
		s-1.151,3.263-3.07,3.263c-0.828,0-1.416-0.265-1.883-0.732v3.442h-1.523V41.955z M173.697,44.03v1.895
		c0.408,0.576,0.972,0.876,1.667,0.876c1.032,0,1.703-0.768,1.703-1.823s-0.671-1.823-1.703-1.823
		C174.656,43.154,174.081,43.467,173.697,44.03z"/>
	<path fill="#221E1F" d="M180.358,43.322h-1.127v-1.367h1.127v-1.511h1.535v1.511h1.847v1.367h-1.847v2.471
		c0,0.672,0.36,0.936,0.959,0.936c0.419,0,0.695-0.048,0.899-0.132v1.331c-0.3,0.132-0.66,0.192-1.164,0.192
		c-1.511,0-2.23-0.852-2.23-2.327V43.322z"/>
	<path fill="#221E1F" d="M184.774,46.369c0-0.912,0.708-1.596,2.003-1.812l1.847-0.312V44.09c0-0.636-0.48-1.043-1.176-1.043
		c-0.587,0-1.043,0.275-1.367,0.72l-1.115-0.852c0.54-0.744,1.427-1.199,2.531-1.199c1.751,0,2.65,1.043,2.65,2.374V48h-1.523
		v-0.588c-0.384,0.468-1.104,0.768-1.811,0.768C185.602,48.18,184.774,47.484,184.774,46.369z M187.125,46.969
		c0.696,0,1.2-0.324,1.5-0.804v-0.852l-1.439,0.24c-0.636,0.107-0.899,0.371-0.899,0.743
		C186.285,46.705,186.609,46.969,187.125,46.969z"/>
	<path fill="#221E1F" d="M192.273,43.322h-1.127v-1.367h1.127v-1.511h1.535v1.511h1.847v1.367h-1.847v2.471
		c0,0.672,0.36,0.936,0.959,0.936c0.419,0,0.695-0.048,0.899-0.132v1.331c-0.3,0.132-0.66,0.192-1.164,0.192
		c-1.511,0-2.23-0.852-2.23-2.327V43.322z"/>
	<path fill="#221E1F" d="M196.798,39.904c0-0.539,0.456-0.995,0.996-0.995c0.54,0,0.983,0.456,0.983,0.995
		c0,0.54-0.444,0.996-0.983,0.996C197.253,40.9,196.798,40.444,196.798,39.904z M197.026,41.955h1.523V48h-1.523V41.955z"/>
	<path fill="#221E1F" d="M206.562,44.978c0,1.812-1.343,3.263-3.31,3.263s-3.311-1.451-3.311-3.263c0-1.811,1.344-3.262,3.311-3.262
		S206.562,43.167,206.562,44.978z M204.979,44.978c0-1.056-0.732-1.823-1.703-1.823c-1.007,0-1.751,0.768-1.751,1.823
		s0.744,1.823,1.751,1.823C204.247,46.801,204.979,46.021,204.979,44.978z"/>
	<path fill="#221E1F" d="M207.958,41.955h1.523v0.48c0.42-0.408,0.983-0.72,1.787-0.72c1.307,0,2.351,0.899,2.351,2.687V48h-1.535
		v-3.538c0-0.804-0.456-1.308-1.199-1.308c-0.768,0-1.175,0.516-1.403,0.899V48h-1.523V41.955z"/>
	<path fill="#221E1F" d="M218.253,46.369c0-0.912,0.708-1.596,2.003-1.812l1.847-0.312V44.09c0-0.636-0.48-1.043-1.176-1.043
		c-0.587,0-1.043,0.275-1.367,0.72l-1.115-0.852c0.54-0.744,1.427-1.199,2.531-1.199c1.751,0,2.65,1.043,2.65,2.374V48h-1.523
		v-0.588c-0.384,0.468-1.104,0.768-1.811,0.768C219.081,48.18,218.253,47.484,218.253,46.369z M220.604,46.969
		c0.696,0,1.2-0.324,1.5-0.804v-0.852l-1.439,0.24c-0.636,0.107-0.899,0.371-0.899,0.743
		C219.765,46.705,220.088,46.969,220.604,46.969z"/>
	<path fill="#221E1F" d="M229.351,41.955h1.535v3.358c0,1.811-1.055,2.927-2.83,2.927c-1.775,0-2.818-1.116-2.818-2.927v-3.358
		h1.535v3.431c0,0.875,0.456,1.415,1.295,1.415c0.828,0,1.283-0.54,1.283-1.415V41.955z"/>
	<path fill="#221E1F" d="M242.081,45.493l1.343,1.031c-0.768,1.044-2.014,1.716-3.537,1.716c-2.65,0-4.462-2.039-4.462-4.438
		c0-2.399,1.812-4.438,4.462-4.438c1.523,0,2.77,0.684,3.537,1.702l-1.343,1.044c-0.479-0.684-1.235-1.151-2.194-1.151
		c-1.584,0-2.711,1.235-2.711,2.843c0,1.606,1.127,2.842,2.711,2.842C240.846,46.645,241.602,46.177,242.081,45.493z"/>
	<path fill="#221E1F" d="M244.701,39.005h1.522v3.431c0.42-0.408,0.983-0.72,1.787-0.72c1.308,0,2.351,0.899,2.351,2.687V48h-1.535
		v-3.538c0-0.804-0.443-1.308-1.199-1.308c-0.768,0-1.176,0.516-1.403,0.899V48h-1.522V39.005z"/>
	<path fill="#221E1F" d="M251.757,46.369c0-0.912,0.708-1.596,2.003-1.812l1.848-0.312V44.09c0-0.636-0.48-1.043-1.176-1.043
		c-0.588,0-1.044,0.275-1.367,0.72l-1.115-0.852c0.539-0.744,1.427-1.199,2.53-1.199c1.751,0,2.65,1.043,2.65,2.374V48h-1.522
		v-0.588c-0.385,0.468-1.104,0.768-1.812,0.768C252.584,48.18,251.757,47.484,251.757,46.369z M254.107,46.969
		c0.695,0,1.199-0.324,1.5-0.804v-0.852l-1.439,0.24c-0.637,0.107-0.9,0.371-0.9,0.743
		C253.268,46.705,253.592,46.969,254.107,46.969z"/>
	<path fill="#221E1F" d="M258.873,41.955h1.522v0.48c0.42-0.408,0.983-0.72,1.787-0.72c1.308,0,2.351,0.899,2.351,2.687V48h-1.535
		v-3.538c0-0.804-0.455-1.308-1.199-1.308c-0.768,0-1.176,0.516-1.403,0.899V48h-1.522V41.955z"/>
	<path fill="#221E1F" d="M266.504,47.58c-0.239-0.239-0.371-0.563-0.371-0.875c0-0.48,0.203-0.864,0.659-1.199
		c-0.527-0.396-0.815-0.996-0.815-1.668c0-1.175,0.912-2.122,2.423-2.122c0.468,0,0.876,0.084,1.224,0.239h2.207v1.296h-1.068
		c0.061,0.191,0.084,0.384,0.084,0.587c0,1.188-0.887,2.147-2.446,2.147c-0.204,0-0.396-0.013-0.575-0.048
		c-0.133,0.119-0.205,0.252-0.205,0.384c0,0.239,0.133,0.359,0.408,0.359h1.523c1.523,0,2.351,0.815,2.351,1.943
		c0,1.343-1.283,2.374-3.166,2.374c-1.931,0-3.07-0.671-3.07-1.942C265.665,48.456,265.965,47.976,266.504,47.58z M268.723,49.775
		c1.104,0,1.668-0.408,1.668-1.008c0-0.456-0.276-0.779-1.008-0.779h-1.871c-0.228,0.216-0.408,0.479-0.408,0.852
		C267.104,49.415,267.656,49.775,268.723,49.775z M269.467,43.838c0-0.6-0.408-0.983-1.043-0.983c-0.66,0-1.056,0.396-1.056,0.983
		c0,0.6,0.396,0.996,1.056,0.996C269.059,44.834,269.467,44.438,269.467,43.838z"/>
	<path fill="#221E1F" d="M275.6,48.24c-2.147,0-3.358-1.5-3.358-3.263c0-1.787,1.127-3.262,3.106-3.262
		c1.679,0,2.782,1.139,2.782,2.722c0,0.336-0.048,0.648-0.097,0.852h-4.232c0.143,1.128,0.839,1.584,1.786,1.584
		c0.659,0,1.235-0.288,1.56-0.72l1.092,0.863C277.674,47.772,276.738,48.24,275.6,48.24z M273.848,44.187h2.783
		c-0.024-0.612-0.469-1.224-1.319-1.224C274.531,42.963,274.016,43.395,273.848,44.187z"/>
	<path fill="#221E1F" d="M279.621,41.955h1.522v0.456c0.407-0.396,0.924-0.695,1.667-0.695c0.768,0,1.439,0.335,1.835,0.983
		c0.433-0.528,1.008-0.983,2.027-0.983c1.247,0,2.23,0.863,2.23,2.566V48h-1.535v-3.658c0-0.731-0.396-1.188-1.079-1.188
		c-0.66,0-1.02,0.456-1.26,0.864c0.012,0.084,0.012,0.168,0.012,0.264V48h-1.535v-3.658c0-0.731-0.396-1.188-1.079-1.188
		c-0.695,0-1.056,0.516-1.283,0.899V48h-1.522V41.955z"/>
	<path fill="#221E1F" d="M293.574,48.24c-2.146,0-3.357-1.5-3.357-3.263c0-1.787,1.127-3.262,3.105-3.262
		c1.68,0,2.783,1.139,2.783,2.722c0,0.336-0.049,0.648-0.096,0.852h-4.234c0.145,1.128,0.84,1.584,1.787,1.584
		c0.66,0,1.235-0.288,1.56-0.72l1.091,0.863C295.649,47.772,294.714,48.24,293.574,48.24z M291.824,44.187h2.781
		c-0.023-0.612-0.467-1.224-1.318-1.224C292.508,42.963,291.992,43.395,291.824,44.187z"/>
	<path fill="#221E1F" d="M297.597,41.955h1.522v0.48c0.42-0.408,0.984-0.72,1.787-0.72c1.308,0,2.352,0.899,2.352,2.687V48h-1.535
		v-3.538c0-0.804-0.456-1.308-1.199-1.308c-0.768,0-1.176,0.516-1.404,0.899V48h-1.522V41.955z"/>
	<path fill="#221E1F" d="M305.372,43.322h-1.128v-1.367h1.128v-1.511h1.535v1.511h1.847v1.367h-1.847v2.471
		c0,0.672,0.36,0.936,0.96,0.936c0.419,0,0.695-0.048,0.898-0.132v1.331c-0.299,0.132-0.659,0.192-1.163,0.192
		c-1.511,0-2.23-0.852-2.23-2.327V43.322z"/>
	<path fill="#221E1F" d="M319.625,45.493l1.343,1.031c-0.768,1.044-2.015,1.716-3.538,1.716c-2.65,0-4.461-2.039-4.461-4.438
		c0-2.399,1.811-4.438,4.461-4.438c1.523,0,2.771,0.684,3.538,1.702l-1.343,1.044c-0.48-0.684-1.236-1.151-2.195-1.151
		c-1.583,0-2.711,1.235-2.711,2.843c0,1.606,1.128,2.842,2.711,2.842C318.389,46.645,319.145,46.177,319.625,45.493z"/>
	<path fill="#221E1F" d="M322.244,39.005h1.523V48h-1.523V39.005z"/>
	<path fill="#221E1F" d="M325.364,39.904c0-0.539,0.456-0.995,0.995-0.995c0.54,0,0.984,0.456,0.984,0.995
		c0,0.54-0.444,0.996-0.984,0.996C325.82,40.9,325.364,40.444,325.364,39.904z M325.592,41.955h1.523V48h-1.523V41.955z"/>
	<path fill="#221E1F" d="M328.939,41.955h1.523v0.456c0.408-0.396,0.924-0.695,1.667-0.695c0.768,0,1.439,0.335,1.835,0.983
		c0.432-0.528,1.008-0.983,2.027-0.983c1.247,0,2.23,0.863,2.23,2.566V48h-1.535v-3.658c0-0.731-0.396-1.188-1.079-1.188
		c-0.659,0-1.02,0.456-1.26,0.864c0.013,0.084,0.013,0.168,0.013,0.264V48h-1.535v-3.658c0-0.731-0.396-1.188-1.08-1.188
		c-0.695,0-1.055,0.516-1.283,0.899V48h-1.523V41.955z"/>
	<path fill="#221E1F" d="M339.632,46.369c0-0.912,0.708-1.596,2.003-1.812l1.848-0.312V44.09c0-0.636-0.48-1.043-1.176-1.043
		c-0.588,0-1.044,0.275-1.367,0.72l-1.115-0.852c0.539-0.744,1.427-1.199,2.53-1.199c1.751,0,2.65,1.043,2.65,2.374V48h-1.522
		v-0.588c-0.385,0.468-1.104,0.768-1.812,0.768C340.459,48.18,339.632,47.484,339.632,46.369z M341.982,46.969
		c0.695,0,1.199-0.324,1.5-0.804v-0.852l-1.439,0.24c-0.637,0.107-0.9,0.371-0.9,0.743
		C341.143,46.705,341.467,46.969,341.982,46.969z"/>
	<path fill="#221E1F" d="M347.131,43.322h-1.127v-1.367h1.127v-1.511h1.535v1.511h1.848v1.367h-1.848v2.471
		c0,0.672,0.36,0.936,0.96,0.936c0.419,0,0.695-0.048,0.899-0.132v1.331c-0.3,0.132-0.66,0.192-1.164,0.192
		c-1.511,0-2.23-0.852-2.23-2.327V43.322z"/>
	<path fill="#221E1F" d="M351.656,39.904c0-0.539,0.455-0.995,0.995-0.995s0.983,0.456,0.983,0.995c0,0.54-0.443,0.996-0.983,0.996
		S351.656,40.444,351.656,39.904z M351.884,41.955h1.522V48h-1.522V41.955z"/>
	<path fill="#221E1F" d="M357.87,41.716c0.815,0,1.403,0.264,1.87,0.731v-0.492h1.535v8.995h-1.535v-3.442
		c-0.467,0.468-1.055,0.732-1.87,0.732c-1.919,0-3.07-1.5-3.07-3.263S355.951,41.716,357.87,41.716z M358.074,46.801
		c0.707,0,1.295-0.312,1.666-0.863v-1.919c-0.407-0.564-0.982-0.864-1.666-0.864c-1.031,0-1.691,0.768-1.691,1.823
		S357.043,46.801,358.074,46.801z"/>
	<path fill="#221E1F" d="M367.085,41.955h1.535v3.358c0,1.811-1.056,2.927-2.83,2.927c-1.775,0-2.818-1.116-2.818-2.927v-3.358
		h1.535v3.431c0,0.875,0.455,1.415,1.295,1.415c0.828,0,1.283-0.54,1.283-1.415V41.955z"/>
	<path fill="#221E1F" d="M373.241,48.24c-2.146,0-3.358-1.5-3.358-3.263c0-1.787,1.128-3.262,3.106-3.262
		c1.679,0,2.782,1.139,2.782,2.722c0,0.336-0.048,0.648-0.096,0.852h-4.233c0.144,1.128,0.839,1.584,1.787,1.584
		c0.659,0,1.235-0.288,1.559-0.72l1.092,0.863C375.316,47.772,374.381,48.24,373.241,48.24z M371.49,44.187h2.782
		c-0.023-0.612-0.468-1.224-1.319-1.224C372.174,42.963,371.658,43.395,371.49,44.187z"/>
	<path fill="#221E1F" d="M383.142,41.716c0.815,0,1.403,0.252,1.871,0.72v-3.431h1.535V48h-1.535v-0.479
		c-0.468,0.468-1.056,0.72-1.871,0.72c-1.906,0-3.07-1.5-3.07-3.263S381.235,41.716,383.142,41.716z M383.357,46.801
		c0.684,0,1.248-0.288,1.655-0.84v-1.967c-0.407-0.552-0.972-0.84-1.655-0.84c-1.031,0-1.69,0.768-1.69,1.823
		S382.326,46.801,383.357,46.801z"/>
	<path fill="#221E1F" d="M391.302,48.24c-2.146,0-3.358-1.5-3.358-3.263c0-1.787,1.128-3.262,3.106-3.262
		c1.679,0,2.782,1.139,2.782,2.722c0,0.336-0.048,0.648-0.096,0.852h-4.233c0.144,1.128,0.839,1.584,1.787,1.584
		c0.659,0,1.235-0.288,1.559-0.72l1.092,0.863C393.377,47.772,392.441,48.24,391.302,48.24z M389.551,44.187h2.782
		c-0.023-0.612-0.468-1.224-1.319-1.224C390.234,42.963,389.719,43.395,389.551,44.187z"/>
	<path fill="#221E1F" d="M395.719,46.213c0.371,0.468,0.815,0.804,1.391,0.804c0.492,0,0.744-0.288,0.744-0.647
		c0-1.056-2.891-0.66-2.891-2.783c0-1.067,0.899-1.87,2.159-1.87c0.923,0,1.763,0.443,2.194,1.031l-1.008,0.888
		c-0.312-0.384-0.707-0.696-1.175-0.696c-0.479,0-0.708,0.265-0.708,0.576c0,1.031,2.891,0.672,2.891,2.759
		c-0.024,1.271-1.043,1.967-2.183,1.967c-1.079,0-1.847-0.432-2.423-1.116L395.719,46.213z"/>
	<path fill="#221E1F" d="M403.423,39.604h6.884v1.547h-2.591V48h-1.703v-6.849h-2.59V39.604z"/>
	<path fill="#221E1F" d="M413.669,48.24c-2.146,0-3.358-1.5-3.358-3.263c0-1.787,1.128-3.262,3.106-3.262
		c1.679,0,2.782,1.139,2.782,2.722c0,0.336-0.048,0.648-0.096,0.852h-4.233c0.144,1.128,0.839,1.584,1.787,1.584
		c0.659,0,1.235-0.288,1.559-0.72l1.092,0.863C415.744,47.772,414.809,48.24,413.669,48.24z M411.918,44.187h2.782
		c-0.023-0.612-0.468-1.224-1.319-1.224C412.602,42.963,412.086,43.395,411.918,44.187z"/>
	<path fill="#221E1F" d="M417.69,41.955h1.523v0.6c0.396-0.407,0.911-0.72,1.595-0.72c0.204,0,0.385,0.036,0.528,0.084v1.5
		c-0.192-0.049-0.396-0.084-0.672-0.084c-0.743,0-1.224,0.407-1.451,0.791V48h-1.523V41.955z"/>
	<path fill="#221E1F" d="M422.563,41.955h1.523v0.6c0.396-0.407,0.911-0.72,1.596-0.72c0.203,0,0.383,0.036,0.527,0.084v1.5
		c-0.192-0.049-0.396-0.084-0.672-0.084c-0.743,0-1.224,0.407-1.451,0.791V48h-1.523V41.955z"/>
	<path fill="#221E1F" d="M427.207,39.904c0-0.539,0.456-0.995,0.995-0.995c0.54,0,0.983,0.456,0.983,0.995
		c0,0.54-0.443,0.996-0.983,0.996C427.663,40.9,427.207,40.444,427.207,39.904z M427.435,41.955h1.523V48h-1.523V41.955z"/>
	<path fill="#221E1F" d="M431.166,43.322h-1.127v-1.367h1.127v-1.511h1.535v1.511h1.848v1.367h-1.848v2.471
		c0,0.672,0.36,0.936,0.96,0.936c0.42,0,0.695-0.048,0.899-0.132v1.331c-0.3,0.132-0.66,0.192-1.163,0.192
		c-1.512,0-2.231-0.852-2.231-2.327V43.322z"/>
	<path fill="#221E1F" d="M441.986,44.978c0,1.812-1.343,3.263-3.31,3.263s-3.311-1.451-3.311-3.263c0-1.811,1.344-3.262,3.311-3.262
		S441.986,43.167,441.986,44.978z M440.403,44.978c0-1.056-0.731-1.823-1.703-1.823c-1.007,0-1.751,0.768-1.751,1.823
		s0.744,1.823,1.751,1.823C439.672,46.801,440.403,46.021,440.403,44.978z"/>
	<path fill="#221E1F" d="M443.154,39.904c0-0.539,0.456-0.995,0.995-0.995c0.54,0,0.983,0.456,0.983,0.995
		c0,0.54-0.443,0.996-0.983,0.996C443.61,40.9,443.154,40.444,443.154,39.904z M443.382,41.955h1.523V48h-1.523V41.955z"/>
	<path fill="#221E1F" d="M446.729,41.955h1.523v0.6c0.396-0.407,0.911-0.72,1.595-0.72c0.204,0,0.385,0.036,0.528,0.084v1.5
		c-0.192-0.049-0.396-0.084-0.672-0.084c-0.743,0-1.224,0.407-1.451,0.791V48h-1.523V41.955z"/>
	<path fill="#221E1F" d="M454.276,48.24c-2.146,0-3.358-1.5-3.358-3.263c0-1.787,1.128-3.262,3.106-3.262
		c1.679,0,2.782,1.139,2.782,2.722c0,0.336-0.048,0.648-0.096,0.852h-4.233c0.144,1.128,0.839,1.584,1.787,1.584
		c0.659,0,1.235-0.288,1.559-0.72l1.092,0.863C456.352,47.772,455.416,48.24,454.276,48.24z M452.525,44.187h2.782
		c-0.023-0.612-0.468-1.224-1.319-1.224C453.209,42.963,452.693,43.395,452.525,44.187z"/>
	<path fill="#221E1F" d="M458.694,46.213c0.371,0.468,0.815,0.804,1.391,0.804c0.492,0,0.744-0.288,0.744-0.647
		c0-1.056-2.891-0.66-2.891-2.783c0-1.067,0.899-1.87,2.159-1.87c0.923,0,1.763,0.443,2.194,1.031l-1.008,0.888
		c-0.312-0.384-0.707-0.696-1.175-0.696c-0.479,0-0.708,0.265-0.708,0.576c0,1.031,2.891,0.672,2.891,2.759
		c-0.024,1.271-1.043,1.967-2.183,1.967c-1.08,0-1.848-0.432-2.423-1.116L458.694,46.213z"/>
</g>
</svg>
