<?xml version="1.0" encoding="UTF-8"?>
<svg width="272px" height="272px" viewBox="0 0 272 272" version="1.1" xmlns="http://www.w3.org/2000/svg" xmlns:xlink="http://www.w3.org/1999/xlink">
    <title>A78871F9-A286-439C-80F5-130F6917F17B</title>
    <defs>
        <filter id="filter-1">
            <feColorMatrix in="SourceGraphic" type="matrix" values="0 0 0 0 0.450980 0 0 0 0 0.450980 0 0 0 0 0.450980 0 0 0 1.000000 0"></feColorMatrix>
        </filter>
        <filter id="filter-2">
            <feColorMatrix in="SourceGraphic" type="matrix" values="0 0 0 0 0.450980 0 0 0 0 0.450980 0 0 0 0 0.450980 0 0 0 1.000000 0"></feColorMatrix>
        </filter>
        <filter id="filter-3">
            <feColorMatrix in="SourceGraphic" type="matrix" values="0 0 0 0 0.450980 0 0 0 0 0.450980 0 0 0 0 0.450980 0 0 0 1.000000 0"></feColorMatrix>
        </filter>
        <filter id="filter-4">
            <feColorMatrix in="SourceGraphic" type="matrix" values="0 0 0 0 0.450980 0 0 0 0 0.450980 0 0 0 0 0.450980 0 0 0 1.000000 0"></feColorMatrix>
        </filter>
        <filter id="filter-5">
            <feColorMatrix in="SourceGraphic" type="matrix" values="0 0 0 0 0.450980 0 0 0 0 0.450980 0 0 0 0 0.450980 0 0 0 1.000000 0"></feColorMatrix>
        </filter>
        <filter id="filter-6">
            <feColorMatrix in="SourceGraphic" type="matrix" values="0 0 0 0 0.450980 0 0 0 0 0.450980 0 0 0 0 0.450980 0 0 0 1.000000 0"></feColorMatrix>
        </filter>
    </defs>
    <g id="TACCT-Page-publique" stroke="none" stroke-width="1" fill="none" fill-rule="evenodd">
        <g id="TACCT-Homepage2" transform="translate(-920.000000, -2640.000000)">
            <g id="schema_sensibilite" transform="translate(920.000000, 2640.000000)">
                <circle id="Oval" fill="#F0F0F0" cx="136" cy="130" r="82"></circle>
                <rect id="Rectangle" x="0" y="0" width="272" height="272"></rect>
                <g id="Group-13" transform="translate(32.000000, 18.000000)">
                    <g id="Group-5" transform="translate(23.618557, 35.938144)">
                        <path d="M78.6340206,0.576284077 L146.23308,39.3155205 L146.23308,116.787572 L78.6340206,155.526809 L11.0349612,116.787572 L11.0349612,39.3155205 L78.6340206,0.576284077 Z" id="Polygon" stroke="#E0E0E0"></path>
                        <path d="M79.1446311,52.6115818 L101.196917,65.3317633 L101.196917,90.7713295 L79.1446311,103.491511 L57.0923452,90.7713295 L57.0923452,65.3317633 L79.1446311,52.6115818 Z" id="Polygon-Copy" stroke="#E0E0E0"></path>
                        <path d="M79.1446311,27.1031465 L124.191405,52.8347192 L124.191405,104.288655 L79.1446311,130.020228 L34.0978576,104.288655 L34.0978576,52.8347192 L79.1446311,27.1031465 Z" id="Polygon-Copy-2" stroke="#E0E0E0"></path>
                        <line x1="79.1446311" y1="1.34512897e-16" x2="79.1446311" y2="155.082811" id="Line" stroke="#E0E0E0" stroke-linecap="square"></line>
                        <line x1="11.6259818" y1="39.159622" x2="146.66328" y2="116.943471" id="Line-Copy" stroke="#E0E0E0" stroke-linecap="square"></line>
                        <line x1="11.6259818" y1="39.159622" x2="146.66328" y2="116.943471" id="Line-Copy-3" stroke="#E0E0E0" stroke-linecap="square" transform="translate(79.144631, 78.051546) scale(1, -1) translate(-79.144631, -78.051546) "></line>
                        <polygon id="Path-7-Copy" stroke="#F08700" fill-opacity="0.2" fill="#F08700" points="27.5729683 49.1509596 57.4006324 90.6830768 78.986442 143.859713 110.776452 98.0579388 127.652631 50.3154115 78.5939727 1.02028165"></polygon>
                        <polygon id="Path-7" stroke="#24A399" fill-opacity="0.195039336" fill="#27B1A6" points="38.8063998 55.1428488 67.5951074 85.4892805 79.6552417 106.109292 111.556242 97.9390987 120.504084 55.1428488 79.6552417 6.12168991"></polygon>
                    </g>
                    <g id="Group-12">
                        <g filter="url(#filter-1)" id="icon/statut">
                            <g transform="translate(95.021429, 0.983030)">
                                <path d="M6.8,0 C8.21099846,0 9.47979981,2.42192954 10.3580412,5.08733952 L10.5133625,5.57415754 C10.5636648,5.73700125 10.6124773,5.90025433 10.6597446,6.06343184 L10.796856,6.55225272 L10.9243647,7.03771048 L11.0419391,7.51689544 C11.0606886,7.59607522 11.0790103,7.67487239 11.0968973,7.75322634 L11.1989483,8.21754642 L11.2201878,8.32215342 C11.5931263,8.11717556 11.9893361,8 12.4,8 C14.609139,8 16.4,11.390861 16.4,13.6 C16.4,15.5353112 15.0255865,17.1496109 13.19959,17.5200687 L13.199,20 L18.8,20 C19.2418278,20 19.6,20.3581722 19.6,20.8 C19.6,21.2102687 19.2911678,21.5484057 18.8932969,21.5946178 L18.8,21.6 L1.2,21.6 C0.7581722,21.6 0.4,21.2418278 0.4,20.8 C0.4,20.3897313 0.708832152,20.0515943 1.1067031,20.0053822 L1.2,20 L5.999,20 L5.99968773,15.9335808 C3.7296707,15.5525897 2,13.578288 2,11.2 C2,11.0289699 2.00894499,10.8333901 2.02639265,10.6171401 L2.05888587,10.2777476 C2.07180576,10.1597725 2.08679603,10.0371148 2.10380138,9.91025956 L2.16080745,9.51758574 L2.22957234,9.10263581 L2.30976433,8.66831948 L2.40105168,8.21754642 L2.50310266,7.75322634 L2.61558555,7.27826892 L2.73816861,6.79558384 C2.75942237,6.71465401 2.78108315,6.63352343 2.80314404,6.55225272 L2.94025536,6.06343184 C2.9875227,5.90025433 3.03633518,5.73700125 3.08663752,5.57415754 L3.24195879,5.08733952 C4.12020019,2.42192954 5.38900154,0 6.8,0 Z M8.89086437,15.5214477 L8.80692247,15.5615824 C8.4283901,15.7360474 8.02327267,15.8626846 7.59931632,15.9337479 L7.599,20 L11.6,20 L11.60041,17.5200687 C10.4314559,17.2829115 9.44757038,16.5360009 8.89086437,15.5214477 Z M12.4,9.6 C12.1323882,9.6 11.8236264,9.78167785 11.518553,10.0816549 L11.4961986,9.91025956 C11.513204,10.0371148 11.5281942,10.1597725 11.5411141,10.2777476 L11.5736073,10.6171401 C11.5823312,10.7252651 11.5889293,10.8282225 11.5933465,10.9255275 L11.6,11.2 C11.6,12.5176072 11.0691076,13.7112179 10.2095619,14.578593 C10.5818862,15.4158915 11.4227302,16 12.4,16 C13.7254834,16 14.8,14.9254834 14.8,13.6 C14.8,11.8605986 13.3439868,9.6 12.4,9.6 Z M6.8,1.6 C6.5949338,1.6 6.31262793,1.95480544 5.99999474,2.53741806 L5.85371991,2.82202941 C5.82903881,2.87200643 5.80422096,2.92321581 5.77928772,2.97559975 L5.62847439,3.3035356 L5.47591657,3.65688613 L5.32263921,4.03287669 L5.24605099,4.22849489 L5.24605099,4.22849489 L5.09361606,4.63324301 L4.94302394,5.05369452 C4.91813576,5.12492424 4.89336707,5.19669266 4.86873922,5.26894197 L4.72283306,5.70774608 L4.58133206,6.15531695 L4.44526114,6.60887992 L4.31564526,7.06566034 C4.29463747,7.14190438 4.27394135,7.21816687 4.25357825,7.29439001 L4.13556668,7.75079412 C4.11662106,7.82662861 4.09805117,7.90230813 4.07987835,7.97777489 L3.97577721,8.42755971 L3.88223085,8.86946336 C3.8675763,8.94230306 3.85340424,9.01469877 3.83973602,9.08659267 L3.76394361,9.51147209 C3.65983663,10.1383715 3.6,10.7152608 3.6,11.2 C3.6,12.9673112 5.0326888,14.4 6.8,14.4 C8.5673112,14.4 10,12.9673112 10,11.2 C10,10.7152608 9.94016337,10.1383715 9.83605639,9.51147209 L9.76026398,9.08659267 C9.74659576,9.01469877 9.7324237,8.94230306 9.71776915,8.86946336 L9.62422279,8.42755971 L9.52012165,7.97777489 L9.40649065,7.52288355 L9.34642175,7.29439001 L9.34642175,7.29439001 L9.22041774,6.83704137 L9.08744622,6.38152284 L8.94853214,5.93060909 L8.80470044,5.48707477 C8.78037563,5.41392148 8.75588863,5.34119128 8.73126078,5.26894197 L8.58197441,4.84167926 L8.43033277,4.42873261 C8.40491983,4.36125533 8.37945146,4.29449015 8.35394901,4.22849489 L8.20069623,3.84222482 C8.17514288,3.77954046 8.14959816,3.71774163 8.12408343,3.65688613 L7.97152561,3.3035356 L7.82071228,2.97559975 C7.79577904,2.92321581 7.77096119,2.87200643 7.74628009,2.82202941 L7.6,2.53741806 C7.28737207,1.95480544 7.0050662,1.6 6.8,1.6 Z" id="Combined-Shape" fill="#1D837B"></path>
                            </g>
                        </g>
                        <g filter="url(#filter-2)" id="icon/statut-copy">
                            <g transform="translate(2.028524, 60.054230)">
                                <path d="M8,0.6 C10.449522,0.6 12.6332103,1.2440371 14.5070475,2.53355949 C14.9408655,2.83210089 15.2,3.32499634 15.2,3.8516129 L15.2,3.8516129 L15.2,15 C15.2,15.8836556 14.4836556,16.6 13.6,16.6 L13.6,16.6 L12.331,16.6 L15.7656854,20.0343146 C16.0781049,20.346734 16.0781049,20.853266 15.7656854,21.1656854 C15.6096022,21.3217687 15.4050694,21.3998735 15.2004973,21.3999998 L15.2,21.4 L0.8,21.4 C0.594926817,21.399872 0.390396356,21.3217672 0.234314575,21.1656854 C-0.0540725942,20.8772983 -0.0762562226,20.4235134 0.16776369,20.1096804 L0.234314575,20.0343146 L3.668,16.6 L2.4,16.6 C1.56543638,16.6 0.880110215,15.9610385 0.806538677,15.1456326 L0.8,15 L0.8,3.8516129 C0.8,3.32499634 1.05913451,2.83210089 1.49295249,2.53355949 C3.3667897,1.2440371 5.550478,0.6 8,0.6 Z M12.469,19 L3.53,19 L2.73,19.8 L13.269,19.8 L12.469,19 Z M10.069,16.6 L5.93,16.6 L5.13,17.4 L10.869,17.4 L10.069,16.6 Z M13.599,11 L2.399,11 L2.4,15 L13.6,15 L13.599,11 Z M4.4,11.8 C5.0627417,11.8 5.6,12.3372583 5.6,13 C5.6,13.6627417 5.0627417,14.2 4.4,14.2 C3.7372583,14.2 3.2,13.6627417 3.2,13 C3.2,12.3372583 3.7372583,11.8 4.4,11.8 Z M11.6,11.8 C12.2627417,11.8 12.8,12.3372583 12.8,13 C12.8,13.6627417 12.2627417,14.2 11.6,14.2 C10.9372583,14.2 10.4,13.6627417 10.4,13 C10.4,12.3372583 10.9372583,11.8 11.6,11.8 Z M7.199,5.4 L2.399,5.4 L2.399,9.4 L7.199,9.4 L7.199,5.4 Z M13.599,5.4 L8.8,5.4 L8.8,9.4 L13.599,9.4 L13.599,5.4 Z M8,2.2 C5.86666667,2.2 4,2.75053763 2.4,3.8516129 L2.477,3.8 L13.5235606,3.79956495 C12.0411662,2.80091251 10.332271,2.26987473 8.396875,2.20645161 Z" id="Combined-Shape" fill="#1D837B"></path>
                            </g>
                        </g>
                        <g filter="url(#filter-3)" id="icon/statut-copy-2">
                            <g transform="translate(0.028524, 143.576461)">
                                <path d="M12.7659693,8.23252738 L12.735316,8.31513544 L11.7837081,10.5389477 C13.2599694,10.7095276 14.5413956,11.0378818 15.628269,11.5279509 L19.3028875,10.0572186 C19.9482429,9.79907646 20.5931184,10.4300853 20.3490633,11.0808988 L20.3490633,11.0808988 L19.2544,14 L20.3490633,16.9191012 C20.5825073,17.5416185 20.0026387,18.1460158 19.3869885,17.9714811 L19.3869885,17.9714811 L19.3028875,17.9427814 L15.6807889,16.4944457 C14.3443348,17.2903857 12.7157381,17.7673836 10.8004245,17.9333889 L10.8,18.8 C10.8,19.3634053 10.2382953,19.7402108 9.72689227,19.5521758 L9.64222912,19.5155418 L6.44222912,17.9155418 C6.31169183,17.8502731 6.20679626,17.7541315 6.1319672,17.6403913 C4.48175897,17.2416108 2.94271508,16.5070363 1.52,15.44 C1.15649319,15.1673699 1.09701308,14.6532412 1.37058395,14.3060164 L1.43431458,14.2343146 L1.668,14 L1.43431458,13.7656854 C1.09478299,13.4261538 1.13243026,12.8742028 1.49366099,12.5804296 L1.57600085,12.5216014 C3.00034475,11.6313864 4.53750188,11.0211846 6.18312203,10.6912503 C6.21777724,10.6481638 6.25853321,10.6080422 6.30408577,10.5721538 L6.38072206,10.5186733 L11.5807221,7.31867335 C12.2200599,6.92523465 12.9817296,7.54623252 12.7659693,8.23252738 Z M9.2,12 C7.19269035,12 5.35437055,12.3973847 3.67621789,13.19267 L3.3072,13.3752 L3.36568542,13.4343146 C3.65407259,13.7227017 3.67625622,14.1764866 3.43223631,14.4903196 L3.36568542,14.5656854 L3.2432,14.688 L3.27273403,14.7070693 C4.97202686,15.7810133 6.83511009,16.3423337 8.8762354,16.3957808 L9.2,16.4 C11.4303324,16.4 13.2384643,16.012009 14.633865,15.2499011 C14.4786443,14.7504252 14.4,14.3395147 14.4,14 C14.4,13.6794728 14.4700938,13.2953122 14.6075159,12.8347251 C13.2071386,12.2817218 11.4040497,12 9.2,12 Z M8.35777088,12.4844582 C8.95466627,12.7829059 9.2,13.3962403 9.2,14.2 C9.2,15.0037597 8.95466627,15.6170941 8.35777088,15.9155418 C7.96258808,16.1131332 7.48204965,15.9529537 7.28445825,15.5577709 C7.11509419,15.2190428 7.20858221,14.8176044 7.48761095,14.5853898 L7.564,14.528 L7.57105848,14.5092829 C7.58396779,14.4587917 7.59379274,14.3877479 7.59789838,14.29712 L7.6,14.2 C7.6,14.0618983 7.58827089,13.9580387 7.57105848,13.8907171 L7.564,13.8712 C7.25177351,13.6666042 7.12145632,13.2756526 7.24754858,12.9280834 L7.28445825,12.8422291 C7.48204965,12.4470463 7.96258808,12.2868668 8.35777088,12.4844582 Z M18.2136,12.2152 L16.2312,13.0088 L16.1833383,13.1552398 C16.0753875,13.4924916 16.0159822,13.7542998 16.0028176,13.930002 L16.0028176,13.930002 L16,14 C16,14.1724375 16.0599659,14.4593296 16.1833383,14.8447602 L16.1833383,14.8447602 L16.2312,14.9904 L18.2136,15.784 L17.6509367,14.2808988 C17.5966042,14.1360123 17.5857377,13.9793029 17.6183372,13.8296873 L17.6183372,13.8296873 L17.6509367,13.7191012 L18.2136,12.2152 Z M6,13.2 C6.4418278,13.2 6.8,13.5581722 6.8,14 C6.8,14.4418278 6.4418278,14.8 6,14.8 C5.5581722,14.8 5.2,14.4418278 5.2,14 C5.2,13.5581722 5.5581722,13.2 6,13.2 Z M2,0.4 C2.41026867,0.4 2.74840573,0.708832152 2.79461781,1.1067031 L2.8,1.2 L2.80073973,3.01447969 C3.27857286,3.29123236 3.6,3.80807951 3.6,4.4 C3.6,4.99192049 3.27857286,5.50876764 2.80073973,5.78552031 L2.8,7.6 C2.8,8.22483887 2.97516113,8.4 3.6,8.4 C4.22483887,8.4 4.4,8.22483887 4.4,7.6 C4.4,7.1581722 4.7581722,6.8 5.2,6.8 C5.6418278,6.8 6,7.1581722 6,7.6 C6,9.10849447 5.10849447,10 3.6,10 C2.14538034,10 1.26446594,9.17103631 1.20339887,7.75925097 L1.2,7.6 L1.20023499,5.7860844 C0.721864307,5.50947032 0.4,4.99232288 0.4,4.4 C0.4,3.80767712 0.721864307,3.29052968 1.20023499,3.0139156 L1.2,1.2 C1.2,0.7581722 1.5581722,0.4 2,0.4 Z" id="Combined-Shape" fill="#1D837B"></path>
                            </g>
                        </g>
                        <g filter="url(#filter-4)" id="icon/statut-copy-5">
                            <g transform="translate(187.971476, 61.054230)">
                                <path d="M15.6,13.4666667 L16.24,14.32 L16.5777135,14.7759831 C16.6312404,14.849257 16.6833904,14.9211747 16.7341665,14.9917445 L16.7341665,14.9917445 L17.0223651,15.3990543 L17.2777536,15.77441 C17.5566299,16.1938389 17.7688452,16.5488359 17.9155418,16.8422291 C18.2339072,17.4789599 18.3105165,18.3982725 18.0589466,19.1529822 C17.7204882,20.1683576 16.8519799,20.8 15.6,20.8 C13.2194599,20.8 12.453905,18.5033355 13.2844582,16.8422291 C13.4311548,16.5488359 13.6433701,16.1938389 13.9222464,15.77441 L13.9222464,15.77441 L14.1776349,15.3990543 C14.2229294,15.3338432 14.2695909,15.2673006 14.3176229,15.1994184 L14.3176229,15.1994184 L14.6222865,14.7759831 C14.7293405,14.6294353 14.8419028,14.477463 14.96,14.32 L14.96,14.32 L15.6,13.4666667 Z M15.5992,16.1568 L15.306301,16.583021 L15.0933067,16.9076468 L14.915588,17.1955926 L14.7733232,17.4464171 L14.7155418,17.5577709 C14.346095,18.2966645 14.6472068,19.2 15.6,19.2 C16.1605201,19.2 16.4195118,19.0116424 16.5410534,18.6470178 C16.6561501,18.3017275 16.6160928,17.8210401 16.4844582,17.5577709 C16.4666849,17.5222242 16.4474232,17.4851032 16.4266768,17.4464171 L16.4266768,17.4464171 L16.284412,17.1955926 L16.1066933,16.9076468 L15.893699,16.583021 C15.8168415,16.4687481 15.7341344,16.3484354 15.6456074,16.2221565 L15.6456074,16.2221565 L15.5992,16.1568 Z M11.6,0.4 C12.0418278,0.4 12.4,0.7581722 12.4,1.2 C12.4,1.6418278 12.0418278,2 11.6,2 L10,2 L10.000838,2.90102979 C10.8411021,3.11754292 11.5477213,3.66678563 11.9718412,4.39990364 L12.4,4.4 C15.4283614,4.4 17.8952789,6.80382671 17.9967528,9.8074802 L18,10 L18,11.6 C18.4418278,11.6 18.8,11.9581722 18.8,12.4 C18.8,12.8418278 18.4418278,13.2 18,13.2 L18,13.2 L12.4,13.2 L12.4,13.2 C11.9581722,13.2 11.6,12.8418278 11.6,12.4 C11.6,11.9581722 11.9581722,11.6 12.4,11.6 L12.4,10.8 C12.4,10.3581722 12.0418278,10 11.6,10 L3.6,10 L3.6,10.8 L2,10.8 L2,3.6 L3.6,3.6 L3.6,4.399 L6.42815877,4.39990364 C6.85244562,3.66649711 7.5594541,3.11711064 8.40015412,2.90077432 L8.4,2 L6.8,2 C6.3581722,2 6,1.6418278 6,1.2 C6,0.7581722 6.3581722,0.4 6.8,0.4 L11.6,0.4 Z M9.2,4.4 C8.66586285,4.4 8.17896479,4.66277768 7.883024,5.09073839 L7.81310025,5.2011134 L7.35099954,5.99988356 L3.6,5.999 L3.6,8.4 L11.6,8.4 C12.8781447,8.4 13.9229287,9.39913597 13.9959258,10.6589818 L14,10.8 L14,11.6 L16.4,11.6 L16.4002275,10.0269832 L16.3976651,9.86150293 C16.3270097,7.77008461 14.6520392,6.09285957 12.5737395,6.00372642 L12.3996399,5.99999996 L11.0488919,5.99969598 L10.5868997,5.2011134 C10.3018568,4.7083988 9.77864858,4.4 9.2,4.4 Z" id="Combined-Shape" fill="#1D837B"></path>
                            </g>
                        </g>
                        <g filter="url(#filter-5)" id="icon/statut-copy-4">
                            <g transform="translate(187.971476, 143.576461)">
                                <path d="M7.6,0.4 L7.48059012,0.404388589 C6.65270223,0.465467903 6,1.15651056 6,2 L6,6 L2,6 C1.1163444,6 0.4,6.7163444 0.4,7.6 L0.4,12.4 L0.404388589,12.5194099 C0.465467903,13.3472978 1.15651056,14 2,14 L6,14 L6,18 C6,18.8836556 6.7163444,19.6 7.6,19.6 L12.4,19.6 L12.5194099,19.5956114 C13.3472978,19.5345321 14,18.8434894 14,18 L14,14 L18,14 C18.8836556,14 19.6,13.2836556 19.6,12.4 L19.6,7.6 L19.5956114,7.48059012 C19.5345321,6.65270223 18.8434894,6 18,6 L14,6 L14,2 C14,1.1163444 13.2836556,0.4 12.4,0.4 L7.6,0.4 Z M12.4,2 L12.4,7.6 L18,7.6 L18,12.4 L12.4,12.4 L12.4,18 L7.6,18 L7.6,12.4 L2,12.4 L2,7.6 L7.6,7.6 L7.6,2 L12.4,2 Z" id="Combined-Shape" fill="#1D837B"></path>
                            </g>
                        </g>
                        <g filter="url(#filter-6)" id="icon/statut-copy-3">
                            <g transform="translate(95.021429, 203.666454)">
                                <path d="M5.2,9 C7.409139,9 9.2,10.790861 9.2,13 C9.2,15.209139 7.409139,17 5.2,17 C2.990861,17 1.2,15.209139 1.2,13 C1.2,10.790861 2.990861,9 5.2,9 Z M11.6,0.2 L11.6897587,0.204989636 C12.0730081,0.247855015 12.3768987,0.561971679 12.3987683,0.955623984 L12.3987683,0.955623984 L12.7613698,7.495 L13.9993698,7.66 L14,4.2 C14,3.78973133 14.3088322,3.45159427 14.7067031,3.40538219 L14.8,3.4 L16.4,3.4 C17.4298851,3.4 17.4653983,4.89155767 16.5065398,4.99442372 L16.4,5 L15.6,5 L15.5993698,7.873 L18.105731,8.20701768 C18.4726031,8.25593396 18.7537393,8.54857233 18.7948202,8.90867172 L18.8,9 L18.8008304,11.6842817 C19.2982266,12.2482712 19.6,12.9888941 19.6,13.8 C19.6,15.5673112 18.1673112,17 16.4,17 C14.6326888,17 13.2,15.5673112 13.2,13.8 L13.1993698,13.799 L10.814245,13.7998757 C10.8095066,13.7999585 10.8047581,13.8 10.8,13.8 C10.3581722,13.8 10,13.4418278 10,13 C10,10.3490332 7.8509668,8.2 5.2,8.2 C3.89923059,8.2 2.68276237,8.71876263 1.78629671,9.62559109 C1.47567776,9.93980069 0.969154138,9.94271147 0.654944543,9.63209252 C0.340734949,9.32147356 0.33782416,8.81494994 0.648443115,8.50074035 C1.65660546,7.48092402 2.97184743,6.82820987 4.39985073,6.64970391 L4.4,1 L4.40538219,0.9067031 C4.45159427,0.508832152 4.78973133,0.2 5.2,0.2 L5.2,0.2 L11.6,0.2 Z M5.2,10.6 C3.8745166,10.6 2.8,11.6745166 2.8,13 C2.8,14.3254834 3.8745166,15.4 5.2,15.4 C6.5254834,15.4 7.6,14.3254834 7.6,13 C7.6,11.6745166 6.5254834,10.6 5.2,10.6 Z M16.4,12.2 C15.5163444,12.2 14.8,12.9163444 14.8,13.8 C14.8,14.6836556 15.5163444,15.4 16.4,15.4 C17.2836556,15.4 18,14.6836556 18,13.8 C18,12.9163444 17.2836556,12.2 16.4,12.2 Z M11.9543698,9 L10.1963816,9.00010577 C10.917292,9.89945036 11.4004111,10.9976214 11.5503945,12.1992742 L13.6289678,12.198506 C14.1824752,11.2428478 15.216165,10.6 16.4,10.6 C16.6763888,10.6 16.9445936,10.6350402 17.2004142,10.7009206 L17.2,9.7 L11.9543698,9 Z M10.8424,1.8 L6,1.8 L5.99972585,6.64948082 C6.865542,6.75740865 7.67765436,7.03828134 8.40040354,7.45643951 L8.4,7.4 L11.1533698,7.399 L10.8424,1.8 Z" id="Combined-Shape" fill="#1D837B"></path>
                            </g>
                        </g>
                    </g>
                </g>
            </g>
        </g>
    </g>
</svg>