<?xml version="1.0" encoding="UTF-8"?>
<svg width="272px" height="272px" viewBox="0 0 272 272" version="1.1" xmlns="http://www.w3.org/2000/svg" xmlns:xlink="http://www.w3.org/1999/xlink">
    <title>AA82BD2D-72BA-4010-84F0-6682E1F99094</title>
    <g id="TACCT-Page-publique" stroke="none" stroke-width="1" fill="none" fill-rule="evenodd">
        <g id="TACCT-Homepage2" transform="translate(-232.000000, -2640.000000)">
            <g id="schema_aleas" transform="translate(232.000000, 2640.000000)">
                <rect id="Rectangle" x="0" y="0" width="272" height="272"></rect>
                <circle id="Oval" fill="#EDF8F7" cx="136" cy="122" r="82"></circle>
                <g id="Icon/secheresse" transform="translate(108.000000, 100.000000)">
                    <rect id="mask" x="0" y="0" width="56" height="56"></rect>
                    <path d="M35.7472711,15.4 L36.0438411,15.4068572 C39.2872547,15.5571606 41.8901105,18.1600164 42.0404139,21.40343 L42.0404139,21.40343 L42.0430711,21.497 L44.8,31.8392723 L44.7301137,31.85815 C44.7761993,32.1988639 44.8,32.5466525 44.8,32.9 C44.8,37.1525926 41.3525926,40.6 37.1,40.6 C33.5755072,40.6 30.6040861,38.2320184 29.6899102,35.0002287 L26.3100898,35.0002287 C25.3959139,38.2320184 22.4244928,40.6 18.9,40.6 C14.6474074,40.6 11.2,37.1525926 11.2,32.9 C11.2,32.5425117 11.2243618,32.1907134 11.2715157,31.8461747 L11.2472711,31.8392723 L11.3073495,31.6113958 C11.387751,31.1341907 11.5120502,30.6718921 11.6759508,30.2287961 L14.0042,21.497 L14.0068572,21.40343 C14.1571606,18.1600164 16.7600164,15.5571606 20.00343,15.4068572 L20.3,15.4 C23.542808,15.4 26.2133726,17.8500656 26.5615565,21.0000597 L29.4857146,21.0000597 C29.8338985,17.8500656 32.504463,15.4 35.7472711,15.4 L35.7472711,15.4 Z M37.1,28 C34.3938047,28 32.2,30.1938047 32.2,32.9 C32.2,35.6061953 34.3938047,37.8 37.1,37.8 C39.8061953,37.8 42,35.6061953 42,32.9 C42,30.1938047 39.8061953,28 37.1,28 Z M18.9,28 C16.8281936,28 15.0567051,29.2858137 14.3400094,31.1029662 L14.0520396,32.1833053 C14.0177546,32.4172406 14,32.6565469 14,32.9 C14,35.6061953 16.1938047,37.8 18.9,37.8 C21.6061953,37.8 23.8,35.6061953 23.8,32.9 C23.8,30.1938047 21.6061953,28 18.9,28 Z M29.4,30.8 L26.599,30.8 L26.6,32.2 L26.5685526,32.1993641 C26.5685825,32.1996956 26.5686123,32.2000272 26.5686422,32.2003588 L29.4,32.2 L29.4,30.8 Z M29.4,23.8 L26.599,23.8 L26.599,28 L29.4,28 L29.4,23.8 Z M20.3,18.2 C18.4443232,18.2 16.9259459,19.6441503 16.8074448,21.469874 L16.8,21.7 L16.8,21.8834611 L15.7335934,25.879097 C16.6994158,25.4428308 17.7713498,25.2 18.9,25.2 C20.7614386,25.2 22.4686057,25.8605147 23.7999093,26.959952 L23.8,21.7 C23.8,19.7670034 22.2329966,18.2 20.3,18.2 Z M35.7472711,18.2 C33.8142745,18.2 32.2472711,19.7670034 32.2472711,21.7 L32.2472711,21.7 L32.2471037,26.9214365 C33.5714739,25.8451068 35.2604006,25.2 37.1,25.2 C38.2492746,25.2 39.3397413,25.4517866 40.319247,25.9032069 L39.2472711,21.8834611 L39.2472711,21.7 L39.2398263,21.469874 C39.1213252,19.6441503 37.6029478,18.2 35.7472711,18.2 Z" id="Combined-Shape" fill="#D3EDEB"></path>
                </g>
                <path d="M93.58,76 L93.58,72.316 L94.912,72.316 C96.592,72.316 97.636,71.404 97.636,69.964 C97.636,68.524 96.592,67.6 94.912,67.6 L92.452,67.6 L92.452,76 L93.58,76 Z M94.936,71.332 L93.58,71.332 L93.58,68.584 L94.936,68.584 C95.896,68.584 96.472,69.088 96.472,69.94 C96.472,70.84 95.896,71.332 94.936,71.332 Z M100.108,76 L100.108,67 L99.088,67 L99.088,76 L100.108,76 Z M104.812,76.24 C106.456,76.24 107.5,75.184 107.5,73.372 L107.5,69.952 L106.468,69.952 L106.468,73.408 C106.468,74.596 105.832,75.28 104.824,75.28 C103.792,75.28 103.156,74.596 103.156,73.408 L103.156,69.952 L102.136,69.952 L102.136,73.372 C102.136,75.184 103.18,76.24 104.812,76.24 Z M110.032,68.38 C110.428,68.38 110.74,68.056 110.74,67.66 C110.74,67.276 110.428,66.952 110.032,66.952 C109.636,66.952 109.312,67.276 109.312,67.66 C109.312,68.056 109.636,68.38 110.032,68.38 Z M110.536,76 L110.536,69.952 L109.516,69.952 L109.516,76 L110.536,76 Z M115.48,76.24 C116.608,76.24 117.508,75.76 118.072,75.004 L117.316,74.416 C116.92,74.956 116.272,75.316 115.504,75.316 C114.148,75.316 113.236,74.344 113.236,73.012 L113.236,72.988 L117.868,72.988 C117.904,72.82 117.94,72.58 117.94,72.34 C117.94,70.828 116.872,69.712 115.228,69.712 C113.356,69.712 112.18,71.14 112.18,72.976 C112.18,74.74 113.44,76.24 115.48,76.24 Z M116.908,72.184 L113.32,72.184 C113.56,71.14 114.256,70.588 115.24,70.588 C116.236,70.588 116.872,71.308 116.908,72.184 Z M121.288,76.24 C122.416,76.24 123.316,75.532 123.328,74.404 C123.328,72.292 120.364,72.772 120.364,71.392 C120.364,70.9 120.7,70.564 121.324,70.564 C121.876,70.564 122.32,70.84 122.656,71.32 L123.364,70.708 C122.944,70.12 122.2,69.712 121.312,69.712 C120.172,69.712 119.368,70.444 119.368,71.416 C119.368,73.588 122.332,73.084 122.332,74.452 C122.332,74.98 121.948,75.388 121.276,75.388 C120.664,75.388 120.16,75.076 119.74,74.548 L119.02,75.172 C119.572,75.856 120.328,76.24 121.288,76.24 Z M131.008,76.24 C132.136,76.24 133.036,75.76 133.6,75.004 L132.844,74.416 C132.448,74.956 131.8,75.316 131.032,75.316 C129.676,75.316 128.764,74.344 128.764,73.012 L128.764,72.988 L133.396,72.988 C133.432,72.82 133.468,72.58 133.468,72.34 C133.468,70.828 132.4,69.712 130.756,69.712 C128.884,69.712 127.708,71.14 127.708,72.976 C127.708,74.74 128.968,76.24 131.008,76.24 Z M132.436,72.184 L128.848,72.184 C129.088,71.14 129.784,70.588 130.768,70.588 C131.764,70.588 132.4,71.308 132.436,72.184 Z M135.58,76 L137.308,73.552 L139.036,76 L140.2,76 L137.968,72.868 L140.044,69.952 L138.868,69.952 L137.296,72.184 L135.724,69.952 L134.56,69.952 L136.624,72.868 L134.392,76 L135.58,76 Z M144.004,76.12 C144.436,76.12 144.76,76.072 145.048,75.952 L145.048,75.04 C144.82,75.136 144.544,75.184 144.148,75.184 C143.416,75.184 142.936,74.92 142.936,73.972 L142.936,70.888 L145.036,70.888 L145.036,69.952 L142.936,69.952 L142.936,68.44 L141.904,68.44 L141.904,69.952 L140.764,69.952 L140.764,70.888 L141.904,70.888 L141.904,73.972 C141.904,75.448 142.66,76.12 144.004,76.12 Z M147.616,76 L147.616,71.896 C147.988,71.284 148.504,70.876 149.296,70.876 C149.536,70.876 149.716,70.912 149.896,70.96 L149.896,69.904 C149.752,69.856 149.572,69.832 149.38,69.832 C148.612,69.832 148.06,70.18 147.616,70.708 L147.616,69.952 L146.596,69.952 L146.596,76 L147.616,76 Z M152.908,68.992 L153.928,67.504 L154.936,68.992 L155.86,68.992 L154.612,67 L153.232,67 L151.972,68.992 L152.908,68.992 Z M154.144,76.24 C155.272,76.24 156.172,75.76 156.736,75.004 L155.98,74.416 C155.584,74.956 154.936,75.316 154.168,75.316 C152.812,75.316 151.9,74.344 151.9,73.012 L151.9,72.988 L156.532,72.988 C156.568,72.82 156.604,72.58 156.604,72.34 C156.604,70.828 155.536,69.712 153.892,69.712 C152.02,69.712 150.844,71.14 150.844,72.976 C150.844,74.74 152.104,76.24 154.144,76.24 Z M155.572,72.184 L151.984,72.184 C152.224,71.14 152.92,70.588 153.904,70.588 C154.9,70.588 155.536,71.308 155.572,72.184 Z M159.352,76 L159.352,71.812 C159.7,71.188 160.216,70.672 161.044,70.672 C161.92,70.672 162.46,71.248 162.46,72.256 L162.46,76 L163.492,76 L163.492,72.22 C163.492,72.088 163.48,71.956 163.468,71.824 C163.876,71.116 164.404,70.672 165.172,70.672 C166.036,70.672 166.6,71.248 166.6,72.256 L166.6,76 L167.62,76 L167.62,72.22 C167.62,70.576 166.672,69.712 165.376,69.712 C164.38,69.712 163.72,70.24 163.24,70.924 C162.868,70.12 162.136,69.712 161.248,69.712 C160.408,69.712 159.808,70.084 159.352,70.612 L159.352,69.952 L158.332,69.952 L158.332,76 L159.352,76 Z M172.456,76.24 C173.584,76.24 174.484,75.76 175.048,75.004 L174.292,74.416 C173.896,74.956 173.248,75.316 172.48,75.316 C171.124,75.316 170.212,74.344 170.212,73.012 L170.212,72.988 L174.844,72.988 C174.88,72.82 174.916,72.58 174.916,72.34 C174.916,70.828 173.848,69.712 172.204,69.712 C170.332,69.712 169.156,71.14 169.156,72.976 C169.156,74.74 170.416,76.24 172.456,76.24 Z M173.884,72.184 L170.296,72.184 C170.536,71.14 171.232,70.588 172.216,70.588 C173.212,70.588 173.848,71.308 173.884,72.184 Z M178.264,76.24 C179.392,76.24 180.292,75.532 180.304,74.404 C180.304,72.292 177.34,72.772 177.34,71.392 C177.34,70.9 177.676,70.564 178.3,70.564 C178.852,70.564 179.296,70.84 179.632,71.32 L180.34,70.708 C179.92,70.12 179.176,69.712 178.288,69.712 C177.148,69.712 176.344,70.444 176.344,71.416 C176.344,73.588 179.308,73.084 179.308,74.452 C179.308,74.98 178.924,75.388 178.252,75.388 C177.64,75.388 177.136,75.076 176.716,74.548 L175.996,75.172 C176.548,75.856 177.304,76.24 178.264,76.24 Z" id="Pluiesextrêmes" fill="#666666" fill-rule="nonzero"></path>
                <path d="M22.686,151.228 C24.15,151.228 25.266,150.292 25.266,148.864 C25.266,146.176 21.294,146.404 21.294,144.592 C21.294,143.896 21.81,143.368 22.59,143.368 C23.322,143.368 23.922,143.752 24.414,144.46 L25.254,143.728 C24.63,142.9 23.766,142.36 22.578,142.36 C21.15,142.36 20.142,143.392 20.142,144.616 C20.142,147.292 24.114,147.076 24.114,148.876 C24.114,149.644 23.586,150.22 22.674,150.22 C21.882,150.22 21.186,149.836 20.598,149.092 L19.782,149.848 C20.514,150.76 21.438,151.228 22.686,151.228 Z M30.294,143.992 L31.698,142 L30.546,142 L29.298,143.992 L30.294,143.992 Z M30.006,151.24 C31.134,151.24 32.034,150.76 32.598,150.004 L31.842,149.416 C31.446,149.956 30.798,150.316 30.03,150.316 C28.674,150.316 27.762,149.344 27.762,148.012 L27.762,147.988 L32.394,147.988 C32.43,147.82 32.466,147.58 32.466,147.34 C32.466,145.828 31.398,144.712 29.754,144.712 C27.882,144.712 26.706,146.14 26.706,147.976 C26.706,149.74 27.966,151.24 30.006,151.24 Z M31.434,147.184 L27.846,147.184 C28.086,146.14 28.782,145.588 29.766,145.588 C30.762,145.588 31.398,146.308 31.434,147.184 Z M36.966,151.24 C38.07,151.24 38.946,150.76 39.51,150.004 L38.694,149.38 C38.322,149.92 37.722,150.28 36.978,150.28 C35.67,150.28 34.746,149.272 34.746,147.976 C34.746,146.692 35.67,145.672 36.966,145.672 C37.71,145.672 38.322,146.032 38.694,146.572 L39.51,145.948 C38.946,145.204 38.058,144.712 36.966,144.712 C34.962,144.712 33.678,146.212 33.678,147.976 C33.678,149.74 34.962,151.24 36.966,151.24 Z M41.934,151 L41.934,146.812 C42.318,146.188 42.858,145.672 43.746,145.672 C44.694,145.672 45.282,146.296 45.282,147.376 L45.282,151 L46.314,151 L46.314,147.34 C46.314,145.624 45.306,144.712 43.95,144.712 C43.05,144.712 42.426,145.096 41.934,145.636 L41.934,142 L40.914,142 L40.914,151 L41.934,151 Z M51.15,151.24 C52.278,151.24 53.178,150.76 53.742,150.004 L52.986,149.416 C52.59,149.956 51.942,150.316 51.174,150.316 C49.818,150.316 48.906,149.344 48.906,148.012 L48.906,147.988 L53.538,147.988 C53.574,147.82 53.61,147.58 53.61,147.34 C53.61,145.828 52.542,144.712 50.898,144.712 C49.026,144.712 47.85,146.14 47.85,147.976 C47.85,149.74 49.11,151.24 51.15,151.24 Z M52.578,147.184 L48.99,147.184 C49.23,146.14 49.926,145.588 50.91,145.588 C51.906,145.588 52.542,146.308 52.578,147.184 Z M56.358,151 L56.358,146.896 C56.73,146.284 57.246,145.876 58.038,145.876 C58.278,145.876 58.458,145.912 58.638,145.96 L58.638,144.904 C58.494,144.856 58.314,144.832 58.122,144.832 C57.354,144.832 56.802,145.18 56.358,145.708 L56.358,144.952 L55.338,144.952 L55.338,151 L56.358,151 Z M62.886,151.24 C64.014,151.24 64.914,150.76 65.478,150.004 L64.722,149.416 C64.326,149.956 63.678,150.316 62.91,150.316 C61.554,150.316 60.642,149.344 60.642,148.012 L60.642,147.988 L65.274,147.988 C65.31,147.82 65.346,147.58 65.346,147.34 C65.346,145.828 64.278,144.712 62.634,144.712 C60.762,144.712 59.586,146.14 59.586,147.976 C59.586,149.74 60.846,151.24 62.886,151.24 Z M64.314,147.184 L60.726,147.184 C60.966,146.14 61.662,145.588 62.646,145.588 C63.642,145.588 64.278,146.308 64.314,147.184 Z M68.694,151.24 C69.822,151.24 70.722,150.532 70.734,149.404 C70.734,147.292 67.77,147.772 67.77,146.392 C67.77,145.9 68.106,145.564 68.73,145.564 C69.282,145.564 69.726,145.84 70.062,146.32 L70.77,145.708 C70.35,145.12 69.606,144.712 68.718,144.712 C67.578,144.712 66.774,145.444 66.774,146.416 C66.774,148.588 69.738,148.084 69.738,149.452 C69.738,149.98 69.354,150.388 68.682,150.388 C68.07,150.388 67.566,150.076 67.146,149.548 L66.426,150.172 C66.978,150.856 67.734,151.24 68.694,151.24 Z M74.01,151.24 C75.138,151.24 76.038,150.532 76.05,149.404 C76.05,147.292 73.086,147.772 73.086,146.392 C73.086,145.9 73.422,145.564 74.046,145.564 C74.598,145.564 75.042,145.84 75.378,146.32 L76.086,145.708 C75.666,145.12 74.922,144.712 74.034,144.712 C72.894,144.712 72.09,145.444 72.09,146.416 C72.09,148.588 75.054,148.084 75.054,149.452 C75.054,149.98 74.67,150.388 73.998,150.388 C73.386,150.388 72.882,150.076 72.462,149.548 L71.742,150.172 C72.294,150.856 73.05,151.24 74.01,151.24 Z M80.49,151.24 C81.618,151.24 82.518,150.76 83.082,150.004 L82.326,149.416 C81.93,149.956 81.282,150.316 80.514,150.316 C79.158,150.316 78.246,149.344 78.246,148.012 L78.246,147.988 L82.878,147.988 C82.914,147.82 82.95,147.58 82.95,147.34 C82.95,145.828 81.882,144.712 80.238,144.712 C78.366,144.712 77.19,146.14 77.19,147.976 C77.19,149.74 78.45,151.24 80.49,151.24 Z M81.918,147.184 L78.33,147.184 C78.57,146.14 79.266,145.588 80.25,145.588 C81.246,145.588 81.882,146.308 81.918,147.184 Z M86.298,151.24 C87.426,151.24 88.326,150.532 88.338,149.404 C88.338,147.292 85.374,147.772 85.374,146.392 C85.374,145.9 85.71,145.564 86.334,145.564 C86.886,145.564 87.33,145.84 87.666,146.32 L88.374,145.708 C87.954,145.12 87.21,144.712 86.322,144.712 C85.182,144.712 84.378,145.444 84.378,146.416 C84.378,148.588 87.342,148.084 87.342,149.452 C87.342,149.98 86.958,150.388 86.286,150.388 C85.674,150.388 85.17,150.076 84.75,149.548 L84.03,150.172 C84.582,150.856 85.338,151.24 86.298,151.24 Z" id="Sécheresses" fill="#666666" fill-rule="nonzero"></path>
                <path d="M141.956,234 L142.928,231.528 L146.792,231.528 L147.764,234 L148.964,234 L145.616,225.6 L144.104,225.6 L140.756,234 L141.956,234 Z M146.42,230.556 L143.3,230.556 L144.86,226.584 L146.42,230.556 Z M152.912,234.24 C154.556,234.24 155.6,233.184 155.6,231.372 L155.6,227.952 L154.568,227.952 L154.568,231.408 C154.568,232.596 153.932,233.28 152.924,233.28 C151.892,233.28 151.256,232.596 151.256,231.408 L151.256,227.952 L150.236,227.952 L150.236,231.372 C150.236,233.184 151.28,234.24 152.912,234.24 Z M159.884,237 C161.744,237 162.968,236.076 162.968,234.78 C162.968,233.7 162.224,232.92 160.628,232.92 L158.9,232.92 C158.528,232.92 158.396,232.74 158.396,232.488 C158.396,232.26 158.54,232.044 158.792,231.864 C159.044,231.936 159.332,231.984 159.632,231.984 C161.084,231.984 161.984,231 161.984,229.848 C161.984,229.488 161.9,229.14 161.732,228.84 L163.04,228.84 L163.04,227.952 L160.796,227.952 C160.472,227.796 160.076,227.7 159.632,227.7 C158.192,227.7 157.28,228.684 157.28,229.848 C157.28,230.52 157.592,231.132 158.12,231.528 C157.652,231.828 157.4,232.224 157.4,232.704 C157.4,233.028 157.544,233.352 157.82,233.568 C157.232,234 156.92,234.48 156.92,235.092 C156.92,236.304 158.096,237 159.884,237 Z M159.644,231.18 C158.744,231.18 158.252,230.592 158.252,229.848 C158.252,229.104 158.744,228.504 159.644,228.504 C160.52,228.504 161.024,229.104 161.024,229.848 C161.024,230.58 160.52,231.18 159.644,231.18 Z M159.872,236.148 C158.672,236.148 157.916,235.704 157.916,234.972 C157.916,234.48 158.192,234.132 158.708,233.82 L160.544,233.82 C161.624,233.82 161.948,234.276 161.948,234.852 C161.948,235.644 161.144,236.148 159.872,236.148 Z M165.308,234 L165.308,229.812 C165.656,229.188 166.172,228.672 167,228.672 C167.876,228.672 168.416,229.248 168.416,230.256 L168.416,234 L169.448,234 L169.448,230.22 C169.448,230.088 169.436,229.956 169.424,229.824 C169.832,229.116 170.36,228.672 171.128,228.672 C171.992,228.672 172.556,229.248 172.556,230.256 L172.556,234 L173.576,234 L173.576,230.22 C173.576,228.576 172.628,227.712 171.332,227.712 C170.336,227.712 169.676,228.24 169.196,228.924 C168.824,228.12 168.092,227.712 167.204,227.712 C166.364,227.712 165.764,228.084 165.308,228.612 L165.308,227.952 L164.288,227.952 L164.288,234 L165.308,234 Z M178.412,234.24 C179.54,234.24 180.44,233.76 181.004,233.004 L180.248,232.416 C179.852,232.956 179.204,233.316 178.436,233.316 C177.08,233.316 176.168,232.344 176.168,231.012 L176.168,230.988 L180.8,230.988 C180.836,230.82 180.872,230.58 180.872,230.34 C180.872,228.828 179.804,227.712 178.16,227.712 C176.288,227.712 175.112,229.14 175.112,230.976 C175.112,232.74 176.372,234.24 178.412,234.24 Z M179.84,230.184 L176.252,230.184 C176.492,229.14 177.188,228.588 178.172,228.588 C179.168,228.588 179.804,229.308 179.84,230.184 Z M183.62,234 L183.62,229.812 C184.004,229.176 184.556,228.672 185.432,228.672 C186.368,228.672 186.968,229.296 186.968,230.376 L186.968,234 L188,234 L188,230.34 C188,228.624 186.992,227.712 185.636,227.712 C184.736,227.712 184.112,228.096 183.62,228.636 L183.62,227.952 L182.6,227.952 L182.6,234 L183.62,234 Z M192.5,234.12 C192.932,234.12 193.256,234.072 193.544,233.952 L193.544,233.04 C193.316,233.136 193.04,233.184 192.644,233.184 C191.912,233.184 191.432,232.92 191.432,231.972 L191.432,228.888 L193.532,228.888 L193.532,227.952 L191.432,227.952 L191.432,226.44 L190.4,226.44 L190.4,227.952 L189.26,227.952 L189.26,228.888 L190.4,228.888 L190.4,231.972 C190.4,233.448 191.156,234.12 192.5,234.12 Z M196.748,234.24 C197.564,234.24 198.32,233.868 198.776,233.232 L198.776,234 L199.796,234 L199.796,229.944 C199.796,228.612 198.884,227.712 197.348,227.712 C196.292,227.712 195.44,228.156 194.912,228.876 L195.68,229.464 C196.028,228.936 196.616,228.624 197.324,228.624 C198.176,228.624 198.776,229.104 198.776,229.944 L198.776,230.364 L196.748,230.7 C195.452,230.904 194.756,231.576 194.756,232.512 C194.756,233.568 195.56,234.24 196.748,234.24 Z M196.916,233.388 C196.22,233.388 195.776,232.992 195.776,232.476 C195.776,231.948 196.148,231.564 196.988,231.432 L198.776,231.12 L198.776,232.272 C198.356,232.968 197.72,233.388 196.916,233.388 Z M204.308,234.12 C204.74,234.12 205.064,234.072 205.352,233.952 L205.352,233.04 C205.124,233.136 204.848,233.184 204.452,233.184 C203.72,233.184 203.24,232.92 203.24,231.972 L203.24,228.888 L205.34,228.888 L205.34,227.952 L203.24,227.952 L203.24,226.44 L202.208,226.44 L202.208,227.952 L201.068,227.952 L201.068,228.888 L202.208,228.888 L202.208,231.972 C202.208,233.448 202.964,234.12 204.308,234.12 Z M207.416,226.38 C207.812,226.38 208.124,226.056 208.124,225.66 C208.124,225.276 207.812,224.952 207.416,224.952 C207.02,224.952 206.696,225.276 206.696,225.66 C206.696,226.056 207.02,226.38 207.416,226.38 Z M207.92,234 L207.92,227.952 L206.9,227.952 L206.9,234 L207.92,234 Z M212.84,234.24 C214.784,234.24 216.116,232.74 216.116,230.976 C216.116,229.212 214.784,227.712 212.84,227.712 C210.884,227.712 209.564,229.212 209.564,230.976 C209.564,232.74 210.884,234.24 212.84,234.24 Z M212.852,233.28 C211.556,233.28 210.632,232.236 210.632,230.976 C210.632,229.716 211.556,228.672 212.852,228.672 C214.112,228.672 215.036,229.716 215.036,230.976 C215.036,232.224 214.112,233.28 212.852,233.28 Z M218.78,234 L218.78,229.812 C219.164,229.176 219.716,228.672 220.592,228.672 C221.528,228.672 222.128,229.296 222.128,230.376 L222.128,234 L223.16,234 L223.16,230.34 C223.16,228.624 222.152,227.712 220.796,227.712 C219.896,227.712 219.272,228.096 218.78,228.636 L218.78,227.952 L217.76,227.952 L217.76,234 L218.78,234 Z M231.044,234.24 C231.92,234.24 232.64,233.916 233.192,233.328 L233.192,234 L234.212,234 L234.212,225 L233.192,225 L233.192,228.624 C232.64,228.036 231.92,227.712 231.044,227.712 C229.148,227.712 227.936,229.212 227.936,230.976 C227.936,232.74 229.148,234.24 231.044,234.24 Z M231.164,233.28 C229.88,233.28 229.016,232.26 229.016,230.976 C229.016,229.692 229.88,228.672 231.164,228.672 C231.992,228.672 232.712,229.068 233.192,229.8 L233.192,232.152 C232.724,232.872 232.004,233.28 231.164,233.28 Z M239.144,234.24 C240.272,234.24 241.172,233.76 241.736,233.004 L240.98,232.416 C240.584,232.956 239.936,233.316 239.168,233.316 C237.812,233.316 236.9,232.344 236.9,231.012 L236.9,230.988 L241.532,230.988 C241.568,230.82 241.604,230.58 241.604,230.34 C241.604,228.828 240.536,227.712 238.892,227.712 C237.02,227.712 235.844,229.14 235.844,230.976 C235.844,232.74 237.104,234.24 239.144,234.24 Z M240.572,230.184 L236.984,230.184 C237.224,229.14 237.92,228.588 238.904,228.588 C239.9,228.588 240.536,229.308 240.572,230.184 Z M244.952,234.24 C246.08,234.24 246.98,233.532 246.992,232.404 C246.992,230.292 244.028,230.772 244.028,229.392 C244.028,228.9 244.364,228.564 244.988,228.564 C245.54,228.564 245.984,228.84 246.32,229.32 L247.028,228.708 C246.608,228.12 245.864,227.712 244.976,227.712 C243.836,227.712 243.032,228.444 243.032,229.416 C243.032,231.588 245.996,231.084 245.996,232.452 C245.996,232.98 245.612,233.388 244.94,233.388 C244.328,233.388 243.824,233.076 243.404,232.548 L242.684,233.172 C243.236,233.856 243.992,234.24 244.952,234.24 Z M157.97,249.12 C158.402,249.12 158.726,249.072 159.014,248.952 L159.014,248.04 C158.786,248.136 158.51,248.184 158.114,248.184 C157.382,248.184 156.902,247.92 156.902,246.972 L156.902,243.888 L159.002,243.888 L159.002,242.952 L156.902,242.952 L156.902,241.44 L155.87,241.44 L155.87,242.952 L154.73,242.952 L154.73,243.888 L155.87,243.888 L155.87,246.972 C155.87,248.448 156.626,249.12 157.97,249.12 Z M163.346,249.24 C164.474,249.24 165.374,248.76 165.938,248.004 L165.182,247.416 C164.786,247.956 164.138,248.316 163.37,248.316 C162.014,248.316 161.102,247.344 161.102,246.012 L161.102,245.988 L165.734,245.988 C165.77,245.82 165.806,245.58 165.806,245.34 C165.806,243.828 164.738,242.712 163.094,242.712 C161.222,242.712 160.046,244.14 160.046,245.976 C160.046,247.74 161.306,249.24 163.346,249.24 Z M164.774,245.184 L161.186,245.184 C161.426,244.14 162.122,243.588 163.106,243.588 C164.102,243.588 164.738,244.308 164.774,245.184 Z M168.554,249 L168.554,244.812 C168.902,244.188 169.418,243.672 170.246,243.672 C171.122,243.672 171.662,244.248 171.662,245.256 L171.662,249 L172.694,249 L172.694,245.22 C172.694,245.088 172.682,244.956 172.67,244.824 C173.078,244.116 173.606,243.672 174.374,243.672 C175.238,243.672 175.802,244.248 175.802,245.256 L175.802,249 L176.822,249 L176.822,245.22 C176.822,243.576 175.874,242.712 174.578,242.712 C173.582,242.712 172.922,243.24 172.442,243.924 C172.07,243.12 171.338,242.712 170.45,242.712 C169.61,242.712 169.01,243.084 168.554,243.612 L168.554,242.952 L167.534,242.952 L167.534,249 L168.554,249 Z M179.894,251.952 L179.894,248.328 C180.446,248.916 181.166,249.24 182.042,249.24 C183.938,249.24 185.15,247.74 185.15,245.976 C185.15,244.212 183.938,242.712 182.042,242.712 C181.166,242.712 180.446,243.036 179.894,243.624 L179.894,242.952 L178.874,242.952 L178.874,251.952 L179.894,251.952 Z M181.922,248.28 C181.082,248.28 180.362,247.872 179.894,247.128 L179.894,244.824 C180.362,244.08 181.082,243.672 181.922,243.672 C183.206,243.672 184.082,244.692 184.082,245.976 C184.082,247.26 183.206,248.28 181.922,248.28 Z M189.866,241.992 L191.27,240 L190.118,240 L188.87,241.992 L189.866,241.992 Z M189.578,249.24 C190.706,249.24 191.606,248.76 192.17,248.004 L191.414,247.416 C191.018,247.956 190.37,248.316 189.602,248.316 C188.246,248.316 187.334,247.344 187.334,246.012 L187.334,245.988 L191.966,245.988 C192.002,245.82 192.038,245.58 192.038,245.34 C192.038,243.828 190.97,242.712 189.326,242.712 C187.454,242.712 186.278,244.14 186.278,245.976 C186.278,247.74 187.538,249.24 189.578,249.24 Z M191.006,245.184 L187.418,245.184 C187.658,244.14 188.354,243.588 189.338,243.588 C190.334,243.588 190.97,244.308 191.006,245.184 Z M194.786,249 L194.786,244.896 C195.158,244.284 195.674,243.876 196.466,243.876 C196.706,243.876 196.886,243.912 197.066,243.96 L197.066,242.904 C196.922,242.856 196.742,242.832 196.55,242.832 C195.782,242.832 195.23,243.18 194.786,243.708 L194.786,242.952 L193.766,242.952 L193.766,249 L194.786,249 Z M200.186,249.24 C201.002,249.24 201.758,248.868 202.214,248.232 L202.214,249 L203.234,249 L203.234,244.944 C203.234,243.612 202.322,242.712 200.786,242.712 C199.73,242.712 198.878,243.156 198.35,243.876 L199.118,244.464 C199.466,243.936 200.054,243.624 200.762,243.624 C201.614,243.624 202.214,244.104 202.214,244.944 L202.214,245.364 L200.186,245.7 C198.89,245.904 198.194,246.576 198.194,247.512 C198.194,248.568 198.998,249.24 200.186,249.24 Z M200.354,248.388 C199.658,248.388 199.214,247.992 199.214,247.476 C199.214,246.948 199.586,246.564 200.426,246.432 L202.214,246.12 L202.214,247.272 C201.794,247.968 201.158,248.388 200.354,248.388 Z M207.746,249.12 C208.178,249.12 208.502,249.072 208.79,248.952 L208.79,248.04 C208.562,248.136 208.286,248.184 207.89,248.184 C207.158,248.184 206.678,247.92 206.678,246.972 L206.678,243.888 L208.778,243.888 L208.778,242.952 L206.678,242.952 L206.678,241.44 L205.646,241.44 L205.646,242.952 L204.506,242.952 L204.506,243.888 L205.646,243.888 L205.646,246.972 C205.646,248.448 206.402,249.12 207.746,249.12 Z M212.882,249.24 C214.526,249.24 215.57,248.184 215.57,246.372 L215.57,242.952 L214.538,242.952 L214.538,246.408 C214.538,247.596 213.902,248.28 212.894,248.28 C211.862,248.28 211.226,247.596 211.226,246.408 L211.226,242.952 L210.206,242.952 L210.206,246.372 C210.206,248.184 211.25,249.24 212.882,249.24 Z M218.606,249 L218.606,244.896 C218.978,244.284 219.494,243.876 220.286,243.876 C220.526,243.876 220.706,243.912 220.886,243.96 L220.886,242.904 C220.742,242.856 220.562,242.832 220.37,242.832 C219.602,242.832 219.05,243.18 218.606,243.708 L218.606,242.952 L217.586,242.952 L217.586,249 L218.606,249 Z M225.134,249.24 C226.262,249.24 227.162,248.76 227.726,248.004 L226.97,247.416 C226.574,247.956 225.926,248.316 225.158,248.316 C223.802,248.316 222.89,247.344 222.89,246.012 L222.89,245.988 L227.522,245.988 C227.558,245.82 227.594,245.58 227.594,245.34 C227.594,243.828 226.526,242.712 224.882,242.712 C223.01,242.712 221.834,244.14 221.834,245.976 C221.834,247.74 223.094,249.24 225.134,249.24 Z M226.562,245.184 L222.974,245.184 C223.214,244.14 223.91,243.588 224.894,243.588 C225.89,243.588 226.526,244.308 226.562,245.184 Z M230.942,249.24 C232.07,249.24 232.97,248.532 232.982,247.404 C232.982,245.292 230.018,245.772 230.018,244.392 C230.018,243.9 230.354,243.564 230.978,243.564 C231.53,243.564 231.974,243.84 232.31,244.32 L233.018,243.708 C232.598,243.12 231.854,242.712 230.966,242.712 C229.826,242.712 229.022,243.444 229.022,244.416 C229.022,246.588 231.986,246.084 231.986,247.452 C231.986,247.98 231.602,248.388 230.93,248.388 C230.318,248.388 229.814,248.076 229.394,247.548 L228.674,248.172 C229.226,248.856 229.982,249.24 230.942,249.24 Z" id="Augmentationdestempératures" fill="#666666" fill-rule="nonzero"></path>
                <path d="M47.928,234 L47.928,233.016 L44.544,233.016 L44.544,230.208 L47.448,230.208 L47.448,229.236 L44.544,229.236 L44.544,226.584 L47.928,226.584 L47.928,225.6 L43.416,225.6 L43.416,234 L47.928,234 Z M50.94,234 L50.94,225 L49.92,225 L49.92,234 L50.94,234 Z M56.172,226.992 L57.576,225 L56.424,225 L55.176,226.992 L56.172,226.992 Z M55.884,234.24 C57.012,234.24 57.912,233.76 58.476,233.004 L57.72,232.416 C57.324,232.956 56.676,233.316 55.908,233.316 C54.552,233.316 53.64,232.344 53.64,231.012 L53.64,230.988 L58.272,230.988 C58.308,230.82 58.344,230.58 58.344,230.34 C58.344,228.828 57.276,227.712 55.632,227.712 C53.76,227.712 52.584,229.14 52.584,230.976 C52.584,232.74 53.844,234.24 55.884,234.24 Z M57.312,230.184 L53.724,230.184 C53.964,229.14 54.66,228.588 55.644,228.588 C56.64,228.588 57.276,229.308 57.312,230.184 Z M62.868,234 L65.232,227.952 L64.128,227.952 L62.196,232.932 L60.264,227.952 L59.16,227.952 L61.524,234 L62.868,234 Z M68.136,234.24 C68.952,234.24 69.708,233.868 70.164,233.232 L70.164,234 L71.184,234 L71.184,229.944 C71.184,228.612 70.272,227.712 68.736,227.712 C67.68,227.712 66.828,228.156 66.3,228.876 L67.068,229.464 C67.416,228.936 68.004,228.624 68.712,228.624 C69.564,228.624 70.164,229.104 70.164,229.944 L70.164,230.364 L68.136,230.7 C66.84,230.904 66.144,231.576 66.144,232.512 C66.144,233.568 66.948,234.24 68.136,234.24 Z M68.304,233.388 C67.608,233.388 67.164,232.992 67.164,232.476 C67.164,231.948 67.536,231.564 68.376,231.432 L70.164,231.12 L70.164,232.272 C69.744,232.968 69.108,233.388 68.304,233.388 Z M75.696,234.12 C76.128,234.12 76.452,234.072 76.74,233.952 L76.74,233.04 C76.512,233.136 76.236,233.184 75.84,233.184 C75.108,233.184 74.628,232.92 74.628,231.972 L74.628,228.888 L76.728,228.888 L76.728,227.952 L74.628,227.952 L74.628,226.44 L73.596,226.44 L73.596,227.952 L72.456,227.952 L72.456,228.888 L73.596,228.888 L73.596,231.972 C73.596,233.448 74.352,234.12 75.696,234.12 Z M78.804,226.38 C79.2,226.38 79.512,226.056 79.512,225.66 C79.512,225.276 79.2,224.952 78.804,224.952 C78.408,224.952 78.084,225.276 78.084,225.66 C78.084,226.056 78.408,226.38 78.804,226.38 Z M79.308,234 L79.308,227.952 L78.288,227.952 L78.288,234 L79.308,234 Z M84.228,234.24 C86.172,234.24 87.504,232.74 87.504,230.976 C87.504,229.212 86.172,227.712 84.228,227.712 C82.272,227.712 80.952,229.212 80.952,230.976 C80.952,232.74 82.272,234.24 84.228,234.24 Z M84.24,233.28 C82.944,233.28 82.02,232.236 82.02,230.976 C82.02,229.716 82.944,228.672 84.24,228.672 C85.5,228.672 86.424,229.716 86.424,230.976 C86.424,232.224 85.5,233.28 84.24,233.28 Z M90.168,234 L90.168,229.812 C90.552,229.176 91.104,228.672 91.98,228.672 C92.916,228.672 93.516,229.296 93.516,230.376 L93.516,234 L94.548,234 L94.548,230.34 C94.548,228.624 93.54,227.712 92.184,227.712 C91.284,227.712 90.66,228.096 90.168,228.636 L90.168,227.952 L89.148,227.952 L89.148,234 L90.168,234 Z M102.432,234.24 C103.308,234.24 104.028,233.916 104.58,233.328 L104.58,234 L105.6,234 L105.6,225 L104.58,225 L104.58,228.624 C104.028,228.036 103.308,227.712 102.432,227.712 C100.536,227.712 99.324,229.212 99.324,230.976 C99.324,232.74 100.536,234.24 102.432,234.24 Z M102.552,233.28 C101.268,233.28 100.404,232.26 100.404,230.976 C100.404,229.692 101.268,228.672 102.552,228.672 C103.38,228.672 104.1,229.068 104.58,229.8 L104.58,232.152 C104.112,232.872 103.392,233.28 102.552,233.28 Z M110.292,234.24 C111.936,234.24 112.98,233.184 112.98,231.372 L112.98,227.952 L111.948,227.952 L111.948,231.408 C111.948,232.596 111.312,233.28 110.304,233.28 C109.272,233.28 108.636,232.596 108.636,231.408 L108.636,227.952 L107.616,227.952 L107.616,231.372 C107.616,233.184 108.66,234.24 110.292,234.24 Z M32.274,249 L32.274,244.812 C32.658,244.176 33.21,243.672 34.086,243.672 C35.022,243.672 35.622,244.296 35.622,245.376 L35.622,249 L36.654,249 L36.654,245.34 C36.654,243.624 35.646,242.712 34.29,242.712 C33.39,242.712 32.766,243.096 32.274,243.636 L32.274,242.952 L31.254,242.952 L31.254,249 L32.274,249 Z M39.222,241.38 C39.618,241.38 39.93,241.056 39.93,240.66 C39.93,240.276 39.618,239.952 39.222,239.952 C38.826,239.952 38.502,240.276 38.502,240.66 C38.502,241.056 38.826,241.38 39.222,241.38 Z M39.726,249 L39.726,242.952 L38.706,242.952 L38.706,249 L39.726,249 Z M44.682,249 L47.046,242.952 L45.942,242.952 L44.01,247.932 L42.078,242.952 L40.974,242.952 L43.338,249 L44.682,249 Z M51.078,249.24 C52.206,249.24 53.106,248.76 53.67,248.004 L52.914,247.416 C52.518,247.956 51.87,248.316 51.102,248.316 C49.746,248.316 48.834,247.344 48.834,246.012 L48.834,245.988 L53.466,245.988 C53.502,245.82 53.538,245.58 53.538,245.34 C53.538,243.828 52.47,242.712 50.826,242.712 C48.954,242.712 47.778,244.14 47.778,245.976 C47.778,247.74 49.038,249.24 51.078,249.24 Z M52.506,245.184 L48.918,245.184 C49.158,244.14 49.854,243.588 50.838,243.588 C51.834,243.588 52.47,244.308 52.506,245.184 Z M56.922,249.24 C57.738,249.24 58.494,248.868 58.95,248.232 L58.95,249 L59.97,249 L59.97,244.944 C59.97,243.612 59.058,242.712 57.522,242.712 C56.466,242.712 55.614,243.156 55.086,243.876 L55.854,244.464 C56.202,243.936 56.79,243.624 57.498,243.624 C58.35,243.624 58.95,244.104 58.95,244.944 L58.95,245.364 L56.922,245.7 C55.626,245.904 54.93,246.576 54.93,247.512 C54.93,248.568 55.734,249.24 56.922,249.24 Z M57.09,248.388 C56.394,248.388 55.95,247.992 55.95,247.476 C55.95,246.948 56.322,246.564 57.162,246.432 L58.95,246.12 L58.95,247.272 C58.53,247.968 57.894,248.388 57.09,248.388 Z M64.578,249.24 C66.222,249.24 67.266,248.184 67.266,246.372 L67.266,242.952 L66.234,242.952 L66.234,246.408 C66.234,247.596 65.598,248.28 64.59,248.28 C63.558,248.28 62.922,247.596 62.922,246.408 L62.922,242.952 L61.902,242.952 L61.902,246.372 C61.902,248.184 62.946,249.24 64.578,249.24 Z M75.114,249.24 C75.99,249.24 76.71,248.916 77.262,248.328 L77.262,249 L78.282,249 L78.282,240 L77.262,240 L77.262,243.624 C76.71,243.036 75.99,242.712 75.114,242.712 C73.218,242.712 72.006,244.212 72.006,245.976 C72.006,247.74 73.218,249.24 75.114,249.24 Z M75.234,248.28 C73.95,248.28 73.086,247.26 73.086,245.976 C73.086,244.692 73.95,243.672 75.234,243.672 C76.062,243.672 76.782,244.068 77.262,244.8 L77.262,247.152 C76.794,247.872 76.074,248.28 75.234,248.28 Z M83.214,249.24 C84.342,249.24 85.242,248.76 85.806,248.004 L85.05,247.416 C84.654,247.956 84.006,248.316 83.238,248.316 C81.882,248.316 80.97,247.344 80.97,246.012 L80.97,245.988 L85.602,245.988 C85.638,245.82 85.674,245.58 85.674,245.34 C85.674,243.828 84.606,242.712 82.962,242.712 C81.09,242.712 79.914,244.14 79.914,245.976 C79.914,247.74 81.174,249.24 83.214,249.24 Z M84.642,245.184 L81.054,245.184 C81.294,244.14 81.99,243.588 82.974,243.588 C83.97,243.588 84.606,244.308 84.642,245.184 Z M91.662,249 L91.662,240 L90.642,240 L90.642,249 L91.662,249 Z M95.478,249.24 C96.294,249.24 97.05,248.868 97.506,248.232 L97.506,249 L98.526,249 L98.526,244.944 C98.526,243.612 97.614,242.712 96.078,242.712 C95.022,242.712 94.17,243.156 93.642,243.876 L94.41,244.464 C94.758,243.936 95.346,243.624 96.054,243.624 C96.906,243.624 97.506,244.104 97.506,244.944 L97.506,245.364 L95.478,245.7 C94.182,245.904 93.486,246.576 93.486,247.512 C93.486,248.568 94.29,249.24 95.478,249.24 Z M95.646,248.388 C94.95,248.388 94.506,247.992 94.506,247.476 C94.506,246.948 94.878,246.564 95.718,246.432 L97.506,246.12 L97.506,247.272 C97.086,247.968 96.45,248.388 95.646,248.388 Z M104.85,249 L104.85,244.812 C105.198,244.188 105.714,243.672 106.542,243.672 C107.418,243.672 107.958,244.248 107.958,245.256 L107.958,249 L108.99,249 L108.99,245.22 C108.99,245.088 108.978,244.956 108.966,244.824 C109.374,244.116 109.902,243.672 110.67,243.672 C111.534,243.672 112.098,244.248 112.098,245.256 L112.098,249 L113.118,249 L113.118,245.22 C113.118,243.576 112.17,242.712 110.874,242.712 C109.878,242.712 109.218,243.24 108.738,243.924 C108.366,243.12 107.634,242.712 106.746,242.712 C105.906,242.712 105.306,243.084 104.85,243.612 L104.85,242.952 L103.83,242.952 L103.83,249 L104.85,249 Z M117.954,249.24 C119.082,249.24 119.982,248.76 120.546,248.004 L119.79,247.416 C119.394,247.956 118.746,248.316 117.978,248.316 C116.622,248.316 115.71,247.344 115.71,246.012 L115.71,245.988 L120.342,245.988 C120.378,245.82 120.414,245.58 120.414,245.34 C120.414,243.828 119.346,242.712 117.702,242.712 C115.83,242.712 114.654,244.14 114.654,245.976 C114.654,247.74 115.914,249.24 117.954,249.24 Z M119.382,245.184 L115.794,245.184 C116.034,244.14 116.73,243.588 117.714,243.588 C118.71,243.588 119.346,244.308 119.382,245.184 Z M123.162,249 L123.162,244.896 C123.534,244.284 124.05,243.876 124.842,243.876 C125.082,243.876 125.262,243.912 125.442,243.96 L125.442,242.904 C125.298,242.856 125.118,242.832 124.926,242.832 C124.158,242.832 123.606,243.18 123.162,243.708 L123.162,242.952 L122.142,242.952 L122.142,249 L123.162,249 Z" id="Elévationduniveaudelamer" fill="#666666" fill-rule="nonzero"></path>
                <path d="M160.738,151 L160.738,143.632 L163.522,143.632 L163.522,142.6 L156.826,142.6 L156.826,143.632 L159.61,143.632 L159.61,151 L160.738,151 Z M167.818,151.24 C168.946,151.24 169.846,150.76 170.41,150.004 L169.654,149.416 C169.258,149.956 168.61,150.316 167.842,150.316 C166.486,150.316 165.574,149.344 165.574,148.012 L165.574,147.988 L170.206,147.988 C170.242,147.82 170.278,147.58 170.278,147.34 C170.278,145.828 169.21,144.712 167.566,144.712 C165.694,144.712 164.518,146.14 164.518,147.976 C164.518,149.74 165.778,151.24 167.818,151.24 Z M169.246,147.184 L165.658,147.184 C165.898,146.14 166.594,145.588 167.578,145.588 C168.574,145.588 169.21,146.308 169.246,147.184 Z M173.026,151 L173.026,146.812 C173.374,146.188 173.89,145.672 174.718,145.672 C175.594,145.672 176.134,146.248 176.134,147.256 L176.134,151 L177.166,151 L177.166,147.22 C177.166,147.088 177.154,146.956 177.142,146.824 C177.55,146.116 178.078,145.672 178.846,145.672 C179.71,145.672 180.274,146.248 180.274,147.256 L180.274,151 L181.294,151 L181.294,147.22 C181.294,145.576 180.346,144.712 179.05,144.712 C178.054,144.712 177.394,145.24 176.914,145.924 C176.542,145.12 175.81,144.712 174.922,144.712 C174.082,144.712 173.482,145.084 173.026,145.612 L173.026,144.952 L172.006,144.952 L172.006,151 L173.026,151 Z M184.366,153.952 L184.366,150.328 C184.918,150.916 185.638,151.24 186.514,151.24 C188.41,151.24 189.622,149.74 189.622,147.976 C189.622,146.212 188.41,144.712 186.514,144.712 C185.638,144.712 184.918,145.036 184.366,145.624 L184.366,144.952 L183.346,144.952 L183.346,153.952 L184.366,153.952 Z M186.394,150.28 C185.554,150.28 184.834,149.872 184.366,149.128 L184.366,146.824 C184.834,146.08 185.554,145.672 186.394,145.672 C187.678,145.672 188.554,146.692 188.554,147.976 C188.554,149.26 187.678,150.28 186.394,150.28 Z M192.814,143.992 L193.834,142.504 L194.842,143.992 L195.766,143.992 L194.518,142 L193.138,142 L191.878,143.992 L192.814,143.992 Z M194.05,151.24 C195.178,151.24 196.078,150.76 196.642,150.004 L195.886,149.416 C195.49,149.956 194.842,150.316 194.074,150.316 C192.718,150.316 191.806,149.344 191.806,148.012 L191.806,147.988 L196.438,147.988 C196.474,147.82 196.51,147.58 196.51,147.34 C196.51,145.828 195.442,144.712 193.798,144.712 C191.926,144.712 190.75,146.14 190.75,147.976 C190.75,149.74 192.01,151.24 194.05,151.24 Z M195.478,147.184 L191.89,147.184 C192.13,146.14 192.826,145.588 193.81,145.588 C194.806,145.588 195.442,146.308 195.478,147.184 Z M200.686,151.12 C201.118,151.12 201.442,151.072 201.73,150.952 L201.73,150.04 C201.502,150.136 201.226,150.184 200.83,150.184 C200.098,150.184 199.618,149.92 199.618,148.972 L199.618,145.888 L201.718,145.888 L201.718,144.952 L199.618,144.952 L199.618,143.44 L198.586,143.44 L198.586,144.952 L197.446,144.952 L197.446,145.888 L198.586,145.888 L198.586,148.972 C198.586,150.448 199.342,151.12 200.686,151.12 Z M206.062,151.24 C207.19,151.24 208.09,150.76 208.654,150.004 L207.898,149.416 C207.502,149.956 206.854,150.316 206.086,150.316 C204.73,150.316 203.818,149.344 203.818,148.012 L203.818,147.988 L208.45,147.988 C208.486,147.82 208.522,147.58 208.522,147.34 C208.522,145.828 207.454,144.712 205.81,144.712 C203.938,144.712 202.762,146.14 202.762,147.976 C202.762,149.74 204.022,151.24 206.062,151.24 Z M207.49,147.184 L203.902,147.184 C204.142,146.14 204.838,145.588 205.822,145.588 C206.818,145.588 207.454,146.308 207.49,147.184 Z M211.87,151.24 C212.998,151.24 213.898,150.532 213.91,149.404 C213.91,147.292 210.946,147.772 210.946,146.392 C210.946,145.9 211.282,145.564 211.906,145.564 C212.458,145.564 212.902,145.84 213.238,146.32 L213.946,145.708 C213.526,145.12 212.782,144.712 211.894,144.712 C210.754,144.712 209.95,145.444 209.95,146.416 C209.95,148.588 212.914,148.084 212.914,149.452 C212.914,149.98 212.53,150.388 211.858,150.388 C211.246,150.388 210.742,150.076 210.322,149.548 L209.602,150.172 C210.154,150.856 210.91,151.24 211.87,151.24 Z M215.962,152.92 L217.198,149.74 L216.034,149.74 L215.014,152.92 L215.962,152.92 Z M224.818,151.24 C225.922,151.24 226.798,150.76 227.362,150.004 L226.546,149.38 C226.174,149.92 225.574,150.28 224.83,150.28 C223.522,150.28 222.598,149.272 222.598,147.976 C222.598,146.692 223.522,145.672 224.818,145.672 C225.562,145.672 226.174,146.032 226.546,146.572 L227.362,145.948 C226.798,145.204 225.91,144.712 224.818,144.712 C222.814,144.712 221.53,146.212 221.53,147.976 C221.53,149.74 222.814,151.24 224.818,151.24 Z M228.778,154 C229.798,154 230.494,153.472 230.914,152.464 L234.094,144.952 L233.014,144.952 L231.01,149.692 L228.982,144.952 L227.854,144.952 L230.47,150.988 L230.002,152.092 C229.69,152.836 229.21,153.064 228.598,153.064 C228.31,153.064 228.034,153.004 227.806,152.896 L227.806,153.808 C228.07,153.94 228.37,154 228.778,154 Z M238.126,151.24 C239.23,151.24 240.106,150.76 240.67,150.004 L239.854,149.38 C239.482,149.92 238.882,150.28 238.138,150.28 C236.83,150.28 235.906,149.272 235.906,147.976 C235.906,146.692 236.83,145.672 238.126,145.672 C238.87,145.672 239.482,146.032 239.854,146.572 L240.67,145.948 C240.106,145.204 239.218,144.712 238.126,144.712 C236.122,144.712 234.838,146.212 234.838,147.976 C234.838,149.74 236.122,151.24 238.126,151.24 Z M243.094,151 L243.094,142 L242.074,142 L242.074,151 L243.094,151 Z M248.014,151.24 C249.958,151.24 251.29,149.74 251.29,147.976 C251.29,146.212 249.958,144.712 248.014,144.712 C246.058,144.712 244.738,146.212 244.738,147.976 C244.738,149.74 246.058,151.24 248.014,151.24 Z M248.026,150.28 C246.73,150.28 245.806,149.236 245.806,147.976 C245.806,146.716 246.73,145.672 248.026,145.672 C249.286,145.672 250.21,146.716 250.21,147.976 C250.21,149.224 249.286,150.28 248.026,150.28 Z M253.954,151 L253.954,146.812 C254.338,146.176 254.89,145.672 255.766,145.672 C256.702,145.672 257.302,146.296 257.302,147.376 L257.302,151 L258.334,151 L258.334,147.34 C258.334,145.624 257.326,144.712 255.97,144.712 C255.07,144.712 254.446,145.096 253.954,145.636 L253.954,144.952 L252.934,144.952 L252.934,151 L253.954,151 Z M263.17,151.24 C264.298,151.24 265.198,150.76 265.762,150.004 L265.006,149.416 C264.61,149.956 263.962,150.316 263.194,150.316 C261.838,150.316 260.926,149.344 260.926,148.012 L260.926,147.988 L265.558,147.988 C265.594,147.82 265.63,147.58 265.63,147.34 C265.63,145.828 264.562,144.712 262.918,144.712 C261.046,144.712 259.87,146.14 259.87,147.976 C259.87,149.74 261.13,151.24 263.17,151.24 Z M264.598,147.184 L261.01,147.184 C261.25,146.14 261.946,145.588 262.93,145.588 C263.926,145.588 264.562,146.308 264.598,147.184 Z M268.978,151.24 C270.106,151.24 271.006,150.532 271.018,149.404 C271.018,147.292 268.054,147.772 268.054,146.392 C268.054,145.9 268.39,145.564 269.014,145.564 C269.566,145.564 270.01,145.84 270.346,146.32 L271.054,145.708 C270.634,145.12 269.89,144.712 269.002,144.712 C267.862,144.712 267.058,145.444 267.058,146.416 C267.058,148.588 270.022,148.084 270.022,149.452 C270.022,149.98 269.638,150.388 268.966,150.388 C268.354,150.388 267.85,150.076 267.43,149.548 L266.71,150.172 C267.262,150.856 268.018,151.24 268.978,151.24 Z" id="Tempêtes,cyclones" fill="#666666" fill-rule="nonzero"></path>
                <g id="Group-11" transform="translate(54.000000, 166.000000)">
                    <circle id="Oval" fill="#24A399" cx="24" cy="24" r="24"></circle>
                    <g id="Icon/elevation" transform="translate(12.000000, 11.000000)" fill="#FFFFFF">
                        <path d="M23,5 C23.5522847,5 24,5.44771525 24,6 C24,6.51283584 23.6139598,6.93550716 23.1166211,6.99327227 L23,7 L20.781,7 L19.9701425,10.2425356 L19.9284767,10.3713907 L17.9284767,15.3713907 C17.9067401,15.4257322 17.8802959,15.4780078 17.8494743,15.52763 L17.8,15.6 L14.8,19.6 L14.718065,19.695976 L14.624695,19.7808688 L9.62469505,23.7808688 C9.51656699,23.8673713 9.39206123,23.9301562 9.25927763,23.9658033 L9.12403473,23.9922779 L1.12403473,24.9922779 C0.576014796,25.0607804 0.0762246156,24.6720547 0.00772212329,24.1240347 C-0.0558873339,23.6151591 0.274745881,23.1478693 0.761079175,23.028863 L0.875965265,23.0077221 L8.596,22.042 L13.277,18.298 L16.119,14.508 L18.045,9.693 L19.0298575,5.75746437 C19.1318749,5.34939462 19.4764733,5.05297227 19.8866428,5.00640236 L20,5 L23,5 Z M6,18 C7.0932688,18 7.7066522,18.3270325 8.5377728,19.1266298 L8.71197679,19.2977632 C9.10250521,19.6882834 9.10251191,20.3214483 8.71199175,20.7119768 C8.3515116,21.0724645 7.78428083,21.1002001 7.3919864,20.7951793 L7.29289322,20.7071068 C6.71369617,20.1279097 6.50051328,20 6,20 C5.53798774,20 5.32080138,20.1089882 4.83456773,20.5813098 L4.70710678,20.7071068 C3.78630383,21.6279097 3.16615338,22 2,22 C1.44771525,22 1,21.5522847 1,21 C1,20.4871642 1.38604019,20.0644928 1.88337887,20.0067277 L2,20 C2.46201226,20 2.67919862,19.8910118 3.16543227,19.4186902 L3.29289322,19.2928932 C4.21369617,18.3720903 4.83384662,18 6,18 Z M6,14 C7.0932688,14 7.7066522,14.3270325 8.5377728,15.1266298 L8.70710678,15.2928932 C9.28630383,15.8720903 9.49948672,16 10,16 C10.4620123,16 10.6791986,15.8910118 11.1654323,15.4186902 L11.2928932,15.2928932 C11.806905,14.7788814 12.0777403,14.5505946 12.534411,14.3261684 C13.030075,14.0825794 13.629358,14.2869266 13.872947,14.7825906 C14.1165361,15.2782546 13.9121889,15.8775376 13.4165249,16.1211267 C13.2859411,16.1853007 13.1750158,16.2635013 13.0083458,16.4157336 L12.8203015,16.5948657 L12.7071068,16.7071068 C11.7863038,17.6279097 11.1661534,18 10,18 C8.9067312,18 8.2933478,17.6729675 7.4622272,16.8733702 L7.29289322,16.7071068 C6.71369617,16.1279097 6.50051328,16 6,16 C5.53798774,16 5.32080138,16.1089882 4.83456773,16.5813098 L4.70710678,16.7071068 C3.78630383,17.6279097 3.16615338,18 2,18 C1.44771525,18 1,17.5522847 1,17 C1,16.4871642 1.38604019,16.0644928 1.88337887,16.0067277 L2,16 C2.46201226,16 2.67919862,15.8910118 3.16543227,15.4186902 L3.29289322,15.2928932 C4.21369617,14.3720903 4.83384662,14 6,14 Z M14,10 C14.5426383,10 15.0253297,10.110321 15.4629301,10.3248633 C15.9588236,10.5679849 16.1637357,11.1670749 15.9206141,11.6629684 C15.6948583,12.1234409 15.1621705,12.3330162 14.690184,12.1659494 L14.5825089,12.1206524 C14.4209623,12.041451 14.2396004,12 14,12 C13.5379877,12 13.3208014,12.1089882 12.8345677,12.5813098 L12.7071068,12.7071068 C11.7863038,13.6279097 11.1661534,14 10,14 C8.9067312,14 8.2933478,13.6729675 7.4622272,12.8733702 L7.29289322,12.7071068 C6.71369617,12.1279097 6.50051328,12 6,12 C5.53798774,12 5.32080138,12.1089882 4.83456773,12.5813098 L4.70710678,12.7071068 C3.78630383,13.6279097 3.16615338,14 2,14 C1.44771525,14 1,13.5522847 1,13 C1,12.4871642 1.38604019,12.0644928 1.88337887,12.0067277 L2,12 C2.46201226,12 2.67919862,11.8910118 3.16543227,11.4186902 L3.29289322,11.2928932 C4.21369617,10.3720903 4.83384662,10 6,10 C7.0932688,10 7.7066522,10.3270325 8.5377728,11.1266298 L8.70710678,11.2928932 C9.28630383,11.8720903 9.49948672,12 10,12 C10.4620123,12 10.6791986,11.8910118 11.1654323,11.4186902 L11.2928932,11.2928932 C12.2136962,10.3720903 12.8338466,10 14,10 Z M10,0.585786438 L13.2071068,3.79289322 C13.5976311,4.18341751 13.5976311,4.81658249 13.2071068,5.20710678 C12.8466228,5.56759074 12.2793918,5.59532028 11.8871006,5.29029539 L11.7928932,5.20710678 L10.9998947,4.41478644 L11,9 C11,9.55228475 10.5522847,10 10,10 C9.48716416,10 9.06449284,9.61395981 9.00672773,9.11662113 L9,9 L8.99989471,4.41378644 L8.20710678,5.20710678 C7.84662282,5.56759074 7.27939176,5.59532028 6.88710056,5.29029539 L6.79289322,5.20710678 C6.43240926,4.84662282 6.40467972,4.27939176 6.70970461,3.88710056 L6.79289322,3.79289322 L9.2852747,1.3005942 C9.29029526,1.29546436 9.29537061,1.29038835 9.30049979,1.28536711 L10,0.585786438 Z" id="Combined-Shape"></path>
                    </g>
                </g>
                <g id="Group-9" transform="translate(194.000000, 83.000000)">
                    <circle id="Oval-Copy-4" fill="#24A399" cx="24" cy="24" r="24"></circle>
                    <g id="Icon/pluie" transform="translate(12.000000, 17.000000)" fill="#FFFFFF">
                        <path d="M19,9 C21.209139,9 23,10.790861 23,13 C23,15.209139 21.209139,17 19,17 C16.790861,17 15,15.209139 15,13 C15,12.4477153 15.4477153,12 16,12 C16.5522847,12 17,12.4477153 17,13 C17,14.1045695 17.8954305,15 19,15 C20.1045695,15 21,14.1045695 21,13 C21,11.9456382 20.1841222,11.0818349 19.1492623,11.0054857 L19,11 L11,11 C10.4477153,11 10,10.5522847 10,10 C10,9.48716416 10.3860402,9.06449284 10.8833789,9.00672773 L11,9 L19,9 Z M9,0 C11.2755925,0 13.3240834,1.27869846 14.3429224,3.26762456 C14.5947194,3.75916982 14.400365,4.36176774 13.9088197,4.61356468 C13.4172744,4.86536162 12.8146765,4.67100721 12.5628796,4.17946195 C11.8829805,2.85219744 10.5177496,2 9,2 C6.85780461,2 5.10892112,3.68396847 5.00474821,5.78398218 L4.99983868,5.98203865 L5.01628451,6.89751426 L4.25094433,7.0940211 C2.93650859,7.43151234 2,8.62262535 2,10 C2,11.5416604 3.1661416,12.8201124 4.65205091,12.9817585 L4.82487292,12.9954052 L5,13 L13,13 C13.5522847,13 14,13.4477153 14,14 C14,14.5128358 13.6139598,14.9355072 13.1166211,14.9932723 L13,15 L4.97548674,14.9996995 L4.75126647,14.9938989 C2.0955264,14.8633628 -1.20792265e-13,12.6686219 -1.20792265e-13,10 C-1.20792265e-13,8.01028253 1.17172812,6.25470624 2.9121214,5.45529294 L3.029,5.404 L3.03681119,5.33159871 C3.36112143,2.4056165 5.78949258,0.114175464 8.77506174,0.00413847206 L9,0 Z M21.5,1 C23.4329966,1 25,2.56700338 25,4.5 C25,6.3685634 23.5357224,7.89512645 21.6920352,7.99482114 L21.5,8 L15.5,8 C14.9477153,8 14.5,7.55228475 14.5,7 C14.5,6.48716416 14.8860402,6.06449284 15.3833789,6.00672773 L15.5,6 L21.5,6 C22.3284271,6 23,5.32842712 23,4.5 C23,3.67157288 22.3284271,3 21.5,3 C20.7203039,3 20.0795513,3.59488808 20.0068666,4.35553999 L20,4.5 C20,5.05228475 19.5522847,5.5 19,5.5 C18.4477153,5.5 18,5.05228475 18,4.5 C18,2.56700338 19.5670034,1 21.5,1 Z" id="Combined-Shape"></path>
                    </g>
                </g>
                <g id="Group-4" transform="translate(170.000000, 166.000000)">
                    <circle id="Oval-Copy" fill="#24A399" cx="24" cy="24" r="24"></circle>
                    <g id="Icon/temperature" transform="translate(16.000000, 12.000000)" fill="#FFFFFF">
                        <path d="M6,0 C8.209139,0 10,1.790861 10,3.99989096 L10,3.99989096 L10.001,13.528 L10.1806601,13.6959815 C11.2681948,14.7517466 11.9280076,16.1892164 11.994449,17.7404531 L11.994449,17.7404531 L12,18 C12,21.3137085 9.3137085,24 6,24 C2.6862915,24 0,21.3137085 0,18 C0,16.3496535 0.67176249,14.8095544 1.82027017,13.6950777 L1.82027017,13.6950777 L1.999,13.528 L2,4 C2,1.85780461 3.68396847,0.108921124 5.80035966,0.00489530723 L5.80035966,0.00489530723 Z M6,2 C4.8954305,2 4,2.8954305 4,4.00001767 L4,4.00001767 L3.99979684,14.4993048 L3.60042205,14.7993171 C2.59952808,15.5511936 2,16.7248384 2,18 C2,20.209139 3.790861,22 6,22 C8.209139,22 10,20.209139 10,18 C10,16.7251927 9.40080854,15.5518387 8.40038284,14.7999219 L8.40038284,14.7999219 L8.00125393,14.4999379 L8,4 C8,2.8954305 7.1045695,2 6,2 Z M6,7 C6.55228475,7 7,7.44771525 7,8 L7.00090072,15.1710242 C8.16562257,15.5831148 9,16.6941178 9,18 C9,19.6568542 7.65685425,21 6,21 C4.34314575,21 3,19.6568542 3,18 C3,16.6937479 3.8348501,15.5824856 5.00008893,15.1706743 L5,8 C5,7.44771525 5.44771525,7 6,7 Z M16,11 C16.5522847,11 17,11.4477153 17,12 C17,12.5522847 16.5522847,13 16,13 L11,13 L11,11 L16,11 Z M16,7 C16.5522847,7 17,7.44771525 17,8 C17,8.55228475 16.5522847,9 16,9 L11,9 L11,7 L16,7 Z M16,3 C16.5522847,3 17,3.44771525 17,4 C17,4.55228475 16.5522847,5 16,5 L11,5 L11,3 L16,3 Z" id="Combined-Shape"></path>
                    </g>
                </g>
                <g id="Group-2" transform="translate(112.000000, 8.000000)">
                    <circle id="Oval-Copy-2" fill="#24A399" cx="24" cy="24" r="24"></circle>
                    <g id="Icon/vent" transform="translate(13.000000, 13.000000)" fill="#FFFFFF">
                        <path d="M9.95111231,13.6908469 L9.98058068,13.8038839 L11.372813,20.7650457 C11.481125,21.3066054 11.1299083,21.8334306 10.5883485,21.9417425 C10.0854716,22.0423179 9.59529955,21.746667 9.44112006,21.270315 L9.41165169,21.157278 L8.01941932,14.1961161 C7.91110737,13.6545564 8.26232411,13.1277313 8.80388386,13.0194193 C9.30676078,12.9188439 9.79693282,13.2144948 9.95111231,13.6908469 Z M12.9533447,13.6908469 L12.982813,13.8038839 L14.3750454,20.7650457 C14.4833574,21.3066054 14.1321406,21.8334306 13.5905809,21.9417425 C13.087704,22.0423179 12.5975319,21.746667 12.4433524,21.270315 L12.4138841,21.157278 L11.0216517,14.1961161 C10.9133397,13.6545564 11.2645565,13.1277313 11.8061162,13.0194193 C12.3089931,12.9188439 12.7991652,13.2144948 12.9533447,13.6908469 Z M15.955577,13.6908469 L15.9850454,13.8038839 L17.3772778,20.7650457 C17.4855897,21.3066054 17.134373,21.8334306 16.5928132,21.9417425 C16.0899363,22.0423179 15.5997643,21.746667 15.4455848,21.270315 L15.4161164,21.157278 L14.0238841,14.1961161 C13.9155721,13.6545564 14.2667888,13.1277313 14.8083486,13.0194193 C15.3112255,12.9188439 15.8013976,13.2144948 15.955577,13.6908469 Z M9,-1.59872116e-13 C11.1606947,-1.59872116e-13 13.1058799,1.1528226 14.1665869,2.94698855 L14.226,3.051 L14.3457745,3.03538212 C14.4538303,3.02362232 14.5624364,3.01477679 14.6715037,3.00887121 L15,3 C18.3137085,3 21,5.6862915 21,9 C21,10.5705686 20.3926098,12.0481394 19.3258156,13.157811 C18.9430592,13.5559516 18.310017,13.5684229 17.9118764,13.1856664 C17.5137359,12.8029099 17.5012646,12.1698677 17.8840211,11.7717272 C18.5961496,11.0309762 19,10.0485475 19,9 C19,6.790861 17.209139,5 15,5 C14.7243287,5 14.4532936,5.02773991 14.1894965,5.08222318 L13.9282085,5.14558399 L13.0568319,5.38879582 L12.7278385,4.54605468 C12.133411,3.02338395 10.6623764,2 9,2 C6.85780461,2 5.10892112,3.68396847 5.00474821,5.78398218 L4.99983868,5.98203865 L5.01628451,6.89751426 L4.25094433,7.0940211 C2.93650859,7.43151234 2,8.62262535 2,10 C2,11.5416604 3.1661416,12.8201124 4.65205091,12.9817585 L4.82487292,12.9954052 L5.02451326,13.0003005 C5.57663205,13.0138388 6.01323781,13.4723945 5.9996995,14.0245133 C5.98712823,14.537195 5.59084298,14.9502762 5.09223774,14.9958326 L4.97548674,14.9996995 L4.75126647,14.9938989 C2.0955264,14.8633628 0,12.6686219 0,10 C0,8.01028253 1.17172812,6.25470624 2.9121214,5.45529294 L3.029,5.404 L3.03681119,5.33159871 C3.36112143,2.4056165 5.78949258,0.114175464 8.77506174,0.00413847206 L9,-1.59872116e-13 Z" id="Combined-Shape"></path>
                    </g>
                </g>
                <g id="Group-10" transform="translate(30.000000, 83.000000)">
                    <circle id="Oval-Copy-3" fill="#24A399" cx="24" cy="24" r="24"></circle>
                    <g id="Icon/secheresse" transform="translate(12.000000, 13.000000)" fill="#FFFFFF">
                        <path d="M19.9247697,0.827970031 L20.1,0.95 L20.3508304,1.13812276 C21.19377,1.77032748 21.40164,2.94808938 20.8260515,3.83065833 C20.5243562,4.29325788 19.9047727,4.42369651 19.4421732,4.12200114 C19.0126164,3.84185545 18.8694638,3.28761237 19.0927592,2.839481 L19.1508304,2.73812276 L18.9,2.55 C18.6245792,2.34343439 18.2664305,2.29094781 17.9469395,2.40348561 L17.8291796,2.45344419 L16.9472136,2.89442719 C15.9645656,3.38575117 15.1944998,4.21361971 14.774307,5.22309578 L14.6896709,5.44213533 L14.1917419,6.8363364 C13.487119,8.80928052 13.3469755,10.9369781 13.7830174,12.9808335 L13.787,12.9994741 L23,13 C23.5522847,13 24,13.4477153 24,14 C24,14.5128358 23.6139598,14.9355072 23.1166211,14.9932723 L23,15 L22.5,14.9994741 L19.83,18.5594741 L18.3574929,21.0144958 C18.1734894,21.3211683 17.8420436,21.5032704 17.490922,21.5000323 L17.3585786,21.4899495 L14.781,21.1214741 L14.7071068,21.2071068 L13.2071068,22.7071068 C12.8165825,23.0976311 12.1834175,23.0976311 11.7928932,22.7071068 C11.4324093,22.3466228 11.4046797,21.7793918 11.7097046,21.3871006 L11.7928932,21.2928932 L12.712,20.372 L11.722,18.8864741 L9.999,20.0344741 L10,21.5 C10,22.0522847 9.55228475,22.5 9,22.5 C8.48716416,22.5 8.06449284,22.1139598 8.00672773,21.6166211 L8,21.5 L8,20.118 L5.764,18.9994741 L3.5,19 C2.94771525,19 2.5,18.5522847 2.5,18 C2.5,17.4871642 2.88604019,17.0644928 3.38337887,17.0067277 L3.5,17 L5.218,17 L5.718,14.9994741 L1,15 C0.44771525,15 0,14.5522847 0,14 C0,13.4871642 0.38604019,13.0644928 0.883378875,13.0067277 L1,13 L11.7483565,12.9995448 C11.3583708,10.8513663 11.5039187,8.63740448 12.175317,6.55502381 L12.3082581,6.1636636 L12.4299204,5.82190896 C12.3855419,5.79110108 12.3432523,5.75637145 12.3035757,5.71777831 L12.2191312,5.62469505 L10.8630521,3.92959619 C10.7149503,3.74446899 10.4725355,3.66264252 10.2425356,3.7201425 C9.98778931,3.78382908 9.77696264,3.95753409 9.66466107,4.19069117 L9.62272318,4.29410813 L9.4486833,4.81622777 C9.27403553,5.34017108 8.70771555,5.62333107 8.18377223,5.4486833 C7.69725344,5.28651037 7.41834884,4.78662008 7.52082035,4.29653624 L7.5513167,4.18377223 L7.72535658,3.66165259 C8.03649295,2.7282435 8.80294158,2.0184882 9.75746437,1.7798575 C10.6843404,1.5481385 11.6581201,1.84279881 12.3007839,2.53623884 L12.4247897,2.6802061 L13.275185,3.74408718 C13.8655619,2.70088454 14.7334679,1.83410376 15.7892852,1.24488135 L16.0527864,1.10557281 L16.9347524,0.664589803 C17.8947422,0.184594904 19.0317311,0.251707308 19.9247697,0.827970031 Z M15.897,18.0194741 L13.73,18.2904741 L14.216,19.0204741 L16.983,19.416 L17.501,18.554 L15.897,18.0194741 Z M10.245,14.9994741 L7.781,14.9994741 L7.165,17.4644741 L8.927,18.3454741 L10.837,17.072 L10.245,14.9994741 Z M20,14.9994741 L17.72,14.9994741 L17.264,16.3664741 L18.633,16.8224741 L20,14.9994741 Z M15.612,14.9994741 L12.325,14.9994741 L12.725,16.4004741 L15.25,16.085 L15.612,14.9994741 Z" id="Combined-Shape"></path>
                    </g>
                </g>
            </g>
        </g>
    </g>
</svg>