<?xml version="1.0" encoding="UTF-8"?>
<svg width="272px" height="272px" viewBox="0 0 272 272" version="1.1" xmlns="http://www.w3.org/2000/svg" xmlns:xlink="http://www.w3.org/1999/xlink">
    <title>45A9B391-625A-40A5-89EC-F1D32D5D319A</title>
    <g id="TACCT-Page-publique" stroke="none" stroke-width="1" fill="none" fill-rule="evenodd">
        <g id="TACCT-Homepage2" transform="translate(-576.000000, -2640.000000)">
            <g id="schema_enjeux" transform="translate(576.000000, 2640.000000)">
                <rect id="Rectangle" x="0" y="0" width="272" height="272"></rect>
                <circle id="Oval" fill="#E6F1FF" cx="136" cy="122" r="82"></circle>
                <g id="Icon/secheresse" opacity="0.503656432" transform="translate(117.000000, 116.000000)" fill="#99C5FF">
                    <path d="M25.3419985,10.1128024 L30.9419985,13.6128024 C31.3513324,13.8686361 31.6,14.317294 31.6,14.8 L31.6,16.2 L34.4,16.2 C35.1731986,16.2 35.8,16.8268014 35.8,17.6 C35.8,18.3179702 35.2595437,18.90971 34.5632696,18.9905812 L34.4,19 L31.6,19 L31.6,21.8 C31.6,22.5731986 30.9731986,23.2 30.2,23.2 L24.6,23.2 C23.8268014,23.2 23.2,22.5731986 23.2,21.8 L23.2,20.4 L14.8,20.4 L14.8,21.8 C14.8,22.5731986 14.1731986,23.2 13.4,23.2 L13.4,23.2 L7.8,23.2 C7.02680135,23.2 6.4,22.5731986 6.4,21.8 L6.4,21.8 L6.4,19 L3.6,19 C2.82680135,19 2.2,18.3731986 2.2,17.6 C2.2,16.8820298 2.74045627,16.29029 3.43673042,16.2094188 L3.6,16.2 L6.4,16.2 L6.4,14.8 C6.4,14.3655646 6.60142074,13.9587081 6.9401093,13.6951784 L7.05800148,13.6128024 L12.6580015,10.1128024 C13.5904687,9.53001037 14.8,10.2003902 14.8,11.3 L14.8,11.3 L14.8,14.8 L23.2,14.8 L23.2,11.3 C23.2,10.2003902 24.4095313,9.53001037 25.3419985,10.1128024 Z M12,13.8242 L9.2,15.5742 L9.2,20.4 L12,20.4 L12,13.8242 Z M26,13.8242 L26,20.4 L28.8,20.4 L28.8,15.5742 L26,13.8242 Z M2.2,0.8 C2.91797017,0.8 3.50971002,1.34045627 3.59058118,2.03673042 L3.6,2.2 L3.6,5 C3.6,5.77319865 2.97319865,6.4 2.2,6.4 C1.48202983,6.4 0.890289975,5.85954373 0.809418824,5.16326958 L0.8,5 L0.8,2.2 C0.8,1.42680135 1.42680135,0.8 2.2,0.8 Z M35.8,0.8 C36.5179702,0.8 37.10971,1.34045627 37.1905812,2.03673042 L37.2,2.2 L37.2,5 C37.2,5.77319865 36.5731986,6.4 35.8,6.4 C35.0820298,6.4 34.49029,5.85954373 34.4094188,5.16326958 L34.4,5 L34.4,2.2 C34.4,1.42680135 35.0268014,0.8 35.8,0.8 Z M19,0.8 C19.7179702,0.8 20.30971,1.34045627 20.3905812,2.03673042 L20.4,2.2 L20.4,5 C20.4,5.77319865 19.7731986,6.4 19,6.4 C18.2820298,6.4 17.69029,5.85954373 17.6094188,5.16326958 L17.6,5 L17.6,2.2 C17.6,1.42680135 18.2268014,0.8 19,0.8 Z M27.4,0.8 C28.1179702,0.8 28.70971,1.34045627 28.7905812,2.03673042 L28.8,2.2 L28.8,5 C28.8,5.77319865 28.1731986,6.4 27.4,6.4 C26.6820298,6.4 26.09029,5.85954373 26.0094188,5.16326958 L26,5 L26,2.2 C26,1.42680135 26.6268014,0.8 27.4,0.8 Z M10.6,0.8 C11.3179702,0.8 11.90971,1.34045627 11.9905812,2.03673042 L12,2.2 L12,5 C12,5.77319865 11.3731986,6.4 10.6,6.4 C9.88202983,6.4 9.29028998,5.85954373 9.20941882,5.16326958 L9.2,5 L9.2,2.2 C9.2,1.42680135 9.82680135,0.8 10.6,0.8 Z" id="Combined-Shape"></path>
                </g>
                <path d="M105.202,76 L106.174,73.528 L110.038,73.528 L111.01,76 L112.21,76 L108.862,67.6 L107.35,67.6 L104.002,76 L105.202,76 Z M109.666,72.556 L106.546,72.556 L108.106,68.584 L109.666,72.556 Z M115.882,79 C117.742,79 118.966,78.076 118.966,76.78 C118.966,75.7 118.222,74.92 116.626,74.92 L114.898,74.92 C114.526,74.92 114.394,74.74 114.394,74.488 C114.394,74.26 114.538,74.044 114.79,73.864 C115.042,73.936 115.33,73.984 115.63,73.984 C117.082,73.984 117.982,73 117.982,71.848 C117.982,71.488 117.898,71.14 117.73,70.84 L119.038,70.84 L119.038,69.952 L116.794,69.952 C116.47,69.796 116.074,69.7 115.63,69.7 C114.19,69.7 113.278,70.684 113.278,71.848 C113.278,72.52 113.59,73.132 114.118,73.528 C113.65,73.828 113.398,74.224 113.398,74.704 C113.398,75.028 113.542,75.352 113.818,75.568 C113.23,76 112.918,76.48 112.918,77.092 C112.918,78.304 114.094,79 115.882,79 Z M115.642,73.18 C114.742,73.18 114.25,72.592 114.25,71.848 C114.25,71.104 114.742,70.504 115.642,70.504 C116.518,70.504 117.022,71.104 117.022,71.848 C117.022,72.58 116.518,73.18 115.642,73.18 Z M115.87,78.148 C114.67,78.148 113.914,77.704 113.914,76.972 C113.914,76.48 114.19,76.132 114.706,75.82 L116.542,75.82 C117.622,75.82 117.946,76.276 117.946,76.852 C117.946,77.644 117.142,78.148 115.87,78.148 Z M121.306,76 L121.306,71.896 C121.678,71.284 122.194,70.876 122.986,70.876 C123.226,70.876 123.406,70.912 123.586,70.96 L123.586,69.904 C123.442,69.856 123.262,69.832 123.07,69.832 C122.302,69.832 121.75,70.18 121.306,70.708 L121.306,69.952 L120.286,69.952 L120.286,76 L121.306,76 Z M125.566,68.38 C125.962,68.38 126.274,68.056 126.274,67.66 C126.274,67.276 125.962,66.952 125.566,66.952 C125.17,66.952 124.846,67.276 124.846,67.66 C124.846,68.056 125.17,68.38 125.566,68.38 Z M126.07,76 L126.07,69.952 L125.05,69.952 L125.05,76 L126.07,76 Z M131.002,76.24 C132.106,76.24 132.982,75.76 133.546,75.004 L132.73,74.38 C132.358,74.92 131.758,75.28 131.014,75.28 C129.706,75.28 128.782,74.272 128.782,72.976 C128.782,71.692 129.706,70.672 131.002,70.672 C131.746,70.672 132.358,71.032 132.73,71.572 L133.546,70.948 C132.982,70.204 132.094,69.712 131.002,69.712 C128.998,69.712 127.714,71.212 127.714,72.976 C127.714,74.74 128.998,76.24 131.002,76.24 Z M137.494,76.24 C139.138,76.24 140.182,75.184 140.182,73.372 L140.182,69.952 L139.15,69.952 L139.15,73.408 C139.15,74.596 138.514,75.28 137.506,75.28 C136.474,75.28 135.838,74.596 135.838,73.408 L135.838,69.952 L134.818,69.952 L134.818,73.372 C134.818,75.184 135.862,76.24 137.494,76.24 Z M143.218,76 L143.218,67 L142.198,67 L142.198,76 L143.218,76 Z M147.826,76.12 C148.258,76.12 148.582,76.072 148.87,75.952 L148.87,75.04 C148.642,75.136 148.366,75.184 147.97,75.184 C147.238,75.184 146.758,74.92 146.758,73.972 L146.758,70.888 L148.858,70.888 L148.858,69.952 L146.758,69.952 L146.758,68.44 L145.726,68.44 L145.726,69.952 L144.586,69.952 L144.586,70.888 L145.726,70.888 L145.726,73.972 C145.726,75.448 146.482,76.12 147.826,76.12 Z M152.962,76.24 C154.606,76.24 155.65,75.184 155.65,73.372 L155.65,69.952 L154.618,69.952 L154.618,73.408 C154.618,74.596 153.982,75.28 152.974,75.28 C151.942,75.28 151.306,74.596 151.306,73.408 L151.306,69.952 L150.286,69.952 L150.286,73.372 C150.286,75.184 151.33,76.24 152.962,76.24 Z M158.686,76 L158.686,71.896 C159.058,71.284 159.574,70.876 160.366,70.876 C160.606,70.876 160.786,70.912 160.966,70.96 L160.966,69.904 C160.822,69.856 160.642,69.832 160.45,69.832 C159.682,69.832 159.13,70.18 158.686,70.708 L158.686,69.952 L157.666,69.952 L157.666,76 L158.686,76 Z M165.214,76.24 C166.342,76.24 167.242,75.76 167.806,75.004 L167.05,74.416 C166.654,74.956 166.006,75.316 165.238,75.316 C163.882,75.316 162.97,74.344 162.97,73.012 L162.97,72.988 L167.602,72.988 C167.638,72.82 167.674,72.58 167.674,72.34 C167.674,70.828 166.606,69.712 164.962,69.712 C163.09,69.712 161.914,71.14 161.914,72.976 C161.914,74.74 163.174,76.24 165.214,76.24 Z M166.642,72.184 L163.054,72.184 C163.294,71.14 163.99,70.588 164.974,70.588 C165.97,70.588 166.606,71.308 166.642,72.184 Z" id="Agriculture" fill="#666666" fill-rule="nonzero"></path>
                <path d="M152.606,234 L153.578,231.528 L157.442,231.528 L158.414,234 L159.614,234 L156.266,225.6 L154.754,225.6 L151.406,234 L152.606,234 Z M157.07,230.556 L153.95,230.556 L155.51,226.584 L157.07,230.556 Z M162.038,234 L162.038,229.812 C162.386,229.188 162.902,228.672 163.73,228.672 C164.606,228.672 165.146,229.248 165.146,230.256 L165.146,234 L166.178,234 L166.178,230.22 C166.178,230.088 166.166,229.956 166.154,229.824 C166.562,229.116 167.09,228.672 167.858,228.672 C168.722,228.672 169.286,229.248 169.286,230.256 L169.286,234 L170.306,234 L170.306,230.22 C170.306,228.576 169.358,227.712 168.062,227.712 C167.066,227.712 166.406,228.24 165.926,228.924 C165.554,228.12 164.822,227.712 163.934,227.712 C163.094,227.712 162.494,228.084 162.038,228.612 L162.038,227.952 L161.018,227.952 L161.018,234 L162.038,234 Z M175.43,226.992 L176.834,225 L175.682,225 L174.434,226.992 L175.43,226.992 Z M175.142,234.24 C176.27,234.24 177.17,233.76 177.734,233.004 L176.978,232.416 C176.582,232.956 175.934,233.316 175.166,233.316 C173.81,233.316 172.898,232.344 172.898,231.012 L172.898,230.988 L177.53,230.988 C177.566,230.82 177.602,230.58 177.602,230.34 C177.602,228.828 176.534,227.712 174.89,227.712 C173.018,227.712 171.842,229.14 171.842,230.976 C171.842,232.74 173.102,234.24 175.142,234.24 Z M176.57,230.184 L172.982,230.184 C173.222,229.14 173.918,228.588 174.902,228.588 C175.898,228.588 176.534,229.308 176.57,230.184 Z M180.35,234 L180.35,229.812 C180.734,229.176 181.286,228.672 182.162,228.672 C183.098,228.672 183.698,229.296 183.698,230.376 L183.698,234 L184.73,234 L184.73,230.34 C184.73,228.624 183.722,227.712 182.366,227.712 C181.466,227.712 180.842,228.096 180.35,228.636 L180.35,227.952 L179.33,227.952 L179.33,234 L180.35,234 Z M188.438,234.24 C189.254,234.24 190.01,233.868 190.466,233.232 L190.466,234 L191.486,234 L191.486,229.944 C191.486,228.612 190.574,227.712 189.038,227.712 C187.982,227.712 187.13,228.156 186.602,228.876 L187.37,229.464 C187.718,228.936 188.306,228.624 189.014,228.624 C189.866,228.624 190.466,229.104 190.466,229.944 L190.466,230.364 L188.438,230.7 C187.142,230.904 186.446,231.576 186.446,232.512 C186.446,233.568 187.25,234.24 188.438,234.24 Z M188.606,233.388 C187.91,233.388 187.466,232.992 187.466,232.476 C187.466,231.948 187.838,231.564 188.678,231.432 L190.466,231.12 L190.466,232.272 C190.046,232.968 189.41,233.388 188.606,233.388 Z M195.818,237 C197.678,237 198.902,236.076 198.902,234.78 C198.902,233.7 198.158,232.92 196.562,232.92 L194.834,232.92 C194.462,232.92 194.33,232.74 194.33,232.488 C194.33,232.26 194.474,232.044 194.726,231.864 C194.978,231.936 195.266,231.984 195.566,231.984 C197.018,231.984 197.918,231 197.918,229.848 C197.918,229.488 197.834,229.14 197.666,228.84 L198.974,228.84 L198.974,227.952 L196.73,227.952 C196.406,227.796 196.01,227.7 195.566,227.7 C194.126,227.7 193.214,228.684 193.214,229.848 C193.214,230.52 193.526,231.132 194.054,231.528 C193.586,231.828 193.334,232.224 193.334,232.704 C193.334,233.028 193.478,233.352 193.754,233.568 C193.166,234 192.854,234.48 192.854,235.092 C192.854,236.304 194.03,237 195.818,237 Z M195.578,231.18 C194.678,231.18 194.186,230.592 194.186,229.848 C194.186,229.104 194.678,228.504 195.578,228.504 C196.454,228.504 196.958,229.104 196.958,229.848 C196.958,230.58 196.454,231.18 195.578,231.18 Z M195.806,236.148 C194.606,236.148 193.85,235.704 193.85,234.972 C193.85,234.48 194.126,234.132 194.642,233.82 L196.478,233.82 C197.558,233.82 197.882,234.276 197.882,234.852 C197.882,235.644 197.078,236.148 195.806,236.148 Z M203.006,234.24 C204.134,234.24 205.034,233.76 205.598,233.004 L204.842,232.416 C204.446,232.956 203.798,233.316 203.03,233.316 C201.674,233.316 200.762,232.344 200.762,231.012 L200.762,230.988 L205.394,230.988 C205.43,230.82 205.466,230.58 205.466,230.34 C205.466,228.828 204.398,227.712 202.754,227.712 C200.882,227.712 199.706,229.14 199.706,230.976 C199.706,232.74 200.966,234.24 203.006,234.24 Z M204.434,230.184 L200.846,230.184 C201.086,229.14 201.782,228.588 202.766,228.588 C203.762,228.588 204.398,229.308 204.434,230.184 Z M208.214,234 L208.214,229.812 C208.562,229.188 209.078,228.672 209.906,228.672 C210.782,228.672 211.322,229.248 211.322,230.256 L211.322,234 L212.354,234 L212.354,230.22 C212.354,230.088 212.342,229.956 212.33,229.824 C212.738,229.116 213.266,228.672 214.034,228.672 C214.898,228.672 215.462,229.248 215.462,230.256 L215.462,234 L216.482,234 L216.482,230.22 C216.482,228.576 215.534,227.712 214.238,227.712 C213.242,227.712 212.582,228.24 212.102,228.924 C211.73,228.12 210.998,227.712 210.11,227.712 C209.27,227.712 208.67,228.084 208.214,228.612 L208.214,227.952 L207.194,227.952 L207.194,234 L208.214,234 Z M221.318,234.24 C222.446,234.24 223.346,233.76 223.91,233.004 L223.154,232.416 C222.758,232.956 222.11,233.316 221.342,233.316 C219.986,233.316 219.074,232.344 219.074,231.012 L219.074,230.988 L223.706,230.988 C223.742,230.82 223.778,230.58 223.778,230.34 C223.778,228.828 222.71,227.712 221.066,227.712 C219.194,227.712 218.018,229.14 218.018,230.976 C218.018,232.74 219.278,234.24 221.318,234.24 Z M222.746,230.184 L219.158,230.184 C219.398,229.14 220.094,228.588 221.078,228.588 C222.074,228.588 222.71,229.308 222.746,230.184 Z M226.526,234 L226.526,229.812 C226.91,229.176 227.462,228.672 228.338,228.672 C229.274,228.672 229.874,229.296 229.874,230.376 L229.874,234 L230.906,234 L230.906,230.34 C230.906,228.624 229.898,227.712 228.542,227.712 C227.642,227.712 227.018,228.096 226.526,228.636 L226.526,227.952 L225.506,227.952 L225.506,234 L226.526,234 Z M235.406,234.12 C235.838,234.12 236.162,234.072 236.45,233.952 L236.45,233.04 C236.222,233.136 235.946,233.184 235.55,233.184 C234.818,233.184 234.338,232.92 234.338,231.972 L234.338,228.888 L236.438,228.888 L236.438,227.952 L234.338,227.952 L234.338,226.44 L233.306,226.44 L233.306,227.952 L232.166,227.952 L232.166,228.888 L233.306,228.888 L233.306,231.972 C233.306,233.448 234.062,234.12 235.406,234.12 Z M162.296,249.24 C163.172,249.24 163.892,248.916 164.444,248.328 L164.444,249 L165.464,249 L165.464,240 L164.444,240 L164.444,243.624 C163.892,243.036 163.172,242.712 162.296,242.712 C160.4,242.712 159.188,244.212 159.188,245.976 C159.188,247.74 160.4,249.24 162.296,249.24 Z M162.416,248.28 C161.132,248.28 160.268,247.26 160.268,245.976 C160.268,244.692 161.132,243.672 162.416,243.672 C163.244,243.672 163.964,244.068 164.444,244.8 L164.444,247.152 C163.976,247.872 163.256,248.28 162.416,248.28 Z M170.156,249.24 C171.8,249.24 172.844,248.184 172.844,246.372 L172.844,242.952 L171.812,242.952 L171.812,246.408 C171.812,247.596 171.176,248.28 170.168,248.28 C169.136,248.28 168.5,247.596 168.5,246.408 L168.5,242.952 L167.48,242.952 L167.48,246.372 C167.48,248.184 168.524,249.24 170.156,249.24 Z M180.548,249.12 C180.98,249.12 181.304,249.072 181.592,248.952 L181.592,248.04 C181.364,248.136 181.088,248.184 180.692,248.184 C179.96,248.184 179.48,247.92 179.48,246.972 L179.48,243.888 L181.58,243.888 L181.58,242.952 L179.48,242.952 L179.48,241.44 L178.448,241.44 L178.448,242.952 L177.308,242.952 L177.308,243.888 L178.448,243.888 L178.448,246.972 C178.448,248.448 179.204,249.12 180.548,249.12 Z M185.924,249.24 C187.052,249.24 187.952,248.76 188.516,248.004 L187.76,247.416 C187.364,247.956 186.716,248.316 185.948,248.316 C184.592,248.316 183.68,247.344 183.68,246.012 L183.68,245.988 L188.312,245.988 C188.348,245.82 188.384,245.58 188.384,245.34 C188.384,243.828 187.316,242.712 185.672,242.712 C183.8,242.712 182.624,244.14 182.624,245.976 C182.624,247.74 183.884,249.24 185.924,249.24 Z M187.352,245.184 L183.764,245.184 C184.004,244.14 184.7,243.588 185.684,243.588 C186.68,243.588 187.316,244.308 187.352,245.184 Z M191.132,249 L191.132,244.896 C191.504,244.284 192.02,243.876 192.812,243.876 C193.052,243.876 193.232,243.912 193.412,243.96 L193.412,242.904 C193.268,242.856 193.088,242.832 192.896,242.832 C192.128,242.832 191.576,243.18 191.132,243.708 L191.132,242.952 L190.112,242.952 L190.112,249 L191.132,249 Z M195.896,249 L195.896,244.896 C196.268,244.284 196.784,243.876 197.576,243.876 C197.816,243.876 197.996,243.912 198.176,243.96 L198.176,242.904 C198.032,242.856 197.852,242.832 197.66,242.832 C196.892,242.832 196.34,243.18 195.896,243.708 L195.896,242.952 L194.876,242.952 L194.876,249 L195.896,249 Z M200.156,241.38 C200.552,241.38 200.864,241.056 200.864,240.66 C200.864,240.276 200.552,239.952 200.156,239.952 C199.76,239.952 199.436,240.276 199.436,240.66 C199.436,241.056 199.76,241.38 200.156,241.38 Z M200.66,249 L200.66,242.952 L199.64,242.952 L199.64,249 L200.66,249 Z M205.268,249.12 C205.7,249.12 206.024,249.072 206.312,248.952 L206.312,248.04 C206.084,248.136 205.808,248.184 205.412,248.184 C204.68,248.184 204.2,247.92 204.2,246.972 L204.2,243.888 L206.3,243.888 L206.3,242.952 L204.2,242.952 L204.2,241.44 L203.168,241.44 L203.168,242.952 L202.028,242.952 L202.028,243.888 L203.168,243.888 L203.168,246.972 C203.168,248.448 203.924,249.12 205.268,249.12 Z M210.62,249.24 C212.564,249.24 213.896,247.74 213.896,245.976 C213.896,244.212 212.564,242.712 210.62,242.712 C208.664,242.712 207.344,244.212 207.344,245.976 C207.344,247.74 208.664,249.24 210.62,249.24 Z M210.632,248.28 C209.336,248.28 208.412,247.236 208.412,245.976 C208.412,244.716 209.336,243.672 210.632,243.672 C211.892,243.672 212.816,244.716 212.816,245.976 C212.816,247.224 211.892,248.28 210.632,248.28 Z M216.056,241.38 C216.452,241.38 216.764,241.056 216.764,240.66 C216.764,240.276 216.452,239.952 216.056,239.952 C215.66,239.952 215.336,240.276 215.336,240.66 C215.336,241.056 215.66,241.38 216.056,241.38 Z M216.56,249 L216.56,242.952 L215.54,242.952 L215.54,249 L216.56,249 Z M219.74,249 L219.74,244.896 C220.112,244.284 220.628,243.876 221.42,243.876 C221.66,243.876 221.84,243.912 222.02,243.96 L222.02,242.904 C221.876,242.856 221.696,242.832 221.504,242.832 C220.736,242.832 220.184,243.18 219.74,243.708 L219.74,242.952 L218.72,242.952 L218.72,249 L219.74,249 Z M226.268,249.24 C227.396,249.24 228.296,248.76 228.86,248.004 L228.104,247.416 C227.708,247.956 227.06,248.316 226.292,248.316 C224.936,248.316 224.024,247.344 224.024,246.012 L224.024,245.988 L228.656,245.988 C228.692,245.82 228.728,245.58 228.728,245.34 C228.728,243.828 227.66,242.712 226.016,242.712 C224.144,242.712 222.968,244.14 222.968,245.976 C222.968,247.74 224.228,249.24 226.268,249.24 Z M227.696,245.184 L224.108,245.184 C224.348,244.14 225.044,243.588 226.028,243.588 C227.024,243.588 227.66,244.308 227.696,245.184 Z" id="Aménagementduterritoire" fill="#666666" fill-rule="nonzero"></path>
                <path d="M38.46,151 L38.46,150.016 L35.076,150.016 L35.076,147.208 L37.98,147.208 L37.98,146.236 L35.076,146.236 L35.076,143.584 L38.46,143.584 L38.46,142.6 L33.948,142.6 L33.948,151 L38.46,151 Z M41.472,151 L41.472,146.812 C41.856,146.176 42.408,145.672 43.284,145.672 C44.22,145.672 44.82,146.296 44.82,147.376 L44.82,151 L45.852,151 L45.852,147.34 C45.852,145.624 44.844,144.712 43.488,144.712 C42.588,144.712 41.964,145.096 41.472,145.636 L41.472,144.952 L40.452,144.952 L40.452,151 L41.472,151 Z M50.688,151.24 C51.816,151.24 52.716,150.76 53.28,150.004 L52.524,149.416 C52.128,149.956 51.48,150.316 50.712,150.316 C49.356,150.316 48.444,149.344 48.444,148.012 L48.444,147.988 L53.076,147.988 C53.112,147.82 53.148,147.58 53.148,147.34 C53.148,145.828 52.08,144.712 50.436,144.712 C48.564,144.712 47.388,146.14 47.388,147.976 C47.388,149.74 48.648,151.24 50.688,151.24 Z M52.116,147.184 L48.528,147.184 C48.768,146.14 49.464,145.588 50.448,145.588 C51.444,145.588 52.08,146.308 52.116,147.184 Z M55.896,151 L55.896,146.896 C56.268,146.284 56.784,145.876 57.576,145.876 C57.816,145.876 57.996,145.912 58.176,145.96 L58.176,144.904 C58.032,144.856 57.852,144.832 57.66,144.832 C56.892,144.832 56.34,145.18 55.896,145.708 L55.896,144.952 L54.876,144.952 L54.876,151 L55.896,151 Z M61.908,154 C63.768,154 64.992,153.076 64.992,151.78 C64.992,150.7 64.248,149.92 62.652,149.92 L60.924,149.92 C60.552,149.92 60.42,149.74 60.42,149.488 C60.42,149.26 60.564,149.044 60.816,148.864 C61.068,148.936 61.356,148.984 61.656,148.984 C63.108,148.984 64.008,148 64.008,146.848 C64.008,146.488 63.924,146.14 63.756,145.84 L65.064,145.84 L65.064,144.952 L62.82,144.952 C62.496,144.796 62.1,144.7 61.656,144.7 C60.216,144.7 59.304,145.684 59.304,146.848 C59.304,147.52 59.616,148.132 60.144,148.528 C59.676,148.828 59.424,149.224 59.424,149.704 C59.424,150.028 59.568,150.352 59.844,150.568 C59.256,151 58.944,151.48 58.944,152.092 C58.944,153.304 60.12,154 61.908,154 Z M61.668,148.18 C60.768,148.18 60.276,147.592 60.276,146.848 C60.276,146.104 60.768,145.504 61.668,145.504 C62.544,145.504 63.048,146.104 63.048,146.848 C63.048,147.58 62.544,148.18 61.668,148.18 Z M61.896,153.148 C60.696,153.148 59.94,152.704 59.94,151.972 C59.94,151.48 60.216,151.132 60.732,150.82 L62.568,150.82 C63.648,150.82 63.972,151.276 63.972,151.852 C63.972,152.644 63.168,153.148 61.896,153.148 Z M66.828,143.38 C67.224,143.38 67.536,143.056 67.536,142.66 C67.536,142.276 67.224,141.952 66.828,141.952 C66.432,141.952 66.108,142.276 66.108,142.66 C66.108,143.056 66.432,143.38 66.828,143.38 Z M67.332,151 L67.332,144.952 L66.312,144.952 L66.312,151 L67.332,151 Z M72.276,151.24 C73.404,151.24 74.304,150.76 74.868,150.004 L74.112,149.416 C73.716,149.956 73.068,150.316 72.3,150.316 C70.944,150.316 70.032,149.344 70.032,148.012 L70.032,147.988 L74.664,147.988 C74.7,147.82 74.736,147.58 74.736,147.34 C74.736,145.828 73.668,144.712 72.024,144.712 C70.152,144.712 68.976,146.14 68.976,147.976 C68.976,149.74 70.236,151.24 72.276,151.24 Z M73.704,147.184 L70.116,147.184 C70.356,146.14 71.052,145.588 72.036,145.588 C73.032,145.588 73.668,146.308 73.704,147.184 Z" id="Energie" fill="#666666" fill-rule="nonzero"></path>
                <path d="M202.436,151 L202.436,147.208 L205.34,147.208 L205.34,146.236 L202.436,146.236 L202.436,143.584 L205.82,143.584 L205.82,142.6 L201.308,142.6 L201.308,151 L202.436,151 Z M210.092,151.24 C212.036,151.24 213.368,149.74 213.368,147.976 C213.368,146.212 212.036,144.712 210.092,144.712 C208.136,144.712 206.816,146.212 206.816,147.976 C206.816,149.74 208.136,151.24 210.092,151.24 Z M210.104,150.28 C208.808,150.28 207.884,149.236 207.884,147.976 C207.884,146.716 208.808,145.672 210.104,145.672 C211.364,145.672 212.288,146.716 212.288,147.976 C212.288,149.224 211.364,150.28 210.104,150.28 Z M216.032,151 L216.032,146.896 C216.404,146.284 216.92,145.876 217.712,145.876 C217.952,145.876 218.132,145.912 218.312,145.96 L218.312,144.904 C218.168,144.856 217.988,144.832 217.796,144.832 C217.028,144.832 216.476,145.18 216.032,145.708 L216.032,144.952 L215.012,144.952 L215.012,151 L216.032,151 Z M221.324,143.992 L222.344,142.504 L223.352,143.992 L224.276,143.992 L223.028,142 L221.648,142 L220.388,143.992 L221.324,143.992 Z M222.56,151.24 C223.688,151.24 224.588,150.76 225.152,150.004 L224.396,149.416 C224,149.956 223.352,150.316 222.584,150.316 C221.228,150.316 220.316,149.344 220.316,148.012 L220.316,147.988 L224.948,147.988 C224.984,147.82 225.02,147.58 225.02,147.34 C225.02,145.828 223.952,144.712 222.308,144.712 C220.436,144.712 219.26,146.14 219.26,147.976 C219.26,149.74 220.52,151.24 222.56,151.24 Z M223.988,147.184 L220.4,147.184 C220.64,146.14 221.336,145.588 222.32,145.588 C223.316,145.588 223.952,146.308 223.988,147.184 Z M229.196,151.12 C229.628,151.12 229.952,151.072 230.24,150.952 L230.24,150.04 C230.012,150.136 229.736,150.184 229.34,150.184 C228.608,150.184 228.128,149.92 228.128,148.972 L228.128,145.888 L230.228,145.888 L230.228,144.952 L228.128,144.952 L228.128,143.44 L227.096,143.44 L227.096,144.952 L225.956,144.952 L225.956,145.888 L227.096,145.888 L227.096,148.972 C227.096,150.448 227.852,151.12 229.196,151.12 Z M233.408,151.24 C234.536,151.24 235.436,150.532 235.448,149.404 C235.448,147.292 232.484,147.772 232.484,146.392 C232.484,145.9 232.82,145.564 233.444,145.564 C233.996,145.564 234.44,145.84 234.776,146.32 L235.484,145.708 C235.064,145.12 234.32,144.712 233.432,144.712 C232.292,144.712 231.488,145.444 231.488,146.416 C231.488,148.588 234.452,148.084 234.452,149.452 C234.452,149.98 234.068,150.388 233.396,150.388 C232.784,150.388 232.28,150.076 231.86,149.548 L231.14,150.172 C231.692,150.856 232.448,151.24 233.408,151.24 Z" id="Forêts" fill="#666666" fill-rule="nonzero"></path>
                <g id="Group-11-Copy" transform="translate(30.000000, 83.000000)">
                    <circle id="Oval" fill="#246EA3" cx="24" cy="24" r="24"></circle>
                    <g id="Icon/elevation" transform="translate(16.000000, 12.000000)" fill="#FFFFFF">
                        <path d="M0.123489426,13.400223 L0.0752473881,13.5011545 C-0.191013706,14.145808 0.280330557,14.8790245 1.00141258,14.8790245 L5.92724697,14.8786129 L5.92798444,23.5016129 C5.92798444,24.553955 7.34439395,24.8923059 7.82001869,23.9535807 L14.8967334,10.9601653 L14.9432134,10.8542561 C15.1821632,10.2143286 14.7111607,9.50819749 14.0046991,9.50819749 L8.93324697,9.50761292 L8.93373316,1.00161292 C8.93373316,-0.0344245315 7.55186635,-0.386749907 7.05581001,0.522811362 L0.123489426,13.400223 Z M6.93324697,4.92361292 L6.93373316,10.5081975 L6.94046089,10.6248186 C6.998226,11.1221573 7.42089732,11.5081975 7.93373316,11.5081975 L12.376247,11.5076129 L7.92724697,19.3156129 L7.92798444,13.8790245 L7.92125671,13.7624034 C7.8634916,13.2650647 7.44082028,12.8790245 6.92798444,12.8790245 L2.68624697,12.8786129 L6.93324697,4.92361292 Z" id="Combined-Shape"></path>
                    </g>
                </g>
                <path d="M48.462,234 L48.462,230.316 L49.566,230.316 C49.65,230.316 49.746,230.316 49.83,230.304 L52.254,234 L53.61,234 L50.898,230.076 C51.786,229.728 52.302,228.972 52.302,227.964 C52.302,226.524 51.258,225.6 49.566,225.6 L47.334,225.6 L47.334,234 L48.462,234 Z M49.614,229.332 L48.462,229.332 L48.462,226.584 L49.614,226.584 C50.574,226.584 51.138,227.088 51.138,227.94 C51.138,228.84 50.574,229.332 49.614,229.332 Z M57.558,234.24 C58.686,234.24 59.586,233.76 60.15,233.004 L59.394,232.416 C58.998,232.956 58.35,233.316 57.582,233.316 C56.226,233.316 55.314,232.344 55.314,231.012 L55.314,230.988 L59.946,230.988 C59.982,230.82 60.018,230.58 60.018,230.34 C60.018,228.828 58.95,227.712 57.306,227.712 C55.434,227.712 54.258,229.14 54.258,230.976 C54.258,232.74 55.518,234.24 57.558,234.24 Z M58.986,230.184 L55.398,230.184 C55.638,229.14 56.334,228.588 57.318,228.588 C58.314,228.588 58.95,229.308 58.986,230.184 Z M63.366,234.24 C64.494,234.24 65.394,233.532 65.406,232.404 C65.406,230.292 62.442,230.772 62.442,229.392 C62.442,228.9 62.778,228.564 63.402,228.564 C63.954,228.564 64.398,228.84 64.734,229.32 L65.442,228.708 C65.022,228.12 64.278,227.712 63.39,227.712 C62.25,227.712 61.446,228.444 61.446,229.416 C61.446,231.588 64.41,231.084 64.41,232.452 C64.41,232.98 64.026,233.388 63.354,233.388 C62.742,233.388 62.238,233.076 61.818,232.548 L61.098,233.172 C61.65,233.856 62.406,234.24 63.366,234.24 Z M68.682,234.24 C69.81,234.24 70.71,233.532 70.722,232.404 C70.722,230.292 67.758,230.772 67.758,229.392 C67.758,228.9 68.094,228.564 68.718,228.564 C69.27,228.564 69.714,228.84 70.05,229.32 L70.758,228.708 C70.338,228.12 69.594,227.712 68.706,227.712 C67.566,227.712 66.762,228.444 66.762,229.416 C66.762,231.588 69.726,231.084 69.726,232.452 C69.726,232.98 69.342,233.388 68.67,233.388 C68.058,233.388 67.554,233.076 67.134,232.548 L66.414,233.172 C66.966,233.856 67.722,234.24 68.682,234.24 Z M75.138,234.24 C77.082,234.24 78.414,232.74 78.414,230.976 C78.414,229.212 77.082,227.712 75.138,227.712 C73.182,227.712 71.862,229.212 71.862,230.976 C71.862,232.74 73.182,234.24 75.138,234.24 Z M75.15,233.28 C73.854,233.28 72.93,232.236 72.93,230.976 C72.93,229.716 73.854,228.672 75.15,228.672 C76.41,228.672 77.334,229.716 77.334,230.976 C77.334,232.224 76.41,233.28 75.15,233.28 Z M82.602,234.24 C84.246,234.24 85.29,233.184 85.29,231.372 L85.29,227.952 L84.258,227.952 L84.258,231.408 C84.258,232.596 83.622,233.28 82.614,233.28 C81.582,233.28 80.946,232.596 80.946,231.408 L80.946,227.952 L79.926,227.952 L79.926,231.372 C79.926,233.184 80.97,234.24 82.602,234.24 Z M88.326,234 L88.326,229.896 C88.698,229.284 89.214,228.876 90.006,228.876 C90.246,228.876 90.426,228.912 90.606,228.96 L90.606,227.904 C90.462,227.856 90.282,227.832 90.09,227.832 C89.322,227.832 88.77,228.18 88.326,228.708 L88.326,227.952 L87.306,227.952 L87.306,234 L88.326,234 Z M94.842,234.24 C95.946,234.24 96.822,233.76 97.386,233.004 L96.57,232.38 C96.198,232.92 95.598,233.28 94.854,233.28 C93.546,233.28 92.622,232.272 92.622,230.976 C92.622,229.692 93.546,228.672 94.842,228.672 C95.586,228.672 96.198,229.032 96.57,229.572 L97.386,228.948 C96.822,228.204 95.934,227.712 94.842,227.712 C92.838,227.712 91.554,229.212 91.554,230.976 C91.554,232.74 92.838,234.24 94.842,234.24 Z M101.574,234.24 C102.702,234.24 103.602,233.76 104.166,233.004 L103.41,232.416 C103.014,232.956 102.366,233.316 101.598,233.316 C100.242,233.316 99.33,232.344 99.33,231.012 L99.33,230.988 L103.962,230.988 C103.998,230.82 104.034,230.58 104.034,230.34 C104.034,228.828 102.966,227.712 101.322,227.712 C99.45,227.712 98.274,229.14 98.274,230.976 C98.274,232.74 99.534,234.24 101.574,234.24 Z M103.002,230.184 L99.414,230.184 C99.654,229.14 100.35,228.588 101.334,228.588 C102.33,228.588 102.966,229.308 103.002,230.184 Z M107.382,234.24 C108.51,234.24 109.41,233.532 109.422,232.404 C109.422,230.292 106.458,230.772 106.458,229.392 C106.458,228.9 106.794,228.564 107.418,228.564 C107.97,228.564 108.414,228.84 108.75,229.32 L109.458,228.708 C109.038,228.12 108.294,227.712 107.406,227.712 C106.266,227.712 105.462,228.444 105.462,229.416 C105.462,231.588 108.426,231.084 108.426,232.452 C108.426,232.98 108.042,233.388 107.37,233.388 C106.758,233.388 106.254,233.076 105.834,232.548 L105.114,233.172 C105.666,233.856 106.422,234.24 107.382,234.24 Z M62.538,249.24 C63.666,249.24 64.566,248.76 65.13,248.004 L64.374,247.416 C63.978,247.956 63.33,248.316 62.562,248.316 C61.206,248.316 60.294,247.344 60.294,246.012 L60.294,245.988 L64.926,245.988 C64.962,245.82 64.998,245.58 64.998,245.34 C64.998,243.828 63.93,242.712 62.286,242.712 C60.414,242.712 59.238,244.14 59.238,245.976 C59.238,247.74 60.498,249.24 62.538,249.24 Z M63.966,245.184 L60.378,245.184 C60.618,244.14 61.314,243.588 62.298,243.588 C63.294,243.588 63.93,244.308 63.966,245.184 Z M67.746,249 L67.746,244.812 C68.13,244.176 68.682,243.672 69.558,243.672 C70.494,243.672 71.094,244.296 71.094,245.376 L71.094,249 L72.126,249 L72.126,245.34 C72.126,243.624 71.118,242.712 69.762,242.712 C68.862,242.712 68.238,243.096 67.746,243.636 L67.746,242.952 L66.726,242.952 L66.726,249 L67.746,249 Z M80.202,249.24 C81.33,249.24 82.23,248.76 82.794,248.004 L82.038,247.416 C81.642,247.956 80.994,248.316 80.226,248.316 C78.87,248.316 77.958,247.344 77.958,246.012 L77.958,245.988 L82.59,245.988 C82.626,245.82 82.662,245.58 82.662,245.34 C82.662,243.828 81.594,242.712 79.95,242.712 C78.078,242.712 76.902,244.14 76.902,245.976 C76.902,247.74 78.162,249.24 80.202,249.24 Z M81.63,245.184 L78.042,245.184 C78.282,244.14 78.978,243.588 79.962,243.588 C80.958,243.588 81.594,244.308 81.63,245.184 Z M86.046,249.24 C86.862,249.24 87.618,248.868 88.074,248.232 L88.074,249 L89.094,249 L89.094,244.944 C89.094,243.612 88.182,242.712 86.646,242.712 C85.59,242.712 84.738,243.156 84.21,243.876 L84.978,244.464 C85.326,243.936 85.914,243.624 86.622,243.624 C87.474,243.624 88.074,244.104 88.074,244.944 L88.074,245.364 L86.046,245.7 C84.75,245.904 84.054,246.576 84.054,247.512 C84.054,248.568 84.858,249.24 86.046,249.24 Z M86.214,248.388 C85.518,248.388 85.074,247.992 85.074,247.476 C85.074,246.948 85.446,246.564 86.286,246.432 L88.074,246.12 L88.074,247.272 C87.654,247.968 87.018,248.388 86.214,248.388 Z M93.702,249.24 C95.346,249.24 96.39,248.184 96.39,246.372 L96.39,242.952 L95.358,242.952 L95.358,246.408 C95.358,247.596 94.722,248.28 93.714,248.28 C92.682,248.28 92.046,247.596 92.046,246.408 L92.046,242.952 L91.026,242.952 L91.026,246.372 C91.026,248.184 92.07,249.24 93.702,249.24 Z" id="Ressourceseneau" fill="#666666" fill-rule="nonzero"></path>
                <g id="Group-10-Copy" transform="translate(54.000000, 166.000000)">
                    <circle id="Oval-Copy-3" fill="#246EA3" cx="24" cy="24" r="24"></circle>
                    <g id="Icon/secheresse" transform="translate(12.000000, 12.000000)" fill="#FFFFFF">
                        <path d="M19,16.3333333 L19.8,17.4 L20.2221418,17.9699789 C20.2890506,18.0615712 20.3542379,18.1514684 20.4177081,18.2396806 L20.4177081,18.2396806 L20.7779564,18.7488179 L21.0971921,19.2180125 C21.4457873,19.7422986 21.7110565,20.1860449 21.8944272,20.5527864 C22.292384,21.3486999 22.3881457,22.4978406 22.0736833,23.4412278 C21.6506102,24.710447 20.5649748,25.5 19,25.5 C16.0243248,25.5 15.0673813,22.6291694 16.1055728,20.5527864 C16.2889435,20.1860449 16.5542127,19.7422986 16.9028079,19.2180125 L16.9028079,19.2180125 L17.2220436,18.7488179 C17.2786617,18.667304 17.3369887,18.5841258 17.3970287,18.499273 L17.3970287,18.499273 L17.7778582,17.9699789 C17.9116756,17.7867942 18.0523785,17.5968287 18.2,17.4 L18.2,17.4 L19,16.3333333 Z M18.999,19.696 L18.6328762,20.2287762 L18.3666334,20.6345585 L18.144485,20.9944908 L17.966654,21.3080213 L17.8944272,21.4472136 C17.4326187,22.3708306 17.8090085,23.5 19,23.5 C19.7006502,23.5 20.0243898,23.264553 20.1763167,22.8087722 C20.3201877,22.3771594 20.270116,21.7763001 20.1055728,21.4472136 C20.0833561,21.4027802 20.059279,21.356379 20.033346,21.3080213 L20.033346,21.3080213 L19.855515,20.9944908 L19.6333666,20.6345585 L19.3671238,20.2287762 C19.2710518,20.0859351 19.1676679,19.9355442 19.0570093,19.7776956 L19.0570093,19.7776956 L18.999,19.696 Z M14,0 C14.5522847,0 15,0.44771525 15,1 C15,1.55228475 14.5522847,2 14,2 L12,2 L12.0008281,3.12623072 C13.0512547,3.39683306 13.9346147,4.08341823 14.4648015,4.99987956 L15,5 C18.7854517,5 21.8690987,8.00478338 21.995941,11.7593502 L22,12 L22,14 C22.5522847,14 23,14.4477153 23,15 C23,15.5128358 22.6139598,15.9355072 22.1166211,15.9932723 L22,16 L15,16 C14.4477153,16 14,15.5522847 14,15 C14,14.4477153 14.4477153,14 15,14 L15,13 C15,12.4477153 14.5522847,12 14,12 L4,12 L4,13 L2,13 L2,4 L4,4 L4,5 L7.53519846,4.99987956 C8.06555383,4.08312692 8.94930696,3.3963966 10.0001736,3.1259728 L10,2 L8,2 C7.44771525,2 7,1.55228475 7,1 C7,0.44771525 7.44771525,0 8,0 L14,0 Z M11,5 C10.3323286,5 9.72370598,5.3284721 9.35378,5.86342299 L9.26637532,6.00139175 L8.68874943,6.99985445 L4,6.999 L4,10 L14,10 C15.5976809,10 16.9036609,11.24892 16.9949073,12.8237272 L17,13 L17,14 L20,14 L20.0002844,12.033729 L19.9970813,11.8268787 C19.9087621,9.21260576 17.815049,7.11607447 15.2171743,7.00465803 L14.9995499,7 L13.3111149,6.99961997 L12.7336247,6.00139175 C12.3773211,5.3854985 11.7233107,5 11,5 Z" id="Combined-Shape"></path>
                    </g>
                </g>
                <g id="Group-9-Copy" transform="translate(194.000000, 83.000000)">
                    <circle id="Oval-Copy-4" fill="#246EA3" cx="24" cy="24" r="24"></circle>
                    <g id="Icon/pluie" transform="translate(12.000000, 9.000000)" fill="#FFFFFF">
                        <path d="M8,0 C9.76374807,0 11.3497498,3.02741193 12.4475515,6.3591744 L12.6417031,6.96769693 C12.704581,7.17125156 12.7655966,7.37531791 12.8246808,7.5792898 L12.99607,8.1903159 L13.1554559,8.7971381 L13.3024239,9.3961193 C13.3258607,9.49509402 13.3487629,9.59359049 13.3711217,9.69153292 L13.4986854,10.271933 L13.5257187,10.4024258 C13.9917506,10.1463681 14.4868477,10 15,10 C17.7614237,10 20,14.2385763 20,17 C20,19.4185387 18.2828356,21.4360122 16.0011864,21.8997409 L16,25 L23,25 C23.5522847,25 24,25.4477153 24,26 C24,26.5128358 23.6139598,26.9355072 23.1166211,26.9932723 L23,27 L1,27 C0.44771525,27 0,26.5522847 0,26 C0,25.4871642 0.38604019,25.0644928 0.883378875,25.0067277 L1,25 L7,25 L7.00019152,19.9170737 C4.16238395,19.4410745 2,16.9730632 2,14 C2,13.7862124 2.01118123,13.5417376 2.03299082,13.2714252 L2.07360734,12.8471845 C2.0897572,12.6997156 2.10849503,12.5463936 2.12975173,12.3878244 L2.20100931,11.8969822 L2.28696543,11.3782948 L2.38720541,10.8353993 L2.5013146,10.271933 L2.62887833,9.69153292 L2.76948194,9.09783614 L2.92271076,8.4944798 C2.94927796,8.39331751 2.97635394,8.29190428 3.00393005,8.1903159 L3.17531919,7.5792898 C3.23440337,7.37531791 3.29541898,7.17125156 3.3582969,6.96769693 L3.55244849,6.3591744 C4.65025024,3.02741193 6.23625193,0 8,0 Z M10.6135032,19.4016689 L10.5294486,19.4423449 C10.0508287,19.6651717 9.53792023,19.8267201 9.00080686,19.9169061 L9,25 L14,25 L13.999812,21.8999437 C12.5388728,21.60333 11.3092608,20.6697294 10.6135032,19.4016689 Z M15,12 C14.6655834,12 14.2797594,12.2269641 13.8985268,12.6017387 L13.8702483,12.3878244 C13.891505,12.5463936 13.9102428,12.6997156 13.9263927,12.8471845 L13.9670092,13.2714252 C13.977914,13.4065814 13.9861617,13.5352782 13.9916832,13.6569094 L14,14 C14,15.6473148 13.3361381,17.1395763 12.2613539,18.2238451 C12.7286438,19.2707574 13.77916,20 15,20 C16.6568542,20 18,18.6568542 18,17 C18,14.8257482 16.1799835,12 15,12 Z M8,2 C7.74366725,2 7.39078491,2.44350679 7,3.17177258 L6.81714989,3.52753676 C6.78629851,3.59000804 6.7552762,3.65401977 6.72410965,3.71949969 L6.53559299,4.1294195 L6.34489571,4.57110766 L6.15329901,5.04109586 C6.12136245,5.12159287 6.08944179,5.20312455 6.05756373,5.28561862 L5.86702008,5.79155377 L5.67877992,6.31711815 C5.6476697,6.4061553 5.61670883,6.49586582 5.58592403,6.58617746 L5.40354133,7.1346826 L5.22666507,7.69414619 L5.05657643,8.26109991 L4.89455658,8.83207543 C4.86829684,8.92738048 4.84242669,9.02270859 4.81697281,9.11798751 L4.66945835,9.68849265 L4.59984794,9.97221861 L4.59984794,9.97221861 L4.46972151,10.5344496 L4.35278857,11.0868292 C4.33447038,11.1778788 4.3167553,11.2683735 4.29967002,11.3582408 L4.20492952,11.8893401 C4.07479579,12.6729644 4,13.3940761 4,14 C4,16.209139 5.790861,18 8,18 C10.209139,18 12,16.209139 12,14 C12,13.3940761 11.9252042,12.6729644 11.7950705,11.8893401 L11.70033,11.3582408 C11.6832447,11.2683735 11.6655296,11.1778788 11.6472114,11.0868292 L11.5302785,10.5344496 L11.4001521,9.97221861 L11.2581133,9.40360443 C11.2335187,9.30849616 11.2084811,9.21326643 11.1830272,9.11798751 L11.0255222,8.54630171 L10.8593078,7.97690355 L10.6856652,7.41326136 L10.5058756,6.85884346 C10.4754695,6.76740185 10.4448608,6.6764891 10.414076,6.58617746 L10.227468,6.05209907 L10.037916,5.53591577 C10.0061498,5.45156916 9.97431433,5.36811269 9.94243627,5.28561862 L9.75087028,4.80278103 C9.7189286,4.72442557 9.68699771,4.64717703 9.65510429,4.57110766 L9.46440701,4.1294195 L9.27589035,3.71949969 C9.2447238,3.65401977 9.21370149,3.59000804 9.18285011,3.52753676 L9,3.17177258 C8.60921509,2.44350679 8.25633275,2 8,2 Z" id="Combined-Shape"></path>
                    </g>
                </g>
                <g id="Group-4-Copy" transform="translate(170.000000, 166.000000)">
                    <circle id="Oval-Copy" fill="#246EA3" cx="24" cy="24" r="24"></circle>
                    <g id="Icon/temperature" transform="translate(13.000000, 13.000000)" fill="#FFFFFF">
                        <path d="M21.9935164,2.88425023 L22,3 L22,20 C22,20.3680141 21.7983497,20.7026596 21.4812487,20.876617 L21.3713907,20.9284767 L16.3713907,22.9284767 L16.3567906,22.9344734 C16.3338884,22.9432228 16.3105821,22.9511546 16.2869074,22.9582328 L16.3713907,22.9284767 C16.3278409,22.9458966 16.283372,22.9601345 16.2383196,22.9711903 C16.2146449,22.9772189 16.1904764,22.9821957 16.1660072,22.986284 C16.1508844,22.9886707 16.1358697,22.990845 16.1208232,22.992676 C16.1193287,22.992955 16.1179753,22.993115 16.1166211,22.9932723 L16,23 L16,23 C15.9591547,23 15.9188813,22.9975512 15.8793187,22.9927923 C15.8641038,22.9908412 15.8491024,22.9886685 15.8341445,22.9861531 C15.8095236,22.9821957 15.7853551,22.9772189 15.7615219,22.9713878 C15.7577342,22.9702219 15.7537925,22.9692291 15.7498555,22.9682119 L15.7130926,22.9582328 C15.6894179,22.9511546 15.6661116,22.9432228 15.6432094,22.9344734 L15.6286093,22.9284767 L11,21.077 L6.37139068,22.9284767 C6.17271482,23.007947 5.95490822,23.0211921 5.74985545,22.9682119 L5.62860932,22.9284767 L0.628609324,20.9284767 C0.286916782,20.7917997 0.0510972632,20.4802879 0.00735028482,20.1212609 L0,20 L-0.000674531864,10.4563331 C0.254093826,10.873691 0.532723237,11.3052661 0.834932915,11.7518818 L1.27872007,12.3940116 C1.50982771,12.7217306 1.74924208,13.0522292 1.9990407,13.3885134 L2,19.323 L4.99993114,20.522 L4.99993114,17.197 L6.85850199,14.8766578 L6.99993114,14.694 L6.99993114,20.522 L9.99993114,19.322 L10.0007829,10.4549878 C11.3228458,8.28810541 12,6.51096323 12,5 C12,3.95296016 11.7701184,2.95961204 11.3580734,2.06767372 L11.3713907,2.07152331 L16,3.922 L20.6286093,2.07152331 C21.2489813,1.82337454 21.9207862,2.24108855 21.9935164,2.88425023 Z M11.9999311,4.477 L11.9999311,19.323 L14.9999311,20.522 L14.9999311,5.677 L11.9999311,4.477 Z M20,4.476 L16.9999311,5.676 L16.9999311,20.522 L20,19.322 L20,4.476 Z M5,0 C7.76142375,0 10,2.23857625 10,5 L9.99693114,5.116 L9.99529045,5.17277432 C9.99172647,5.23938763 9.98613969,5.30740767 9.97853012,5.37683442 L9.99194406,5.2272872 C9.98766137,5.28919154 9.9816711,5.35228338 9.97397326,5.41656272 L9.97853012,5.37683442 C9.97175979,5.43860418 9.96338824,5.50148748 9.95341547,5.56548432 L9.97397326,5.41656272 C9.96392291,5.50048627 9.9509618,5.58643405 9.93508996,5.67440604 L9.95341547,5.56548432 C9.94437801,5.62347914 9.93402559,5.68238841 9.92235821,5.74221215 L9.93508996,5.67440604 C9.92349518,5.73867175 9.91034704,5.80401773 9.89564552,5.87044396 L9.92235821,5.74221215 C9.90764264,5.81766527 9.89083528,5.89457309 9.87193612,5.97293562 L9.89564552,5.87044396 C9.87855902,5.94764636 9.85937427,6.02630794 9.83809128,6.10642871 L9.87193612,5.97293562 C9.85560255,6.04066029 9.83770656,6.10947152 9.81824816,6.1793693 L9.83809128,6.10642871 C9.81947706,6.17650274 9.79925783,6.24769295 9.77743357,6.31999935 L9.81824816,6.1793693 C9.79558057,6.26079504 9.77079269,6.34369528 9.74388453,6.42807004 L9.74402279,6.42763647 L9.6985891,6.56560358 L9.6985891,6.56560358 L9.61852683,6.79078048 C9.57107816,6.91865018 9.51920314,7.04959809 9.46290178,7.18362422 C9.42329848,7.27789102 9.38167382,7.37330833 9.33787637,7.47023667 L9.33834259,7.46920475 C9.28926993,7.57780781 9.23798734,7.68724002 9.18402861,7.79853331 L9.18464976,7.79725198 C9.11792689,7.93487226 9.04780901,8.07400417 8.97367496,8.21592905 C8.8235975,8.50324133 8.65708014,8.8019674 8.47410731,9.11213712 L8.11618187,9.70004771 C7.92780005,10.0005533 7.7252896,10.3108844 7.50865052,10.631041 L7.07612457,11.2567061 C6.70126874,11.7881201 6.29036909,12.3446001 5.84342561,12.926146 L5.28979239,13.6360328 L5,14 L4.71020761,13.6360328 L4.15657439,12.926146 C3.70963091,12.3446001 3.29873126,11.7881201 2.92387543,11.2567061 L2.49134948,10.631041 C2.2747104,10.3108844 2.07219995,10.0005533 1.88381813,9.70004771 L1.52589269,9.11213712 C1.25223682,8.6482444 1.01538933,8.20994935 0.815350242,7.79725198 L0.903245075,7.97551039 C0.850052878,7.8694006 0.799210052,7.76492462 0.750716596,7.66208247 L0.815350242,7.79725198 C0.774653605,7.71329142 0.735480439,7.63039032 0.697830743,7.5485487 L0.698133115,7.54920593 C0.633904168,7.40958728 0.574369711,7.27368028 0.519227373,7.14082769 C0.453953075,6.98356451 0.39483321,6.83058131 0.34186778,6.68187809 C0.286730209,6.52707323 0.238277015,6.37695709 0.196489167,6.23147624 L0.196674654,6.23212187 C0.173867536,6.15272094 0.153199212,6.07532404 0.134484194,5.99928553 L0.147177186,6.04989313 C0.129320474,5.97999336 0.113088651,5.9112236 0.0984817174,5.84358383 L0.134484194,5.99928553 C0.112863769,5.91144243 0.0938502081,5.82541223 0.077443512,5.74119492 L0.0984817174,5.84358383 C0.0861653814,5.78655105 0.075004276,5.73032165 0.0649984013,5.67489563 L0.077443512,5.74119492 C0.0658116607,5.68148739 0.055490119,5.6226911 0.0464788868,5.56480603 L0.0649984013,5.67489563 C0.049029377,5.58643765 0.0360028451,5.50002597 0.0259188056,5.41566059 L0.0464788868,5.56480603 C0.0367016746,5.50200057 0.0284669995,5.44026784 0.0217748615,5.37960784 L0.0216878519,5.37881842 C0.00725828718,5.24802426 0,5.12148831 0,5 C0,2.3112453 2.12230671,0.118181885 4.78311038,0.00461951385 L5,0 L5,0 Z M5,2 C3.34314575,2 2,3.34314575 2,5 C2,5.57722207 2.33371768,6.48350205 3.0052997,7.67837593 L3.27298845,8.13990244 C3.36750256,8.2982012 3.4673039,8.46093021 3.57240057,8.62801044 L3.90358466,9.14222574 L4.26658931,9.68207416 L4.66146312,10.2470815 C4.72993389,10.3433196 4.79973456,10.4405863 4.87086614,10.5388716 L5,10.715 L5.34674699,10.2355379 L5.75608919,9.64896905 L6.13096487,9.0896429 C6.25018508,8.90780056 6.36366999,8.73058756 6.47142869,8.55809281 L6.7775353,8.05485219 C7.54805858,6.75109727 7.95268809,5.7549995 7.99608823,5.11207541 L8,5 C8,3.34314575 6.65685425,2 5,2 Z M5,4 C5.55228475,4 6,4.44771525 6,5 C6,5.55228475 5.55228475,6 5,6 C4.44771525,6 4,5.55228475 4,5 C4,4.44771525 4.44771525,4 5,4 Z" id="Combined-Shape"></path>
                    </g>
                </g>
                <g id="Group-2-Copy" transform="translate(112.000000, 8.000000)">
                    <circle id="Oval-Copy-2" fill="#246EA3" cx="24" cy="24" r="24"></circle>
                    <g id="Icon/vent" transform="translate(12.000000, 13.000000)" fill="#FFFFFF">
                        <path d="M6,11 C8.76142375,11 11,13.2385763 11,16 C11,18.7614237 8.76142375,21 6,21 C3.23857625,21 1,18.7614237 1,16 C1,13.2385763 3.23857625,11 6,11 Z M14,0 L14.1121983,0.00623704562 C14.5912602,0.0598187693 14.9711234,0.452464598 14.9984604,0.94452998 L14.9984604,0.94452998 L15.4517123,9.117 L16.9997123,9.323 L17,5 C17,4.48716416 17.3860402,4.06449284 17.8833789,4.00672773 L18,4 L20,4 C21.2873563,4 21.3317479,5.86444709 20.1331748,5.99302964 L20,6 L19,6 L18.9997123,9.59 L22.1321637,10.0087721 C22.5907539,10.0699175 22.9421742,10.4357154 22.9935253,10.8858396 L23,11 L23.000057,14.3542402 C23.6223865,15.0593653 24,15.9855845 24,17 C24,19.209139 22.209139,21 20,21 C17.790861,21 16,19.209139 16,17 L13,17 C12.4477153,17 12,16.5522847 12,16 C12,12.6862915 9.3137085,10 6,10 C4.37403823,10 2.85345296,10.6484533 1.73287089,11.7819889 C1.3445972,12.1747509 0.711442673,12.1783893 0.318680679,11.7901156 C-0.0740813142,11.401842 -0.0777197999,10.7686874 0.310553894,10.3759254 C1.57075947,9.10115235 3.21481618,8.28525892 4.99982464,8.06212848 L5,1 L5.00672773,0.883378875 C5.06449284,0.38604019 5.48716416,0 6,0 L6,0 L14,0 Z M6,13 C4.34314575,13 3,14.3431458 3,16 C3,17.6568542 4.34314575,19 6,19 C7.65685425,19 9,17.6568542 9,16 C9,14.3431458 7.65685425,13 6,13 Z M20,15 C18.8954305,15 18,15.8954305 18,17 C18,18.1045695 18.8954305,19 20,19 C21.1045695,19 22,18.1045695 22,17 C22,15.8954305 21.1045695,15 20,15 Z M14.434,11 L12.2456806,11.0003863 C13.1468971,12.1247583 13.7507842,13.4977223 13.9381123,15.0000487 L16.5351985,14.9998796 C17.2268344,13.8043432 18.519485,13 20,13 C20.3455738,13 20.6809122,13.0438225 21.0007613,13.1262135 L21,11.875 L14.434,11 Z M13.053,2 L7,2 L6.99995128,8.06188768 C8.08216644,8.19683126 9.09725313,8.54793475 10.0006424,9.07062924 L10,9 L13.442,9 L13.053,2 Z" id="Combined-Shape"></path>
                    </g>
                </g>
            </g>
        </g>
    </g>
</svg>