<svg width="1061" height="118" viewBox="0 0 1061 118" fill="none" xmlns="http://www.w3.org/2000/svg">
  <path d="M922.831 15.4929C922.778 15.0223 922.559 14.6577 922.175 14.3991C921.79 14.1373 921.307 14.0064 920.723 14.0064C920.306 14.0064 919.944 14.0727 919.639 14.2053C919.334 14.3345 919.097 14.5135 918.928 14.7422C918.763 14.9676 918.68 15.2244 918.68 15.5128C918.68 15.7547 918.736 15.9635 918.849 16.1392C918.965 16.3149 919.116 16.4624 919.301 16.5817C919.49 16.6977 919.692 16.7955 919.908 16.875C920.123 16.9512 920.33 17.0142 920.529 17.0639L921.524 17.3224C921.848 17.402 922.182 17.5097 922.523 17.6456C922.864 17.7815 923.181 17.9605 923.472 18.1825C923.764 18.4046 923.999 18.6797 924.178 19.0078C924.361 19.3359 924.452 19.7287 924.452 20.1861C924.452 20.7628 924.303 21.2749 924.004 21.7223C923.709 22.1697 923.28 22.5227 922.717 22.7812C922.157 23.0398 921.479 23.169 920.683 23.169C919.921 23.169 919.262 23.0481 918.705 22.8061C918.148 22.5642 917.712 22.2211 917.397 21.777C917.082 21.3295 916.908 20.7992 916.875 20.1861H918.416C918.446 20.554 918.566 20.8606 918.774 21.1058C918.986 21.3478 919.257 21.5284 919.585 21.6477C919.916 21.7637 920.279 21.8217 920.673 21.8217C921.108 21.8217 921.494 21.7538 921.832 21.6179C922.173 21.4787 922.442 21.2865 922.637 21.0412C922.833 20.7926 922.931 20.5026 922.931 20.1712C922.931 19.8696 922.844 19.6226 922.672 19.4304C922.503 19.2382 922.273 19.0791 921.981 18.9531C921.693 18.8272 921.366 18.7161 921.002 18.62L919.798 18.2919C918.983 18.0698 918.337 17.7434 917.86 17.3125C917.386 16.8816 917.149 16.3116 917.149 15.6023C917.149 15.0156 917.308 14.5036 917.626 14.0661C917.944 13.6286 918.375 13.2888 918.918 13.0469C919.462 12.8016 920.075 12.679 920.758 12.679C921.447 12.679 922.056 12.8 922.583 13.0419C923.113 13.2839 923.53 13.617 923.835 14.0412C924.14 14.4621 924.299 14.946 924.313 15.4929H922.831ZM932.835 12.8182H934.376V19.5149C934.376 20.2275 934.209 20.8589 933.874 21.4091C933.54 21.956 933.069 22.3868 932.462 22.7017C931.856 23.0133 931.145 23.169 930.33 23.169C929.518 23.169 928.808 23.0133 928.202 22.7017C927.595 22.3868 927.125 21.956 926.79 21.4091C926.455 20.8589 926.288 20.2275 926.288 19.5149V12.8182H927.824V19.3906C927.824 19.8513 927.925 20.2607 928.127 20.6186C928.333 20.9766 928.623 21.2583 928.997 21.4638C929.372 21.666 929.816 21.767 930.33 21.767C930.847 21.767 931.292 21.666 931.667 21.4638C932.045 21.2583 932.333 20.9766 932.532 20.6186C932.734 20.2607 932.835 19.8513 932.835 19.3906V12.8182ZM938.146 12.8182V23H936.61V12.8182H938.146ZM941.273 12.8182L944.107 21.1108H944.221L947.055 12.8182H948.716L945.052 23H943.277L939.613 12.8182H941.273ZM951.722 12.8182V23H950.186V12.8182H951.722Z" fill="#5858C3"/>
  <path d="M642.776 23V12.8182H649.159V14.1406H644.312V17.2429H648.826V18.5604H644.312V21.6776H649.219V23H642.776ZM652.101 12.8182L654.935 21.1108H655.049L657.883 12.8182H659.544L655.88 23H654.105L650.441 12.8182H652.101ZM660.835 23H659.204L662.868 12.8182H664.643L668.307 23H666.677L663.798 14.6676H663.718L660.835 23ZM661.108 19.0128H666.398V20.3054H661.108V19.0128ZM669.778 23V12.8182H671.314V21.6776H675.927V23H669.778ZM684.228 12.8182H685.769V19.5149C685.769 20.2275 685.601 20.8589 685.267 21.4091C684.932 21.956 684.461 22.3868 683.855 22.7017C683.248 23.0133 682.537 23.169 681.722 23.169C680.91 23.169 680.201 23.0133 679.594 22.7017C678.987 22.3868 678.517 21.956 678.182 21.4091C677.847 20.8589 677.68 20.2275 677.68 19.5149V12.8182H679.216V19.3906C679.216 19.8513 679.317 20.2607 679.519 20.6186C679.725 20.9766 680.015 21.2583 680.389 21.4638C680.764 21.666 681.208 21.767 681.722 21.767C682.239 21.767 682.685 21.666 683.059 21.4638C683.437 21.2583 683.725 20.9766 683.924 20.6186C684.126 20.2607 684.228 19.8513 684.228 19.3906V12.8182ZM688.862 23H687.232L690.896 12.8182H692.671L696.335 23H694.704L691.825 14.6676H691.746L688.862 23ZM689.136 19.0128H694.426V20.3054H689.136V19.0128ZM696.1 14.1406V12.8182H703.98V14.1406H700.803V23H699.272V14.1406H696.1ZM707.257 12.8182V23H705.721V12.8182H707.257ZM718.339 17.9091C718.339 18.9962 718.14 19.9309 717.742 20.7131C717.345 21.492 716.799 22.0919 716.107 22.5128C715.417 22.9304 714.633 23.1392 713.755 23.1392C712.873 23.1392 712.086 22.9304 711.394 22.5128C710.704 22.0919 710.161 21.4903 709.763 20.7081C709.365 19.9259 709.166 18.9929 709.166 17.9091C709.166 16.822 709.365 15.889 709.763 15.1101C710.161 14.3279 710.704 13.728 711.394 13.3104C712.086 12.8894 712.873 12.679 713.755 12.679C714.633 12.679 715.417 12.8894 716.107 13.3104C716.799 13.728 717.345 14.3279 717.742 15.1101C718.14 15.889 718.339 16.822 718.339 17.9091ZM716.818 17.9091C716.818 17.0805 716.683 16.3828 716.415 15.8161C716.15 15.246 715.785 14.8151 715.321 14.5234C714.86 14.2285 714.338 14.081 713.755 14.081C713.168 14.081 712.645 14.2285 712.184 14.5234C711.723 14.8151 711.359 15.246 711.09 15.8161C710.825 16.3828 710.693 17.0805 710.693 17.9091C710.693 18.7377 710.825 19.437 711.09 20.0071C711.359 20.5739 711.723 21.0047 712.184 21.2997C712.645 21.5914 713.168 21.7372 713.755 21.7372C714.338 21.7372 714.86 21.5914 715.321 21.2997C715.785 21.0047 716.15 20.5739 716.415 20.0071C716.683 19.437 716.818 18.7377 716.818 17.9091ZM728.472 12.8182V23H727.06L721.885 15.5327H721.79V23H720.254V12.8182H721.676L726.856 20.2955H726.951V12.8182H728.472Z" fill="#716B2C"/>
  <path d="M401.703 21.3292V11.1474H405.332C406.124 11.1474 406.781 11.2916 407.301 11.5799C407.821 11.8683 408.211 12.2627 408.469 12.7632C408.728 13.2603 408.857 13.8205 408.857 14.4436C408.857 15.07 408.726 15.6334 408.464 16.1339C408.206 16.6311 407.815 17.0255 407.291 17.3171C406.771 17.6055 406.116 17.7497 405.327 17.7497H402.832V16.4471H405.188C405.689 16.4471 406.095 16.3609 406.406 16.1886C406.718 16.0129 406.946 15.7743 407.092 15.4727C407.238 15.1711 407.311 14.828 407.311 14.4436C407.311 14.0591 407.238 13.7177 407.092 13.4194C406.946 13.1211 406.716 12.8875 406.401 12.7184C406.09 12.5494 405.679 12.4649 405.168 12.4649H403.239V21.3292H401.703ZM410.658 21.3292V11.1474H412.194V20.0068H416.808V21.3292H410.658ZM419.94 21.3292H418.309L421.973 11.1474H423.748L427.412 21.3292H425.782L422.903 12.9968H422.824L419.94 21.3292ZM420.213 17.342H425.503V18.6346H420.213V17.342ZM437.101 11.1474V21.3292H435.689L430.513 13.8619H430.419V21.3292H428.883V11.1474H430.305L435.485 18.6247H435.579V11.1474H437.101ZM446.343 21.3292H443.047V11.1474H446.447C447.445 11.1474 448.302 11.3512 449.018 11.7589C449.733 12.1633 450.282 12.7449 450.663 13.5039C451.048 14.2596 451.24 15.1661 451.24 16.2234C451.24 17.284 451.046 18.1955 450.658 18.9578C450.274 19.7201 449.717 20.3067 448.988 20.7177C448.259 21.1254 447.377 21.3292 446.343 21.3292ZM444.583 19.9869H446.258C447.034 19.9869 447.679 19.8411 448.192 19.5494C448.706 19.2544 449.091 18.8285 449.346 18.2717C449.601 17.7116 449.729 17.0288 449.729 16.2234C449.729 15.4246 449.601 14.7468 449.346 14.19C449.094 13.6332 448.718 13.2106 448.217 12.9223C447.717 12.6339 447.095 12.4897 446.353 12.4897H444.583V19.9869ZM454.309 11.1474V12.102C454.309 12.3837 454.256 12.6803 454.15 12.9919C454.047 13.3001 453.901 13.5967 453.712 13.8818C453.523 14.1668 453.301 14.4121 453.046 14.6176L452.31 14.0906C452.506 13.8055 452.675 13.5023 452.817 13.1808C452.963 12.8593 453.036 12.5046 453.036 12.1169V11.1474H454.309ZM454.885 21.3292H453.255L456.919 11.1474H458.694L462.358 21.3292H460.727L457.848 12.9968H457.769L454.885 21.3292ZM455.159 17.342H460.449V18.6346H455.159V17.342ZM471.806 14.4585H470.255C470.195 14.127 470.084 13.8354 469.922 13.5835C469.759 13.3316 469.561 13.1178 469.325 12.9421C469.09 12.7665 468.826 12.6339 468.535 12.5444C468.246 12.4549 467.94 12.4102 467.615 12.4102C467.028 12.4102 466.503 12.5577 466.039 12.8527C465.578 13.1476 465.214 13.5802 464.945 14.1502C464.68 14.7203 464.548 15.4163 464.548 16.2383C464.548 17.0669 464.68 17.7662 464.945 18.3363C465.214 18.9064 465.58 19.3373 466.044 19.6289C466.508 19.9206 467.03 20.0664 467.61 20.0664C467.932 20.0664 468.237 20.0234 468.525 19.9372C468.817 19.8477 469.08 19.7168 469.315 19.5444C469.551 19.3721 469.75 19.1616 469.912 18.913C470.078 18.6611 470.192 18.3728 470.255 18.048L471.806 18.0529C471.723 18.5534 471.563 19.0141 471.324 19.435C471.089 19.8527 470.785 20.2139 470.414 20.5189C470.046 20.8205 469.625 21.0541 469.151 21.2198C468.677 21.3856 468.16 21.4684 467.6 21.4684C466.719 21.4684 465.933 21.2596 465.244 20.842C464.554 20.4211 464.011 19.8195 463.613 19.0373C463.219 18.2551 463.021 17.3221 463.021 16.2383C463.021 15.1512 463.22 14.2182 463.618 13.4393C464.016 12.6571 464.559 12.0572 465.249 11.6396C465.938 11.2187 466.722 11.0082 467.6 11.0082C468.14 11.0082 468.644 11.0861 469.112 11.2419C469.582 11.3943 470.005 11.6197 470.379 11.918C470.754 12.213 471.064 12.5743 471.309 13.0018C471.554 13.4261 471.72 13.9116 471.806 14.4585ZM473.142 12.4698V11.1474H481.022V12.4698H477.845V21.3292H476.314V12.4698H473.142ZM484.3 11.1474V21.3292H482.764V11.1474H484.3ZM495.381 16.2383C495.381 17.3254 495.183 18.2601 494.785 19.0423C494.387 19.8212 493.842 20.4211 493.149 20.842C492.46 21.2596 491.676 21.4684 490.798 21.4684C489.916 21.4684 489.129 21.2596 488.436 20.842C487.747 20.4211 487.203 19.8195 486.805 19.0373C486.408 18.2551 486.209 17.3221 486.209 16.2383C486.209 15.1512 486.408 14.2182 486.805 13.4393C487.203 12.6571 487.747 12.0572 488.436 11.6396C489.129 11.2187 489.916 11.0082 490.798 11.0082C491.676 11.0082 492.46 11.2187 493.149 11.6396C493.842 12.0572 494.387 12.6571 494.785 13.4393C495.183 14.2182 495.381 15.1512 495.381 16.2383ZM493.86 16.2383C493.86 15.4097 493.726 14.712 493.457 14.1453C493.192 13.5752 492.828 13.1443 492.364 12.8527C491.903 12.5577 491.381 12.4102 490.798 12.4102C490.211 12.4102 489.687 12.5577 489.227 12.8527C488.766 13.1443 488.401 13.5752 488.133 14.1453C487.868 14.712 487.735 15.4097 487.735 16.2383C487.735 17.0669 487.868 17.7662 488.133 18.3363C488.401 18.9031 488.766 19.334 489.227 19.6289C489.687 19.9206 490.211 20.0664 490.798 20.0664C491.381 20.0664 491.903 19.9206 492.364 19.6289C492.828 19.334 493.192 18.9031 493.457 18.3363C493.726 17.7662 493.86 17.0669 493.86 16.2383ZM505.515 11.1474V21.3292H504.103L498.927 13.8619H498.833V21.3292H497.297V11.1474H498.719L503.899 18.6247H503.993V11.1474H505.515Z" fill="#FD9640"/>
  <path d="M254.952 6.4929C254.899 6.02225 254.681 5.65767 254.296 5.39915C253.912 5.13731 253.428 5.00639 252.844 5.00639C252.427 5.00639 252.066 5.07268 251.761 5.20526C251.456 5.33452 251.219 5.51349 251.05 5.74219C250.884 5.96757 250.801 6.22443 250.801 6.51278C250.801 6.75473 250.857 6.96354 250.97 7.1392C251.086 7.31487 251.237 7.46236 251.423 7.58168C251.611 7.69768 251.814 7.79545 252.029 7.875C252.245 7.95123 252.452 8.0142 252.651 8.06392L253.645 8.32244C253.97 8.40199 254.303 8.50971 254.644 8.6456C254.986 8.78149 255.302 8.96046 255.594 9.18253C255.885 9.40459 256.121 9.67969 256.3 10.0078C256.482 10.3359 256.573 10.7287 256.573 11.1861C256.573 11.7628 256.424 12.2749 256.126 12.7223C255.831 13.1697 255.401 13.5227 254.838 13.7812C254.278 14.0398 253.6 14.169 252.805 14.169C252.042 14.169 251.383 14.0481 250.826 13.8061C250.269 13.5642 249.833 13.2211 249.518 12.777C249.204 12.3295 249.03 11.7992 248.996 11.1861H250.538C250.567 11.554 250.687 11.8606 250.896 12.1058C251.108 12.3478 251.378 12.5284 251.706 12.6477C252.037 12.7637 252.4 12.8217 252.795 12.8217C253.229 12.8217 253.615 12.7538 253.953 12.6179C254.294 12.4787 254.563 12.2865 254.759 12.0412C254.954 11.7926 255.052 11.5026 255.052 11.1712C255.052 10.8696 254.966 10.6226 254.793 10.4304C254.624 10.2382 254.394 10.0791 254.102 9.95312C253.814 9.82718 253.487 9.71615 253.123 9.62003L251.92 9.2919C251.104 9.06984 250.458 8.74337 249.981 8.3125C249.507 7.88163 249.27 7.31155 249.27 6.60227C249.27 6.01562 249.429 5.50355 249.747 5.06605C250.065 4.62855 250.496 4.28883 251.04 4.04688C251.583 3.80161 252.196 3.67898 252.879 3.67898C253.569 3.67898 254.177 3.79995 254.704 4.0419C255.234 4.28385 255.652 4.61695 255.957 5.04119C256.262 5.46212 256.421 5.94602 256.434 6.4929H254.952ZM257.907 5.14062V3.81818H265.787V5.14062H262.61V14H261.079V5.14062H257.907ZM267.528 14V3.81818H271.157C271.946 3.81818 272.601 3.95407 273.121 4.22585C273.645 4.49763 274.036 4.87382 274.294 5.3544C274.553 5.83168 274.682 6.38352 274.682 7.00994C274.682 7.63305 274.551 8.18158 274.289 8.65554C274.031 9.12618 273.64 9.49242 273.116 9.75426C272.596 10.0161 271.941 10.147 271.152 10.147H268.403V8.82457H271.013C271.51 8.82457 271.915 8.75331 272.226 8.6108C272.541 8.46828 272.771 8.26113 272.917 7.98935C273.063 7.71757 273.136 7.3911 273.136 7.00994C273.136 6.62547 273.061 6.29238 272.912 6.01065C272.766 5.72893 272.536 5.51349 272.221 5.36435C271.91 5.21188 271.5 5.13565 270.993 5.13565H269.064V14H267.528ZM272.554 9.40625L275.07 14H273.32L270.854 9.40625H272.554ZM277.412 14H275.781L279.445 3.81818H281.22L284.884 14H283.253L280.375 5.66761H280.295L277.412 14ZM277.685 10.0128H282.975V11.3054H277.685V10.0128ZM284.649 5.14062V3.81818H292.529V5.14062H289.352V14H287.821V5.14062H284.649ZM294.27 14V3.81818H300.654V5.14062H295.806V8.2429H300.321V9.56037H295.806V12.6776H300.713V14H294.27ZM296.846 2.79901L298.009 0.507102H299.575L298.034 2.79901H296.846ZM309.596 7.0348C309.5 6.73319 309.371 6.46307 309.209 6.22443C309.05 5.98248 308.859 5.77699 308.637 5.60795C308.415 5.43561 308.161 5.30469 307.876 5.2152C307.594 5.12571 307.285 5.08097 306.947 5.08097C306.373 5.08097 305.856 5.22846 305.395 5.52344C304.935 5.81842 304.57 6.25095 304.302 6.82102C304.036 7.38778 303.904 8.08215 303.904 8.90412C303.904 9.7294 304.038 10.4271 304.307 10.9972C304.575 11.5672 304.943 11.9998 305.41 12.2947C305.878 12.5897 306.41 12.7372 307.006 12.7372C307.56 12.7372 308.042 12.6245 308.453 12.3991C308.867 12.1738 309.187 11.8556 309.412 11.4446C309.641 11.0303 309.755 10.5431 309.755 9.98295L310.153 10.0575H307.24V8.78977H311.242V9.94815C311.242 10.8033 311.06 11.5457 310.695 12.1754C310.334 12.8018 309.833 13.2857 309.194 13.6271C308.557 13.9685 307.828 14.1392 307.006 14.1392C306.085 14.1392 305.276 13.9271 304.58 13.5028C303.887 13.0786 303.347 12.477 302.959 11.6982C302.572 10.916 302.378 9.98793 302.378 8.91406C302.378 8.10204 302.49 7.37287 302.716 6.72656C302.941 6.08026 303.258 5.53172 303.665 5.08097C304.076 4.62689 304.559 4.28054 305.112 4.0419C305.669 3.79995 306.277 3.67898 306.937 3.67898C307.487 3.67898 307.999 3.76018 308.473 3.92258C308.95 4.08499 309.374 4.31534 309.746 4.61364C310.12 4.91193 310.43 5.26657 310.675 5.67756C310.92 6.08523 311.086 6.53764 311.172 7.0348H309.596ZM314.728 3.81818V14H313.192V3.81818H314.728ZM316.966 14V3.81818H323.349V5.14062H318.502V8.2429H323.016V9.56037H318.502V12.6776H323.409V14H316.966ZM240.814 31H237.518V20.8182H240.919C241.916 20.8182 242.773 21.022 243.489 21.4297C244.205 21.834 244.754 22.4157 245.135 23.1747C245.519 23.9304 245.711 24.8369 245.711 25.8942C245.711 26.9548 245.518 27.8662 245.13 28.6286C244.745 29.3909 244.188 29.9775 243.459 30.3885C242.73 30.7962 241.849 31 240.814 31ZM239.054 29.6577H240.73C241.505 29.6577 242.15 29.5118 242.664 29.2202C243.178 28.9252 243.562 28.4993 243.817 27.9425C244.072 27.3823 244.2 26.6996 244.2 25.8942C244.2 25.0954 244.072 24.4176 243.817 23.8608C243.565 23.304 243.189 22.8814 242.689 22.593C242.188 22.3047 241.567 22.1605 240.824 22.1605H239.054V29.6577ZM248.78 20.8182V21.7727C248.78 22.0545 248.727 22.3511 248.621 22.6626C248.518 22.9709 248.372 23.2675 248.184 23.5526C247.995 23.8376 247.773 24.0829 247.517 24.2884L246.782 23.7614C246.977 23.4763 247.146 23.1731 247.289 22.8516C247.435 22.5301 247.507 22.1754 247.507 21.7876V20.8182H248.78ZM249.357 31H247.726L251.39 20.8182H253.165L256.829 31H255.198L252.32 22.6676H252.24L249.357 31ZM249.63 27.0128H254.92V28.3054H249.63V27.0128ZM261.596 31H258.3V20.8182H261.7C262.698 20.8182 263.554 21.022 264.27 21.4297C264.986 21.834 265.535 22.4157 265.916 23.1747C266.3 23.9304 266.493 24.8369 266.493 25.8942C266.493 26.9548 266.299 27.8662 265.911 28.6286C265.527 29.3909 264.97 29.9775 264.241 30.3885C263.511 30.7962 262.63 31 261.596 31ZM259.836 29.6577H261.511C262.287 29.6577 262.931 29.5118 263.445 29.2202C263.959 28.9252 264.343 28.4993 264.599 27.9425C264.854 27.3823 264.981 26.6996 264.981 25.8942C264.981 25.0954 264.854 24.4176 264.599 23.8608C264.347 23.304 263.97 22.8814 263.47 22.593C262.969 22.3047 262.348 22.1605 261.606 22.1605H259.836V29.6577ZM268.757 31H267.127L270.791 20.8182H272.565L276.23 31H274.599L271.72 22.6676H271.641L268.757 31ZM269.031 27.0128H274.32V28.3054H269.031V27.0128ZM277.7 31V20.8182H281.329C282.121 20.8182 282.778 20.9624 283.298 21.2507C283.818 21.5391 284.208 21.9335 284.466 22.4339C284.725 22.9311 284.854 23.4912 284.854 24.1143C284.854 24.7408 284.723 25.3042 284.461 25.8047C284.203 26.3018 283.812 26.6963 283.288 26.9879C282.768 27.2763 282.113 27.4205 281.324 27.4205H278.828V26.1179H281.185C281.685 26.1179 282.091 26.0317 282.403 25.8594C282.715 25.6837 282.943 25.4451 283.089 25.1435C283.235 24.8419 283.308 24.4988 283.308 24.1143C283.308 23.7299 283.235 23.3885 283.089 23.0902C282.943 22.7919 282.713 22.5582 282.398 22.3892C282.087 22.2202 281.676 22.1357 281.165 22.1357H279.236V31H277.7ZM286.153 22.1406V20.8182H294.033V22.1406H290.856V31H289.325V22.1406H286.153ZM295.431 31H293.8L297.464 20.8182H299.239L302.903 31H301.273L298.394 22.6676H298.315L295.431 31ZM295.705 27.0128H300.994V28.3054H295.705V27.0128ZM302.668 22.1406V20.8182H310.548V22.1406H307.372V31H305.84V22.1406H302.668ZM313.826 20.8182V31H312.29V20.8182H313.826ZM324.908 25.9091C324.908 26.9962 324.709 27.9309 324.311 28.7131C323.913 29.492 323.368 30.0919 322.675 30.5128C321.986 30.9304 321.202 31.1392 320.324 31.1392C319.442 31.1392 318.655 30.9304 317.962 30.5128C317.273 30.0919 316.729 29.4903 316.332 28.7081C315.934 27.9259 315.735 26.9929 315.735 25.9091C315.735 24.822 315.934 23.889 316.332 23.1101C316.729 22.3279 317.273 21.728 317.962 21.3104C318.655 20.8894 319.442 20.679 320.324 20.679C321.202 20.679 321.986 20.8894 322.675 21.3104C323.368 21.728 323.913 22.3279 324.311 23.1101C324.709 23.889 324.908 24.822 324.908 25.9091ZM323.386 25.9091C323.386 25.0805 323.252 24.3828 322.984 23.8161C322.718 23.246 322.354 22.8151 321.89 22.5234C321.429 22.2285 320.907 22.081 320.324 22.081C319.737 22.081 319.214 22.2285 318.753 22.5234C318.292 22.8151 317.928 23.246 317.659 23.8161C317.394 24.3828 317.261 25.0805 317.261 25.9091C317.261 26.7377 317.394 27.437 317.659 28.0071C317.928 28.5739 318.292 29.0047 318.753 29.2997C319.214 29.5914 319.737 29.7372 320.324 29.7372C320.907 29.7372 321.429 29.5914 321.89 29.2997C322.354 29.0047 322.718 28.5739 322.984 28.0071C323.252 27.437 323.386 26.7377 323.386 25.9091ZM335.041 20.8182V31H333.629L328.454 23.5327H328.359V31H326.823V20.8182H328.245L333.425 28.2955H333.52V20.8182H335.041Z" fill="#FD9640"/>
  <path d="M7.26536 3.81818V14H5.72914V3.81818H7.26536ZM12.7987 14H9.50258V3.81818H12.9031C13.9008 3.81818 14.7576 4.02202 15.4735 4.42969C16.1894 4.83404 16.7379 5.41572 17.1191 6.17472C17.5035 6.9304 17.6958 7.83688 17.6958 8.89418C17.6958 9.95478 17.5019 10.8662 17.1141 11.6286C16.7296 12.3909 16.1728 12.9775 15.4436 13.3885C14.7145 13.7962 13.8328 14 12.7987 14ZM11.0388 12.6577H12.7142C13.4898 12.6577 14.1344 12.5118 14.6482 12.2202C15.1619 11.9252 15.5464 11.4993 15.8016 10.9425C16.0568 10.3823 16.1844 9.69957 16.1844 8.89418C16.1844 8.09541 16.0568 7.41761 15.8016 6.8608C15.5497 6.30398 15.1735 5.88139 14.673 5.59304C14.1726 5.30469 13.5511 5.16051 12.8087 5.16051H11.0388V12.6577ZM19.6061 14V3.81818H25.9896V5.14062H21.1423V8.2429H25.6565V9.56037H21.1423V12.6776H26.0493V14H19.6061ZM36.2597 3.81818V14H34.8478L29.6723 6.53267H29.5779V14H28.0416V3.81818H29.4635L34.6439 11.2955H34.7384V3.81818H36.2597ZM37.9985 5.14062V3.81818H45.8785V5.14062H42.7016V14H41.1704V5.14062H37.9985ZM49.156 3.81818V14H47.6198V3.81818H49.156ZM51.3932 14V3.81818H57.7071V5.14062H52.9294V8.2429H57.2547V9.56037H52.9294V14H51.3932ZM61.1326 3.81818V14H59.5963V3.81818H61.1326ZM71.8264 7.12926H70.2753C70.2156 6.79782 70.1046 6.50615 69.9422 6.25426C69.7798 6.00237 69.5809 5.78859 69.3456 5.61293C69.1103 5.43726 68.8468 5.30469 68.5551 5.2152C68.2668 5.12571 67.9602 5.08097 67.6354 5.08097C67.0487 5.08097 66.5234 5.22846 66.0594 5.52344C65.5987 5.81842 65.2341 6.25095 64.9656 6.82102C64.7005 7.3911 64.5679 8.08712 64.5679 8.90909C64.5679 9.73769 64.7005 10.437 64.9656 11.0071C65.2341 11.5772 65.6004 12.008 66.0644 12.2997C66.5284 12.5914 67.0504 12.7372 67.6304 12.7372C67.9519 12.7372 68.2568 12.6941 68.5452 12.608C68.8369 12.5185 69.1004 12.3875 69.3357 12.2152C69.571 12.0429 69.7699 11.8324 69.9323 11.5838C70.098 11.3319 70.2123 11.0436 70.2753 10.7188L71.8264 10.7237C71.7436 11.2242 71.5828 11.6849 71.3442 12.1058C71.1089 12.5234 70.8056 12.8847 70.4344 13.1896C70.0665 13.4912 69.6456 13.7249 69.1716 13.8906C68.6977 14.0563 68.1806 14.1392 67.6205 14.1392C66.7388 14.1392 65.9533 13.9304 65.2639 13.5128C64.5745 13.0919 64.031 12.4903 63.6333 11.7081C63.2388 10.9259 63.0416 9.9929 63.0416 8.90909C63.0416 7.82197 63.2405 6.88897 63.6382 6.11008C64.036 5.32789 64.5795 4.72798 65.2689 4.31037C65.9583 3.88944 66.7422 3.67898 67.6205 3.67898C68.1607 3.67898 68.6645 3.75687 69.1318 3.91264C69.6025 4.0651 70.0251 4.29048 70.3996 4.58878C70.7741 4.88376 71.084 5.24503 71.3293 5.67258C71.5746 6.09683 71.7403 6.58239 71.8264 7.12926ZM74.4564 14H72.8257L76.4898 3.81818H78.2647L81.9287 14H80.298L77.4195 5.66761H77.3399L74.4564 14ZM74.7299 10.0128H80.0196V11.3054H74.7299V10.0128ZM81.6938 5.14062V3.81818H89.5738V5.14062H86.3969V14H84.8657V5.14062H81.6938ZM92.8513 3.81818V14H91.3151V3.81818H92.8513ZM103.933 8.90909C103.933 9.99621 103.734 10.9309 103.336 11.7131C102.939 12.492 102.393 13.0919 101.701 13.5128C101.011 13.9304 100.227 14.1392 99.3492 14.1392C98.4675 14.1392 97.6804 13.9304 96.9877 13.5128C96.2983 13.0919 95.7547 12.4903 95.357 11.7081C94.9593 10.9259 94.7604 9.9929 94.7604 8.90909C94.7604 7.82197 94.9593 6.88897 95.357 6.11008C95.7547 5.32789 96.2983 4.72798 96.9877 4.31037C97.6804 3.88944 98.4675 3.67898 99.3492 3.67898C100.227 3.67898 101.011 3.88944 101.701 4.31037C102.393 4.72798 102.939 5.32789 103.336 6.11008C103.734 6.88897 103.933 7.82197 103.933 8.90909ZM102.412 8.90909C102.412 8.08049 102.277 7.38281 102.009 6.81605C101.744 6.24598 101.379 5.8151 100.915 5.52344C100.455 5.22846 99.9325 5.08097 99.3492 5.08097C98.7625 5.08097 98.2388 5.22846 97.7781 5.52344C97.3174 5.8151 96.9529 6.24598 96.6844 6.81605C96.4192 7.38281 96.2867 8.08049 96.2867 8.90909C96.2867 9.73769 96.4192 10.437 96.6844 11.0071C96.9529 11.5739 97.3174 12.0047 97.7781 12.2997C98.2388 12.5914 98.7625 12.7372 99.3492 12.7372C99.9325 12.7372 100.455 12.5914 100.915 12.2997C101.379 12.0047 101.744 11.5739 102.009 11.0071C102.277 10.437 102.412 9.73769 102.412 8.90909ZM114.066 3.81818V14H112.654L107.479 6.53267H107.385V14H105.848V3.81818H107.27L112.451 11.2955H112.545V3.81818H114.066ZM123.309 14H120.012V3.81818H123.413C124.411 3.81818 125.267 4.02202 125.983 4.42969C126.699 4.83404 127.248 5.41572 127.629 6.17472C128.013 6.9304 128.206 7.83688 128.206 8.89418C128.206 9.95478 128.012 10.8662 127.624 11.6286C127.239 12.3909 126.683 12.9775 125.953 13.3885C125.224 13.7962 124.343 14 123.309 14ZM121.549 12.6577H123.224C124 12.6577 124.644 12.5118 125.158 12.2202C125.672 11.9252 126.056 11.4993 126.311 10.9425C126.567 10.3823 126.694 9.69957 126.694 8.89418C126.694 8.09541 126.567 7.41761 126.311 6.8608C126.059 6.30398 125.683 5.88139 125.183 5.59304C124.682 5.30469 124.061 5.16051 123.318 5.16051H121.549V12.6577ZM130.116 14V3.81818H136.499V5.14062H131.652V8.2429H136.166V9.56037H131.652V12.6776H136.559V14H130.116ZM144.105 6.4929C144.052 6.02225 143.833 5.65767 143.448 5.39915C143.064 5.13731 142.58 5.00639 141.997 5.00639C141.579 5.00639 141.218 5.07268 140.913 5.20526C140.608 5.33452 140.371 5.51349 140.202 5.74219C140.036 5.96757 139.953 6.22443 139.953 6.51278C139.953 6.75473 140.01 6.96354 140.122 7.1392C140.238 7.31487 140.389 7.46236 140.575 7.58168C140.764 7.69768 140.966 7.79545 141.181 7.875C141.397 7.95123 141.604 8.0142 141.803 8.06392L142.797 8.32244C143.122 8.40199 143.455 8.50971 143.796 8.6456C144.138 8.78149 144.454 8.96046 144.746 9.18253C145.038 9.40459 145.273 9.67969 145.452 10.0078C145.634 10.3359 145.725 10.7287 145.725 11.1861C145.725 11.7628 145.576 12.2749 145.278 12.7223C144.983 13.1697 144.554 13.5227 143.99 13.7812C143.43 14.0398 142.752 14.169 141.957 14.169C141.195 14.169 140.535 14.0481 139.978 13.8061C139.421 13.5642 138.986 13.2211 138.671 12.777C138.356 12.3295 138.182 11.7992 138.149 11.1861H139.69C139.72 11.554 139.839 11.8606 140.048 12.1058C140.26 12.3478 140.53 12.5284 140.858 12.6477C141.19 12.7637 141.553 12.8217 141.947 12.8217C142.381 12.8217 142.767 12.7538 143.105 12.6179C143.447 12.4787 143.715 12.2865 143.911 12.0412C144.106 11.7926 144.204 11.5026 144.204 11.1712C144.204 10.8696 144.118 10.6226 143.946 10.4304C143.777 10.2382 143.546 10.0791 143.255 9.95312C142.966 9.82718 142.64 9.71615 142.275 9.62003L141.072 9.2919C140.257 9.06984 139.61 8.74337 139.133 8.3125C138.659 7.88163 138.422 7.31155 138.422 6.60227C138.422 6.01562 138.581 5.50355 138.899 5.06605C139.218 4.62855 139.648 4.28883 140.192 4.04688C140.736 3.80161 141.349 3.67898 142.032 3.67898C142.721 3.67898 143.329 3.79995 143.856 4.0419C144.386 4.28385 144.804 4.61695 145.109 5.04119C145.414 5.46212 145.573 5.94602 145.586 6.4929H144.105ZM152.802 3.81818V14H151.266V3.81818H152.802ZM155.04 3.81818H156.904L160.146 11.733H160.265L163.506 3.81818H165.371V14H163.909V6.6321H163.815L160.812 13.9851H159.599L156.596 6.62713H156.501V14H155.04V3.81818ZM167.604 14V3.81818H171.233C172.026 3.81818 172.682 3.96236 173.202 4.25071C173.723 4.53906 174.112 4.93347 174.37 5.43395C174.629 5.93111 174.758 6.49124 174.758 7.11435C174.758 7.74077 174.627 8.30421 174.366 8.80469C174.107 9.30185 173.716 9.69626 173.192 9.98793C172.672 10.2763 172.017 10.4205 171.228 10.4205H168.733V9.1179H171.089C171.59 9.1179 171.996 9.03172 172.307 8.85938C172.619 8.68371 172.848 8.44508 172.993 8.14347C173.139 7.84186 173.212 7.49882 173.212 7.11435C173.212 6.72988 173.139 6.38849 172.993 6.0902C172.848 5.7919 172.617 5.55824 172.302 5.3892C171.991 5.22017 171.58 5.13565 171.069 5.13565H169.14V14H167.604ZM176.339 14H174.709L178.373 3.81818H180.147L183.812 14H182.181L179.302 5.66761H179.223L176.339 14ZM176.613 10.0128H181.902V11.3054H176.613V10.0128ZM193.26 7.12926H191.709C191.649 6.79782 191.538 6.50615 191.376 6.25426C191.213 6.00237 191.015 5.78859 190.779 5.61293C190.544 5.43726 190.28 5.30469 189.989 5.2152C189.7 5.12571 189.394 5.08097 189.069 5.08097C188.482 5.08097 187.957 5.22846 187.493 5.52344C187.032 5.81842 186.668 6.25095 186.399 6.82102C186.134 7.3911 186.002 8.08712 186.002 8.90909C186.002 9.73769 186.134 10.437 186.399 11.0071C186.668 11.5772 187.034 12.008 187.498 12.2997C187.962 12.5914 188.484 12.7372 189.064 12.7372C189.386 12.7372 189.69 12.6941 189.979 12.608C190.27 12.5185 190.534 12.3875 190.769 12.2152C191.005 12.0429 191.203 11.8324 191.366 11.5838C191.532 11.3319 191.646 11.0436 191.709 10.7188L193.26 10.7237C193.177 11.2242 193.016 11.6849 192.778 12.1058C192.542 12.5234 192.239 12.8847 191.868 13.1896C191.5 13.4912 191.079 13.7249 190.605 13.8906C190.131 14.0563 189.614 14.1392 189.054 14.1392C188.172 14.1392 187.387 13.9304 186.698 13.5128C186.008 13.0919 185.465 12.4903 185.067 11.7081C184.672 10.9259 184.475 9.9929 184.475 8.90909C184.475 7.82197 184.674 6.88897 185.072 6.11008C185.47 5.32789 186.013 4.72798 186.703 4.31037C187.392 3.88944 188.176 3.67898 189.054 3.67898C189.594 3.67898 190.098 3.75687 190.565 3.91264C191.036 4.0651 191.459 4.29048 191.833 4.58878C192.208 4.88376 192.518 5.24503 192.763 5.67258C193.008 6.09683 193.174 6.58239 193.26 7.12926ZM194.596 5.14062V3.81818H202.476V5.14062H199.299V14H197.768V5.14062H194.596ZM209.771 6.4929C209.718 6.02225 209.499 5.65767 209.114 5.39915C208.73 5.13731 208.246 5.00639 207.663 5.00639C207.245 5.00639 206.884 5.07268 206.579 5.20526C206.274 5.33452 206.037 5.51349 205.868 5.74219C205.702 5.96757 205.619 6.22443 205.619 6.51278C205.619 6.75473 205.676 6.96354 205.788 7.1392C205.904 7.31487 206.055 7.46236 206.241 7.58168C206.43 7.69768 206.632 7.79545 206.847 7.875C207.063 7.95123 207.27 8.0142 207.469 8.06392L208.463 8.32244C208.788 8.40199 209.121 8.50971 209.462 8.6456C209.804 8.78149 210.12 8.96046 210.412 9.18253C210.704 9.40459 210.939 9.67969 211.118 10.0078C211.3 10.3359 211.391 10.7287 211.391 11.1861C211.391 11.7628 211.242 12.2749 210.944 12.7223C210.649 13.1697 210.22 13.5227 209.656 13.7812C209.096 14.0398 208.418 14.169 207.623 14.169C206.861 14.169 206.201 14.0481 205.644 13.8061C205.087 13.5642 204.652 13.2211 204.337 12.777C204.022 12.3295 203.848 11.7992 203.815 11.1861H205.356C205.386 11.554 205.505 11.8606 205.714 12.1058C205.926 12.3478 206.196 12.5284 206.524 12.6477C206.856 12.7637 207.219 12.8217 207.613 12.8217C208.047 12.8217 208.433 12.7538 208.771 12.6179C209.113 12.4787 209.381 12.2865 209.577 12.0412C209.772 11.7926 209.87 11.5026 209.87 11.1712C209.87 10.8696 209.784 10.6226 209.612 10.4304C209.443 10.2382 209.212 10.0791 208.921 9.95312C208.632 9.82718 208.306 9.71615 207.941 9.62003L206.738 9.2919C205.923 9.06984 205.276 8.74337 204.799 8.3125C204.325 7.88163 204.088 7.31155 204.088 6.60227C204.088 6.01562 204.247 5.50355 204.565 5.06605C204.884 4.62855 205.314 4.28883 205.858 4.04688C206.402 3.80161 207.015 3.67898 207.698 3.67898C208.387 3.67898 208.995 3.79995 209.522 4.0419C210.052 4.28385 210.47 4.61695 210.775 5.04119C211.08 5.46212 211.239 5.94602 211.252 6.4929H209.771ZM5.86027 31H2.5641V20.8182H5.96467C6.9623 20.8182 7.81908 21.022 8.53498 21.4297C9.25089 21.834 9.79943 22.4157 10.1806 23.1747C10.5651 23.9304 10.7573 24.8369 10.7573 25.8942C10.7573 26.9548 10.5634 27.8662 10.1756 28.6286C9.79114 29.3909 9.23432 29.9775 8.50515 30.3885C7.77599 30.7962 6.89436 31 5.86027 31ZM4.10033 29.6577H5.77575C6.55132 29.6577 7.19597 29.5118 7.7097 29.2202C8.22343 28.9252 8.6079 28.4993 8.86311 27.9425C9.11832 27.3823 9.24592 26.6996 9.24592 25.8942C9.24592 25.0954 9.11832 24.4176 8.86311 23.8608C8.61122 23.304 8.23503 22.8814 7.73456 22.593C7.23408 22.3047 6.61264 22.1605 5.87021 22.1605H4.10033V29.6577ZM19.2152 20.8182H20.7564V27.5149C20.7564 28.2275 20.589 28.8589 20.2543 29.4091C19.9195 29.956 19.4489 30.3868 18.8423 30.7017C18.2358 31.0133 17.5249 31.169 16.7095 31.169C15.8975 31.169 15.1882 31.0133 14.5817 30.7017C13.9751 30.3868 13.5045 29.956 13.1697 29.4091C12.835 28.8589 12.6676 28.2275 12.6676 27.5149V20.8182H14.2038V27.3906C14.2038 27.8513 14.3049 28.2607 14.5071 28.6186C14.7126 28.9766 15.0026 29.2583 15.3771 29.4638C15.7517 29.666 16.1958 29.767 16.7095 29.767C17.2266 29.767 17.6724 29.666 18.0469 29.4638C18.4247 29.2583 18.7131 28.9766 18.9119 28.6186C19.1141 28.2607 19.2152 27.8513 19.2152 27.3906V20.8182ZM35.1516 24.1293H33.6005C33.5408 23.7978 33.4298 23.5062 33.2674 23.2543C33.105 23.0024 32.9061 22.7886 32.6708 22.6129C32.4355 22.4373 32.172 22.3047 31.8803 22.2152C31.592 22.1257 31.2854 22.081 30.9606 22.081C30.3739 22.081 29.8486 22.2285 29.3846 22.5234C28.9239 22.8184 28.5593 23.2509 28.2908 23.821C28.0257 24.3911 27.8931 25.0871 27.8931 25.9091C27.8931 26.7377 28.0257 27.437 28.2908 28.0071C28.5593 28.5772 28.9256 29.008 29.3896 29.2997C29.8536 29.5914 30.3756 29.7372 30.9556 29.7372C31.2771 29.7372 31.582 29.6941 31.8704 29.608C32.1621 29.5185 32.4256 29.3875 32.6609 29.2152C32.8962 29.0429 33.0951 28.8324 33.2575 28.5838C33.4232 28.3319 33.5375 28.0436 33.6005 27.7188L35.1516 27.7237C35.0688 28.2242 34.908 28.6849 34.6694 29.1058C34.4341 29.5234 34.1308 29.8847 33.7596 30.1896C33.3917 30.4912 32.9708 30.7249 32.4968 30.8906C32.0229 31.0563 31.5058 31.1392 30.9457 31.1392C30.064 31.1392 29.2785 30.9304 28.5891 30.5128C27.8997 30.0919 27.3562 29.4903 26.9585 28.7081C26.564 27.9259 26.3668 26.9929 26.3668 25.9091C26.3668 24.822 26.5657 23.889 26.9634 23.1101C27.3612 22.3279 27.9047 21.728 28.5941 21.3104C29.2835 20.8894 30.0674 20.679 30.9457 20.679C31.4859 20.679 31.9897 20.7569 32.457 20.9126C32.9277 21.0651 33.3503 21.2905 33.7248 21.5888C34.0993 21.8838 34.4092 22.245 34.6545 22.6726C34.8997 23.0968 35.0655 23.5824 35.1516 24.1293ZM36.9899 31V20.8182H38.5261V25.2429H43.6021V20.8182H45.1433V31H43.6021V26.5604H38.5261V31H36.9899ZM48.2406 31H46.6099L50.274 20.8182H52.0488L55.7129 31H54.0822L51.2037 22.6676H51.1241L48.2406 31ZM48.514 27.0128H53.8038V28.3054H48.514V27.0128ZM65.4013 20.8182V31H63.9894L58.8139 23.5327H58.7195V31H57.1832V20.8182H58.6051L63.7855 28.2955H63.88V20.8182H65.4013ZM74.5329 24.0348C74.4367 23.7332 74.3075 23.4631 74.1451 23.2244C73.986 22.9825 73.7954 22.777 73.5733 22.608C73.3513 22.4356 73.0977 22.3047 72.8127 22.2152C72.531 22.1257 72.2211 22.081 71.883 22.081C71.3096 22.081 70.7926 22.2285 70.3319 22.5234C69.8712 22.8184 69.5066 23.2509 69.2381 23.821C68.973 24.3878 68.8404 25.0821 68.8404 25.9041C68.8404 26.7294 68.9746 27.4271 69.2431 27.9972C69.5115 28.5672 69.8794 28.9998 70.3468 29.2947C70.8141 29.5897 71.3461 29.7372 71.9427 29.7372C72.4962 29.7372 72.9784 29.6245 73.3894 29.3991C73.8037 29.1738 74.1235 28.8556 74.3489 28.4446C74.5776 28.0303 74.6919 27.5431 74.6919 26.983L75.0897 27.0575H72.1763V25.7898H76.1785V26.9482C76.1785 27.8033 75.9962 28.5457 75.6316 29.1754C75.2703 29.8018 74.7698 30.2857 74.1302 30.6271C73.4938 30.9685 72.7646 31.1392 71.9427 31.1392C71.0213 31.1392 70.2125 30.9271 69.5165 30.5028C68.8238 30.0786 68.2836 29.477 67.8958 28.6982C67.508 27.916 67.3141 26.9879 67.3141 25.9141C67.3141 25.102 67.4268 24.3729 67.6522 23.7266C67.8776 23.0803 68.1941 22.5317 68.6017 22.081C69.0127 21.6269 69.495 21.2805 70.0485 21.0419C70.6053 20.8 71.2135 20.679 71.8731 20.679C72.4232 20.679 72.9353 20.7602 73.4093 20.9226C73.8865 21.085 74.3108 21.3153 74.682 21.6136C75.0565 21.9119 75.3664 22.2666 75.6117 22.6776C75.857 23.0852 76.0227 23.5376 76.1088 24.0348H74.5329ZM78.1286 31V20.8182H84.5121V22.1406H79.6648V25.2429H84.179V26.5604H79.6648V29.6776H84.5717V31H78.1286ZM86.5641 20.8182H88.4285L91.6699 28.733H91.7892L95.0307 20.8182H96.8951V31H95.4334V23.6321H95.339L92.3361 30.9851H91.1231L88.1202 23.6271H88.0258V31H86.5641V20.8182ZM99.1286 31V20.8182H105.512V22.1406H100.665V25.2429H105.179V26.5604H100.665V29.6776H105.572V31H99.1286ZM115.782 20.8182V31H114.37L109.195 23.5327H109.1V31H107.564V20.8182H108.986L114.166 28.2955H114.261V20.8182H115.782ZM117.521 22.1406V20.8182H125.401V22.1406H122.224V31H120.693V22.1406H117.521ZM139.304 24.1293H137.753C137.693 23.7978 137.582 23.5062 137.42 23.2543C137.257 23.0024 137.058 22.7886 136.823 22.6129C136.588 22.4373 136.324 22.3047 136.033 22.2152C135.744 22.1257 135.438 22.081 135.113 22.081C134.526 22.081 134.001 22.2285 133.537 22.5234C133.076 22.8184 132.712 23.2509 132.443 23.821C132.178 24.3911 132.045 25.0871 132.045 25.9091C132.045 26.7377 132.178 27.437 132.443 28.0071C132.712 28.5772 133.078 29.008 133.542 29.2997C134.006 29.5914 134.528 29.7372 135.108 29.7372C135.429 29.7372 135.734 29.6941 136.023 29.608C136.314 29.5185 136.578 29.3875 136.813 29.2152C137.049 29.0429 137.247 28.8324 137.41 28.5838C137.576 28.3319 137.69 28.0436 137.753 27.7188L139.304 27.7237C139.221 28.2242 139.06 28.6849 138.822 29.1058C138.586 29.5234 138.283 29.8847 137.912 30.1896C137.544 30.4912 137.123 30.7249 136.649 30.8906C136.175 31.0563 135.658 31.1392 135.098 31.1392C134.216 31.1392 133.431 30.9304 132.741 30.5128C132.052 30.0919 131.509 29.4903 131.111 28.7081C130.716 27.9259 130.519 26.9929 130.519 25.9091C130.519 24.822 130.718 23.889 131.116 23.1101C131.513 22.3279 132.057 21.728 132.746 21.3104C133.436 20.8894 134.22 20.679 135.098 20.679C135.638 20.679 136.142 20.7569 136.609 20.9126C137.08 21.0651 137.503 21.2905 137.877 21.5888C138.252 21.8838 138.562 22.245 138.807 22.6726C139.052 23.0968 139.218 23.5824 139.304 24.1293ZM141.142 31V20.8182H142.678V29.6776H147.292V31H141.142ZM150.581 20.8182V31H149.045V20.8182H150.581ZM152.818 20.8182H154.682L157.924 28.733H158.043L161.285 20.8182H163.149V31H161.687V23.6321H161.593L158.59 30.9851H157.377L154.374 23.6271H154.28V31H152.818V20.8182ZM166.243 31H164.612L168.276 20.8182H170.051L173.715 31H172.084L169.206 22.6676H169.126L166.243 31ZM166.516 27.0128H171.806V28.3054H166.516V27.0128ZM173.48 22.1406V20.8182H181.36V22.1406H178.183V31H176.652V22.1406H173.48ZM184.637 20.8182V31H183.101V20.8182H184.637ZM190.618 27.6989H192.13L193.194 29.0859L193.696 29.7024L195.391 31.9148H193.82L192.686 30.4382L192.299 29.9013L190.618 27.6989ZM195.719 25.9091C195.719 26.9962 195.52 27.9309 195.123 28.7131C194.725 29.492 194.18 30.0919 193.487 30.5128C192.797 30.9304 192.014 31.1392 191.135 31.1392C190.254 31.1392 189.467 30.9304 188.774 30.5128C188.084 30.0919 187.541 29.4903 187.143 28.7081C186.745 27.9259 186.547 26.9929 186.547 25.9091C186.547 24.822 186.745 23.889 187.143 23.1101C187.541 22.3279 188.084 21.728 188.774 21.3104C189.467 20.8894 190.254 20.679 191.135 20.679C192.014 20.679 192.797 20.8894 193.487 21.3104C194.18 21.728 194.725 22.3279 195.123 23.1101C195.52 23.889 195.719 24.822 195.719 25.9091ZM194.198 25.9091C194.198 25.0805 194.064 24.3828 193.795 23.8161C193.53 23.246 193.165 22.8151 192.701 22.5234C192.241 22.2285 191.719 22.081 191.135 22.081C190.549 22.081 190.025 22.2285 189.564 22.5234C189.104 22.8151 188.739 23.246 188.471 23.8161C188.205 24.3828 188.073 25.0805 188.073 25.9091C188.073 26.7377 188.205 27.437 188.471 28.0071C188.739 28.5739 189.104 29.0047 189.564 29.2997C190.025 29.5914 190.549 29.7372 191.135 29.7372C191.719 29.7372 192.241 29.5914 192.701 29.2997C193.165 29.0047 193.53 28.5739 193.795 28.0071C194.064 27.437 194.198 26.7377 194.198 25.9091ZM204.182 20.8182H205.723V27.5149C205.723 28.2275 205.556 28.8589 205.221 29.4091C204.886 29.956 204.416 30.3868 203.809 30.7017C203.203 31.0133 202.492 31.169 201.676 31.169C200.864 31.169 200.155 31.0133 199.548 30.7017C198.942 30.3868 198.471 29.956 198.137 29.4091C197.802 28.8589 197.634 28.2275 197.634 27.5149V20.8182H199.171V27.3906C199.171 27.8513 199.272 28.2607 199.474 28.6186C199.679 28.9766 199.969 29.2583 200.344 29.4638C200.718 29.666 201.163 29.767 201.676 29.767C202.193 29.767 202.639 29.666 203.014 29.4638C203.392 29.2583 203.68 28.9766 203.879 28.6186C204.081 28.2607 204.182 27.8513 204.182 27.3906V20.8182ZM207.957 31V20.8182H214.34V22.1406H209.493V25.2429H214.007V26.5604H209.493V29.6776H214.4V31H207.957Z" fill="#B90020"/>
  <path d="M1040.85 61.4483H5.0046C3.19856 61.4483 2.3176 63.6527 3.62621 64.8975L10.0386 70.9968C10.8738 71.7912 10.8664 73.1254 10.0223 73.9104L3.72498 79.7674C2.39453 81.0048 3.27011 83.2318 5.08706 83.2318H1040.92C1041.25 83.2318 1041.57 83.1504 1041.86 82.9948L1057.21 74.7718C1058.57 74.0446 1058.63 72.1206 1057.32 71.3091L1041.91 61.7486C1041.59 61.5523 1041.22 61.4483 1040.85 61.4483Z" fill="url(#paint0_linear_2009_142)"/>
  <circle cx="934.935" cy="71.9347" r="16.9347" fill="#5858C3"/>
  <g clip-path="url(#clip0_2009_142)">
    <path d="M927.307 63.7572L943.198 63.7572C943.779 63.7572 944.252 64.2303 944.252 64.8119L944.252 75.2885C944.252 75.87 943.779 76.3431 943.198 76.3431L938.03 76.3431L938.03 78.9447L940.877 78.9447C941.169 78.9447 941.405 79.1808 941.405 79.472C941.405 79.7633 941.169 79.9994 940.877 79.9994L929.627 79.9994C929.336 79.9994 929.1 79.7633 929.1 79.472C929.1 79.1808 929.336 78.9447 929.627 78.9447L932.475 78.9447L932.475 76.3431L927.307 76.3431C926.726 76.3431 926.252 75.87 926.252 75.2885L926.252 64.8119C926.252 64.2303 926.726 63.7572 927.307 63.7572ZM933.53 78.9447L936.975 78.9447L936.975 76.3431L933.53 76.3431L933.53 78.9447ZM927.307 75.2885C927.77 75.2885 942.827 75.2885 943.198 75.2885L943.198 64.8119L927.307 64.8119C927.306 75.516 927.304 75.2885 927.307 75.2885Z" fill="white"/>
  </g>
  <circle cx="685.935" cy="71.9347" r="16.9347" fill="#716B2C"/>
  <path d="M684.277 78.8782C683.991 78.8782 683.7 78.7827 683.465 78.5917L675.31 71.9704C674.765 71.5293 674.687 70.7335 675.139 70.2014C675.591 69.6648 676.394 69.592 676.933 70.0286L684.212 75.9404L694.286 66.4269C694.798 65.9494 695.605 65.963 696.089 66.4633C696.578 66.9635 696.56 67.7639 696.052 68.2414L685.158 78.528C684.913 78.7599 684.595 78.8782 684.277 78.8782Z" fill="#FEFEFE"/>
  <circle cx="453.935" cy="71.9347" r="16.9347" fill="#FD9640"/>
  <path d="M448.735 60.7997C449.35 60.7997 449.857 61.1927 449.927 61.6991L449.935 61.8179V82.1815C449.935 82.7438 449.397 83.1997 448.735 83.1997C448.119 83.1997 447.612 82.8066 447.543 82.3002L447.535 82.1815V61.8179C447.535 61.2555 448.072 60.7997 448.735 60.7997Z" fill="white"/>
  <path d="M447.535 64.1851V75.0143C447.535 75.7082 448.244 76.1843 448.9 75.9306L462.9 70.516C463.746 70.1889 463.746 69.0105 462.9 68.6834L448.9 63.2688C448.244 63.0151 447.535 63.4912 447.535 64.1851ZM449.535 65.6293L459.8 69.5987L449.535 73.5691V65.6293Z" fill="white"/>
  <circle cx="280.935" cy="71.9347" r="16.9347" fill="#F4913E"/>
  <path d="M278.773 71.9998C278.773 72.6298 278.978 73.1548 279.41 73.6048C280.26 74.5098 281.609 74.5098 282.459 73.6048C282.892 73.1548 283.096 72.6298 283.096 71.9998C283.096 71.3698 282.892 70.8448 282.459 70.3948C281.609 69.4898 280.26 69.4898 279.41 70.3948C278.978 70.8448 278.773 71.3698 278.773 71.9998ZM280.935 75.7498C279.954 75.7498 279.108 75.3769 278.419 74.6463C277.726 73.9207 277.372 73.0289 277.372 71.996C277.372 70.9631 277.726 70.0712 278.419 69.3457C279.801 67.8845 282.068 67.8845 283.45 69.3457C284.143 70.0712 284.497 70.9631 284.497 71.996C284.497 73.0289 284.143 73.9207 283.45 74.6463C282.761 75.3769 281.915 75.7498 280.935 75.7498ZM279.917 80.7498H282.037C282.112 80.3477 282.202 79.697 282.308 78.7712C282.343 78.475 282.543 78.2263 282.814 78.1364C283.134 78.0253 283.455 77.8878 283.761 77.7185C284.006 77.5756 284.322 77.6074 284.542 77.7925L286.005 78.9987C286.126 78.9035 286.316 78.7289 286.612 78.4221C287.163 77.8507 287.458 77.4963 287.614 77.29C287.108 76.7398 286.702 76.1737 286.421 75.7611C286.336 75.6341 286.291 75.4754 286.291 75.322C286.291 75.195 286.321 75.0734 286.376 74.957C286.516 74.6819 286.652 74.338 286.787 73.9413C286.877 73.6715 287.098 73.481 287.363 73.4334L289.247 73.1371V70.9153L287.378 70.619C287.108 70.5714 286.882 70.3704 286.802 70.0953C286.687 69.7355 286.541 69.3652 286.361 68.9949C286.306 68.8838 286.281 68.7622 286.281 68.6405C286.281 68.4818 286.326 68.3284 286.416 68.1961C286.561 67.9845 286.777 67.6829 287.068 67.2915C287.263 67.0323 287.418 66.8206 287.534 66.6619C287.303 66.3657 286.862 65.8631 285.99 65.0114L284.507 66.2017C284.287 66.3816 283.996 66.3974 283.746 66.2705C283.455 66.117 283.134 65.9795 282.789 65.8631C282.528 65.7732 282.338 65.5351 282.298 65.2495L282.007 63.2498H279.892C279.807 63.6783 279.717 64.3342 279.617 65.223C279.582 65.5245 279.386 65.7785 279.111 65.8684C278.785 65.9742 278.469 66.1118 278.159 66.281C277.908 66.4239 277.603 66.3974 277.377 66.207L275.909 65.0061C275.794 65.1013 275.598 65.2759 275.298 65.5933C274.802 66.1118 274.511 66.4397 274.351 66.6514C274.832 67.2703 275.213 67.794 275.498 68.2278C275.583 68.3601 275.628 68.5135 275.628 68.6669C275.628 68.7939 275.598 68.9209 275.538 69.0372C275.378 69.3441 275.243 69.6774 275.142 70.0318C275.057 70.3122 274.832 70.5185 274.556 70.5661L272.622 70.8729L272.667 73.0842L274.536 73.3699C274.817 73.4175 275.047 73.6291 275.127 73.9148C275.233 74.2798 275.373 74.6449 275.553 74.994C275.608 75.1104 275.638 75.2374 275.638 75.359C275.638 75.5177 275.593 75.6764 275.503 75.8087C275.358 76.0203 275.137 76.3219 274.852 76.708C274.646 76.9725 274.491 77.1842 274.381 77.3429C274.671 77.7185 275.193 78.2686 275.934 78.9828L277.407 77.7978C277.633 77.618 277.938 77.5915 278.184 77.7238C278.469 77.8825 278.79 78.02 279.131 78.1364C279.391 78.2263 279.582 78.4644 279.622 78.7501L279.917 80.7498ZM282.205 81.9998H279.664C279.381 81.9998 279.122 81.8969 278.916 81.7117C278.711 81.5522 278.565 81.259 278.545 80.9298L278.296 79.2271C278.193 79.186 278.086 79.1448 277.988 79.0985L276.717 80.1119C276.449 80.3742 275.906 80.724 275.227 80.0347C274.23 79.0831 273.58 78.3835 273.253 77.9103C273.106 77.6788 273.038 77.4473 273.038 77.1952C273.038 76.9483 273.111 76.7117 273.248 76.4956C273.37 76.3156 273.575 76.0327 273.868 75.6469C273.995 75.4771 274.113 75.3228 274.21 75.1891C274.142 75.0399 274.088 74.8907 274.034 74.7415L272.373 74.4843C271.992 74.4123 271.782 74.2014 271.664 74.0368C271.518 73.831 271.435 73.579 271.435 73.3115V70.6366C271.435 70.3794 271.508 70.1428 271.655 69.9267C271.835 69.6695 272.07 69.5152 272.334 69.4689L274.054 69.1963C274.103 69.0728 274.147 68.9493 274.201 68.831C273.942 68.4607 273.624 68.0389 273.253 67.5656C273.081 67.365 272.979 67.0923 272.979 66.8043C272.979 66.5728 273.057 66.3413 273.204 66.1098C273.438 65.7652 273.834 65.3125 274.416 64.7055C275.701 63.3681 276.199 63.4452 276.742 63.9082L277.963 64.9061C278.066 64.8598 278.169 64.8187 278.271 64.7724C278.379 63.867 278.477 63.2652 278.569 62.8897C278.682 62.3547 279.107 61.9998 279.664 61.9998H282.205C282.494 61.9998 282.757 62.1026 282.958 62.2981C283.163 62.4524 283.31 62.7405 283.324 63.0697L283.574 64.7724C283.681 64.8135 283.784 64.8547 283.886 64.901L285.172 63.8825C285.347 63.6407 286.168 63.5018 286.628 63.9339C287.634 64.9113 288.299 65.6366 288.622 66.0996C288.754 66.2693 288.832 66.5214 288.832 66.8043C288.832 67.0512 288.758 67.2878 288.622 67.5039C288.49 67.6942 288.289 67.9668 288.006 68.3475C287.874 68.5224 287.757 68.6767 287.659 68.8156C287.718 68.9596 287.776 69.1037 287.83 69.2477L289.501 69.5152C289.78 69.5563 290.019 69.7055 290.2 69.9524C290.205 69.9576 290.21 69.9627 290.215 69.9627C290.356 70.1788 290.435 70.4257 290.435 70.6829V73.3629C290.435 73.5996 290.366 73.831 290.234 74.0471C290.024 74.3351 289.79 74.4843 289.521 74.5306L287.806 74.8033C287.762 74.9267 287.713 75.045 287.669 75.153C287.908 75.4977 288.226 75.9195 288.617 76.4185C288.798 76.6602 288.89 76.9226 288.89 77.1952C288.89 77.4782 288.793 77.7456 288.612 77.9668C288.407 78.2652 288.001 78.7333 287.444 79.3043C286.594 80.1942 286.212 80.3742 285.87 80.3742C285.641 80.3742 285.411 80.2971 285.191 80.1479L283.906 79.0934C283.803 79.1397 283.705 79.1808 283.603 79.2271C283.49 80.1428 283.398 80.7343 283.31 81.1047C283.173 81.6551 282.748 81.9998 282.205 81.9998Z" fill="#FEFEFE"/>
  <circle cx="107.935" cy="71.9347" r="16.9347" fill="#B90020"/>
  <path d="M108.077 75.7197C106.169 75.7197 104.623 74.1434 104.623 72.1984C104.623 70.2534 106.169 68.6772 108.077 68.6772C109.986 68.6772 111.532 70.2534 111.532 72.1984C111.532 74.1434 109.986 75.7197 108.077 75.7197ZM108.077 67.1263C105.331 67.1263 103.101 69.3997 103.101 72.1984C103.101 74.9972 105.331 77.2706 108.077 77.2706C110.823 77.2706 113.054 74.9972 113.054 72.1984C113.054 69.3997 110.823 67.1263 108.077 67.1263Z" fill="#FEFEFE"/>
  <path d="M108.077 78.8473C102.625 78.8473 97.9212 73.7853 96.573 72.199C97.9162 70.6076 102.615 65.5455 108.077 65.5455C113.53 65.5455 118.233 70.6076 119.582 72.199C118.238 73.7903 113.539 78.8473 108.077 78.8473ZM121.168 71.7291C120.93 71.4108 115.269 63.9996 108.077 63.9996C100.89 63.9996 95.2248 71.4108 94.9869 71.7291C94.7787 72.007 94.7787 72.3909 94.9869 72.6688C95.2248 72.982 100.89 80.3983 108.077 80.3983C115.269 80.3983 120.93 72.982 121.168 72.6688C121.376 72.3909 121.376 72.007 121.168 71.7291Z" fill="#FEFEFE"/>
  <path d="M935.408 88.9683L935.408 116.416" stroke="#5858C3" stroke-width="2" stroke-linecap="round" stroke-dasharray="4 4"/>
  <path d="M686.262 88.8469L686.262 116.294" stroke="#716B2C" stroke-width="2" stroke-linecap="round" stroke-dasharray="4 4"/>
  <path d="M453.611 88.9684L453.611 116.416" stroke="#FD9640" stroke-width="2" stroke-linecap="round" stroke-dasharray="4 4"/>
  <path d="M280.929 88.9683L280.929 116.416" stroke="#F4913E" stroke-width="2" stroke-linecap="round" stroke-dasharray="4 4"/>
  <path d="M108.36 88.9684L108.36 116.416" stroke="#B90020" stroke-width="2" stroke-linecap="round" stroke-dasharray="4 4"/>
  <defs>
    <linearGradient id="paint0_linear_2009_142" x1="0" y1="72.3401" x2="1060.27" y2="72.3401" gradientUnits="userSpaceOnUse">
      <stop offset="0" stop-color="#EAB1BC"/>
      <stop offset="0.33" stop-color="#FDE3C4"/>
      <stop offset="0.67" stop-color="#D7D6BE"/>
      <stop offset="0.98" stop-color="#5555C3"/>
    </linearGradient>
    <clipPath id="clip0_2009_142">
      <rect width="18" height="18" fill="white" transform="matrix(-1 -8.74228e-08 -8.74228e-08 1 944.252 62.8783)"/>
    </clipPath>
  </defs>
</svg>
