<svg width="439px" height="463px" viewBox="0 0 299 363" version="1.1" xmlns="http://www.w3.org/2000/svg" xmlns:xlink="http://www.w3.org/1999/xlink">
  <style>
    .selected{
      fill: #004899;
    }
    .region:hover{
      cursor: pointer;
      fill: #004899;
    }
  </style>
  <g id="TACCT-Diagnostic" stroke="none" stroke-width="1" fill="none" fill-rule="evenodd">
    <g id="Climat-observé-/-Tendances-générales" transform="translate(-287.000000, -325.000000)" fill="#C8D8E9">
      <g id="france_map" transform="translate(288.000000, 326.000000)"><polygon  class="region"  data-region="73" id="MidiPyrenees"  stroke="#FFFFFF" points="123.977354 178.000026 121.810886 179.009709 121.501391 179.058539 121.566547 179.15625 120.86611 179.758803 120.86611 180.882482 121.778308 181.892165 120.86611 183.520687 120.051649 184.041813 119.937624 185.051496 118.210965 185.263204 118.308701 186.370599 118.927692 186.582306 117.494239 188.617958 115.262614 188.81338 115.164879 190.34419 114.236393 191.256162 113.731426 192.591549 111.695272 192.689261 112.509734 195.734595 113.535956 197.981954 111.288041 198.389085 109.756853 197.477113 109.040127 199.805898 110.164084 201.027289 109.659118 202.965229 109.040127 203.681778 109.463647 204.903169 107.525228 205.310299 105.994041 205.71743 106.401271 207.134243 105.391339 207.443662 104.870083 207.948504 103.338896 206.433979 100.292809 206.727113 99.4783472 208.160211 97.6376639 208.355634 95.9110052 208.665053 95.1942789 207.65537 93.5653556 209.283891 92.3599523 208.257923 91.6432261 209.788732 91.7409615 211.107835 90.6170044 211.417254 90.1120381 210.700704 89.6070719 209.169894 88.1736194 210.391285 87.1636869 209.984155 86.0397298 210.195863 85.0297974 211.417254 86.2352006 213.452905 85.420739 214.267165 85.7302344 215.993398 84.7203019 217.3125 84.0035757 219.25044 84.8180373 220.683539 87.5709178 220.878961 89.2975765 223.728873 88.1736194 224.754842 88.988081 225.976232 90.2097735 227.800176 89.1998411 229.119278 87.5709178 232.783451 84.8180373 235.128521 85.5347636 236.56162 84.9157727 236.96875 83.4008741 236.659331 82.977354 240.014085 82.1628923 240.632923 82 242.733715 82.2606277 242.587148 83.9872865 243.613116 86.0234406 245.143926 86.2189114 246.365317 87.8478347 247.684419 89.1835518 247.684419 92.5391339 246.25132 93.9562972 247.879842 95.8947159 248.400968 96.6114422 247.179577 97.5236393 247.586708 103.632102 247.993838 103.843862 242.994278 105.261025 243.205986 107.91617 244.736796 111.059992 245.339349 112.395709 245.339349 114.122368 247.586708 118.504172 247.375 120.23083 250.127201 121.762018 249.508363 126.241557 250.127201 126.567342 252 129.727453 251.267165 130.883989 250.257482 132.610648 249.817782 133.034168 248.954665 136.780691 248.677817 134.483909 245.941901 132.610648 246.951585 129.303933 244.215669 130.02066 243.205986 132.610648 243.205986 132.317441 240.763204 132.317441 238.890405 131.893921 235.421655 126.844259 232.978873 127.137465 232.115757 125.98093 230.829225 127.284068 230.242958 127.560985 228.663292 129.15733 227.946743 128.717521 226.93706 130.167263 225.634243 130.883989 226.93706 133.034168 226.220511 134.0441 226.073944 133.897497 226.790493 135.917362 226.790493 137.790624 227.376761 137.937227 225.503961 138.800556 225.503961 141.960667 226.073944 144.990465 226.073944 147.287247 225.357394 147.873659 223.484595 146.293603 222.035211 146.717124 220.602113 147.580453 219.315581 149.013905 220.308979 152.760429 219.022447 153.346841 217.866197 154.210171 217.866197 155.93683 217.866197 155.790226 214.853433 155.790226 213.84375 156.653556 213.84375 158.233611 214.706866 159.813667 214.706866 159.53675 212.980634 160.400079 212.247799 162.126738 211.970951 162.126738 210.521567 164 209.658451 163.560191 207.65537 161.980135 207.65537 160.546683 207.362236 160.253476 206.205986 161.410012 205.929137 161.410012 204.479754 162.550258 203.47007 161.686929 203.046655 159.243544 203.47007 159.390147 202.330106 157.663488 201.597271 157.223679 198.144806 157.223679 195.702025 155.790226 194.692342 155.93683 192.672975 152.907032 188.943662 152.613826 186.06118 151.620183 186.06118 151.180373 183.178697 149.160509 183.471831 148.883592 181.599032 148.590385 181.159331 145.707191 183.618398 145.707191 186.06118 144.990465 186.06118 144.697259 188.357394 143.980532 188.650528 143.410409 189.93706 140.234009 189.93706 139.957092 189.513644 138.50735 189.513644 137.644021 190.946743 136.503774 190.800176 137.073897 189.073944 135.770759 188.503961 137.073897 185.474912 135.347239 184.18838 134.760826 180.442782 133.180771 180.019366 132.024235 181.159331 131.454112 180.149648 129.727453 181.87588 128.570918 182.022447 126.567342 179.15625 123.977354 178"><title>Midi-Pyrénées</title></polygon>
        <polygon  class="region"  data-region="91" id="LanquedocRoussillon"  stroke="#FFFFFF" points="162.154987 181 159.308778 182.028306 158.495575 183.856405 156.674001 182.632231 155.242765 187.120868 153.779 190.499587 155.909591 193.127479 155.763215 195.151446 157.194451 196.16343 157.194451 198.611777 157.63358 202.072107 159.35757 202.806612 159.211193 203.949174 161.650801 203.524793 162.512796 203.949174 161.374312 204.961157 161.374312 206.413843 160.219565 206.691322 160.512318 207.850207 161.943554 208.144008 163.521167 208.144008 163.960297 210.151653 162.089931 211.016736 162.089931 212.469421 160.365941 212.746901 159.503946 213.481405 159.780435 215.21157 158.202822 215.21157 156.625209 214.346488 155.763215 214.346488 155.763215 215.358471 155.909591 218.378099 154.185602 218.378099 153.323607 218.378099 152.738101 219.536983 148.997369 220.826446 147.566133 219.830785 146.704138 221.120248 146.281272 222.556612 147.858885 224.009298 147.27338 225.886364 144.980148 226.604545 141.955035 226.604545 138.799809 226.033264 137.937814 226.033264 137.791437 227.910331 135.921072 227.322727 133.904329 227.322727 134.050706 226.604545 133.042334 226.751446 130.89548 227.469628 130.179861 226.163843 128.732361 227.469628 129.17149 228.481612 127.577613 229.199793 127.301124 230.783058 126 231.370661 127.154748 232.660124 126.861995 233.525207 131.903851 235.973554 132.326716 239.450207 132.326716 241.327273 132.619469 243.77562 130.033485 243.77562 129.317867 244.787603 132.619469 247.529752 134.489835 246.517769 136.783066 249.259917 133.042334 249.537397 132.619469 250.402479 130.89548 250.843182 129.740732 251.855165 126.585506 252.589669 126.76441 253.666942 128.293231 255.103306 131.334609 255.919421 131.432193 257.747521 133.058598 259.183884 134.278402 258.971694 136.018656 256.833471 138.149247 256.425413 141.499641 257.551653 144.34585 260 145.159053 258.971694 145.874671 258.971694 146.590289 259.477686 147.192059 259.183884 147.289644 257.747521 150.347285 257.029339 151.355657 255.707231 152.884477 255.20124 155.015068 255.20124 156.34872 256.621281 157.975126 256.735537 157.975126 255.103306 157.161923 253.977066 155.730686 253.356818 155.421669 241.52314 155.535518 238.160744 154.315714 238.258678 153.291079 236.740702 154.104281 235.402273 155.828271 237.034504 157.357092 235.810331 158.381727 234.798347 158.576895 233.166116 162.236307 232.039876 162.642908 231.125826 165.489117 231.027893 166.399904 229.901653 171.897154 225.51095 175.345133 223.062603 178.30519 223.274793 178.30519 225.315083 180.63095 225.200826 181.883282 225.266116 182.794068 223.144215 186.095671 221.120248 185.380053 220.108264 186.242047 217.806818 189.250897 218.231198 189.982779 212.746901 194 210.445455 194 209.139669 190.974886 206.120041 190.974886 203.802273 189.250897 200.929545 185.656541 198.905579 185.380053 200.488843 183.932552 200.635744 183.509687 199.052479 182.062186 199.329959 181.785697 201.353926 180.63095 200.929545 178.191342 199.329959 177.036594 199.917562 177.036594 197.028512 174.873475 195.722727 175.166228 193.568182 173.442239 191.691116 172.72662 187.936983 170.140636 184.623554 168.254006 185.080579 167.847405 183.660537 166.82277 183.660537 166.627601 184.884711 163.992825 185.700826"><title>Languedoc-Roussillon</title></polygon>
        <polygon  class="region"  data-region="93" id="PACA"   stroke="#FFFFFF" points="228.300246 174 227.386318 174.403646 227.174156 175.921354 225.3463 176.13125 225.036217 174.710417 224.432372 174.113021 222.588196 174.306771 221.87011 174.920312 221.462106 177.035417 221.772189 177.535937 223.910127 177.745833 224.318131 179.053646 225.134138 179.457292 225.134138 181.669271 223.192041 181.572396 222.376034 182.476562 220.042254 182.072917 218.720322 183.186979 217.790074 182.783333 216.468142 183.800521 216.974067 184.704688 216.158059 185.511979 213.612117 185.511979 213.612117 186.722917 214.428124 187.126563 214.118042 187.836979 212.388106 188.53125 210.250168 188.741146 209.630002 190.6625 209.532081 191.873437 210.658171 192.777604 209.532081 194.085417 208.112229 193.375 206.480215 193.278125 206.268053 194.182292 207.296222 194.892708 206.055891 195.7 206.480215 197.411458 209.940085 198.331771 210.56025 199.639583 211.572099 199.833333 211.164096 203.579167 210.56025 202.86875 209.744243 202.158333 209.221999 203.676042 208.308071 204.483333 206.986139 204.386458 205.452046 203.272396 205.044042 201.964583 202.188017 201.754687 200.050078 201.560937 199.837916 200.35 200.556003 198.832292 199.234071 199.946354 197.194053 199.736458 196.78605 199.026042 198.205902 197.120833 196.78605 195.796875 195.349877 195.909896 194.240107 197.621354 194.53387 199.429688 196.263805 199.639583 195.970042 200.446875 194.631791 200.54375 193.114017 202.061458 192.706014 201.560937 192.999776 199.542708 192.395931 198.832292 189.637827 199.235938 189.099262 200.317708 189.393025 200.479167 191.12296 203.320833 191.12296 205.613542 194.158507 208.600521 194.158507 209.892188 190.127431 212.16875 189.393025 217.59375 186.373798 217.173958 185.508831 219.450521 186.226917 220.451562 182.913928 222.453646 182 224.552604 185.231388 224.697917 189.523586 225.004687 190.339593 225.811979 188.8055 225.811979 187.793651 227.523438 192.167449 228.427604 195.64364 227.830208 193.799463 226.102604 195.023474 225.101562 196.965571 225.908854 197.879499 227.830208 203.70579 227.927083 205.223564 227.313542 205.533646 228.233854 203.901632 229.638542 206.153812 229.735417 205.745808 230.752604 205.125643 231.463021 210.119607 231.463021 212.567628 232.270312 213.089873 232.964583 214.917729 233.771875 215.423653 235.790104 216.549743 236 217.577912 235.289583 219.405768 234.175521 222.571876 234.482292 222.473955 235.289583 221.445786 235.790104 223.893807 235.903125 223.289962 235.289583 223.0778 233.981771 224.399732 233.077604 225.933825 233.578125 226.553991 233.771875 227.059915 234.385417 227.778001 233.884896 227.973843 232.560937 228.78985 231.866667 230.927789 231.866667 231.547954 230.946354 232.967807 231.35 234.599821 230.655729 234.599821 228.023958 232.461882 228.120833 234.093897 227.119792 234.909904 226.005729 235.122066 224.391146 238.076012 223.9875 239.805947 222.066146 239.903868 219.757292 241.943886 220.160937 242.661972 219.240625 243.690141 219.450521 243.788062 216.318229 246.138162 216.124479 248.17818 214.3 250.006036 214.3 250.103957 213.185937 251.948133 212.088021 250.919964 209.763021 252.454058 208.455208 252.143975 206.9375 254.396155 206.227083 255 204.015104 254.706237 202.497396 254.183993 201.593229 253.775989 200.269271 252.258216 200.382292 247.460094 202.09375 245.926 202.09375 243.282137 199.978646 240.621954 199.268229 239.08786 199.268229 239.08786 197.44375 236.949922 196.135938 236.949922 194.117708 238.386094 193.923958 237.570087 193.213542 236.541918 192.906771 236.035994 191.598958 236.443997 190.694792 238.271853 188.773438 237.978091 187.352604 239.202101 186.044792 240.311871 186.141667 240.311871 185.2375 238.892019 184.527083 238.581936 181.604688 237.455846 181.201042 236.035994 181.410937 233.37581 180.086979 232.967807 177.067708 231.450034 176.567187 230.927789 175.55 230.258663 174.096875"><title>Provence-Alpes-Côte d'Azur</title></polygon>
        <polygon  class="region"  data-region="54" id="PoitouCharentes"   stroke="#FFFFFF" points="93.4628474 115 91.5391378 117.019868 90.8440159 118.231788 90.1327283 117.633907 89.8255814 116.922914 87.0935905 117.019868 84.5717527 117.520795 81.8397618 117.730861 81.8397618 119.136689 80.4333522 120.057748 77.2972206 119.346755 75.1795235 120.251656 76.1817924 121.673642 76.1817924 122.885563 78.6066364 124.90543 78.0085082 126.214305 79.6250709 128.024106 78.9137833 128.945166 79.9160522 130.447947 80.2231991 133.275762 79.6250709 134.083709 80.3363585 135.295629 79.6250709 136.620662 79.7220647 137.428609 80.530346 136.81457 81.5326149 137.832583 80.1262053 138.737483 79.6250709 139.335364 78.5096427 139.642384 77.2002269 140.256424 75.5836642 139.044503 73.6599546 139.85245 73.0618264 138.236556 71.6392513 138.33351 68.5516166 140.207947 69.2952354 140.886623 67.6786727 142.195497 67.4846852 143.21351 65.9651163 143.407417 65.1568349 142.502517 63.1361316 142.308609 62.9259784 141.290596 61.7135564 140.482649 60 141.096689 61.1154282 142.712583 62.5218378 142.712583 63.9444129 143.617483 65.0598412 144.522384 67.1775383 144.42543 67.581679 145.330331 68.9880885 145.637351 69.5053885 147.043179 70.4106636 147.447152 70.3136699 148.562119 69.1012479 148.368212 68.6971072 148.966093 69.6023823 150.274967 69.1012479 152.504901 67.8888259 152.407947 67.9858196 153.813775 68.2929665 154.314702 66.8703914 154.314702 66.6764039 153.506755 67.581679 152.294834 67.274532 151.6 66.7733976 151.196026 66.5632445 148.772185 64.849688 148.562119 63.4432785 146.849272 63.2331254 150.388079 65.5609756 152.100927 65.7549631 154.023841 66.1591038 156.237616 66.3692569 158.46755 67.581679 158.354437 69.6993761 160.083444 71.1219512 160.891391 71.218945 161.893245 72.3343732 162.103311 75.5674986 165.335099 76.327283 168.82543 79.317924 168.82543 79.8190584 168.324503 79.9160522 169.843444 82.5510493 170.150464 82.95519 173.382252 84.3777652 173.479205 86.6894498 175.806093 87.9018718 176 89.324447 175.289007 90.3267158 176 91.1349972 174.287152 92.2504254 172.364238 94.2711288 172.574305 95.2733976 171.653245 97.1001134 169.843444 97.1971072 166.304636 101.949801 163.072848 102.046795 160.649007 103.46937 160.455099 104.374645 158.839205 104.940442 158.85539 105.279921 157.320291 106.088202 157.223337 106.589336 155.80135 107.607771 155.49433 108.820193 154.686383 108.626205 152.165589 109.53148 151.858569 111.342031 151.454595 111.245037 150.549695 110.93789 149.143867 109.53148 149.030754 108.723199 148.125854 109.224334 147.220953 109.321327 144.490092 108.626205 143.682145 109.434487 143.084264 110.743902 141.565324 112.958593 141.46837 112.958593 140.25645 114.074022 139.33539 116.806012 138.834463 117 137.315523 115.900737 136.717642 115.286444 134.600821 113.669881 134.390754 112.667612 133.3889 110.743902 131.86996 111.148043 130.658039 111.148043 128.735125 109.321327 126.925324 109.12734 125.503337 107.397618 123.693536 106.79949 121.269695 106.088202 120.962675 105.279921 119.847708 104.471639 120.348635 104.681792 121.463602 102.046795 122.077642 99.023823 122.077642 99.1208168 120.865721 99.1208168 118.942807 96.6959728 118.231814 96.6959728 117.019893 94.7722632 116.61592 94.3681225 115.000026 93.4628474 115.000026"><title>Poitou-Charentes</title></polygon>
        <polygon  class="region"  data-region="74"  id="Limousin" stroke="#FFFFFF" points="128.516873 137 127.915128 138.613481 126.077364 138.516672 125.670779 138.306919 124.451024 138.419863 123.540274 137.80674 121.507349 140.130152 119.881009 138.516672 118.970259 139.420221 116.416905 139.226603 116.124164 139.162064 114.18882 139.51703 113.066645 140.436714 113.066645 141.646824 110.83856 141.743633 109.521225 143.260305 108.708055 143.857293 109.407381 144.664033 109.3098 147.390815 108.805635 148.294364 109.618805 149.197913 111.033721 149.310857 111.342725 150.714585 111.440306 151.618134 109.618805 152.021504 108.708055 152.328066 108.903215 154.845096 107.683461 155.651836 106.658867 155.958397 106.154701 157.37826 105.341531 157.475069 105 159.007876 107.374456 159.08855 107.894885 160.088908 107.472036 161.202209 108.39905 162.41232 109.098376 162.218702 109.813966 161.202209 113.066645 161.50877 113.587074 163.525621 115.81516 163.832183 116.319325 164.525979 114.790566 165.235911 115.506155 165.73609 117.652924 166.042651 118.254669 167.559323 119.376844 168.462872 117.343919 170.286105 117.343919 171.689833 118.157089 172.093203 117.343919 173.109696 118.466093 174.013245 117.652924 175.013603 118.563674 175.626726 120.791759 175.529917 120.694179 177.740385 121.539876 179.063439 121.84888 179.015061 124.011912 178.014703 126.597792 179.160274 128.59819 182 129.752892 181.854787 131.476812 180.144497 132.046031 181.144855 133.200732 180.015419 134.778281 180.434924 134.827046 180.773755 136.144381 179.854071 135.737796 178.853713 135.119787 178.24059 135.932957 177.240232 136.746127 177.240232 137.266555 175.626752 137.67314 174.820011 137.364136 172.996778 138.681471 171.18968 140.519235 170.076378 140.616815 167.252787 141.527566 167.752966 142.55216 168.866268 143.56049 168.866268 144.178499 168.156336 143.674334 166.946226 144.178499 165.139128 143.869495 163.428838 143.251486 162.718907 143.251486 161.299044 144.178499 159.798507 143.967075 158.378644 141.625146 156.055232 141.429985 155.151683 143.36533 154.038381 144.487504 153.441393 144.780245 152.02153 146 151.117981 145.593441 149.197913 144.780271 148.197555 144.58511 145.067403 143.462936 142.453564 142.340762 142.050194 141.527592 140.630331 140.812002 141.533881 140.112676 140.630331 140.112676 139.420221 138.892921 137.709931 135.542661 138.113302 133.607317 137.613123"><title>Limousin</title></polygon>
        <polygon  class="region"  data-region="83"  id="Auvergne" stroke="#FFFFFF" points="152.298348 127 150.889213 128.831907 150.079365 128.930045 149.172336 129.862355 148.151927 128.73377 145.430839 131.497987 145.430839 133.133619 145.932945 133.542526 146.030126 134.360342 144.620991 135.472572 143.292841 135.063664 140.766116 135.587066 139.454163 137.108203 138.968254 138.155008 139.049239 138.138625 140.26401 139.872395 140.26401 141.099118 140.960479 142.015072 141.673145 141.099118 142.482993 142.538474 143.600583 142.947382 144.718173 145.597131 144.912536 148.770257 145.722384 149.784348 146.127308 151.73075 144.912536 152.646704 144.620991 154.086059 143.503401 154.691243 141.575964 155.819829 141.770327 156.735783 144.102689 159.091092 144.313249 160.530448 143.390023 162.051585 143.390023 163.490941 144.005507 164.210619 144.313249 165.944389 143.811144 167.776296 144.313249 169.00302 143.697765 169.722698 142.693554 169.722698 141.673145 168.594112 140.766116 168.087066 140.668934 170.949421 138.838678 172.078007 137.526725 173.909914 137.834467 175.758178 137.429543 176.575994 136.911241 178.211626 136.101393 178.211626 135.291545 179.225717 135.907029 179.847257 136.311953 180.861349 135 181.793659 135.5345 185.212129 137.251377 186.504278 135.95562 189.546553 137.251377 190.119024 136.684483 191.852793 137.81827 192 138.676709 190.560644 140.118238 190.560644 140.393586 190.985908 143.551992 190.985908 144.118886 189.693759 144.831552 189.399346 145.123097 187.093105 145.835763 187.093105 145.835763 184.639658 148.702624 182.169854 148.994169 182.611475 149.269517 184.492451 151.27794 184.198037 151.715258 187.093105 152.703272 187.093105 152.994817 189.988173 153.885649 191.100403 155.343375 187.714645 156.768707 183.216658 158.582766 184.443382 159.392614 182.611475 162.227081 181.581027 164.057337 186.291646 166.681244 185.47383 166.875607 184.247106 167.896016 184.247106 168.300939 185.670106 170.179786 185.212129 172.512148 188.221691 173.969874 185.882738 176.59378 183.936336 179.023324 183.936336 179.833171 181.384751 181.452867 181.270257 181.566246 179.340211 183.072562 179.340211 182.781017 178.620533 182.376093 177.295672 182.975381 176.265224 184.400713 175.66004 185 173.206593 183.688047 171.669099 182.068351 171.767237 182.262715 169.820835 179.023324 168.397836 177.921931 168.495974 175.686751 170.344238 172.852284 169.411928 172.544542 168.185204 174.471979 166.353296 173.56495 162.983895 170.924846 161.23377 169.823453 158.584046 168.608682 156.948415 168.916424 154.691243 169.823453 153.775289 168.203758 152.450428 168.300939 151.534474 170.730483 151.41998 170.536119 145.597131 169.823453 144.174132 170.114998 143.045546 171.799482 142.751132 171.848047 142.636638 173.969848 141.001007 174.067029 137.010065 173.354363 135.995974 171.734668 135.995974 171.135381 135.178158 169.418503 135.178158 168.916398 134.556618 168.916398 133.019124 166.875581 129.142677 165.87137 128.422999 163.943933 131.089079 163.134085 131.285355 162.826343 129.960493 161.919313 129.551585 161.514389 130.369401 160.008073 130.369401 159.797512 129.453447 158.77713 130.058631 157.675737 130.680171 156.460965 129.338953 154.727891 128.521137 154.630709 127.196276"><title>Auvergne</title></polygon>
        <polygon  class="region"  data-region="53"  id="Bretagne"   stroke="#FFFFFF" points="31.9608361 62 31.0327833 62.7131549 28.7045105 63.0049001 28.1834983 63.718055 26.5553355 62.5024501 24.4224422 63.9287599 25.2365237 65.0309084 23.820022 66.9596683 22.0778878 65.9547682 19.2286029 66.0520166 19.2286029 68.0780249 18.4145215 68.0780249 18.2191419 67.1703732 16.9980198 67.36487 16.7863586 65.0309084 15.6792079 66.2465134 14.4580858 65.7440633 12.2112211 65.9547682 11.8041804 66.9596683 10.4853685 67.2676216 10.2737074 66.149265 7.94543454 66.4572182 7.94543454 67.1703732 6.31727173 67.2676216 5.60088009 66.7651715 4.78679868 67.1703732 4.57513751 68.3859781 1.83982398 68.4832265 0.407040704 70.2012816 1.62816282 71.1089333 0 72.4379947 0.504730473 73.3456464 0.097689769 75.5661515 1.72585259 75.7768564 2.34455446 75.1609499 2.65390539 75.5661515 6.51265127 75.0637015 9.05258526 73.248398 6.8220022 75.3716547 7.01738174 76.3765548 9.05258526 75.4689031 8.64554455 76.895213 10.8924092 76.9924614 10.7947195 77.5921598 8.35247525 77.4949114 6.4149615 76.9924614 4.07040704 75.8741048 2.65390539 77.4949114 4.47744774 78.1108179 4.37975798 80.8337731 4.88448845 80.4285714 6.00792079 78.7105164 8.14081408 79.9261214 9.16655666 80.1368262 9.57359736 81.7576329 8.95489549 82.8597814 7.63608361 82.762533 6.4149615 82.762533 4.37975798 83.0704862 0.911771177 83.264983 0.211661166 84.1888428 1.22112211 84.7885413 2.34455446 84.6912929 3.25632563 85.5016962 4.57513751 85.4044478 6.72431243 87.8356577 7.2290429 90.4613645 6.51265127 91.8876743 8.64554455 92.292876 10.990099 92.1794195 11.4948295 91.2717678 10.5830583 90.0561628 11.4948295 90.4613645 12.4228823 90.3641161 14.0510451 91.2717678 15.0605061 91.077271 15.0605061 89.3430079 15.4675468 91.077271 16.7863586 93.2005277 19.6356436 93.3950245 19.749615 92.795326 20.449725 93.8002262 22.1918592 94.1081794 23.5106711 94.1081794 24.7317932 96.0369393 26.359956 96.442141 26.9623762 95.5344893 26.6693069 96.6366378 28.0858086 97.2525443 29.9256326 99.0678477 30.5280528 100.186204 30.3326733 101.499058 30.1210121 102.828119 31.3421342 103.735771 31.9608361 103.022616 31.3421342 102.212213 31.3421342 100.396909 32.5632563 100.688654 32.970297 99.4730494 33.279648 100.186204 34.5984598 101.304561 35.2171617 100.283453 34.5984598 98.8733509 35.7218922 100.396909 37.1383938 100.186204 36.8453245 99.4730494 38.1641364 99.7810026 39.1735974 100.996608 38.6688669 101.807011 37.350055 101.401809 35.819582 100.688654 35.0055006 101.709763 36.2266227 102.114964 37.1383938 103.525066 42.6415842 103.022616 44.0580858 103.330569 43.3579758 103.930268 43.4556656 104.854127 43.6510451 105 44.0906491 104.91896 45.0024202 104.011308 45.6048405 104.708255 47.2330033 104.708255 49.1705171 103.703355 52.019802 102.584998 52.1174917 99.7485865 54.7713971 98.3384847 61.0723872 98.0305315 61.4794279 96.9121749 62.5051705 95.9072748 64.7357536 95.5993215 64.8334433 94.4809649 66.3639164 94.6916698 67.2756876 95.9072748 69.3271727 96.4097248 69.7179318 95.5993215 70.2389439 93.76781 71.5577558 90.5261968 72.2741474 90.1209951 74 90.3317 74 87.5925368 73.2836084 86.8793818 73.2836084 83.9457218 72.9742574 82.9408217 72.9742574 81.3200151 74 80.2989069 74 78.2728986 73.4952695 77.8676969 73.5929593 75.0312853 72.7788779 74.6260837 71.5577558 74.6260837 70.5320132 73.8156804 69.4248625 75.1285337 68.5130913 75.2419902 67.6990099 76.3441387 66.8849285 76.1496419 65.1427943 74.6260837 64.540374 72.6973238 64.2310231 71.4168865 59.2325633 71.4168865 57.3927393 70.29853 58.6138614 68.6777233 56.1716172 68.5804749 54.5434543 70.4119864 52.6059406 70.2012816 52.4105611 71.3196381 51.1894389 71.4168865 51.0917492 70.0067848 50.0660066 69.6988315 49.349615 70.5092348 49.349615 68.4832265 48.1284928 69.3908783 46.3049505 69.082925 45.6862486 70.29853 41.9251925 72.3245383 41.9251925 73.3456464 41.1111111 73.3456464 41.1111111 71.5141349 38.9782178 70.5092348 39.1735974 68.6777233 37.2523652 67.2676216 37.2523652 65.5495665 35.819582 65.2416133 35.9172717 63.6208066 34.810121 63.5235582 34.9078108 62.4052017 32.8726073 62.4052017 32.5632563 63.4101018"><title>Bretagne</title></polygon>
        <polygon  class="region"  data-region="52"  id="PaysDeLaLoire"  stroke="#FFFFFF" points="90.6468263 74 89.6377587 74.0968208 89.2146013 75.0973025 87.7009998 75.710501 84.9504766 75.3070809 82.1999535 76.9207611 81.1908858 76.2107418 79.6610091 77.2273603 78.5380144 76.4205202 77.8219019 75.2102601 76.3083004 74.5970617 75.2829575 75.4039017 73.5577773 75.1941233 73.4601256 77.824422 73.9646594 78.227842 73.9646594 80.2449422 72.9393164 81.2615607 72.9393164 82.8752408 73.2485468 83.8757225 73.2485468 86.7964836 73.9646594 87.5065029 73.9646594 90.2336224 72.2394792 90.0238439 71.5233667 90.427264 70.2050686 93.6546243 69.6842595 95.4780829 69.2936526 96.2849229 67.2429668 95.7846821 66.3315508 94.574422 64.801674 94.3646435 64.7040223 95.4780829 62.4743083 95.7846821 61.4489654 96.7851638 61.0420832 97.8986031 54.743548 98.2052023 52.0906766 99.609104 51.9930249 102.433044 49.14485 103.546484 47.2080911 104.546965 45.5805627 104.546965 44.9783771 103.853083 44.0669612 104.756744 43.6275285 104.837428 44.1483376 105.192437 42.2115787 106.902938 42.6184608 107.306358 43.0253429 108.113198 42 109.533237 43.1229947 110.130299 45.0597535 110.533719 45.255057 109.726879 46.3780516 111.146917 48.2171588 111.146917 49.5354569 109.726879 51.2606371 109.726879 49.4378052 110.630539 49.5354569 111.647158 49.942339 112.550819 48.8193443 113.664258 47.598698 113.664258 47.8102767 115.181118 50.0399907 114.777697 52.6928621 117.198218 49.5354569 121.232418 49.4378052 123.652938 52.5789351 126.67052 52.4812834 127.574181 53.3926994 127.574181 55.3294583 133.335019 57.3638689 134.335501 59.3982795 136.352601 61.7419205 136.352601 62.6533364 138.369701 64.8993257 138.369701 65.9083934 139.886561 68.1543827 141 68.2520344 139.579961 68.8216694 140.112476 71.9302488 138.240607 73.3624738 138.143786 73.9646594 139.757466 75.9014183 138.950626 77.5289468 140.160886 78.8472448 139.547688 79.9702395 139.241089 80.4747733 138.644027 81.8907231 137.740366 80.8816554 136.723748 80.0678912 137.336946 79.9702395 136.530106 80.686352 135.206888 79.9702395 133.996628 80.572425 133.189788 80.2631946 130.365848 79.2541269 128.865125 79.9702395 127.945328 78.342711 126.138006 78.9448965 124.830925 76.5036038 122.813825 76.5036038 121.603565 75.4945362 120.183526 77.6265985 119.279865 80.7840037 119.989884 82.1999535 119.070087 82.1999535 117.666185 84.9504766 117.456407 87.4894211 116.956166 90.2399442 116.859345 90.5491746 117.569364 91.2652871 118.166426 91.9651244 116.956166 93.9018833 114.939066 94.683097 114.939066 95.8386422 110.808044 97.4661707 108.887765 97.3522437 106.677023 98.3775866 105.353805 98.3775866 104.756744 97.8730528 104.143545 98.8821204 102.126445 100.916531 103.546484 102.039526 103.546484 101.421065 101.529383 102.657987 102.336224 103.357824 101.319605 106.30365 100.512765 105.799116 99.3025048 106.515229 98.3988439 108.045106 97.8017823 109.461056 95.9783237 109.461056 94.0580443 110.486399 94.0580443 110.893281 92.6541426 110.990932 90.5402216 109.981865 89.6204239 110.795629 88.2165222 112 86.6996628 110.58405 85.6991811 109.265752 85.4894027 107.833527 83.3754817 107.426645 83.3754817 107.328993 84.3759634 107.231342 83.6820809 105.099279 83.6820809 104.073936 82.1652216 102.348756 81.5520231 101.844222 77.9212428 101.030458 76.8239403 98.2799349 76.9207611 95.5294118 79.4381021 93.8042316 79.3412813 93.2834225 77.5178227 91.9651244 77.0175819 91.5582423 74.8068401"><title>Pays de la Loire</title></polygon>
        <polygon  class="region"  data-region="25"  id="BasseNormandie"  stroke="#FFFFFF" points="57.4063861 38 57 39.0327869 59.1457184 40.7704918 59.1457184 43.0327869 58.3329463 44.0491803 58.836865 44.557377 59.1457184 44.7704918 58.9343977 46.7213115 59.6496372 48.3606557 61.9904209 51.0163934 62.4943396 53.3770492 62.9982583 54.0983607 62.9982583 57.7868852 64.2174165 60.2459016 64.2174165 63.1147541 62.9007257 65.7704918 64.3149492 69.4590164 66.5582003 69.9672131 66.7532656 71 65.6478955 71.5081967 63.7297533 71.5081967 64.0386067 72.8032787 64.6400581 74.7540984 66.3793904 76.295082 67.1921626 76.4918033 68.0049347 75.3770492 68.9152395 75.2622951 70.0206096 73.9344262 71.0447025 74.7540984 72.2638607 74.7540984 73.0766328 75.1639344 73.0766328 75.3606557 74.7997097 75.5737705 75.8238026 74.7540984 77.3355588 75.3770492 78.0507983 76.6065574 79.1724238 77.4262295 80.7004354 76.3934426 81.7082729 77.1147541 84.4554427 75.4754098 87.2026125 75.8852459 88.7143687 75.2622951 89.1370102 74.2459016 90.1448476 74.147541 91.0551524 74.9672131 91.4615385 77.2131148 92.7782293 77.7213115 93.2984035 79.5737705 95.0214804 79.6721311 97.7686502 77.1147541 100.51582 77.0163934 101.328592 78.1311475 101.832511 81.8196721 103.555588 82.442623 104.579681 83.9836066 106.709144 83.9836066 106.806676 84.6885246 106.904209 83.6721311 107.310595 83.6721311 108.741074 85.8196721 109.846444 86 109.846444 83.5737705 109.14746 82.6393443 108.936139 81.8196721 110.464151 80.9016393 111.992163 80.5901639 113 79.3606557 112.804935 75.5737705 110.659216 73.7377049 110.561684 71.9836066 108.741074 70.7540984 109.456313 69.7377049 109.033672 68.1967213 107.619448 67.6885246 106.595356 66.6557377 105.993904 65.2295082 103.149202 65.1311475 102.33643 64.0983607 103.149202 61.7377049 103.051669 60.8196721 102.027576 60.4098361 101.930044 59.6885246 102.840348 59.0819672 102.954136 58.0491803 102.33643 55.5901639 101.117271 53.852459 102.141364 53.2459016 102.141364 52.8360656 101.117271 52.5245902 100.629608 48.6393443 98.2563135 49.0655738 94.3875181 51.3278689 90.0310595 53.0655738 86.5686502 51.1147541 78.2458636 49.8852459 76.3114659 48.8688525 72.3451379 49.8852459 72.2476052 47.4262295 69.5979681 44.2622951 70.4107402 42.2131148 71.5323657 42.2131148 70.5245283 39.442623 66.1518142 39.2295082 63.8110305 40.8688525 61.1776488 39.1311475"><title>Basse-Normandie</title></polygon>
        <polygon  class="region"  data-region="24"  id="CentreValDeLoire"   stroke="#FFFFFF" points="124.308971 63 123.697361 63.5045445 123.697361 65.1321074 121.685488 66.1411964 121.685488 67.6711055 121.089974 68.3872331 118.563061 68.3872331 117.372032 67.8826886 113.734565 69.8032129 112.334301 69.8032129 110.885752 71.2029169 111.223747 71.4307757 111.320317 73.172268 113.444855 74.9951384 113.637995 78.7548087 112.640106 79.9754809 111.127177 80.2847178 109.614248 81.196153 109.823483 82.0099345 110.515567 82.9376453 110.515567 85.3464384 110.724802 85.3789896 112.125066 86.3880786 110.934037 87.9179877 110.129288 89.3339674 111.127177 90.2616783 111.030607 92.3937857 110.628232 93.8097654 109.614248 93.8097654 109.614248 95.7465652 108.213984 97.5857113 106.701055 98.1879095 105.992876 99.0993447 106.491821 100.320017 103.578628 101.133798 102.886544 102.159163 101.663325 101.345382 102.274934 103.379835 101.16438 103.379835 99.1525066 101.94758 98.1546174 103.982033 98.653562 104.600507 98.653562 105.202706 97.6395778 106.537307 97.7522427 108.767068 96.1427441 110.703868 95 114.870429 95.1287599 114.870429 95.5311346 116.497992 97.446438 116.904883 97.446438 118.125555 99.860686 118.841683 99.860686 120.778482 99.7641161 121.999155 102.773879 121.999155 105.397361 121.380681 105.188127 120.257662 105.992876 119.753118 106.797625 120.876136 107.505805 121.185373 108.101319 123.626717 109.823483 125.449588 110.016623 126.881843 111.835356 128.704714 111.835356 130.641513 111.432982 131.862186 113.348285 133.392095 114.346174 134.401184 115.955673 134.612767 116.567282 136.744874 117.661741 137.347073 117.468602 138.876982 116.663852 139.023462 116.953562 139.088565 119.480475 139.283872 120.381794 138.372437 121.991293 140 124.003166 137.656309 124.904485 138.274783 126.111609 138.160854 126.513984 138.372437 128.332718 138.470091 128.928232 136.842528 133.965963 137.461002 135.881266 137.965546 139.116359 137.574931 139.599208 136.533291 140.902902 135.019658 143.41372 134.498837 144.733509 134.905728 146.133773 133.798985 146.037203 132.985204 145.538259 132.578313 145.538259 130.95075 148.242216 128.200169 149.256201 129.323187 150.15752 128.395477 150.962269 128.297823 152.362533 126.474952 154.680211 126.67026 154.712401 127.223631 155.48496 124.73346 154.986016 123.822025 155.082586 122.503699 155.388391 119.850772 154.277836 118.744029 154.487071 116.302684 153.473087 114.154301 153.376517 112.738322 151.557784 111.306066 151.268074 110.085394 152.169393 108.767068 152.169393 106.830268 150.962269 105.414289 150.865699 104.388924 152.877573 103.786726 152.571768 102.663707 152.265963 101.036145 150.962269 99.2132741 150.656464 98.0902558 152.668338 98.0902558 154.084697 97.0648911 154.277836 95.5512577 153.376517 94.525893 156 92.2961319 156 90.4569858 154.680211 89.0410061 154.181266 87.4134432 152.362533 85.671951 149.851715 87.1042063 149.658575 86.2904249 148.548021 86.1927711 148.242216 87.0065525 147.244327 87.2018601 144.524274 87.1042063 143.41372 87.820334 142.512401 87.0065525 144.1219 85.8835341 144.02533 84.1583175 142.818206 83.5398436 141.804222 82.0099345 139.100264 81.8146269 137.98971 80.9031917 136.686016 82.1238639 133.467018 82.4168252 133.257784 79.6825196 133.048549 79.3732826 132.855409 78.0549567 130.746966 77.6480659 129.829551 76.5250476 129.539842 74.2790108 128.332718 74.0837032 128.123483 72.9606848 126.723219 71.9515959 126.01504 70.2101036 126.723219 68.9894314 126.01504 68.17565 126.01504 67.166561 126.417414 66.0435426 125.612665 65.2297611 125.30686 64.009089"><title>Centre</title></polygon>
        <polygon  class="region"  data-region="26"  id="Bourgogne"   stroke="#FFFFFF" points="161.36187 80 160.460838 80.6997044 156.534912 80.5044381 154.732848 81.415681 154.024894 82.9452674 154.829387 83.8565104 153.622647 85.2884636 152.705525 86.3949729 154.523679 88.1360979 155.022465 89.7633175 156.341834 91.1789985 156.341834 93.0177566 153.719186 95.2470474 154.620219 96.2721958 154.42714 97.78551 153.011233 98.8106583 151 98.8106583 151.305707 99.9334398 152.608986 101.755926 152.914693 103.383145 153.220401 104.505927 151.209168 105.107998 151.305707 106.133146 152.512447 107.548827 152.512447 109.485219 151.611415 110.803267 151.901032 112.023681 153.719186 113.455634 153.815726 114.871316 154.829387 117.019245 154.620219 119.460075 155.730419 120.566584 155.424712 123.218952 155.328172 124.537 155.826958 125.448243 155.054645 127.937889 155.119004 128.702682 156.840619 129.516292 158.047359 130.850612 159.141469 130.232268 160.155131 129.630197 160.364299 130.54144 161.860656 130.54144 162.262902 129.72783 163.163934 130.134635 163.469642 131.452683 164.274135 131.257417 166.188828 128.605049 167.1864 129.321025 169.213722 133.177536 169.213722 134.707122 169.712508 135.325466 171.418033 135.325466 172.013358 136.139075 173.622344 136.139075 174.330298 137.147952 174.233758 141.118367 172.125987 142.745587 172.077743 142.859492 172.222552 142.843194 172.528259 142.940827 172.624798 144.568047 174.137245 144.877218 174.330323 145.593195 175.134816 145.593195 176.341556 144.877218 179.559528 145.381657 180.170943 146 180.975436 145.18639 182.085636 145.18639 182.680961 141.931951 183.083207 141.622779 184.080779 141.622779 185.303608 142.436389 186.20464 141.622779 186.799965 142.436389 187.717087 141.525146 188.811198 141.427513 189.326073 143.054733 189.71223 145.088757 190.420184 145.18639 191.031598 143.754437 192.930202 136.236683 193.638156 134.918635 194.748356 134.804729 195.858556 135.732244 196.663049 135.520706 197.660621 134.804729 198.674282 135.016268 199.269607 136.334316 199.848842 136.562126 202.487579 136.236683 203.50124 135.423073 203.098994 134.804729 201.892254 134.397924 201.779625 132.982243 202.793286 132.266267 203.195533 130.541414 202.294501 128.914194 201.683086 128.100585 201.988793 127.791413 201.988793 126.782537 201.1843 126.261827 200.975132 125.448217 203.292072 125.155317 203.50124 124.341707 202.793286 124.341707 202.197961 123.625731 201.087761 123.625731 200.170639 122.096144 199.36612 121.998537 199.478749 120.680489 200.170613 120.273685 200.074074 119.752974 199.880996 119.150903 200.379781 118.337293 202.085307 117.523683 202.085307 116.710074 202.696721 115.896464 203.292046 115.082854 203.098968 114.366877 203.388585 113.244096 203.597753 111.616876 204 111.616876 203.903461 111.014805 203.501214 110.608 203.388585 108.573976 202.487553 108.476343 202.294475 106.849123 201.184274 106.328413 201.586521 105.823975 202.197936 105.628708 203.501214 104.099122 203.388585 103.285512 202.584092 101.658293 201.393443 101.446754 200.975106 102.471902 198.770795 102.97634 198.561627 102.471902 196.952641 100.437878 196.051609 100.942316 194.844869 100.844683 194.442623 100.031073 192.833637 100.128706 192.737098 98.4038534 191.836066 97.78551 193.139344 96.3698289 190.822404 93.213023 189.02034 91.2766317 187.411354 90.3653887 184.499089 90.3653887 184.289921 91.6834366 182.986642 92.3994132 179.672131 92.4970463 179.157256 93.6198279 178.449302 93.5221947 177.853977 92.3994132 175.842744 93.4245615 171.820279 93.213023 171.321494 92.0902415 170.211293 90.5769272 170.018215 88.7381691 168.409229 86.8017778 167.395568 87.5177544 165.577413 86.1020734 165.883121 83.3520723 163.276563 80.6020712 162.069824 80.6020712"><title>Bourgogne</title></polygon>
        <polygon  class="region"  data-region="43"  id="FrancheComte"   stroke="#FFFFFF" points="215.393443 89 213.459016 89.3063566 213.147541 90.3060465 212.114754 91.0155039 211.409836 90.2093023 210.901639 90.5156589 211.295082 91.1122481 210.278689 91.7249612 210.590164 92.5311628 209.459016 92.9342636 209.459016 94.2403101 208.016393 94.2403101 207.918033 95.0465116 206.491803 95.3528682 206.590164 96.5621705 207.508197 96.6589147 207 97.2555039 206.688525 99.2710078 205.770492 99.2710078 204.229508 99.8837209 202.590164 99.2710078 201.163934 99.8837209 201.163934 100.899535 202.278689 101.093023 203.098361 102.705426 203.213115 103.511628 201.885246 105.027287 201.262295 105.220775 200.852459 105.72062 201.983607 106.236589 202.180328 107.848992 203.098361 107.945736 203.213115 109.96124 203.622951 110.364341 203.721311 110.96093 203.311475 110.96093 203.098361 112.573333 202.803279 113.685891 203 114.395349 202.393443 115.20155 201.770492 116.007752 201.770492 116.813953 200.032787 117.620155 199.52459 118.426357 199.721311 119.022946 199.819672 119.538915 199.114754 119.942016 199 121.248062 199.819672 121.344806 200.754098 122.860465 201.885246 122.860465 202.491803 123.569922 203.213115 123.569922 203 124.376124 200.639344 124.666357 200.852459 125.472558 201.672131 125.988527 201.672131 126.988217 201.360656 127.294574 201.983607 128.100775 202.901639 129.713178 202.491803 131.422326 201.459016 132.131783 201.57377 133.534574 202.803279 133.937674 203.213115 134.550388 202.180328 135.356589 199.491803 135.67907 200.754098 136.162791 202.803279 138.984496 204.131148 139.581085 204.131148 141 205.672131 140.790388 207.622951 138.67814 209.262295 139.484341 209.262295 140.693643 212.229508 140.693643 216.491803 136.082171 216.311475 135.985426 216.508197 133.873178 218.04918 132.067287 217.016393 131.664186 217.131148 130.954729 223.47541 125.101705 223.278689 120.264496 225.52459 119.168062 227.065574 118.458605 228.491803 117.152558 228.606557 115.233798 230.032787 114.524341 233.311475 110.79969 232.803279 109.590388 233.934426 109.090543 235.262295 107.47814 234.540984 106.768682 232.081967 107.268527 231.983607 106.865426 234.639344 103.850233 236 103.64062 235.491803 101.496124 235.180328 100.383566 233.737705 100.593178 233.540984 99.383876 234.04918 98.4648062 234.147541 97.2555039 233.852459 96.5621705 232 95.1432558 230.360656 95.0465116 229.95082 94.2403101 226.672131 92.5311628 225.754098 91.5153488 224.836066 90.9187597 224.016393 91.3218605 223.901639 91.9184496 223.081967 92.4182946 222.57377 92.4182946 221.032787 90.7091473 218.885246 90.7091473 217.967213 91.4186047 217.147541 91.5153488 215.819672 90.5156589 215.918033 89.4031008"><title>Franche-Comté</title></polygon>
        <polygon  class="region"  data-region="42"  id="Alsace"   stroke="#FFFFFF" points="245.367137 56 243.434062 56.5345455 242.540624 58.0895868 242.540624 59.6122314 241.728407 60.3249587 241.013657 60.3249587 239.697866 59.4016529 238.674473 60.1143802 237.456148 60.1143802 236.449 59.1100826 234.515924 58.802314 233.395065 58.3001653 232.988957 56.7775207 232.079274 57.7818182 231.5757 60.1143802 230.243665 60.5193388 230.243665 61.831405 231.5757 62.4469421 232.582849 63.1596694 232.17674 64.0667769 233.102667 64.6661157 234.7271 63.4512397 237.553614 65.0710744 236.351534 67.3064463 236.449 68.0191736 237.261216 68.8290909 236.643932 70.9510744 234.61339 72.9758678 233.492531 72.8786777 234.207282 73.5752066 233.801174 75.4056198 234.207282 78.1431405 236.140357 78.6452893 235.019498 81.1722314 233.801174 83.6019835 234.109816 85.1246281 233.102667 87.4571901 231.364524 88.9636364 231.267058 92.9160331 230 94.0013223 230.048707 94.033719 230.454815 94.8436364 232.079248 94.9408264 233.914858 96.366281 234.207256 97.0628099 234.10979 98.277686 233.606216 99.2009917 233.801148 100.415868 235.230649 100.205289 235.539291 101.322975 236.042865 103.477355 237.244946 103.282975 237.033769 104.384463 237.74852 105 241.500961 104.90281 243.434036 103.380165 243.531502 101.144793 244.554895 99.8327273 243.22286 98.3100826 242.524354 96.6902479 243.33657 95.5887603 243.33657 93.0456198 243.840144 91.8307438 243.840144 89.8059504 244.749827 88.4938843 243.742678 87.0846281 243.628968 83.8449587 246.276794 78.677686 245.968152 75.7457851 247.186477 71.7933884 247.495119 68.3431405 250.126701 66.4317355 250.126701 65.2168595 251.150093 63.888595 251.96231 63.888595 252.871993 62.9814876 252.677061 61.2644628 253.586743 58.8347107 255 58.5269421 253.586743 57.4092562 251.052627 57.117686 248.81091 56 247.283943 56.9071074 246.471726 56 245.367111 56"><title>Alsace</title></polygon>
        <path d="M198.914321,43 L198.200734,44.1810726 L197.292534,44.7880126 L196.578947,44.0826498 L195.054468,44.0826498 L194.762546,43.6725552 L193.74082,45.6082019 L193.335373,46.3299685 L194.551714,47.8719243 L194.146267,49.9223975 L193.027234,50.8410095 L193.140759,51.562776 L193.529988,52.5798107 L192.929927,53.2031546 L191.713586,53.8100946 L191.908201,54.9419558 L192.427173,55.0403785 L191.518972,55.8605678 L192.21634,57.4025237 L192.929927,59.6662461 L192.021726,60.6832808 L193.643513,60.584858 L192.832619,63.1438486 L191.713586,63.6523659 L191.097307,65.1943218 L191.713586,65.7028391 L191,66.933123 L191.210832,67.7533123 L193.140759,69.2952681 L193.238066,72.8876972 L195.362607,73.1993691 L196.676255,74.6264984 L199.108935,75.8567823 L200.017136,76.1684543 L202.157895,78.5305994 L201.249694,79.4492114 L201.947062,80.4662461 L203.568849,80.5810726 L204.996022,82.5167192 L206.212362,82.5167192 L206.504284,83.8618297 L207.834149,84.0586751 L208.126071,84.9772871 L207.21787,85.6006309 L206.617809,88.3728707 L209.455936,89.8 L209.455936,91.9488959 L210.558752,91.5388013 L211.48317,92.2769716 L212.180539,91.8504732 L211.79131,91.2435331 L212.294064,90.9318612 L212.991432,91.7520505 L214.013158,91.0302839 L214.321297,90.0132492 L216.235006,89.7015773 L216.753978,90.1116719 L216.656671,91.2435331 L217.970318,92.2605678 L218.781212,92.1621451 L219.689412,91.4403785 L221.813953,91.4403785 L223.338433,93.1791798 L223.841187,93.1791798 L224.652081,92.6706625 L224.765606,92.0637224 L225.576499,91.6536278 L226.4847,92.2605678 L227.392901,93.2940063 L230.587821,95 L231.852815,93.9009464 L231.950122,89.8984227 L233.685435,88.3728707 L234.690942,86.0107256 L234.382803,84.4687697 L235.599143,82.0082019 L236.718176,79.4492114 L234.78825,78.940694 L234.382803,76.1684543 L234.78825,74.3148265 L234.074663,73.6094637 L235.193696,73.7078864 L237.22093,71.6574132 L237.837209,69.5085174 L237.026316,68.6883281 L236.929009,67.9665615 L238.129131,65.7028391 L235.307222,64.0624606 L233.685435,65.2927445 L232.761016,64.6858044 L233.166463,63.7671924 L232.160955,63.0454259 L230.831089,62.422082 L230.831089,61.0933754 L232.160955,60.6832808 L232.663709,58.3211356 L233.571909,57.3041009 L233.977356,58.8460568 L235.096389,59.3545741 L237.026316,59.6662461 L238.031824,60.6832808 L239.248164,60.6832808 L240.26989,59.9615142 L241.583537,60.89653 L242.297124,60.89653 L243.108017,60.1747634 L243.108017,58.6328076 L244,57.0580442 L243.789168,57.1236593 L243.091799,56.1066246 L241.064565,54.8763407 L240.350979,53.7444795 L237.918299,53.9577287 L236.491126,55.2864353 L233.052938,55.384858 L232.031212,54.6630915 C231.962713,54.5374096 231.463908,53.6470436 231.025704,53.4 C231.008733,53.3908664 230.980813,53.3760111 230.960832,53.3671924 C230.946042,53.3610509 230.924556,53.3544368 230.912205,53.3507624 C230.906652,53.3481378 230.885633,53.3373769 230.879769,53.3343324 C230.878212,53.3343376 230.865341,53.3342589 230.863525,53.3343324 C230.850551,53.3338074 230.825277,53.3343324 230.814897,53.3343324 C230.339768,53.3343376 229.419849,52.7949759 229.306635,52.7273923 L227.879463,53.3343324 L227.782156,54.5646163 L226.063061,54.7778655 L225.041336,52.825815 L224.441274,52.6125658 L224.441274,51.1854365 L223.014102,50.5620926 L222.916795,48.1015248 L221.895069,47.0844901 L219.770528,46.0510516 L218.76502,46.0510516 L218.45688,46.2643008 L217.435154,46.2643008 L216.0242,45.0340169 L214.49972,45.1324396 L213.28338,46.1658781 L212.97524,46.6743955 L211.256146,46.6743955 L210.656085,46.0510516 L209.034298,46.0510516 L207.201678,44.0005784 L204.866305,44.0005784 L203.649965,45.1324396 L201.930871,45.2308623 L201.330809,45.8542062 L200.71453,45.8542062 L200.309058,43.9022082 L199.498164,43.0820189 L198.914321,43 Z"  class="region"  data-region="41"   id="Lorraine" stroke="#FFFFFF"><title>Lorraine</title></path>
        <polygon id="ChampagneArdenne"  class="region"  data-region="21"    stroke="#FFFFFF" points="186.603786 27 185.575718 28.5167382 184.66188 29.4463519 184.66188 30.3596567 184.66188 31.5828326 183.43799 32.3982833 181.20235 33.1158798 179.97846 33.6214592 178.542428 32.4961373 176.600522 32.4961373 176.323107 34.3064378 177.236945 36.0351931 176.323107 36.8506438 176.225196 38.383691 176.73107 39.1991416 176.323107 40.4223176 174.789164 41.2377682 174.789164 42.5587983 172.847258 42.9665236 172.537206 43.7819742 173.875326 44.4995708 173.467363 45.9184549 173.157311 47.1416309 173.255222 50.6154506 172.537206 50.8111588 170.807441 49.6858369 169.583551 50.2077253 169.795692 51.2188841 167.641645 51.2188841 165.716057 52.6540773 165.716057 55.3939914 167.13577 56.3236052 167.543734 57.2369099 165.193864 57.432618 164.900131 58.3622318 165.813969 58.9656652 165.406005 59.5854077 164.492167 59.993133 164.68799 60.6944206 166.009791 60.6944206 166.531984 61.4120172 165.618146 62.0317597 164.802219 64.1682403 163.268277 64.8858369 162.746084 65.9948498 162.240209 66.6145923 162.354439 67.2180258 161.538512 67.7399142 161.326371 69.1587983 162.142298 69.6643777 162.550261 71.1974249 162.044386 72.1107296 162.354439 72.8283262 163.872063 72.7304721 163.872063 73.5459227 162.45235 74.1493562 162.354439 75.3725322 161.636423 76.3021459 161.22846 78.3407725 161 80.0532189 161.636423 80.5751073 162.860313 80.5751073 165.503916 83.3313305 165.193864 86.0875536 167.037859 87.5064378 168.065927 86.7888412 169.697781 88.7296137 169.893603 90.5725322 171.019582 92.0892704 171.525457 93.2145923 175.605091 93.4266094 177.644909 92.3991416 178.248695 93.5244635 178.96671 93.6223176 179.488903 92.4969957 182.850522 92.3991416 184.172324 91.6815451 184.384465 90.360515 187.33812 90.360515 188.969974 91.2738197 190.79765 93.2145923 193.14752 96.3785408 191.825718 97.7974249 192.739556 98.4171674 192.837467 100.145923 194.469321 100.048069 194.877285 100.863519 196.101175 100.961373 197.015013 100.455794 198.646867 102.494421 198.859008 103 201.094648 102.494421 201.51893 101.466953 201.616841 101.483288 201.616841 100.45582 203.036554 99.8360776 204.668407 100.45582 206.20235 99.8360776 207.116188 99.8360776 207.42624 97.7974249 207.932115 97.1939914 207.018277 97.0961373 206.920366 95.8729614 208.340078 95.5630901 208.43799 94.7476395 209.874021 94.7476395 209.874021 93.4266094 211 93.0188841 210.689948 92.2034335 211 92.0077253 210.069843 91.2738197 208.960183 91.6815451 208.960183 89.5450644 206.104439 88.1261803 206.708225 85.3699571 207.622063 84.7502146 207.328329 83.8369099 205.990209 83.6412017 205.696475 82.3038627 204.472585 82.3038627 203.036554 80.3793991 201.4047 80.2652361 200.703003 79.2540773 201.616841 78.3407725 199.462794 75.9922747 198.548956 75.6824034 196.101175 74.4592275 194.779373 73.0403433 192.641645 72.7304721 192.543734 69.1587983 190.601828 67.6257511 190.389687 66.8103004 191.107702 65.5871245 190.487598 65.0815451 191.107702 63.5484979 192.233681 63.0429185 193.049608 60.4987124 191.417755 60.5965665 192.331593 59.5854077 191.613577 57.3347639 190.91188 55.8017167 191.825718 54.9862661 191.303525 54.888412 191.107702 53.7630901 192.331593 53.1596567 192.935379 52.5399142 192.543734 51.5287554 192.429504 50.8111588 193.555483 49.8978541 193.963446 47.8592275 192.739556 46.3261803 193.14752 45.6085837 194.175587 43.6841202 194.469321 44.0918455 196.003264 44.0918455 196.721279 44.793133 197.635117 44.1896996 198.353133 43.0154506 197.618799 42.9012876 197.210836 40.8626609 196.394909 40.2429185 193.539164 39.9330472 193.03329 38.6120172 192.103133 38.0085837 188.839426 37.6008584 188.643603 35.2523605 189.051567 34.8446352 189.051567 33.9313305 187.419713 32.9038627 187.729765 31.7785408 188.137728 30.767382 187.419713 30.1476395 188.545692 29.1364807 188.545692 27.2935622 188.137728 27"><title>Champagne-Ardenne</title></polygon>
        <polygon id="IDF"  class="region"  data-region="11"    stroke="#FFFFFF" points="128.390891 55 127.57901 55.9980488 126.96198 58.2195122 126.247525 59.4268293 123.405941 60.2317073 123 60.7307317 123.519604 61.5356098 123.519604 62.3404878 124.428911 62.5336585 123.909307 63.0487805 123.957994 63.4995122 124.022944 63.4512453 125.029677 64.449294 125.338192 65.6566111 126.150073 66.4614892 125.744132 67.5722209 125.744132 68.5702697 126.458588 69.3751477 125.744132 70.5824648 126.458588 72.3049038 127.871261 73.3029526 128.08235 74.4136843 129.300172 74.606855 129.592449 76.8283184 130.517994 77.9390501 132.645149 78.3414634 132.84 79.6453659 133.051089 79.9512195 133.262178 82.6556098 136.509703 82.3658537 137.82495 81.1585366 138.945347 82.06 141.673267 82.2531707 142.696238 83.7663415 143.914059 84.3780488 144.011485 86.0843902 142.387723 87.195122 143.29703 88 144.417426 87.2917073 147.161584 87.3882927 148.168317 87.195122 148.476832 86.3902439 149.597228 86.4868293 149.792079 87.2917073 152.325149 85.875122 153.250693 84.7804878 154.468515 83.3639024 153.656634 82.462439 154.371089 80.9492683 156.189703 80.0478049 160.151683 80.2409756 161.06099 79.5487805 161.142178 79.6292683 161.369505 77.9390244 161.775446 75.9268293 162.489901 75.0092683 162.587327 73.8019512 164 73.2063415 164 72.4014634 162.489901 72.4980488 162.181386 71.7897561 162.684752 70.8882927 162.278812 69.375122 161.466931 68.8760976 161.67802 67.4756098 162.489901 66.9604878 162.376238 66.364878 162.668515 66.0107317 160.963564 65.6565854 160.44396 64.4492683 159.534653 64.1434146 156.806733 61.5356098 156.498218 59.3141463 155.377822 58.5092683 154.760792 58.815122 153.754059 59.62 152.747327 59.3141463 151.009901 60.022439 149.597228 59.217561 148.980198 60.022439 148.070891 60.1190244 147.453861 59.62 146.447129 59.0243902 145.229307 59.8292683 144.514851 59.1209756 142.290297 57.8170732 140.146931 56.7063415 139.042772 57.2053659 137.82495 57.5112195 137.013069 56.8995122 135.389307 55.9014634 134.074059 56.8995122 132.141782 57.1087805 129.397624 56.8995122 128.780594 55.9014634"><title>Île-de-France</title></polygon>
        <polygon  class="region"  data-region="22"  id="Picardie"   stroke="#FFFFFF" points="125.076566 21 124.800464 24.3465704 127.041763 26.3772563 127.041763 27.400722 124.296984 25.7761733 121 29.8375451 121.87703 30.2111913 122.99768 30.1137184 123.50116 31.1209386 127.967517 35.4909747 128.276102 37.3104693 129.283063 39.1462094 128.276102 40.3646209 127.87007 41.3718412 128.682135 41.3718412 128.276102 42.3953069 127.87007 44.4259928 128.470998 45.433213 128.470998 47.1714801 129.4942 47.1714801 129.088167 47.8700361 128.37355 49.2021661 128.081206 50.1119134 128.990719 50.9241877 129.283063 53.2635379 129.802784 54.0758123 129.088167 54.2707581 128.178654 53.767148 128.016241 54.9693141 128.081206 54.8880866 128.470998 55.7978339 129.088167 56.8050542 131.832947 57.0162455 133.765661 56.8050542 135.081206 55.7978339 136.705336 56.8050542 137.517401 57.4223827 138.735499 57.1137184 139.839907 56.6101083 141.983759 57.7310469 144.208817 59.0469314 144.923434 59.7617329 146.141531 58.9494585 147.148492 59.5505415 147.765661 60.0541516 148.675174 59.9566787 149.292343 59.1444043 150.705336 59.9566787 152.443155 59.2418773 153.450116 59.5505415 154.457077 58.7382671 155.074246 58.4296029 156.194896 59.2418773 156.50348 61.4837545 159.232019 64.1155235 160.141531 64.4241877 160.661253 65.6425993 162.366589 66 162.577726 65.7400722 163.097448 64.6353791 164.62413 63.9205776 165.436195 61.7924188 166.345708 61.1750903 165.825986 60.4602888 164.510441 60.4602888 164.315545 59.7617329 165.225058 59.3555957 165.63109 58.7382671 164.721578 58.1371841 165.013921 57.2111913 167.352668 57.0162455 166.946636 56.1064982 165.533643 55.1805054 165.533643 52.4512635 167.450116 51.0216606 169.593968 51.0216606 169.382831 50.0144404 170.600928 49.4945848 172.322506 50.6155235 173.037123 50.4205776 172.939675 46.9602888 173.24826 45.7418773 173.654292 44.3285199 172.322506 43.6137184 172.63109 42.801444 174.563805 42.3953069 174.563805 41.0794224 176.090487 40.267148 176.49652 39.0487365 175.993039 38.2364621 176.090487 36.7093863 177 35.8971119 176.090487 34.1750903 176.366589 32.3718412 174.303944 32.3718412 173.75174 32.7454874 171.819026 32.2418773 171.412993 30.9259928 170.812065 30.9259928 169.691415 31.933213 169.49652 31.0234657 167.25522 30.8122744 166.638051 30.3086643 165.939675 30.2111913 164.315545 31.33213 163.50348 30.6173285 162.788863 30.6173285 161.164733 31.7382671 159.946636 31.0234657 158.728538 31.7382671 158.322506 31.8357401 158.013921 31.2184116 156.893271 31.2184116 156.081206 31.7382671 155.269142 31.5270758 154.359629 30.6173285 151.923434 30.6173285 150.396752 31.4296029 150.396752 30.7148014 150.006961 30 149.081206 30.4061372 147.960557 31.0234657 148.577726 30.1137184 148.480278 29.301444 147.148492 28.3754513 147.148492 29.398917 146.238979 29.398917 144.111369 28.6841155 143.201856 27.9693141 142.276102 28.5866426 141.983759 29.398917 141.577726 29.4963899 141.074246 28.9927798 141.074246 27.5631769 142.584687 26.5559567 141.983759 25.532491 140.765661 26.0523466 140.148492 25.532491 137.614849 25.8411552 136.299304 26.3447653 134.967517 25.8411552 134.967517 24.833935 133.148492 24.0216606 132.645012 22.8032491 131.930394 23.0956679 129.99768 21.5848375 129.088167 21.2761733 128.37355 22.1859206 127.155452 22.4945848 126.651972 21.3736462"><title>Picardie</title></polygon>
        <polygon id="HauteNormandie"  class="region"  data-region="23"    stroke="#FFFFFF" points="121.123295 30 120.451812 30.8168028 116.062605 34.1820303 108.283228 36.126021 103.157027 37.9556593 98.9643522 40.210035 96.5077067 43.8856476 96 46.7444574 98.0472046 48.2800467 101.011557 48.8844807 100.536605 48.966161 101.027934 52.8378063 102.059726 53.1481914 102.059726 53.5565928 101.027934 54.1610268 102.256257 55.8926488 102.878607 58.3430572 102.763964 59.3722287 101.846816 59.9766628 101.945082 60.6954492 102.976873 61.1038506 103.075139 62.0186698 102.256257 64.3710618 103.075139 65.4002334 105.941225 65.4982497 106.547198 66.9194866 107.578989 67.9486581 109.003844 68.4550758 109.429662 69.9906651 108.709046 71.0035006 110.199411 72 111.673398 70.5950992 113.098253 70.5950992 116.799599 68.6674446 118.011544 69.1738623 120.582833 69.1738623 121.188805 68.4550758 121.188805 66.9194866 123.23601 65.9066511 123.23601 64.2730455 123.792849 63.8156359 123.743743 63.3582264 124.267827 62.8354726 123.350679 62.6394399 123.350679 61.8226371 122.826595 61.0058343 123.236036 60.4994166 126.102122 59.6826138 126.822738 58.4574096 127.445089 56.2030338 128.19846 55.2718786 128.362236 54.0630105 129.279384 54.5694282 130 54.3733956 129.475916 53.5565928 129.181118 51.2042007 128.263971 50.3873979 128.558768 49.4725788 129.279384 48.1330222 129.688825 47.4305718 128.657034 47.4305718 128.657034 45.6826138 128.051061 44.6697783 128.460502 42.6277713 128.869943 41.5985998 128.051061 41.5985998 128.460502 40.5857643 129.475916 39.3605601 128.460502 37.5145858 128.149327 35.6849475 123.645477 31.2905484 123.13777 30.277713 122.007713 30.3757293"><title>Haute-Normandie</title></polygon>
        <polygon id="NPDC"  class="region" title=""  data-region="31"    stroke="#FFFFFF" points="144.710828 0 141.46242 1.53792762 136.394904 2.35597422 130.499045 3.48487853 126.032484 6.95339613 126.032484 20.7620228 126 21.1710461 127.575478 21.5473475 128.078981 22.6762519 129.297134 22.3653941 130.011783 21.449182 130.921338 21.7600397 132.85414 23.2816063 133.56879 22.9871096 134.072293 24.2141795 135.891401 25.0322261 135.891401 26.0466039 137.223248 26.5537928 138.538854 26.0466039 141.072611 25.7357462 141.689809 26.259296 142.907962 25.7357462 143.508917 26.7664849 141.998408 27.7808627 141.998408 29.2206247 142.501911 29.7278136 142.907962 29.629648 143.200318 28.8116014 144.126115 28.189886 145.035669 28.909767 147.163376 29.629648 148.07293 29.629648 148.07293 28.5989093 149.404777 29.5314824 149.502229 30.349529 148.885032 31.2657412 150.005732 30.6440258 150.931529 30.2350025 151.321338 30.9548835 151.321338 31.6747645 152.848089 30.8567179 155.284395 30.8567179 156.193949 31.7729301 157.006051 31.9856222 157.818153 31.4620724 158.938854 31.4620724 159.247452 32.0837878 159.653503 31.9856222 160.871656 31.2657412 162.089809 31.9856222 163.714013 30.8567179 164.428662 30.8567179 165.240764 31.5765989 166.864968 30.4476946 167.563376 30.5458602 168.180573 31.0530491 170.421975 31.2657412 170.616879 32.1819534 171.73758 31.1675756 172.338535 31.1675756 172.744586 32.4928111 174.677389 33 175.229618 32.6236986 175.067197 32.6236986 174.969745 31.6093208 177 30.3822509 176.691401 28.4353 174.758599 27.9281111 175.262102 27.4045612 175.262102 25.9811601 176.788854 24.8522558 176.382803 24.0342092 173.134395 21.4819038 167.449682 21.7927615 166.848726 22.8071393 166.134076 22.8071393 166.231529 19.2240952 164.607325 17.2935052 163.389172 17.4898364 162.674522 16.6717898 160.644268 17.588002 159.94586 16.8844819 158.516561 16.6717898 158.11051 15.3465543 158.013057 11.2563213 157.103503 10.847298 156.989809 10.2255825 156.388854 10.2255825 156.177707 8.99851264 154.862102 9.11303917 152.328344 9.93108577 151.110191 11.4526525 149.892038 11.4526525 149.079936 10.4382747 148.771338 9.30937035 147.764331 8.18046604 146.335032 8.18046604 145.734076 7.06792266 145.734076 5.31730293 146.432484 4.20475954 146.026433 2.66683193"><title>Nord-Pas-de-Calais</title></polygon>
        <path d="M194.576562,135 L193.452232,135.112981 L192.735268,136.420035 L190.8125,143.87508 L190.193304,145.295089 L189.476339,145.19827 L189.085268,143.181212 L188.563839,141.567566 L187.455804,141.664385 L186.527009,142.568027 L185.924107,141.761204 L185.011607,142.568027 L183.773214,141.761204 L182.762946,141.761204 L182.35558,142.067796 L181.752679,145.295089 L180.628348,145.295089 L179.813616,146.101912 L179.19442,145.488726 L175.935491,144.988496 L174.713393,145.6985 L173.898661,145.6985 L173.703125,144.988496 L172.171429,144.681903 L172.073661,143.068257 L171.764062,142.971438 L169.922768,143.278031 L169.629464,144.391447 L170.346429,145.795319 L170.541964,151.5399 L168.097768,151.652855 L168,152.556497 L169.629464,153.86355 L168.716964,154.767192 L168.407366,156.994024 L169.629464,158.60767 L170.7375,161.221777 L173.393527,162.948379 L174.306027,166.27249 L172.366964,168.079774 L172.676562,169.290009 L175.528125,170.209787 L177.776786,168.386367 L178.884821,168.289548 L182.14375,169.69342 L181.948214,171.613659 L183.577679,171.51684 L184.897545,173.033668 L184.294643,175.454137 L182.860714,176.051186 L182.257812,177.067783 L182.665179,178.374837 L182.958482,179.084841 L181.44308,179.084841 L181.329018,180.988944 L179.699554,181.101899 L178.884821,183.619187 L176.440625,183.619187 L173.800893,185.539426 L172.334375,187.84694 L172.578795,188.153533 L173.295759,191.86492 L175.022991,193.720613 L174.729688,195.850626 L176.896875,197.141543 L176.896875,199.997697 L178.053795,199.416784 L180.497991,200.998157 L181.654911,201.417705 L181.93192,199.416784 L183.382143,199.142464 L183.805804,200.707701 L185.256027,200.562473 L185.533036,198.997236 L188.840848,200.836793 L189.378571,199.75565 L192.132366,199.352238 L192.735268,200.062242 L192.441964,202.0793 L192.84933,202.579531 L194.364732,201.062703 L195.700893,200.965884 L195.994196,200.159061 L194.266964,199.949287 L193.973661,198.142003 L195.081696,196.431538 L196.515625,196.318583 L197.933259,197.641773 L196.515625,199.545876 L196.922991,200.25588 L198.959821,200.465654 L200.279687,199.352238 L199.562723,200.869066 L199.774554,202.0793 L201.909152,202.272938 L204.760714,202.482712 L205.16808,203.789765 L206.699777,204.903181 L208.019643,205 L208.932143,204.193177 L209.453571,202.676349 L210.268304,203.386354 L210.871205,204.096358 L211.278571,200.352699 L210.268304,200.159061 L209.649107,198.852008 L206.194643,197.932229 L205.770982,196.221764 L207.009375,195.414941 L205.982812,194.704937 L206.194643,193.801295 L207.824107,193.898114 L209.241741,194.608118 L210.366071,193.301065 L209.241741,192.397423 L209.339509,191.187188 L209.958705,189.266949 L212.093304,189.057175 L213.820536,188.363307 L214.130134,187.653303 L213.315402,187.249891 L213.315402,186.039657 L215.857366,186.039657 L216.672098,185.232833 L216.166964,184.329192 L217.48683,183.312594 L218.415625,183.716006 L219.735491,182.60259 L222.065625,183.006002 L222.880357,182.10236 L224.81942,182.199179 L224.81942,179.988483 L224.004687,179.585072 L223.597321,178.278018 L221.462723,178.068244 L221.153125,177.568014 L221.560491,175.454137 L222.277455,174.840952 L224.11875,174.647314 L224.721652,175.244363 L225.03125,176.664372 L226.85625,176.454598 L227.06808,174.93777 L227.98058,174.534359 L229.935937,174.631178 L229.903348,174.566632 L232.950446,173.356397 L234.074777,174.066401 L235.199107,174.066401 L235.296875,172.856167 L236.616741,172.146162 L237.121875,171.549113 L239.777902,170.532516 L240.0875,168.822051 L239.566071,168.015228 L241,165.594759 L239.680134,165.094528 L239.272768,163.67452 L236.518973,162.060873 C236.518973,162.060873 236.683234,158.969256 236.421205,158.414033 C236.412967,158.400143 236.39529,158.374118 236.388616,158.365649 C236.386009,158.363067 236.375007,158.351914 236.372295,158.349487 C236.37021,158.349601 236.357487,158.349451 236.355975,158.349487 C236.355949,158.345872 236.355886,158.334306 236.355975,158.333325 C236.353889,158.333387 236.341166,158.333304 236.339654,158.333325 C236.33809,158.333247 236.324898,158.333289 236.323333,158.333325 C236.321248,158.333283 236.308525,158.33333 236.307013,158.333325 C235.899646,158.434181 234.384245,158.543099 234.384245,158.543099 L232.852548,156.816497 L232.950316,153.395567 L236.421075,151.975559 L236.828441,150.975098 L236.616611,148.748266 L234.384245,146.440752 L233.66728,146.844163 L233.66728,145.924385 L233.66728,144.423694 L231.728218,143.503916 L231.63045,142.697093 L232.75478,141.486858 L232.75478,140.082986 L230.913486,138.162747 L230.815718,136.855693 L227.344959,136.855693 L225.014825,137.259105 L222.766164,139.066389 L222.163263,138.162747 L221.038932,138.259565 L220.01237,140.486397 L220.126432,141.390039 L221.234468,142.293681 L219.197638,143.616871 L217.877771,144.827106 L214.521075,144.827106 L214.521075,142.906867 L215.743173,142.196862 L217.568173,142.003225 L217.682236,140.986628 L217.063039,140.583216 L218.594736,138.662977 L218.382905,138.065928 L216.639379,137.14615 L212.402771,141.761178 L209.453441,141.761178 L209.453441,140.550943 L207.823977,139.74412 L205.884914,141.857997 L204.353218,142.067771 L204.353218,140.647762 L203.033352,140.050713 L200.996521,137.226832 L199.155227,136.516827 L198.552325,135.209774 L197.525763,135 L196.515495,135.710004 L195.700763,135.919778 L194.576432,135 L194.576562,135 Z" id="RhoneAlpes"  class="region"  data-region="82"    stroke="#FFFFFF"><title>Rhône-Alpes</title></path>
        <polygon  class="region"  data-region="72"  id="Aquitaine"   stroke="#FFFFFF" points="104.555964 159 103.642151 160.633739 102.20616 160.829787 102.108251 163.280395 97.3107332 166.547872 97.2128246 170.12576 95.3688807 171.955547 94.3571593 172.886778 92.3173983 172.674392 91.1914502 174.618541 90.3755459 176.350304 89.3638244 175.631459 87.9278327 176.350304 86.7039761 176.154255 84.3704895 173.801672 82.9344978 173.703647 82.5265456 170.43617 79.8666973 170.12576 79.7687888 168.590046 79.2629281 169.096505 76.2440818 169.096505 76.3909446 169.75 77.1089405 172.707067 77.3047575 175.664134 76.7988968 176.481003 76.2930361 174.030395 74.8570444 168.426672 69.6515744 163.721505 69.765801 161.581307 68.7377614 161.483283 67.1059527 163.933891 66.6000919 172.511018 65.2783268 181.18617 64.3481958 187.917173 64.2502873 189.665274 64.9682832 187.31269 66.3879568 185.466565 68.4277178 187.31269 68.6398529 187.917173 69.2436222 188.734043 66.6980005 188.848404 66.2900483 188.227584 65.2783268 188.636018 65.0661917 190.171733 63.9402436 191.707447 63.9402436 194.043693 62.1126178 203.846125 59.7628131 212.831687 59.0448173 216.31155 58.441048 218.762158 56.4991956 222.12766 54.1493909 224.986702 52.3217651 225.705547 51 225.901596 51 227.028875 52.2238566 228.156155 54.0514824 228.254179 54.1493909 229.577508 55.5853827 229.691869 55.9933349 228.760638 57.9351873 229.577508 59.1590439 229.887918 59.4527695 231.113222 58.7510917 231.734043 58.7510917 233.661854 57.3151 234.380699 57.2171915 235.295593 58.1310044 236.324848 59.7628131 236.831307 60.0728568 235.295593 60.9866697 234.282675 60.8887612 235.606003 61.6067571 236.635258 63.4343829 236.635258 64.2502873 237.746201 66.6980005 238.154635 69.0478051 239.592325 72.9151919 239.592325 73.1273271 241.732523 75.7708573 243.774696 76.7988968 245 77.9248449 244.395517 78.9365663 244.183131 79.442427 244.68959 80.372558 244.183131 82.1512296 243.202888 82.3144105 241.095365 83.1303149 240.474544 83.5545852 237.109043 85.0721673 237.419453 85.6922547 237.011018 84.9742588 235.573328 87.7320156 233.220745 89.3638244 229.544833 90.3755459 228.221505 89.1516893 226.391717 88.3357849 225.166413 89.4617329 224.137158 87.7320156 221.278116 84.9742588 221.082067 84.1583544 219.644377 84.8763503 217.700228 85.8880717 216.3769 85.578028 214.645137 86.3939324 213.828267 85.1863939 211.786094 86.1981154 210.56079 87.3240634 210.348404 88.3357849 210.756839 89.7717766 209.531535 90.2776373 211.067249 90.783498 211.786094 91.9094461 211.475684 91.8115376 210.152356 92.5295334 208.616641 93.7370719 209.645897 95.3688807 208.012158 96.0868766 209.025076 97.8165939 208.714666 99.6605378 208.518617 100.476442 207.080927 103.527925 206.786854 105.061825 208.306231 105.584004 207.799772 106.595725 207.489362 106.187773 206.068009 107.721673 205.659574 109.663526 205.25114 109.239255 204.025836 109.859343 203.306991 110.365203 201.362842 109.239255 200.137538 109.957251 197.801292 111.491151 198.716185 113.743048 198.307751 112.715008 196.053191 111.899104 192.9981 113.938865 192.900076 114.444725 191.56041 115.374856 190.645517 115.472765 189.109802 117.708343 188.913754 119.144335 186.871581 118.524247 186.659195 118.426339 185.548252 120.156056 185.335866 120.270283 184.322948 121.086187 183.800152 122 182.166413 121.086187 181.153495 121.086187 180.026216 121.787865 179.421733 120.874052 177.984043 120.97196 175.745821 118.736382 175.843845 117.82257 175.223024 118.638474 174.210106 117.512526 173.295213 118.32843 172.265957 117.512526 171.857523 117.512526 170.43617 119.552287 168.590046 118.426339 167.675152 117.82257 166.139438 115.668582 165.829027 114.950586 165.322568 116.484486 164.603723 115.978626 163.901216 113.743048 163.590805 113.220869 161.548632 109.957251 161.238222 109.239255 162.267477 108.537578 162.463526 107.607447 161.238222 108.031717 160.110942 107.509538 159.098024"><title>Aquitaine</title></polygon>
        <path d="M291.301805,234 L289.74775,235.008233 L289.954954,236.016461 L290.783783,237.024694 L289.851352,237.730456 L290.265766,238.537041 L289.644147,239.242798 L289.644147,240.150209 L290.680181,241.057615 L290.680181,242.469135 L290.058562,243.779839 L289.333335,244.082304 L288.504506,242.973254 L287.054053,243.074076 L286.743246,242.872428 L285.5,242.872428 L284.360362,243.88066 L283.945947,245.594651 L281.25225,246.098765 L279.180178,247.81276 L278.765764,248.92181 L277.72973,248.820988 L277.211713,248.216053 L276.900901,249.930043 L276.175675,250.232513 L275.96847,251.845682 L276.279277,252.551439 L275.139641,253.358024 L274.828829,254.164608 L274,254.164608 L274,255.273663 L275.036034,255.979425 L276.797299,256.987653 L276.900901,257.794243 L275.864862,258.096708 L274.207205,258.399178 L274.207205,259.104941 L274.828829,259.709876 L274.932431,261.726337 L277.211713,262.4321 L278.040542,262.633749 L278.765764,263.742798 L278.247747,264.448561 L277.418918,264.751031 L276.797299,265.860086 L276.175675,266.565843 L276.486487,268.38066 L278.040542,268.279839 L278.454957,268.582304 L279.905405,267.876547 L280.319819,268.279839 L279.594593,269.79218 L280.319819,270.497943 L279.076576,271.405349 L278.247747,273.220166 L280.527029,273.72428 L283.738737,274.026751 L282.391892,275.539098 C282.391892,275.539098 281.355858,275.135805 281.355858,275.639919 C281.355858,276.144033 280.630631,277.35391 280.630631,277.35391 L281.666665,278.462964 L283.531533,279.572019 L287.054053,280.479425 L288.090092,280.882717 L289.022523,281.28601 L288.400904,282.395064 L290.058562,282.294237 L290.369369,283 L292.027026,283 L292.441441,281.084361 L291.405407,280.882717 L292.855855,279.370371 L292.337839,278.866257 L292.441441,277.958851 L294.306309,276.950618 L294.409911,275.841563 L293.166668,275.740741 L292.337839,276.446504 L292.337839,275.438271 L293.995496,275.337449 L294.513513,274.127572 L294.927928,270.598765 L294.617121,269.086423 L294.513513,264.650209 L297,261.222223 L297,255.576133 L295.963966,253.660494 L295.653154,247.611112 L294.927928,246.502057 L293.581082,245.493829 L293.373877,241.763378 L293.995496,240.049382 L293.166668,237.327164 L292.648651,235.109055 L292.234236,234.504119 L291.301805,234 L291.301805,234 Z" id="Corse"   class="region"  data-region="94"   stroke="#FFFFFF">
          <title>Corse</title>
        </path>
      </g>
    </g>
  </g>
</svg>
